<svg width="338" height="59" viewBox="0 0 338 59" fill="none" xmlns="http://www.w3.org/2000/svg">
<path d="M14.2 32.4C14.3067 32.2933 14.92 32.1867 16.04 32.08C17.2133 31.92 18.5733 31.44 20.12 30.64C20.1733 30.64 20.1467 30 20.04 28.72C19.88 26.48 19.7467 24.88 19.64 23.92C19.5333 22.64 19.4267 21.7333 19.32 21.2C19.32 20.1867 18.92 18.08 18.12 14.88L14.6 26.8C13.8533 30.1067 13.56 32.1333 13.72 32.88L14.2 32.4ZM3.4 34.72L3.88 31.2C3.88 30.5067 3.98667 29.8133 4.2 29.12C4.2 28.2133 4.65333 26.8533 5.56 25.04C5.56 24.9333 5.8 24.24 6.28 22.96C6.28 22.8533 6.78667 21.28 7.8 18.24L8.76 15.92C8.76 15.7067 8.89333 15.3067 9.16 14.72C9.42667 14.08 9.61333 13.4667 9.72 12.88C9.88 12.24 10.0667 11.6267 10.28 11.04C11.0267 9.6 11.6933 8.37333 12.28 7.36C13.4 5.22667 15.48 4.26666 18.52 4.48L21.08 4.72C22.68 5.14666 23.9067 5.6 24.76 6.08C25.9867 6.56 26.8133 7.09333 27.24 7.68C27.6667 8.21333 27.8533 9.12 27.8 10.4C27.8533 11.04 28.0133 13.8133 28.28 18.72C28.5467 23.6267 28.68 26.1067 28.68 26.16L29.08 29.6C29.08 29.92 29.6667 33.76 30.84 41.12L32.6 46.72C33.6667 49.7067 34.2267 51.28 34.28 51.44C34.3867 51.5467 34.6267 52.1067 35 53.12C35.5867 54.88 35.08 56.0533 33.48 56.64C32.04 56.8533 30.9733 56.72 30.28 56.24C30.0133 56.24 29.4 56 28.44 55.52C28.3333 55.2533 28.0133 54.9867 27.48 54.72C27 54.5067 26.68 54.32 26.52 54.16C25.9333 54 25.4 53.1733 24.92 51.68C24.76 51.5733 24.4667 51.1467 24.04 50.4C23.6667 49.6533 23.56 49.04 23.72 48.56C23.3467 48.08 23.16 47.0933 23.16 45.6C22.68 44.8 22.44 43.5467 22.44 41.84C22.44 40.1333 22.1733 38.8 21.64 37.84C18.92 39.0667 16.0133 39.7333 12.92 39.84C12.3333 39.84 12.04 39.9467 12.04 40.16C12.04 40.64 11.88 41.4933 11.56 42.72L10.2 51.52C10.7333 55.4667 10.2533 57.5467 8.76 57.76C8.33333 57.76 7.61333 57.8667 6.6 58.08C5.64 58.2933 4.84 58.1067 4.2 57.52C2.97333 56.8267 2.09333 56.1067 1.56 55.36C1.08 54.6667 0.866667 53.8667 0.92 52.96C0.973333 52.2133 1.10667 50.6133 1.32 48.16C1.42667 48.0533 1.45333 47.4667 1.4 46.4C1.4 45.28 1.48 44.4267 1.64 43.84L2.92 38.88C3.08 38.7733 3.29333 37.9733 3.56 36.48C3.50667 36.3733 3.48 36.1067 3.48 35.68L3.4 34.72ZM49.6238 22.88L48.7438 33.76L49.2238 32.64C49.4371 32.16 50.2104 31.04 51.5438 29.28C51.5438 29.12 52.3704 27.7067 54.0238 25.04L55.3838 23.44L56.1038 22.32C57.1171 21.52 57.9704 21.12 58.6638 21.12C60.1038 20.9067 61.6504 21.3333 63.3038 22.4C63.6771 22.4533 64.1571 22.8533 64.7438 23.6C65.6504 24.2933 66.0504 25.28 65.9438 26.56C65.9438 26.6667 65.9171 26.8267 65.8638 27.04C64.8504 35.36 64.3171 41.2 64.2638 44.56C64.2104 47.8667 64.4771 50.64 65.0638 52.88C65.4904 54.7467 64.7971 56.0533 62.9838 56.8C62.5038 57.12 61.7571 57.1733 60.7438 56.96C59.8371 56.96 59.1438 56.8267 58.6638 56.56C58.2371 56.3467 57.7838 55.8133 57.3038 54.96L56.9037 53.36C56.6904 52.9333 56.5838 52.3467 56.5838 51.6L56.2638 49.28C56.3171 49.1733 56.3438 48.48 56.3438 47.2L56.4238 45.12C56.2638 44.3733 56.2904 42.9067 56.5038 40.72L56.6638 37.28V35.28C56.7171 35.12 56.5571 34.7467 56.1838 34.16C54.7971 35.2267 53.2504 38.8 51.5438 44.88L49.4638 51.28C48.5038 54.6933 47.4638 56.5333 46.3438 56.8L45.4638 56.96C44.7171 56.96 43.7038 56.7467 42.4238 56.32C41.4104 55.2 40.9038 54.08 40.9038 52.96C41.0104 52.7467 41.0371 52.5067 40.9838 52.24C40.8238 51.5467 40.8771 50.5867 41.1438 49.36C41.0904 49.2 41.0638 48.9867 41.0638 48.72L41.1438 47.52C41.0371 47.2533 40.9304 46.5067 40.8238 45.28C40.7171 44 40.7171 43.04 40.8238 42.4C40.7171 42.1867 40.8771 41.4667 41.3038 40.24C40.8771 39.6 40.6371 38.88 40.5838 38.08C40.3704 35.8933 40.2904 34.2667 40.3438 33.2C40.4504 32.08 40.5038 31.04 40.5038 30.08C40.3971 29.12 40.3704 27.9733 40.4238 26.64L40.9838 20.16L41.5438 15.52C41.5438 15.1467 41.4104 14.5867 41.1438 13.84C40.9304 13.04 40.8771 12.1067 40.9838 11.04C41.0904 9.97333 41.1971 9.30666 41.3038 9.04C41.4638 8.72 41.6771 7.92 41.9438 6.64C41.9438 5.57333 42.0504 4.77333 42.2638 4.24L42.7438 2.8C42.7971 2.42666 43.4904 1.81333 44.8238 0.959996H45.7038C47.7838 1.12 49.3038 1.46666 50.2638 2C50.6904 2.26666 50.7971 3.2 50.5838 4.8C50.4771 7.04 50.3971 8.42667 50.3438 8.96C50.2904 9.49333 50.1571 11.8133 49.9438 15.92C49.7304 20.0267 49.6238 22.3467 49.6238 22.88ZM88.6463 30.4C88.2729 28.2667 87.2329 27.28 85.5263 27.44C84.5663 27.4933 83.7396 28.1333 83.0463 29.36C82.0863 31.2267 81.6596 33.6533 81.7663 36.64C81.9263 39.5733 82.1396 41.7067 82.4063 43.04C82.7263 44.32 83.2596 45.44 84.0063 46.4C84.4329 47.1467 85.0729 47.4933 85.9263 47.44C87.4196 47.44 88.5129 46.1867 89.2063 43.68L89.8463 41.76C90.1129 41.4933 90.1663 41.2267 90.0063 40.96C90.5396 39.6267 90.8329 38.0533 90.8863 36.24C90.3529 35.8667 90.0329 35.52 89.9263 35.2C89.6063 34.2933 89.4463 33.68 89.4463 33.36C89.0729 33.0933 88.8596 32.5867 88.8063 31.84C88.7529 31.0933 88.6996 30.6133 88.6463 30.4ZM74.0063 37.92L74.3263 33.84C74.6996 30.16 75.8196 27.0133 77.6863 24.4C79.4996 22.2133 82.0596 21.0933 85.3663 21.04H85.8463C88.9396 21.04 91.1796 21.7067 92.5663 23.04C94.0596 24.2133 95.1529 25.4933 95.8463 26.88C96.5929 28.2667 97.0729 29.28 97.2863 29.92C97.4996 30.56 97.6329 31.4933 97.6863 32.72C97.7929 35.0133 97.3396 36.32 96.3263 36.64C97.0729 41.7067 96.6196 45.7333 94.9663 48.72C94.4329 49.9467 93.6596 51.28 92.6463 52.72C91.8996 53.68 90.5663 54.2133 88.6463 54.32C86.7263 54.32 85.0463 54.2133 83.6063 54C82.2196 53.7867 80.6729 53.12 78.9663 52C77.2596 50.8267 76.0596 48.9333 75.3663 46.32C74.6196 43.8133 74.1663 41.0133 74.0063 37.92ZM105.271 24.88C104.898 22.96 105.298 21.6267 106.471 20.88C107.058 20.56 107.511 20.4267 107.831 20.48C108.205 20.48 109.351 20.7733 111.271 21.36C111.538 21.36 111.725 21.4133 111.831 21.52C111.938 21.52 112.098 21.5733 112.311 21.68C112.791 21.68 113.031 21.7867 113.031 22C113.511 22.8 113.805 23.7333 113.911 24.8C114.125 26.9867 114.391 28.7733 114.711 30.16C114.711 30.1067 114.738 30.0267 114.791 29.92C115.805 28.64 116.338 27.8933 116.391 27.68C116.285 27.5733 116.471 27.28 116.951 26.8C117.325 25.6267 117.591 24.9067 117.751 24.64C117.751 24.3733 117.991 23.9467 118.471 23.36C118.845 22.6133 119.165 22.1333 119.431 21.92C119.698 21.6533 119.911 21.44 120.071 21.28C120.871 20.48 121.938 20.1867 123.271 20.4C123.431 20.4 123.725 20.3733 124.151 20.32C125.005 20.2133 125.511 20.2933 125.671 20.56C127.325 20.56 127.965 22.5867 127.591 26.64C127.378 28.4533 127.058 29.4933 126.631 29.76C126.205 30.0267 125.378 30.32 124.151 30.64C122.978 30.96 122.151 31.2267 121.671 31.44C119.805 32.24 118.605 33.4667 118.071 35.12C118.018 35.7067 117.858 36.32 117.591 36.96C117.485 37.8133 117.405 38.32 117.351 38.48C117.351 38.64 117.351 38.96 117.351 39.44C117.351 40.5067 117.191 41.52 116.871 42.48C116.711 43.4933 116.631 45.12 116.631 47.36C116.685 49.5467 116.631 51.0933 116.471 52C116.365 52.9067 116.285 53.36 116.231 53.36C116.285 53.6267 116.311 53.8133 116.311 53.92V54.4C116.151 54.8267 115.645 55.4667 114.791 56.32L113.591 56.4C112.365 56.4 111.698 56.32 111.591 56.16C111.058 55.9467 110.658 55.6267 110.391 55.2C110.071 55.1467 109.911 54.9333 109.911 54.56C109.431 54.4533 109.138 54.1333 109.031 53.6C108.445 52.96 108.151 52.5333 108.151 52.32C107.565 50.2933 107.351 48.5333 107.511 47.04V42.96C107.618 42.64 107.671 42.4533 107.671 42.4V41.68C107.991 41.36 108.045 41.1467 107.831 41.04V40.4C107.885 40.3467 107.911 40.16 107.911 39.84C107.965 39.52 108.018 38.96 108.071 38.16C108.178 37.4667 107.991 35.12 107.511 31.12C107.298 30.9067 106.925 29.8133 106.391 27.84C106.391 27.52 106.285 27.1467 106.071 26.72V26C105.858 25.36 105.671 25.04 105.511 25.04C105.351 24.9867 105.271 24.9333 105.271 24.88ZM132.981 48.48C133.995 41.5467 134.501 37.9733 134.501 37.76L134.901 35.52C135.061 35.36 135.141 34.16 135.141 31.92V30.32L135.301 28.64C135.141 27.52 135.061 26.64 135.061 26C134.848 24.9867 134.955 23.9733 135.381 22.96C136.181 21.8933 137.541 21.5733 139.461 22C140.155 22.2133 140.768 22.5333 141.301 22.96C142.048 23.2267 142.581 23.4933 142.901 23.76C143.328 23.92 143.541 24.9067 143.541 26.72C144.181 26.08 145.595 25.36 147.781 24.56C148.101 24.56 148.768 24.4533 149.781 24.24C150.795 23.9733 151.648 23.84 152.341 23.84C153.035 23.84 153.568 23.92 153.941 24.08C155.008 24.72 155.595 25.1467 155.701 25.36C155.808 25.52 155.915 25.7867 156.021 26.16C156.181 26.5333 156.235 26.72 156.181 26.72C156.661 27.2 156.795 27.7333 156.581 28.32C156.101 29.0133 155.355 29.4133 154.341 29.52C153.381 29.52 151.568 30.32 148.901 31.92L146.501 33.12C144.421 34.56 143.275 35.36 143.061 35.52C142.155 46.9867 141.568 53.3333 141.301 54.56C141.141 55.04 140.768 55.52 140.181 56C139.595 56.48 138.875 56.4 138.021 55.76L136.901 55.36C135.995 54.9867 135.195 54.3467 134.501 53.44L133.541 52.16L133.061 50.8C133.061 50.48 133.035 50.16 132.981 49.84V48.48ZM176.508 33.12C176.561 32.96 176.668 32.0267 176.828 30.32C176.721 30.16 176.588 29.5733 176.428 28.56C176.001 27.7067 175.441 27.0667 174.748 26.64C173.894 26.2667 173.388 26.08 173.228 26.08C172.748 26.24 172.401 26.4267 172.188 26.64C172.028 26.8 171.574 27.5467 170.828 28.88C170.134 30.2133 169.548 32.4267 169.068 35.52C168.641 38.6133 168.428 40.8533 168.428 42.24C168.428 43.6267 168.481 45.3333 168.588 47.36C168.694 49.3333 169.121 50.2667 169.868 50.16C170.561 50.0533 171.521 48.1333 172.748 44.4C172.801 44.1333 172.988 43.6533 173.308 42.96L176.508 33.12ZM185.868 29.84C185.868 32.6667 186.161 35.2533 186.748 37.6C187.014 39.9467 187.494 42.4533 188.188 45.12C188.348 46.1867 188.401 46.72 188.348 46.72C189.681 49.6533 190.428 51.4133 190.588 52C190.748 52.5333 190.721 52.9867 190.508 53.36V53.28C190.348 53.76 189.841 54.1867 188.988 54.56C188.188 54.9867 187.468 55.2533 186.828 55.36C184.801 56 183.601 55.2267 183.228 53.04C183.014 52.88 182.694 52.56 182.268 52.08C181.894 51.5467 181.681 51.12 181.628 50.8C181.574 50.4267 181.388 50.08 181.068 49.76C180.961 49.4933 180.721 49.1467 180.348 48.72C179.974 48.2933 179.761 47.8667 179.707 47.44L179.468 45.28L179.308 45.2C178.454 46.96 177.894 48.1867 177.628 48.88C176.988 50.6933 175.868 52.7733 174.268 55.12C172.454 57.1467 170.241 57.7333 167.628 56.88C166.668 56.8267 165.894 56.5333 165.308 56C164.774 55.4667 164.401 55.1733 164.188 55.12C163.868 55.0133 163.414 54.6133 162.828 53.92C161.868 52.64 161.281 50.7467 161.068 48.24V46.16C161.228 45.8933 161.228 44.6133 161.068 42.32V41.84C160.748 40.24 160.588 39.28 160.588 38.96C160.588 38.64 160.641 38.2133 160.748 37.68C160.854 37.1467 160.881 36.8267 160.828 36.72C160.774 36.56 160.748 36.32 160.748 36V34.8L161.148 30.48C161.734 28.6133 162.374 26.9333 163.068 25.44C163.281 24.5333 163.681 23.8133 164.268 23.28C165.601 21.84 166.321 21.0133 166.428 20.8C166.801 20 168.188 19.36 170.588 18.88L171.948 18.96C172.481 18.96 172.961 19.04 173.388 19.2C173.814 19.3067 174.108 19.36 174.268 19.36C175.014 19.7333 175.628 19.92 176.108 19.92C176.588 19.92 177.388 20.2933 178.508 21.04C178.828 21.0933 179.628 21.5467 180.908 22.4C182.294 23.3067 183.094 23.8133 183.308 23.92L185.388 24.64C185.974 25.12 186.268 25.3867 186.268 25.44C186.268 25.4933 186.134 26.96 185.868 29.84ZM218.758 54L217.798 53.84C217.531 53.84 217.158 53.6533 216.678 53.28C216.198 52.8533 215.905 52.7467 215.798 52.96C215.745 53.12 215.478 53.0133 214.998 52.64C213.771 51.7333 212.731 50.5067 211.878 48.96C211.078 47.4133 210.998 46.1067 211.638 45.04C211.905 44.3467 212.465 43.44 213.318 42.32C214.171 41.1467 214.731 40.32 214.998 39.84C215.265 39.36 215.745 38.72 216.438 37.92C217.131 37.0667 217.585 36.3733 217.798 35.84C218.011 34.9867 218.731 34.16 219.958 33.36C220.278 32.72 220.545 32.24 220.758 31.92C220.971 31.5467 221.185 31.1467 221.398 30.72C222.038 29.4933 222.438 28.7733 222.598 28.56C222.811 28.2933 222.998 28.0267 223.158 27.76C223.425 27.3867 223.905 26.9333 224.598 26.4C224.758 25.8667 224.998 25.28 225.318 24.64C225.691 23.9467 225.931 23.4933 226.038 23.28C227.958 20.9333 229.345 18.3467 230.198 15.52C230.411 14.3467 230.278 13.4133 229.798 12.72C229.318 12.0267 228.438 11.9467 227.158 12.48C223.478 14.1867 220.278 17.4667 217.558 22.32C216.971 22.5867 216.438 22.48 215.958 22C215.531 21.84 214.998 21.44 214.358 20.8C213.665 20.3733 213.211 19.84 212.998 19.2C212.785 18.56 212.678 17.4667 212.678 15.92C212.678 14.32 212.891 13.12 213.318 12.32C213.745 11.52 214.091 11.04 214.358 10.88C214.678 10.56 214.838 10.08 214.838 9.44C215.158 8.8 215.478 8.42667 215.798 8.32C216.011 7.73333 216.065 7.36 215.958 7.2L216.438 6.56L217.398 4.8C218.038 3.84 218.838 3.25333 219.798 3.04C220.011 2.82666 220.198 2.66666 220.358 2.56C220.518 2.4 220.705 2.21333 220.918 2C221.131 2 221.451 1.89333 221.878 1.68C222.305 1.68 222.998 1.6 223.958 1.44C224.171 1.22667 224.678 1.14667 225.478 1.2C226.278 1.2 226.945 1.36 227.478 1.68C228.438 1.78666 229.051 1.86667 229.318 1.92C229.638 1.97333 229.851 2 229.958 2C230.065 2 230.358 2.29333 230.838 2.88L231.638 3.52C231.745 3.52 232.385 4.16 233.558 5.44C234.785 6.66666 235.478 7.52 235.638 8C235.851 8.42666 236.065 8.72 236.278 8.88C236.545 9.04 237.025 9.6 237.718 10.56C238.411 11.52 238.865 12.24 239.078 12.72C239.718 13.9467 239.931 15.7333 239.718 18.08C239.558 20.4267 238.891 22.6667 237.718 24.8C236.545 26.9333 234.198 30.4533 230.678 35.36C229.345 37.2267 226.651 40.3733 222.598 44.8C230.545 44.8 234.598 44.8533 234.758 44.96C234.918 45.0667 235.798 45.7867 237.398 47.12C237.665 47.44 238.118 48.24 238.758 49.52C239.398 50.7467 239.745 51.6267 239.798 52.16C240.065 52.8533 240.251 53.2 240.358 53.2C240.518 53.4133 240.571 53.76 240.518 54.24C240.465 54.7733 240.225 55.04 239.798 55.04C239.425 54.6133 238.491 54.32 236.998 54.16C235.558 54.0533 233.345 54 230.358 54C227.371 54 225.238 54.0533 223.958 54.16C220.491 54.16 218.758 54.1067 218.758 54ZM246.759 45.36L249.719 44.48C250.093 44.48 250.466 44.2933 250.839 43.92C251.426 43.5467 252.013 43.3867 252.599 43.44L256.119 41.68L257.239 41.28C258.999 40.3733 259.986 39.8933 260.199 39.84C260.839 39.36 261.319 39.0933 261.639 39.04C261.906 38.9867 262.333 38.7467 262.919 38.32C263.453 37.7867 264.013 37.4133 264.599 37.2C264.813 36.9867 265.293 36.6133 266.039 36.08C267.746 34.3733 268.253 32.9867 267.559 31.92C267.293 31.5467 266.839 31.2533 266.199 31.04C264.599 30.9333 263.213 30.88 262.039 30.88C260.866 30.88 259.079 31.1467 256.679 31.68L251.719 32.32C251.239 32.6933 250.493 32.32 249.479 31.2C249.159 31.2 248.359 30.72 247.079 29.76C246.653 29.2267 246.279 28.8267 245.959 28.56C245.213 28.1333 244.706 27.6 244.439 26.96C244.386 26.64 244.573 25.3333 244.999 23.04C245.479 20.7467 245.773 19.44 245.879 19.12C245.986 18.8 246.066 18.4267 246.119 18L246.919 15.84C248.413 12.5333 249.159 10.5067 249.159 9.76L248.839 8.8C248.199 7.84 247.879 6.93333 247.879 6.08C247.879 5.17333 247.933 4.66666 248.039 4.56C248.146 4.45333 248.493 4.45333 249.079 4.56C249.186 4.50666 249.533 4.29333 250.119 3.92C250.599 2.85333 251.213 2.61333 251.959 3.2C252.173 3.52 252.466 3.76 252.839 3.92C253.266 4.02666 253.693 3.94667 254.119 3.68C254.546 3.41333 255.133 3.52 255.879 4C256.146 3.94666 256.706 3.94666 257.559 4C257.826 4.16 258.119 4.13333 258.439 3.92C258.813 3.54666 259.479 3.33333 260.439 3.28C261.453 3.22666 262.199 3.12 262.679 2.96C263.159 2.74667 263.906 2.72 264.919 2.88C265.559 2.66666 266.199 2.56 266.839 2.56C266.946 2.66666 267.293 2.61333 267.879 2.4H267.959C269.399 2.29333 270.599 2.53333 271.559 3.12C271.933 3.22667 272.226 3.44 272.439 3.76C272.653 4.24 273.159 4.66666 273.959 5.04C273.853 5.30666 274.093 5.86666 274.679 6.72C275.266 7.52 275.639 8.37333 275.799 9.28C275.959 10.1333 275.879 10.6933 275.559 10.96C275.293 11.2267 274.946 11.4667 274.519 11.68C274.093 11.84 273.453 11.84 272.599 11.68C271.746 11.52 270.653 11.44 269.319 11.44C267.346 11.6 264.733 11.92 261.479 12.4C260.253 12.72 258.733 12.96 256.919 13.12C256.866 13.1733 256.733 13.6 256.519 14.4C256.359 15.2 256.226 15.68 256.119 15.84C255.693 18.2933 255.293 20.0267 254.919 21.04C254.546 22 254.359 22.56 254.359 22.72C257.719 22.24 259.479 22.0267 259.639 22.08H262.759C265.266 22.1867 267.053 22.64 268.119 23.44L268.999 24.08C270.066 24.72 270.946 25.4133 271.639 26.16L276.199 32C276.999 33.28 277.479 34.24 277.639 34.88C278.226 35.6267 278.439 36.48 278.279 37.44C278.066 37.44 277.906 37.52 277.799 37.68C277.746 37.7867 277.693 37.8933 277.639 38C277.426 38.2667 277.293 38.5067 277.239 38.72L275.079 41.36L273.879 42.64C273.826 42.9067 272.466 43.9467 269.799 45.76C267.186 47.5733 265.266 48.7467 264.039 49.28C260.253 51.04 257.559 52.2133 255.959 52.8C254.413 53.3333 252.439 53.7333 250.039 54C249.613 54.32 248.759 54.3467 247.479 54.08C246.199 53.8667 244.866 52.9333 243.479 51.28C242.839 50.5867 242.466 50.16 242.359 50C242.306 49.7867 242.439 49.4667 242.759 49.04C242.546 47.9733 242.306 47.2267 242.039 46.8C242.146 46.5867 242.359 46.3467 242.679 46.08C243.159 45.8667 243.853 45.68 244.759 45.52C245.346 45.68 246.013 45.6267 246.759 45.36ZM322.874 5.2H323.194C323.3 5.25333 323.487 5.30666 323.754 5.36C324.02 5.36 324.234 5.38666 324.394 5.44C326.047 6.66666 326.26 8.16 325.034 9.92C322.687 12.8533 321.14 15.0133 320.394 16.4C319.7 17.7867 318.927 19.1733 318.074 20.56C317.647 21.2533 313.994 27.2533 307.114 38.56L304.634 43.44C302.66 47.28 301.22 50.64 300.314 53.52C299.674 54.5333 298.714 54.6133 297.434 53.76C297.38 53.7067 297.327 53.68 297.274 53.68C297.22 53.6267 297.167 53.5467 297.114 53.44C297.06 53.3333 296.98 53.2267 296.874 53.12C296.82 53.0133 296.687 52.88 296.474 52.72C295.887 52.08 295.46 50.8533 295.194 49.04C295.194 48.08 295.3 47.36 295.514 46.88C296.1 45.6 296.927 43.5733 297.994 40.8C298.474 40.16 299.087 39.0933 299.834 37.6C300.1 36.8533 300.634 35.8933 301.434 34.72L306.474 25.52C307.54 23.8133 308.474 22.24 309.274 20.8C309.594 20.48 310.127 19.7333 310.874 18.56L312.474 15.36C314.714 12.5333 316.074 10.72 316.554 9.92C317.034 9.12 317.54 8.50666 318.074 8.08C318.127 7.92 318.34 7.62666 318.714 7.2C319.087 6.72 319.674 6.24 320.474 5.76C321.274 5.28 322.074 5.09333 322.874 5.2ZM329.994 46.24C330.474 44.48 330.847 43.4667 331.114 43.2C331.167 42.9333 331.194 42.6933 331.194 42.48V41.76C331.354 40.64 331.274 39.0933 330.954 37.12C330.9 36.0533 330.767 35.2267 330.554 34.64C330.34 34.0533 329.834 33.2267 329.034 32.16C328.394 31.68 328.074 31.36 328.074 31.2C327.7 30.88 327.247 31.12 326.714 31.92C326.554 32.3467 326.18 33.0933 325.594 34.16C325.007 35.2267 324.687 35.8133 324.634 35.92C324.74 36.1333 324.634 36.4 324.314 36.72C324.26 36.8267 324.234 36.9867 324.234 37.2C324.287 37.4133 324.287 37.6533 324.234 37.92C324.234 38.1867 324.154 39.5467 323.994 42C323.994 43.28 324.1 44.1867 324.314 44.72C324.314 45.68 324.394 46.5333 324.554 47.28C324.5 48.2933 324.58 48.96 324.794 49.28C325.274 50.2933 325.78 50.8 326.314 50.8C326.9 50.8 327.54 50.4 328.234 49.6C328.927 48.8 329.46 47.8133 329.834 46.64C329.727 46.3733 329.78 46.24 329.994 46.24ZM318.474 34.4L318.954 32.64C318.954 32.5867 318.954 32.5067 318.954 32.4C318.954 32.24 319.06 32.0267 319.274 31.76C319.54 31.4933 319.727 31.1733 319.834 30.8C319.727 29.8933 320.34 28.8533 321.674 27.68C321.834 27.5733 321.94 27.4667 321.994 27.36C322.1 27.2 322.154 27.0667 322.154 26.96C322.207 26.8533 322.34 26.6933 322.554 26.48C323.3 25.9467 324.234 25.8133 325.354 26.08C326.367 26.2933 326.927 26.3733 327.034 26.32C327.14 26.2133 327.594 26.0533 328.394 25.84C330.314 25.7333 332.207 26.8533 334.074 29.2C335.3 30.6933 336.154 32.2933 336.634 34C337.38 35.8133 337.674 37.8133 337.514 40C337.354 42.1333 337.114 43.4133 336.794 43.84C336.74 44.4267 336.314 45.7333 335.514 47.76C334.767 49.7867 334.287 50.96 334.074 51.28C333.7 51.92 333.487 52.3467 333.434 52.56C333.38 52.7733 333.114 53.12 332.634 53.6C331.887 54.3467 331.114 54.8533 330.314 55.12C329.567 55.3867 328.74 55.52 327.834 55.52C326.927 55.52 326.394 55.5467 326.234 55.6C325.86 55.5467 325.594 55.52 325.434 55.52H324.874C324.287 55.52 323.567 55.3067 322.714 54.88C321.914 54.4533 321.22 53.8133 320.634 52.96L319.514 50.8C319.14 50.5867 318.9 49.92 318.794 48.8C318.367 47.5733 317.994 45.4667 317.674 42.48C317.62 41.5733 317.727 39.2533 317.994 35.52C317.994 35.1467 318.127 34.96 318.394 34.96C318.5 34.8533 318.527 34.6667 318.474 34.4ZM294.794 20.64C295.274 18.88 295.647 17.8667 295.914 17.6C295.967 17.3333 295.994 17.0933 295.994 16.88V16.16C296.154 15.04 296.074 13.4933 295.754 11.52C295.7 10.4533 295.567 9.62667 295.354 9.04C295.14 8.45333 294.634 7.62666 293.834 6.56C293.194 6.08 292.874 5.76 292.874 5.6C292.5 5.28 292.047 5.52 291.514 6.32C291.354 6.74667 290.98 7.49333 290.394 8.56C289.807 9.62666 289.487 10.2133 289.434 10.32C289.54 10.5333 289.434 10.8 289.114 11.12C289.06 11.2267 289.034 11.3867 289.034 11.6C289.087 11.8133 289.087 12.0533 289.034 12.32C289.034 12.5867 288.954 13.9467 288.794 16.4C288.794 17.68 288.9 18.5867 289.114 19.12C289.114 20.08 289.194 20.9333 289.354 21.68C289.3 22.6933 289.38 23.36 289.594 23.68C290.074 24.6933 290.58 25.2 291.114 25.2C291.7 25.2 292.34 24.8 293.034 24C293.727 23.2 294.26 22.2133 294.634 21.04C294.527 20.7733 294.58 20.64 294.794 20.64ZM283.274 8.8L283.754 7.04C283.754 6.98667 283.754 6.90667 283.754 6.8C283.754 6.64 283.86 6.42666 284.074 6.16C284.34 5.89333 284.527 5.57333 284.634 5.2C284.527 4.29333 285.14 3.25333 286.474 2.08C286.634 1.97333 286.74 1.86666 286.794 1.76C286.9 1.6 286.954 1.46666 286.954 1.36C287.007 1.25333 287.14 1.09333 287.354 0.879997C288.1 0.346664 289.034 0.213331 290.154 0.479998C291.167 0.693331 291.727 0.773332 291.834 0.719999C291.94 0.613331 292.394 0.45333 293.194 0.239996C295.114 0.133331 297.007 1.25333 298.874 3.6C300.1 5.09333 300.954 6.69333 301.434 8.4C302.18 10.2133 302.474 12.2133 302.314 14.4C302.154 16.5333 301.914 17.8133 301.594 18.24C301.54 18.8267 301.114 20.1333 300.314 22.16C299.567 24.1867 299.087 25.36 298.874 25.68C298.554 26.32 298.34 26.7467 298.234 26.96C298.18 27.1733 297.914 27.52 297.434 28C296.687 28.7467 295.914 29.2533 295.114 29.52C294.367 29.7867 293.54 29.92 292.634 29.92C291.727 29.92 291.194 29.9467 291.034 30C290.66 29.9467 290.394 29.92 290.234 29.92H289.674C289.087 29.92 288.367 29.7067 287.514 29.28C286.714 28.8533 286.02 28.2133 285.434 27.36L284.314 25.2C283.94 24.9867 283.7 24.32 283.594 23.2C283.167 21.9733 282.794 19.8667 282.474 16.88C282.42 15.9733 282.527 13.6533 282.794 9.92C282.794 9.54667 282.927 9.36 283.194 9.36C283.3 9.25333 283.327 9.06667 283.274 8.8Z" fill="#9A99EA"/>
</svg>
