<svg width="1013" height="508" viewBox="0 0 1013 508" fill="none" xmlns="http://www.w3.org/2000/svg">
<path d="M863.757 318.876V359.447H807.812V287.457H751.869V227.195H670.628V284.04H659.243V221.547H633.62V170.082H618.145V221.547H592.523V284.04H581.137V393.384H524.451V360.431L453.27 322.857V265.478H436.17V233.251L416.685 203.519L402.986 182.613V128H391.416V182.613L377.715 203.519L358.231 233.251V265.478H341.13V284.452H310.317V224.189H229.501V349.573L150.908 349.782L114.578 319.326L67 319.452L67.7043 508C68.4385 506.749 945 508.253 945 507.774V318.876H863.757Z" fill="url(#paint0_linear_240_278)"/>
<path d="M777.532 248.422L776.018 240.687C775.993 240.56 775.895 240.46 775.769 240.433L768.067 238.76C767.723 238.685 767.728 238.193 768.074 238.126L775.809 236.612C775.936 236.587 776.036 236.489 776.063 236.363L777.736 228.661C777.811 228.317 778.303 228.322 778.37 228.668L779.884 236.403C779.909 236.53 780.007 236.63 780.133 236.657L787.835 238.33C788.179 238.405 788.174 238.897 787.828 238.964L780.093 240.478C779.966 240.503 779.866 240.601 779.839 240.727L778.166 248.429C778.092 248.772 777.6 248.767 777.532 248.422ZM1001.84 455.125L1000.33 447.39C1000.3 447.263 1000.21 447.163 1000.08 447.136L992.377 445.463C992.033 445.388 992.038 444.896 992.383 444.829L1000.12 443.315C1000.25 443.29 1000.35 443.192 1000.37 443.066L1002.05 435.364C1002.12 435.02 1002.61 435.025 1002.68 435.371L1004.19 443.106C1004.22 443.233 1004.32 443.333 1004.44 443.36L1012.14 445.033C1012.49 445.108 1012.48 445.6 1012.14 445.667L1004.4 447.181C1004.28 447.206 1004.18 447.304 1004.15 447.43L1002.48 455.132C1002.4 455.475 1001.91 455.47 1001.84 455.125ZM799.419 20.9128L797.905 13.1778C797.88 13.0508 797.782 12.9508 797.656 12.9238L789.954 11.2508C789.61 11.1758 789.615 10.6838 789.961 10.6168L797.696 9.10275C797.823 9.07775 797.923 8.97975 797.95 8.85375L799.623 1.15176C799.698 0.807756 800.19 0.812752 800.257 1.15875L801.771 8.89375C801.796 9.02075 801.894 9.12075 802.02 9.14775L809.722 10.8208C810.066 10.8958 810.061 11.3878 809.715 11.4548L801.98 12.9688C801.853 12.9938 801.753 13.0918 801.726 13.2178L800.053 20.9198C799.978 21.2628 799.486 21.2577 799.419 20.9128ZM9.72028 423.841L8.20627 416.106C8.18127 415.979 8.08328 415.879 7.95728 415.852L0.255268 414.179C-0.0887323 414.104 -0.0837285 413.612 0.262271 413.545L7.99727 412.031C8.12427 412.006 8.22427 411.908 8.25127 411.782L9.92427 404.08C9.99927 403.736 10.4913 403.741 10.5583 404.087L12.0723 411.822C12.0973 411.949 12.1953 412.049 12.3213 412.076L20.0233 413.749C20.3673 413.824 20.3623 414.316 20.0163 414.383L12.2813 415.897C12.1543 415.922 12.0543 416.02 12.0273 416.146L10.3543 423.848C10.2803 424.191 9.78828 424.186 9.72028 423.841ZM244.605 303.523L243.091 295.788C243.066 295.661 242.968 295.561 242.842 295.534L235.14 293.861C234.796 293.786 234.801 293.294 235.147 293.227L242.882 291.713C243.009 291.688 243.109 291.59 243.136 291.464L244.809 283.762C244.884 283.418 245.376 283.423 245.443 283.769L246.957 291.504C246.982 291.631 247.08 291.731 247.206 291.758L254.908 293.431C255.252 293.506 255.247 293.998 254.901 294.065L247.166 295.579C247.039 295.604 246.939 295.702 246.912 295.828L245.239 303.53C245.164 303.873 244.672 303.868 244.605 303.523ZM196.213 95.5488L194.305 85.8047C194.274 85.6447 194.15 85.5188 193.991 85.4848L184.288 83.3768C183.855 83.2828 183.861 82.6628 184.296 82.5778L194.04 80.6698C194.2 80.6388 194.326 80.5148 194.36 80.3558L196.468 70.6528C196.562 70.2198 197.182 70.2258 197.267 70.6608L199.175 80.4048C199.206 80.5648 199.33 80.6908 199.489 80.7247L209.192 82.8327C209.625 82.9268 209.619 83.5468 209.184 83.6318L199.44 85.5388C199.28 85.5698 199.154 85.6938 199.12 85.8528L197.012 95.5558C196.918 95.9898 196.298 95.9837 196.213 95.5488Z" fill="#F6F6F6"/>
<path d="M909.668 344.652C909.668 340.771 912.814 337.624 916.696 337.624C920.578 337.624 923.724 340.771 923.724 344.652C923.724 348.533 920.578 351.68 916.696 351.68C912.814 351.68 909.668 348.533 909.668 344.652ZM966.952 176.451C966.952 172.57 970.098 169.423 973.98 169.423C977.862 169.423 981.008 172.569 981.008 176.451C981.008 180.332 977.862 183.479 973.98 183.479C970.098 183.479 966.952 180.333 966.952 176.451ZM730.181 122.925C730.181 119.044 733.328 115.897 737.209 115.897C741.09 115.897 744.237 119.044 744.237 122.925C744.237 126.806 741.091 129.953 737.209 129.953C733.327 129.953 730.181 126.806 730.181 122.925ZM318.655 190.832C318.655 186.951 321.801 183.804 325.683 183.804C329.564 183.804 332.711 186.95 332.711 190.832C332.711 194.713 329.565 197.86 325.683 197.86C321.802 197.86 318.655 194.713 318.655 190.832ZM50.1484 221.086C50.1484 217.205 53.2954 214.058 57.1764 214.058C61.0574 214.058 64.2044 217.204 64.2044 221.086C64.2044 224.967 61.0584 228.114 57.1764 228.114C53.2944 228.114 50.1484 224.967 50.1484 221.086Z" fill="#F6F6F6"/>
<path d="M523.004 455.521C523.004 455.521 522.226 447.259 525.255 442.643C532.528 431.561 528.601 416.363 518.701 407.559C518.503 407.383 518.304 407.208 518.102 407.032C504.281 395.008 482.766 398.882 474.036 415.003C468.598 425.045 464.324 438.609 465.089 455.991L465.181 458.356L465.338 465.758C465.355 466.567 465.577 467.359 465.983 468.06C466.388 468.76 466.964 469.346 467.657 469.763C468.35 470.18 469.137 470.414 469.945 470.443C470.752 470.473 471.554 470.297 472.276 469.931L472.751 469.691C473.599 469.261 474.555 469.095 475.497 469.212C476.44 469.329 477.326 469.725 478.043 470.349L482.039 473.826C482.901 474.576 484.003 474.993 485.144 475C486.286 475.007 487.393 474.605 488.264 473.866L491.803 470.864C492.61 470.18 493.621 469.782 494.677 469.735C495.734 469.687 496.776 469.992 497.641 470.601L502.287 473.871C503.174 474.496 504.247 474.8 505.329 474.733C506.411 474.667 507.438 474.234 508.242 473.506L511.003 471.006C511.762 470.319 512.721 469.893 513.74 469.793C514.758 469.692 515.782 469.922 516.66 470.447C517.415 470.899 518.279 471.133 519.158 471.125C520.036 471.117 520.896 470.866 521.642 470.4C522.388 469.934 522.991 469.271 523.385 468.484C523.78 467.697 523.95 466.817 523.877 465.939L523.018 455.521" fill="#9A99EA"/>
<path d="M479.223 442.598C482.17 430.492 488.222 419.972 500.158 421.08C505.786 421.579 511.385 422.376 516.929 423.469C525.491 425.156 529.772 434.957 525.043 442.298C525.006 442.354 524.97 442.411 524.933 442.467C521.885 447.108 522.668 455.415 522.668 455.415L522.681 455.415L523.546 465.89C523.619 466.778 523.445 467.669 523.043 468.464C522.641 469.258 522.027 469.926 521.268 470.392C520.51 470.858 519.637 471.105 518.747 471.104C517.857 471.103 516.985 470.855 516.227 470.388C514.447 469.293 512.141 469.582 510.591 470.984L507.813 473.498C507.003 474.23 505.97 474.665 504.881 474.732C503.792 474.798 502.713 474.493 501.82 473.865L497.145 470.577C496.274 469.964 495.225 469.658 494.162 469.706C493.099 469.754 492.082 470.153 491.27 470.841L487.709 473.86C486.832 474.603 485.719 475.007 484.57 475C483.421 474.993 482.313 474.574 481.445 473.82L477.424 470.324C477.1 470.045 476.74 469.812 476.354 469.629C476.354 469.629 474 466.613 474 463.52C474 463.52 477.907 465.612 480.088 462.883C482.269 460.154 482.541 453.241 482.541 453.241C482.541 453.241 477.539 449.51 479.222 442.597L479.223 442.598Z" fill="url(#paint1_linear_240_278)"/>
<path d="M488 446L509 448" stroke="white" stroke-width="2" stroke-miterlimit="10" stroke-linecap="round"/>
<path d="M491 447V454" stroke="white" stroke-width="2" stroke-miterlimit="10" stroke-linecap="round"/>
<path d="M508.164 432.313C508.164 432.313 505.79 439.646 511.466 439.752C517.141 439.858 517.114 433.45 517.114 433.45M498.524 429.92C498.524 429.92 498.323 437.756 492.786 436.487C487.249 435.217 488.781 429 488.781 429" stroke="#373737" stroke-width="2" stroke-linecap="round" stroke-linejoin="round"/>
<path d="M493.5 488C503.717 488 512 486.881 512 485.5C512 484.119 503.717 483 493.5 483C483.283 483 475 484.119 475 485.5C475 486.881 483.283 488 493.5 488Z" fill="#D3DADC"/>
<path d="M534.022 435.263L534.026 435.226C534.102 434.669 534.37 434.155 534.786 433.771L542.212 426.915L537.045 426.235C536.832 426.207 536.625 426.137 536.439 426.03C536.252 425.923 536.088 425.781 535.957 425.611C535.826 425.442 535.73 425.249 535.675 425.042C535.619 424.836 535.605 424.621 535.634 424.41C535.691 423.983 535.918 423.596 536.264 423.334C536.61 423.072 537.047 422.957 537.479 423.014L544.866 423.987C545.512 424.072 546.098 424.407 546.494 424.919C546.89 425.431 547.065 426.078 546.978 426.717C546.903 427.279 546.631 427.797 546.209 428.182L538.685 435.052L544.102 435.765C544.534 435.822 544.925 436.046 545.19 436.389C545.455 436.731 545.571 437.163 545.514 437.59C545.456 438.017 545.229 438.404 544.883 438.666C544.537 438.927 544.1 439.043 543.668 438.986L536.134 437.994C535.814 437.952 535.505 437.848 535.226 437.688C534.947 437.528 534.702 437.315 534.506 437.061C534.31 436.808 534.166 436.518 534.083 436.21C534 435.901 533.979 435.58 534.022 435.263Z" fill="#FDC202"/>
<path d="M536.695 429.505L545.362 430.659C545.502 430.678 545.638 430.724 545.76 430.795C545.883 430.866 545.99 430.96 546.077 431.073C546.163 431.185 546.226 431.314 546.262 431.451C546.299 431.588 546.308 431.73 546.289 431.871C546.27 432.011 546.224 432.147 546.153 432.269C546.082 432.392 545.988 432.499 545.875 432.585C545.763 432.671 545.634 432.734 545.497 432.771C545.361 432.807 545.218 432.817 545.077 432.798L536.411 431.643C536.27 431.625 536.135 431.579 536.012 431.508C535.889 431.437 535.782 431.342 535.696 431.23C535.61 431.117 535.547 430.989 535.51 430.852C535.474 430.715 535.465 430.572 535.484 430.432C535.521 430.148 535.67 429.891 535.897 429.717C536.125 429.543 536.412 429.467 536.695 429.505Z" fill="#FDC202"/>
<path d="M529.058 452.237L529.065 452.209C529.174 451.783 529.429 451.408 529.788 451.146L536.202 446.474L532.228 445.498C531.895 445.416 531.61 445.208 531.434 444.92C531.258 444.631 531.205 444.286 531.289 443.96C531.372 443.634 531.583 443.353 531.877 443.181C532.171 443.008 532.523 442.956 532.855 443.038L538.537 444.434C538.783 444.494 539.015 444.602 539.218 444.75C539.422 444.899 539.594 445.085 539.725 445.299C539.855 445.512 539.942 445.749 539.979 445.995C540.016 446.242 540.004 446.493 539.942 446.735C539.833 447.164 539.574 447.542 539.211 447.804L532.719 452.479L536.886 453.502C537.218 453.584 537.503 453.792 537.68 454.08C537.856 454.369 537.908 454.714 537.825 455.04C537.742 455.366 537.53 455.647 537.236 455.819C536.942 455.992 536.591 456.044 536.259 455.962L530.463 454.538C530.217 454.478 529.985 454.37 529.782 454.222C529.578 454.074 529.406 453.887 529.275 453.674C529.145 453.46 529.058 453.223 529.021 452.977C528.984 452.73 528.996 452.479 529.058 452.237H529.058Z" fill="#FDC202"/>
<path d="M531.194 448.116L537.563 449.709C537.771 449.762 537.95 449.894 538.061 450.079C538.171 450.263 538.204 450.483 538.152 450.692C538.099 450.9 537.967 451.079 537.782 451.19C537.598 451.3 537.378 451.333 537.169 451.281L530.801 449.687C530.592 449.635 530.413 449.502 530.303 449.318C530.192 449.134 530.159 448.913 530.212 448.705C530.264 448.496 530.397 448.317 530.581 448.207C530.765 448.096 530.986 448.063 531.194 448.116Z" fill="#FDC202"/>
<defs>
<linearGradient id="paint0_linear_240_278" x1="506" y1="128" x2="506" y2="508" gradientUnits="userSpaceOnUse">
<stop stop-color="#EEEEEE"/>
<stop offset="1" stop-color="#EEEEEE" stop-opacity="0"/>
</linearGradient>
<linearGradient id="paint1_linear_240_278" x1="477.652" y1="436.613" x2="523.514" y2="461.607" gradientUnits="userSpaceOnUse">
<stop offset="0.529" stop-color="#9A99EA" stop-opacity="0.701961"/>
<stop offset="1" stop-color="#9A99EA"/>
</linearGradient>
</defs>
</svg>
