<svg width="48" height="48" viewBox="0 0 48 48" fill="none" xmlns="http://www.w3.org/2000/svg">
<path d="M24 32.75C23.5352 32.75 23.1797 33.1055 23.1797 33.5703V36.3047C23.1797 36.7695 23.5352 37.125 24 37.125C24.4648 37.125 24.8203 36.7695 24.8203 36.3047V33.5703C24.8203 33.1055 24.4648 32.75 24 32.75ZM24.8203 13.3906L28.8945 17.4648C29.0586 17.6289 29.2773 17.7109 29.4688 17.7109C29.6602 17.7109 29.8789 17.6289 30.043 17.4648C30.3711 17.1367 30.3711 16.6172 30.043 16.3164L24.5742 10.8477C24.2461 10.5195 23.7266 10.5195 23.4258 10.8477L17.957 16.3164C17.6289 16.6445 17.6289 17.1641 17.957 17.4648C18.2852 17.793 18.8047 17.793 19.1055 17.4648L23.1797 13.3906V28.1016C23.1797 28.5664 23.5352 28.9219 24 28.9219C24.4648 28.9219 24.8203 28.5664 24.8203 28.1016V13.3906Z" fill="#4B5563"/>
<rect x="0.5" y="0.5" width="47" height="47" rx="7.5" stroke="#DFDFE9"/>
</svg>
