<svg width="24" height="24" viewBox="0 0 24 24" fill="none" xmlns="http://www.w3.org/2000/svg">
<rect x="0.5" y="0.5" width="23" height="23" rx="11.5" fill="#54DA79" stroke="#54DA79"/>
<path d="M9.07746 16.4245L9.07747 16.4245C9.18999 16.537 9.34257 16.6002 9.50167 16.6002C9.66077 16.6002 9.81335 16.537 9.92587 16.4245L9.92588 16.4245L18.4253 7.92507C18.4823 7.86985 18.5278 7.80388 18.5591 7.73096C18.5905 7.65775 18.6071 7.57902 18.6078 7.49935C18.6085 7.41969 18.5933 7.34068 18.5631 7.26694C18.533 7.1932 18.4884 7.12621 18.4321 7.06988C18.3757 7.01354 18.3088 6.96899 18.235 6.93882C18.1613 6.90865 18.0823 6.89347 18.0026 6.89416C17.9229 6.89486 17.8442 6.91141 17.771 6.94285C17.6981 6.97418 17.6321 7.01966 17.5769 7.07665L9.50167 15.1519L6.92588 12.5761L6.92589 12.5761L6.92464 12.5749C6.81148 12.4656 6.65992 12.4051 6.5026 12.4065C6.34528 12.4078 6.19479 12.4709 6.08355 12.5822C5.9723 12.6934 5.9092 12.8439 5.90784 13.0012C5.90647 13.1585 5.96694 13.3101 6.07624 13.4233L6.07623 13.4233L6.07746 13.4245L9.07746 16.4245Z" fill="white" stroke="white" stroke-width="0.2"/>
</svg>
