<svg width="32" height="32" viewBox="0 0 32 32" fill="none" xmlns="http://www.w3.org/2000/svg">
<circle cx="16" cy="16" r="16" fill="#F7F7F9" fill-opacity="0.1"/>
<path d="M17.1751 15.9999L22.4251 10.7582C22.582 10.6013 22.6702 10.3885 22.6702 10.1666C22.6702 9.94466 22.582 9.73183 22.4251 9.57491C22.2682 9.41799 22.0554 9.32983 21.8334 9.32983C21.6115 9.32983 21.3987 9.41799 21.2418 9.57491L16.0001 14.8249L10.7584 9.57491C10.6015 9.41799 10.3887 9.32983 10.1668 9.32983C9.94486 9.32983 9.73203 9.41799 9.57511 9.57491C9.41819 9.73183 9.33004 9.94466 9.33004 10.1666C9.33004 10.3885 9.41819 10.6013 9.57511 10.7582L14.8251 15.9999L9.57511 21.2416C9.497 21.319 9.43501 21.4112 9.3927 21.5128C9.3504 21.6143 9.32861 21.7232 9.32861 21.8332C9.32861 21.9433 9.3504 22.0522 9.3927 22.1537C9.43501 22.2553 9.497 22.3474 9.57511 22.4249C9.65258 22.503 9.74475 22.565 9.8463 22.6073C9.94785 22.6496 10.0568 22.6714 10.1668 22.6714C10.2768 22.6714 10.3857 22.6496 10.4873 22.6073C10.5888 22.565 10.681 22.503 10.7584 22.4249L16.0001 17.1749L21.2418 22.4249C21.3192 22.503 21.4114 22.565 21.513 22.6073C21.6145 22.6496 21.7234 22.6714 21.8334 22.6714C21.9435 22.6714 22.0524 22.6496 22.1539 22.6073C22.2555 22.565 22.3476 22.503 22.4251 22.4249C22.5032 22.3474 22.5652 22.2553 22.6075 22.1537C22.6498 22.0522 22.6716 21.9433 22.6716 21.8332C22.6716 21.7232 22.6498 21.6143 22.6075 21.5128C22.5652 21.4112 22.5032 21.319 22.4251 21.2416L17.1751 15.9999Z" fill="white"/>
</svg>
