<svg width="354" height="75" viewBox="0 0 354 75" fill="none" xmlns="http://www.w3.org/2000/svg">
<path d="M10.8802 36.3607V39.5607C10.8802 42.8673 11.0668 44.7073 11.4402 45.0807C11.3868 45.134 11.5202 45.774 11.8402 47.0007C11.8402 47.4273 12.0535 48.094 12.4802 49.0007C12.4802 49.2673 13.2268 49.9073 14.7202 50.9207C15.3602 50.9207 16.9335 50.3873 19.4402 49.3207L25.1202 47.1607C25.8135 46.9473 26.4535 47.054 27.0402 47.4807C27.6802 47.854 28.0535 48.5473 28.1602 49.5607C28.3202 50.5207 28.2935 51.214 28.0802 51.6407C27.9202 52.0673 27.4668 52.6007 26.7202 53.2407C26.0268 53.8807 25.5735 54.334 25.3602 54.6007C25.1468 54.8673 24.7468 55.134 24.1602 55.4007C23.5735 55.7207 22.9068 56.0407 22.1602 56.3607C21.4668 56.6807 20.9868 56.9207 20.7202 57.0807C18.6402 58.0407 17.0402 58.414 15.9202 58.2007C15.2268 58.2007 14.5068 58.0673 13.7602 57.8007C13.0668 57.534 12.6668 57.4007 12.5602 57.4007C12.5068 57.454 12.2935 57.4273 11.9202 57.3207C11.6002 57.2673 11.2802 57.1873 10.9602 57.0807C10.6402 57.0273 9.81349 56.8673 8.48015 56.6007C8.48015 56.3873 8.10682 56.174 7.36015 55.9607L5.20015 54.2007C4.82682 53.9873 4.42682 53.3207 4.00015 52.2007L3.28015 51.0007C3.06682 50.8407 2.77349 50.2273 2.40015 49.1607C2.18682 48.894 2.05349 48.414 2.00015 47.7207C1.73349 47.134 1.60015 46.3073 1.60015 45.2407C1.38682 44.974 1.14682 43.9607 0.880152 42.2007C0.506818 39.9073 0.480152 37.854 0.800152 36.0407C0.800152 35.0273 0.986818 34.0407 1.36015 33.0807C1.41349 32.654 1.46682 32.2273 1.52015 31.8007C1.78682 30.414 1.97349 29.3473 2.08015 28.6007C1.86682 27.854 2.21349 26.0673 3.12015 23.2407C3.12015 22.814 3.28015 22.2007 3.60015 21.4007C3.97349 20.5473 4.18682 19.6673 4.24015 18.7607L4.88015 17.2407C4.88015 16.814 5.28015 15.2407 6.08015 12.5207C6.50682 11.5073 6.72015 10.9207 6.72015 10.7607L8.72015 6.52067L9.68015 5.24067C10.0535 4.86734 10.6135 4.54734 11.3602 4.28067C11.6802 4.014 12.5335 4.04067 13.9202 4.36067C14.7735 4.68067 15.3602 5.00067 15.6802 5.32067C16.0535 5.48067 16.5068 5.56067 17.0402 5.56067L23.2002 5.16067C24.7468 5.26734 25.7868 5.454 26.3202 5.72067C26.8535 5.934 27.3602 6.334 27.8402 6.92067C28.3735 7.50734 28.5602 8.094 28.4002 8.68067C28.2935 9.26734 28.0802 9.72067 27.7602 10.0407C27.0668 10.6273 25.7868 11.3207 23.9202 12.1207C20.6668 13.8807 18.9068 14.814 18.6402 14.9207L16.7202 15.8007C15.9202 16.334 15.4135 16.894 15.2002 17.4807C13.5468 23.454 12.6402 26.7873 12.4802 27.4807C12.3735 28.1207 12.2935 28.5207 12.2402 28.6807C12.2402 28.7873 12.2402 28.8673 12.2402 28.9207L13.8402 28.7607C16.1868 28.014 17.5735 27.774 18.0002 28.0407C18.2135 28.0407 18.5068 27.9607 18.8802 27.8007C20.8535 27.1073 22.5868 26.814 24.0802 26.9207C24.3468 26.7607 24.6402 26.8673 24.9602 27.2407C25.2802 27.614 25.5202 28.0673 25.6802 28.6007C26.0002 29.934 25.6002 30.974 24.4802 31.7207C22.2402 33.214 19.5735 34.414 16.4802 35.3207C15.4668 36.1207 14.0535 36.6273 12.2402 36.8407L10.8802 36.3607Z" fill="#9A99EA"/>
<path d="M36.3495 12.2007L36.9095 7.48067L36.9895 5.00067C36.9895 4.30734 37.1229 3.774 37.3895 3.40067L38.1895 2.28067C39.6295 1.16067 40.5629 0.520672 40.9895 0.360671C41.4162 0.20067 42.0295 0.227336 42.8295 0.44067C43.6829 0.600671 44.1895 0.76067 44.3495 0.920668L45.2295 1.64067C45.7095 1.90733 45.9495 2.334 45.9495 2.92067C46.2162 3.24067 46.2962 3.48067 46.1895 3.64067C45.8695 4.014 45.3362 7.16067 44.5895 13.0807L43.9495 23.9607L43.5495 26.1207C43.5495 26.814 43.5762 27.214 43.6295 27.3207V28.7607C43.5229 29.8273 43.4162 30.494 43.3095 30.7607C43.3095 31.0273 43.2562 31.3207 43.1495 31.6407C43.2562 31.7473 43.3095 32.174 43.3095 32.9207C43.3095 33.614 43.2295 34.0407 43.0695 34.2007C42.9629 35.054 42.9095 35.8807 42.9095 36.6807C42.9095 37.4273 42.9629 38.2273 43.0695 39.0807C43.2295 39.8807 43.2829 40.6807 43.2295 41.4807L43.5495 44.5207V45.7207C43.6562 46.6807 43.7095 47.454 43.7095 48.0407L44.1095 52.2007L44.4295 54.3607C44.5895 55.2673 44.5095 56.1473 44.1895 57.0007C43.9229 57.854 43.4962 58.3873 42.9095 58.6007C41.2562 59.294 39.4429 58.8407 37.4695 57.2407H36.8295C36.4562 56.814 36.1629 56.2273 35.9495 55.4807C35.5229 55.2673 35.3362 54.894 35.3895 54.3607C35.4429 53.8273 35.3362 53.3473 35.0695 52.9207C34.8029 52.494 34.6695 52.1207 34.6695 51.8007C34.6695 51.1073 34.6162 50.494 34.5095 49.9607L34.5895 49.3207C34.4295 49.1607 34.3495 48.9207 34.3495 48.6007L34.1895 47.1607V46.5207C34.1895 46.094 34.1629 45.8007 34.1095 45.6407C34.1095 45.4807 34.1895 45.214 34.3495 44.8407C34.1895 44.6273 34.1629 43.854 34.2695 42.5207C34.5895 38.414 34.7495 35.5873 34.7495 34.0407L34.8295 32.1207V29.8007C34.8829 28.5207 34.9095 26.894 34.9095 24.9207C34.9629 22.9473 35.0695 21.8807 35.2295 21.7207L35.1495 21.0007C35.1495 19.7207 35.3362 17.9873 35.7095 15.8007C36.1362 13.5607 36.3495 12.3607 36.3495 12.2007Z" fill="#9A99EA"/>
<path d="M57.3283 4.84067C60.9016 4.84067 63.4083 5.56067 64.8483 7.00067C64.8483 7.90734 64.2349 9.74734 63.0083 12.5207C62.7949 13.4273 62.4483 14.1473 61.9683 14.6807L60.9283 15.7207C60.6616 15.8807 60.3949 15.9607 60.1283 15.9607C58.2083 16.4407 56.7149 16.0673 55.6483 14.8407C55.4349 14.5207 55.1683 14.2807 54.8483 14.1207C54.5816 13.9607 54.3683 13.4807 54.2083 12.6807C53.7283 11.9873 53.4883 11.454 53.4883 11.0807C53.3816 7.77401 54.5816 5.69401 57.0883 4.84067H57.3283ZM56.6883 23.7207C57.2216 23.454 58.4749 23.7207 60.4483 24.5207C60.6616 24.734 60.9816 24.9473 61.4083 25.1607L62.6883 26.2007C62.9016 26.414 63.0083 26.7607 63.0083 27.2407V34.2807C63.0083 35.3473 62.9549 36.3073 62.8483 37.1607V37.6407C62.6883 39.8273 62.8216 44.7607 63.2483 52.4407C63.4083 53.934 63.0616 54.8407 62.2083 55.1607C61.3016 55.1607 60.7149 55.0273 60.4483 54.7607C60.2349 54.654 60.0483 54.6007 59.8883 54.6007H59.3283L58.8483 54.7607C58.6883 54.7607 58.3949 54.654 57.9683 54.4407C57.5416 54.174 57.2483 53.9073 57.0883 53.6407C56.9816 53.374 56.7683 53.214 56.4483 53.1607C55.8616 52.9473 55.5416 52.5473 55.4883 51.9607C54.7416 50.5207 54.3416 49.6673 54.2883 49.4007C54.2883 49.134 54.2083 48.8407 54.0483 48.5207L53.6483 41.5607C53.6483 40.7607 53.7016 40.1473 53.8083 39.7207V37.8007C53.8616 37.214 53.9149 36.1473 53.9683 34.6007C54.0216 33.0007 54.1016 31.7207 54.2083 30.7607C54.1016 29.374 54.0483 28.4407 54.0483 27.9607C54.0483 27.4807 54.0749 27.134 54.1283 26.9207C53.5416 26.334 53.5683 25.534 54.2083 24.5207C54.9016 23.9873 55.5683 23.7207 56.2083 23.7207H56.6883Z" fill="#9A99EA"/>
<path d="M79.3733 39.4807C79.1066 40.7073 78.9199 41.9873 78.8133 43.3207C78.8133 45.6673 79.1066 47.4273 79.6933 48.6007C79.9599 48.8673 80.1199 49.1073 80.1733 49.3207C80.2799 49.4807 80.5199 49.694 80.8933 49.9607C81.4799 49.2673 81.9066 48.654 82.1733 48.1207L84.4133 44.2007C85.5333 41.1607 86.4933 38.7607 87.2933 37.0007C87.2933 36.6807 87.2933 35.8807 87.2933 34.6007C87.3466 33.2673 86.8666 31.9873 85.8533 30.7607C85.3199 30.2807 84.9199 29.774 84.6533 29.2407C84.3866 28.654 83.8533 28.0407 83.0533 27.4007C82.0933 27.774 81.3999 28.7873 80.9733 30.4407C80.9733 31.2407 80.8399 31.9607 80.5733 32.6007C80.0399 33.9873 79.7733 35.1607 79.7733 36.1207C79.5066 37.294 79.3733 38.414 79.3733 39.4807ZM96.8933 33.0807C96.8933 34.3073 97.0266 35.5873 97.2933 36.9207C97.2933 37.3473 97.4533 39.0007 97.7733 41.8807C98.1466 44.7073 98.3333 47.3207 98.3333 49.7207C98.3333 55.1607 97.9066 59.2673 97.0533 62.0407C96.8933 63.0007 96.5199 64.014 95.9333 65.0807C95.3999 66.1473 95.1333 66.7873 95.1333 67.0007C94.8133 67.5873 93.8266 68.9207 92.1733 71.0007L91.3733 71.7207C91.2666 71.7207 90.9466 71.9873 90.4133 72.5207C88.3866 73.7473 86.4399 74.3607 84.5733 74.3607C82.7599 74.3607 80.9999 73.8273 79.2933 72.7607C79.2399 72.7607 78.5733 72.3073 77.2933 71.4007C76.7066 71.1873 76.2266 70.4673 75.8533 69.2407C75.7999 68.7073 75.7733 68.3607 75.7733 68.2007C75.8799 68.2007 76.0133 67.6673 76.1733 66.6007C76.2266 66.4407 76.4666 65.9607 76.8933 65.1607C77.1599 64.2007 77.9333 63.8273 79.2133 64.0407C79.8533 64.094 80.3066 64.2273 80.5733 64.4407C80.7333 64.6007 81.0799 65.214 81.6133 66.2807C81.9333 67.134 82.2266 67.7207 82.4933 68.0407C82.7599 68.414 83.0799 68.574 83.4533 68.5207C84.5199 68.414 85.3999 67.6407 86.0933 66.2007C86.1999 66.1473 86.4399 65.8807 86.8133 65.4007C88.1466 63.8007 88.8933 61.9073 89.0533 59.7207C89.0533 59.5073 89.1066 58.5473 89.2133 56.8407V54.5207C89.1066 53.134 89.1333 51.2673 89.2933 48.9207C89.2933 47.374 89.2133 46.3607 89.0533 45.8807C88.7866 46.574 87.7733 48.6007 86.0133 51.9607L85.2933 53.0007C84.3866 54.334 83.1866 55.1073 81.6933 55.3207C81.2666 55.054 80.5199 54.9207 79.4533 54.9207H78.9733C77.1066 54.7073 75.7466 54.2807 74.8933 53.6407C74.0933 53.3207 73.4533 52.7607 72.9733 51.9607L71.9333 50.6007C71.9333 50.334 71.7999 50.0407 71.5333 49.7207C71.3199 49.3473 71.1866 49.134 71.1333 49.0807C71.0799 48.974 70.9733 48.7873 70.8133 48.5207C70.6533 48.254 70.4933 47.3207 70.3333 45.7207C70.0666 43.1073 70.1199 41.1607 70.4933 39.8807C70.4933 38.814 70.5733 37.9607 70.7333 37.3207C70.7333 35.8807 70.9199 34.414 71.2933 32.9207C71.2933 32.2273 71.5066 30.9473 71.9333 29.0807C72.5733 27.6407 72.9733 26.7607 73.1333 26.4407L74.3333 24.6007C74.8133 24.014 75.1866 23.5873 75.4533 23.3207C75.7733 23.0007 76.3333 22.7073 77.1333 22.4407L77.9333 21.8807L79.2133 21.5607C80.2266 21.2407 81.6133 21.3473 83.3733 21.8807C83.9066 21.8807 84.4399 22.0673 84.9733 22.4407C86.0933 22.814 86.8133 23.0807 87.1333 23.2407C87.4533 23.4007 87.8533 23.534 88.3333 23.6407C88.6533 22.9473 89.1866 22.4673 89.9333 22.2007C90.1466 22.094 90.7333 22.094 91.6933 22.2007C92.0133 22.3607 92.4399 22.414 92.9733 22.3607C94.1999 22.254 95.0533 22.9207 95.5333 24.3607C95.8533 25.694 96.1466 27.5873 96.4133 30.0407L96.8933 33.0807Z" fill="#9A99EA"/>
<path d="M121.475 25.6407C121.368 25.374 120.995 25.2673 120.355 25.3207C119.768 25.374 119.315 25.694 118.995 26.2807C116.808 29.7473 115.635 33.454 115.475 37.4007C117.288 37.8273 118.835 37.0273 120.115 35.0007C121.768 29.774 122.221 26.654 121.475 25.6407ZM115.235 57.4007L114.435 57.2407L113.315 56.1207C112.995 56.1207 112.755 55.9873 112.595 55.7207C112.008 55.0273 110.941 53.6407 109.395 51.5607L108.195 47.1607C108.195 46.3073 108.035 45.5607 107.715 44.9207C107.181 42.5207 106.861 41.1607 106.755 40.8407C106.648 40.4673 106.568 39.4807 106.515 37.8807C106.515 36.2807 106.595 35.1073 106.755 34.3607C106.915 33.3473 107.901 30.8407 109.715 26.8407C110.195 26.3607 110.488 25.7207 110.595 24.9207L111.875 23.0807C113.048 21.694 114.301 20.6807 115.635 20.0407C115.635 19.934 116.541 19.6673 118.355 19.2407C118.728 19.1873 119.581 19.3207 120.915 19.6407C124.115 20.3873 126.115 21.3207 126.915 22.4407L127.155 22.8407C128.168 24.2807 128.755 26.494 128.915 29.4807C128.755 30.814 128.621 31.934 128.515 32.8407C128.408 33.7473 127.821 35.4007 126.755 37.8007C125.955 39.294 125.181 40.494 124.435 41.4007C123.261 42.254 122.461 42.6807 122.035 42.6807C121.821 42.7873 121.368 42.8407 120.675 42.8407H118.835C118.675 42.7873 118.328 42.7607 117.795 42.7607C117.261 42.7607 116.488 42.6273 115.475 42.3607C115.475 43.534 115.795 45.214 116.435 47.4007C117.128 49.534 117.688 50.8407 118.115 51.3207C119.235 52.174 120.115 52.734 120.755 53.0007C121.395 53.2673 122.248 53.3207 123.315 53.1607C124.381 52.9473 125.155 52.574 125.635 52.0407L127.715 49.4807C129.048 47.6673 130.408 47.5073 131.795 49.0007C132.435 49.694 132.675 50.3873 132.515 51.0807C132.408 51.7207 131.875 53.0273 130.915 55.0007C130.115 56.2807 129.261 57.3473 128.355 58.2007C126.701 59.054 125.715 59.4807 125.395 59.4807C124.915 59.534 124.168 59.454 123.155 59.2407C122.621 59.5073 121.715 59.4807 120.435 59.1607C120.435 59.054 120.275 58.974 119.955 58.9207C119.688 58.9207 119.315 58.8407 118.835 58.6807L118.995 58.6007C118.888 58.6007 118.568 58.6007 118.035 58.6007L115.795 57.4007H115.235Z" fill="#9A99EA"/>
<path d="M169.146 29.4007V28.5207C169.146 27.934 169.119 27.6407 169.066 27.6407L168.586 27.4807C168.212 27.4807 167.919 27.4273 167.706 27.3207C167.332 27.4273 167.039 27.5873 166.826 27.8007C166.132 28.2273 165.652 28.734 165.386 29.3207L163.626 32.8407C162.826 34.494 162.372 36.6273 162.266 39.2407C163.652 39.8273 164.666 39.8007 165.306 39.1607C165.679 38.8407 165.999 38.4673 166.266 38.0407C166.372 37.6673 166.586 37.3207 166.906 37.0007C167.226 36.6273 167.546 35.7473 167.866 34.3607C168.719 33.0273 169.146 31.374 169.146 29.4007ZM176.266 30.5207V31.4007C176.159 34.654 175.199 37.5873 173.386 40.2007C173.119 40.574 172.746 41.0007 172.266 41.4807L170.506 43.2407C170.132 43.614 169.652 43.9607 169.066 44.2807L167.306 44.7607C167.146 44.654 166.692 44.5473 165.946 44.4407C165.359 44.654 164.852 44.6007 164.426 44.2807C164.372 44.2807 164.079 44.174 163.546 43.9607C163.066 43.7473 162.452 43.614 161.706 43.5607C161.812 44.414 161.866 45.3473 161.866 46.3607L162.826 50.0407C163.412 51.1607 163.972 51.8807 164.506 52.2007C165.092 52.4673 165.706 52.6273 166.346 52.6807C167.039 52.6807 167.546 52.6007 167.866 52.4407C168.239 52.2807 168.852 52.0407 169.706 51.7207L171.306 50.9207C172.426 50.2807 173.386 50.4407 174.186 51.4007C174.612 51.8807 174.799 52.5207 174.746 53.3207C174.692 54.0673 174.372 54.7607 173.786 55.4007C173.466 56.1473 172.639 56.8407 171.306 57.4807C171.252 57.4807 171.012 57.5873 170.586 57.8007C168.186 58.974 165.519 59.134 162.586 58.2807L161.066 57.5607C160.906 57.5607 160.746 57.4807 160.586 57.3207C159.946 57.1607 159.252 56.7607 158.506 56.1207C157.759 55.4807 157.226 54.9473 156.906 54.5207C156.639 54.094 156.452 53.8007 156.346 53.6407C156.239 53.4807 156.052 53.134 155.786 52.6007C154.879 50.894 154.212 49.2673 153.786 47.7207L153.306 45.4007C153.412 45.1873 153.439 44.574 153.386 43.5607V42.2807C152.906 41.4273 153.199 39.4807 154.266 36.4407C155.119 32.3873 155.812 30.014 156.346 29.3207L157.386 27.2407C157.386 27.1873 157.706 26.7873 158.346 26.0407C158.452 25.774 159.066 25.2407 160.186 24.4407C160.399 24.1207 160.719 23.934 161.146 23.8807C161.359 23.6673 161.706 23.4807 162.186 23.3207C162.612 22.9473 163.252 22.7073 164.106 22.6007C164.906 22.334 166.132 22.254 167.786 22.3607C171.572 22.6807 174.159 24.2807 175.546 27.1607L176.106 28.9207C176.106 29.1873 176.186 29.5073 176.346 29.8807C176.292 29.9873 176.266 30.2007 176.266 30.5207Z" fill="#9A99EA"/>
<path d="M191.263 2.84067L193.263 2.44067C194.543 2.60067 195.503 2.94734 196.143 3.48067C196.837 4.014 197.157 4.62734 197.103 5.32067C196.303 8.04067 195.663 10.894 195.183 13.8807V15.0807C194.97 17.5873 194.677 19.7207 194.303 21.4807L192.383 39.7207V45.2407C192.33 49.454 192.57 52.7873 193.103 55.2407L193.263 56.2007C193.21 56.8407 192.73 57.2673 191.823 57.4807C190.97 57.7473 190.41 57.854 190.143 57.8007C189.877 57.7473 189.583 57.6673 189.263 57.5607L187.103 56.7607C186.25 56.334 185.317 55.5607 184.303 54.4407C183.663 53.854 183.397 53.4273 183.503 53.1607C183.397 52.9473 183.13 50.5207 182.703 45.8807C182.81 44.9207 182.863 44.1207 182.863 43.4807V42.1207C182.863 41.054 182.89 40.2807 182.943 39.8007C182.943 39.694 182.997 39.054 183.103 37.8807C183.37 34.8407 183.53 33.1873 183.583 32.9207V31.6407C183.583 28.494 183.85 25.9607 184.383 24.0407C184.277 23.614 184.223 23.214 184.223 22.8407C184.757 21.8273 184.943 19.7473 184.783 16.6007C185.69 13.4007 186.223 11.2673 186.383 10.2007C186.543 9.08067 186.783 8.22734 187.103 7.64067C187.103 6.68067 187.53 5.72067 188.383 4.76067C189.237 3.74734 190.197 3.10734 191.263 2.84067Z" fill="#9A99EA"/>
<path d="M221.727 28.2807C221.727 27.5873 222.074 27.0007 222.767 26.5207C222.767 26.4673 222.767 26.414 222.767 26.3607C222.767 25.9873 223.167 25.3207 223.967 24.3607C224.82 23.4007 225.3 22.814 225.407 22.6007C226.58 21.9073 227.354 21.5073 227.727 21.4007C228.154 21.5073 228.447 21.5607 228.607 21.5607H228.767C230.314 21.1873 232.074 21.2407 234.047 21.7207C236.074 22.2007 237.487 23.054 238.287 24.2807C238.714 25.0807 239.14 26.1473 239.567 27.4807C240.207 29.3473 240.527 30.7073 240.527 31.5607C240.847 32.9473 240.874 34.2273 240.607 35.4007L240.527 36.2007C240.527 36.414 240.394 36.6273 240.127 36.8407C239.86 37.054 239.54 37.1607 239.167 37.1607C238.847 37.1073 238.554 37.2407 238.287 37.5607C238.02 37.8273 237.46 37.9607 236.607 37.9607C235.807 37.9607 235.38 37.7207 235.327 37.2407C235.167 37.1873 234.9 37.0007 234.527 36.6807C234.207 36.3607 234.047 36.1207 234.047 35.9607L233.647 35.4007C233.647 35.294 233.54 35.134 233.327 34.9207C232.847 33.9607 232.66 33.214 232.767 32.6807C233.034 31.294 233.114 30.5473 233.007 30.4407C233.007 29.6407 232.74 28.8407 232.207 28.0407C232.154 27.9873 232.047 27.9607 231.887 27.9607C231.78 27.9073 231.62 27.854 231.407 27.8007C231.3 27.4273 231.194 27.2407 231.087 27.2407C230.714 27.3473 230.314 27.6407 229.887 28.1207C229.14 30.2007 228.687 31.5873 228.527 32.2807L228.047 37.1607V40.8407C228.154 42.7607 228.367 43.934 228.687 44.3607C228.687 44.574 228.794 44.9473 229.007 45.4807C229.06 46.174 229.62 47.4007 230.687 49.1607L231.087 49.6407C231.354 50.3873 231.807 50.7607 232.447 50.7607C233.087 50.7607 233.994 50.014 235.167 48.5207C235.114 48.3607 235.46 47.7207 236.207 46.6007C236.954 45.5873 238.127 45.1873 239.727 45.4007C240.42 45.5073 240.767 45.9073 240.767 46.6007C240.82 47.0807 240.66 48.2807 240.287 50.2007C239.754 50.734 239.487 51.2673 239.487 51.8007C239.114 52.7607 238.927 53.294 238.927 53.4007C238.767 53.4007 238.607 53.4807 238.447 53.6407L238.047 54.4407C237.834 54.4407 237.7 54.5473 237.647 54.7607C237.06 55.454 236.66 55.8007 236.447 55.8007C236.287 55.9607 235.86 56.0407 235.167 56.0407C234.154 56.4673 233.407 56.6807 232.927 56.6807L231.567 56.7607L230.687 56.4407L229.967 56.3607C229.327 56.094 228.82 55.9607 228.447 55.9607C228.127 56.014 227.887 55.9873 227.727 55.8807C227.567 55.8273 227.354 55.694 227.087 55.4807C226.447 54.9473 226.02 54.6807 225.807 54.6807C225.647 54.6807 225.354 54.5207 224.927 54.2007C224.5 54.094 224.154 53.9073 223.887 53.6407L223.567 52.8407C223.674 52.4673 223.62 52.254 223.407 52.2007C222.714 52.2007 222.314 52.0673 222.207 51.8007L221.727 51.1607C221.727 50.734 221.514 50.174 221.087 49.4807L220.127 46.6007C220.02 46.494 220.02 46.3073 220.127 46.0407V44.6007L219.167 38.3607V37.2407C219.647 35.4807 219.887 34.574 219.887 34.5207C219.834 33.3473 220.1 32.3073 220.687 31.4007C220.687 30.3873 221.034 29.3473 221.727 28.2807Z" fill="#9A99EA"/>
<path d="M263.115 31.4007C262.742 29.2673 261.702 28.2807 259.995 28.4407C259.035 28.494 258.209 29.134 257.515 30.3607C256.555 32.2273 256.128 34.654 256.235 37.6407C256.395 40.574 256.608 42.7073 256.875 44.0407C257.195 45.3207 257.728 46.4407 258.475 47.4007C258.902 48.1473 259.542 48.494 260.395 48.4407C261.888 48.4407 262.982 47.1873 263.675 44.6807L264.315 42.7607C264.582 42.494 264.635 42.2273 264.475 41.9607C265.008 40.6273 265.302 39.054 265.355 37.2407C264.822 36.8673 264.502 36.5207 264.395 36.2007C264.075 35.294 263.915 34.6807 263.915 34.3607C263.542 34.094 263.328 33.5873 263.275 32.8407C263.222 32.094 263.168 31.614 263.115 31.4007ZM248.475 38.9207L248.795 34.8407C249.168 31.1607 250.288 28.014 252.155 25.4007C253.968 23.214 256.528 22.094 259.835 22.0407H260.315C263.408 22.0407 265.648 22.7073 267.035 24.0407C268.528 25.214 269.622 26.494 270.315 27.8807C271.062 29.2673 271.542 30.2807 271.755 30.9207C271.968 31.5607 272.102 32.494 272.155 33.7207C272.262 36.014 271.809 37.3207 270.795 37.6407C271.542 42.7073 271.088 46.734 269.435 49.7207C268.902 50.9473 268.128 52.2807 267.115 53.7207C266.368 54.6807 265.035 55.214 263.115 55.3207C261.195 55.3207 259.515 55.214 258.075 55.0007C256.688 54.7873 255.142 54.1207 253.435 53.0007C251.728 51.8273 250.528 49.934 249.835 47.3207C249.088 44.814 248.635 42.014 248.475 38.9207Z" fill="#9A99EA"/>
<path d="M281.02 13.2407C281.18 12.7607 281.233 12.3073 281.18 11.8807C281.127 11.454 281.153 10.3873 281.26 8.68067C281.527 8.20067 281.553 7.26734 281.34 5.88067C281.34 5.08067 281.66 4.254 282.3 3.40067C282.94 2.494 283.633 1.82734 284.38 1.40067V1.48067C284.593 1.26734 285.073 1.10734 285.82 1.00067C287.633 0.734006 288.94 1.294 289.74 2.68067C289.527 3.054 289.42 4.254 289.42 6.28067V14.4407C289.473 15.774 289.5 17.5873 289.5 19.8807V22.9207L289.82 28.1207C289.82 29.5073 289.9 30.894 290.06 32.2807C290.06 34.8407 290.113 36.3873 290.22 36.9207C290.327 37.454 290.38 37.8273 290.38 38.0407V39.3207C290.38 40.494 290.433 41.3473 290.54 41.8807C290.54 42.414 290.673 42.974 290.94 43.5607C290.673 44.3607 290.673 45.2673 290.94 46.2807C291.207 46.9207 291.287 47.7473 291.18 48.7607C291.5 49.4007 291.607 50.254 291.5 51.3207L291.74 51.8007L291.9 52.5207C292.113 53.214 292.007 54.0407 291.58 55.0007C291.207 55.9073 290.407 56.5207 289.18 56.8407C288.007 57.214 286.673 56.654 285.18 55.1607C285.127 55.0007 284.833 54.7607 284.3 54.4407C283.66 54.0673 283.127 52.814 282.7 50.6807C282.433 50.1473 282.3 49.5873 282.3 49.0007C281.713 48.5207 281.42 47.8007 281.42 46.8407V45.0807C281.367 44.2807 281.26 43.7473 281.1 43.4807C280.94 43.2673 280.807 42.7073 280.7 41.8007L280.86 36.4407C280.86 34.6807 280.807 33.3207 280.7 32.3607V26.9207C280.54 25.1607 280.46 23.8273 280.46 22.9207C280.46 21.9607 280.647 20.0673 281.02 17.2407C281.02 17.0273 280.94 16.734 280.78 16.3607C280.94 15.5607 281.02 14.5207 281.02 13.2407Z" fill="#9A99EA"/>
<path d="M315.831 35.6407L315.431 33.5607C315.431 33.4007 315.378 33.214 315.271 33.0007C315.218 32.7873 315.138 32.3873 315.031 31.8007C314.605 31.4807 314.311 31.2407 314.151 31.0807L313.751 30.4407L313.511 29.7207C313.245 29.5607 313.085 29.3473 313.031 29.0807C313.031 28.7607 312.925 28.5207 312.711 28.3607C312.551 28.1473 312.418 27.9607 312.311 27.8007C312.205 27.5873 312.098 27.454 311.991 27.4007C311.511 27.0807 310.871 27.054 310.071 27.3207C309.271 27.5873 308.791 27.9607 308.631 28.4407C307.725 30.4673 307.271 31.774 307.271 32.3607C306.525 34.9207 306.311 36.734 306.631 37.8007C306.525 39.5073 306.738 41.854 307.271 44.8407V45.7207C307.751 46.3607 308.205 47.214 308.631 48.2807C309.165 48.974 309.511 49.4807 309.671 49.8007C309.885 50.0673 310.018 50.2273 310.071 50.2807C310.605 50.654 310.925 50.9207 311.031 51.0807C311.458 50.8673 311.751 50.7073 311.911 50.6007V50.0407C312.178 49.8273 312.418 49.6673 312.631 49.5607C312.578 49.5607 312.765 49.374 313.191 49.0007L313.591 48.6007C314.391 46.894 314.791 46.014 314.791 45.9607C314.791 45.854 314.765 45.6673 314.711 45.4007C314.498 44.9207 314.631 44.5473 315.111 44.2807C315.111 44.2807 315.431 43.3473 316.071 41.4807V41.0007C316.178 40.6807 316.125 40.4407 315.911 40.2807V39.7207C316.018 39.5073 316.071 39.294 316.071 39.0807C316.285 38.2273 316.365 37.7207 316.311 37.5607C316.311 37.4007 316.338 37.214 316.391 37.0007C316.445 36.734 316.525 36.5473 316.631 36.4407C316.791 36.2273 316.525 35.9607 315.831 35.6407ZM304.471 20.5207C304.951 20.5207 305.298 20.4673 305.511 20.3607C305.778 20.2007 306.231 20.014 306.871 19.8007C307.565 19.5873 309.165 19.5873 311.671 19.8007C313.058 20.0673 314.605 20.7607 316.311 21.8807C318.071 22.734 319.485 23.9073 320.551 25.4007C322.045 29.3473 322.871 32.7873 323.031 35.7207C323.138 40.2007 322.711 43.9073 321.751 46.8407C320.418 50.2007 319.538 52.174 319.111 52.7607C319.005 53.454 318.578 54.3607 317.831 55.4807C317.565 55.4807 317.351 55.5073 317.191 55.5607C317.191 55.614 317.031 55.774 316.711 56.0407C316.445 56.3607 316.045 56.5207 315.511 56.5207C314.818 56.6807 314.391 56.814 314.231 56.9207C314.125 57.0807 313.858 57.1607 313.431 57.1607L311.431 57.3207H309.271C307.831 57.3207 306.685 57.134 305.831 56.7607L303.431 55.1607L302.631 54.2007C302.471 54.2007 302.365 54.1473 302.311 54.0407C302.311 53.8807 302.285 53.7473 302.231 53.6407C301.751 53.2673 301.511 52.8407 301.511 52.3607C300.925 51.454 300.631 50.814 300.631 50.4407C300.631 50.0673 300.551 49.8007 300.391 49.6407C300.391 48.8407 300.151 47.6673 299.671 46.1207L299.511 45.0007V44.1207C299.458 43.3207 299.245 42.3873 298.871 41.3207C298.978 41.214 298.978 40.9207 298.871 40.4407C298.871 39.214 298.898 38.3873 298.951 37.9607L298.711 36.9207C298.871 36.6007 298.925 36.3073 298.871 36.0407C298.871 35.774 298.951 35.374 299.111 34.8407V34.2807L299.431 31.4807C299.431 31.1073 299.485 30.814 299.591 30.6007V30.0407C299.698 30.0407 299.778 29.774 299.831 29.2407L300.231 28.6007L300.311 27.9607C300.311 27.8007 300.285 27.6407 300.231 27.4807L300.631 26.2807C300.631 26.174 300.818 25.854 301.191 25.3207C301.191 25.054 301.378 24.654 301.751 24.1207C301.751 23.854 301.885 23.534 302.151 23.1607C302.151 22.6807 302.445 22.0673 303.031 21.3207C303.565 20.7873 304.045 20.5207 304.471 20.5207Z" fill="#9A99EA"/>
<path d="M329.56 49.4807C330.573 42.5473 331.08 38.974 331.08 38.7607L331.48 36.5207C331.64 36.3607 331.72 35.1607 331.72 32.9207V31.3207L331.88 29.6407C331.72 28.5207 331.64 27.6407 331.64 27.0007C331.426 25.9873 331.533 24.974 331.96 23.9607C332.76 22.894 334.12 22.574 336.04 23.0007C336.733 23.214 337.346 23.534 337.88 23.9607C338.626 24.2273 339.16 24.494 339.48 24.7607C339.906 24.9207 340.12 25.9073 340.12 27.7207C340.76 27.0807 342.173 26.3607 344.36 25.5607C344.68 25.5607 345.346 25.454 346.36 25.2407C347.373 24.974 348.226 24.8407 348.92 24.8407C349.613 24.8407 350.146 24.9207 350.52 25.0807C351.586 25.7207 352.173 26.1473 352.28 26.3607C352.386 26.5207 352.493 26.7873 352.6 27.1607C352.76 27.534 352.813 27.7207 352.76 27.7207C353.24 28.2007 353.373 28.734 353.16 29.3207C352.68 30.014 351.933 30.414 350.92 30.5207C349.96 30.5207 348.146 31.3207 345.48 32.9207L343.08 34.1207C341 35.5607 339.853 36.3607 339.64 36.5207C338.733 47.9873 338.146 54.334 337.88 55.5607C337.72 56.0407 337.346 56.5207 336.76 57.0007C336.173 57.4807 335.453 57.4007 334.6 56.7607L333.48 56.3607C332.573 55.9873 331.773 55.3473 331.08 54.4407L330.12 53.1607L329.64 51.8007C329.64 51.4807 329.613 51.1607 329.56 50.8407V49.4807Z" fill="#9A99EA"/>
</svg>
