<svg width="287" height="240" viewBox="0 0 287 240" fill="none" xmlns="http://www.w3.org/2000/svg">
<path d="M185.121 126.334C185.086 126.314 185.051 126.295 185.016 126.276C181.746 124.537 178.868 122.146 176.561 119.249C181.25 118.209 185.446 115.603 188.455 111.859C191.464 108.115 193.108 103.457 193.115 98.6535C193.115 97.7208 192.745 96.8262 192.085 96.1666C191.426 95.5071 190.531 95.1365 189.598 95.1365C188.666 95.1365 187.771 95.5071 187.111 96.1666C186.452 96.8262 186.081 97.7208 186.081 98.6535C186.076 102.22 184.716 105.651 182.278 108.254C179.839 110.856 176.504 112.436 172.945 112.674C172.456 111.332 172.1 109.945 171.883 108.533L169.88 94.5738C168.8 88.4498 165.464 82.953 160.53 79.1677C155.596 75.3825 149.423 73.5836 143.228 74.1261C137.033 74.6685 131.266 77.5128 127.065 82.0979C122.864 86.6829 120.534 92.6759 120.535 98.8945L120.754 114.317C117.412 113.83 114.357 112.157 112.145 109.605C109.933 107.052 108.713 103.79 108.707 100.412C108.707 99.4793 108.336 98.5847 107.677 97.9251C107.017 97.2656 106.123 96.895 105.19 96.895C104.257 96.895 103.363 97.2656 102.703 97.9251C102.043 98.5847 101.673 99.4793 101.673 100.412C101.68 105.674 103.65 110.743 107.199 114.628C110.747 118.513 115.617 120.934 120.856 121.417L120.955 128.357C121.046 134.782 122.211 141.146 124.402 147.187C130.381 163.615 137.854 174.778 145.154 172.119C147.211 171.371 148.49 168.681 149.286 165.34C149.514 164.404 149.96 163.536 150.588 162.805C151.215 162.075 152.007 161.503 152.897 161.137C153.788 160.771 154.752 160.62 155.712 160.698C156.672 160.776 157.6 161.079 158.42 161.584C169.502 167.118 180.832 166.757 184.464 160.467C185.61 158.35 185.918 155.879 185.325 153.545C185.228 153.018 185.252 152.475 185.396 151.959C185.54 151.442 185.8 150.965 186.155 150.563C186.511 150.162 186.954 149.847 187.449 149.642C187.945 149.437 188.481 149.348 189.016 149.381C193.29 149.645 196.662 148.55 198.122 146.023C201.036 140.976 195.215 132.162 185.121 126.334Z" fill="#9A99EA"/>
<path d="M156.187 107.445C159.1 107.445 161.462 103.509 161.462 98.6529C161.462 93.7969 159.1 89.8604 156.187 89.8604C153.273 89.8604 150.911 93.7969 150.911 98.6529C150.911 103.509 153.273 107.445 156.187 107.445Z" fill="#373737"/>
<path d="M135.084 107.445C137.998 107.445 140.36 103.509 140.36 98.6529C140.36 93.7969 137.998 89.8604 135.084 89.8604C132.171 89.8604 129.809 93.7969 129.809 98.6529C129.809 103.509 132.171 107.445 135.084 107.445Z" fill="#373737"/>
<path opacity="0.05" d="M160.5 240C205.511 240 242 234.627 242 228C242 221.373 205.511 216 160.5 216C115.489 216 79 221.373 79 228C79 234.627 115.489 240 160.5 240Z" fill="url(#paint0_linear_191_436)"/>
<path d="M72.7236 184.017L70.0116 184.914L71.1805 187.373C71.1805 187.373 68.0994 184.703 65.6103 184.38C63.575 184.116 60.9535 184.204 60.9535 184.204L62.9402 182.189L61.3602 180.904C64.9096 180.071 68.7221 181.303 72.7236 184.017ZM63.6611 47.37L60.9492 48.267L62.118 50.7261C62.118 50.7261 59.0369 48.0564 56.5478 47.7334C54.5125 47.4696 51.8911 47.5574 51.8911 47.5574L53.8777 45.5424L52.2978 44.257C55.8471 43.4239 59.6597 44.6567 63.6611 47.37ZM277.907 47.602L275.598 49.5071L277.389 51.3717C277.389 51.3717 273.734 50.0545 271.295 50.7212C269.3 51.2666 266.851 52.3725 266.851 52.3725L268.162 49.6952L266.311 49.0987C269.428 46.9277 273.371 46.603 277.907 47.602ZM287 127.929L284.226 127.359L284.383 130.173C284.383 130.173 282.577 126.196 280.448 124.638C278.708 123.364 276.31 122.109 276.31 122.109L278.838 121.302L277.882 119.337C281.388 120.392 284.379 123.444 287 127.929ZM252.671 187.644L249.959 188.541L251.128 191C251.128 191 248.047 188.33 245.558 188.007C243.523 187.743 240.901 187.831 240.901 187.831L242.888 185.816L241.308 184.531C244.857 183.698 248.67 184.931 252.671 187.644ZM9.81703 119.896L8.46868 122.816L10.7757 123.543C10.7757 123.543 7.00644 124.287 5.07395 126.167C3.4937 127.705 1.71786 129.984 1.71786 129.984L1.88213 126.897L0 127.336C1.97114 123.752 5.37934 121.387 9.81703 119.896Z" fill="#FF9CC4"/>
<path d="M79.0185 149L78 155L83 151.781L79.0185 149Z" fill="#FFD280"/>
<path d="M236.018 137L235 143L240 139.781L236.018 137Z" fill="#FFD280"/>
<path d="M40.1775 76L36 78.2217L41 81L40.1775 76Z" fill="#FFD280"/>
<path d="M258.178 83L254 85.6657L259 89L258.178 83Z" fill="#FFD280"/>
<path d="M271 165.065L276 167L275.381 162.233L271.1 161L271 165.065Z" fill="#B3B9FF"/>
<path d="M210.791 166L209 170L212.802 169.816L214 166.362L210.791 166Z" fill="#B3B9FF"/>
<path d="M55 112.121L59 114L58.431 109.178L55.013 108L55 112.121Z" fill="#B3B9FF"/>
<path d="M233.006 42.6778L233 48L236 45.3727L235.724 41L233.006 42.6778Z" fill="#B3B9FF"/>
<path d="M26.0084 171.677L26 177L30 174.373L29.6325 170L26.0084 171.677Z" fill="#B3B9FF"/>
<path d="M15.0083 63.6778L15 69L19 66.3727L18.6325 62L15.0083 63.6778Z" fill="#B3B9FF"/>
<path d="M101.29 94.6357C101.504 95.0093 100.723 95 100.723 95C100.716 94.9897 100.712 94.981 100.706 94.9707C98.1693 90.5384 95.2986 85.5152 95.0298 79.2141C94.6981 71.4604 97.1757 67.4594 100.312 62.3913C101.911 59.8107 103.722 56.8851 105.416 53.0225C107.955 47.2293 108.395 42.9899 108.319 40.4523C108.239 37.7975 107.591 36.4092 107.544 36.3101C107.542 36.3088 107.541 36.3051 107.541 36.3051L107.814 36.1658L107.842 36.1514L108.142 36C108.151 36.0215 108.259 36.2375 108.397 36.6466C108.623 37.3357 108.929 38.5734 108.99 40.374C109.078 42.9896 108.634 47.3533 106.033 53.293C104.321 57.2011 102.495 60.146 100.886 62.7488C97.8095 67.7143 95.3787 71.6392 95.701 79.1869C95.9639 85.322 98.7928 90.2685 101.29 94.6357Z" fill="#FFD857"/>
<path d="M110 35.5867L109.862 39.3952C109.843 39.9304 109.313 40.1951 108.984 39.8338L107.446 38.1446L105.768 39.1954C105.342 39.4625 104.866 38.9567 105.035 38.415L106.094 35L110 35.5867Z" fill="#E6BD37"/>
<path d="M94.1654 16.0315C92.8865 25.9125 99.1629 34.8036 108.184 35.8905C117.206 36.9774 125.556 29.8484 126.835 19.9677C128.114 10.0869 121.837 1.19618 112.816 0.109551C103.794 -0.977675 95.4444 6.15043 94.1654 16.0315Z" fill="#FFDF75"/>
<path d="M94.171 16.0096C95.3493 7.19194 102.335 0.564202 110.442 0C108.937 2.30666 107.901 4.99872 107.509 7.93347C106.187 17.8249 112.674 26.7259 121.997 27.814C123.009 27.9322 124.013 27.9531 125 27.8844C121.43 33.3527 115.216 36.6555 108.659 35.8904C99.3354 34.802 92.8492 25.9011 94.171 16.0096Z" fill="#FFD857"/>
<path d="M94.1638 15.9877C95.0667 8.92821 99.5282 3.27216 105.252 1C102.89 3.73389 101.248 7.26929 100.739 11.2515C99.4726 21.1539 105.688 30.0647 114.621 31.154C117.185 31.4669 119.695 31.0996 122 30.1846C118.489 34.2492 113.386 36.5417 108.046 35.8902C99.112 34.8009 92.8974 25.8901 94.1638 15.9877Z" fill="#F0C948"/>
<path d="M94.168 15.9803C95.0924 8.93144 99.653 3.28107 105.508 1C100.407 4.11936 96.9811 10.0546 97.0254 16.8458C97.091 26.8287 104.629 34.8771 113.861 34.8224C114.935 34.8161 115.984 34.6989 117 34.4836C114.364 35.7148 111.421 36.249 108.405 35.8903C99.243 34.8005 92.8691 25.8864 94.168 15.9803Z" fill="#E6BD37"/>
<path d="M112.322 15.8465C113.433 20.4809 117.101 23.6349 120.513 22.8914C123.926 22.1476 125.79 17.7881 124.679 13.1536C123.567 8.51917 119.899 5.36484 116.487 6.10864C113.074 6.85211 111.21 11.212 112.322 15.8465Z" fill="#FFEBA8"/>
<path d="M118.624 10.9339C118.093 9.88762 118.232 8.74992 118.935 8.39279C119.639 8.03566 120.639 8.59434 121.171 9.64064C121.702 10.6869 121.563 11.8247 120.859 12.1818C120.156 12.5389 119.155 11.9802 118.624 10.9339Z" fill="white"/>
<defs>
<linearGradient id="paint0_linear_191_436" x1="160.5" y1="216" x2="160.5" y2="240" gradientUnits="userSpaceOnUse">
<stop stop-color="#ECEBF5"/>
<stop offset="1" stop-color="#ECEBF5" stop-opacity="0"/>
</linearGradient>
</defs>
</svg>
