<svg width="200" height="98" viewBox="0 0 200 98" fill="none" xmlns="http://www.w3.org/2000/svg">
<rect width="200" height="100" rx="8" fill="#23252D"/>
<path d="M24 20C24 15.5817 27.5817 12 32 12H168C172.418 12 176 15.5817 176 20V99H24V20Z" fill="#15191E"/>
<path d="M90.7283 38.648H92.2083V39H90.3323V36.168H92.1483V36.516H90.7283V37.364H92.0643V37.704H90.7283V38.648ZM93.7386 37.584C93.696 37.5147 93.636 37.4587 93.5586 37.416C93.4813 37.3707 93.3946 37.348 93.2986 37.348C93.256 37.348 93.2133 37.3533 93.1706 37.364C93.128 37.372 93.0893 37.3867 93.0546 37.408C93.0226 37.4267 92.996 37.452 92.9746 37.484C92.956 37.5133 92.9466 37.5507 92.9466 37.596C92.9466 37.676 92.9826 37.736 93.0546 37.776C93.1266 37.8133 93.2346 37.848 93.3786 37.88C93.4693 37.9013 93.5533 37.9267 93.6306 37.956C93.708 37.9853 93.7746 38.0227 93.8306 38.068C93.8893 38.1107 93.9346 38.1627 93.9666 38.224C93.9986 38.2853 94.0146 38.3573 94.0146 38.44C94.0146 38.552 93.9933 38.6467 93.9506 38.724C93.908 38.8013 93.8506 38.8653 93.7786 38.916C93.7093 38.964 93.6293 38.9987 93.5386 39.02C93.448 39.0413 93.3546 39.052 93.2586 39.052C93.1146 39.052 92.9733 39.024 92.8346 38.968C92.6986 38.912 92.5853 38.8267 92.4946 38.712L92.7626 38.484C92.8133 38.5587 92.8826 38.6213 92.9706 38.672C93.0613 38.7227 93.16 38.748 93.2666 38.748C93.3146 38.748 93.36 38.744 93.4026 38.736C93.448 38.7253 93.488 38.7093 93.5226 38.688C93.56 38.6667 93.5893 38.6387 93.6106 38.604C93.632 38.5693 93.6426 38.5253 93.6426 38.472C93.6426 38.384 93.6 38.3187 93.5146 38.276C93.432 38.2333 93.3093 38.1933 93.1466 38.156C93.0826 38.14 93.0173 38.1213 92.9506 38.1C92.8866 38.076 92.828 38.044 92.7746 38.004C92.7213 37.964 92.6773 37.9147 92.6426 37.856C92.6106 37.7947 92.5946 37.72 92.5946 37.632C92.5946 37.5307 92.6146 37.444 92.6546 37.372C92.6973 37.2973 92.752 37.2373 92.8186 37.192C92.8853 37.144 92.9613 37.1093 93.0466 37.088C93.132 37.064 93.22 37.052 93.3106 37.052C93.4466 37.052 93.5773 37.0787 93.7026 37.132C93.8306 37.1853 93.9293 37.2627 93.9986 37.364L93.7386 37.584ZM95.82 37.584C95.78 37.5227 95.72 37.472 95.64 37.432C95.56 37.3893 95.4746 37.368 95.384 37.368C95.2853 37.368 95.1973 37.3867 95.12 37.424C95.0453 37.4613 94.9813 37.512 94.928 37.576C94.8746 37.6373 94.8333 37.7093 94.804 37.792C94.7773 37.8747 94.764 37.9613 94.764 38.052C94.764 38.1427 94.7773 38.2293 94.804 38.312C94.8333 38.3947 94.8746 38.468 94.928 38.532C94.9813 38.5933 95.0466 38.6427 95.124 38.68C95.2013 38.7173 95.2893 38.736 95.388 38.736C95.484 38.736 95.5706 38.7173 95.648 38.68C95.728 38.6427 95.7933 38.592 95.844 38.528L96.096 38.756C96.016 38.8493 95.916 38.9227 95.796 38.976C95.676 39.0267 95.54 39.052 95.388 39.052C95.2413 39.052 95.1053 39.028 94.98 38.98C94.8573 38.932 94.7506 38.8653 94.66 38.78C94.5693 38.692 94.4973 38.5867 94.444 38.464C94.3933 38.3413 94.368 38.204 94.368 38.052C94.368 37.9027 94.3933 37.7667 94.444 37.644C94.4946 37.5213 94.5653 37.416 94.656 37.328C94.7466 37.24 94.8533 37.172 94.976 37.124C95.1013 37.076 95.236 37.052 95.38 37.052C95.5133 37.052 95.6453 37.0787 95.776 37.132C95.9093 37.1853 96.0146 37.2627 96.092 37.364L95.82 37.584ZM96.4685 37.512C96.4685 37.4613 96.4672 37.396 96.4645 37.316C96.4619 37.236 96.4579 37.1653 96.4525 37.104H96.8085C96.8139 37.152 96.8179 37.208 96.8205 37.272C96.8232 37.3333 96.8245 37.384 96.8245 37.424H96.8365C96.8899 37.312 96.9672 37.2227 97.0685 37.156C97.1725 37.0867 97.2885 37.052 97.4165 37.052C97.4752 37.052 97.5245 37.0573 97.5645 37.068L97.5485 37.416C97.4952 37.4027 97.4379 37.396 97.3765 37.396C97.2859 37.396 97.2072 37.4133 97.1405 37.448C97.0739 37.48 97.0179 37.524 96.9725 37.58C96.9299 37.636 96.8979 37.7013 96.8765 37.776C96.8552 37.848 96.8445 37.924 96.8445 38.004V39H96.4685V37.512ZM98.2978 39H97.9218V37.104H98.2978V39ZM98.2298 36.744H97.9218L98.3218 36.168H98.7738L98.2298 36.744ZM99.3249 38.7V39H98.9609V35.976H99.3369V37.388H99.3489C99.4129 37.2947 99.5022 37.216 99.6169 37.152C99.7316 37.0853 99.8676 37.052 100.025 37.052C100.166 37.052 100.294 37.0773 100.409 37.128C100.526 37.1787 100.626 37.2493 100.709 37.34C100.794 37.4307 100.86 37.5373 100.905 37.66C100.95 37.78 100.973 37.9093 100.973 38.048C100.973 38.1867 100.95 38.3173 100.905 38.44C100.86 38.5627 100.796 38.6693 100.713 38.76C100.63 38.8507 100.53 38.9227 100.413 38.976C100.296 39.0267 100.164 39.052 100.017 39.052C99.8809 39.052 99.7516 39.0227 99.6289 38.964C99.5062 38.9027 99.4076 38.8147 99.3329 38.7H99.3249ZM100.585 38.048C100.585 37.96 100.572 37.8747 100.545 37.792C100.518 37.7093 100.478 37.636 100.425 37.572C100.372 37.508 100.305 37.4573 100.225 37.42C100.148 37.3827 100.057 37.364 99.9529 37.364C99.8569 37.364 99.7689 37.3827 99.6889 37.42C99.6116 37.4573 99.5449 37.508 99.4889 37.572C99.4329 37.636 99.3889 37.7093 99.3569 37.792C99.3276 37.8747 99.3129 37.9613 99.3129 38.052C99.3129 38.1427 99.3276 38.2293 99.3569 38.312C99.3889 38.3947 99.4329 38.468 99.4889 38.532C99.5449 38.5933 99.6116 38.6427 99.6889 38.68C99.7689 38.7173 99.8569 38.736 99.9529 38.736C100.057 38.736 100.148 38.7173 100.225 38.68C100.305 38.64 100.372 38.588 100.425 38.524C100.478 38.46 100.518 38.3867 100.545 38.304C100.572 38.2213 100.585 38.136 100.585 38.048ZM102.884 37.884C102.881 37.8093 102.868 37.74 102.844 37.676C102.823 37.6093 102.789 37.552 102.744 37.504C102.701 37.456 102.647 37.4187 102.58 37.392C102.516 37.3627 102.44 37.348 102.352 37.348C102.272 37.348 102.196 37.3627 102.124 37.392C102.055 37.4187 101.993 37.456 101.94 37.504C101.889 37.552 101.847 37.6093 101.812 37.676C101.78 37.74 101.761 37.8093 101.756 37.884H102.884ZM103.264 38.036C103.264 38.0573 103.264 38.0787 103.264 38.1C103.264 38.1213 103.263 38.1427 103.26 38.164H101.756C101.759 38.244 101.776 38.32 101.808 38.392C101.843 38.4613 101.888 38.5227 101.944 38.576C102 38.6267 102.064 38.6667 102.136 38.696C102.211 38.7253 102.289 38.74 102.372 38.74C102.5 38.74 102.611 38.712 102.704 38.656C102.797 38.6 102.871 38.532 102.924 38.452L103.188 38.664C103.087 38.7973 102.967 38.896 102.828 38.96C102.692 39.0213 102.54 39.052 102.372 39.052C102.228 39.052 102.095 39.028 101.972 38.98C101.849 38.932 101.744 38.8653 101.656 38.78C101.568 38.692 101.499 38.5867 101.448 38.464C101.397 38.3413 101.372 38.2053 101.372 38.056C101.372 37.9093 101.396 37.7747 101.444 37.652C101.495 37.5267 101.564 37.42 101.652 37.332C101.74 37.244 101.844 37.176 101.964 37.128C102.084 37.0773 102.213 37.052 102.352 37.052C102.491 37.052 102.616 37.0747 102.728 37.12C102.843 37.1653 102.939 37.2307 103.016 37.316C103.096 37.4013 103.157 37.5053 103.2 37.628C103.243 37.748 103.264 37.884 103.264 38.036ZM104.129 37.104C104.134 37.152 104.138 37.2067 104.141 37.268C104.144 37.3267 104.145 37.376 104.145 37.416H104.157C104.181 37.3653 104.213 37.3187 104.253 37.276C104.296 37.2307 104.344 37.192 104.397 37.16C104.45 37.1253 104.509 37.0987 104.573 37.08C104.637 37.0613 104.704 37.052 104.773 37.052C104.896 37.052 105.001 37.0733 105.089 37.116C105.177 37.156 105.25 37.2107 105.309 37.28C105.368 37.3493 105.41 37.4307 105.437 37.524C105.466 37.6173 105.481 37.7173 105.481 37.824V39H105.105V37.948C105.105 37.8707 105.098 37.7973 105.085 37.728C105.074 37.6587 105.053 37.5973 105.021 37.544C104.989 37.4907 104.945 37.448 104.889 37.416C104.833 37.384 104.761 37.368 104.673 37.368C104.524 37.368 104.401 37.4253 104.305 37.54C104.212 37.652 104.165 37.8027 104.165 37.992V39H103.789V37.512C103.789 37.4613 103.788 37.396 103.785 37.316C103.782 37.236 103.778 37.1653 103.773 37.104H104.129ZM108.037 38.048C108.037 38.1947 108.01 38.3293 107.957 38.452C107.906 38.5747 107.834 38.6813 107.741 38.772C107.65 38.86 107.542 38.9293 107.417 38.98C107.292 39.028 107.157 39.052 107.013 39.052C106.869 39.052 106.734 39.028 106.609 38.98C106.484 38.9293 106.376 38.86 106.285 38.772C106.194 38.6813 106.122 38.5747 106.069 38.452C106.018 38.3293 105.993 38.1947 105.993 38.048C105.993 37.9013 106.018 37.768 106.069 37.648C106.122 37.5253 106.194 37.42 106.285 37.332C106.376 37.244 106.484 37.176 106.609 37.128C106.734 37.0773 106.869 37.052 107.013 37.052C107.157 37.052 107.292 37.0773 107.417 37.128C107.542 37.176 107.65 37.244 107.741 37.332C107.834 37.42 107.906 37.5253 107.957 37.648C108.01 37.768 108.037 37.9013 108.037 38.048ZM107.645 38.048C107.645 37.9573 107.63 37.8707 107.601 37.788C107.574 37.7053 107.534 37.6333 107.481 37.572C107.428 37.508 107.361 37.4573 107.281 37.42C107.204 37.3827 107.114 37.364 107.013 37.364C106.912 37.364 106.821 37.3827 106.741 37.42C106.664 37.4573 106.598 37.508 106.545 37.572C106.492 37.6333 106.45 37.7053 106.421 37.788C106.394 37.8707 106.381 37.9573 106.381 38.048C106.381 38.1387 106.394 38.2253 106.421 38.308C106.45 38.3907 106.492 38.464 106.545 38.528C106.598 38.592 106.664 38.6427 106.741 38.68C106.821 38.7173 106.912 38.736 107.013 38.736C107.114 38.736 107.204 38.7173 107.281 38.68C107.361 38.6427 107.428 38.592 107.481 38.528C107.534 38.464 107.574 38.3907 107.601 38.308C107.63 38.2253 107.645 38.1387 107.645 38.048ZM109.582 37.584C109.54 37.5147 109.48 37.4587 109.402 37.416C109.325 37.3707 109.238 37.348 109.142 37.348C109.1 37.348 109.057 37.3533 109.014 37.364C108.972 37.372 108.933 37.3867 108.898 37.408C108.866 37.4267 108.84 37.452 108.818 37.484C108.8 37.5133 108.79 37.5507 108.79 37.596C108.79 37.676 108.826 37.736 108.898 37.776C108.97 37.8133 109.078 37.848 109.222 37.88C109.313 37.9013 109.397 37.9267 109.474 37.956C109.552 37.9853 109.618 38.0227 109.674 38.068C109.733 38.1107 109.778 38.1627 109.81 38.224C109.842 38.2853 109.858 38.3573 109.858 38.44C109.858 38.552 109.837 38.6467 109.794 38.724C109.752 38.8013 109.694 38.8653 109.622 38.916C109.553 38.964 109.473 38.9987 109.382 39.02C109.292 39.0413 109.198 39.052 109.102 39.052C108.958 39.052 108.817 39.024 108.678 38.968C108.542 38.912 108.429 38.8267 108.338 38.712L108.606 38.484C108.657 38.5587 108.726 38.6213 108.814 38.672C108.905 38.7227 109.004 38.748 109.11 38.748C109.158 38.748 109.204 38.744 109.246 38.736C109.292 38.7253 109.332 38.7093 109.366 38.688C109.404 38.6667 109.433 38.6387 109.454 38.604C109.476 38.5693 109.486 38.5253 109.486 38.472C109.486 38.384 109.444 38.3187 109.358 38.276C109.276 38.2333 109.153 38.1933 108.99 38.156C108.926 38.14 108.861 38.1213 108.794 38.1C108.73 38.076 108.672 38.044 108.618 38.004C108.565 37.964 108.521 37.9147 108.486 37.856C108.454 37.7947 108.438 37.72 108.438 37.632C108.438 37.5307 108.458 37.444 108.498 37.372C108.541 37.2973 108.596 37.2373 108.662 37.192C108.729 37.144 108.805 37.1093 108.89 37.088C108.976 37.064 109.064 37.052 109.154 37.052C109.29 37.052 109.421 37.0787 109.546 37.132C109.674 37.1853 109.773 37.2627 109.842 37.364L109.582 37.584Z" fill="#939393"/>
<rect x="50" y="46" width="100" height="12" rx="4" fill="#23252D"/>
<rect x="50" y="86" width="100" height="12" rx="4" fill="#23252D"/>
<rect x="50" y="66" width="100" height="12" rx="4" fill="#23252D"/>
<line opacity="0.2" x1="24" y1="24.9" x2="176" y2="24.9" stroke="white" stroke-width="0.2"/>
<circle cx="33.5" cy="19.5" r="1.5" fill="#ED695F"/>
<circle cx="38.5" cy="19.5" r="1.5" fill="#F4BD4F"/>
<circle cx="43.5" cy="19.5" r="1.5" fill="#62C454"/>
</svg>
