<svg width="200" height="95" viewBox="0 0 200 95" fill="none" xmlns="http://www.w3.org/2000/svg">
<g clip-path="url(#clip0_191_272)">
<rect width="200" height="95" rx="8" fill="#23252D"/>
<path d="M35.8225 21L40 23.2217L35 26L35.8225 21Z" fill="#9FD39E"/>
<path d="M21 57.1212L17 59L17.569 54.1783L20.987 53L21 57.1212Z" fill="#B3B9FF"/>
<path d="M60.9917 8.67778L61 14L57 11.3727L57.3675 7L60.9917 8.67778Z" fill="#B3B9FF"/>
<path d="M56.8225 39L61 41.2217L56 44L56.8225 39Z" fill="#FFD280"/>
<path d="M21.8225 82L26 84.2217L21 87L21.8225 82Z" fill="#FFD280"/>
<path d="M59 86.1212L55 88L55.569 83.1783L58.987 82L59 86.1212Z" fill="#B3B9FF"/>
<path d="M43.9917 64.6778L44 70L40 67.3727L40.3675 63L43.9917 64.6778Z" fill="#FFB3F7"/>
<path d="M164.178 21L160 23.2217L165 26L164.178 21Z" fill="#9FD39E"/>
<path d="M179 57.1212L183 59L182.431 54.1783L179.013 53L179 57.1212Z" fill="#B3B9FF"/>
<path d="M139.008 8.67778L139 14L143 11.3727L142.633 7L139.008 8.67778Z" fill="#B3B9FF"/>
<path d="M143.178 39L139 41.2217L144 44L143.178 39Z" fill="#FFD280"/>
<path d="M178.178 82L174 84.2217L179 87L178.178 82Z" fill="#FFD280"/>
<path d="M141 86.1212L145 88L144.431 83.1783L141.013 82L141 86.1212Z" fill="#B3B9FF"/>
<path d="M156.008 64.6778L156 70L160 67.3727L159.633 63L156.008 64.6778Z" fill="#FFB3F7"/>
<path d="M70 31C70 26.5817 73.5817 23 78 23H122C126.418 23 130 26.5817 130 31V110H70V31Z" fill="white"/>
<rect x="80" y="59" width="40" height="30" rx="4" fill="#EFF1F2"/>
<path d="M90.3099 51C87.1476 51 84.6577 50.3005 83 49.6335L86.2894 49.2369C87.4296 49.5451 88.7801 49.7653 90.3099 49.7653C91.3478 49.7653 92.4181 49.5628 93.5596 49.2011C94.7034 48.8386 95.8082 48.3529 96.9236 47.8486L97.214 47.7171C98.1982 47.271 99.2216 46.8071 100.2 46.4863C101.245 46.1437 102.629 45.8325 104.084 46.1023C105.045 46.2806 105.669 46.6097 106.109 47.0121C106.522 47.389 106.806 47.8617 107.082 48.3755C107.209 48.6103 107.423 48.8372 107.669 48.9907C107.788 49.0655 107.891 49.1079 107.963 49.1293C108.027 49.148 108.055 49.148 108.062 49.148C108.374 49.148 108.91 49.0462 109.675 48.795C110.15 48.6392 110.555 48.4832 110.961 48.3272C111.213 48.2304 111.465 48.1333 111.733 48.0364C112.448 47.7786 113.066 47.6057 113.52 47.4952C113.746 47.4399 113.931 47.4001 114.066 47.3732C114.134 47.3598 114.189 47.3495 114.231 47.342L114.283 47.333L114.301 47.3299L114.308 47.3288L114.311 47.3283C114.311 47.3283 114.313 47.3278 114.719 47.9133L114.313 47.3278C114.984 47.2196 115.709 47.3941 115.934 47.7175C116.157 48.0395 115.799 48.3876 115.134 48.4973L115.124 48.4992C115.11 48.5016 115.083 48.5066 115.045 48.5144C114.967 48.5298 114.841 48.5565 114.675 48.597C114.344 48.6777 113.853 48.8135 113.267 49.0249C113.117 49.079 112.921 49.1541 112.697 49.2396C112.233 49.4173 111.65 49.6404 111.116 49.8158C110.32 50.077 109.217 50.3828 108.062 50.3828C106.947 50.3828 106.139 50.0559 105.641 49.7449C105.134 49.4276 104.793 49.0371 104.604 48.6857C104.323 48.1641 104.101 47.8224 103.844 47.5882C103.616 47.3793 103.409 47.3001 103.165 47.2547C102.955 47.2158 102.536 47.2133 101.64 47.5073C100.838 47.7702 99.9645 48.1656 98.9305 48.6336L98.6747 48.7495C97.5711 49.2484 96.3181 49.8044 94.9655 50.233C93.6106 50.6623 92.0457 51 90.3099 51Z" fill="#E1E2E3"/>
</g>
<defs>
<clipPath id="clip0_191_272">
<rect width="200" height="95" rx="8" fill="white"/>
</clipPath>
</defs>
</svg>
