<svg width="32" height="32" viewBox="0 0 32 32" fill="none" xmlns="http://www.w3.org/2000/svg">
<path opacity="0.8" d="M3.99573 28.9855C3.74573 28.8255 3.66573 28.4955 3.69573 28.2155C3.74573 27.7755 3.75573 27.3355 3.64573 26.9055C3.60573 26.6555 3.64573 26.4055 3.61573 26.1555C3.55573 25.8355 3.54573 25.5255 3.56573 25.2055C3.49573 24.5555 3.42573 23.9055 3.44573 23.2455C3.44573 22.8555 3.42573 22.5755 3.42573 22.1555C3.41573 21.9455 3.38573 21.7155 3.52573 21.5355C3.42573 21.0855 3.99573 20.7155 4.36573 20.9855C4.47573 21.0555 4.57573 21.1255 4.69573 21.1955C5.48573 21.5955 6.25573 22.1255 7.02573 22.5755C7.06573 22.5955 7.10573 22.6255 7.14573 22.6455C7.65573 21.9655 8.18573 21.2855 8.73573 20.6355C7.76573 17.4255 11.1457 13.8055 13.3057 11.7555C12.1657 9.71555 15.2657 7.43555 16.7257 6.38555C18.8257 4.95555 21.2257 4.02555 23.6757 3.41555C24.8057 3.12555 25.8757 2.95555 27.0757 2.93555C27.6057 2.96555 28.5357 2.64555 28.6357 3.41555C28.6357 4.20555 27.6657 3.97555 27.1457 4.03555C26.5857 4.03555 26.0257 4.09555 25.4657 4.16555C22.3157 4.73555 19.1957 5.86555 16.6257 7.82555C15.7757 8.53555 14.1157 9.79555 14.1857 10.9955C15.6257 9.86555 17.2457 8.96555 18.9557 8.31555C24.5157 6.38555 23.8657 11.6655 18.9757 12.8655C17.4057 13.3655 15.6257 13.2055 14.1457 12.5055C12.3157 14.2155 9.74573 16.9555 9.67573 19.5855C10.8557 18.2755 13.8257 15.9055 15.6657 16.4555C17.1457 17.0855 16.3757 18.9755 15.5457 19.8355C14.2457 21.2855 11.2457 22.8755 9.43573 21.5655C8.98573 22.0955 8.55573 22.6455 8.13573 23.2055C8.32573 23.3255 8.51573 23.4455 8.71573 23.5655C8.94573 23.7355 9.14573 23.9255 9.39573 24.0655C9.88573 24.3655 10.6157 24.4555 10.9057 25.0055C11.1157 25.6255 10.4457 25.8255 9.98573 25.9555C9.71573 26.0855 9.43573 26.1755 9.15573 26.2755C8.41573 26.5555 7.86573 27.1355 7.21573 27.5655C6.56573 27.9455 5.94573 28.3655 5.24573 28.6655C4.84573 28.8155 4.46573 29.3155 4.00573 29.0155L3.99573 28.9855ZM18.4057 11.8655C19.7457 11.4855 21.4557 10.8555 21.7857 9.33555C21.7857 9.29555 21.7857 9.24555 21.7557 9.21555C20.4757 8.21555 16.2057 10.8055 15.0657 11.7055C16.1357 12.0455 17.3057 12.1855 18.3957 11.8655H18.4057ZM15.3957 17.7655C15.4157 16.9155 13.4757 17.9955 13.1157 18.1855C11.9857 18.8355 10.9857 19.7055 10.1457 20.6955C11.7157 21.5955 15.1957 19.4855 15.3957 17.7555V17.7655Z" fill="#9A99EA"/>
</svg>
