<svg width="36" height="46" viewBox="0 0 36 46" fill="none" xmlns="http://www.w3.org/2000/svg">
<path d="M29.2516 32.382C29.2266 32.382 29.2266 32.382 29.2017 32.357C29.1767 32.332 29.1767 32.3071 29.2017 32.2821C29.4015 32.1072 29.5764 31.9324 29.7262 31.7575C29.7512 31.7325 29.7762 31.7325 29.8012 31.7575C29.8262 31.7825 29.8262 31.8075 29.8012 31.8324C29.6263 32.0073 29.4515 32.2071 29.2766 32.357C29.2766 32.382 29.2516 32.382 29.2516 32.382ZM0.94924 27.7107C0.92426 27.7107 0.924261 27.7107 0.899281 27.6858L0.849322 27.6108C0.724422 27.436 0.624501 27.2361 0.52458 27.0363C0.52458 27.0113 0.52458 26.9863 0.54956 26.9613C0.57454 26.9613 0.599521 26.9613 0.624501 26.9863C0.724421 27.1862 0.824341 27.386 0.924261 27.5609L0.974222 27.6358C0.999202 27.6608 0.97422 27.6858 0.94924 27.7107ZM0.224821 26.137C0.199841 26.137 0.17486 26.112 0.17486 26.112C0.0999194 25.8622 0.0499601 25.6374 0 25.3876C0 25.3626 0.0249793 25.3376 0.0499593 25.3376C0.0749394 25.3376 0.0999205 25.3626 0.0999205 25.3876C0.149881 25.6374 0.19984 25.8622 0.27478 26.112C0.27478 26.087 0.249801 26.112 0.224821 26.137ZM2.2482 19.9919C2.22322 19.9919 2.22322 19.9919 2.19824 19.9669C2.17326 19.9419 2.19824 19.917 2.22322 19.892C2.42306 19.7671 2.64788 19.6672 2.89768 19.5423C2.92266 19.5423 2.94764 19.5423 2.97263 19.5672C2.97263 19.5922 2.97262 19.6172 2.94764 19.6422C2.72282 19.7421 2.498 19.867 2.27318 19.9669L2.2482 19.9919ZM3.84693 19.3174C3.82195 19.3174 3.79697 19.2925 3.79697 19.2925C3.79697 19.2675 3.79696 19.2425 3.82194 19.2175C4.04676 19.1426 4.27159 19.0926 4.54637 19.0177C4.57135 19.0177 4.59633 19.0177 4.59633 19.0427C4.59633 19.0676 4.59633 19.0926 4.57135 19.0926C4.32155 19.1676 4.07175 19.2425 3.84693 19.3174ZM21.0332 16.9693C21.0082 16.9693 21.0082 16.9693 20.9832 16.9443C20.9583 16.9194 20.9832 16.8944 21.0082 16.8694C21.233 16.7445 21.4329 16.5946 21.6327 16.4447C21.6577 16.4198 21.6827 16.4447 21.7077 16.4447C21.7326 16.4697 21.7077 16.4947 21.7077 16.5197C21.5078 16.6696 21.308 16.8194 21.0832 16.9443L21.0332 16.9693ZM22.3821 15.8702C22.3821 15.8702 22.3571 15.8702 22.3571 15.8452C22.3322 15.8202 22.3322 15.7953 22.3571 15.7703C22.532 15.5954 22.6819 15.3956 22.8318 15.1957C22.8567 15.1708 22.8817 15.1708 22.9067 15.1708C22.9317 15.1957 22.9317 15.2207 22.9317 15.2457C22.7818 15.4455 22.6319 15.6454 22.4571 15.8452C22.4071 15.8702 22.4071 15.8702 22.3821 15.8702ZM21.8825 14.6961C21.8575 14.6961 21.8326 14.6712 21.8326 14.6462C21.8326 14.6212 21.8575 14.5962 21.8825 14.5962C22.1323 14.5962 22.3821 14.5712 22.6319 14.5463C22.6569 14.5463 22.6819 14.5712 22.6819 14.5962C22.6819 14.6212 22.6569 14.6462 22.6319 14.6462C22.3821 14.6712 22.1323 14.6961 21.8825 14.6961ZM20.8833 14.5712C20.6085 14.5213 20.3837 14.4463 20.1589 14.3464C20.1339 14.3464 20.1339 14.2965 20.1339 14.2715C20.1339 14.2465 20.1839 14.2465 20.2089 14.2465C20.4337 14.3464 20.6585 14.4214 20.9083 14.4713C20.9333 14.4713 20.9583 14.4963 20.9583 14.5213C20.9333 14.5712 20.9083 14.5712 20.8833 14.5712ZM23.3314 14.4214C23.3064 14.4214 23.3064 14.4214 23.3314 14.4214C23.2814 14.3964 23.2814 14.3714 23.2814 14.3464C23.3813 14.1216 23.4313 13.8718 23.4812 13.647C23.4812 13.622 23.5062 13.597 23.5312 13.597C23.5562 13.597 23.5812 13.622 23.5812 13.647C23.5312 13.8968 23.4563 14.1466 23.3563 14.3714C23.3563 14.3964 23.3314 14.4214 23.3314 14.4214ZM23.6061 14.3964C23.5812 14.3964 23.5562 14.3714 23.5562 14.3714C23.5562 14.3464 23.5562 14.3214 23.5812 14.2965C23.806 14.2215 24.0308 14.1216 24.2556 13.9967C24.2806 13.9717 24.3056 13.9967 24.3306 14.0217C24.3555 14.0467 24.3306 14.0716 24.3056 14.0966C24.0808 14.1965 23.8559 14.2965 23.6061 14.3964ZM19.3346 13.8218H19.3096C19.2096 13.7469 19.1347 13.647 19.0348 13.572C18.9599 13.4721 18.8599 13.3722 18.785 13.2723C18.76 13.2473 18.785 13.2223 18.81 13.1973C18.8349 13.1724 18.8599 13.1973 18.8849 13.2223L19.1097 13.5221C19.1847 13.622 19.2846 13.6969 19.3595 13.7719C19.3845 13.7969 19.3845 13.8218 19.3595 13.8468C19.3595 13.8218 19.3595 13.8218 19.3346 13.8218ZM25.1049 13.5221C25.08 13.5221 25.08 13.5221 25.055 13.4971C25.03 13.4721 25.03 13.4471 25.055 13.4222C25.2548 13.2723 25.4297 13.0974 25.6045 12.9226C25.6295 12.8976 25.6545 12.8976 25.6795 12.9226C25.7045 12.9475 25.7045 12.9725 25.6795 12.9975C25.5046 13.1724 25.3048 13.3472 25.1299 13.4971C25.1299 13.5221 25.1299 13.5221 25.1049 13.5221ZM23.6311 12.6977C23.6061 12.6977 23.5812 12.6728 23.5812 12.6478C23.5812 12.398 23.5562 12.1482 23.5062 11.9234C23.5062 11.8984 23.5312 11.8734 23.5562 11.8734C23.5812 11.8734 23.6061 11.8984 23.6061 11.9234C23.6561 12.1732 23.6811 12.423 23.6811 12.6728C23.6811 12.6728 23.6561 12.6977 23.6311 12.6977ZM18.4353 12.373C18.4103 12.373 18.3853 12.348 18.3853 12.323C18.3353 12.0732 18.2854 11.8234 18.2854 11.5736C18.2854 11.5487 18.3104 11.5237 18.3353 11.5237C18.3603 11.5237 18.3853 11.5487 18.3853 11.5736C18.3853 11.8234 18.4103 12.0732 18.4852 12.2981C18.4852 12.323 18.4602 12.373 18.4353 12.373ZM26.304 12.2731H26.279C26.254 12.2481 26.254 12.2231 26.279 12.1981C26.4289 11.9983 26.5538 11.7735 26.6787 11.5736C26.7037 11.5487 26.7286 11.5487 26.7536 11.5487C26.7786 11.5736 26.7786 11.5986 26.7786 11.6236C26.6537 11.8484 26.5288 12.0732 26.3789 12.2731C26.329 12.2481 26.329 12.2731 26.304 12.2731ZM23.2564 10.9991C23.2314 10.9991 23.2314 10.9991 23.2065 10.9741C23.1065 10.7493 22.9567 10.5495 22.8068 10.3496C22.7818 10.3246 22.7818 10.2997 22.8068 10.2747C22.8318 10.2497 22.8567 10.2497 22.8817 10.2747C23.0316 10.4745 23.1815 10.6744 23.2814 10.9242C23.3064 10.9741 23.3064 10.9991 23.2564 10.9991ZM27.1033 10.6993C27.0534 10.6993 27.0534 10.6494 27.0534 10.6244C27.1283 10.3996 27.2033 10.1498 27.2532 9.89997C27.2532 9.87499 27.2782 9.85001 27.3032 9.85001C27.3282 9.85001 27.3531 9.87499 27.3531 9.89997C27.3032 10.1498 27.2282 10.3996 27.1533 10.6244C27.1283 10.6993 27.1283 10.6993 27.1033 10.6993ZM18.5102 10.6494C18.4602 10.6244 18.4602 10.5994 18.4602 10.5744C18.5602 10.3246 18.6851 10.0998 18.8599 9.92495C18.8849 9.89997 18.9099 9.89997 18.9349 9.92495C18.9598 9.94993 18.9598 9.97491 18.9349 9.99989C18.785 10.1748 18.6601 10.3996 18.5602 10.6244C18.5602 10.6494 18.5352 10.6494 18.5102 10.6494ZM22.1073 9.72511H22.0824C21.8825 9.60021 21.6577 9.50029 21.4079 9.42535C21.3829 9.42535 21.3579 9.40037 21.3829 9.35041C21.3829 9.32543 21.4079 9.30045 21.4579 9.32543C21.7077 9.40037 21.9325 9.50029 22.1573 9.62519C22.1823 9.65017 22.1823 9.67515 22.1823 9.70013C22.1323 9.70013 22.1323 9.72511 22.1073 9.72511ZM19.7093 9.45033C19.6843 9.45033 19.6593 9.45033 19.6593 9.42535C19.6593 9.40037 19.6593 9.37539 19.6843 9.35041C19.9091 9.25049 20.1589 9.20053 20.4337 9.20053C20.4587 9.20053 20.4836 9.22551 20.4836 9.25049C20.4836 9.27547 20.4587 9.30045 20.4337 9.30045C20.1839 9.30045 19.9591 9.35041 19.7093 9.45033ZM27.4031 9.00069C27.3781 9.00069 27.3531 8.97571 27.3531 8.95073V8.87579C27.3531 8.65097 27.3282 8.42615 27.3032 8.20133C27.3032 8.17635 27.3282 8.15137 27.3531 8.15137C27.3781 8.15137 27.4031 8.17635 27.4031 8.20133C27.4281 8.42615 27.4531 8.65097 27.4531 8.90077V8.97571C27.4531 8.97571 27.4281 9.00069 27.4031 9.00069Z" fill="#4C5C75"/>
<path d="M17.3114 31.5325C16.8617 31.6324 16.487 31.6324 16.1623 31.5575C16.0124 31.5325 15.8625 31.4576 15.7626 31.4076C15.7376 31.3826 15.7127 31.3826 15.6877 31.3576C15.6627 31.3077 15.6627 31.2577 15.6877 31.2078C15.7376 31.1328 15.7876 31.0829 15.8376 31.0579C15.8875 31.0329 15.9125 31.0079 15.9625 31.0079C16.0874 30.9829 16.2123 30.958 16.3372 30.958C16.537 30.958 16.7119 30.933 16.9117 30.933C17.0616 30.933 17.1865 30.908 17.3114 30.933C17.3364 30.933 17.3613 30.933 17.3863 30.958L17.3114 31.5325Z" fill="#F6A285"/>
<path d="M16.2123 31.4333C16.2123 31.4833 16.1873 31.5082 16.1623 31.5582C16.0124 31.5332 15.8625 31.4583 15.7626 31.4083C15.7376 31.3833 15.7127 31.3833 15.6877 31.3584C15.6627 31.3084 15.6627 31.2584 15.6877 31.2085C15.7376 31.1335 15.7876 31.0836 15.8376 31.0586C16.0874 31.1335 16.2372 31.2834 16.2123 31.4333Z" fill="#FDE0BB"/>
<path d="M17.886 29.9845L17.3864 30.9338C17.3614 30.9338 17.3365 30.9338 17.3115 30.9088C16.9867 30.8339 16.662 30.7839 16.3373 30.684C16.1874 30.634 16.0625 30.584 15.9126 30.5341C15.8876 30.5091 15.8377 30.5091 15.8127 30.4591C15.7877 30.4092 15.7877 30.3342 15.8127 30.2843C15.8377 30.2343 15.8876 30.1844 15.9376 30.1344C16.0125 30.0845 16.0875 30.0345 16.1624 30.0095C16.3123 29.9596 16.4622 29.9595 16.612 29.9595C16.8369 29.9595 17.0617 29.9346 17.2865 29.9346C17.4863 29.9596 17.6862 29.9346 17.886 29.9845Z" fill="#F6A285"/>
<path d="M16.4122 30.5584C16.4122 30.6084 16.3872 30.6584 16.3373 30.6833C16.1874 30.6334 16.0625 30.5834 15.9126 30.5335C15.8876 30.5085 15.8377 30.5085 15.8127 30.4585C15.7877 30.4086 15.7877 30.3336 15.8127 30.2837C15.8377 30.2337 15.8876 30.1837 15.9376 30.1338C16.2373 30.2337 16.4372 30.4086 16.4122 30.5584Z" fill="#FDE0BB"/>
<path d="M18.3113 28.9351L17.8367 29.9593C17.487 29.8844 17.1622 29.8094 16.8375 29.6845C16.6626 29.6346 16.5128 29.5596 16.3379 29.4847C16.3129 29.4597 16.263 29.4597 16.238 29.4098C16.213 29.3598 16.213 29.2849 16.238 29.2349C16.263 29.1849 16.3129 29.135 16.3629 29.085C16.4378 29.0351 16.5128 29.0101 16.5877 28.9851C16.7376 28.9351 16.8875 28.9351 17.0373 28.9351C17.2622 28.9351 17.487 28.9102 17.7118 28.9102C17.9366 28.9102 18.1365 28.9102 18.3113 28.9351Z" fill="#F6A285"/>
<path d="M16.9374 29.5346C16.9374 29.5846 16.8875 29.6595 16.8375 29.6845C16.6626 29.6345 16.5128 29.5596 16.3379 29.4846C16.3129 29.4597 16.263 29.4597 16.238 29.4097C16.213 29.3597 16.213 29.2848 16.238 29.2348C16.263 29.1849 16.3129 29.1349 16.3629 29.085C16.7376 29.1599 16.9624 29.3597 16.9374 29.5346Z" fill="#FDE0BB"/>
<path d="M17.3107 31.5331C16.7112 31.683 16.2116 31.633 15.737 31.4332C15.712 31.4082 15.6621 31.4082 15.6371 31.3582C15.6121 31.3083 15.6371 31.2583 15.6371 31.2333C15.787 30.9086 16.2116 30.9336 16.4614 30.9086H16.9111C17.0609 30.9086 17.2108 30.8836 17.3607 30.9336C17.2108 30.9086 17.0609 30.9336 16.9111 30.9336L16.4614 30.9585C16.1866 30.9585 15.8119 30.9585 15.687 31.2333C15.6621 31.3083 15.687 31.3582 15.762 31.3832C16.2116 31.5831 16.7112 31.658 17.3107 31.5331Z" fill="#E17659"/>
<path d="M17.3864 30.9335C17.0617 30.8836 16.7369 30.8336 16.4122 30.7337C16.2623 30.6837 15.9126 30.5838 15.8127 30.5089C15.7627 30.4839 15.7627 30.409 15.7627 30.384C15.7877 30.2841 15.8376 30.2091 15.8876 30.1592C16.1374 29.9343 16.5121 29.9593 16.8618 29.9593C17.3364 29.9593 17.6112 29.9343 17.861 30.0093C17.5363 29.9593 17.2115 30.0093 16.8618 30.0093C16.4871 30.0343 16.1374 30.0093 15.9126 30.1841C15.8626 30.2341 15.8127 30.309 15.7877 30.384C15.7627 30.4589 15.8376 30.5089 15.9126 30.5339C16.4122 30.7337 16.8868 30.8336 17.3864 30.9335ZM17.836 29.9843C17.0617 29.8344 16.3622 29.5596 16.2623 29.4847C16.2123 29.4597 16.1874 29.4098 16.1874 29.3598C16.1874 29.2599 16.2623 29.1849 16.3123 29.135C16.5621 28.8852 16.9368 28.9351 17.2865 28.9102H17.7861C17.9609 28.9102 18.1358 28.9102 18.2857 28.9601C17.9609 28.9102 17.6112 28.9601 17.2865 28.9601C16.9118 28.9851 16.5621 28.9351 16.3372 29.16C16.2873 29.2099 16.2373 29.2849 16.2373 29.3598C16.2373 29.4347 16.3123 29.4597 16.3872 29.5097C16.8368 29.6845 17.3115 29.8594 17.836 29.9843Z" fill="#E17659"/>
<path d="M29.527 27.8862V42.6993C29.527 44.2731 28.2531 45.547 26.6793 45.547H3.27302C1.69928 45.547 0.425293 44.2731 0.425293 42.6993V27.8862C0.425293 27.3116 0.600153 26.7621 0.924894 26.2874C1.04979 26.0876 1.22465 25.8877 1.42449 25.7129L13.4399 15.521C14.3142 14.7716 15.6132 14.7716 16.4875 15.521L28.5029 25.7379C28.7027 25.9127 28.8776 26.1126 29.0025 26.3124C29.3522 26.7621 29.527 27.3116 29.527 27.8862Z" fill="#FFB861"/>
<path d="M25.7551 17.8942V28.9104L15.938 36.7042C15.5633 37.004 15.0137 37.004 14.614 36.7292L4.17236 28.7855V17.9192C4.17236 17.4446 4.57204 17.0699 5.02168 17.0699H24.9058C25.3804 17.0199 25.7551 17.3946 25.7551 17.8942Z" fill="white"/>
<path d="M29.527 27.8858V42.699C29.527 44.2727 28.2531 45.5467 26.6793 45.5467H3.27302C1.69928 45.5467 0.425293 44.2727 0.425293 42.699V27.8858C0.425293 27.3113 0.600153 26.7617 0.924894 26.2871L14.614 36.6788C14.9887 36.9786 15.5382 36.9786 15.9129 36.6538L29.0025 26.2871C29.3522 26.7617 29.527 27.3113 29.527 27.8858Z" fill="#FFD375"/>
<path d="M15.6381 19.4422V21.1908C15.6381 21.3407 15.5132 21.4406 15.3883 21.4406H6.67029C6.52041 21.4406 6.42049 21.3157 6.42049 21.1908V19.4422C6.42049 19.2923 6.54539 19.1924 6.67029 19.1924H15.3883C15.5382 19.1924 15.6381 19.3173 15.6381 19.4422ZM23.5068 23.6138C23.5068 23.8387 23.332 24.0385 23.0822 24.0385H6.82017C6.59535 24.0385 6.39551 23.8636 6.39551 23.6138C6.39551 23.389 6.57037 23.1892 6.82017 23.1892H23.0822C23.307 23.1892 23.5068 23.389 23.5068 23.6138ZM23.5068 25.4624C23.5068 25.6872 23.332 25.887 23.0822 25.887H6.82017C6.59535 25.887 6.39551 25.7122 6.39551 25.4624C6.39551 25.2375 6.57037 25.0377 6.82017 25.0377H23.0822C23.307 25.0377 23.5068 25.2375 23.5068 25.4624ZM23.5068 27.3109C23.5068 27.5357 23.332 27.7356 23.0822 27.7356H6.82017C6.59535 27.7356 6.39551 27.5607 6.39551 27.3109C6.39551 27.0861 6.57037 26.8862 6.82017 26.8862H23.0822C23.307 26.8862 23.5068 27.0861 23.5068 27.3109ZM21.2336 29.1594C21.2336 29.3842 21.0588 29.5841 20.809 29.5841H6.82017C6.59535 29.5841 6.39551 29.4092 6.39551 29.1594C6.39551 28.9346 6.57037 28.7348 6.82017 28.7348H20.809C21.0588 28.7348 21.2336 28.9096 21.2336 29.1594ZM18.2111 31.0079C18.2111 31.2328 18.0362 31.4326 17.7864 31.4326H12.1159C11.8911 31.4326 11.6913 31.2577 11.6913 31.0079C11.6913 30.7831 11.8661 30.5833 12.1159 30.5833H17.7864C18.0362 30.5833 18.2111 30.7581 18.2111 31.0079Z" fill="#F2F0FB"/>
<path d="M35.6977 0.357486L31.3761 8.52596C31.3012 8.65086 31.1513 8.70082 31.0264 8.6009L24.6315 3.85469C24.4816 3.72979 24.5066 3.50497 24.7064 3.45501L35.4229 0.00776466C35.6227 -0.0421954 35.7976 0.157645 35.6977 0.357486Z" fill="#F2F0FB"/>
<path d="M27.3533 7.92666L27.1035 5.70344L34.2478 1.20703L27.9528 6.32794L27.3533 7.92666Z" fill="#CFCDF1"/>
<path d="M27.353 7.92685L28.5021 6.72781L27.9526 6.32812L27.353 7.92685Z" fill="#AAAADA"/>
</svg>
