<svg width="455" height="404" viewBox="0 0 455 404" fill="none" xmlns="http://www.w3.org/2000/svg">
<path opacity="0.05" d="M321.267 33.293C323.347 31.2078 325.818 29.5541 328.539 28.4271C331.26 27.3 334.177 26.7218 337.122 26.7256H359.416C361.07 19.1526 365.265 12.3729 371.303 7.51172C377.341 2.65051 384.86 0 392.611 0C400.363 0 407.882 2.65051 413.92 7.51172C419.958 12.3729 424.152 19.1526 425.807 26.7256H431.794C434.739 26.7247 437.655 27.304 440.376 28.4304C443.097 29.5569 445.569 31.2085 447.651 33.2908C449.733 35.3731 451.385 37.8453 452.511 40.5662C453.638 43.287 454.217 46.2032 454.216 49.148C454.216 52.0925 453.636 55.0083 452.509 57.7287C451.383 60.4491 449.731 62.9209 447.649 65.003C445.567 67.0851 443.095 68.7367 440.375 69.8635C437.654 70.9904 434.738 71.5704 431.794 71.5704H337.122C334.177 71.5704 331.261 70.9905 328.541 69.8637C325.821 68.7369 323.349 67.0852 321.267 65.0031C319.185 62.921 317.533 60.4492 316.406 57.7287C315.279 55.0083 314.699 52.0926 314.699 49.148C314.696 46.2029 315.274 43.286 316.401 40.5651C317.528 37.8442 319.182 35.3728 321.267 33.293ZM98.5431 69.7231C97.0015 68.1775 95.1697 66.9519 93.1529 66.1165C91.1362 65.2811 88.9742 64.8525 86.7913 64.8554H70.2669C69.0404 59.2421 65.9314 54.217 61.456 50.6139C56.9805 47.0107 51.4076 45.0461 45.6619 45.0461C39.9163 45.0461 34.3433 47.0107 29.8679 50.6139C25.3924 54.217 22.2835 59.2421 21.057 64.8554H16.6196C14.4369 64.8546 12.2754 65.284 10.2587 66.119C8.24196 66.9539 6.40953 68.1781 4.86612 69.7215C3.3227 71.2649 2.09854 73.0973 1.26359 75.114C0.428641 77.1308 -0.000735161 79.2922 9.44859e-07 81.475C-3.3631e-06 83.6575 0.429872 85.8186 1.26508 87.835C2.10029 89.8514 3.32448 91.6835 4.86775 93.2268C6.41102 94.7701 8.24315 95.9943 10.2595 96.8295C12.2759 97.6647 14.4371 98.0946 16.6196 98.0946H86.7913C88.9738 98.0946 91.135 97.6648 93.1514 96.8296C95.1678 95.9944 96.9999 94.7702 98.5432 93.2269C100.086 91.6836 101.311 89.8515 102.146 87.8351C102.981 85.8187 103.411 83.6575 103.411 81.475C103.414 79.292 102.985 77.13 102.15 75.1133C101.314 73.0965 100.089 71.2647 98.5431 69.7231Z" fill="#EEEEEE"/>
<path opacity="0.5" d="M373.838 207.173C373.774 206.763 373.631 206.369 373.415 206.015C373.2 205.66 372.916 205.352 372.581 205.107C372.246 204.862 371.866 204.686 371.463 204.588C371.06 204.49 370.641 204.473 370.231 204.537C369.821 204.601 369.428 204.745 369.074 204.961C368.72 205.178 368.412 205.462 368.168 205.797C367.924 206.132 367.748 206.513 367.651 206.916C367.554 207.32 367.537 207.738 367.602 208.148C368.055 211.087 368.631 220.296 365.454 224.002C364.804 224.784 363.895 225.307 362.892 225.475L363.181 207.936C363.191 207.329 363.08 206.726 362.854 206.163C362.628 205.6 362.292 205.087 361.866 204.655C361.439 204.223 360.931 203.881 360.37 203.648C359.81 203.415 359.208 203.296 358.601 203.299C357.994 203.301 357.394 203.425 356.835 203.662C356.277 203.9 355.771 204.246 355.348 204.682C354.925 205.117 354.593 205.633 354.372 206.198C354.151 206.763 354.045 207.367 354.06 207.974L354.884 241.258C353.841 241.11 352.89 240.58 352.214 239.771C349.037 236.065 349.613 226.856 350.066 223.917C350.13 223.508 350.113 223.09 350.015 222.687C349.918 222.284 349.742 221.904 349.498 221.57C349.254 221.235 348.946 220.951 348.592 220.736C348.238 220.52 347.845 220.376 347.436 220.312C347.026 220.248 346.608 220.265 346.206 220.362C345.803 220.46 345.423 220.636 345.088 220.88C344.754 221.124 344.47 221.432 344.254 221.786C344.039 222.139 343.895 222.532 343.83 222.942C343.604 224.39 341.779 237.284 347.415 243.87C348.362 244.983 349.528 245.891 350.84 246.535C352.151 247.18 353.582 247.549 355.042 247.619L355.4 262.106H362.287L362.787 231.838C364.219 231.749 365.618 231.373 366.901 230.731C368.184 230.088 369.324 229.194 370.253 228.101C375.889 221.515 374.064 208.621 373.838 207.173ZM79.7892 235.388C79.7068 234.861 79.4183 234.388 78.9873 234.074C78.5563 233.759 78.018 233.629 77.4909 233.712C76.9638 233.794 76.4911 234.082 76.1766 234.513C75.8622 234.944 75.7319 235.483 75.8144 236.01C76.1029 237.883 76.4704 243.754 74.4448 246.116C74.0306 246.615 73.4511 246.948 72.8118 247.055L72.9964 235.875C73.0028 235.488 72.9319 235.103 72.7879 234.744C72.6439 234.385 72.4297 234.058 72.1577 233.783C71.8858 233.508 71.5617 233.289 71.2044 233.141C70.847 232.993 70.4636 232.917 70.0767 232.919C69.6897 232.92 69.307 232.999 68.9509 233.15C68.5948 233.302 68.2725 233.523 68.0029 233.8C67.7332 234.078 67.5217 234.406 67.3807 234.767C67.2396 235.127 67.1719 235.512 67.1815 235.899L67.7071 257.116C67.042 257.022 66.4355 256.684 66.0052 256.168C63.9796 253.806 64.3471 247.936 64.6356 246.062C64.7181 245.535 64.5878 244.997 64.2734 244.566C63.9589 244.135 63.4862 243.846 62.9591 243.764C62.432 243.681 61.8937 243.812 61.4627 244.126C61.0316 244.44 60.7431 244.913 60.6607 245.44C60.5161 246.364 59.3531 254.583 62.9458 258.781C63.5496 259.491 64.2926 260.069 65.1288 260.48C65.965 260.891 66.8767 261.127 67.8074 261.171L68.0362 270.406H72.4262L72.7448 251.112C73.6576 251.055 74.5495 250.815 75.3673 250.405C76.1851 249.996 76.9118 249.426 77.5041 248.729C81.0969 244.531 79.9338 236.312 79.7892 235.388Z" fill="#BDBDBD"/>
<path opacity="0.05" d="M227.108 404C352.536 404 454.216 368.004 454.216 323.6C454.216 279.196 352.536 243.199 227.108 243.199C101.68 243.199 0 279.196 0 323.6C0 368.004 101.68 404 227.108 404Z" fill="url(#paint0_linear_117_408)"/>
<path d="M252.113 229.918C252.079 229.898 252.043 229.879 252.008 229.86C248.738 228.121 245.861 225.73 243.553 222.833C248.243 221.793 252.438 219.187 255.447 215.443C258.457 211.699 260.1 207.041 260.108 202.238C260.108 201.305 259.737 200.41 259.077 199.751C258.418 199.091 257.523 198.721 256.591 198.721C255.658 198.721 254.763 199.091 254.104 199.751C253.444 200.41 253.074 201.305 253.074 202.238C253.068 205.804 251.708 209.235 249.27 211.838C246.831 214.44 243.496 216.02 239.937 216.258C239.448 214.916 239.092 213.529 238.875 212.117L236.872 198.158C235.792 192.034 232.456 186.537 227.522 182.752C222.588 178.966 216.415 177.168 210.22 177.71C204.025 178.252 198.258 181.097 194.058 185.682C189.857 190.267 187.526 196.26 187.527 202.478L187.747 217.901C184.404 217.414 181.349 215.741 179.137 213.189C176.925 210.636 175.705 207.374 175.699 203.996C175.699 203.063 175.329 202.169 174.669 201.509C174.009 200.85 173.115 200.479 172.182 200.479C171.249 200.479 170.355 200.85 169.695 201.509C169.036 202.169 168.665 203.063 168.665 203.996C168.672 209.258 170.643 214.327 174.191 218.212C177.739 222.097 182.609 224.518 187.849 225.001L187.947 231.941C188.038 238.366 189.203 244.73 191.394 250.771C197.373 267.199 204.846 278.362 212.146 275.703C214.203 274.955 215.482 272.265 216.278 268.924C216.506 267.988 216.952 267.12 217.58 266.389C218.207 265.659 218.999 265.087 219.889 264.721C220.78 264.355 221.745 264.204 222.704 264.282C223.664 264.36 224.592 264.663 225.412 265.168C236.494 270.702 247.824 270.341 251.456 264.051C252.602 261.934 252.91 259.463 252.317 257.129C252.22 256.602 252.244 256.059 252.388 255.543C252.532 255.026 252.792 254.549 253.148 254.147C253.503 253.746 253.946 253.431 254.442 253.226C254.937 253.021 255.473 252.932 256.009 252.965C260.282 253.229 263.655 252.134 265.114 249.607C268.028 244.56 262.207 235.746 252.113 229.918Z" fill="#9A99EA"/>
<path d="M223.179 211.029C226.092 211.029 228.454 207.093 228.454 202.237C228.454 197.381 226.092 193.444 223.179 193.444C220.265 193.444 217.903 197.381 217.903 202.237C217.903 207.093 220.265 211.029 223.179 211.029Z" fill="#373737"/>
<path d="M202.076 211.029C204.99 211.029 207.352 207.093 207.352 202.237C207.352 197.381 204.99 193.444 202.076 193.444C199.163 193.444 196.801 197.381 196.801 202.237C196.801 207.093 199.163 211.029 202.076 211.029Z" fill="#373737"/>
<defs>
<linearGradient id="paint0_linear_117_408" x1="227" y1="243" x2="227" y2="404" gradientUnits="userSpaceOnUse">
<stop stop-color="#E5E5E5"/>
<stop offset="0.476" stop-color="#F4F4F4" stop-opacity="0.5"/>
<stop offset="1" stop-color="white" stop-opacity="0"/>
</linearGradient>
</defs>
</svg>
