<svg width="225" height="302" viewBox="0 0 225 302" fill="none" xmlns="http://www.w3.org/2000/svg">
<path d="M149.121 212.334C149.086 212.314 149.051 212.295 149.015 212.276C145.746 210.537 142.868 208.145 140.56 205.249C145.25 204.209 149.445 201.602 152.455 197.858C155.464 194.114 157.108 189.457 157.115 184.653C157.115 183.72 156.744 182.826 156.085 182.166C155.425 181.507 154.531 181.136 153.598 181.136C152.665 181.136 151.771 181.507 151.111 182.166C150.451 182.826 150.081 183.72 150.081 184.653C150.075 188.22 148.716 191.651 146.277 194.253C143.839 196.856 140.503 198.436 136.945 198.674C136.455 197.332 136.1 195.945 135.883 194.532L133.88 180.573C132.799 174.449 129.463 168.953 124.529 165.167C119.596 161.382 113.422 159.583 107.227 160.126C101.033 160.668 95.2658 163.512 91.0649 168.097C86.8639 172.683 84.5338 178.676 84.5342 184.894L84.754 200.316C81.4118 199.829 78.3561 198.157 76.1444 195.604C73.9327 193.052 72.7125 189.789 72.7064 186.412C72.7064 185.479 72.3359 184.584 71.6763 183.925C71.0167 183.265 70.1222 182.895 69.1894 182.895C68.2566 182.895 67.362 183.265 66.7025 183.925C66.0429 184.584 65.6724 185.479 65.6724 186.412C65.6795 191.673 67.65 196.743 71.1981 200.628C74.7463 204.513 79.6167 206.934 84.856 207.417L84.9544 214.356C85.0454 220.781 86.2104 227.146 88.4011 233.186C94.3801 249.614 101.854 260.777 109.153 258.118C111.211 257.371 112.489 254.681 113.286 251.339C113.514 250.404 113.96 249.535 114.587 248.805C115.215 248.075 116.006 247.503 116.897 247.137C117.787 246.771 118.752 246.62 119.712 246.698C120.671 246.775 121.599 247.079 122.42 247.583C133.502 253.117 144.832 252.757 148.463 246.467C149.609 244.35 149.917 241.879 149.325 239.545C149.228 239.018 149.252 238.475 149.396 237.958C149.539 237.442 149.799 236.964 150.155 236.563C150.511 236.162 150.953 235.847 151.449 235.642C151.945 235.437 152.481 235.348 153.016 235.381C157.289 235.645 160.662 234.549 162.121 232.022C165.035 226.975 159.215 218.162 149.121 212.334Z" fill="#9A99EA"/>
<path d="M120.186 193.446C123.1 193.446 125.462 189.509 125.462 184.653C125.462 179.797 123.1 175.861 120.186 175.861C117.273 175.861 114.911 179.797 114.911 184.653C114.911 189.509 117.273 193.446 120.186 193.446Z" fill="#373737"/>
<path d="M99.0841 193.446C101.998 193.446 104.36 189.509 104.36 184.653C104.36 179.797 101.998 175.861 99.0841 175.861C96.1705 175.861 93.8086 179.797 93.8086 184.653C93.8086 189.509 96.1705 193.446 99.0841 193.446Z" fill="#373737"/>
<path d="M113.5 302C158.511 302 195 296.627 195 290C195 283.373 158.511 278 113.5 278C68.4888 278 32 283.373 32 290C32 296.627 68.4888 302 113.5 302Z" fill="#ECEBF5"/>
<g clip-path="url(#clip0_560_120)">
<path d="M36.1942 86.2283L32.6407 75.5677L21.5415 77.4603L32.86 58.6306L47.5127 67.3986L36.1942 86.2283Z" fill="#9676FF"/>
<path d="M32.0604 74.3782L22.4046 76.0247L21.5415 77.4603L32.4669 75.5974L32.0604 74.3782Z" fill="#7B59EB"/>
<path d="M46.5601 66.8287L35.7322 84.8422L36.1942 86.2283L47.5127 67.3987L46.5601 66.8287Z" fill="#7B59EB"/>
<path d="M33.3317 63.0111L35.351 64.1566L33.888 68.4119L37.1419 65.1727L39.1539 66.3141L38.0335 70.7571L40.9484 67.3321L42.9573 68.4717L37.5287 74.4757L35.444 73.293L36.7001 68.2865L33.0352 71.9264L30.9504 70.7437L33.3317 63.0111Z" fill="white"/>
<path d="M63.238 97.9866L58.0905 87.9946L47.4126 91.5602L55.7084 71.2238L71.5338 77.6501L63.238 97.9866Z" fill="#FF78D7"/>
<path d="M57.3347 86.9076L48.045 90.0097L47.4126 91.5602L57.9233 88.0505L57.3347 86.9076Z" fill="#EB60C2"/>
<path d="M70.5046 77.2324L62.5684 96.6875L63.2378 97.9867L71.5336 77.6501L70.5046 77.2324Z" fill="#EB60C2"/>
<path d="M59.3354 75.4235L66.0414 78.0171L65.3711 79.7421L61.173 78.1183L60.674 79.4024L64.5683 80.9087L63.9281 82.5565L60.0338 81.0502L59.4151 82.6429L63.7346 84.3136L63.0236 86.1433L56.1963 83.5025L59.3354 75.4235Z" fill="white"/>
<path d="M92.5541 104.034L85.526 95.2569L75.7668 100.861L79.863 79.2886L96.6504 82.4617L92.5541 104.034Z" fill="#FFD994"/>
<path d="M84.5694 94.3408L76.0793 99.2163L75.7668 100.861L85.3732 95.3446L84.5694 94.3408Z" fill="#EBC37A"/>
<path d="M95.5588 82.2555L91.6401 102.893L92.554 104.034L96.6503 82.4617L95.5588 82.2555Z" fill="#EBC37A"/>
<path d="M83.8392 82.5085L86.4928 82.908L85.5161 89.3664L89.6578 89.9898L89.3388 92.0998L82.5435 91.0768L83.8392 82.5085Z" fill="white"/>
<path d="M121.597 104.901L113.085 97.5465L104.511 104.83L104.603 82.8738L121.689 82.9446L121.597 104.901Z" fill="#9676FF"/>
<path d="M111.977 96.8195L104.519 103.156L104.511 104.83L112.951 97.6606L111.977 96.8195Z" fill="#7B59EB"/>
<path d="M120.578 82.9399L120.49 103.944L121.597 104.901L121.689 82.9446L120.578 82.9399Z" fill="#7B59EB"/>
<path d="M114.681 90.5134L117.03 91.23C116.87 91.8877 116.62 92.4366 116.279 92.8768C115.938 93.3173 115.515 93.6489 115.011 93.8719C114.506 94.0951 113.865 94.2054 113.087 94.2029C112.143 94.1999 111.372 94.0607 110.775 93.7852C110.178 93.5097 109.663 93.0266 109.23 92.3362C108.798 91.6458 108.583 90.7629 108.587 89.6877C108.591 88.2542 108.977 87.1538 109.743 86.3863C110.51 85.6189 111.592 85.2372 112.991 85.2415C114.085 85.2449 114.944 85.4683 115.568 85.9115C116.193 86.3547 116.656 87.034 116.957 87.9492L114.586 88.4678C114.504 88.2037 114.417 88.0103 114.327 87.8878C114.178 87.6826 113.994 87.5243 113.778 87.4133C113.561 87.3024 113.318 87.2464 113.049 87.2456C112.441 87.2438 111.974 87.4864 111.649 87.9734C111.403 88.3348 111.279 88.9031 111.276 89.6785C111.273 90.6388 111.417 91.2977 111.709 91.6546C112 92.0118 112.41 92.1912 112.939 92.1928C113.452 92.1945 113.841 92.0518 114.104 91.7651C114.368 91.4779 114.56 91.0608 114.681 90.5134Z" fill="white"/>
<path d="M149.65 100.723L139.98 94.9663L132.815 103.632L129.059 81.9979L145.895 79.0887L149.65 100.723Z" fill="#FF78D7"/>
<path d="M138.762 94.4435L132.528 101.983L132.815 103.632L139.868 95.1018L138.762 94.4435Z" fill="#EB60C2"/>
<path d="M144.8 79.2778L148.393 99.9745L149.65 100.723L145.895 79.0887L144.8 79.2778Z" fill="#EB60C2"/>
<path d="M134.266 88.343C134.029 86.9483 134.234 85.7964 134.881 84.8876C135.527 83.9789 136.546 83.4068 137.936 83.1716C139.361 82.9305 140.524 83.1266 141.425 83.7595C142.326 84.3927 142.893 85.3968 143.127 86.7721C143.296 87.7706 143.267 88.6179 143.039 89.3141C142.81 90.0103 142.408 90.5897 141.832 91.0529C141.256 91.516 140.492 91.8281 139.542 91.9887C138.577 92.152 137.751 92.1339 137.066 91.9339C136.382 91.7341 135.786 91.3351 135.28 90.7372C134.774 90.1398 134.436 89.3416 134.266 88.343ZM136.914 87.9072C137.061 88.7698 137.326 89.3623 137.712 89.6849C138.097 90.0075 138.566 90.1218 139.119 90.0284C139.688 89.9322 140.096 89.6734 140.345 89.2515C140.594 88.8297 140.637 88.1409 140.475 87.1852C140.338 86.381 140.075 85.8208 139.687 85.5048C139.299 85.1888 138.827 85.0779 138.27 85.172C137.736 85.2622 137.34 85.5232 137.081 85.9548C136.822 86.386 136.766 87.0369 136.914 87.9072Z" fill="white"/>
<path d="M176.521 90.9881L165.906 87.2408L160.588 97.1435L152.642 76.6683L168.575 70.5131L176.521 90.9881Z" fill="#FFD994"/>
<path d="M164.609 86.9673L159.982 95.5822L160.588 97.1435L165.823 87.3959L164.609 86.9673Z" fill="#EBC37A"/>
<path d="M167.54 70.9132L175.141 90.5009L176.521 90.9881L168.575 70.5131L167.54 70.9132Z" fill="#EBC37A"/>
<path d="M156.431 77.5992L159.756 76.4185L162.81 80.9305L162.312 75.5111L165.635 74.3311L168.547 82.4949L166.476 83.2302L164.256 77.0044L164.881 83.7967L163.007 84.4623L159.193 78.802L161.414 85.0278L159.343 85.763L156.431 77.5992Z" fill="white"/>
<path d="M199.672 79.7283L188.847 76.6345L184.145 86.8428L174.961 66.8897L190.488 59.7754L199.672 79.7283Z" fill="#9676FF"/>
<path d="M187.536 76.4404L183.445 85.3214L184.145 86.8428L188.774 76.7943L187.536 76.4404Z" fill="#7B59EB"/>
<path d="M189.479 60.2379L198.264 79.3261L199.672 79.7283L190.488 59.7754L189.479 60.2379Z" fill="#7B59EB"/>
<path d="M180.621 67.2023L187.163 64.2211L187.934 65.9039L183.838 67.7703L184.411 69.0231L188.211 67.2919L188.946 68.8995L185.147 70.6308L185.859 72.1846L190.073 70.2642L190.89 72.0493L184.229 75.0846L180.621 67.2023Z" fill="white"/>
<path d="M224.38 57.2822C218.38 54.2354 212.584 53.5993 208.876 55.5812C208.692 55.68 208.513 55.7843 208.342 55.8939C203.971 55.0212 194.802 55.9659 176.32 66.2183C134.221 89.5728 79.9429 87.73 38.039 61.5238C37.6904 61.3058 37.3432 61.0875 36.9973 60.8699C29.3222 56.0426 22.0732 51.4828 9.0303 56.9919C8.64034 57.1566 8.27414 57.3405 7.93103 57.5408C6.10513 57.0363 3.79608 57.1091 1.16948 57.7789C0.882954 57.852 0.593126 57.9333 0.301154 58.0212C0.114424 58.0775 -0.00929321 58.2551 0.000274234 58.4496L0.000769102 58.4583C0.0139656 58.7281 0.276905 58.916 0.536216 58.8387C0.816971 58.7549 1.09872 58.6764 1.38112 58.6045C3.51532 58.0602 5.41001 57.9267 6.9629 58.1937C4.67414 59.9674 3.73257 62.5289 3.86932 64.5114C3.99963 66.3967 5.08108 67.7917 6.76281 68.243C9.1715 68.8896 11.5081 68.0045 12.5764 66.0395C13.5077 64.3274 13.4368 61.5429 10.4451 58.864C10.0289 58.4912 9.54974 58.181 9.01364 57.9336C9.12795 57.8791 9.24441 57.8266 9.36334 57.7764C21.9953 52.441 29.0612 56.8852 36.5415 61.5907C36.8882 61.8087 37.236 62.0275 37.5852 62.2459C58.5089 75.3311 82.8136 82.6119 107.872 83.3012C109.189 83.3374 110.5 83.3553 111.812 83.3553C134.977 83.3548 157.348 77.718 176.735 66.963C194.046 57.3597 202.959 56.0006 207.414 56.5949C206.155 57.7188 205.39 59.2284 205.178 61.0393C204.968 62.8352 205.669 64.3364 207.101 65.1585C208.542 65.985 210.367 65.8985 211.645 64.9429C212.493 64.3091 213.795 62.7554 212.998 59.4695C212.818 58.7274 212.207 57.3475 210.138 56.4432C209.951 56.3614 209.747 56.282 209.525 56.207C212.998 54.5131 218.376 55.1895 223.993 58.0416C224.014 58.0524 224.036 58.0633 224.057 58.0742C224.43 58.2623 224.879 58.0521 224.983 57.6484C224.984 57.6458 224.984 57.6431 224.985 57.6405C224.99 57.6217 224.995 57.603 225 57.5842C224.795 57.4868 224.589 57.388 224.38 57.2822ZM9.87471 59.498C12.4964 61.8459 12.6016 64.2065 11.8258 65.6332C10.9496 67.2443 9.00324 67.9625 6.98468 67.4202C5.652 67.0626 4.82689 65.9809 4.72148 64.4528C4.58688 62.5046 5.69752 60.0093 8.06035 58.4682C8.76604 58.7072 9.37538 59.051 9.87471 59.498ZM209.795 57.2236C211.527 57.9805 212.025 59.0813 212.168 59.6701C212.674 61.7536 212.306 63.3841 211.133 64.2612C210.141 65.0035 208.658 65.069 207.527 64.42C206.404 63.776 205.857 62.58 206.027 61.1386C206.241 59.303 207.099 57.8194 208.523 56.8013C209.018 56.9221 209.439 57.0679 209.795 57.2236Z" fill="#B9A3FF"/>
<path d="M156.049 58.199C155.416 59.2495 155.455 60.7859 155.183 61.7462L154.546 61.2862L153.522 62.8442C153.936 61.3858 153.632 58.5974 156.049 58.199ZM158.163 57.0563C158.906 57.0281 159.495 56.9799 159.965 56.8938C159.559 57.8183 158.706 58.0676 156.501 58.1542C156.34 58.1598 156.189 58.1753 156.049 58.1988C156.434 57.5591 157.065 57.0997 158.163 57.0563ZM162.236 50.951C162.403 50.8882 162.583 50.8431 162.771 50.8098C162.153 51.8367 162.108 53.3887 161.91 54.6933C161.699 56.0711 161.337 56.6436 159.965 56.894C160.094 56.5997 160.178 56.2379 160.247 55.7913C160.53 53.9412 160.503 51.5962 162.236 50.951ZM167.89 49.7326C167.844 49.9421 167.778 50.1396 167.681 50.3136C167.12 51.3169 164.542 50.5011 162.771 50.8098C163.03 50.3812 163.387 50.044 163.899 49.8533C165.008 49.4402 166.671 49.7501 167.89 49.7326ZM169.234 46.4296C169.482 46.3114 169.744 46.2428 170.012 46.2058C169.56 47.1381 169.791 48.4118 169.342 49.2157C169.119 49.6146 168.576 49.7262 167.89 49.7328C168.146 48.6042 167.878 47.0774 169.234 46.4296ZM173.91 45.2171C173.851 45.5037 173.772 45.7566 173.658 45.9442C173.159 46.7795 171.49 45.9992 170.012 46.2058C170.183 45.8503 170.453 45.5443 170.897 45.3317C171.842 44.8807 172.996 45.1322 173.91 45.2171ZM175.319 44.8461C175.077 45.255 174.554 45.2777 173.91 45.217C174.154 44.0074 173.975 42.2118 173.975 42.2118L175.002 43.1193L175.636 41.1139C175.636 41.1139 175.91 43.8608 175.319 44.8461ZM33.4766 115.072C32.8443 116.122 32.8829 117.658 32.6114 118.619L31.9742 118.159L30.9504 119.717C31.3637 118.258 31.0601 115.47 33.4766 115.072ZM35.5913 113.929C36.3344 113.901 36.9232 113.853 37.393 113.767C36.9868 114.691 36.1342 114.94 33.9286 115.027C33.7681 115.033 33.6174 115.048 33.4766 115.072C33.8622 114.432 34.4934 113.972 35.5913 113.929Z" fill="#FFC4EE"/>
<path d="M39.6639 107.824C39.8305 107.761 40.011 107.716 40.1992 107.683C39.5808 108.709 39.5361 110.261 39.3373 111.566C39.1265 112.944 38.7646 113.516 37.3928 113.767C37.5221 113.472 37.6061 113.111 37.6744 112.664C37.9576 110.814 37.9307 108.469 39.6639 107.824ZM45.3181 106.605C45.2721 106.815 45.2063 107.012 45.1088 107.186C44.548 108.19 41.9695 107.374 40.1992 107.683C40.4577 107.254 40.815 106.917 41.3267 106.726C42.4354 106.313 44.0993 106.623 45.3181 106.605ZM46.6624 103.302C46.9103 103.184 47.1721 103.115 47.4396 103.078C46.988 104.011 47.2193 105.284 46.7697 106.088C46.5471 106.487 46.0039 106.599 45.3181 106.605C45.574 105.477 45.3056 103.95 46.6624 103.302Z" fill="#FFC4EE"/>
<path d="M51.3374 102.09C51.2793 102.376 51.1995 102.629 51.0861 102.817C50.5871 103.652 48.9181 102.872 47.4395 103.078C47.6107 102.723 47.8807 102.417 48.3249 102.204C49.2691 101.753 50.424 102.005 51.3374 102.09ZM52.7471 101.719C52.5044 102.128 51.9814 102.15 51.3374 102.09C51.5815 100.88 51.4029 99.0846 51.4029 99.0846L52.4295 99.9921L53.0638 97.9866C53.0636 97.9866 53.3376 100.733 52.7471 101.719ZM103.077 55.2922C101.944 54.8186 100.426 55.0768 99.4346 54.9464L99.7995 54.2514L98.1073 53.4639C99.6131 53.6627 102.335 52.9634 103.077 55.2922ZM104.514 57.2167C104.648 57.9465 104.78 58.5209 104.933 58.9725C103.958 58.704 103.588 57.8979 103.186 55.7322C103.158 55.5745 103.121 55.428 103.077 55.2924C103.767 55.5814 104.313 56.1387 104.514 57.2167ZM111.153 60.3629C111.239 60.5184 111.31 60.6901 111.37 60.8713C110.263 60.4078 108.717 60.5862 107.395 60.5768C105.998 60.5661 105.378 60.2909 104.933 58.9723C105.243 59.0579 105.614 59.089 106.067 59.0923C107.943 59.1068 110.265 58.7439 111.153 60.3629ZM113.172 65.7714C112.958 65.7559 112.752 65.7194 112.566 65.6481C111.491 65.2382 111.93 62.5752 111.37 60.8714C111.832 61.0651 112.218 61.3698 112.48 61.8476C113.049 62.883 112.98 64.5704 113.172 65.7714ZM116.641 66.6253C116.794 66.8532 116.9 67.1017 116.975 67.3606C115.985 67.0482 114.755 67.4592 113.893 67.1305C113.466 66.9678 113.277 66.4474 113.172 65.7712C114.328 65.8623 115.804 65.3784 116.641 66.6253ZM118.514 71.0677C118.222 71.0514 117.959 71.0089 117.757 70.9239C116.857 70.5507 117.392 68.791 116.975 67.3605C117.352 67.4785 117.694 67.7013 117.969 68.1096C118.551 68.9773 118.468 70.1538 118.514 71.0677ZM119.084 72.4066C118.644 72.2257 118.547 71.7122 118.514 71.0677C119.749 71.1355 121.505 70.7015 121.505 70.7015L120.752 71.8454L122.832 72.1841C122.832 72.1842 120.146 72.8485 119.084 72.4066Z" fill="#FFC4EE"/>
<path d="M68.1215 100.136L69.1523 99.4369L69.5234 100.424C69.5234 100.424 69.6376 98.7402 70.2553 97.8221C70.7604 97.0713 71.5336 96.2074 71.5336 96.2074L70.3893 96.3926L70.4718 95.5492C69.2204 96.5468 68.4857 98.1312 68.1215 100.136ZM94.1453 42.2213L95.1761 41.522L95.5472 42.5093C95.5472 42.5093 95.6614 40.8253 96.2791 39.9072C96.7842 39.1564 97.5574 38.2925 97.5574 38.2925L96.4132 38.4777L96.4957 37.6343C95.244 38.6317 94.5095 40.2162 94.1453 42.2213ZM18.0059 44.1026L19.1729 44.5399L18.5783 45.4117C18.5783 45.4117 20.0233 44.534 21.1313 44.5083C22.0374 44.4873 23.1906 44.6196 23.1906 44.6196L22.3793 43.7934L23.1175 43.3745C21.579 42.9293 19.858 43.2437 18.0059 44.1026ZM148.578 65.4203L149.407 66.3492L148.474 66.8446C148.474 66.8446 150.163 66.7388 151.155 67.2305C151.967 67.6326 152.926 68.2854 152.926 68.2854L152.593 67.1774L153.442 67.1494C152.288 66.0409 150.618 65.5202 148.578 65.4203ZM177.414 29.208L178.243 30.1369L177.31 30.6323C177.31 30.6323 178.998 30.5265 179.991 31.0183C180.802 31.4203 181.761 32.0731 181.761 32.0731L181.429 30.9651L182.278 30.9371C181.124 29.8288 179.454 29.3079 177.414 29.208ZM201.888 88.6282L203.13 88.521L202.97 89.5633C202.97 89.5633 203.895 88.1501 204.884 87.6506C205.692 87.2421 206.79 86.8657 206.79 86.8657L205.701 86.469L206.187 85.7735C204.606 86.0332 203.189 87.0569 201.888 88.6282ZM173.761 100.582L174.229 101.735L173.183 101.889C173.183 101.889 174.809 102.356 175.578 103.152C176.206 103.803 176.889 104.74 176.889 104.74L176.95 103.585L177.759 103.843C177.046 102.412 175.648 101.361 173.761 100.582ZM137.585 107.751L138.052 108.904L137.006 109.058C137.006 109.058 138.632 109.525 139.401 110.321C140.03 110.972 140.713 111.909 140.713 111.909L140.773 110.753L141.582 111.012C140.869 109.581 139.472 108.53 137.585 107.751Z" fill="#C5B3FF"/>
<path d="M66.349 59.9956L63.5967 58.1442L67.4167 56.9409L66.349 59.9956Z" fill="#FF9CE2"/>
<path d="M132.355 45.0703L129.603 43.2191L133.423 42.0156L132.355 45.0703Z" fill="#FF9CE2"/>
<path d="M133.837 64.6169L132.63 67.7017L130.616 64.2465L133.837 64.6169Z" fill="#FF9CE2"/>
<path d="M116.684 110.4L115.477 113.485L113.463 110.029L116.684 110.4Z" fill="#FF9CE2"/>
<path d="M140.734 125.602L143.758 126.967L140.194 128.792L140.734 125.602Z" fill="#FF9CE2"/>
<path d="M187.796 114.938L184.531 114.344L187.546 111.713L187.796 114.938Z" fill="#FF9CE2"/>
<path d="M66.0575 112.722L64.8499 115.807L62.8364 112.352L66.0575 112.722Z" fill="#FF9CE2"/>
<path d="M14.6447 78.6899L13.437 81.7747L11.4236 78.3195L14.6447 78.6899Z" fill="#FF9CE2"/>
<path d="M177.31 55.444L176.102 58.5288L174.089 55.0735L177.31 55.444Z" fill="#FF9CE2"/>
<path d="M210.96 45.705L214.088 46.8128L210.69 48.9288L210.96 45.705Z" fill="#FF9CE2"/>
<path d="M212.937 76.6202L210.156 74.8128L213.956 73.549L212.937 76.6202Z" fill="#FF9CE2"/>
<path d="M39.7258 93.1449C39.7258 92.6224 40.1504 92.1987 40.6742 92.1987C41.1979 92.1987 41.6225 92.6224 41.6225 93.1449C41.6225 93.6675 41.1979 94.0911 40.6742 94.0911C40.1504 94.0911 39.7258 93.6675 39.7258 93.1449ZM85.1522 52.9255C85.1522 52.403 85.5768 51.9793 86.1006 51.9793C86.6243 51.9793 87.0489 52.403 87.0489 52.9255C87.0489 53.4481 86.6243 53.8717 86.1006 53.8717C85.5768 53.8719 85.1522 53.4482 85.1522 52.9255ZM100.483 115.971C100.483 115.449 100.908 115.025 101.431 115.025C101.955 115.025 102.38 115.449 102.38 115.971C102.38 116.494 101.955 116.918 101.431 116.918C100.908 116.918 100.483 116.494 100.483 115.971ZM140.571 70.5129C140.571 69.9903 140.996 69.5667 141.519 69.5667C142.043 69.5667 142.468 69.9903 142.468 70.5129C142.468 71.0354 142.043 71.4591 141.519 71.4591C140.996 71.4593 140.571 71.0356 140.571 70.5129ZM214.53 85.763C214.53 85.2405 214.954 84.8168 215.478 84.8168C216.002 84.8168 216.427 85.2405 216.427 85.763C216.427 86.2856 216.002 86.7092 215.478 86.7092C214.954 86.7092 214.53 86.2856 214.53 85.763ZM130.631 116.266C130.631 115.744 131.056 115.32 131.58 115.32C132.104 115.32 132.528 115.744 132.528 116.266C132.528 116.789 132.104 117.212 131.58 117.212C131.056 117.212 130.631 116.789 130.631 116.266ZM166.591 122.211C166.591 121.688 167.016 121.265 167.54 121.265C168.063 121.265 168.488 121.688 168.488 122.211C168.488 122.734 168.063 123.157 167.54 123.157C167.016 123.157 166.591 122.734 166.591 122.211ZM201.02 37.2975C201.02 36.775 201.444 36.3513 201.968 36.3513C202.492 36.3513 202.916 36.775 202.916 37.2975C202.916 37.8201 202.492 38.2437 201.968 38.2437C201.444 38.2437 201.02 37.8201 201.02 37.2975ZM161.823 41.1139C161.823 40.5913 162.248 40.1677 162.771 40.1677C163.295 40.1677 163.72 40.5913 163.72 41.1139C163.72 41.6364 163.295 42.0601 162.771 42.0601C162.248 42.0601 161.823 41.6364 161.823 41.1139ZM140.571 49.3875C140.571 48.8649 140.996 48.4413 141.519 48.4413C142.043 48.4413 142.468 48.8649 142.468 49.3875C142.468 49.91 142.043 50.3337 141.519 50.3337C140.996 50.3337 140.571 49.91 140.571 49.3875ZM50.412 121.265C50.412 120.742 50.8366 120.319 51.3603 120.319C51.8841 120.319 52.3087 120.742 52.3087 121.265C52.3087 121.787 51.8841 122.211 51.3603 122.211C50.8366 122.211 50.412 121.787 50.412 121.265ZM98.5864 68.7433C98.5864 68.2207 99.011 67.7971 99.5348 67.7971C100.058 67.7971 100.483 68.2207 100.483 68.7433C100.483 69.2658 100.058 69.6895 99.5348 69.6895C99.011 69.6896 98.5864 69.266 98.5864 68.7433Z" fill="#FFD994"/>
<path d="M22.7428 98.3445L23.2196 101.858L19.9731 100.525L19.8635 97.6011L22.7428 98.3445Z" fill="#C5B3FF"/>
<path d="M83.4492 65.9429L83.9261 69.456L80.6796 68.1232L80.5701 65.1993L83.4492 65.9429Z" fill="#C5B3FF"/>
<path d="M161.167 115.159L157.698 115.924L158.76 112.586L161.672 112.235L161.167 115.159Z" fill="#C5B3FF"/>
<path d="M216.641 95.3124L218.211 98.493L214.708 98.2568L213.675 95.5188L216.641 95.3124Z" fill="#C5B3FF"/>
<path d="M114.075 123.638L114.383 127.17L111.204 125.684L111.234 122.758L114.075 123.638Z" fill="#C5B3FF"/>
<path d="M192.377 40.9515L192.685 44.4831L189.506 42.9975L189.536 40.0717L192.377 40.9515Z" fill="#C5B3FF"/>
<path d="M116.965 53.1963L113.438 53.6251L114.817 50.404L117.749 50.3337L116.965 53.1963Z" fill="#C5B3FF"/>
<path d="M57.3972 39.7293L57.8741 43.2423L54.6276 41.9095L54.5181 38.9857L57.3972 39.7293Z" fill="#C5B3FF"/>
<path d="M32.1039 38.5402C32.1014 38.5478 32.0989 38.5554 32.0964 38.5629C41.5783 41.7748 35.53 44.2891 40.7842 51.9664C40.7629 51.474 40.7418 50.9816 40.7207 50.4891C41.0841 50.8616 41.4475 51.2339 41.8109 51.6062C38.522 44.2057 41.464 39.73 32.3983 37.6355C32.3958 37.6431 32.3934 37.6506 32.3909 37.6582C32.7274 37.8927 33.0637 38.1276 33.4001 38.3623C32.9682 38.4215 32.536 38.4808 32.1039 38.5402ZM75.72 112.813C75.7176 112.821 75.7151 112.828 75.7126 112.836C85.1945 116.048 79.1462 118.562 84.4004 126.239C84.3791 125.747 84.358 125.254 84.3368 124.762C84.7002 125.134 85.0636 125.507 85.427 125.879C82.1381 118.479 85.0801 114.003 76.0145 111.908C76.012 111.916 76.0095 111.923 76.0071 111.931C76.3436 112.166 76.6799 112.4 77.0163 112.635C76.5842 112.695 76.1522 112.754 75.72 112.813ZM183.935 94.4877C183.936 94.4956 183.937 94.5035 183.938 94.5114C193.874 93.2686 189.534 98.1663 197.621 102.783C197.386 102.349 197.152 101.915 196.917 101.482C197.407 101.658 197.897 101.835 198.387 102.011C192.189 96.7874 192.876 91.4791 183.804 93.5456C183.805 93.5535 183.806 93.5614 183.807 93.5693C184.213 93.6337 184.618 93.6983 185.023 93.7629C184.661 94.0045 184.298 94.2461 183.935 94.4877Z" fill="#FFE0A8"/>
</g>
<defs>
<clipPath id="clip0_560_120">
<rect width="225" height="158" fill="white"/>
</clipPath>
</defs>
</svg>
