<svg width="69" height="90" viewBox="0 0 69 90" fill="none" xmlns="http://www.w3.org/2000/svg">
<path d="M62.3562 79.9907C61.9818 83.9597 56.6898 85.6571 53.6944 82.7865C51.8472 81.0142 48.8268 80.8644 46.8048 82.462L41.2882 86.7804C39.0666 88.5278 35.6967 88.1534 33.9743 85.9567L31.1037 82.3122C29.3064 80.0407 25.7618 79.7411 23.5651 81.6882L15.6271 88.7025C14.6786 89.5263 13.4305 90.0005 12.1325 90.0005H11.8828C9.3367 90.0005 7.21492 88.2532 6.89041 85.9317C4.96833 71.928 4.51901 54.3047 5.26787 38.4288C5.49253 33.9357 6.89042 29.7421 9.2119 26.0976C9.4116 25.7731 9.63625 25.4486 9.86091 25.1241C12.6567 21.1301 16.6007 17.8601 21.2187 15.7383C22.7164 14.7152 25.2126 14.2164 25.2126 14.2164C25.2126 14.2164 27.8336 12.2192 36.6952 12.2188C43.1853 12.2188 43.0605 13.092 48.3026 15.7383C56.9145 21.2054 56.4152 22.7776 57.239 23.202C59.6104 25.9977 61.4077 29.2428 62.4061 32.7874C62.5309 33.2118 62.6308 33.6611 62.7556 34.0854C63.0801 35.5582 63.3048 37.0559 63.3797 38.6036C63.9039 51.4091 63.6542 66.3115 62.3562 79.9907Z" fill="#9A99EA"/>
<path d="M32.951 33.0611C32.951 39.2766 29.2566 44.294 24.7135 44.294C23.6651 44.294 22.6666 44.0194 21.743 43.5452C26.2861 43.5202 29.9555 38.6775 29.9555 32.6866C29.9555 27.3697 27.0599 22.9514 23.2158 22.0029C23.69 21.8781 24.1893 21.8281 24.7135 21.8281C29.2566 21.8281 32.951 26.8705 32.951 33.0611Z" fill="#9A99EA"/>
<path d="M29.9553 32.6857C29.9553 38.6766 26.2859 43.5193 21.7428 43.5442C18.6475 41.9217 16.4758 37.8279 16.4758 33.0602C16.4758 27.5435 19.3714 22.9755 23.2155 22.002C27.0597 22.9505 29.9553 27.3688 29.9553 32.6857Z" fill="#11151A"/>
<path d="M54.1441 32.4382C54.1441 37.8799 50.899 42.2982 46.9051 42.2982C46.0813 42.2982 45.2825 42.0985 44.5586 41.774C48.253 41.3496 51.1486 37.4056 51.1486 32.563C51.1486 27.5456 48.0284 23.4768 44.1343 23.327C44.983 22.8277 45.9316 22.5781 46.9051 22.5781C50.899 22.5781 54.1441 26.9964 54.1441 32.4382Z" fill="#9A99EA"/>
<path d="M51.1476 32.5622C51.1476 37.3798 48.252 41.3488 44.5576 41.7732C41.7119 40.4502 39.69 36.7807 39.69 32.4373C39.69 28.3436 41.5372 24.8239 44.1333 23.3262C48.0273 23.4759 51.1476 27.5697 51.1476 32.5622Z" fill="#11151A"/>
<path d="M17.9297 43.4012C18.3989 42.105 16.7827 40.3313 14.3198 39.4397C11.8568 38.5481 9.4798 38.8761 9.01053 40.1724C8.54125 41.4687 10.1574 43.2423 12.6204 44.134C15.0833 45.0256 17.4604 44.6975 17.9297 43.4012Z" fill="#9A99EA"/>
<path d="M56.5143 44.6563C58.9773 43.7649 60.5936 41.9913 60.1244 40.695C59.6552 39.3987 57.2782 39.0705 54.8152 39.962C52.3522 40.8535 50.7359 42.627 51.2051 43.9234C51.6743 45.2197 54.0513 45.5478 56.5143 44.6563Z" fill="#9A99EA"/>
<path d="M1.73362 32.6747L3.91644 33.3403C3.8846 33.7237 3.85766 34.1085 3.85766 34.5C3.85766 42.1717 10.0995 48.4135 17.7717 48.4135C25.4439 48.4135 31.6858 42.1717 31.6858 34.5C31.6858 32.637 31.3116 30.8614 30.6444 29.236C31.7888 28.5127 33.113 28.1194 34.5 28.1194C35.8866 28.1194 37.211 28.5126 38.3556 29.236C37.6884 30.8613 37.3142 32.637 37.3142 34.5C37.3142 42.1717 43.556 48.4135 51.2283 48.4135C58.9005 48.4135 65.1423 42.1717 65.1423 34.5C65.1423 34.1085 65.1155 33.7236 65.0836 33.3402L67.2664 32.6747C67.8025 32.5112 68.1047 31.9444 67.9412 31.4083C67.7777 30.8717 67.2094 30.569 66.6748 30.7335L64.7606 31.3171C63.3156 25.1762 57.8039 20.5859 51.2283 20.5859C46.1427 20.5859 41.6986 23.3371 39.2712 27.4207C37.8439 26.5597 36.21 26.09 34.5 26.09C32.7901 26.09 31.1561 26.5596 29.7287 27.4206C27.3014 23.337 22.8572 20.5859 17.7717 20.5859C11.1961 20.5859 5.68437 25.1761 4.23935 31.3171L2.3252 30.7335C1.78762 30.5685 1.22181 30.8717 1.0588 31.4083C0.895296 31.9444 1.19753 32.5112 1.73362 32.6747ZM40.0572 30.4834C40.1499 30.5104 40.2432 30.5383 40.339 30.5383C40.5986 30.5383 40.8583 30.4392 41.0564 30.241C41.4528 29.8446 41.4528 29.2025 41.0564 28.8061C41.0036 28.7533 40.9455 28.708 40.8916 28.6566C42.9359 25.0551 46.7997 22.6153 51.2283 22.6153C57.7813 22.6153 63.1129 27.947 63.1129 34.5C63.1129 41.053 57.7813 46.3841 51.2283 46.3841C44.6753 46.3841 39.3436 41.053 39.3436 34.5C39.3436 33.0888 39.6037 31.7403 40.0572 30.4834ZM17.7717 22.6153C22.2003 22.6153 26.0641 25.0551 28.1084 28.6566C28.0545 28.708 27.9964 28.7533 27.9436 28.8061C27.5472 29.2025 27.5472 29.8451 27.9436 30.241C28.2149 30.5123 28.5988 30.5836 28.9428 30.4834C29.3962 31.7403 29.6564 33.0888 29.6564 34.5C29.6564 41.053 24.3247 46.3841 17.7717 46.3841C11.2187 46.3841 5.88707 41.053 5.88707 34.5C5.88707 27.947 11.2187 22.6153 17.7717 22.6153Z" fill="#D4D4D7"/>
</svg>
