<svg xmlns="http://www.w3.org/2000/svg" width="24" height="24" fill="none" viewBox="0 0 24 24" id="success"><path fill="#FFC44D" d="M3 2.75C2.0335 2.75 1.25 3.5335 1.25 4.5V14.2C1.25 15.1665 2.0335 15.95 3 15.95H19C19.9665 15.95 20.75 15.1665 20.75 14.2V4.5C20.75 3.5335 19.9665 2.75 19 2.75H3Z"></path><path fill="#FFD071" fill-rule="evenodd" d="M20.6883 4.0382C20.4857 3.29577 19.8066 2.75 18.9999 2.75H2.99991C2.19331 2.75 1.51416 3.2957 1.31152 4.03805L2.00259 4.55188C2.01047 4.55774 2.01847 4.56345 2.02658 4.56899L10.5766 10.419C10.8319 10.5937 11.1683 10.5937 11.4236 10.419L19.9736 4.56899C19.9817 4.56343 19.9897 4.55771 19.9977 4.55184L20.6883 4.0382Z" clip-rule="evenodd"></path><path fill="#ECEFF1" d="M17 9.75C13.8244 9.75 11.25 12.3244 11.25 15.5C11.25 18.6756 13.8244 21.25 17 21.25C20.1756 21.25 22.75 18.6756 22.75 15.5C22.75 12.3244 20.1756 9.75 17 9.75Z"></path><path fill="#8BC94D" fill-rule="evenodd" d="M19.436 12.8897C19.773 13.1305 19.8511 13.5989 19.6103 13.9359L17.1103 17.4359C16.993 17.6002 16.8143 17.7103 16.6147 17.7412C16.4152 17.7721 16.2116 17.7212 16.05 17.6L14.05 16.1C13.7187 15.8515 13.6515 15.3814 13.9 15.05C14.1486 14.7186 14.6187 14.6515 14.95 14.9L16.3359 15.9394L18.3897 13.0641C18.6305 12.727 19.0989 12.6489 19.436 12.8897Z" clip-rule="evenodd"></path></svg>