<svg width="1440" height="520" viewBox="0 0 1440 520" fill="none" xmlns="http://www.w3.org/2000/svg">
<line x1="185" y1="100.5" x2="1255" y2="100.5" stroke="white" stroke-opacity="0.05"/>
<line x1="185" y1="145.5" x2="1255" y2="145.5" stroke="white" stroke-opacity="0.05"/>
<line x1="185" y1="191.5" x2="1255" y2="191.5" stroke="white" stroke-opacity="0.05"/>
<line x1="185" y1="236.5" x2="1255" y2="236.5" stroke="white" stroke-opacity="0.05"/>
<line x1="185" y1="282.5" x2="1255" y2="282.5" stroke="white" stroke-opacity="0.05"/>
<line x1="185" y1="327.5" x2="1255" y2="327.5" stroke="white" stroke-opacity="0.05"/>
<line x1="185" y1="373.5" x2="1255" y2="373.5" stroke="white" stroke-opacity="0.05"/>
<line x1="185" y1="418.5" x2="1255" y2="418.5" stroke="white" stroke-opacity="0.05"/>
<line x1="209.938" y1="445" x2="209.938" y2="75" stroke="white" stroke-opacity="0.05"/>
<line x1="254.455" y1="445" x2="254.455" y2="75" stroke="white" stroke-opacity="0.05"/>
<line x1="298.972" y1="445" x2="298.972" y2="75" stroke="white" stroke-opacity="0.05"/>
<line x1="343.49" y1="445" x2="343.49" y2="75" stroke="white" stroke-opacity="0.05"/>
<line x1="388.007" y1="445" x2="388.007" y2="75" stroke="white" stroke-opacity="0.05"/>
<line x1="432.524" y1="445" x2="432.524" y2="75" stroke="white" stroke-opacity="0.05"/>
<line x1="477.041" y1="445" x2="477.041" y2="75" stroke="white" stroke-opacity="0.05"/>
<line x1="521.558" y1="445" x2="521.558" y2="75" stroke="white" stroke-opacity="0.05"/>
<line x1="563.69" y1="445" x2="563.69" y2="75" stroke="white" stroke-opacity="0.05"/>
<line x1="608.207" y1="445" x2="608.207" y2="75" stroke="white" stroke-opacity="0.05"/>
<line x1="652.724" y1="445" x2="652.724" y2="75" stroke="white" stroke-opacity="0.05"/>
<line x1="697.241" y1="445" x2="697.241" y2="75" stroke="white" stroke-opacity="0.05"/>
<line x1="741.759" y1="445" x2="741.759" y2="75" stroke="white" stroke-opacity="0.05"/>
<line x1="786.276" y1="445" x2="786.276" y2="75" stroke="white" stroke-opacity="0.05"/>
<line x1="830.793" y1="445" x2="830.793" y2="75" stroke="white" stroke-opacity="0.05"/>
<line x1="875.31" y1="445" x2="875.31" y2="75" stroke="white" stroke-opacity="0.05"/>
<line x1="919.827" y1="445" x2="919.827" y2="75" stroke="white" stroke-opacity="0.05"/>
<line x1="964.344" y1="445" x2="964.344" y2="75" stroke="white" stroke-opacity="0.05"/>
<line x1="1008.86" y1="445" x2="1008.86" y2="75" stroke="white" stroke-opacity="0.05"/>
<line x1="1053.38" y1="445" x2="1053.38" y2="75" stroke="white" stroke-opacity="0.05"/>
<line x1="1097.9" y1="445" x2="1097.9" y2="75" stroke="white" stroke-opacity="0.05"/>
<line x1="1142.41" y1="445" x2="1142.41" y2="75" stroke="white" stroke-opacity="0.05"/>
<line x1="1186.93" y1="445" x2="1186.93" y2="75" stroke="white" stroke-opacity="0.05"/>
<line x1="1231.45" y1="445" x2="1231.45" y2="75" stroke="white" stroke-opacity="0.05"/>
</svg>
