<svg xmlns="http://www.w3.org/2000/svg" viewBox="0 0 270 270" id="SendMessage"><path d="M255.693 196.94c11.466-8.336 8.426-26.86 8.05-41.603-.28-10.996-.56-21.99-.845-32.986-.79-30.439 3.512-57.365-32.532-55.516-75.042 3.851-105.585-5.515-125.816 10.3-7.473 5.842-7.03 15.175-7.62 23.894-1.378 20.365-1.158 50.843-.117 68.999.439 7.66 1.548 15.816 7.406 21.176 2.657 5.296 6.925 9.307 13.844 10.615 7.232 1.36 92.195 1.87 111.057 1.02 8.022-.363 18.598-.801 25.661-5.282a1.68 1.68 0 0 0 .912-.616zM96.86 138.929c-.108-13.887.124-27.742 1.224-41.642.418-5.281.298-11.682 3.593-16.128 13.761-18.573 55.41-10.046 108.137-11.742 15.906-.51 41.16-6.305 48.11 12.432-9.537-13.643-25.494-9.394-59.534-9.047-19.242.196-38.517.343-57.758.194-12.858-.1-33.85.243-38.996 15.298-2.824 8.261-2.234 60.823-1.996 69.65.253 9.34-.215 22.524 4.021 32.086-7.288-7.976-6.545-18.231-6.8-51.1zm157.149-55.683c-43.43 46.52-49.194 63.869-71.857 63.295-17.426-.44-33.357-12.243-45.985-23.2-21.087-18.3-23.621-27.05-31.314-33.085 4.706-13.842 24.126-13.768 36.998-13.558 14.996.245 59.24-.032 74.098-.495 14.034-.439 29.797-3.335 38.06 7.043zM114.236 197.644c-12.928-8.014-11.176-30.545-11.448-47.448-.193-12.051-.574-44.764 1.29-56.728 3.55 6.513 19.262 22.905 25.168 28.363 11.544 10.668 26.303 22.065 41.503 26.394-4.204 3.027-7.888 7.174-11.654 10.6-39.257 35.699-44.526 37.331-44.86 38.819zm114.724 2.271c-24.849 2.05-91.144.607-110.483-.39-.318-.107-.96-.26-2.258-.834 12.342-9.72 50.715-42.455 56.181-50.024 8.459 2.116 17.269 2.041 25.461-1.626 8.06 8.749 17.315 16.687 25.891 24.91 8.743 8.382 17.599 16.662 27.458 23.715-6.586 3.337-15.082 3.658-22.25 4.25zm-28.84-53.979c9.776-5.249 16.41-14.536 23.539-22.762 10.676-12.322 22.904-24.155 31.706-37.974 4.442 7.454 3.12 19.709 3.512 34.798 1.388 53.509 3.882 66.437-4.723 73.746-25.346-19.603-39.132-38.3-54.035-47.808z" fill="#e8b140" class="color000000 svgShape"></path><path d="M246.756 124.522c-.161-.295-.539-.073-.5.211 1.11 8.03.537 18.051 3.787 25.545.218.503.93.264.895-.25-.342-5.098-.93-10.216-1.387-15.31-.33-3.676-1.022-6.943-2.795-10.196zm-80.677 68.563c-8.41.12-17.045-.475-25.42.476-1.041.117 7.405 2.951 25.451-.09.215-.036.191-.389-.03-.386zM141.54 80.16c-13.376-2.733-26.373 6.97-25.053 6.425 4.032-1.658 7.82-3.626 12.106-4.617 4.27-.989 8.557-.788 12.875-1.27.28-.032.4-.471.072-.538zm59.326 53.276c-.41.608 9.067-8.163 16.233-17.94 1.842-2.511-7.893 5.653-16.233 17.94zM88.825 94.09c-8.708-1.378-17.808-1.293-26.603-1.83-8.752-.536-18.012-2.126-26.754-1.356-1.685.149-1.8 2.37-.248 2.857 8.358 2.617 17.938 2.719 26.644 3.273 8.884.564 18.133 1.301 26.992.194 1.82-.227 1.718-2.86-.031-3.138zm-.196 43.142c-13.257 3.871-39.753 4.52-53.571 6.188-1.062.128-.903 1.716.102 1.818 9.299.937 18.774.28 28.047-.658 8.654-.876 18.692-1.256 26.231-5.937.846-.525.008-1.649-.809-1.41zm-82.554 29.1c-.6.09-.619 1.1-.02 1.206 13.769 2.456 28.854.475 42.674-.697 7.462-.633 14.913-1.404 22.373-2.056 7.168-.626 14.489-.738 21.568-2.064 1.615-.302 1.911-2.908.054-3.06-15.395-1.265-24.628 1.754-62.977 4.916-7.851.647-15.88.583-23.672 1.755zm83.579-49.094c-5.915-1.018-12.22-.032-18.196.066-6.614.108-13.54-.415-20.088.575-.92.14-.92 1.378-.042 1.588 6.375 1.528 13.464 1.285 19.986 1.213 6.013-.067 12.592.375 18.39-1.403.96-.294 1.026-1.854-.05-2.04zm-20.428 69.025c6.013-.066 12.591.375 18.39-1.403.959-.294 1.025-1.854-.05-2.04-5.915-1.017-12.22-.03-18.196.067-6.614.108-13.541-.415-20.089.576-.92.139-.92 1.377-.042 1.588 6.376 1.527 13.464 1.284 19.987 1.212z" fill="#e8b140" class="color000000 svgShape"></path></svg>