<svg width="24" height="24" viewBox="0 0 24 24" fill="none" xmlns="http://www.w3.org/2000/svg">
<circle cx="12" cy="12" r="12" fill="white"/>
<path d="M11.9911 4.00007C11.8399 4.00243 11.6958 4.06469 11.5904 4.17318C11.4851 4.28166 11.4271 4.42751 11.4292 4.57872V6.29127C11.4281 6.36691 11.4421 6.44201 11.4703 6.51221C11.4985 6.5824 11.5404 6.64629 11.5935 6.70017C11.6466 6.75404 11.7099 6.79681 11.7797 6.82601C11.8495 6.85521 11.9243 6.87024 12 6.87024C12.0757 6.87024 12.1505 6.85521 12.2203 6.82601C12.2901 6.79681 12.3534 6.75404 12.4065 6.70017C12.4596 6.64629 12.5015 6.5824 12.5297 6.51221C12.5579 6.44201 12.5719 6.36691 12.5708 6.29127V4.57872C12.5719 4.50235 12.5576 4.42654 12.5288 4.35579C12.5 4.28504 12.4574 4.22078 12.4033 4.16683C12.3492 4.11287 12.2849 4.07031 12.2141 4.04166C12.1433 4.01302 12.0675 3.99888 11.9911 4.00007ZM6.74642 6.17643C6.63295 6.17668 6.52213 6.21073 6.42811 6.27425C6.33409 6.33776 6.26112 6.42785 6.21853 6.53302C6.17593 6.63819 6.16564 6.75366 6.18897 6.86471C6.2123 6.97575 6.26819 7.07732 6.3495 7.15646L7.56032 8.36728C7.61292 8.42206 7.67593 8.4658 7.74564 8.49593C7.81536 8.52606 7.89039 8.54198 7.96633 8.54276C8.04228 8.54353 8.11761 8.52914 8.18793 8.50043C8.25824 8.47172 8.32212 8.42927 8.37583 8.37557C8.42953 8.32187 8.47198 8.25799 8.50069 8.18767C8.52939 8.11736 8.54378 8.04202 8.54301 7.96608C8.54224 7.89013 8.52632 7.8151 8.49619 7.74539C8.46606 7.67567 8.42232 7.61267 8.36754 7.56006L7.15671 6.34924C7.10339 6.29442 7.03959 6.25088 6.9691 6.22119C6.89862 6.19151 6.82289 6.17628 6.74642 6.17643V6.17643ZM17.2357 6.17643C17.0874 6.18085 16.9467 6.24283 16.8433 6.34924L15.6325 7.56006C15.5777 7.61267 15.5339 7.67567 15.5038 7.74539C15.4737 7.8151 15.4578 7.89013 15.457 7.96607C15.4562 8.04202 15.4706 8.11736 15.4993 8.18767C15.528 8.25798 15.5705 8.32186 15.6242 8.37557C15.6779 8.42927 15.7418 8.47172 15.8121 8.50043C15.8824 8.52914 15.9577 8.54352 16.0337 8.54275C16.1096 8.54198 16.1846 8.52606 16.2544 8.49593C16.3241 8.4658 16.3871 8.42206 16.4397 8.36728L17.6505 7.15646C17.733 7.07627 17.7893 6.97304 17.8121 6.86029C17.835 6.74753 17.8232 6.63052 17.7783 6.52458C17.7335 6.41864 17.6577 6.32871 17.5609 6.26659C17.4641 6.20446 17.3507 6.17304 17.2357 6.17643ZM12 8.00381C10.9402 8.00381 9.92383 8.42481 9.17445 9.17419C8.42506 9.92358 8.00407 10.94 8.00407 11.9997C8.00407 13.0595 8.42506 14.0759 9.17445 14.8253C9.92383 15.5747 10.9402 15.9957 12 15.9957C13.0598 15.9957 14.0762 15.5747 14.8256 14.8253C15.5749 14.0759 15.9959 13.0595 15.9959 11.9997C15.9959 10.94 15.5749 9.92358 14.8256 9.17419C14.0762 8.42481 13.0598 8.00381 12 8.00381V8.00381ZM4.57898 11.4289C4.50333 11.4278 4.42823 11.4418 4.35804 11.47C4.28784 11.4982 4.22395 11.5401 4.17008 11.5932C4.11621 11.6463 4.07343 11.7096 4.04423 11.7794C4.01504 11.8492 4 11.9241 4 11.9997C4 12.0754 4.01504 12.1503 4.04423 12.2201C4.07343 12.2899 4.11621 12.3532 4.17008 12.4063C4.22395 12.4594 4.28784 12.5013 4.35804 12.5295C4.42823 12.5577 4.50333 12.5717 4.57898 12.5706H6.29152C6.36717 12.5717 6.44227 12.5577 6.51246 12.5295C6.58266 12.5013 6.64655 12.4594 6.70042 12.4063C6.75429 12.3532 6.79707 12.2899 6.82627 12.2201C6.85546 12.1503 6.8705 12.0754 6.8705 11.9997C6.8705 11.9241 6.85546 11.8492 6.82627 11.7794C6.79707 11.7096 6.75429 11.6463 6.70042 11.5932C6.64655 11.5401 6.58266 11.4982 6.51246 11.47C6.44227 11.4418 6.36717 11.4278 6.29152 11.4289H4.57898ZM17.7085 11.4289C17.6328 11.4278 17.5577 11.4418 17.4875 11.47C17.4173 11.4982 17.3534 11.5401 17.2996 11.5932C17.2457 11.6463 17.2029 11.7096 17.1737 11.7794C17.1445 11.8492 17.1295 11.9241 17.1295 11.9997C17.1295 12.0754 17.1445 12.1503 17.1737 12.2201C17.2029 12.2899 17.2457 12.3532 17.2996 12.4063C17.3534 12.4594 17.4173 12.5013 17.4875 12.5295C17.5577 12.5577 17.6328 12.5717 17.7085 12.5706H19.421C19.4967 12.5717 19.5718 12.5577 19.642 12.5295C19.7122 12.5013 19.7761 12.4594 19.8299 12.4063C19.8838 12.3532 19.9266 12.2899 19.9558 12.2201C19.985 12.1503 20 12.0754 20 11.9997C20 11.9241 19.985 11.8492 19.9558 11.7794C19.9266 11.7096 19.8838 11.6463 19.8299 11.5932C19.7761 11.5401 19.7122 11.4982 19.642 11.47C19.5718 11.4418 19.4967 11.4278 19.421 11.4289H17.7085ZM7.95278 15.4594C7.80447 15.4638 7.66371 15.5258 7.56032 15.6322L6.3495 16.843C6.29471 16.8956 6.25098 16.9586 6.22084 17.0284C6.19071 17.0981 6.1748 17.1731 6.17402 17.249C6.17325 17.325 6.18764 17.4003 6.21635 17.4706C6.24506 17.541 6.28751 17.6048 6.34121 17.6585C6.39491 17.7122 6.45879 17.7547 6.52911 17.7834C6.59942 17.8121 6.67476 17.8265 6.7507 17.8257C6.82665 17.8249 6.90168 17.809 6.97139 17.7789C7.04111 17.7488 7.10411 17.705 7.15671 17.6502L8.36754 16.4394C8.45002 16.3592 8.50637 16.256 8.52918 16.1433C8.55199 16.0305 8.5402 15.9135 8.49537 15.8075C8.45053 15.7016 8.37474 15.6117 8.27792 15.5496C8.1811 15.4874 8.06777 15.456 7.95278 15.4594ZM16.0305 15.4594C15.9169 15.4594 15.806 15.4933 15.7118 15.5567C15.6176 15.6202 15.5444 15.7103 15.5017 15.8155C15.459 15.9207 15.4486 16.0363 15.4719 16.1474C15.4952 16.2585 15.5511 16.3602 15.6325 16.4394L16.8433 17.6502C16.8959 17.705 16.9589 17.7488 17.0286 17.7789C17.0983 17.809 17.1734 17.8249 17.2493 17.8257C17.3252 17.8265 17.4006 17.8121 17.4709 17.7834C17.5412 17.7547 17.6051 17.7122 17.6588 17.6585C17.7125 17.6048 17.7549 17.5409 17.7836 17.4706C17.8124 17.4003 17.8267 17.325 17.826 17.249C17.8252 17.1731 17.8093 17.0981 17.7792 17.0284C17.749 16.9586 17.7053 16.8956 17.6505 16.843L16.4397 15.6322C16.3865 15.5775 16.3229 15.5341 16.2526 15.5044C16.1823 15.4747 16.1068 15.4594 16.0305 15.4594V15.4594ZM11.9911 17.1296C11.8399 17.1319 11.6958 17.1942 11.5904 17.3027C11.4851 17.4112 11.4271 17.557 11.4292 17.7082V19.4208C11.4281 19.4964 11.4421 19.5715 11.4703 19.6417C11.4985 19.7119 11.5404 19.7758 11.5935 19.8297C11.6466 19.8835 11.7099 19.9263 11.7797 19.9555C11.8495 19.9847 11.9243 19.9997 12 19.9997C12.0757 19.9997 12.1505 19.9847 12.2203 19.9555C12.2901 19.9263 12.3534 19.8835 12.4065 19.8297C12.4596 19.7758 12.5015 19.7119 12.5297 19.6417C12.5579 19.5715 12.5719 19.4964 12.5708 19.4208V17.7082C12.5719 17.6318 12.5576 17.556 12.5288 17.4853C12.5 17.4145 12.4574 17.3503 12.4033 17.2963C12.3492 17.2424 12.2849 17.1998 12.2141 17.1712C12.1433 17.1425 12.0675 17.1284 11.9911 17.1296V17.1296Z" fill="#9DA3AE"/>
</svg>
