<svg width="510" height="71" viewBox="0 0 510 71" fill="none" xmlns="http://www.w3.org/2000/svg">
<path d="M14.2001 30.4009C14.3068 30.2942 14.9201 30.1875 16.0401 30.0809C17.2134 29.9209 18.5734 29.4409 20.1201 28.6409C20.1734 28.6409 20.1468 28.0009 20.0401 26.7209C19.8801 24.4809 19.7468 22.8809 19.6401 21.9209C19.5334 20.6409 19.4268 19.7342 19.3201 19.2009C19.3201 18.1875 18.9201 16.0809 18.1201 12.8809L14.6001 24.8009C13.8534 28.1075 13.5601 30.1342 13.7201 30.8809L14.2001 30.4009ZM3.40011 32.7209L3.88011 29.2009C3.88011 28.5075 3.98678 27.8142 4.20011 27.1209C4.20011 26.2142 4.65344 24.8542 5.56011 23.0409C5.56011 22.9342 5.80011 22.2409 6.28011 20.9609C6.28011 20.8542 6.78678 19.2809 7.80011 16.2409L8.76011 13.9209C8.76011 13.7075 8.89344 13.3075 9.16011 12.7209C9.42678 12.0809 9.61344 11.4675 9.72011 10.8809C9.88011 10.2409 10.0668 9.62755 10.2801 9.04088C11.0268 7.60088 11.6934 6.37422 12.2801 5.36088C13.4001 3.22755 15.4801 2.26755 18.5201 2.48088L21.0801 2.72088C22.6801 3.14755 23.9068 3.60088 24.7601 4.08088C25.9868 4.56088 26.8134 5.09421 27.2401 5.68088C27.6668 6.21421 27.8534 7.12088 27.8001 8.40088C27.8534 9.04088 28.0134 11.8142 28.2801 16.7209C28.5468 21.6275 28.6801 24.1075 28.6801 24.1609L29.0801 27.6009C29.0801 27.9209 29.6668 31.7609 30.8401 39.1209L32.6001 44.7209C33.6668 47.7075 34.2268 49.2809 34.2801 49.4409C34.3868 49.5476 34.6268 50.1076 35.0001 51.1209C35.5868 52.8809 35.0801 54.0542 33.4801 54.6409C32.0401 54.8542 30.9734 54.7209 30.2801 54.2409C30.0134 54.2409 29.4001 54.0009 28.4401 53.5209C28.3334 53.2542 28.0134 52.9875 27.4801 52.7209C27.0001 52.5075 26.6801 52.3209 26.5201 52.1609C25.9334 52.0009 25.4001 51.1742 24.9201 49.6809C24.7601 49.5742 24.4668 49.1475 24.0401 48.4009C23.6668 47.6542 23.5601 47.0409 23.7201 46.5609C23.3468 46.0809 23.1601 45.0942 23.1601 43.6009C22.6801 42.8009 22.4401 41.5475 22.4401 39.8409C22.4401 38.1342 22.1734 36.8009 21.6401 35.8409C18.9201 37.0675 16.0134 37.7342 12.9201 37.8409C12.3334 37.8409 12.0401 37.9475 12.0401 38.1609C12.0401 38.6409 11.8801 39.4942 11.5601 40.7209L10.2001 49.5209C10.7334 53.4675 10.2534 55.5475 8.76011 55.7609C8.33344 55.7609 7.61344 55.8675 6.60011 56.0809C5.64011 56.2942 4.84011 56.1075 4.20011 55.5209C2.97344 54.8275 2.09344 54.1075 1.56011 53.3609C1.08011 52.6675 0.866776 51.8676 0.920109 50.9609C0.973443 50.2142 1.10678 48.6142 1.32011 46.1609C1.42678 46.0542 1.45344 45.4675 1.40011 44.4009C1.40011 43.2809 1.48011 42.4275 1.64011 41.8409L2.92011 36.8809C3.08011 36.7742 3.29344 35.9742 3.56011 34.4809C3.50678 34.3742 3.48011 34.1075 3.48011 33.6809L3.40011 32.7209Z" fill="#9A99EA"/>
<path d="M42.0239 25.2809C42.0239 24.5875 42.3705 24.0009 43.0639 23.5209C43.0639 23.4675 43.0639 23.4142 43.0639 23.3609C43.0639 22.9875 43.4639 22.3209 44.2639 21.3609C45.1172 20.4009 45.5972 19.8142 45.7039 19.6009C46.8772 18.9075 47.6505 18.5075 48.0239 18.4009C48.4505 18.5075 48.7439 18.5609 48.9039 18.5609H49.0639C50.6105 18.1875 52.3705 18.2409 54.3439 18.7209C56.3705 19.2009 57.7839 20.0542 58.5839 21.2809C59.0105 22.0809 59.4372 23.1475 59.8639 24.4809C60.5039 26.3475 60.8239 27.7075 60.8239 28.5609C61.1439 29.9475 61.1705 31.2275 60.9039 32.4009L60.8239 33.2009C60.8239 33.4142 60.6905 33.6275 60.4239 33.8409C60.1572 34.0542 59.8372 34.1609 59.4639 34.1609C59.1439 34.1075 58.8505 34.2409 58.5839 34.5609C58.3172 34.8275 57.7572 34.9609 56.9039 34.9609C56.1039 34.9609 55.6772 34.7209 55.6239 34.2409C55.4639 34.1876 55.1972 34.0009 54.8239 33.6809C54.5039 33.3609 54.3439 33.1209 54.3439 32.9609L53.9439 32.4009C53.9439 32.2942 53.8372 32.1342 53.6239 31.9209C53.1439 30.9609 52.9572 30.2142 53.0639 29.6809C53.3305 28.2942 53.4105 27.5475 53.3039 27.4409C53.3039 26.6409 53.0372 25.8409 52.5039 25.0409C52.4505 24.9875 52.3439 24.9609 52.1839 24.9609C52.0772 24.9075 51.9172 24.8542 51.7039 24.8009C51.5972 24.4275 51.4905 24.2409 51.3839 24.2409C51.0105 24.3475 50.6105 24.6409 50.1839 25.1209C49.4372 27.2009 48.9839 28.5875 48.8239 29.2809L48.3439 34.1609V37.8409C48.4505 39.7609 48.6639 40.9342 48.9839 41.3609C48.9839 41.5742 49.0905 41.9476 49.3039 42.4809C49.3572 43.1742 49.9172 44.4009 50.9839 46.1609L51.3839 46.6409C51.6505 47.3876 52.1039 47.7609 52.7439 47.7609C53.3839 47.7609 54.2905 47.0142 55.4639 45.5209C55.4105 45.3609 55.7572 44.7209 56.5039 43.6009C57.2505 42.5876 58.4239 42.1875 60.0239 42.4009C60.7172 42.5075 61.0639 42.9075 61.0639 43.6009C61.1172 44.0809 60.9572 45.2809 60.5839 47.2009C60.0505 47.7342 59.7839 48.2676 59.7839 48.8009C59.4105 49.7609 59.2239 50.2942 59.2239 50.4009C59.0639 50.4009 58.9039 50.4809 58.7439 50.6409L58.3439 51.4409C58.1305 51.4409 57.9972 51.5475 57.9439 51.7609C57.3572 52.4542 56.9572 52.8009 56.7439 52.8009C56.5839 52.9609 56.1572 53.0409 55.4639 53.0409C54.4505 53.4675 53.7039 53.6809 53.2239 53.6809L51.8639 53.7609L50.9839 53.4409L50.2639 53.3609C49.6239 53.0942 49.1172 52.9609 48.7439 52.9609C48.4239 53.0142 48.1839 52.9875 48.0239 52.8809C47.8639 52.8275 47.6505 52.6942 47.3839 52.4809C46.7439 51.9476 46.3172 51.6809 46.1039 51.6809C45.9439 51.6809 45.6505 51.5209 45.2239 51.2009C44.7972 51.0942 44.4505 50.9076 44.1839 50.6409L43.8639 49.8409C43.9705 49.4675 43.9172 49.2542 43.7039 49.2009C43.0105 49.2009 42.6105 49.0676 42.5039 48.8009L42.0239 48.1609C42.0239 47.7342 41.8105 47.1742 41.3839 46.4809L40.4239 43.6009C40.3172 43.4942 40.3172 43.3075 40.4239 43.0409V41.6009L39.4639 35.3609V34.2409C39.9439 32.4809 40.1839 31.5742 40.1839 31.5209C40.1305 30.3475 40.3972 29.3075 40.9839 28.4009C40.9839 27.3875 41.3305 26.3475 42.0239 25.2809Z" fill="#9A99EA"/>
<path d="M83.332 3.92088C83.2253 5.25421 83.172 6.24088 83.172 6.88088C83.172 7.46755 83.1453 8.00088 83.092 8.48088V10.5609L83.012 11.1209V12.8009C83.012 13.2809 82.9853 13.7609 82.932 14.2409L85.732 13.6809C85.9453 13.6809 86.7187 13.5475 88.052 13.2809C89.3853 13.0142 90.5853 12.9075 91.652 12.9609C92.772 12.9609 93.5186 13.1742 93.892 13.6009C94.3186 14.0275 94.532 14.6409 94.532 15.4409C94.6386 16.0809 94.452 16.6942 93.972 17.2809L93.652 17.7609C93.2253 18.4542 92.612 18.9075 91.812 19.1209L89.012 19.5209L85.412 20.4009L83.252 21.2009C83.3053 22.5342 83.3853 24.0009 83.492 25.6009C83.652 27.2009 83.732 28.3209 83.732 28.9609L83.972 31.9209C84.6653 36.6142 85.572 41.4142 86.692 46.3209C87.012 46.8009 87.3587 47.8942 87.732 49.6009L88.372 51.2809C88.5853 53.0942 87.4653 54.0009 85.012 54.0009C84.5853 54.0009 83.5186 53.8942 81.812 53.6809C81.332 53.6275 80.6387 53.1475 79.732 52.2409C79.732 52.1342 79.4386 51.7875 78.852 51.2009L77.332 47.5209C77.2253 47.3609 77.092 46.8542 76.932 46.0009C76.3453 45.4142 75.8653 44.0809 75.492 42.0009C75.492 41.8942 75.4387 41.6275 75.332 41.2009V40.0809C74.9587 39.7075 74.692 38.6676 74.532 36.9609C74.372 35.2542 74.1853 33.6542 73.972 32.1609C73.972 30.0809 73.812 28.0809 73.492 26.1609L73.332 24.4009V23.6809C73.3853 23.1475 73.3853 22.8809 73.332 22.8809H72.372C71.572 22.9875 70.9053 22.9875 70.372 22.8809C68.0253 22.8809 66.3986 22.2142 65.492 20.8809C64.852 19.4409 64.8253 18.5075 65.412 18.0809C65.9987 17.6542 67.4387 17.2275 69.732 16.8009C70.7453 16.8009 72.052 16.4542 73.652 15.7609C73.652 14.4275 73.732 13.6809 73.892 13.5209C74.052 12.2942 74.212 11.5209 74.372 11.2009C74.5853 10.8275 74.7187 10.4542 74.772 10.0809C74.8253 8.80088 75.2787 6.90755 76.132 4.40088C76.452 3.17421 76.7453 2.34755 77.012 1.92088C77.7053 0.907546 79.1453 0.587547 81.332 0.960882C82.2387 1.12088 82.9053 1.46755 83.332 2.00088C83.492 1.94755 83.492 2.58755 83.332 3.92088Z" fill="#9A99EA"/>
<path d="M102.703 1.84088C106.277 1.84088 108.783 2.56088 110.223 4.00088C110.223 4.90755 109.61 6.74755 108.383 9.52088C108.17 10.4275 107.823 11.1475 107.343 11.6809L106.303 12.7209C106.037 12.8809 105.77 12.9609 105.503 12.9609C103.583 13.4409 102.09 13.0675 101.023 11.8409C100.81 11.5209 100.543 11.2809 100.223 11.1209C99.9566 10.9609 99.7432 10.4809 99.5832 9.68088C99.1032 8.98755 98.8632 8.45421 98.8632 8.08088C98.7566 4.77422 99.9566 2.69422 102.463 1.84088H102.703ZM102.063 20.7209C102.597 20.4542 103.85 20.7209 105.823 21.5209C106.037 21.7342 106.357 21.9475 106.783 22.1609L108.063 23.2009C108.277 23.4142 108.383 23.7609 108.383 24.2409V31.2809C108.383 32.3475 108.33 33.3075 108.223 34.1609V34.6409C108.063 36.8275 108.197 41.7609 108.623 49.4409C108.783 50.9342 108.437 51.8409 107.583 52.1609C106.677 52.1609 106.09 52.0276 105.823 51.7609C105.61 51.6542 105.423 51.6009 105.263 51.6009H104.703L104.223 51.7609C104.063 51.7609 103.77 51.6542 103.343 51.4409C102.917 51.1742 102.623 50.9076 102.463 50.6409C102.357 50.3742 102.143 50.2142 101.823 50.1609C101.237 49.9475 100.917 49.5476 100.863 48.9609C100.117 47.5209 99.7166 46.6675 99.6632 46.4009C99.6632 46.1342 99.5832 45.8409 99.4232 45.5209L99.0232 38.5609C99.0232 37.7609 99.0766 37.1475 99.1832 36.7209V34.8009C99.2366 34.2142 99.2899 33.1475 99.3432 31.6009C99.3966 30.0009 99.4766 28.7209 99.5832 27.7609C99.4766 26.3742 99.4232 25.4409 99.4232 24.9609C99.4232 24.4809 99.4499 24.1342 99.5032 23.9209C98.9166 23.3342 98.9432 22.5342 99.5832 21.5209C100.277 20.9875 100.943 20.7209 101.583 20.7209H102.063Z" fill="#9A99EA"/>
<path d="M117.548 26.8009C117.548 26.0009 117.628 24.8809 117.788 23.4409C117.788 22.1609 117.895 21.3875 118.108 21.1209C118.108 20.7475 118.668 20.4809 119.788 20.3209C120.108 20.3209 120.722 20.4275 121.628 20.6409C121.842 20.8009 122.162 20.9075 122.588 20.9609C123.708 21.3342 124.455 22.1075 124.828 23.2809V24.9609C124.988 25.9209 125.068 27.6809 125.068 30.2409C125.175 31.0409 125.202 31.6809 125.148 32.1609C125.095 32.5875 125.068 32.8542 125.068 32.9609C125.122 33.0676 125.148 33.4409 125.148 34.0809C125.202 34.7209 125.362 36.0275 125.628 38.0009C125.628 40.6675 125.735 42.2142 125.948 42.6409C125.948 42.9609 126.002 43.2809 126.108 43.6009V44.6409C126.162 44.7475 126.188 45.1475 126.188 45.8409C126.188 46.5342 126.322 47.1209 126.588 47.6009C126.908 48.2942 127.202 48.4009 127.468 47.9209L128.748 44.0809C128.802 43.9742 129.015 43.6275 129.388 43.0409C129.388 42.5609 129.442 42.2142 129.548 42.0009C129.388 41.7875 129.628 41.2275 130.268 40.3209C130.375 39.7342 130.695 39.1209 131.228 38.4809V38.0009C132.348 35.4942 132.988 34.1075 133.148 33.8409C133.575 31.9209 133.842 30.7742 133.948 30.4009C134.055 29.9742 134.108 29.7342 134.108 29.6809L134.268 29.2009C134.268 28.9875 134.322 28.5609 134.428 27.9209C134.802 27.3342 134.988 26.9075 134.988 26.6409C134.988 26.3742 135.148 25.7609 135.468 24.8009C135.682 24.6409 135.788 24.2675 135.788 23.6809C135.895 22.6675 136.935 21.6009 138.908 20.4809H139.148C139.468 20.4275 139.788 20.4009 140.108 20.4009C140.482 20.4009 140.855 20.4275 141.228 20.4809C141.655 20.5342 141.922 20.5875 142.028 20.6409C142.188 20.6409 142.428 20.6942 142.748 20.8009C143.068 20.9075 143.282 21.0409 143.388 21.2009C143.548 21.3075 143.708 21.4942 143.868 21.7609C144.188 22.2409 144.295 22.9075 144.188 23.7609L136.348 44.5609C135.495 46.1075 135.015 47.3342 134.908 48.2409L134.028 49.4409C133.815 50.5076 132.482 52.2675 130.028 54.7209C128.642 55.5209 127.202 55.6275 125.708 55.0409L124.348 54.6409L122.828 53.9209C122.668 53.9209 121.948 53.0942 120.668 51.4409C120.348 51.2276 120.055 50.8809 119.788 50.4009C119.522 49.8675 119.282 49.4409 119.068 49.1209C118.855 48.8009 118.695 48.4809 118.588 48.1609L117.628 44.5609L117.388 42.1609L117.068 41.1209C117.068 36.6942 117.122 34.2942 117.228 33.9209C117.228 30.4009 117.362 28.3742 117.628 27.8409L117.548 26.8009Z" fill="#9A99EA"/>
<path d="M165.883 31.1209C165.936 30.9609 166.043 30.0275 166.203 28.3209C166.096 28.1609 165.963 27.5742 165.803 26.5609C165.376 25.7075 164.816 25.0675 164.123 24.6409C163.269 24.2675 162.763 24.0809 162.603 24.0809C162.123 24.2409 161.776 24.4275 161.563 24.6409C161.403 24.8009 160.949 25.5475 160.203 26.8809C159.509 28.2142 158.923 30.4275 158.443 33.5209C158.016 36.6142 157.803 38.8542 157.803 40.2409C157.803 41.6275 157.856 43.3342 157.963 45.3609C158.069 47.3342 158.496 48.2675 159.243 48.1609C159.936 48.0542 160.896 46.1342 162.123 42.4009C162.176 42.1342 162.363 41.6542 162.683 40.9609L165.883 31.1209ZM175.243 27.8409C175.243 30.6675 175.536 33.2542 176.123 35.6009C176.389 37.9476 176.869 40.4542 177.563 43.1209C177.723 44.1876 177.776 44.7209 177.723 44.7209C179.056 47.6542 179.803 49.4142 179.963 50.0009C180.123 50.5342 180.096 50.9875 179.883 51.3609V51.2809C179.723 51.7609 179.216 52.1875 178.363 52.5609C177.563 52.9875 176.843 53.2542 176.203 53.3609C174.176 54.0009 172.976 53.2275 172.603 51.0409C172.389 50.8809 172.069 50.5609 171.643 50.0809C171.269 49.5475 171.056 49.1209 171.003 48.8009C170.949 48.4276 170.763 48.0809 170.443 47.7609C170.336 47.4942 170.096 47.1475 169.723 46.7209C169.349 46.2942 169.136 45.8676 169.083 45.4409L168.843 43.2809L168.683 43.2009C167.829 44.9609 167.269 46.1875 167.003 46.8809C166.363 48.6942 165.243 50.7742 163.643 53.1209C161.829 55.1476 159.616 55.7342 157.003 54.8809C156.043 54.8275 155.269 54.5342 154.683 54.0009C154.149 53.4675 153.776 53.1742 153.563 53.1209C153.243 53.0142 152.789 52.6142 152.203 51.9209C151.243 50.6409 150.656 48.7475 150.443 46.2409V44.1609C150.603 43.8942 150.603 42.6142 150.443 40.3209V39.8409C150.123 38.2409 149.963 37.2809 149.963 36.9609C149.963 36.6409 150.016 36.2142 150.123 35.6809C150.229 35.1475 150.256 34.8275 150.203 34.7209C150.149 34.5609 150.123 34.3209 150.123 34.0009V32.8009L150.523 28.4809C151.109 26.6142 151.749 24.9342 152.443 23.4409C152.656 22.5342 153.056 21.8142 153.643 21.2809C154.976 19.8409 155.696 19.0142 155.803 18.8009C156.176 18.0009 157.563 17.3609 159.963 16.8809L161.323 16.9609C161.856 16.9609 162.336 17.0409 162.763 17.2009C163.189 17.3075 163.483 17.3609 163.643 17.3609C164.389 17.7342 165.003 17.9209 165.483 17.9209C165.963 17.9209 166.763 18.2942 167.883 19.0409C168.203 19.0942 169.003 19.5475 170.283 20.4009C171.669 21.3075 172.469 21.8142 172.683 21.9209L174.763 22.6409C175.349 23.1209 175.643 23.3875 175.643 23.4409C175.643 23.4942 175.509 24.9609 175.243 27.8409Z" fill="#9A99EA"/>
<path d="M207.573 23.7609L207.653 23.0409C206.533 22.9342 205.733 22.8542 205.253 22.8009C204.827 22.6942 204.107 22.5875 203.093 22.4809C202.08 22.3742 201.28 22.2142 200.693 22.0009C199.573 21.6275 198.933 20.6675 198.773 19.1209C198.613 17.5209 199.12 16.5342 200.293 16.1609C201.36 15.8942 202.107 15.7609 202.533 15.7609C202.96 15.7609 203.76 15.7075 204.933 15.6009C205.52 15.2809 206.32 15.0942 207.333 15.0409L208.533 14.7209C208.533 14.7742 208.747 14.7209 209.173 14.5609L209.573 12.8809C209.573 12.0275 209.813 11.1742 210.293 10.3209C210.293 9.94755 210.64 8.90755 211.333 7.20088C211.333 6.98755 211.813 5.44088 212.773 2.56088C212.987 2.29421 213.787 1.68088 215.173 0.72088C216.027 0.294213 217.227 0.587546 218.773 1.60088C219.627 1.97421 220.213 2.48088 220.533 3.12088C220.213 3.44088 220.053 4.18755 220.053 5.36088C220 5.73421 219.627 7.70755 218.933 11.2809V13.5209C219.36 13.5742 220.053 13.7075 221.013 13.9209C222.027 14.1342 223.227 14.3742 224.613 14.6409C227.28 15.1742 228.96 16.2409 229.653 17.8409C229.92 19.0142 229.867 19.8409 229.493 20.3209C229.12 20.8009 228.213 21.1475 226.773 21.3609C225.6 21.4142 224.053 21.4409 222.133 21.4409C220.267 21.4409 218.88 21.5742 217.973 21.8409C217.867 22.8009 217.813 23.5475 217.813 24.0809L217.733 25.2809C217.733 25.6542 217.493 27.6275 217.013 31.2009C216.693 31.6809 216.427 34.1609 216.213 38.6409V44.4809C216.213 45.4409 216.293 46.3475 216.453 47.2009C216.507 48.3742 216.64 49.2009 216.853 49.6809C216.853 50.1609 216.987 51.1742 217.253 52.7209C216.613 54.2675 215.547 55.0409 214.053 55.0409C212.613 55.0409 211.333 54.5076 210.213 53.4409L209.333 52.1609C209.173 51.7342 209.04 51.4409 208.933 51.2809C208.88 51.1209 208.827 50.9342 208.773 50.7209C208.4 49.6542 208.107 48.9875 207.893 48.7209C207.573 48.2942 207.413 47.9742 207.413 47.7609C207.413 47.5475 207.413 47.2809 207.413 46.9609C207.307 46.0542 207.173 45.2809 207.013 44.6409C206.747 44.3742 206.613 43.4675 206.613 41.9209C206.72 39.0942 206.72 37.4675 206.613 37.0409C206.773 36.8809 206.8 35.8675 206.693 34.0009L206.933 32.2409C206.933 32.0275 207.04 31.2275 207.253 29.8409C207.147 29.6275 207.12 29.0675 207.173 28.1609C207.227 27.2009 207.307 26.5342 207.413 26.1609C207.52 25.5209 207.573 24.7209 207.573 23.7609Z" fill="#9A99EA"/>
<path d="M244.744 41.1209C244.744 40.9076 244.797 40.7209 244.904 40.5609C245.064 40.4009 245.277 40.1075 245.544 39.6809C245.544 39.3075 245.811 37.9742 246.344 35.6809C246.824 33.8142 247.411 31.6542 248.104 29.2009C248.264 29.0409 248.344 28.7475 248.344 28.3209L249.144 24.5609C249.144 23.2275 249.491 22.4275 250.184 22.1609C250.717 21.6275 251.464 21.4942 252.424 21.7609C253.384 22.0275 254.371 22.6142 255.384 23.5209C255.597 23.6275 255.811 23.6809 256.024 23.6809L257.144 24.6409C257.037 24.8542 256.984 25.9475 256.984 27.9209C256.984 29.8409 257.011 31.0142 257.064 31.4409V32.8009C257.064 33.4942 257.091 33.9475 257.144 34.1609V35.1209L257.064 36.6409C257.277 37.7076 257.304 39.2542 257.144 41.2809V43.7609C257.091 43.9209 257.091 44.1875 257.144 44.5609C257.197 44.8809 257.251 45.2276 257.304 45.6009C257.251 45.7076 257.224 45.9209 257.224 46.2409V46.8809C257.331 47.5209 257.357 47.9475 257.304 48.1609L257.464 50.5609C257.677 51.2009 257.864 52.0809 258.024 53.2009C257.971 53.4675 257.971 53.9742 258.024 54.7209C257.757 55.3609 257.144 55.6809 256.184 55.6809C255.224 55.5742 254.504 55.2809 254.024 54.8009C253.757 54.7476 253.411 54.5876 252.984 54.3209C252.824 54.3209 252.584 54.2409 252.264 54.0809C251.997 53.7609 251.731 53.5476 251.464 53.4409C249.917 51.6809 249.011 49.6542 248.744 47.3609C248.637 47.2542 248.584 47.1209 248.584 46.9609C248.157 48.0276 247.144 49.8409 245.544 52.4009C245.011 53.0409 244.637 53.5209 244.424 53.8409C244.211 54.2142 244.051 54.4542 243.944 54.5609C243.571 55.3075 242.451 55.3876 240.584 54.8009C239.784 54.5342 239.277 54.4009 239.064 54.4009L236.584 53.6809C235.517 53.1475 234.584 52.4542 233.784 51.6009C233.571 51.6009 233.331 51.4942 233.064 51.2809C232.797 51.0142 232.637 50.7742 232.584 50.5609L231.624 49.0409C230.984 48.4542 230.451 47.5475 230.024 46.3209C229.971 45.6809 229.891 45.1209 229.784 44.6409V44.1609L229.704 43.6009L229.864 41.6009L230.584 37.2009C230.797 36.9875 230.904 36.5875 230.904 36.0009L231.144 34.4809C231.411 34.1075 231.544 33.6542 231.544 33.1209C231.651 32.9609 231.731 32.5875 231.784 32.0009C231.944 31.7875 232.024 31.4942 232.024 31.1209C232.077 30.7475 232.237 30.0809 232.504 29.1209C232.824 28.4809 232.984 27.6009 232.984 26.4809C232.984 25.3075 233.197 23.9742 233.624 22.4809C234.691 21.0409 236.264 20.6675 238.344 21.3609C238.717 21.3609 239.277 21.6275 240.024 22.1609C240.824 22.6409 241.411 22.9609 241.784 23.1209C242.211 23.5475 242.477 23.8675 242.584 24.0809C242.371 24.2942 242.237 24.5875 242.184 24.9609C240.584 30.5609 239.624 35.0142 239.304 38.3209C239.251 38.9075 239.117 39.6542 238.904 40.5609C238.744 41.4675 238.584 42.4009 238.424 43.3609C237.997 45.9209 238.504 47.2542 239.944 47.3609C240.477 47.4142 240.984 47.3075 241.464 47.0409C241.944 46.7742 242.211 46.4275 242.264 46.0009C243.757 43.1209 244.584 41.4942 244.744 41.1209Z" fill="#9A99EA"/>
<path d="M265.961 29.2009C265.908 28.5609 265.935 27.3342 266.041 25.5209L266.601 22.8009L268.201 19.3609L269.481 17.7609C269.481 17.3342 270.868 16.7475 273.641 16.0009H273.721C274.308 15.9475 275.215 16.0009 276.441 16.1609C277.721 16.3209 278.948 16.8542 280.121 17.7609C281.295 18.6142 282.095 19.3342 282.521 19.9209C283.641 22.1609 284.121 24.2409 283.961 26.1609C283.961 26.6942 283.695 27.3342 283.161 28.0809C283.108 28.1875 282.708 28.3475 281.961 28.5609C281.215 28.7742 280.601 28.8009 280.121 28.6409C279.641 28.4275 279.081 28.1075 278.441 27.6809C277.801 27.2542 277.508 26.5875 277.561 25.6809C277.081 25.1475 276.975 24.4542 277.241 23.6009C277.348 22.9609 277.268 22.4809 277.001 22.1609L276.041 21.7609C275.721 21.8675 275.401 22.3475 275.081 23.2009C274.815 24.0542 274.681 25.0942 274.681 26.3209C274.681 28.5609 275.241 30.5875 276.361 32.4009C276.735 32.9875 277.375 33.6809 278.281 34.4809L279.721 36.2409L281.801 38.1609L283.321 40.2409C283.695 40.6142 284.201 41.4409 284.841 42.7209C285.535 43.9475 285.881 45.0675 285.881 46.0809C285.881 47.0409 285.588 48.2675 285.001 49.7609L284.281 50.8009C284.281 50.9076 283.988 51.2542 283.401 51.8409C281.801 53.4409 280.068 54.4276 278.201 54.8009H277.641C275.935 55.0142 274.255 54.9875 272.601 54.7209L270.121 54.0809C269.855 54.0809 269.561 53.9742 269.241 53.7609C268.921 53.6009 268.628 53.4675 268.361 53.3609C267.135 52.5609 266.388 51.9209 266.121 51.4409C265.855 51.2809 265.668 50.5342 265.561 49.2009C265.188 48.4009 265.268 47.3076 265.801 45.9209C265.801 45.1209 265.881 44.5075 266.041 44.0809C267.055 42.9075 268.361 42.6409 269.961 43.2809C270.495 43.4942 270.761 43.9209 270.761 44.5609C270.761 44.7209 270.841 45.2809 271.001 46.2409C271.215 47.1475 271.535 48.0009 271.961 48.8009C272.388 49.6009 272.975 50.0009 273.721 50.0009C274.468 50.0009 275.241 49.7076 276.041 49.1209C276.895 47.4676 277.321 46.5609 277.321 46.4009L277.481 45.2809C277.588 44.4809 277.348 43.6542 276.761 42.8009C276.601 42.1609 276.228 41.5209 275.641 40.8809L274.441 39.1209L273.241 38.0009C273.028 37.9475 272.361 37.5209 271.241 36.7209C271.188 36.5609 270.895 36.1876 270.361 35.6009C269.828 35.0142 269.321 34.2942 268.841 33.4409C268.361 32.5342 267.748 31.7342 267.001 31.0409C266.948 30.6675 266.601 30.0542 265.961 29.2009Z" fill="#9A99EA"/>
<path d="M321.892 54.6409L320.692 54.5609C320.052 54.6142 319.225 54.4009 318.212 53.9209C317.465 53.9209 316.852 53.7875 316.372 53.5209C315.839 53.4142 315.412 53.2542 315.092 53.0409C314.825 52.8275 314.452 52.6142 313.972 52.4009C313.545 52.2409 313.279 52.0809 313.172 51.9209L311.892 50.4009C311.519 49.6542 311.172 49.0409 310.852 48.5609C310.585 48.0809 310.479 47.7875 310.532 47.6809C310.372 47.5209 310.079 47.0675 309.652 46.3209C309.119 42.9609 308.799 40.7742 308.692 39.7609C308.532 37.3609 308.745 35.3875 309.332 33.8409C309.919 32.2942 310.212 31.2542 310.212 30.7209C310.212 29.3875 310.479 28.4542 311.012 27.9209L312.212 25.2809L313.172 24.2409C313.172 24.1875 313.759 23.6542 314.932 22.6409C315.039 22.6409 315.305 22.4542 315.732 22.0809C316.212 21.6542 317.065 21.2542 318.292 20.8809C319.572 20.4542 320.319 20.2409 320.532 20.2409H322.132C322.185 20.2409 322.719 20.3209 323.732 20.4809C324.745 20.6409 325.492 20.7475 325.972 20.8009C326.772 20.9075 328.105 21.3075 329.972 22.0009C331.039 23.0142 331.972 24.4009 332.772 26.1609C333.252 28.9875 333.305 30.9075 332.932 31.9209L332.452 33.4409C332.399 33.7609 332.052 34.1342 331.412 34.5609C330.079 35.5742 328.639 36.0275 327.092 35.9209C325.652 35.6542 324.905 35.2275 324.852 34.6409C324.745 34.3742 324.932 33.7342 325.412 32.7209C325.892 31.6542 326.132 30.1875 326.132 28.3209C325.759 27.3609 325.279 26.8275 324.692 26.7209C323.572 26.6675 322.479 27.4409 321.412 29.0409C321.092 29.4675 320.852 29.8409 320.692 30.1609C320.585 30.4275 320.452 30.6942 320.292 30.9609C320.185 31.1742 320.159 31.2809 320.212 31.2809C319.892 31.6542 319.625 32.0809 319.412 32.5609C319.359 32.9342 319.332 33.2542 319.332 33.5209C319.332 33.7875 319.252 34.1609 319.092 34.6409C318.292 37.6275 317.892 39.9475 317.892 41.6009C317.892 43.2542 318.159 44.7209 318.692 46.0009C318.799 46.6942 318.932 47.1742 319.092 47.4409C319.252 47.7076 319.545 48.0275 319.972 48.4009C321.625 49.8409 323.652 49.8409 326.052 48.4009C326.425 48.1342 326.825 47.7342 327.252 47.2009C327.679 46.6142 328.052 46.2409 328.372 46.0809C328.852 46.0809 329.359 46.2942 329.892 46.7209C330.692 46.9342 331.012 47.6542 330.852 48.8809C330.532 49.6809 330.265 50.2409 330.052 50.5609C328.879 53.2809 326.372 54.6409 322.532 54.6409H321.892Z" fill="#9A99EA"/>
<path d="M354.759 29.0409C354.706 27.8675 354.439 26.9875 353.959 26.4009C353.479 25.7609 352.599 25.3875 351.319 25.2809C350.946 25.5475 350.439 26.4542 349.799 28.0009C349.212 29.4942 348.839 31.0942 348.679 32.8009C348.146 35.3609 347.879 37.9209 347.879 40.4809C347.932 43.0942 348.359 45.0142 349.159 46.2409C349.266 46.4542 349.372 46.5342 349.479 46.4809C349.746 46.4809 350.172 45.9475 350.759 44.8809C353.586 39.7609 354.919 34.4809 354.759 29.0409ZM357.239 44.3209L356.039 47.4409C356.039 47.5476 355.266 48.6942 353.719 50.8809C353.239 51.8942 352.332 52.4542 350.999 52.5609C349.719 52.6675 348.466 52.5342 347.239 52.1609C345.586 51.5742 344.332 50.8809 343.479 50.0809C342.626 49.2809 341.772 47.9475 340.919 46.0809C340.119 44.1609 339.692 42.5875 339.639 41.3609C339.372 39.6009 339.239 38.4809 339.239 38.0009V36.0809C339.239 34.1609 339.319 33.0409 339.479 32.7209C339.532 32.5075 339.666 31.9475 339.879 31.0409C340.146 28.8009 340.786 26.6675 341.799 24.6409C343.772 20.7475 345.799 18.7475 347.879 18.6409H348.279C348.386 18.6942 348.546 18.7209 348.759 18.7209H349.799C351.666 18.8809 352.812 19.0409 353.239 19.2009C354.039 19.4142 354.732 19.5209 355.319 19.5209L357.399 19.9209C358.039 19.8675 358.866 20.0009 359.879 20.3209C360.946 20.6409 361.506 20.8809 361.559 21.0409C361.666 21.2009 361.826 21.7875 362.039 22.8009C362.252 23.8142 362.386 24.5609 362.439 25.0409C362.546 25.4675 362.626 25.9209 362.679 26.4009C363.106 30.2942 363.799 33.9209 364.759 37.2809C364.812 37.4409 364.866 37.6809 364.919 38.0009C364.972 38.3209 365.159 38.9609 365.479 39.9209C365.799 40.8276 366.039 41.6009 366.199 42.2409C366.359 42.8809 366.652 43.7342 367.079 44.8009C367.399 45.6009 367.879 46.5342 368.519 47.6009C369.692 49.2542 369.079 50.5342 366.679 51.4409C366.359 51.5476 365.799 51.6009 364.999 51.6009C364.839 51.6009 364.332 51.3342 363.479 50.8009C362.946 50.8009 362.439 50.5075 361.959 49.9209L361.319 49.7609C360.946 49.3876 360.626 49.2009 360.359 49.2009C360.252 49.0942 359.292 46.9342 357.479 42.7209C357.319 43.3075 357.239 43.8409 357.239 44.3209Z" fill="#9A99EA"/>
<path d="M377.772 18.9609H377.932C378.625 18.7475 379.745 18.8275 381.292 19.2009C381.825 19.3609 382.145 20.8809 382.252 23.7609C382.465 25.9475 382.572 27.4675 382.572 28.3209C382.572 29.1209 382.599 29.6009 382.652 29.7609V35.1209L383.052 35.2009C383.052 35.1475 383.105 34.8275 383.212 34.2409C383.479 32.7476 383.772 31.6009 384.092 30.8009C384.305 30.5875 384.412 30.3209 384.412 30.0009C384.465 29.6809 384.625 29.3342 384.892 28.9609C385.212 27.4675 386.012 25.5209 387.292 23.1209C387.719 22.1075 388.119 21.3609 388.492 20.8809C388.919 20.3475 389.532 20.1609 390.332 20.3209C391.185 20.4809 391.879 20.7742 392.412 21.2009C392.839 21.2542 393.345 21.3342 393.932 21.4409L396.252 21.9209C396.465 21.9742 396.759 22.1609 397.132 22.4809C397.505 22.7475 397.665 23.0942 397.612 23.5209C397.559 23.9475 397.505 25.2009 397.452 27.2809V28.5609L397.132 31.6809C397.132 32.5342 397.185 33.0409 397.292 33.2009L397.612 33.4409L398.252 29.7609C398.252 29.3875 398.412 29.0409 398.732 28.7209L399.692 26.4009C399.692 26.2409 399.852 25.8942 400.172 25.3609C400.279 24.9875 400.519 24.4542 400.892 23.7609C401.319 23.0675 401.852 22.4009 402.492 21.7609C402.492 21.3342 402.972 21.0409 403.932 20.8809C404.679 20.0809 405.905 20.0542 407.612 20.8009C407.932 20.8009 408.225 20.8542 408.492 20.9609C408.492 21.0675 408.679 21.1475 409.052 21.2009C409.479 21.2542 409.985 21.6009 410.572 22.2409V23.1209C410.572 23.6542 410.599 24.0542 410.652 24.3209C410.599 24.6942 410.625 25.1742 410.732 25.7609V26.7209C410.785 27.1475 410.919 28.4809 411.132 30.7209V31.6009C411.292 31.9209 411.345 32.2675 411.292 32.6409C411.292 32.9609 411.292 33.3075 411.292 33.6809C411.452 33.8409 411.585 34.2942 411.692 35.0409C411.799 35.7342 411.745 36.4276 411.532 37.1209L411.692 37.8409V40.0809C411.959 40.2942 412.092 40.6142 412.092 41.0409L412.332 42.4009C412.332 43.3609 412.465 44.3209 412.732 45.2809V46.1609L413.132 48.2409V48.7209L413.052 49.5209C413.052 50.1075 412.732 50.5342 412.092 50.8009C411.985 50.8542 411.825 50.9342 411.612 51.0409C411.452 51.1475 411.159 51.2009 410.732 51.2009L409.052 50.6409L408.252 50.0809C407.825 50.1875 407.265 50.0009 406.572 49.5209C406.572 49.0409 406.385 48.6142 406.012 48.2409C405.372 48.0275 405.132 47.6009 405.292 46.9609C405.345 46.9076 405.212 46.6142 404.892 46.0809C404.999 45.9742 404.919 45.3876 404.652 44.3209C404.652 43.8409 404.599 43.3876 404.492 42.9609C404.439 42.4809 404.385 42.0009 404.332 41.5209C404.332 41.0409 404.252 40.6142 404.092 40.2409C404.145 40.2409 404.172 40.0542 404.172 39.6809C404.172 39.3075 404.119 38.9609 404.012 38.6409V36.8009L403.612 33.6009L402.412 37.2809C401.612 39.3609 401.212 40.4809 401.212 40.6409L398.652 48.6409C398.492 48.9609 398.172 49.3342 397.692 49.7609C397.265 50.1342 396.892 50.3209 396.572 50.3209C396.465 50.1609 396.172 50.0809 395.692 50.0809C395.265 50.0809 394.732 50.2142 394.092 50.4809C392.279 50.6942 391.239 50.1342 390.972 48.8009L390.812 46.9609L390.892 45.1209C390.785 44.9609 390.732 44.5875 390.732 44.0009L390.652 42.8809V39.4409L390.492 35.3609V31.4409C388.945 35.6542 387.985 38.4009 387.612 39.6809L384.652 49.2009C384.065 50.7475 382.999 51.5742 381.452 51.6809L380.572 51.8409C379.399 52.1075 378.625 51.9209 378.252 51.2809L377.452 49.9209C377.239 48.7475 377.025 48.0809 376.812 47.9209C376.705 47.1742 376.439 46.4009 376.012 45.6009L375.612 43.6809C375.612 43.5209 375.559 43.2809 375.452 42.9609V41.5209C375.292 41.0942 375.159 40.2409 375.052 38.9609C374.945 37.6276 374.919 36.5609 374.972 35.7609C374.759 35.1209 374.705 34.3209 374.812 33.3609V31.9209C374.545 30.6942 374.412 28.8275 374.412 26.3209V25.2009C374.679 23.6009 374.812 22.5342 374.812 22.0009C374.812 21.4142 374.945 20.9875 375.212 20.7209C375.479 20.4009 376.332 19.8142 377.772 18.9609Z" fill="#9A99EA"/>
<path d="M439.603 28.0009L439.443 26.1609C439.443 25.3075 439.203 24.5875 438.723 24.0009C438.51 23.8942 438.297 23.6275 438.083 23.2009H438.003C438.003 23.1475 437.87 23.0942 437.603 23.0409C437.337 22.9342 437.123 22.9342 436.963 23.0409C436.697 23.1475 435.897 23.8675 434.563 25.2009L433.523 27.5209C432.937 28.3209 432.19 29.8942 431.283 32.2409C431.23 32.2942 431.23 32.5875 431.283 33.1209C431.39 33.8142 431.55 35.5475 431.763 38.3209C432.19 42.2675 432.43 44.5876 432.483 45.2809L433.363 45.1209C433.523 44.9609 433.897 44.8009 434.483 44.6409C435.23 43.7875 435.79 43.1742 436.163 42.8009L437.763 40.2409C437.763 39.9742 437.923 39.4675 438.243 38.7209C438.617 37.9209 438.883 37.2009 439.043 36.5609C439.043 36.4542 439.097 36.0276 439.203 35.2809C439.363 34.1609 439.443 33.0675 439.443 32.0009C439.603 32.0009 439.657 31.8675 439.603 31.6009C439.603 31.3342 439.603 31.0142 439.603 30.6409V28.0009ZM421.363 21.6809C421.043 19.9742 420.883 18.8009 420.883 18.1609V17.5209C420.883 16.8275 421.337 16.1875 422.243 15.6009L423.283 15.1209C423.337 15.0675 424.083 14.9609 425.523 14.8009C426.27 14.8009 426.723 14.8275 426.883 14.8809C427.043 14.8809 427.39 15.0142 427.923 15.2809C428.51 15.5475 428.91 15.7875 429.123 16.0009C429.55 16.8542 429.763 17.6809 429.763 18.4809V20.6409L430.323 20.1609L431.123 19.2809C431.23 19.0675 431.577 18.7742 432.163 18.4009C432.75 18.0275 433.63 17.7609 434.803 17.6009C436.403 17.3342 438.163 17.4409 440.083 17.9209C440.99 18.0275 441.55 18.2142 441.763 18.4809C441.763 18.3742 442.217 18.4542 443.123 18.7209C443.07 18.8275 443.177 18.9342 443.443 19.0409C443.763 19.1475 444.19 19.3075 444.723 19.5209L445.283 20.1609L445.603 21.1209C445.923 21.2275 446.217 21.6275 446.483 22.3209L447.283 25.2809C447.283 25.6009 447.417 26.1075 447.683 26.8009V28.7209C447.737 29.3075 447.763 29.9475 447.763 30.6409C447.763 31.2809 447.71 32.0809 447.603 33.0409V34.0009L447.523 34.5609V34.7209C447.417 34.9342 447.417 35.1742 447.523 35.4409C447.31 37.0942 446.963 38.4009 446.483 39.3609L444.963 43.1209C444.697 43.3876 444.457 43.7609 444.243 44.2409C444.083 44.7209 443.363 45.5475 442.083 46.7209C439.47 49.1742 436.563 50.4009 433.363 50.4009C433.257 50.4542 433.07 50.6142 432.803 50.8809C432.803 51.0942 432.883 51.2542 433.043 51.3609L433.363 56.8009C433.363 58.1342 433.417 58.8275 433.523 58.8809C433.577 59.1475 433.657 60.0275 433.763 61.5209C433.87 63.0142 434.03 63.9476 434.243 64.3209L434.403 66.5609V67.2809C434.297 68.1342 434.083 68.8009 433.763 69.2809C433.443 69.7609 432.937 70.0809 432.243 70.2409C431.603 70.4009 430.777 70.4009 429.763 70.2409C428.803 70.1342 428.217 69.9209 428.003 69.6009C427.257 68.5875 426.75 67.6276 426.483 66.7209C426.003 64.7476 425.763 62.8809 425.763 61.1209C425.603 60.1609 425.523 59.2542 425.523 58.4009C425.417 57.4409 425.257 56.6942 425.043 56.1609C424.83 55.6276 424.723 55.2276 424.723 54.9609C424.35 52.6676 424.163 51.4142 424.163 51.2009C424.163 50.6142 424.03 50.0009 423.763 49.3609C423.497 46.9609 423.363 45.4942 423.363 44.9609L422.643 36.3209V34.7209C422.483 34.5075 422.323 33.0142 422.163 30.2409C421.79 29.5475 421.523 26.6942 421.363 21.6809Z" fill="#9A99EA"/>
<path d="M472.3 32.6409L471.9 30.5609C471.9 30.4009 471.847 30.2142 471.74 30.0009C471.687 29.7875 471.607 29.3875 471.5 28.8009C471.073 28.4809 470.78 28.2409 470.62 28.0809L470.22 27.4409L469.98 26.7209C469.713 26.5609 469.553 26.3475 469.5 26.0809C469.5 25.7609 469.393 25.5209 469.18 25.3609C469.02 25.1475 468.887 24.9609 468.78 24.8009C468.673 24.5875 468.567 24.4542 468.46 24.4009C467.98 24.0809 467.34 24.0542 466.54 24.3209C465.74 24.5875 465.26 24.9609 465.1 25.4409C464.193 27.4675 463.74 28.7742 463.74 29.3609C462.993 31.9209 462.78 33.7342 463.1 34.8009C462.993 36.5076 463.207 38.8542 463.74 41.8409V42.7209C464.22 43.3609 464.673 44.2142 465.1 45.2809C465.633 45.9742 465.98 46.4809 466.14 46.8009C466.353 47.0676 466.487 47.2276 466.54 47.2809C467.073 47.6542 467.393 47.9209 467.5 48.0809C467.927 47.8675 468.22 47.7076 468.38 47.6009V47.0409C468.647 46.8275 468.887 46.6675 469.1 46.5609C469.047 46.5609 469.233 46.3742 469.66 46.0009L470.06 45.6009C470.86 43.8942 471.26 43.0142 471.26 42.9609C471.26 42.8542 471.233 42.6675 471.18 42.4009C470.967 41.9209 471.1 41.5476 471.58 41.2809C471.58 41.2809 471.9 40.3475 472.54 38.4809V38.0009C472.647 37.6809 472.593 37.4409 472.38 37.2809V36.7209C472.487 36.5075 472.54 36.2942 472.54 36.0809C472.753 35.2276 472.833 34.7209 472.78 34.5609C472.78 34.4009 472.807 34.2142 472.86 34.0009C472.913 33.7342 472.993 33.5476 473.1 33.4409C473.26 33.2275 472.993 32.9609 472.3 32.6409ZM460.94 17.5209C461.42 17.5209 461.767 17.4675 461.98 17.3609C462.247 17.2009 462.7 17.0142 463.34 16.8009C464.033 16.5875 465.633 16.5875 468.14 16.8009C469.527 17.0675 471.073 17.7609 472.78 18.8809C474.54 19.7342 475.953 20.9075 477.02 22.4009C478.513 26.3475 479.34 29.7875 479.5 32.7209C479.607 37.2009 479.18 40.9075 478.22 43.8409C476.887 47.2009 476.007 49.1742 475.58 49.7609C475.473 50.4542 475.047 51.3609 474.3 52.4809C474.033 52.4809 473.82 52.5075 473.66 52.5609C473.66 52.6142 473.5 52.7742 473.18 53.0409C472.913 53.3609 472.513 53.5209 471.98 53.5209C471.287 53.6809 470.86 53.8142 470.7 53.9209C470.593 54.0809 470.327 54.1609 469.9 54.1609L467.9 54.3209H465.74C464.3 54.3209 463.153 54.1342 462.3 53.7609L459.9 52.1609L459.1 51.2009C458.94 51.2009 458.833 51.1475 458.78 51.0409C458.78 50.8809 458.753 50.7476 458.7 50.6409C458.22 50.2676 457.98 49.8409 457.98 49.3609C457.393 48.4542 457.1 47.8142 457.1 47.4409C457.1 47.0676 457.02 46.8009 456.86 46.6409C456.86 45.8409 456.62 44.6676 456.14 43.1209L455.98 42.0009V41.1209C455.927 40.3209 455.713 39.3875 455.34 38.3209C455.447 38.2142 455.447 37.9209 455.34 37.4409C455.34 36.2142 455.367 35.3875 455.42 34.9609L455.18 33.9209C455.34 33.6009 455.393 33.3075 455.34 33.0409C455.34 32.7742 455.42 32.3742 455.58 31.8409V31.2809L455.9 28.4809C455.9 28.1075 455.953 27.8142 456.06 27.6009V27.0409C456.167 27.0409 456.247 26.7742 456.3 26.2409L456.7 25.6009L456.78 24.9609C456.78 24.8009 456.753 24.6409 456.7 24.4809L457.1 23.2809C457.1 23.1742 457.287 22.8542 457.66 22.3209C457.66 22.0542 457.847 21.6542 458.22 21.1209C458.22 20.8542 458.353 20.5342 458.62 20.1609C458.62 19.6809 458.913 19.0675 459.5 18.3209C460.033 17.7875 460.513 17.5209 460.94 17.5209Z" fill="#9A99EA"/>
<path d="M487.388 24.8809L487.308 24.2409C487.308 23.9742 487.468 23.5742 487.788 23.0409C488.055 22.6142 488.455 22.1075 488.988 21.5209C489.522 20.9342 489.842 20.5875 489.948 20.4809C490.642 20.0009 491.255 19.7075 491.788 19.6009C492.162 19.3342 492.962 19.0675 494.188 18.8009H495.068C495.388 18.8009 495.628 18.8275 495.788 18.8809C495.948 18.9342 496.508 19.0409 497.468 19.2009C498.962 19.0942 500.455 19.2809 501.948 19.7609C502.322 20.0275 502.615 20.2409 502.828 20.4009C503.042 20.5609 503.335 20.8009 503.708 21.1209C504.135 21.3875 504.615 21.7342 505.148 22.1609C505.735 22.5342 506.508 23.1475 507.468 24.0009C509.388 25.7609 510.002 27.5475 509.308 29.3609L508.588 30.8809C507.788 31.6809 506.935 31.9475 506.028 31.6809L505.308 31.6009C504.722 31.2809 504.242 30.6409 503.868 29.6809C503.388 29.2542 503.068 28.9609 502.908 28.8009C501.415 27.3075 499.815 26.3475 498.108 25.9209C497.202 25.9742 496.322 26.4542 495.468 27.3609C494.615 28.2675 494.642 29.4409 495.548 30.8809C495.548 31.3609 495.602 31.6542 495.708 31.7609C495.815 31.8675 496.055 32.2676 496.428 32.9609C497.122 33.8142 497.655 34.5342 498.028 35.1209C498.295 35.8676 498.722 36.4009 499.308 36.7209L499.788 37.7609C499.948 37.8142 500.695 38.2675 502.028 39.1209C502.348 39.3875 502.668 39.7875 502.988 40.3209C502.988 40.3209 504.028 41.4675 506.108 43.7609C506.428 44.0809 506.748 44.5876 507.068 45.2809C507.708 45.9209 508.028 46.5075 508.028 47.0409C508.082 47.5742 507.975 48.1609 507.708 48.8009C507.708 49.3876 507.442 49.8675 506.908 50.2409C506.428 50.6142 506.055 50.9342 505.788 51.2009C505.575 51.4142 504.695 52.0009 503.148 52.9609C503.042 53.2276 501.815 53.8409 499.468 54.8009L497.068 55.4409C497.015 55.4409 496.775 55.4675 496.348 55.5209C495.922 55.6275 495.228 55.6809 494.268 55.6809H493.628C493.362 55.7875 492.748 55.8409 491.788 55.8409C490.082 55.7875 488.588 55.3876 487.308 54.6409C487.042 54.5342 486.882 54.4009 486.828 54.2409C485.762 52.5342 485.228 51.8142 485.228 52.0809C485.015 51.8142 484.855 51.2809 484.748 50.4809C484.695 49.6809 484.642 49.2009 484.588 49.0409C484.535 48.8275 484.615 48.5342 484.828 48.1609C485.308 47.3075 486.268 47.2542 487.708 48.0009L488.748 48.5609C489.228 49.0409 489.815 49.3342 490.508 49.4409C490.882 49.3876 491.335 49.3876 491.868 49.4409C492.402 49.4942 492.908 49.4942 493.388 49.4409L494.828 48.8009H494.748C494.802 48.7476 494.962 48.7209 495.228 48.7209C495.495 48.6675 495.895 48.5609 496.428 48.4009C497.975 47.9209 498.588 47.1742 498.268 46.1609L497.708 45.2009C497.122 43.9742 496.482 43.0942 495.788 42.5609L495.148 42.1609C493.015 40.0809 491.335 38.3209 490.108 36.8809C489.948 36.7742 489.602 36.4809 489.068 36.0009C488.588 35.5209 488.215 34.7209 487.948 33.6009C487.468 32.5875 487.202 31.8942 487.148 31.5209V30.0009C487.148 29.8942 487.122 29.5742 487.068 29.0409C487.015 28.5075 487.015 28.0542 487.068 27.6809C487.175 27.2542 487.175 26.9342 487.068 26.7209C487.015 26.5075 487.122 25.8942 487.388 24.8809Z" fill="#9A99EA"/>
</svg>
