<svg width="355" height="333" viewBox="0 0 355 333" fill="none" xmlns="http://www.w3.org/2000/svg">
<g opacity="0.05">
<path fill-rule="evenodd" clip-rule="evenodd" d="M327.174 0L158.604 180.27C157.813 181.116 157.286 182.176 157.088 183.318C156.89 184.46 157.029 185.636 157.488 186.7C157.948 187.764 158.707 188.67 159.674 189.307C160.641 189.944 161.772 190.283 162.928 190.284H232.275L184.826 332.997L353.396 152.727C354.187 151.881 354.714 150.822 354.912 149.679C355.11 148.537 354.971 147.361 354.512 146.297C354.052 145.233 353.293 144.327 352.326 143.69C351.359 143.053 350.228 142.714 349.072 142.713H291.587L327.174 0Z" fill="#A7B3E2"/>
<path fill-rule="evenodd" clip-rule="evenodd" d="M184.826 332.999L232.275 190.286H162.928C161.772 190.285 160.641 189.945 159.674 189.309C158.707 188.672 157.948 187.766 157.488 186.701C157.029 185.637 156.89 184.462 157.088 183.319C157.286 182.177 157.813 181.118 158.604 180.272L171.481 166.5H291.587L184.826 332.999Z" fill="#9A99EA"/>
</g>
</svg>
