<svg width="18" height="18" viewBox="0 0 18 18" fill="none" xmlns="http://www.w3.org/2000/svg">
<path d="M8.98997 7.83343e-05C8.81986 0.00273733 8.65776 0.0727761 8.53924 0.194823C8.42072 0.31687 8.35547 0.480954 8.3578 0.651062V2.57767C8.35659 2.66277 8.37231 2.74726 8.40405 2.82623C8.43578 2.90521 8.48289 2.97708 8.54265 3.03769C8.6024 3.09829 8.6736 3.14641 8.75212 3.17926C8.83063 3.21211 8.91489 3.22902 9 3.22902C9.08511 3.22902 9.16937 3.21211 9.24788 3.17926C9.3264 3.14641 9.3976 3.09829 9.45735 3.03769C9.51711 2.97708 9.56422 2.90521 9.59595 2.82623C9.62769 2.74726 9.64341 2.66277 9.6422 2.57767V0.651062C9.64338 0.565142 9.6273 0.47986 9.59493 0.400265C9.56255 0.32067 9.51453 0.248381 9.45371 0.187679C9.39289 0.126977 9.32051 0.0790966 9.24085 0.0468726C9.1612 0.0146486 9.07588 -0.00126362 8.98997 7.83343e-05ZM3.08972 2.44848C2.96207 2.44876 2.8374 2.48708 2.73162 2.55853C2.62585 2.62998 2.54376 2.73133 2.49584 2.84965C2.44792 2.96796 2.43635 3.09787 2.46259 3.22279C2.48884 3.34772 2.55171 3.46198 2.64319 3.55101L4.00536 4.91319C4.06454 4.97482 4.13542 5.02403 4.21385 5.05793C4.29228 5.09182 4.37668 5.10973 4.46212 5.1106C4.54756 5.11147 4.63231 5.09528 4.71142 5.06298C4.79052 5.03069 4.86239 4.98293 4.9228 4.92252C4.98322 4.8621 5.03098 4.79023 5.06327 4.71113C5.09557 4.63203 5.11176 4.54727 5.11089 4.46183C5.11002 4.3764 5.09211 4.29199 5.05821 4.21356C5.02432 4.13513 4.97511 4.06425 4.91348 4.00507L3.5513 2.6429C3.49131 2.58123 3.41953 2.53224 3.34024 2.49884C3.26095 2.46544 3.17576 2.44832 3.08972 2.44848V2.44848ZM14.8902 2.44848C14.7234 2.45345 14.565 2.52318 14.4487 2.6429L13.0865 4.00507C13.0249 4.06425 12.9757 4.13513 12.9418 4.21356C12.9079 4.29199 12.89 4.3764 12.8891 4.46183C12.8882 4.54727 12.9044 4.63202 12.9367 4.71113C12.969 4.79023 13.0168 4.8621 13.0772 4.92251C13.1376 4.98293 13.2095 5.03069 13.2886 5.06298C13.3677 5.09528 13.4524 5.11147 13.5379 5.1106C13.6233 5.10973 13.7077 5.09182 13.7862 5.05792C13.8646 5.02403 13.9355 4.97482 13.9946 4.91319L15.3568 3.55101C15.4496 3.46081 15.513 3.34467 15.5387 3.21782C15.5643 3.09098 15.5511 2.95933 15.5006 2.84015C15.4502 2.72097 15.3649 2.6198 15.256 2.54991C15.1471 2.48002 15.0196 2.44467 14.8902 2.44848ZM9 4.50429C7.80774 4.50429 6.66431 4.97791 5.82125 5.82097C4.9782 6.66402 4.50457 7.80745 4.50457 8.99971C4.50457 10.192 4.9782 11.3354 5.82125 12.1785C6.66431 13.0215 7.80774 13.4951 9 13.4951C10.1923 13.4951 11.3357 13.0215 12.1787 12.1785C13.0218 11.3354 13.4954 10.192 13.4954 8.99971C13.4954 7.80745 13.0218 6.66402 12.1787 5.82097C11.3357 4.97791 10.1923 4.50429 9 4.50429V4.50429ZM0.65135 8.35751C0.566251 8.35631 0.481761 8.37203 0.40279 8.40376C0.323819 8.43549 0.251943 8.48261 0.191338 8.54236C0.130734 8.60211 0.0826097 8.67332 0.0497624 8.75183C0.0169151 8.83034 0 8.9146 0 8.99971C0 9.08482 0.0169151 9.16908 0.0497624 9.24759C0.0826097 9.32611 0.130734 9.39731 0.191338 9.45706C0.251943 9.51682 0.323819 9.56393 0.40279 9.59566C0.481761 9.6274 0.566251 9.64312 0.65135 9.64192H2.57796C2.66306 9.64312 2.74755 9.6274 2.82652 9.59566C2.90549 9.56393 2.97737 9.51682 3.03797 9.45706C3.09858 9.39731 3.1467 9.32611 3.17955 9.24759C3.2124 9.16908 3.22931 9.08482 3.22931 8.99971C3.22931 8.9146 3.2124 8.83034 3.17955 8.75183C3.1467 8.67332 3.09858 8.60211 3.03797 8.54236C2.97737 8.48261 2.90549 8.43549 2.82652 8.40376C2.74755 8.37203 2.66306 8.35631 2.57796 8.35751H0.65135ZM15.422 8.35751C15.3369 8.35631 15.2524 8.37203 15.1735 8.40376C15.0945 8.43549 15.0226 8.48261 14.962 8.54236C14.9014 8.60211 14.8533 8.67332 14.8204 8.75183C14.7876 8.83034 14.7707 8.9146 14.7707 8.99971C14.7707 9.08482 14.7876 9.16908 14.8204 9.24759C14.8533 9.32611 14.9014 9.39731 14.962 9.45706C15.0226 9.51682 15.0945 9.56393 15.1735 9.59566C15.2524 9.6274 15.3369 9.64312 15.422 9.64192H17.3486C17.4337 9.64312 17.5182 9.6274 17.5972 9.59566C17.6762 9.56393 17.7481 9.51682 17.8087 9.45706C17.8693 9.39731 17.9174 9.32611 17.9502 9.24759C17.9831 9.16908 18 9.08482 18 8.99971C18 8.9146 17.9831 8.83034 17.9502 8.75183C17.9174 8.67332 17.8693 8.60211 17.8087 8.54236C17.7481 8.48261 17.6762 8.43549 17.5972 8.40376C17.5182 8.37203 17.4337 8.35631 17.3486 8.35751H15.422ZM4.44688 12.8918C4.28003 12.8968 4.12168 12.9665 4.00536 13.0862L2.64319 14.4484C2.58155 14.5076 2.53235 14.5785 2.49845 14.6569C2.46455 14.7353 2.44665 14.8197 2.44578 14.9052C2.44491 14.9906 2.4611 15.0754 2.49339 15.1545C2.52569 15.2336 2.57344 15.3054 2.63386 15.3659C2.69428 15.4263 2.76614 15.474 2.84525 15.5063C2.92435 15.5386 3.0091 15.5548 3.09454 15.5539C3.17998 15.5531 3.26438 15.5352 3.34282 15.5013C3.42125 15.4674 3.49213 15.4182 3.5513 15.3565L4.91348 13.9944C5.00628 13.9041 5.06966 13.788 5.09532 13.6612C5.12099 13.5343 5.10773 13.4027 5.05729 13.2835C5.00685 13.1643 4.92158 13.0631 4.81266 12.9932C4.70373 12.9234 4.57624 12.888 4.44688 12.8918ZM13.5343 12.8918C13.4066 12.8919 13.2817 12.93 13.1757 13.0013C13.0698 13.0727 12.9875 13.174 12.9394 13.2924C12.8913 13.4108 12.8797 13.5408 12.9059 13.6658C12.9321 13.7909 12.995 13.9052 13.0865 13.9944L14.4487 15.3565C14.5079 15.4182 14.5788 15.4674 14.6572 15.5013C14.7356 15.5352 14.82 15.5531 14.9055 15.5539C14.9909 15.5548 15.0756 15.5386 15.1548 15.5063C15.2339 15.474 15.3057 15.4263 15.3661 15.3658C15.4266 15.3054 15.4743 15.2336 15.5066 15.1545C15.5389 15.0754 15.5551 14.9906 15.5542 14.9052C15.5534 14.8197 15.5354 14.7353 15.5015 14.6569C15.4677 14.5785 15.4184 14.5076 15.3568 14.4484L13.9946 13.0862C13.9348 13.0247 13.8632 12.9758 13.7842 12.9424C13.7051 12.909 13.6201 12.8918 13.5343 12.8918V12.8918ZM8.98997 14.7708C8.81986 14.7734 8.65776 14.8435 8.53924 14.9655C8.42072 15.0876 8.35547 15.2516 8.3578 15.4218V17.3484C8.35659 17.4335 8.37231 17.518 8.40405 17.5969C8.43578 17.6759 8.48289 17.7478 8.54265 17.8084C8.6024 17.869 8.6736 17.9171 8.75212 17.95C8.83063 17.9828 8.91489 17.9997 9 17.9997C9.08511 17.9997 9.16937 17.9828 9.24788 17.95C9.3264 17.9171 9.3976 17.869 9.45735 17.8084C9.51711 17.7478 9.56422 17.6759 9.59595 17.5969C9.62769 17.518 9.64341 17.4335 9.6422 17.3484V15.4218C9.64338 15.3358 9.6273 15.2505 9.59493 15.171C9.56255 15.0914 9.51453 15.0191 9.45371 14.9584C9.39289 14.8977 9.32051 14.8498 9.24085 14.8176C9.1612 14.7853 9.07588 14.7694 8.98997 14.7708V14.7708Z" fill="#9DA3AE"/>
</svg>
