<svg width="36" height="36" viewBox="0 0 36 36" fill="none" xmlns="http://www.w3.org/2000/svg">
<path d="M31.3337 32.3512C30.8855 30.9843 30.5186 29.5927 30.0931 28.2189C31.0703 26.9218 30.6545 25.0037 30.0311 23.6278C29.6227 22.7265 29.653 22.0265 29.7453 21.0467C29.8082 20.5886 29.7468 20.1221 29.5674 19.696C29.4288 19.4269 29.2575 19.1759 29.0573 18.9488C28.4357 18.1557 28.1647 17.5682 28.3752 16.5184C28.7233 14.7822 28.6082 12.8833 27.3791 11.5083C26.8969 10.9981 26.5696 10.3612 26.4355 9.67209C26.3641 9.24931 26.243 8.83645 26.0747 8.4421C25.7227 7.74142 25.1434 7.18087 24.4316 6.85208C24.4424 6.81314 24.4452 6.77239 24.4398 6.73233C24.1904 4.88266 22.7101 3.57108 21.0664 2.89425C20.274 2.568 19.4793 2.22828 18.6276 2.51526C17.7248 2.81952 16.9813 3.68549 16.4204 4.4083C16.286 4.58147 16.5097 4.82669 16.669 4.65687C17.1032 4.13391 17.6045 3.67053 18.16 3.27874C19.2071 2.64484 20.3405 3.05456 21.3223 3.57037C22.737 4.31355 23.3895 5.38109 23.9373 6.81532C23.9203 6.83986 23.9084 6.86753 23.9023 6.89671C23.8961 6.92589 23.8959 6.956 23.9015 6.98529C23.9071 7.01458 23.9185 7.04246 23.935 7.06729C23.9515 7.09213 23.9728 7.11343 23.9976 7.12996C25.3926 7.95213 25.5998 8.85503 25.8908 10.2739C26.0531 11.0647 26.4276 11.3285 26.9548 11.9326C27.7128 12.8012 27.9444 13.8896 27.8937 15.0179C27.8541 15.8982 27.42 16.8151 27.5194 17.6978C27.5791 18.2288 27.8951 18.6116 28.1984 19.0278C28.7897 19.8394 29.0994 20.387 28.9616 21.4216C28.8929 21.7638 28.8633 22.1127 28.8733 22.4616C28.939 23.3428 29.5176 24.0437 29.7545 24.8727C29.9352 25.5711 29.9193 26.3059 29.7084 26.9958C29.4035 26.0763 29.0129 25.1606 28.1929 24.634C26.8951 23.8004 25.2892 23.2345 23.8345 22.7481C23.3453 22.6146 22.8655 22.4486 22.3984 22.2511C22.3545 22.2114 22.3022 22.1823 22.2455 22.1659C22.0136 22.0183 21.8157 21.8232 21.6647 21.5936C21.5138 21.3639 21.4132 21.1049 21.3696 20.8335C21.1735 20.0145 21.2272 19.0541 21.2113 18.1997C22.7598 16.9367 23.1889 14.7911 23.1852 12.6217C23.7935 12.4417 24.3046 11.548 24.2965 10.9735C24.2945 10.8109 24.2602 10.6504 24.1956 10.5013C24.131 10.3521 24.0374 10.2173 23.9202 10.1047C23.803 9.9921 23.6645 9.90393 23.5129 9.84534C23.3613 9.78675 23.1995 9.75891 23.0371 9.76344C23.024 9.72181 23 9.6845 22.9674 9.65547C22.9483 9.50703 22.9288 9.35996 22.9088 9.21604C22.8628 8.88515 22.315 8.94433 22.2976 9.25646C21.8203 8.91097 21.3884 8.50457 20.7901 8.50248C20.0724 8.49995 19.5234 8.54749 18.9414 8.0252C18.4512 7.5853 17.9842 7.11443 17.5105 6.65667C17.4742 6.62274 17.4262 6.60423 17.3766 6.60504C17.327 6.60586 17.2796 6.62594 17.2445 6.66104C17.2094 6.69614 17.1893 6.74351 17.1885 6.79314C17.1877 6.84278 17.2062 6.89078 17.2401 6.92701C17.9599 7.67465 18.6842 8.83107 19.7778 9.0253C20.4758 9.1493 20.8516 8.98263 21.4752 9.38747C21.7564 9.58058 22.0516 9.75262 22.3583 9.90215C22.7097 13.0768 23.1598 17.257 19.5142 18.568C17.4984 19.2929 15.152 18.5668 14.1639 16.5849C13.2649 14.7821 13.5206 12.2829 13.4221 10.2646C13.6182 10.262 13.8112 10.2152 13.9867 10.1278C14.1623 10.0404 14.3159 9.9145 14.4361 9.75956C14.5718 9.60139 14.6343 9.34666 14.7686 9.20831C15.0105 8.9589 15.4914 8.99456 15.8032 8.88842C16.2342 8.74051 16.5961 8.43989 16.8205 8.04335C17.045 7.6468 17.1165 7.18178 17.0215 6.73612C16.9795 6.53025 16.6566 6.57972 16.6589 6.7852C16.686 7.05494 16.6419 7.32706 16.5309 7.5744C16.4199 7.82173 16.246 8.03562 16.0264 8.19468C15.5845 8.49585 15.192 8.335 14.7378 8.48859C14.5558 8.5478 14.4038 8.67519 14.3137 8.84404C14.0248 9.30112 13.7928 9.62062 13.2614 9.8153C13.2344 9.80649 13.2057 9.8043 13.1777 9.80893C13.1497 9.81355 13.1232 9.82485 13.1004 9.84187C13.0777 9.85889 13.0594 9.88113 13.0471 9.90672C13.0347 9.9323 13.0288 9.96048 13.0296 9.98886C13.0288 10.1615 13.0255 10.3392 13.0212 10.5193C12.2276 10.3634 11.7354 11.2801 11.7527 11.9776C11.7684 12.6051 12.2755 13.6132 12.979 13.4951C13.027 14.9042 13.2501 16.291 13.9905 17.3809C14.2136 17.7094 14.481 18.0056 14.7851 18.261C14.7633 18.9709 14.7487 19.681 14.6827 20.3888C14.5385 21.9338 13.6886 22.2518 12.4141 22.6651C10.8762 23.1638 9.17519 23.7554 7.80725 24.6341C6.793 25.2857 6.46684 26.4941 6.10369 27.5926C6.0068 27.8857 5.91725 28.1811 5.82719 28.4763C5.31697 27.2873 6.3324 26.1728 6.32219 24.9632C6.31625 24.2615 6.05995 23.6403 6.24386 22.9303C6.4653 22.1329 6.88931 21.4064 7.47467 20.8215C7.95895 20.3261 8.233 20.2286 8.15974 19.5291C7.97861 17.7994 7.48949 16.4464 8.79522 14.9633C9.3312 14.3545 9.8602 13.9949 9.89825 13.1208C9.96033 11.6933 9.46308 10.5747 10.427 9.25638C11.0212 8.44384 12.0026 8.22056 12.4185 7.26394C12.6242 6.79083 12.6832 6.25744 12.9298 5.79838C13.5383 4.66539 14.7949 3.90858 15.9573 4.77255C16.1362 4.90561 16.3438 4.62 16.1916 4.4688C15.8854 4.15983 15.4862 3.95999 15.0553 3.9C14.6245 3.84001 14.1859 3.92319 13.807 4.13675C12.4496 4.83144 12.553 6.20788 11.8326 7.32714C11.4115 7.9813 10.4963 8.25026 10.0172 8.89742C9.73305 9.28866 9.52129 9.72763 9.39192 10.1935C9.23206 10.7715 9.17042 11.3722 9.20959 11.9706C9.22334 12.2359 9.36829 12.9477 9.35148 13.1206C9.27107 13.9478 8.70924 14.1881 8.26655 14.6934C7.53034 15.5792 7.17305 16.7196 7.27217 17.8671C7.30797 18.5661 7.77608 19.4937 7.3906 20.121C6.99297 20.7678 6.36123 21.1546 6.01729 21.8893C5.35525 23.3037 5.97673 24.4973 5.57944 25.9139C5.27189 27.0105 4.76212 27.9727 5.56925 28.9581C5.59331 28.9874 5.62559 29.0088 5.66193 29.0195C5.32758 30.1518 5.01708 31.2914 4.64712 32.4126C4.55529 32.6908 4.89946 32.8382 5.08719 32.698C6.99817 33.3122 9.06843 33.4468 11.0523 33.6584C13.3237 33.8761 15.6054 33.9685 17.887 33.9354C22.3298 33.9534 26.7647 33.5557 31.1334 32.7475C31.1469 32.746 31.1602 32.7435 31.1733 32.7403C31.2117 32.7328 31.2506 32.7268 31.2891 32.7192C31.468 32.684 31.4658 32.4261 31.3337 32.3512ZM23.7694 11.302C23.631 11.5795 23.4258 11.8183 23.1722 11.9969C23.149 11.3721 23.0959 10.7528 23.0283 10.1585C23.5625 10.2867 24.0413 10.6743 23.7694 11.302ZM12.9239 12.8186C12.7786 12.7845 12.6453 12.7119 12.5379 12.6084C12.4304 12.5049 12.353 12.3743 12.3136 12.2304C12.1129 11.759 12.2911 10.7883 13.0114 10.8964C12.9926 11.5163 12.9664 12.1683 12.9666 12.825L12.9239 12.8186ZM14.851 22.1206C15.3532 21.2598 15.2598 19.6867 15.1762 18.5524C15.751 18.9092 16.3908 19.1485 17.0586 19.2566C17.7264 19.3647 18.409 19.3393 19.067 19.1821C19.6935 19.0582 20.2913 18.8186 20.83 18.4754C20.7462 19.6258 20.6448 21.2053 21.149 22.1206C21.2409 22.281 21.3636 22.4217 21.5101 22.5346C19.0644 24.2 16.5053 23.9779 13.8563 22.8925C14.2621 22.7487 14.611 22.4781 14.851 22.1206ZM5.23451 32.3978C5.72431 30.768 6.17389 29.1233 6.77014 27.5286C7.22717 26.3063 7.57547 25.5094 8.78951 24.8453C9.7706 24.3277 10.7881 23.8822 11.8338 23.5124C12.2358 23.3638 12.783 23.2514 13.3111 23.0885C15.8399 25.2246 19.5898 24.7263 22.1242 22.889C22.8032 23.1796 23.6366 23.3167 24.1662 23.5124C25.1231 23.8692 26.0608 24.2754 26.9756 24.7293C28.2815 25.3723 28.7397 26.2187 29.2298 27.5286C29.2969 27.7077 29.3558 27.8895 29.4194 28.0697C29.3981 28.1529 29.3773 28.2366 29.3578 28.3216C29.3485 28.3603 29.3483 28.4007 29.3572 28.4396C29.3661 28.4784 29.384 28.5147 29.4093 28.5455C29.4346 28.5763 29.4667 28.6008 29.5031 28.6171C29.5394 28.6334 29.5791 28.641 29.6189 28.6394C30.0315 29.8764 30.3857 31.133 30.7608 32.3818C26.5617 32.8487 22.3916 33.241 18.1604 33.2899C13.847 33.3396 9.46496 33.2892 5.23451 32.3978Z" fill="white"/>
<path d="M16.6747 15.4285C16.5072 15.3074 16.2889 15.5865 16.4519 15.7172C16.6596 15.909 16.9089 16.0499 17.1802 16.129C17.4516 16.2081 17.7375 16.2231 18.0157 16.1728C18.2685 16.1262 18.5065 16.0199 18.7099 15.8628C18.9133 15.7057 19.0763 15.5023 19.1853 15.2695C19.25 15.0946 19.0189 15.0098 18.9027 15.1049C18.5902 15.3606 18.3713 15.6103 17.9577 15.7012C17.7366 15.7484 17.5082 15.7485 17.2871 15.7015C17.0661 15.6545 16.8574 15.5615 16.6747 15.4285ZM17.7759 11.7657C17.7747 11.7359 17.7621 11.7077 17.7406 11.687C17.7191 11.6663 17.6905 11.6548 17.6607 11.6548C17.6308 11.6548 17.6022 11.6663 17.5807 11.687C17.5592 11.7077 17.5466 11.7359 17.5454 11.7657C17.5212 12.1885 17.4217 12.6035 17.2517 12.9914C17.1558 13.1838 17.0896 13.3897 17.0553 13.6019C17.0075 14.0429 17.5993 14.257 17.9694 14.3219C17.9937 14.3278 18.0193 14.3257 18.0423 14.3159C18.0654 14.3061 18.0846 14.2891 18.0972 14.2674C18.1098 14.2458 18.1151 14.2207 18.1122 14.1958C18.1094 14.1709 18.0986 14.1476 18.0815 14.1294C17.8785 13.9229 17.6316 13.765 17.3591 13.6672C17.4111 13.3635 17.6422 13.0212 17.7141 12.7304C17.7887 12.4146 17.8095 12.0884 17.7759 11.7657ZM15.3283 10.6414C15.2879 10.7592 15.2699 10.8835 15.2753 11.008C15.2883 11.1294 15.3457 11.2417 15.4364 11.3234C15.4551 11.3413 15.4787 11.3533 15.5041 11.358C15.5296 11.3627 15.5558 11.36 15.5798 11.3501C15.6037 11.3402 15.6242 11.3235 15.6389 11.3022C15.6535 11.2809 15.6617 11.2557 15.6623 11.2298C15.6707 11.1473 15.6732 11.0642 15.6697 10.9812C15.6595 10.9004 15.664 10.8184 15.6829 10.7391C15.694 10.6927 15.6866 10.6438 15.6624 10.6027C15.6381 10.5616 15.5989 10.5316 15.5529 10.5189C15.5069 10.5062 15.4577 10.5119 15.4158 10.5347C15.3739 10.5576 15.3426 10.5958 15.3283 10.6414ZM20.2899 11.0469C20.4204 10.9014 20.3695 10.6914 20.3609 10.5101C20.3591 10.4612 20.3384 10.415 20.3032 10.381C20.268 10.3471 20.221 10.3281 20.1721 10.3281C20.1232 10.3281 20.0762 10.3471 20.041 10.381C20.0058 10.415 19.9852 10.4612 19.9834 10.5101C19.9747 10.6921 19.9233 10.9008 20.0542 11.0469C20.0856 11.0779 20.128 11.0952 20.1721 11.0952C20.2162 11.0952 20.2585 11.0779 20.2899 11.0469ZM22.1721 23.8539C20.8287 24.6416 19.6402 25.335 18.0234 25.3857C16.5077 25.4333 14.3339 25.0404 13.1135 24.0712C13.0745 24.0346 13.0228 24.0147 12.9693 24.0155C12.9158 24.0164 12.8648 24.038 12.827 24.0758C12.7891 24.1137 12.7675 24.1647 12.7666 24.2182C12.7658 24.2716 12.7857 24.3234 12.8223 24.3624C13.8312 25.6527 16.2641 25.9622 17.8018 25.9748C19.4411 25.9882 21.3012 25.4199 22.4304 24.1888C22.4654 24.1518 22.486 24.1034 22.4885 24.0525C22.491 24.0016 22.4753 23.9515 22.4442 23.9111C22.4131 23.8708 22.3686 23.8428 22.3187 23.8323C22.2688 23.8218 22.2169 23.8295 22.1721 23.8539Z" fill="white"/>
</svg>
