<svg width="75" height="75" viewBox="0 0 75 75" fill="none" xmlns="http://www.w3.org/2000/svg">
<path d="M19.7852 61.5233C20.7881 61.575 21.8712 61.4066 22.788 61.4731C23.6488 61.5347 24.4304 61.8902 24.5298 62.2652C24.6218 62.6108 24.1516 63.1718 23.8647 63.727C23.2437 64.9238 23.3841 66.3549 24.2312 67.4612C26.0845 69.8839 30.5441 70.1686 32.1104 68.2019C33.0307 67.0447 32.3537 65.6718 36.1463 66.2563C44.0008 67.4634 45.6734 67.8849 47.6672 67.368C49.3783 66.9245 50.8801 65.378 50.0998 63.8764C49.6791 63.0659 48.7435 62.6118 47.9179 62.2114L47.5842 62.0481C44.243 60.3821 48.337 60.1357 49.0164 58.2554C49.5197 56.8586 47.9728 55.6391 46.4315 55.4752C43.5181 55.1611 41.7286 57.1845 39.4333 57.8562C38.0014 58.2757 36.1334 58.1085 34.8906 57.4512C32.5515 56.212 34.7009 53.4761 32.5018 51.7648C31.113 50.6841 28.7584 50.8958 27.7408 52.249C26.7547 53.558 27.5719 55.0781 26.8613 55.943C26.5405 56.3344 25.9055 56.3881 25.1703 56.4505C20.5558 56.9045 19.383 56.9606 18.2949 57.473C17.1328 58.02 16.5387 59.0768 16.8817 59.9851C17.2755 61.0283 18.6399 61.4637 19.7852 61.5233ZM18.8048 58.5568C19.6649 58.1518 20.6678 58.091 24.9391 57.6734C26.019 57.5811 27.0999 57.5409 27.7872 56.7023C28.8429 55.4174 28.0314 53.8538 28.6978 52.969C29.2961 52.173 30.889 52.0274 31.7665 52.7097C32.4483 53.2403 32.4507 54.1104 32.4538 55.0974C32.4569 56.1375 32.6553 57.6227 34.33 58.5096C35.8496 59.3142 38.0354 59.5138 39.7693 59.0055C42.0823 58.3291 43.9265 56.4187 46.3044 56.6657C46.9375 56.7331 47.5756 57.0676 47.8216 57.461C48.4566 58.4762 45.4041 58.9139 45.1139 60.6209C44.8283 62.2957 47.3027 63.2106 47.3951 63.2889C48.2405 63.6989 49.3931 64.2186 49.0359 65.0201C48.8118 65.5234 48.1253 66.0122 47.3671 66.2087C45.635 66.6571 44.1259 66.271 36.3279 65.0727C31.6458 64.3537 31.8903 66.5545 31.1732 67.4558C30.6781 68.0779 29.4256 68.4217 28.1903 68.2709C25.8487 67.9865 23.9373 66.187 24.9278 64.2783C25.2552 63.6448 25.9362 62.8955 25.6872 61.958C25.3498 60.6866 23.6607 60.2595 22.3015 60.2595C21.4534 60.2595 20.6249 60.3687 19.8475 60.3274C18.9424 60.2802 18.1491 59.9516 18.0021 59.5621C17.891 59.2682 18.2512 58.8172 18.8048 58.5568Z" fill="black"/>
<path d="M28.4399 65.9483C29.1933 66.2254 29.5862 65.0923 28.8515 64.824C28.1736 64.5756 27.965 63.7081 28.4563 63.1785C28.6816 62.9365 28.6675 62.5576 28.4251 62.3326C28.183 62.1073 27.8037 62.1213 27.5791 62.3638C26.5068 63.5175 26.9568 65.4054 28.4399 65.9483ZM38.177 64.0518C39.3173 64.4451 40.5058 64.6443 41.7124 64.6443C43.6796 64.6443 44.242 63.3082 43.5524 62.2281C43.3415 61.8991 43.0534 61.659 42.8218 61.466C42.5684 61.2547 42.1903 61.2883 41.9786 61.5428C41.7669 61.7966 41.8012 62.1744 42.0554 62.386C42.2585 62.5554 42.7143 62.927 42.6234 63.1871C42.5708 63.3368 42.2219 63.4436 41.7747 63.4464C40.6852 63.4596 39.6014 63.276 38.5676 62.9197C38.2542 62.8125 37.9139 62.9782 37.8063 63.2904C37.6983 63.6031 37.8644 63.9442 38.177 64.0518ZM41.3865 49.4745C41.1078 48.7293 40.9221 48.3462 40.0365 48.8582C39.3894 49.2325 38.9056 50.0947 38.5524 50.7243C38.4398 50.9995 37.6655 52.1022 37.9653 53.3416C38.2354 54.4592 39.3488 55.2257 40.4345 55.1352C41.5553 55.0487 42.5061 54.1037 42.5992 52.9834C42.7025 51.7426 41.9802 51.1694 41.3865 49.4745ZM31.8111 43.6104C32.1296 43.5215 32.3159 43.1913 32.2275 42.8728L31.1851 39.1316C31.0958 38.8127 30.7625 38.6272 30.4471 38.7157C30.1286 38.8046 29.9427 39.1347 30.0312 39.4536L31.0736 43.194C31.1623 43.5116 31.4907 43.6986 31.8111 43.6104ZM25.3544 46.4736L29.5104 46.046C29.8394 46.0121 30.0787 45.7178 30.0448 45.3891C30.0109 45.0597 29.7111 44.8243 29.3879 44.8547L25.232 45.2823C24.903 45.3162 24.6636 45.6102 24.6975 45.9392C24.7302 46.2584 25.0125 46.5059 25.3544 46.4736ZM43.6436 46.1407C44.439 46.6105 45.4813 46.3406 46.1252 45.7162C46.6803 45.1771 46.9513 44.4746 47.1817 43.8006C47.8735 41.7726 48.3771 39.677 48.6742 37.6833C51.1112 34.125 51.8156 33.2473 54.8012 29.104C55.0191 29.153 55.1808 29.1614 55.4253 29.1197C56.0635 29.0062 56.4167 28.5684 56.7012 28.216C57.67 27.0202 58.6955 25.7681 57.9697 24.3193C57.5583 23.471 51.8778 19.336 50.6955 18.4655C53.2444 16.0132 54.7447 14.0838 56.5749 11.4936C57.0388 10.8443 57.4507 10.2126 57.3176 9.41386C57.1796 8.60028 56.5504 8.13756 56.0452 7.76644C54.0678 6.31582 53.4625 5.44488 52.212 5.50271C51.0093 5.53278 50.412 6.55705 49.8192 7.44717C47.9442 10.4784 46.7848 12.9077 45.9827 15.0545C41.9538 12.1894 41.6394 12.0623 40.7203 11.3954C39.9468 10.834 38.9828 10.1346 37.7923 10.3744C36.419 10.6484 35.899 11.8527 35.0385 12.902C34.578 13.4647 34.462 14.2589 34.8853 14.9179C33.8388 15.9959 28.7254 23.3978 27.4758 24.9512C26.6239 26.0078 25.7537 27.1441 26.4065 28.4464C26.6583 29.0051 28.381 30.2614 28.7837 30.6263C30.7614 32.4164 32.2942 35.1536 35.0853 35.96C38.7313 37.0134 41.7107 40.2227 42.4881 43.9409C42.7385 45.1471 42.9817 45.75 43.6436 46.1407ZM50.9256 7.93719C51.384 7.20626 51.7025 6.75757 52.1964 6.70026C52.7837 6.70026 52.5582 6.56715 55.0445 8.51218C55.5217 8.88803 56.0646 9.19094 56.1368 9.61345C56.1451 9.6933 56.1528 9.76853 56.1446 9.68868C56.1614 9.99759 55.9265 10.3421 55.4421 11.0223C53.8072 13.4028 51.8681 15.7017 49.7264 17.7418L46.9867 15.7696C48.0742 12.7623 49.446 10.3895 50.9256 7.93719ZM36.5592 12.8744C37.1062 12.1558 37.3981 11.6745 38.0269 11.5486C38.7052 11.4141 39.3422 11.8752 40.017 12.3645C42.9098 14.4671 42.5198 13.8149 54.4707 22.8048C54.9181 23.1424 56.3099 24.1792 56.8954 24.8483C57.3149 25.6863 56.4159 26.6656 55.7688 27.4645C55.5415 27.7463 55.4035 27.9073 55.2156 27.9408C55.1358 27.9531 55.1155 27.9562 55.1953 27.9439C55.0754 27.9581 54.9737 27.9199 54.8262 27.8251C54.746 27.7734 35.9245 14.5384 35.8338 14.1487C35.7959 13.9865 35.9599 13.702 36.5592 12.8744ZM35.7656 15.728L37.4156 16.9025L35.7242 19.3669C35.5371 19.6394 35.6061 20.0125 35.879 20.1992C36.1523 20.3873 36.5254 20.3161 36.7113 20.0445L38.3911 17.5968L40.7815 19.2982L39.0763 21.7827C38.8892 22.0552 38.9582 22.4279 39.2311 22.615C39.5005 22.801 39.8754 22.735 40.0634 22.4602L41.757 19.9925L44.1476 21.6941L42.4285 24.1985C42.2414 24.471 42.3104 24.8436 42.5832 25.0308C42.8526 25.2168 43.2275 25.1507 43.4155 24.876L45.1231 22.3885L47.5137 24.09L45.7806 26.6146C45.5935 26.8871 45.6625 27.2602 45.9354 27.4469C46.2087 27.6349 46.5817 27.5638 46.7677 27.2921L48.4892 24.7843C48.5695 24.8415 51.0343 26.5971 50.879 26.4865L49.1327 29.0304C48.9456 29.3029 49.0146 29.6756 49.2875 29.8627C49.5608 30.0507 49.9339 29.9796 50.1198 29.7079L51.8542 27.1813L53.7386 28.5239C52.1778 30.6934 51.624 31.3101 48.636 35.6308C48.5174 35.2035 48.3019 34.8036 47.9328 34.4856C46.7186 33.4379 44.9836 34.1306 44.0159 34.2174C42.3872 34.3656 40.7331 33.3197 40.1655 31.7869C39.893 31.049 39.7491 30.0632 38.938 29.4881C37.9298 28.7715 36.7361 29.224 35.7336 29.398C34.2643 29.6537 32.6543 29.1173 31.6337 28.0274C30.6034 26.9265 30.0312 24.775 30.3843 23.3295C30.4089 23.2287 30.4015 23.1271 30.3753 23.0311C34.4187 17.4241 35.0867 16.4192 35.7656 15.728Z" fill="black"/>
</svg>
