<svg width="88" height="88" viewBox="0 0 88 88" fill="none" xmlns="http://www.w3.org/2000/svg">
<path d="M38.6708 53.4099C37.6201 52.9206 36.2228 53.3297 35.6831 54.2762C35.1188 55.2513 35.4115 56.5678 36.3351 57.2118C36.708 57.473 37.1492 57.5991 37.5897 57.5991C38.2366 57.5991 38.8828 57.3275 39.3131 56.8153C40.1467 55.8251 39.9638 53.9619 38.6708 53.4099Z" fill="black"/>
<path d="M79.5019 42.9324C72.4861 39.0744 65.7906 35.3695 59.2111 31.7504L60.6266 25.0517C61.4298 22.0439 62.2285 18.3073 61.2751 16.0958C59.5306 12.0958 51.8029 11.8399 49.4135 11.257L35.7608 8.32251C34.1762 8.12771 32.1125 8.16782 30.1967 10.2647C28.9134 11.7052 29.4485 10.6879 23.6555 37.4665C19.0535 38.8063 15.2097 41.9481 12.8052 46.3985C11.0413 49.6631 10.3004 53.2558 8.92915 58.7701C7.91545 58.53 6.43883 58.7148 5.35788 61.1317C5.07257 61.771 4.22236 63.9871 5.26793 65.6382C6.0597 66.8883 7.74293 67.42 9.09559 67.8463C10.6294 68.3336 9.63661 68.0291 14.7382 70.0566C15.5532 70.3872 16.8421 71.1589 18.1207 71.1589C18.9033 71.1589 19.6768 70.8667 20.2967 69.989C21.0283 68.9508 22.2652 66.5205 21.7095 64.7479C21.6106 64.4329 21.4474 64.166 21.2519 63.9251C23.1942 62.5817 24.7523 60.5866 25.3666 58.1996C26.1762 58.4206 35.2618 59.753 46.8253 62.5585C46.7533 62.8803 46.7082 63.0779 46.6675 63.2858C46.1807 65.7845 46.7663 68.4442 48.1227 70.6035C47.7963 70.7338 47.4905 70.9084 47.2335 71.1783C45.9519 72.5235 45.9897 75.2518 46.1885 76.5065C46.5718 78.9127 48.9906 78.9631 50.4361 78.9929C51.4042 79.0149 50.6236 78.994 56.0226 79.3756C57.4347 79.4782 59.9307 80.2505 61.5948 79.2324C63.2631 78.2115 63.4763 75.8487 63.5015 75.1486C63.6065 72.2778 62.1371 71.5643 61.0891 71.4117C62.3002 65.8192 63.3216 61.9061 63.1749 58.1124C62.9952 53.4243 60.3726 48.2236 56.474 44.6967L57.0459 41.6044L57.2919 40.4821C67.451 46.4035 71.3168 48.6586 74.741 50.661C75.8043 51.2764 77.358 52.1758 78.9977 52.1758C82.4113 52.1758 84.3296 48.1788 82.5796 45.4303C81.8108 44.2054 80.5309 43.4996 79.5019 42.9324ZM19.6037 62.9055C17.7235 62.1171 13.1913 60.3953 10.59 59.3856C11.935 53.9754 12.6985 50.2978 14.3532 47.235C16.3698 43.503 19.4909 40.7839 23.2334 39.4418C23.2145 39.5294 23.4635 38.3783 21.195 48.8948C20.5837 49.2303 19.9689 49.5595 19.372 49.9208C18.9561 50.1729 18.8231 50.7138 19.0746 51.1297C19.3262 51.5445 19.8687 51.6774 20.2829 51.4265C23.7302 49.3399 27.4341 47.6968 31.2921 46.5418C32.1532 46.2828 33.3769 46.0021 34.0306 46.5452C34.6311 47.0437 34.5371 48.1689 34.0765 48.8655C33.3305 49.9966 32.217 50.4605 26.9425 53.3423C24.7482 54.5444 24.2634 55.2632 23.7691 57.3332C23.1539 59.8762 21.7045 61.7181 19.6037 62.9055ZM25.8819 56.5172C25.9272 56.4213 25.9582 56.3104 26.0144 56.2252C26.4953 55.4974 27.0496 55.2904 32.25 52.4474C32.8344 52.1281 33.4905 51.759 34.1068 51.2988L41.8689 53.0467C42.9369 55.1817 46.4781 59.3653 46.8976 60.7653C34.3169 57.7575 26.5343 56.7008 25.8819 56.5172ZM61.4172 58.18C61.5547 61.7931 60.554 65.5635 59.3222 71.2515C57.086 71.0548 52.3102 70.61 50.1938 70.4719C48.6297 68.5318 47.8556 65.968 48.5111 63.0876C48.9759 61.0332 48.8765 60.1678 47.4237 58.1067C44.004 53.2498 43.1686 52.2819 42.9985 50.9395C42.8925 50.111 43.3044 49.0615 44.0636 48.8781C44.8937 48.6776 45.8619 49.4717 46.5225 50.0847C49.4753 52.8232 52.0735 55.9319 54.2454 59.3247C54.5084 59.7338 55.0532 59.8529 55.4612 59.5917C55.8708 59.3293 55.99 58.785 55.7281 58.3759C55.2814 57.6783 54.804 57.0017 54.3231 56.3278L56.0929 46.7578C59.2123 49.9362 61.2666 54.267 61.4172 58.18ZM55.3208 41.2549L52.8853 54.4261C51.3054 52.4241 49.5907 50.5298 47.7199 48.7945C46.6812 47.8297 45.277 46.7755 43.6511 47.1663C41.9059 47.5886 41.0688 49.4864 41.2495 51.1038L35.5531 49.821C36.4504 48.4502 36.5482 46.349 35.1558 45.1908C33.8536 44.1103 32.038 44.4816 30.7874 44.8551C28.1893 45.6327 25.669 46.6458 23.2352 47.8381C23.2606 47.7194 26.0205 34.7931 26.2493 33.7841C30.8839 13.09 30.371 12.7142 31.5035 11.4438C32.5978 10.2475 33.7705 9.85219 35.4675 10.0562L39.0556 10.8283L38.9657 11.3028C38.638 12.0628 38.9036 12.7976 39.6401 13.2118C40.5823 13.7457 42.1968 14.0003 49.7589 15.5642C51.1237 15.8252 52.891 16.0218 53.0194 14.6326C53.4646 12.7068 52.9033 15.1189 53.2425 13.6828C55.4912 14.0929 58.8585 14.9575 59.6606 16.7959C60.4925 18.7267 59.3135 23.1462 58.9147 24.6483L57.6009 30.8596C56.1576 30.0662 54.732 29.231 53.0629 29.0862C49.272 28.8209 47.1191 32.4503 49.626 35.4845C50.6354 36.7212 51.7231 37.2511 55.6945 39.5505L55.3208 41.2549ZM80.3086 50.0194L80.3063 50.0205C78.9416 50.9223 77.3787 50.1534 75.6267 49.1394C71.7407 46.8667 67.5854 44.4442 56.0387 37.7154L58.6156 33.4312C80.4884 45.4651 80.3574 45.1992 81.0923 46.3699C81.8153 47.5066 81.4338 49.2803 80.3086 50.0194Z" fill="black"/>
<path d="M49.511 26.4725C48.0472 24.5074 47.9509 21.5672 48.6001 20.544C49.1342 19.703 48.068 18.7648 47.3001 19.3913C47.0125 19.6273 44.4097 21.6543 41.7892 20.3698C40.9181 19.9407 40.0931 21.0486 40.7591 21.762C41.9525 23.0373 42.8566 24.5292 41.4054 26.7807C40.8418 27.6547 42.0079 28.6117 42.7563 27.891C44.8962 25.8251 48.3365 27.7444 48.3703 27.7639C49.2023 28.231 50.0749 27.2313 49.511 26.4725ZM43.8517 25.337C44.0242 24.2519 43.8053 23.3146 43.4553 22.5515C44.577 22.5629 45.6352 22.2788 46.4688 21.9155C46.4087 23.0098 46.5891 24.2324 46.9827 25.3656C45.9632 25.1304 44.8749 25.0818 43.8517 25.337ZM45.9916 34.2367C46.5251 33.3968 45.4601 32.4561 44.691 33.0851C44.4808 33.2581 42.5839 34.7408 40.6875 33.8093C39.8157 33.3786 38.9922 34.4904 39.6574 35.2003C40.5151 36.1181 41.1659 37.1895 40.1301 38.7971C39.5649 39.6736 40.7382 40.629 41.481 39.9063C43.0118 38.4293 45.5149 39.8272 45.5407 39.8409C46.3701 40.3085 47.246 39.3094 46.6814 38.5496C45.626 37.1333 45.5355 34.9563 45.9916 34.2367ZM42.412 37.5413C42.4555 36.9786 42.3725 36.4206 42.1639 35.8695C42.8302 35.8454 43.4461 35.6884 43.976 35.4856C43.9749 36.1559 44.0792 36.8698 44.2803 37.555C43.6686 37.4489 43.03 37.4287 42.412 37.5413ZM65.7016 33.7073C66.7799 32.4079 69.0257 29.7038 73.3019 31.7571C74.2402 32.2049 75.0445 30.9287 74.2335 30.2778C70.6344 27.3811 72.815 21.9682 72.9101 21.7391C73.2728 20.8621 72.1733 20.1136 71.4869 20.7685C68.9959 23.1622 64.5535 24.1281 62.6537 23.2355C61.7472 22.8114 60.9551 23.9891 61.6729 24.6701C62.0842 25.0608 65.6489 28.6038 64.1914 32.8594C63.8765 33.7804 65.083 34.4488 65.7016 33.7073ZM64.4802 25.3198C64.9654 25.2535 67.411 25.4487 70.5668 23.6308C70.2758 25.4 70.3296 27.4808 71.2383 29.3073C69.1322 29.0495 67.4822 29.7851 66.2997 30.6628C66.2654 28.4869 65.3579 26.6215 64.4802 25.3198Z" fill="black"/>
</svg>
