<svg width="75" height="75" viewBox="0 0 75 75" fill="none" xmlns="http://www.w3.org/2000/svg">
<path d="M62.6647 34.7951C62.6051 34.8723 62.5698 34.9556 62.526 35.0369C60.1629 33.2771 55.8391 28.6614 52.4774 22.8609C52.5371 22.7681 55.2709 18.5246 55.0977 18.7934C55.0977 18.7934 55.0986 18.7929 55.0986 18.7925C55.9633 17.4434 57.5929 15.7701 56.6499 13.8601C56.1909 12.9286 55.3663 12.386 54.5956 11.8794C54.0351 11.5228 53.4557 11.154 52.7658 10.9331C49.4499 9.86404 48.2255 13.2822 46.8588 15.4109C45.6183 17.349 46.1988 16.4361 44.9606 18.3583C41.9047 18.8189 36.094 20.7807 30.911 23.9988C25.3888 27.4478 26.9498 29.6457 26.7854 35.4851L7.75278 39.2401C6.32004 39.5182 5.3032 40.9352 5.53226 42.3338C5.75593 43.7045 6.28141 45.095 7.18687 46.7106C8.97017 49.89 10.9054 51.5896 17.2286 59.1327C18.1886 60.2555 19.1743 61.8942 20.801 63.3245C22.4033 64.7323 25.0408 64.2876 27.1041 63.7678C37.1307 61.2451 45.8553 58.8446 55.44 57.2055C58.1296 56.7462 58.945 53.2652 56.7353 51.6457C56.284 51.315 55.8337 50.9528 55.377 50.579C57.3824 50.9067 59.3673 50.8747 61.6137 50.3026C61.7476 51.1158 62.1476 51.8924 63.271 52.1958C65.04 52.6741 67.7085 52.5354 68.4828 50.8175C68.9526 49.7768 70.1293 36.8157 69.0721 35.047C68.2887 33.7364 63.7257 33.4177 62.6647 34.7951ZM47.6233 32.2968C46.9713 32.7037 46.3093 33.0979 45.6303 33.4647L47.1688 31.0821C47.3823 31.4896 47.5351 31.8991 47.6233 32.2968ZM43.2145 34.663C42.0028 35.211 40.7614 35.6929 39.5056 36.1038L50.5428 19.0119C51.2151 19.4449 51.7165 19.8304 52.379 20.4696C49.0863 25.5691 46.672 29.3083 43.2145 34.663ZM37.4711 36.7091C36.4772 36.9763 35.3675 37.2909 35.1149 38.3994C34.9996 38.8812 35.1141 39.3934 35.4268 39.8818L31.9324 45.2937C30.8584 44.673 29.8851 44.4287 29.7891 44.3913L30.8337 42.773C32.2408 41.813 33.3065 40.2597 33.5699 38.535C38.4636 30.9663 47.061 17.65 47.1443 17.521C47.9319 17.7279 48.5898 17.9668 49.339 18.3329C45.8097 23.7977 40.9863 31.2662 37.4711 36.7091ZM38.5391 41.8959L34.7601 47.7526C34.3231 47.2105 33.6724 46.5434 33.0739 46.0685L36.4053 40.9091C37.0069 41.3635 37.7201 41.6933 38.5391 41.8959ZM43.9901 41.7632C44.0211 41.8552 44.7085 44.1115 45.0228 44.8004C45.2096 45.2118 44.809 45.8954 44.3329 46.2511C44.0215 46.4827 43.5336 46.561 43.2505 46.2554C43.1232 45.3186 42.8233 44.6299 41.882 42.0775C43.0673 41.9705 43.8365 41.7894 43.9901 41.7632ZM40.4317 42.1336C40.6102 42.616 41.2153 44.2626 41.3866 44.7182C41.7863 45.7773 42.116 46.7959 41.771 47.6201C41.5141 48.2327 40.8557 48.667 40.2745 48.6261C39.6413 48.5721 39.4614 48.5013 39.2033 48.0823C39.4076 46.6616 39.3753 44.6542 39.3307 43.2132L40.0431 42.1089C40.1724 42.1173 40.2985 42.13 40.4317 42.1336ZM31.2029 49.8114C30.7566 49.3859 29.9349 48.8147 29.2249 48.4649C29.2249 47.8541 29.2233 45.8618 29.2407 45.6814C31.069 46.1484 32.5551 47.2158 33.7152 48.6659C32.8748 49.048 32.0352 49.4297 31.2029 49.8114ZM37.9821 45.3035C37.9777 46.168 37.9468 47.0989 37.851 47.8298C37.7432 48.6427 37.515 49.1435 37.153 49.3609C36.6515 49.6628 36.0098 49.3415 35.6065 48.9253C35.9352 48.5317 35.793 48.6715 37.9821 45.3035ZM33.9121 31.7504C34.6478 30.1354 36.5104 29.2787 38.2616 28.7291L33.6176 35.9185C33.5253 34.4831 33.3524 32.9776 33.9121 31.7504ZM53.8797 13.0597C56.0669 14.4969 55.9425 15.1939 54.459 17.2865C53.855 18.1375 54.0169 17.9421 53.1431 19.2829C50.6858 16.9925 48.0733 16.3792 47.9286 16.2998C50.1572 12.6528 50.5347 10.9283 53.8797 13.0597ZM31.6404 25.1701C35.5901 22.7176 39.9626 20.9215 43.9187 19.9712L39.3916 26.9798C26.5321 30.1535 36.0808 37.7234 29.9525 41.7018C29.4369 42.0414 28.8755 42.2749 28.3015 42.3931L28.0823 31.2537C28.0297 28.5431 28.2454 27.2898 31.6404 25.1701ZM55.2082 55.8455C46.6064 57.3154 38.815 59.3879 32.8758 60.8696C31.0756 60.7926 28.5319 59.5499 27.2766 58.1208C26.6001 57.3515 25.6745 55.8037 24.0554 55.682C22.4637 55.5645 21.618 56.7975 20.0842 57.5765C19.7086 57.7677 17.984 57.6067 17.3882 57.1978C11.9141 50.6599 10.0557 49.0052 8.39054 46.036C7.56683 44.5655 7.09075 43.3183 6.89403 42.1115C6.78444 41.4405 7.30813 40.7322 8.01776 40.5943L26.813 36.8861L26.9133 41.9755C25.8435 41.8199 24.7245 42.1417 23.918 42.8795C23.1687 43.5663 22.7089 44.5538 22.0487 44.676C21.0986 44.8449 20.2053 43.3738 18.9874 42.8498C18.1206 42.4748 16.8864 42.5732 16.3115 43.493C15.7708 44.3563 16.1757 45.3327 15.9989 45.8608C15.8295 46.3676 14.9572 46.4632 14.4359 46.1721C13.7083 45.7634 13.2412 44.8525 12.8657 44.1204C12.6923 43.7831 12.28 43.6466 11.9378 43.8213C11.5983 43.9951 11.4644 44.411 11.6387 44.7501C12.0734 45.5994 12.6699 46.7631 13.7604 47.3753C15.0209 48.0815 16.8456 47.6775 17.3067 46.3005C17.4559 45.8559 17.4316 45.4175 17.41 45.0304C17.3912 44.6895 17.375 44.3944 17.481 44.2246C17.6157 44.0086 18.0739 43.9574 18.4413 44.1168C19.4374 44.5452 20.5176 46.3585 22.2993 46.0328C23.5968 45.7931 24.1528 44.5346 24.8504 43.8972C25.4111 43.3831 26.2529 43.2019 26.9867 43.4056C27.2169 44.0272 27.9046 43.8749 28.5673 43.74C27.7025 45.1881 27.8452 45.1276 27.8452 48.956C27.8452 48.9737 27.8352 50.8299 27.8303 51.4057C26.8494 51.7139 26.2893 50.8963 25.2546 50.3027C24.2971 49.7521 22.9128 49.6879 22.2391 50.6549C21.6744 51.4658 22.0031 52.4296 21.7837 52.8767C21.6409 53.1682 21.1675 53.281 20.7956 53.2221C19.5924 53.0317 18.5418 51.7362 16.8873 51.9318C16.1698 52.0158 16.2885 52.7933 16.2585 52.8853C16.2108 53.5815 17.1118 53.8987 17.5124 53.3272C18.5669 53.5411 19.6009 54.6158 20.9851 54.6158C21.7586 54.6158 22.6281 54.2875 23.0224 53.4844C23.4099 52.6935 23.1366 51.7812 23.3709 51.444C23.5506 51.1839 24.1515 51.2598 24.5674 51.4992C25.2194 51.8735 25.7972 52.5024 26.7062 52.7573C27.5145 52.9845 28.3903 52.7822 29.0659 52.3029C29.3433 52.1777 34.1581 49.9928 34.5391 49.7908C35.8636 51.2666 37.867 51.2257 38.7507 49.5916C39.1941 49.8879 39.8714 50.0095 40.3643 50.0095C41.5507 50.0095 42.7956 49.1512 43.1737 47.7537C44.6595 48.1486 46.0082 46.9447 46.3639 45.6228C47.9397 47.3417 49.9783 48.7352 51.9179 49.576C53.2806 50.5825 54.5953 51.7872 55.9196 52.7586C57.1239 53.6412 56.7242 55.586 55.2082 55.8455ZM52.9643 48.5192C49.0741 47.0334 46.0672 43.7837 45.3514 41.4951C49.3246 40.7387 50.3999 41.2819 52.3571 42.4878C53.6265 43.2703 54.8189 43.9793 56.3122 43.8492C56.6912 43.8168 56.9724 43.4827 56.9401 43.1031C56.9086 42.7236 56.5933 42.4407 56.1936 42.4748C54.547 42.6127 53.0833 41.1031 51.3079 40.336C48.8192 39.2607 46.1001 39.9325 43.4113 40.4712C41.1683 40.9051 38.3483 41.0461 36.7722 39.3812C35.45 37.962 38.0851 38.5334 43.9685 35.8353C46.5616 34.6462 48.7397 33.3257 50.7133 31.8789C51.0205 31.6534 51.087 31.2218 50.8615 30.9146C50.6369 30.6074 50.2058 30.5395 49.8977 30.7659C49.5293 31.0363 49.1777 31.2827 48.8332 31.5167C48.6479 30.9211 48.3667 30.3421 48.0016 29.7923L51.6479 24.1454C54.1844 28.3989 58.8102 34.2456 62.2384 36.5298C62.2126 38.2245 61.7212 43.723 61.5616 48.8965C61.5616 48.8964 61.5616 48.8966 61.5616 48.8965C58.7511 49.6792 55.6928 49.5614 52.9643 48.5192Z" fill="black"/>
<path d="M47.2279 52.3697L32.2879 56.3099C31.9197 56.4069 31.6996 56.7842 31.7966 57.1529C31.8946 57.5239 32.2748 57.7407 32.6401 57.6439L47.58 53.7036C47.9483 53.6066 48.1684 53.2293 48.0714 52.8606C47.9744 52.4923 47.5989 52.2727 47.2279 52.3697Z" fill="black"/>
</svg>
