<svg width="106" height="35" viewBox="0 0 106 35" fill="none" xmlns="http://www.w3.org/2000/svg">
<path d="M0 20.3333C0 19.2748 0.859613 18.4167 1.92 18.4167C2.98039 18.4167 3.84 19.2748 3.84 20.3333V26.0833C3.84 27.1419 2.98039 28 1.92 28C0.859613 28 0 27.1419 0 26.0833V20.3333Z" fill="#9A99EA"/>
<path d="M1.92 22.25C0.859613 22.25 0 21.3919 0 20.3333C0 19.2748 0.859613 18.4167 1.92 18.4167L8.64 18.4167C9.70039 18.4167 10.56 19.2748 10.56 20.3333C10.56 21.3919 9.70039 22.25 8.64 22.25H1.92Z" fill="#9A99EA"/>
<path d="M2.16 8.83333C1.09961 8.83333 0.24 7.97521 0.24 6.91667C0.24 5.85812 1.09961 5 2.16 5H16.08C17.1404 5 18 5.85812 18 6.91667C18 7.97521 17.1404 8.83333 16.08 8.83333H2.16Z" fill="#9A99EA"/>
<path d="M0.754138 14.9111C0.0135171 14.1535 0.0283199 12.94 0.787201 12.2007C1.54608 11.4613 2.76167 11.4761 3.50229 12.2337L9.92023 18.7985C10.6609 19.556 10.646 20.7695 9.88717 21.5088C9.12829 22.2482 7.9127 22.2334 7.17208 21.4758L0.754138 14.9111Z" fill="#9A99EA"/>
<path d="M0.621013 8.33047C-0.119608 7.57291 -0.104805 6.35943 0.654076 5.6201C1.41296 4.88076 2.62854 4.89554 3.36916 5.6531L9.78711 12.2179C10.5277 12.9754 10.5129 14.1889 9.75404 14.9282C8.99516 15.6676 7.77957 15.6528 7.03895 14.8952L0.621013 8.33047Z" fill="#9A99EA"/>
<path d="M28.212 20.524C28.212 22.0547 27.8667 23.408 27.176 24.584C26.504 25.7413 25.5893 26.6467 24.432 27.3C23.2933 27.9533 22.0147 28.28 20.596 28.28C19.1773 28.28 17.8893 27.9533 16.732 27.3C15.5933 26.6467 14.6787 25.7413 13.988 24.584C13.316 23.408 12.98 22.0547 12.98 20.524C12.98 18.9933 13.316 17.6493 13.988 16.492C14.6787 15.316 15.5933 14.4013 16.732 13.748C17.8893 13.076 19.1773 12.74 20.596 12.74C22.0147 12.74 23.2933 13.076 24.432 13.748C25.5893 14.4013 26.504 15.316 27.176 16.492C27.8667 17.6493 28.212 18.9933 28.212 20.524ZM24.852 20.524C24.852 19.572 24.656 18.7507 24.264 18.06C23.8907 17.3507 23.3773 16.8 22.724 16.408C22.0893 16.016 21.38 15.82 20.596 15.82C19.812 15.82 19.0933 16.016 18.44 16.408C17.8053 16.8 17.292 17.3507 16.9 18.06C16.5267 18.7507 16.34 19.572 16.34 20.524C16.34 21.4573 16.5267 22.2787 16.9 22.988C17.292 23.6787 17.8053 24.22 18.44 24.612C19.0933 25.004 19.812 25.2 20.596 25.2C21.38 25.2 22.0893 25.004 22.724 24.612C23.3773 24.22 23.8907 23.6787 24.264 22.988C24.656 22.2787 24.852 21.4573 24.852 20.524ZM31.6992 28C31.2139 28 30.8126 27.8413 30.4952 27.524C30.1779 27.188 30.0192 26.7773 30.0192 26.292V14.728C30.0192 14.2427 30.1779 13.8413 30.4952 13.524C30.8126 13.188 31.2139 13.02 31.6992 13.02C32.1846 13.02 32.5859 13.188 32.9032 13.524C33.2206 13.8413 33.3792 14.2427 33.3792 14.728V17.36L33.1832 15.484C33.3886 15.036 33.6499 14.644 33.9672 14.308C34.3032 13.9533 34.6766 13.664 35.0872 13.44C35.4979 13.1973 35.9366 13.02 36.4032 12.908C36.8699 12.796 37.3366 12.74 37.8032 12.74C38.3632 12.74 38.8299 12.8987 39.2032 13.216C39.5952 13.5333 39.7912 13.9067 39.7912 14.336C39.7912 14.952 39.6326 15.4 39.3152 15.68C38.9979 15.9413 38.6526 16.072 38.2792 16.072C37.9246 16.072 37.5979 16.0067 37.2992 15.876C37.0192 15.7453 36.6926 15.68 36.3192 15.68C35.9832 15.68 35.6379 15.764 35.2832 15.932C34.9472 16.0813 34.6299 16.324 34.3312 16.66C34.0512 16.996 33.8179 17.416 33.6312 17.92C33.4632 18.4053 33.3792 18.984 33.3792 19.656V26.292C33.3792 26.7773 33.2206 27.188 32.9032 27.524C32.5859 27.8413 32.1846 28 31.6992 28ZM49.0278 12.74C50.5212 12.74 51.6225 13.104 52.3318 13.832C53.0412 14.5413 53.5078 15.4653 53.7318 16.604L53.2558 16.352L53.4798 15.904C53.7038 15.4747 54.0492 15.0173 54.5158 14.532C54.9825 14.028 55.5425 13.608 56.1958 13.272C56.8678 12.9173 57.6145 12.74 58.4358 12.74C59.7798 12.74 60.7972 13.0293 61.4878 13.608C62.1972 14.1867 62.6825 14.9613 62.9438 15.932C63.2052 16.884 63.3358 17.948 63.3358 19.124V26.292C63.3358 26.7773 63.1772 27.188 62.8598 27.524C62.5425 27.8413 62.1412 28 61.6558 28C61.1705 28 60.7692 27.8413 60.4518 27.524C60.1345 27.188 59.9758 26.7773 59.9758 26.292V19.124C59.9758 18.508 59.9012 17.9573 59.7518 17.472C59.6025 16.968 59.3318 16.5667 58.9398 16.268C58.5478 15.9693 57.9878 15.82 57.2598 15.82C56.5505 15.82 55.9438 15.9693 55.4398 16.268C54.9358 16.5667 54.5532 16.968 54.2918 17.472C54.0492 17.9573 53.9278 18.508 53.9278 19.124V26.292C53.9278 26.7773 53.7692 27.188 53.4518 27.524C53.1345 27.8413 52.7332 28 52.2478 28C51.7625 28 51.3612 27.8413 51.0438 27.524C50.7265 27.188 50.5678 26.7773 50.5678 26.292V19.124C50.5678 18.508 50.4932 17.9573 50.3438 17.472C50.1945 16.968 49.9238 16.5667 49.5318 16.268C49.1398 15.9693 48.5798 15.82 47.8518 15.82C47.1425 15.82 46.5358 15.9693 46.0318 16.268C45.5278 16.5667 45.1452 16.968 44.8838 17.472C44.6412 17.9573 44.5198 18.508 44.5198 19.124V26.292C44.5198 26.7773 44.3612 27.188 44.0438 27.524C43.7265 27.8413 43.3252 28 42.8398 28C42.3545 28 41.9532 27.8413 41.6358 27.524C41.3185 27.188 41.1598 26.7773 41.1598 26.292V14.728C41.1598 14.2427 41.3185 13.8413 41.6358 13.524C41.9532 13.188 42.3545 13.02 42.8398 13.02C43.3252 13.02 43.7265 13.188 44.0438 13.524C44.3612 13.8413 44.5198 14.2427 44.5198 14.728V15.932L44.0998 15.848C44.2678 15.5307 44.5012 15.1947 44.7998 14.84C45.0985 14.4667 45.4625 14.1213 45.8918 13.804C46.3212 13.4867 46.7972 13.2347 47.3198 13.048C47.8425 12.8427 48.4118 12.74 49.0278 12.74ZM73.8403 12.74C75.3337 12.74 76.435 13.104 77.1443 13.832C77.8537 14.5413 78.3203 15.4653 78.5443 16.604L78.0683 16.352L78.2923 15.904C78.5163 15.4747 78.8617 15.0173 79.3283 14.532C79.795 14.028 80.355 13.608 81.0083 13.272C81.6803 12.9173 82.427 12.74 83.2483 12.74C84.5923 12.74 85.6097 13.0293 86.3003 13.608C87.0097 14.1867 87.495 14.9613 87.7563 15.932C88.0177 16.884 88.1483 17.948 88.1483 19.124V26.292C88.1483 26.7773 87.9897 27.188 87.6723 27.524C87.355 27.8413 86.9537 28 86.4683 28C85.983 28 85.5817 27.8413 85.2643 27.524C84.947 27.188 84.7883 26.7773 84.7883 26.292V19.124C84.7883 18.508 84.7137 17.9573 84.5643 17.472C84.415 16.968 84.1443 16.5667 83.7523 16.268C83.3603 15.9693 82.8003 15.82 82.0723 15.82C81.363 15.82 80.7563 15.9693 80.2523 16.268C79.7483 16.5667 79.3657 16.968 79.1043 17.472C78.8617 17.9573 78.7403 18.508 78.7403 19.124V26.292C78.7403 26.7773 78.5817 27.188 78.2643 27.524C77.947 27.8413 77.5457 28 77.0603 28C76.575 28 76.1737 27.8413 75.8563 27.524C75.539 27.188 75.3803 26.7773 75.3803 26.292V19.124C75.3803 18.508 75.3057 17.9573 75.1563 17.472C75.007 16.968 74.7363 16.5667 74.3443 16.268C73.9523 15.9693 73.3923 15.82 72.6643 15.82C71.955 15.82 71.3483 15.9693 70.8443 16.268C70.3403 16.5667 69.9577 16.968 69.6963 17.472C69.4537 17.9573 69.3323 18.508 69.3323 19.124V26.292C69.3323 26.7773 69.1737 27.188 68.8563 27.524C68.539 27.8413 68.1377 28 67.6523 28C67.167 28 66.7657 27.8413 66.4483 27.524C66.131 27.188 65.9723 26.7773 65.9723 26.292V14.728C65.9723 14.2427 66.131 13.8413 66.4483 13.524C66.7657 13.188 67.167 13.02 67.6523 13.02C68.1377 13.02 68.539 13.188 68.8563 13.524C69.1737 13.8413 69.3323 14.2427 69.3323 14.728V15.932L68.9123 15.848C69.0803 15.5307 69.3137 15.1947 69.6123 14.84C69.911 14.4667 70.275 14.1213 70.7043 13.804C71.1337 13.4867 71.6097 13.2347 72.1323 13.048C72.655 12.8427 73.2243 12.74 73.8403 12.74ZM101.764 13.02C102.249 13.02 102.651 13.188 102.968 13.524C103.285 13.8413 103.444 14.2427 103.444 14.728V26.628C103.444 28.3453 103.117 29.708 102.464 30.716C101.829 31.7427 100.971 32.48 99.8881 32.928C98.8055 33.376 97.5921 33.6 96.2481 33.6C95.6508 33.6 95.0161 33.5533 94.3441 33.46C93.6721 33.3667 93.1215 33.2267 92.6921 33.04C92.1321 32.7973 91.7401 32.4893 91.5161 32.116C91.3108 31.7613 91.2735 31.3787 91.4041 30.968C91.5721 30.4267 91.8428 30.0533 92.2161 29.848C92.5895 29.6613 92.9815 29.6427 93.3921 29.792C93.6908 29.8853 94.0828 30.0253 94.5681 30.212C95.0535 30.4173 95.6135 30.52 96.2481 30.52C97.1068 30.52 97.8161 30.3987 98.3761 30.156C98.9548 29.932 99.3841 29.54 99.6641 28.98C99.9628 28.4387 100.112 27.692 100.112 26.74V24.864L100.7 25.536C100.383 26.152 99.9815 26.6653 99.4961 27.076C99.0295 27.468 98.4695 27.7667 97.8161 27.972C97.1628 28.1773 96.4161 28.28 95.5761 28.28C94.5868 28.28 93.7188 28.056 92.9721 27.608C92.2441 27.1413 91.6748 26.5067 91.2641 25.704C90.8535 24.8827 90.6481 23.9493 90.6481 22.904V14.728C90.6481 14.2427 90.8068 13.8413 91.1241 13.524C91.4415 13.188 91.8428 13.02 92.3281 13.02C92.8135 13.02 93.2148 13.188 93.5321 13.524C93.8495 13.8413 94.0081 14.2427 94.0081 14.728V21.896C94.0081 23.1093 94.2695 23.968 94.7921 24.472C95.3335 24.9573 96.0801 25.2 97.0321 25.2C97.6855 25.2 98.2361 25.0787 98.6841 24.836C99.1321 24.5747 99.4775 24.2013 99.7201 23.716C99.9628 23.212 100.084 22.6053 100.084 21.896V14.728C100.084 14.2427 100.243 13.8413 100.56 13.524C100.877 13.188 101.279 13.02 101.764 13.02Z" fill="#9A99EA"/>
</svg>
