<svg width="152" height="148" viewBox="0 0 152 148" fill="none" xmlns="http://www.w3.org/2000/svg">
<path d="M46.2998 38.1C50.718 38.1001 54.2998 41.6818 54.2998 46.1V69.3002C54.2997 73.7183 50.7179 77.3001 46.2998 77.3002H16.5996C12.1814 77.3002 8.59971 73.7184 8.59961 69.3002V46.1C8.59961 41.6817 12.1813 38.1 16.5996 38.1H46.2998Z" fill="#FBE05D" stroke="#FBE05D" stroke-width="12"/>
<path d="M47.5996 85.2463C47.5997 79.1999 54.0294 75.374 59.3174 78.1624L59.5684 78.3L72.3389 85.5979C76.1761 87.7906 77.5088 92.6795 75.3145 96.5159L63.8027 116.639C61.6055 120.48 56.7073 121.808 52.8711 119.603L51.6123 118.878C49.1302 117.451 47.5996 114.806 47.5996 111.943V85.2463Z" fill="#FBE05D" stroke="#FBE05D" stroke-width="12"/>
<path d="M46.2998 70.7001C50.718 70.7002 54.2998 74.2818 54.2998 78.7001V101.9C54.2997 106.318 50.7179 109.9 46.2998 109.9H16.5996C12.1814 109.9 8.59971 106.318 8.59961 101.9V78.7001L8.61035 78.288C8.82484 74.0612 12.3196 70.7001 16.5996 70.7001H46.2998Z" fill="#FBE05D" stroke="#FBE05D" stroke-width="12"/>
<path d="M90.9766 67.5615C94.6329 65.7351 99.0923 66.9694 101.289 70.416L101.501 70.7676L116.13 96.501C118.309 100.335 116.975 105.209 113.147 107.398L93.0166 118.914C89.1788 121.109 84.2873 119.775 82.0957 115.936L71.5537 97.4648C70.1522 95.0093 70.1504 91.9958 71.5498 89.5391L79.7119 75.2109L79.8506 74.9775C80.5598 73.825 81.5504 72.8697 82.7314 72.2031L90.6143 67.7549L90.9766 67.5615Z" fill="#FBE05D" stroke="#FBE05D" stroke-width="12"/>
<path d="M95.959 60.1603C93.7742 64.0006 88.8899 65.3425 85.0496 63.1577L59.2349 48.4708C55.3948 46.2859 54.0527 41.4016 56.2375 37.5614L66.1276 20.1779C68.3124 16.3377 73.1968 14.9958 77.037 17.1805L102.852 31.8673C106.692 34.0522 108.034 38.9365 105.849 42.7768L95.959 60.1603Z" fill="#FBE05D" stroke="#FBE05D" stroke-width="12"/>
<path d="M66.2471 98.8762C69.322 93.4904 77.091 93.5003 80.1523 98.8938L87.9297 112.596C90.1131 116.443 88.7597 121.332 84.9092 123.509L64.6904 134.941C60.8501 137.112 55.9763 135.765 53.7969 131.929L52.8457 130.254C51.4506 127.798 51.4541 124.789 52.8545 122.336L66.2471 98.8762Z" fill="#FBE05D" stroke="#FBE05D" stroke-width="12"/>
<path d="M46.2998 103.2C50.718 103.2 54.2998 106.782 54.2998 111.2V131.359C54.2998 132.776 53.9237 134.167 53.21 135.391L53.0127 135.728C52.0366 137.781 49.9444 139.2 47.5205 139.2H16.5996C12.1813 139.2 8.59961 135.618 8.59961 131.2V111.2C8.59961 106.782 12.1813 103.2 16.5996 103.2H46.2998ZM31.3994 118.6C29.373 118.601 27.6994 120.254 27.6992 122.3C27.6992 124.286 29.4132 126 31.3994 126C33.426 126 35.0996 124.346 35.0996 122.3C35.0994 120.314 33.3856 118.6 31.3994 118.6Z" fill="#FBE05D" stroke="#FBE05D" stroke-width="12"/>
<path d="M95.7089 74.009C93.5273 70.167 94.8731 65.2837 98.7151 63.102L116.107 53.2259C119.948 51.0442 124.832 52.3902 127.014 56.232L141.68 82.0585C143.861 85.9005 142.516 90.7838 138.674 92.9655L121.282 102.842C117.44 105.023 112.557 103.678 110.375 99.8355L95.7089 74.009Z" fill="#FBE05D" stroke="#FBE05D" stroke-width="12"/>
<path d="M51.8906 45.3756C54.0761 41.891 58.5659 40.6341 62.2432 42.4772L62.6084 42.6715L88.4131 57.2916C92.2635 59.4731 93.6113 64.3662 91.4209 68.2115L79.9053 88.4283C77.7155 92.2726 72.8206 93.6098 68.9805 91.4127L51.627 81.484C49.1364 80.0591 47.5996 77.409 47.5996 74.5397V55.1207C47.5996 53.7552 47.9495 52.4125 48.6152 51.2203L51.6797 45.7321L51.8906 45.3756Z" fill="#FBE05D" stroke="#FBE05D" stroke-width="12"/>
<path d="M46.2998 8.90002C50.718 8.90013 54.2998 12.4818 54.2998 16.9V36.9C54.2998 41.3182 50.718 44.8999 46.2998 44.9H16.5996C12.1813 44.9 8.59961 41.3183 8.59961 36.9V16.9C8.59961 12.4817 12.1813 8.90002 16.5996 8.90002H46.2998Z" fill="#FBE05D" stroke="#FBE05D" stroke-width="12"/>
<path d="M13.5996 42.1V69.3H47.2996V51.9V42.1H13.5996Z" fill="black"/>
<path d="M52.5996 111.1L56.5996 113.4L70.0996 89.8L52.5996 79.8V111.1Z" fill="black"/>
<path d="M47.2996 74.7001H13.5996V101.9H47.2996V74.7001Z" fill="black"/>
<path d="M94.2992 70L84.1992 75.7L75.1992 91.5L87.2992 112.7L110.899 99.2L94.2992 70Z" fill="black"/>
<path d="M88.755 56.9316L100.623 36.0714L71.3318 19.4067L59.4637 40.2669L88.755 56.9316Z" fill="black"/>
<path d="M72.2 96.8L56.5 124.3L59 128.7L82.7 115.3L72.2 96.8Z" fill="black"/>
<path d="M46.5996 131.1L47.2996 129.9V107.2H13.5996V131.2H27.7996H46.5996V131.1ZM20.6996 120.3C20.6996 114.9 25.0996 110.6 30.3996 110.6C35.6996 110.6 40.0996 115 40.0996 120.3C40.0996 125.7 35.6996 130 30.3996 130C25.0996 130 20.6996 125.6 20.6996 120.3Z" fill="black"/>
<path d="M98.9388 67.3072L115.58 96.6118L136.45 84.7605L119.809 55.4559L98.9388 67.3072Z" fill="black"/>
<path d="M52.5996 73.7L72.6996 85.2L86.1996 61.5L56.8996 44.9L52.5996 52.6V73.7Z" fill="black"/>
<path d="M47.2996 12.9H13.5996V36.9H47.2996V12.9Z" fill="black"/>
</svg>
