<svg width="79" height="86" viewBox="0 0 79 86" fill="none" xmlns="http://www.w3.org/2000/svg">
<path d="M13.6719 58.3V62.8143C13.6719 71.6172 20.669 78.6143 29.4719 78.6143C37.9968 78.6143 44.8282 72.052 45.2511 63.6425C45.2778 63.1128 45.4826 62.6036 45.8577 62.2285L58.2289 49.8572C58.604 49.4822 58.8147 48.9735 58.8147 48.443V34.3743C58.8147 33.751 59.32 33.2457 59.9433 33.2457C61.749 33.2457 63.329 31.8915 63.329 30.0857C63.329 28.28 61.749 26.4743 59.9433 26.4743H26.0862C24.2804 26.4743 22.7004 28.0543 22.7004 30.0857C22.7004 32.1172 24.2804 33.2457 26.0862 33.2457C26.7095 33.2457 27.2147 33.751 27.2147 34.3743V48.2173C27.2147 48.7477 27.4254 49.2565 27.8005 49.6315L40.1718 62.0028C40.5469 62.3779 40.7662 62.8879 40.7269 63.4169C40.3015 69.1459 35.5035 73.8743 29.4719 73.8743C23.1519 73.8743 18.1862 68.9086 18.1862 62.5886V59.8486C18.1862 58.744 17.2907 57.8486 16.1862 57.8486H14.1233C13.874 57.8486 13.6719 58.0507 13.6719 58.3ZM36.2433 42.5C35.1147 42.5 33.9862 41.3715 33.9862 40.2429C33.9862 38.8886 35.1147 37.9857 36.2433 37.9857H49.7862C50.9147 37.9857 52.0433 38.8886 52.0433 40.2429C52.0433 41.3715 50.9147 42.5 49.7862 42.5H36.2433ZM33.9862 6.38574C31.5033 6.38574 29.4719 8.41717 29.4719 10.9V20.1857C29.4719 21.2903 30.3673 22.1857 31.4719 22.1857H36.5004C37.605 22.1857 38.5004 21.2903 38.5004 20.1857V10.9C38.5004 8.41717 36.469 6.38574 33.9862 6.38574ZM52.0433 6.38574C49.5604 6.38574 47.529 8.41717 47.529 10.9V20.1857C47.529 21.2903 48.4244 22.1857 49.529 22.1857H54.5576C55.6622 22.1857 56.5576 21.2903 56.5576 20.1857V10.9C56.5576 8.41717 54.5262 6.38574 52.0433 6.38574Z" fill="black" stroke="#FBE05D" stroke-width="12"/>
<path d="M13.6719 58.3V62.8143C13.6719 71.6172 20.669 78.6143 29.4719 78.6143C38.2747 78.6143 45.2719 71.6172 45.2719 62.8143L58.8147 49.2715V33.2457H59.9433C61.749 33.2457 63.329 31.8915 63.329 30.0857C63.329 28.28 61.749 26.4743 59.9433 26.4743H26.0862C24.2804 26.4743 22.7004 28.0543 22.7004 30.0857C22.7004 32.1172 24.2804 33.2457 26.0862 33.2457H27.2147V49.0457L40.7576 62.5886C40.7576 68.6829 35.7919 73.8743 29.4719 73.8743C23.1519 73.8743 18.1862 68.9086 18.1862 62.5886V57.8486H13.6719V58.3ZM36.2433 42.5C35.1147 42.5 33.9862 41.3715 33.9862 40.2429C33.9862 38.8886 35.1147 37.9857 36.2433 37.9857H49.7862C50.9147 37.9857 52.0433 38.8886 52.0433 40.2429C52.0433 41.3715 50.9147 42.5 49.7862 42.5H36.2433ZM33.9862 6.38574C31.5033 6.38574 29.4719 8.41717 29.4719 10.9V22.1857H38.5004V10.9C38.5004 8.41717 36.469 6.38574 33.9862 6.38574ZM52.0433 6.38574C49.5604 6.38574 47.529 8.41717 47.529 10.9V22.1857H56.5576V10.9C56.5576 8.41717 54.5262 6.38574 52.0433 6.38574Z" fill="black"/>
</svg>
