<svg width="40" height="40" viewBox="0 0 40 40" fill="none" xmlns="http://www.w3.org/2000/svg">
<g clip-path="url(#clip0_353_1801)">
<rect width="40" height="40" rx="20" fill="#B6B6BA"/>
<g clip-path="url(#clip1_353_1801)">
<path d="M40.578 30.6319C40.5594 30.6213 40.5406 30.611 40.5217 30.601C38.7786 29.6739 37.2445 28.3988 36.0142 26.8547C38.5143 26.3004 40.7509 24.9106 42.3553 22.9146C43.9596 20.9187 44.836 18.4356 44.8398 15.8747C44.8398 15.3774 44.6423 14.9005 44.2907 14.5489C43.939 14.1973 43.4621 13.9997 42.9648 13.9997C42.4676 13.9997 41.9906 14.1973 41.639 14.5489C41.2874 14.9005 41.0898 15.3774 41.0898 15.8747C41.0867 17.776 40.3619 19.6053 39.062 20.9928C37.762 22.3803 35.9838 23.2226 34.0867 23.3494C33.8257 22.6339 33.6361 21.8944 33.5205 21.1416L32.4526 13.6997C31.8767 10.4349 30.0981 7.50441 27.4678 5.48642C24.8374 3.46842 21.5463 2.50942 18.2437 2.79859C14.9411 3.08777 11.8667 4.60412 9.62711 7.04853C7.38751 9.49294 6.14531 12.6879 6.14551 16.0032L6.26261 24.225C4.48086 23.9655 2.85179 23.0739 1.67269 21.7131C0.493592 20.3522 -0.156918 18.6128 -0.160158 16.8122C-0.160158 16.3149 -0.357698 15.838 -0.709328 15.4864C-1.06096 15.1348 -1.53788 14.9372 -2.03516 14.9372C-2.53244 14.9372 -3.00935 15.1348 -3.36098 15.4864C-3.71261 15.838 -3.91016 16.3149 -3.91016 16.8122C-3.90636 19.6173 -2.85585 22.3199 -0.964248 24.3911C0.927352 26.4624 3.52385 27.7531 6.31701 28.0107L6.36951 31.71C6.41801 35.1353 7.03911 38.5284 8.20701 41.7488C11.3945 50.5069 15.3789 56.4582 19.2705 55.0407C20.3673 54.6422 21.0489 53.2078 21.4736 51.4266C21.5951 50.9278 21.8328 50.4648 22.1674 50.0755C22.502 49.6861 22.9238 49.3813 23.3986 49.1861C23.8734 48.9908 24.3876 48.9106 24.8993 48.952C25.411 48.9933 25.9057 49.1551 26.343 49.4241C32.2511 52.3744 38.2914 52.1822 40.2273 48.8288C40.8385 47.7001 41.0025 46.3828 40.6867 45.1388C40.6349 44.8576 40.6478 44.5683 40.7245 44.2928C40.8012 44.0173 40.9396 43.763 41.1293 43.549C41.319 43.335 41.5549 43.167 41.8192 43.0578C42.0835 42.9487 42.3691 42.9011 42.6545 42.9188C44.9326 43.0594 46.7308 42.4753 47.5089 41.1282C49.0623 38.4375 45.9592 33.7388 40.578 30.6319Z" fill="#B6B6BA"/>
<path d="M25.1523 20.5625C26.7056 20.5625 27.9648 18.4638 27.9648 15.875C27.9648 13.2862 26.7056 11.1875 25.1523 11.1875C23.599 11.1875 22.3398 13.2862 22.3398 15.875C22.3398 18.4638 23.599 20.5625 25.1523 20.5625Z" fill="#373737"/>
<path d="M13.9023 20.5625C15.4556 20.5625 16.7148 18.4638 16.7148 15.875C16.7148 13.2862 15.4556 11.1875 13.9023 11.1875C12.349 11.1875 11.0898 13.2862 11.0898 15.875C11.0898 18.4638 12.349 20.5625 13.9023 20.5625Z" fill="#373737"/>
</g>
</g>
<defs>
<clipPath id="clip0_353_1801">
<rect width="40" height="40" rx="20" fill="white"/>
</clipPath>
<clipPath id="clip1_353_1801">
<rect width="52" height="54" fill="white" transform="translate(-4 2)"/>
</clipPath>
</defs>
</svg>
