<svg width="413" height="312" viewBox="0 0 413 312" fill="none" xmlns="http://www.w3.org/2000/svg">
<g clip-path="url(#clip0_1540_913)">
<path d="M257.216 206.768C256.608 213.206 248.018 215.96 243.156 211.303C240.158 208.428 235.255 208.185 231.973 210.777L223.019 217.782C219.412 220.617 213.942 220.009 211.147 216.446L206.487 210.534C203.57 206.849 197.816 206.363 194.251 209.521L181.366 220.9C179.826 222.237 177.8 223.006 175.693 223.006H175.288C171.155 223.006 167.711 220.171 167.184 216.405C164.065 193.688 163.335 165.099 164.551 139.345C164.915 132.056 167.184 125.253 170.953 119.341C171.277 118.815 171.641 118.288 172.006 117.762C176.544 111.283 182.946 105.978 190.442 102.536C192.873 100.876 196.925 100.067 196.925 100.067C196.925 100.067 201.179 96.8273 215.563 96.8267C226.098 96.8267 225.895 98.2432 234.404 102.536C248.383 111.405 247.573 113.955 248.91 114.644C252.759 119.179 255.676 124.443 257.297 130.193C257.499 130.882 257.662 131.611 257.864 132.299C258.391 134.688 258.756 137.118 258.877 139.629C259.728 160.402 259.323 184.577 257.216 206.768Z" fill="#9A99EA"/>
<path d="M209.486 130.637C209.486 140.72 203.489 148.86 196.115 148.86C194.413 148.86 192.792 148.414 191.293 147.645C198.667 147.604 204.623 139.749 204.623 130.03C204.623 121.405 199.923 114.237 193.684 112.699C194.453 112.496 195.264 112.415 196.115 112.415C203.489 112.415 209.486 120.595 209.486 130.637Z" fill="#9A99EA"/>
<path d="M204.623 130.028C204.623 139.747 198.667 147.603 191.293 147.643C186.268 145.011 182.743 138.37 182.743 130.636C182.743 121.686 187.443 114.276 193.683 112.697C199.923 114.235 204.623 121.403 204.623 130.028Z" fill="#11151A"/>
<path d="M243.886 129.627C243.886 138.454 238.619 145.622 232.136 145.622C230.799 145.622 229.502 145.298 228.327 144.771C234.324 144.083 239.024 137.685 239.024 129.829C239.024 121.69 233.959 115.089 227.638 114.846C229.016 114.036 230.556 113.631 232.136 113.631C238.619 113.631 243.886 120.799 243.886 129.627Z" fill="#9A99EA"/>
<path d="M239.022 129.828C239.022 137.643 234.322 144.082 228.325 144.77C223.706 142.624 220.424 136.671 220.424 129.625C220.424 122.985 223.423 117.275 227.637 114.845C233.957 115.088 239.022 121.729 239.022 129.828Z" fill="#11151A"/>
<path d="M185.103 147.411C185.865 145.309 183.241 142.431 179.244 140.985C175.246 139.539 171.387 140.071 170.626 142.174C169.864 144.277 172.487 147.154 176.485 148.6C180.483 150.047 184.342 149.514 185.103 147.411Z" fill="#9A99EA"/>
<path d="M247.733 149.447C251.731 148.001 254.355 145.124 253.593 143.021C252.832 140.918 248.973 140.386 244.975 141.832C240.977 143.278 238.354 146.155 239.116 148.258C239.877 150.361 243.735 150.893 247.733 149.447Z" fill="#9A99EA"/>
<path d="M158.814 130.011L162.357 131.09C162.305 131.712 162.262 132.337 162.262 132.972C162.262 145.417 172.393 155.542 184.847 155.542C197.3 155.542 207.432 145.417 207.432 132.972C207.432 129.949 206.825 127.069 205.742 124.432C207.599 123.259 209.749 122.621 212 122.621C214.251 122.621 216.4 123.259 218.258 124.432C217.175 127.069 216.568 129.949 216.568 132.972C216.568 145.417 226.7 155.542 239.153 155.542C251.607 155.542 261.738 145.417 261.738 132.972C261.738 132.337 261.695 131.712 261.643 131.09L265.186 130.011C266.056 129.745 266.547 128.826 266.281 127.956C266.016 127.086 265.093 126.595 264.226 126.862L261.119 127.808C258.773 117.846 249.827 110.4 239.153 110.4C230.898 110.4 223.685 114.863 219.745 121.487C217.428 120.091 214.776 119.329 212 119.329C209.224 119.329 206.572 120.091 204.255 121.487C200.315 114.863 193.102 110.4 184.847 110.4C174.173 110.4 165.227 117.846 162.881 127.808L159.774 126.862C158.902 126.594 157.983 127.086 157.719 127.956C157.453 128.826 157.944 129.745 158.814 130.011ZM221.02 126.456C221.171 126.5 221.322 126.545 221.478 126.545C221.899 126.545 222.321 126.384 222.642 126.063C223.286 125.42 223.286 124.378 222.642 123.735C222.557 123.649 222.462 123.576 222.375 123.492C225.693 117.65 231.965 113.692 239.153 113.692C249.79 113.692 258.444 122.341 258.444 132.972C258.444 143.602 249.79 152.25 239.153 152.25C228.516 152.25 219.862 143.602 219.862 132.972C219.862 130.682 220.284 128.495 221.02 126.456ZM184.847 113.692C192.035 113.692 198.307 117.65 201.625 123.492C201.538 123.576 201.443 123.649 201.358 123.735C200.714 124.378 200.714 125.42 201.358 126.063C201.798 126.503 202.421 126.618 202.98 126.456C203.716 128.495 204.138 130.682 204.138 132.972C204.138 143.602 195.484 152.25 184.847 152.25C174.21 152.25 165.556 143.602 165.556 132.972C165.556 122.341 174.21 113.692 184.847 113.692Z" fill="#D4D4D7"/>
</g>
<rect x="92" y="131.005" width="46" height="144" rx="4" fill="#F4DE97"/>
<circle cx="107.5" cy="158.505" r="7.5" fill="white"/>
<circle cx="126.5" cy="158.505" r="7.5" fill="white"/>
<circle cx="110.5" cy="158.505" r="4.5" fill="black"/>
<circle cx="123.5" cy="158.505" r="4.5" fill="black"/>
<path d="M118.157 143.568C115.039 143.568 110.819 143.26 108.501 142.068C107.417 141.511 105.087 138.494 105.002 134.834C104.953 132.715 105.758 131.864 106.501 131.068C107.192 130.328 109.048 129.875 110.78 129.397C112.61 128.893 114.181 129.55 115.007 130.264C115.777 130.929 115.675 132.412 115.429 133.764C115.32 134.366 114.692 134.643 114.111 134.806C113.53 134.968 112.875 134.968 112.292 134.653C111.022 133.966 110.711 131.953 110.793 130.045C110.827 129.236 111.038 128.767 111.369 128.365C112.797 126.628 114.191 125.753 117.001 126.068C118.172 126.384 120.46 127.63 120.798 129.295C121.135 130.96 121.135 133.64 120.142 137.357" stroke="black" stroke-width="2" stroke-linecap="round"/>
<path d="M290.121 198.215C292.12 196.149 295.581 196.803 296.687 199.456L323.639 264.058C324.865 266.996 322.334 270.119 319.205 269.528L243.586 255.238C240.457 254.647 239.24 250.815 241.454 248.527L290.121 198.215Z" fill="#D38DAB"/>
<ellipse cx="276.204" cy="230.617" rx="9" ry="7.5" transform="rotate(10.7011 276.204 230.617)" fill="white"/>
<ellipse cx="298.804" cy="234.887" rx="9" ry="7.5" transform="rotate(10.7011 298.804 234.887)" fill="white"/>
<circle cx="276.695" cy="230.709" r="4.5" transform="rotate(10.7011 276.695 230.709)" fill="black"/>
<circle cx="299.295" cy="234.98" r="4.5" transform="rotate(10.7011 299.295 234.98)" fill="black"/>
<path d="M412.991 226.767C403.959 226.767 396.199 219.921 395.262 210.755L391.873 177.796L364.31 188.143C358.712 190.239 352.424 189.392 347.562 185.891C342.723 182.368 339.958 176.659 340.203 170.682L340.917 154.18L323.791 165.91C311.927 174.317 294.845 164.706 295.893 150.189L300.978 60.2528C303.23 36.704 336.992 38.5772 336.591 62.2598L333.558 115.958L350.172 104.585C355.747 100.772 362.994 100.437 368.904 103.693C374.813 106.971 378.359 113.304 378.069 120.061L376.998 145.26L400.971 136.251C411.474 131.992 424.118 139.819 424.988 151.125L430.741 207.098C431.879 217.535 423.472 226.834 412.968 226.767H412.991Z" fill="#C85E88"/>
<circle cx="303.5" cy="79.5" r="7.5" fill="white"/>
<circle cx="322.5" cy="79.5" r="7.5" fill="white"/>
<circle cx="300.5" cy="79.5" r="4.5" fill="black"/>
<circle cx="319.5" cy="79.5" r="4.5" fill="black"/>
<path d="M294 65.8615C294 65.7115 294.075 65.4091 294.376 65.0306C295.891 63.1271 300.134 64.8748 301.648 65.9695C302.591 66.6511 302.864 67.603 303.468 67.8304C305.184 68.4767 306.5 66.5481 307.788 65.4489C308.879 64.5174 310.738 64.12 314.033 64.1177C315.499 64.1167 316.426 65.3295 318.017 65.2943C320.097 65.2482 321.505 62.3785 322.491 62.0727C323.756 61.6801 324.688 62.9787 326.391 63.5482C327.624 63.9608 330.504 64.0427 332.608 64.3064C333.1 64.5702 333.557 64.7998 334.048 64.9885C334.314 65.1022 334.614 65.2522 335.378 65.4068" stroke="black" stroke-width="2" stroke-linecap="round"/>
<g clip-path="url(#clip1_1540_913)">
<path d="M256 83.0021C265.389 83.0021 273 75.927 273 67.1993C273 58.4716 265.389 51.3965 256 51.3965C246.611 51.3965 239 58.4716 239 67.1993C239 75.927 246.611 83.0021 256 83.0021Z" fill="#DCE7B2"/>
<path d="M256.718 67.6782C260.157 67.6782 262.944 64.8911 262.944 61.4529C262.944 58.0147 260.157 55.2275 256.718 55.2275C253.28 55.2275 250.493 58.0147 250.493 61.4529C250.493 64.8911 253.28 67.6782 256.718 67.6782Z" fill="white"/>
<path d="M256.718 65.284C258.834 65.284 260.549 63.5689 260.549 61.4531C260.549 59.3373 258.834 57.6221 256.718 57.6221C254.603 57.6221 252.887 59.3373 252.887 61.4531C252.887 63.5689 254.603 65.284 256.718 65.284Z" fill="black"/>
</g>
<ellipse cx="198.5" cy="279.005" rx="35.5" ry="33" fill="#B2E7CA"/>
<circle cx="200" cy="267.005" r="13" fill="white"/>
<circle cx="200" cy="267.005" r="8" fill="black"/>
<path d="M174 248.576C175.451 249.095 178.642 249.199 181.748 248.504C183.935 248.015 184.74 245.933 185.025 245.286C185.322 244.613 185.21 243.704 184.874 242.874C184.737 242.536 184.486 242.455 184.201 242.402C183.915 242.35 183.555 242.35 183.293 242.427C182.427 242.681 182.304 243.747 182.225 244.5C182.146 245.26 182.198 246.185 182.715 247.094C183.197 247.941 184.271 248.471 185.282 248.99C187.065 249.906 190.383 248.891 191.949 248.191C194.115 247.223 193.976 245.83 194.47 244.198C194.659 243.571 194.498 243.129 194.317 242.819C194.087 242.424 193.565 242.247 192.997 242.091C192.15 241.859 191.437 242.141 191.152 242.399C190.507 242.984 190.657 244.52 190.889 245.538C191.258 247.159 193.247 248.106 194.853 248.833C197.097 249.849 200.299 248.994 202.221 248.165C203.419 247.649 203.992 246.866 204.173 246.555C204.534 245.938 204.512 244.641 204.177 243.753C203.845 242.876 202.339 242.611 201.04 242.608C200.758 242.607 200.623 242.916 200.518 243.099C200.333 243.421 200.309 244.263 200.412 245.429C200.547 246.963 203.354 247.997 205.208 248.731C206.923 249.409 210.107 249.51 211.46 249.098C213.417 248.502 214.058 246.867 214.603 246.192C214.929 245.788 214.993 245.309 215.046 244.947C215.112 244.484 214.685 243.961 214.168 243.494C213.698 243.071 213.18 242.921 212.791 242.869C212.454 242.823 212.142 243.178 211.857 243.592C211.283 244.426 211.362 246.693 211.929 248.571C212.408 250.156 213.694 250.286 215.117 251.038C215.971 251.49 217.629 251.74 219.598 252.051C220.951 252.157 222.2 252.003 223.392 251.744C223.865 251.639 224.071 251.587 224.594 251.379" stroke="black" stroke-width="2" stroke-linecap="round"/>
<rect x="121" y="26.7012" width="86" height="69" rx="4" transform="rotate(-13.9251 121 26.7012)" fill="#ABDAE2"/>
<ellipse cx="150.799" cy="46.1187" rx="13" ry="17" transform="rotate(-14.3134 150.799 46.1187)" fill="white"/>
<ellipse cx="150.799" cy="46.1185" rx="8" ry="10" transform="rotate(-14.3134 150.799 46.1185)" fill="black"/>
<ellipse cx="175.992" cy="39.691" rx="13" ry="17" transform="rotate(-14.3134 175.992 39.691)" fill="white"/>
<ellipse cx="175.992" cy="39.6908" rx="8" ry="10" transform="rotate(-14.3134 175.992 39.6908)" fill="black"/>
<path d="M181.919 18.2815C180.611 15.1064 179.562 12.4774 180 8.98656C180.5 5.00477 180.858 4.48151 182.219 3.33549C183 2.67853 184.443 3.10928 185.004 3.33549C186.206 3.82107 186.968 5.55395 187.72 7.82419C187.951 8.52249 187.815 9.45124 187.677 10.0045C187.538 10.5577 187.26 10.7376 186.931 10.7403C186.603 10.7431 186.232 10.5632 185.995 10.3356C185.561 9.91983 185.569 8.03132 185.662 5.53487C185.74 3.43921 187 2.50476 190.057 1.43181C191.265 1.00811 193.474 0.691357 195.5 1.50488C197.068 2.13475 197.732 4.37658 198.156 6.91391C198.652 9.88154 197.182 12.0894 195.916 13.5093C195.681 13.7723 195.217 13.6483 195.026 13.4685C194.835 13.2886 194.835 12.9288 194.974 12.6086C195.26 11.9492 195.955 11.6506 196.608 11.5144C196.977 11.4372 197.446 11.468 197.731 11.6029C198.863 12.1389 199.653 13.4314 199 18.0048C198.5 21.5048 197.553 23.1817 196.477 23.9121C196.149 24.0048 195.778 24.0048 195.396 24.0048" stroke="black" stroke-width="2" stroke-linecap="round"/>
<path d="M66.92 117.685C82.11 108.945 92.28 92.0551 92.89 74.5351C93.25 64.0251 89.87 52.7551 81.45 46.4451C73.03 40.1351 59.13 41.0851 53.7 50.0851C49.43 57.1651 51.02 67.1151 45.41 73.1851C39.75 79.3251 29.92 78.3151 22.11 81.2451C6.69998 87.0351 1.05998 110.805 15.27 120.905C27.84 129.835 55.04 124.505 66.92 117.675V117.685Z" fill="#E9BEA4"/>
<circle cx="61.5" cy="83.5049" r="7.5" fill="white"/>
<circle cx="80.5" cy="83.5049" r="7.5" fill="white"/>
<circle cx="58.5" cy="83.5049" r="4.5" fill="black"/>
<circle cx="77.5" cy="83.5049" r="4.5" fill="black"/>
<path d="M248.628 46.9867C249.223 46.9867 250.542 47.1 251.014 47.3575C251.937 47.86 253.113 49.0961 253.533 49.8882C253.771 50.3371 253.777 51.8372 253.592 52.8636C253.515 53.2898 252.863 53.1656 252.592 53.1232C252.457 53.1021 252.349 52.9957 252.262 52.7679C252.044 52.1949 252.117 51.5094 252.316 50.8962C252.56 50.1451 253.4 49.309 254.314 48.4092C254.728 48.0007 255.114 47.7642 256.054 47.4064C256.994 47.0485 258.495 46.5954 259.679 46.3195C260.863 46.0436 261.684 45.9586 262.532 45.9149C263.38 45.8711 264.23 45.8711 265.105 45.8711" stroke="black" stroke-width="2" stroke-linecap="round"/>
<defs>
<clipPath id="clip0_1540_913">
<rect width="112" height="146" fill="white" transform="translate(156 77.0049)"/>
</clipPath>
<clipPath id="clip1_1540_913">
<rect width="34" height="34" fill="white" transform="translate(239 49)"/>
</clipPath>
</defs>
</svg>
