<svg width="84" height="82" viewBox="0 0 84 82" fill="none" xmlns="http://www.w3.org/2000/svg">
<path fill-rule="evenodd" clip-rule="evenodd" d="M8 22C8 30.286 14.72 37 23.01 37H60.99C69.283 37 76 30.286 76 22C76 13.714 69.28 7 60.99 7H23.01C14.717 7 8 13.714 8 22ZM8 60C8 68.286 14.72 75 23.01 75H60.99C69.283 75 76 68.286 76 60C76 51.714 69.28 45 60.99 45H23.01C14.717 45 8 51.714 8 60Z" fill="#76D3CB"/>
<path d="M12 22C12 28.076 16.925 33 23 33C29.076 33 34 28.075 34 22M50 60C50 66.076 54.925 71 61 71C67.076 71 72 66.075 72 60M8 22C8 30.286 14.72 37 23.01 37H60.99C69.283 37 76 30.286 76 22C76 13.714 69.28 7 60.99 7H23.01C14.717 7 8 13.714 8 22ZM8 60C8 68.286 14.72 75 23.01 75H60.99C69.283 75 76 68.286 76 60C76 51.714 69.28 45 60.99 45H23.01C14.717 45 8 51.714 8 60Z" stroke="#76D3CB" stroke-width="12"/>
<g clip-path="url(#clip0_805_818)">
<path fill-rule="evenodd" clip-rule="evenodd" d="M8 22C8 30.286 14.72 37 23.01 37H60.99C69.283 37 76 30.286 76 22C76 13.714 69.28 7 60.99 7H23.01C14.717 7 8 13.714 8 22ZM12 22C12 15.925 16.924 11 23 11C29.075 11 34 15.924 34 22C34 28.075 29.076 33 23 33C16.925 33 12 28.076 12 22ZM8 60C8 68.286 14.72 75 23.01 75H60.99C69.283 75 76 68.286 76 60C76 51.714 69.28 45 60.99 45H23.01C14.717 45 8 51.714 8 60ZM50 60C50 53.925 54.924 49 61 49C67.075 49 72 53.924 72 60C72 66.075 67.076 71 61 71C54.925 71 50 66.076 50 60Z" fill="black"/>
</g>
<defs>
<clipPath id="clip0_805_818">
<rect width="68" height="68" fill="white" transform="translate(8 7)"/>
</clipPath>
</defs>
</svg>
