<svg width="82" height="76" viewBox="0 0 82 76" fill="none" xmlns="http://www.w3.org/2000/svg">
<path d="M53.2 25.1L52.1 23.1C51.1 21.3 49.9 19.1 48.9 16.7C48.5 15.7 48.1 14.7 47.8 13.8C46.7 10.5 43.6 8.30005 40.2 8.30005C36.8 8.30005 33.8 10.4 32.7 13.6C32.7 13.7 32.7 13.7 32.6 13.8C31.5 17.2 29.8 20.4 28.3 23.1L27.2 25.1C27.1 25.3 27 25.6 27.1 25.9C27.2 26.2 27.3 26.4 27.6 26.5C29.1 27.3 30.6 27.9 32.1 28.4C31.4 29.2 31 30.3 31 31.4V31.9H30.7C29.9 31.9 29.1 32.3 28.5 32.9C27.9 33.5 27.7 34.4001 27.8 35.2001L28.8 44.1C29 45.6 30.2 46.7001 31.7 46.7001H48.6C50.1 46.7001 51.4 45.6 51.5 44.1L52.5 35.2001C52.6 34.4001 52.3 33.5 51.8 32.9C51.3 32.4 50.6 32 49.9 31.9V31.5C49.9 30.3 49.4 29.1 48.6 28.3C50 27.8 51.4 27.2 52.8 26.5C53 26.4 53.2 26.2 53.3 25.9C53.4 25.7 53.3 25.4 53.2 25.1ZM40.1 10.3C42.7 10.3 45 12 45.8 14.4C46.1 15.3 46.4 16.1 46.8 17C43 16.8 41.5 15.8 41.5 15.8C39 13.9 36.6 13.5 34.7 13.7C35.7 11.7 37.8 10.3 40.1 10.3ZM43.1 27.3C42.2 27.8 41.2 28 40.2 28C39.2 28 38.3 27.8 37.4 27.3C38.5 26.7 39.2 25.6 39.2 24.3V23.6C39.6 23.7 40 23.7 40.4 23.7C40.8 23.7 41.2 23.7 41.6 23.6V24.5C41.6 25.6 42.2 26.7 43.1 27.3ZM40.4 21.8C38.3 21.8 36.6 20.1 36.6 18C36.6 17.3 36.8 16.5 37.2 15.9C38.3 16.2 39.3 16.7 40.3 17.4C40.5 17.5 41.6 18.3 44.1 18.7C43.8 20.5 42.2 21.8 40.4 21.8ZM40.5 40.3H39.7C39.1 40.3 38.7 39.9 38.7 39.3C38.7 38.8 39.1 38.3 39.7 38.3H40.5C41 38.3 41.5 38.8 41.5 39.3C41.5 39.9 41.1 40.3 40.5 40.3ZM47.9 31.9H32.9V31.4C32.9 30.4 33.4 29.5 34.3 29L35.4 28.4C36.8 29.4 38.5 29.9 40.3 29.9C42.1 29.9 43.8 29.4 45.2 28.3L45.9 28.7001L46.5 29C47.4 29.5 47.9 30.4 47.9 31.4V31.9Z" fill="black" stroke="#76D3CB" stroke-width="14"/>
<path d="M33.1996 53.3C32.5996 52.7 31.7996 52.3 30.9996 52.3H30.7996V52.1C30.7996 50.4 29.8996 48.8 28.2996 48L25.1996 46.3C24.6996 46.1 24.3996 45.6 24.3996 45.1V43.7C25.5996 42.7 26.4996 41.2 26.4996 39.5V35.9C26.4996 33.5 24.5996 31.6 22.1996 31.6H15.4996C14.8996 31.6 14.4996 32.1 14.4996 32.6V34C14.4996 35.1 15.0996 36.1 15.8996 36.7V39.5C15.8996 41.2 16.6996 42.7 17.9996 43.7V44.9C17.9996 45.4 17.6996 45.9 17.1996 46.2L14.0996 47.9C12.5996 48.7 11.5996 50.3 11.5996 52V52.4C10.8996 52.5 10.1996 52.8 9.69963 53.4C9.19963 54 8.89963 54.8 8.99963 55.6L9.99963 64.5C10.1996 66 11.4996 67.1 12.9996 67.1H29.8996C31.3996 67.1 32.6996 66 32.7996 64.5L33.7996 55.6C33.9996 54.8 33.6996 54 33.1996 53.3ZM17.8996 39.5V37.3H24.4996V39.5C24.4996 41.3 22.9996 42.8 21.1996 42.8C19.3996 42.8 17.8996 41.3 17.8996 39.5ZM13.6996 52.3V52C13.6996 51 14.1996 50.1 15.0996 49.6L17.6996 48.2L19.0996 49.1L18.2996 52.3H13.6996ZM20.7996 60.7H19.9996C19.4996 60.7 18.9996 60.3 18.9996 59.7C18.9996 59.2 19.4996 58.7 19.9996 58.7H20.7996C21.3996 58.7 21.7996 59.2 21.7996 59.7C21.7996 60.3 21.3996 60.7 20.7996 60.7ZM20.3996 52.3L20.8996 50.1C20.9996 50.1 21.0996 50.1 21.1996 50.1C21.2996 50.1 21.3996 50.1 21.4996 50L22.1996 52.2H20.3996V52.3ZM28.6996 52.3H24.2996L23.2996 49.1L24.6996 48.3L27.2996 49.7C28.1996 50.2 28.6996 51.1 28.6996 52.1V52.3ZM72.2996 53.3C71.6996 52.7 70.9996 52.3 70.0996 52.3V52.1C70.0996 50.4 69.0996 48.8 67.5996 48L64.4996 46.3C63.9996 46.1 63.6996 45.6 63.6996 45.1V43.7C64.8996 42.7 65.7996 41.2 65.7996 39.5V35.9C65.7996 33.5 63.8996 31.6 61.4996 31.6H54.7996C54.2996 31.6 53.7996 32.1 53.7996 32.6V34C53.7996 35.1 54.3996 36.1 55.1996 36.7V39.5C55.1996 41.2 55.9996 42.7 57.2996 43.7V44.9C57.2996 45.4 56.9996 45.9 56.4996 46.2L53.3996 47.9C51.9996 48.7 50.9996 50.3 50.9996 52V52.3C50.1996 52.3 49.3996 52.7 48.7996 53.3C48.1996 53.9 47.9996 54.8 48.0996 55.6L49.0996 64.5C49.2996 66 50.4996 67.1 51.9996 67.1H68.9996C70.4996 67.1 71.7996 66 71.8996 64.5L72.8996 55.6C73.0996 54.8 72.7996 54 72.2996 53.3ZM57.2996 39.5V37.3H63.7996V39.5C63.7996 41.3 62.2996 42.8 60.4996 42.8C58.6996 42.8 57.2996 41.3 57.2996 39.5ZM61.4996 52.3H59.6996L60.1996 50.1C60.2996 50.1 60.3996 50.1 60.4996 50.1C60.5996 50.1 60.6996 50.1 60.7996 50L61.4996 52.3ZM57.6996 52.3H52.9996V52C52.9996 51 53.4996 50.1 54.3996 49.6L56.9996 48.2L58.3996 49.1L57.6996 52.3ZM60.8996 60.7H60.0996C59.4996 60.7 59.0996 60.3 59.0996 59.7C59.0996 59.2 59.4996 58.7 60.0996 58.7H60.8996C61.4996 58.7 61.8996 59.2 61.8996 59.7C61.8996 60.3 61.4996 60.7 60.8996 60.7ZM68.0996 52.3H63.6996L62.6996 49.1L64.0996 48.3L66.6996 49.7C67.5996 50.2 68.0996 51.1 68.0996 52.1V52.3Z" fill="black" stroke="#76D3CB" stroke-width="14"/>
<path d="M53.2 25.1L52.1 23.1C51.1 21.3 49.9 19.1 48.9 16.7C48.5 15.7 48.1 14.7 47.8 13.8C46.7 10.5 43.6 8.30005 40.2 8.30005C36.8 8.30005 33.8 10.4 32.7 13.6C32.7 13.7 32.7 13.7 32.6 13.8C31.5 17.2 29.8 20.4 28.3 23.1L27.2 25.1C27.1 25.3 27 25.6 27.1 25.9C27.2 26.2 27.3 26.4 27.6 26.5C29.1 27.3 30.6 27.9 32.1 28.4C31.4 29.2 31 30.3 31 31.4V31.9H30.7C29.9 31.9 29.1 32.3 28.5 32.9C27.9 33.5 27.7 34.4001 27.8 35.2001L28.8 44.1C29 45.6 30.2 46.7001 31.7 46.7001H48.6C50.1 46.7001 51.4 45.6 51.5 44.1L52.5 35.2001C52.6 34.4001 52.3 33.5 51.8 32.9C51.3 32.4 50.6 32 49.9 31.9V31.5C49.9 30.3 49.4 29.1 48.6 28.3C50 27.8 51.4 27.2 52.8 26.5C53 26.4 53.2 26.2 53.3 25.9C53.4 25.7 53.3 25.4 53.2 25.1ZM40.1 10.3C42.7 10.3 45 12 45.8 14.4C46.1 15.3 46.4 16.1 46.8 17C43 16.8 41.5 15.8 41.5 15.8C39 13.9 36.6 13.5 34.7 13.7C35.7 11.7 37.8 10.3 40.1 10.3ZM43.1 27.3C42.2 27.8 41.2 28 40.2 28C39.2 28 38.3 27.8 37.4 27.3C38.5 26.7 39.2 25.6 39.2 24.3V23.6C39.6 23.7 40 23.7 40.4 23.7C40.8 23.7 41.2 23.7 41.6 23.6V24.5C41.6 25.6 42.2 26.7 43.1 27.3ZM40.4 21.8C38.3 21.8 36.6 20.1 36.6 18C36.6 17.3 36.8 16.5 37.2 15.9C38.3 16.2 39.3 16.7 40.3 17.4C40.5 17.5 41.6 18.3 44.1 18.7C43.8 20.5 42.2 21.8 40.4 21.8ZM40.5 40.3H39.7C39.1 40.3 38.7 39.9 38.7 39.3C38.7 38.8 39.1 38.3 39.7 38.3H40.5C41 38.3 41.5 38.8 41.5 39.3C41.5 39.9 41.1 40.3 40.5 40.3ZM47.9 31.9H32.9V31.4C32.9 30.4 33.4 29.5 34.3 29L35.4 28.4C36.8 29.4 38.5 29.9 40.3 29.9C42.1 29.9 43.8 29.4 45.2 28.3L45.9 28.7001L46.5 29C47.4 29.5 47.9 30.4 47.9 31.4V31.9Z" fill="black"/>
<path d="M33.1996 53.3C32.5996 52.7 31.7996 52.3 30.9996 52.3H30.7996V52.1C30.7996 50.4 29.8996 48.8 28.2996 48L25.1996 46.3C24.6996 46.1 24.3996 45.6 24.3996 45.1V43.7C25.5996 42.7 26.4996 41.2 26.4996 39.5V35.9C26.4996 33.5 24.5996 31.6 22.1996 31.6H15.4996C14.8996 31.6 14.4996 32.1 14.4996 32.6V34C14.4996 35.1 15.0996 36.1 15.8996 36.7V39.5C15.8996 41.2 16.6996 42.7 17.9996 43.7V44.9C17.9996 45.4 17.6996 45.9 17.1996 46.2L14.0996 47.9C12.5996 48.7 11.5996 50.3 11.5996 52V52.4C10.8996 52.5 10.1996 52.8 9.69963 53.4C9.19963 54 8.89963 54.8 8.99963 55.6L9.99963 64.5C10.1996 66 11.4996 67.1 12.9996 67.1H29.8996C31.3996 67.1 32.6996 66 32.7996 64.5L33.7996 55.6C33.9996 54.8 33.6996 54 33.1996 53.3ZM17.8996 39.5V37.3H24.4996V39.5C24.4996 41.3 22.9996 42.8 21.1996 42.8C19.3996 42.8 17.8996 41.3 17.8996 39.5ZM13.6996 52.3V52C13.6996 51 14.1996 50.1 15.0996 49.6L17.6996 48.2L19.0996 49.1L18.2996 52.3H13.6996ZM20.7996 60.7H19.9996C19.4996 60.7 18.9996 60.3 18.9996 59.7C18.9996 59.2 19.4996 58.7 19.9996 58.7H20.7996C21.3996 58.7 21.7996 59.2 21.7996 59.7C21.7996 60.3 21.3996 60.7 20.7996 60.7ZM20.3996 52.3L20.8996 50.1C20.9996 50.1 21.0996 50.1 21.1996 50.1C21.2996 50.1 21.3996 50.1 21.4996 50L22.1996 52.2H20.3996V52.3ZM28.6996 52.3H24.2996L23.2996 49.1L24.6996 48.3L27.2996 49.7C28.1996 50.2 28.6996 51.1 28.6996 52.1V52.3ZM72.2996 53.3C71.6996 52.7 70.9996 52.3 70.0996 52.3V52.1C70.0996 50.4 69.0996 48.8 67.5996 48L64.4996 46.3C63.9996 46.1 63.6996 45.6 63.6996 45.1V43.7C64.8996 42.7 65.7996 41.2 65.7996 39.5V35.9C65.7996 33.5 63.8996 31.6 61.4996 31.6H54.7996C54.2996 31.6 53.7996 32.1 53.7996 32.6V34C53.7996 35.1 54.3996 36.1 55.1996 36.7V39.5C55.1996 41.2 55.9996 42.7 57.2996 43.7V44.9C57.2996 45.4 56.9996 45.9 56.4996 46.2L53.3996 47.9C51.9996 48.7 50.9996 50.3 50.9996 52V52.3C50.1996 52.3 49.3996 52.7 48.7996 53.3C48.1996 53.9 47.9996 54.8 48.0996 55.6L49.0996 64.5C49.2996 66 50.4996 67.1 51.9996 67.1H68.9996C70.4996 67.1 71.7996 66 71.8996 64.5L72.8996 55.6C73.0996 54.8 72.7996 54 72.2996 53.3ZM57.2996 39.5V37.3H63.7996V39.5C63.7996 41.3 62.2996 42.8 60.4996 42.8C58.6996 42.8 57.2996 41.3 57.2996 39.5ZM61.4996 52.3H59.6996L60.1996 50.1C60.2996 50.1 60.3996 50.1 60.4996 50.1C60.5996 50.1 60.6996 50.1 60.7996 50L61.4996 52.3ZM57.6996 52.3H52.9996V52C52.9996 51 53.4996 50.1 54.3996 49.6L56.9996 48.2L58.3996 49.1L57.6996 52.3ZM60.8996 60.7H60.0996C59.4996 60.7 59.0996 60.3 59.0996 59.7C59.0996 59.2 59.4996 58.7 60.0996 58.7H60.8996C61.4996 58.7 61.8996 59.2 61.8996 59.7C61.8996 60.3 61.4996 60.7 60.8996 60.7ZM68.0996 52.3H63.6996L62.6996 49.1L64.0996 48.3L66.6996 49.7C67.5996 50.2 68.0996 51.1 68.0996 52.1V52.3Z" fill="black"/>
</svg>
