<svg width="268" height="329" viewBox="0 0 268 329" fill="none" xmlns="http://www.w3.org/2000/svg">
<g clip-path="url(#clip0_1557_134)">
<path d="M192.594 184.867C191.726 194.04 179.455 197.963 172.509 191.329C168.225 187.233 161.222 186.886 156.533 190.579L143.741 200.559C138.589 204.597 130.775 203.732 126.781 198.655L120.125 190.232C115.957 184.983 107.738 184.29 102.644 188.79L84.2368 205.001C82.0374 206.905 79.1433 208.001 76.1334 208.001H75.5544C69.6504 208.001 64.7303 203.963 63.9779 198.597C59.5209 166.233 58.479 125.504 60.2154 88.813C60.7364 78.4289 63.9779 68.7371 69.361 60.3142C69.8241 59.5643 70.345 58.8143 70.866 58.0644C77.349 48.8338 86.4945 41.2764 97.2029 36.3727C100.676 34.0082 106.464 32.8554 106.464 32.8554C106.464 32.8554 112.542 28.2397 133.09 28.2388C148.14 28.2388 147.851 30.2568 160.006 36.3727C179.976 49.0078 178.818 52.6413 180.728 53.6222C186.227 60.0833 190.395 67.5831 192.71 75.7751C192.999 76.7559 193.231 77.7943 193.52 78.7749C194.273 82.1787 194.794 85.6401 194.968 89.217C196.183 118.812 195.604 153.253 192.594 184.867Z" fill="#9A99EA"/>
<path d="M124.408 76.408C124.408 90.7727 115.841 102.368 105.307 102.368C102.875 102.368 100.56 101.734 98.4185 100.638C108.953 100.58 117.462 89.3881 117.462 75.5425C117.462 63.2545 110.747 53.0433 101.834 50.8512C102.933 50.5628 104.091 50.4473 105.307 50.4473C115.841 50.4473 124.408 62.1008 124.408 76.408Z" fill="#9A99EA"/>
<path d="M117.462 75.5403C117.462 89.386 108.953 100.578 98.4182 100.636C91.2407 96.8858 86.2048 87.4245 86.2048 76.4058C86.2048 63.6561 92.9193 53.099 101.833 50.8491C110.747 53.0412 117.462 63.2524 117.462 75.5403Z" fill="#11151A"/>
<path d="M173.551 74.9685C173.551 87.5448 166.027 97.756 156.765 97.756C154.855 97.756 153.003 97.2945 151.324 96.5445C159.891 95.5637 166.605 86.4487 166.605 75.2569C166.605 63.6611 159.37 54.2577 150.34 53.9115C152.308 52.7575 154.508 52.1807 156.765 52.1807C166.027 52.1807 173.551 62.3918 173.551 74.9685Z" fill="#9A99EA"/>
<path d="M166.603 75.2551C166.603 86.3891 159.889 95.5619 151.322 96.5427C144.723 93.4851 140.035 85.0045 140.035 74.9664C140.035 65.5054 144.318 57.371 150.338 53.9097C159.368 54.2556 166.603 63.7169 166.603 75.2551Z" fill="#11151A"/>
<path d="M89.5762 100.305C90.6642 97.3095 86.9164 93.2102 81.2054 91.1497C75.4941 89.0891 69.9822 89.8471 68.894 92.843C67.8058 95.8389 71.5534 99.9379 77.2647 101.999C82.9758 104.059 88.4879 103.301 89.5762 100.305Z" fill="#9A99EA"/>
<path d="M179.048 103.206C184.759 101.146 188.507 97.0468 187.419 94.0509C186.331 91.055 180.819 90.2965 175.108 92.3568C169.396 94.4172 165.648 98.516 166.736 101.512C167.824 104.508 173.336 105.266 179.048 103.206Z" fill="#9A99EA"/>
<path d="M52.02 75.5147L57.0817 77.053C57.0078 77.9391 56.9453 78.8284 56.9453 79.7332C56.9453 97.4634 71.4192 111.889 89.2098 111.889C107 111.889 121.474 97.4634 121.474 79.7332C121.474 75.4276 120.607 71.324 119.06 67.5675C121.713 65.8959 124.784 64.9869 128 64.9869C131.215 64.9869 134.286 65.8957 136.941 67.5675C135.393 71.3238 134.526 75.4276 134.526 79.7332C134.526 97.4634 148.999 111.889 166.79 111.889C184.581 111.889 199.055 97.4634 199.055 79.7332C199.055 78.8284 198.993 77.9389 198.919 77.0528L203.98 75.5147C205.223 75.1369 205.924 73.8269 205.545 72.5879C205.166 71.3478 203.848 70.6482 202.608 71.0284L198.17 72.3772C194.819 58.1849 182.038 47.5762 166.79 47.5762C154.998 47.5762 144.692 53.9345 139.064 63.3722C135.754 61.3823 131.965 60.2968 128 60.2968C124.035 60.2968 120.246 61.3821 116.936 63.3719C111.308 53.9343 101.002 47.5762 89.2098 47.5762C73.962 47.5762 61.1812 58.1846 57.8304 72.3772L53.3918 71.0284C52.1453 70.6471 50.8332 71.3478 50.4552 72.5879C50.0761 73.8269 50.7769 75.1369 52.02 75.5147ZM140.886 70.4504C141.101 70.5128 141.318 70.5773 141.54 70.5773C142.142 70.5773 142.744 70.3482 143.203 69.8902C144.122 68.9741 144.122 67.4901 143.203 66.574C143.081 66.4519 142.946 66.3473 142.821 66.2285C147.562 57.905 156.521 52.2663 166.79 52.2663C181.986 52.2663 194.349 64.5885 194.349 79.7332C194.349 94.8779 181.986 107.199 166.79 107.199C151.595 107.199 139.232 94.8779 139.232 79.7332C139.232 76.4718 139.835 73.3552 140.886 70.4504ZM89.2098 52.2663C99.479 52.2663 108.439 57.905 113.179 66.2285C113.054 66.3473 112.919 66.4519 112.797 66.574C111.878 67.4901 111.878 68.9752 112.797 69.8902C113.426 70.5172 114.316 70.682 115.114 70.4504C116.165 73.3552 116.769 76.4718 116.769 79.7332C116.769 94.8779 104.405 107.199 89.2098 107.199C74.0144 107.199 61.6512 94.8779 61.6512 79.7332C61.6512 64.5885 74.0144 52.2663 89.2098 52.2663Z" fill="#D4D4D7"/>
</g>
<path d="M222.341 139.274L44.5225 140.293C30.8621 140.372 19.8512 151.447 19.9291 165.031L20.5636 275.711C20.6414 289.295 31.7786 300.243 45.439 300.165L223.257 299.145C236.918 299.067 247.929 287.992 247.851 274.408L247.216 163.728C247.138 150.144 236.001 139.196 222.341 139.274Z" fill="#BCC4CF"/>
<path d="M224.417 141.017L42.3872 142.06C30.9285 142.126 21.6927 151.468 21.7583 162.927L22.4269 279.544C22.4926 291.003 31.8349 300.239 43.2936 300.173L225.323 299.13C236.782 299.064 246.018 289.722 245.952 278.263L245.283 161.646C245.218 150.187 235.875 140.951 224.417 141.017Z" fill="#D3D8DF"/>
<path d="M141.97 219.898C141.898 214.171 145.115 214.005 145.26 213.912C143.434 211.276 140.616 210.876 139.613 210.842C137.215 210.613 134.945 212.252 133.728 212.259C132.514 212.267 130.629 210.89 128.642 210.937C126.031 210.991 123.629 212.48 122.294 214.827C119.608 219.554 121.666 226.519 124.335 230.322C125.637 232.185 127.191 234.276 129.216 234.19C131.164 234.101 131.895 232.911 134.252 232.898C136.609 232.884 137.276 234.144 139.341 234.09C141.436 234.039 142.756 232.164 144.026 230.28C145.5 228.101 146.099 226.104 146.133 225.998C146.087 225.977 142.03 223.717 141.966 219.899L141.97 219.898Z" fill="white"/>
<path d="M133.517 211.075C133.492 206.826 136.917 203.358 141.169 203.334C141.193 207.587 137.766 211.051 133.517 211.075Z" fill="white"/>
<mask id="path-13-outside-1_1557_134" maskUnits="userSpaceOnUse" x="198.239" y="274.499" width="35" height="7" fill="black">
<rect fill="white" x="198.239" y="274.499" width="35" height="7"/>
<path d="M201.441 275.716C201.511 275.716 201.563 275.719 201.596 275.725C201.632 275.728 201.672 275.742 201.714 275.765C201.759 275.789 201.791 275.829 201.809 275.885C201.828 275.942 201.837 276.017 201.837 276.112C201.837 276.207 201.828 276.283 201.809 276.339C201.791 276.395 201.759 276.435 201.714 276.459C201.669 276.48 201.628 276.493 201.591 276.499C201.558 276.502 201.505 276.504 201.432 276.504H200.043V276.953H200.937C201.01 276.953 201.063 276.956 201.096 276.962C201.133 276.965 201.174 276.978 201.219 277.002C201.298 277.046 201.337 277.163 201.337 277.353C201.337 277.561 201.279 277.684 201.164 277.722C201.116 277.737 201.039 277.744 200.933 277.744H200.043V278.585C200.043 278.656 200.04 278.708 200.034 278.741C200.031 278.773 200.017 278.812 199.993 278.856C199.95 278.936 199.832 278.976 199.638 278.976C199.426 278.976 199.302 278.92 199.266 278.807C199.248 278.76 199.239 278.684 199.239 278.581V276.108C199.239 275.957 199.268 275.854 199.325 275.801C199.383 275.745 199.492 275.716 199.652 275.716H201.441Z"/>
<path d="M202.042 277.024C202.042 276.956 202.043 276.905 202.046 276.873C202.052 276.837 202.066 276.797 202.087 276.753C202.13 276.676 202.248 276.637 202.441 276.637C202.587 276.637 202.69 276.662 202.75 276.713C202.802 276.754 202.829 276.818 202.832 276.904C202.835 276.934 202.837 276.977 202.837 277.033V278.589C202.837 278.658 202.834 278.71 202.828 278.745C202.824 278.778 202.811 278.816 202.787 278.861C202.747 278.938 202.631 278.976 202.437 278.976C202.246 278.976 202.13 278.936 202.087 278.856C202.066 278.812 202.052 278.773 202.046 278.741C202.043 278.708 202.042 278.656 202.042 278.585V277.024ZM202.787 276.201C202.765 276.243 202.726 276.272 202.669 276.29C202.611 276.308 202.534 276.317 202.437 276.317C202.343 276.317 202.267 276.308 202.21 276.29C202.152 276.272 202.111 276.241 202.087 276.197C202.066 276.152 202.052 276.114 202.046 276.081C202.043 276.046 202.042 275.994 202.042 275.925C202.042 275.857 202.043 275.807 202.046 275.774C202.052 275.739 202.066 275.7 202.087 275.659C202.13 275.579 202.248 275.539 202.441 275.539C202.632 275.539 202.747 275.579 202.787 275.659C202.811 275.703 202.824 275.743 202.828 275.779C202.834 275.811 202.837 275.862 202.837 275.93C202.837 275.998 202.834 276.05 202.828 276.086C202.824 276.118 202.811 276.157 202.787 276.201Z"/>
<path d="M204.857 277.802L205.361 278.3C205.47 278.407 205.525 278.499 205.525 278.576C205.525 278.65 205.47 278.741 205.361 278.847C205.252 278.951 205.16 279.003 205.084 279.003C205.008 279.003 204.916 278.95 204.807 278.843L204.308 278.349L203.803 278.843C203.694 278.95 203.602 279.003 203.526 279.003C203.454 279.003 203.361 278.951 203.249 278.847C203.14 278.741 203.086 278.65 203.086 278.576C203.086 278.499 203.14 278.407 203.249 278.3L203.753 277.802L203.249 277.304C203.14 277.197 203.086 277.107 203.086 277.033C203.086 276.956 203.14 276.864 203.249 276.757C203.361 276.65 203.454 276.597 203.526 276.597C203.602 276.597 203.694 276.65 203.803 276.757L204.308 277.255L204.807 276.757C204.916 276.65 205.008 276.597 205.084 276.597C205.16 276.597 205.252 276.65 205.361 276.757C205.47 276.864 205.525 276.956 205.525 277.033C205.525 277.107 205.47 277.197 205.361 277.304L204.857 277.802Z"/>
<path d="M207.166 277.42L206.871 277.402V278.016C206.871 278.096 206.883 278.154 206.907 278.189C206.934 278.225 206.983 278.243 207.052 278.243C207.125 278.243 207.18 278.246 207.216 278.251C207.255 278.254 207.296 278.268 207.339 278.291C207.408 278.33 207.443 278.429 207.443 278.589C207.443 278.776 207.401 278.89 207.316 278.932C207.27 278.953 207.23 278.966 207.193 278.972C207.16 278.975 207.11 278.976 207.043 278.976C206.728 278.976 206.489 278.907 206.326 278.767C206.162 278.628 206.081 278.392 206.081 278.06V277.402C206.023 277.411 205.961 277.415 205.894 277.415C205.828 277.415 205.772 277.39 205.726 277.34C205.684 277.289 205.663 277.203 205.663 277.082C205.663 276.96 205.67 276.873 205.685 276.819C205.701 276.763 205.722 276.723 205.749 276.699C205.797 276.661 205.858 276.642 205.931 276.642L206.081 276.659V276.201C206.081 276.133 206.082 276.083 206.085 276.05C206.091 276.017 206.106 275.982 206.13 275.943C206.17 275.869 206.286 275.832 206.48 275.832C206.686 275.832 206.809 275.887 206.848 275.997C206.863 276.044 206.871 276.12 206.871 276.223V276.659C207.004 276.647 207.104 276.642 207.171 276.642C207.24 276.642 207.292 276.644 207.325 276.65C207.361 276.653 207.402 276.667 207.448 276.69C207.526 276.729 207.566 276.843 207.566 277.033C207.566 277.22 207.525 277.334 207.443 277.375C207.398 277.396 207.357 277.409 207.32 277.415C207.287 277.418 207.236 277.42 207.166 277.42Z"/>
<path d="M210.035 277.527C210.035 277.707 209.988 277.842 209.894 277.931C209.803 278.017 209.702 278.06 209.59 278.06H208.513C208.513 278.143 208.563 278.213 208.663 278.269C208.763 278.326 208.863 278.354 208.963 278.354C209.139 278.354 209.276 278.336 209.376 278.3L209.426 278.283C209.499 278.25 209.56 278.234 209.608 278.234C209.705 278.234 209.788 278.3 209.858 278.434C209.897 278.514 209.917 278.582 209.917 278.638C209.917 278.902 209.594 279.034 208.949 279.034C208.725 279.034 208.526 278.997 208.35 278.923C208.177 278.846 208.043 278.745 207.946 278.621C207.755 278.38 207.66 278.112 207.66 277.816C207.66 277.442 207.782 277.144 208.027 276.922C208.276 276.696 208.585 276.584 208.954 276.584C209.375 276.584 209.684 276.729 209.88 277.02C209.983 277.174 210.035 277.343 210.035 277.527ZM209.077 277.655C209.192 277.655 209.249 277.608 209.249 277.513C209.249 277.445 209.222 277.39 209.167 277.349C209.116 277.307 209.04 277.286 208.94 277.286C208.843 277.286 208.747 277.326 208.65 277.406C208.553 277.484 208.504 277.567 208.504 277.655H209.077Z"/>
<path d="M211.957 276.659C212.015 276.677 212.062 276.708 212.098 276.753C212.137 276.794 212.157 276.862 212.157 276.957C212.157 277.052 212.128 277.156 212.071 277.269C212.013 277.381 211.93 277.438 211.821 277.438C211.766 277.438 211.713 277.426 211.662 277.402C211.613 277.378 211.548 277.366 211.467 277.366C211.385 277.366 211.308 277.395 211.235 277.451C211.165 277.507 211.131 277.575 211.131 277.655V278.589C211.131 278.658 211.127 278.71 211.121 278.745C211.118 278.778 211.105 278.816 211.081 278.861C211.035 278.938 210.917 278.976 210.726 278.976C210.581 278.976 210.477 278.951 210.413 278.901C210.364 278.859 210.337 278.795 210.331 278.71C210.331 278.68 210.331 278.637 210.331 278.581V277.02C210.331 276.951 210.333 276.901 210.336 276.868C210.342 276.833 210.355 276.794 210.377 276.753C210.419 276.673 210.537 276.633 210.731 276.633C210.913 276.633 211.026 276.667 211.071 276.735C211.105 276.782 211.121 276.831 211.121 276.882C211.137 276.861 211.158 276.836 211.185 276.806C211.215 276.776 211.277 276.736 211.371 276.686C211.465 276.636 211.547 276.61 211.616 276.61C211.689 276.61 211.75 276.615 211.798 276.624C211.847 276.63 211.9 276.642 211.957 276.659Z"/>
<path d="M213.786 278.683C213.671 278.831 213.488 278.905 213.237 278.905C212.985 278.905 212.749 278.793 212.528 278.567C212.31 278.339 212.201 278.074 212.201 277.771C212.201 277.469 212.312 277.203 212.533 276.975C212.754 276.747 212.996 276.633 213.259 276.633C213.362 276.633 213.456 276.652 213.541 276.69C213.626 276.726 213.683 276.76 213.714 276.793C213.747 276.822 213.773 276.851 213.791 276.877C213.8 276.794 213.83 276.732 213.882 276.69C213.936 276.646 214.022 276.624 214.141 276.624C214.259 276.624 214.345 276.633 214.399 276.65C214.454 276.668 214.492 276.699 214.513 276.744C214.537 276.785 214.551 276.822 214.554 276.855C214.56 276.888 214.563 276.938 214.563 277.006V278.847C214.563 279.188 214.442 279.463 214.2 279.67C213.957 279.881 213.685 279.986 213.382 279.986C213.152 279.986 212.932 279.931 212.724 279.821C212.515 279.712 212.41 279.612 212.41 279.523C212.41 279.408 212.456 279.305 212.546 279.217C212.604 279.154 212.648 279.111 212.678 279.088C212.711 279.064 212.749 279.052 212.792 279.052C212.834 279.052 212.878 279.07 212.923 279.105C213.069 279.215 213.226 279.27 213.396 279.27C213.511 279.27 213.605 279.225 213.677 279.136C213.75 279.048 213.786 278.941 213.786 278.816V278.683ZM212.978 277.776C212.978 277.87 213.016 277.956 213.091 278.034C213.17 278.111 213.264 278.149 213.373 278.149C213.485 278.149 213.577 278.111 213.65 278.034C213.723 277.953 213.759 277.867 213.759 277.776C213.759 277.681 213.724 277.593 213.655 277.513C213.585 277.43 213.491 277.389 213.373 277.389C213.255 277.389 213.16 277.429 213.087 277.509C213.014 277.589 212.978 277.678 212.978 277.776Z"/>
<path d="M217.233 277.527C217.233 277.707 217.186 277.842 217.092 277.931C217.002 278.017 216.9 278.06 216.788 278.06H215.712C215.712 278.143 215.762 278.213 215.862 278.269C215.962 278.326 216.061 278.354 216.161 278.354C216.337 278.354 216.475 278.336 216.575 278.3L216.625 278.283C216.697 278.25 216.758 278.234 216.806 278.234C216.903 278.234 216.986 278.3 217.056 278.434C217.095 278.514 217.115 278.582 217.115 278.638C217.115 278.902 216.793 279.034 216.148 279.034C215.924 279.034 215.724 278.997 215.548 278.923C215.376 278.846 215.241 278.745 215.144 278.621C214.953 278.38 214.858 278.112 214.858 277.816C214.858 277.442 214.981 277.144 215.226 276.922C215.474 276.696 215.783 276.584 216.152 276.584C216.573 276.584 216.882 276.729 217.079 277.02C217.182 277.174 217.233 277.343 217.233 277.527ZM216.275 277.655C216.39 277.655 216.447 277.608 216.447 277.513C216.447 277.445 216.42 277.39 216.366 277.349C216.314 277.307 216.239 277.286 216.139 277.286C216.042 277.286 215.945 277.326 215.848 277.406C215.751 277.484 215.703 277.567 215.703 277.655H216.275Z"/>
<path d="M219.837 277.527C219.837 277.707 219.79 277.842 219.696 277.931C219.605 278.017 219.504 278.06 219.392 278.06H218.315C218.315 278.143 218.365 278.213 218.465 278.269C218.565 278.326 218.665 278.354 218.765 278.354C218.94 278.354 219.078 278.336 219.178 278.3L219.228 278.283C219.301 278.25 219.361 278.234 219.41 278.234C219.507 278.234 219.59 278.3 219.66 278.434C219.699 278.514 219.719 278.582 219.719 278.638C219.719 278.902 219.396 279.034 218.751 279.034C218.527 279.034 218.327 278.997 218.152 278.923C217.979 278.846 217.844 278.745 217.747 278.621C217.557 278.38 217.461 278.112 217.461 277.816C217.461 277.442 217.584 277.144 217.829 276.922C218.078 276.696 218.386 276.584 218.756 276.584C219.177 276.584 219.485 276.729 219.682 277.02C219.785 277.174 219.837 277.343 219.837 277.527ZM218.878 277.655C218.993 277.655 219.051 277.608 219.051 277.513C219.051 277.445 219.024 277.39 218.969 277.349C218.918 277.307 218.842 277.286 218.742 277.286C218.645 277.286 218.548 277.326 218.451 277.406C218.355 277.484 218.306 277.567 218.306 277.655H218.878Z"/>
<path d="M221.541 277.802L222.145 278.291C222.221 278.354 222.268 278.401 222.286 278.434C222.307 278.466 222.317 278.498 222.317 278.527C222.317 278.598 222.271 278.695 222.177 278.816C222.074 278.941 221.983 279.003 221.904 279.003C221.838 279.003 221.745 278.96 221.627 278.874L221.582 278.843C221.512 278.787 221.405 278.689 221.259 278.549C221.114 278.407 221.003 278.306 220.928 278.247V278.589C220.928 278.658 220.925 278.71 220.919 278.745C220.916 278.778 220.902 278.816 220.878 278.861C220.838 278.938 220.722 278.976 220.528 278.976C220.337 278.976 220.221 278.936 220.178 278.856C220.157 278.812 220.144 278.773 220.137 278.741C220.134 278.705 220.133 278.653 220.133 278.585V275.921C220.133 275.853 220.134 275.802 220.137 275.77C220.144 275.734 220.157 275.694 220.178 275.65C220.221 275.57 220.339 275.53 220.533 275.53C220.678 275.53 220.781 275.555 220.841 275.605C220.893 275.647 220.92 275.712 220.923 275.801C220.926 275.828 220.928 275.869 220.928 275.925V277.335C220.982 277.291 221.064 277.215 221.173 277.108C221.285 277.002 221.368 276.926 221.423 276.882L221.477 276.846C221.583 276.766 221.674 276.726 221.75 276.726C221.825 276.726 221.912 276.787 222.009 276.908C222.109 277.027 222.159 277.12 222.159 277.189C222.159 277.257 222.103 277.337 221.99 277.429L221.541 277.802Z"/>
<path d="M223.78 277.753C223.662 277.697 223.603 277.595 223.603 277.446C223.603 277.298 223.664 277.194 223.785 277.135C224.823 276.533 225.42 276.186 225.574 276.094C225.729 276.003 225.821 275.952 225.851 275.943C225.884 275.928 225.924 275.921 225.969 275.921C226.051 275.921 226.136 275.994 226.224 276.139C226.281 276.231 226.31 276.301 226.31 276.348C226.31 276.392 226.299 276.431 226.278 276.464C226.251 276.511 226.189 276.566 226.092 276.628C225.19 277.15 224.72 277.423 224.684 277.446L226.092 278.265C226.149 278.297 226.19 278.324 226.214 278.345C226.281 278.398 226.314 278.456 226.314 278.518C226.314 278.578 226.287 278.65 226.233 278.736C226.181 278.819 226.134 278.879 226.092 278.914C226.049 278.95 226.006 278.967 225.96 278.967C225.9 278.967 225.821 278.939 225.724 278.883L223.78 277.753Z"/>
<path d="M227.182 279.012C227.157 279.062 227.138 279.099 227.123 279.123C227.11 279.147 227.088 279.169 227.054 279.19C227.024 279.214 226.983 279.225 226.932 279.225C226.88 279.225 226.805 279.203 226.705 279.159C226.605 279.114 226.537 279.074 226.5 279.039C226.467 279.006 226.45 278.969 226.45 278.927C226.45 278.886 226.469 278.812 226.505 278.705L227.967 275.712C228.025 275.599 228.076 275.534 228.122 275.516C228.146 275.504 228.181 275.499 228.226 275.499C228.275 275.499 228.352 275.522 228.458 275.57C228.621 275.647 228.703 275.731 228.703 275.823C228.703 275.862 228.682 275.936 228.64 276.046L227.182 279.012Z"/>
<path d="M231.366 277.135C231.487 277.194 231.548 277.298 231.548 277.446C231.548 277.595 231.489 277.697 231.371 277.753L229.431 278.883C229.277 278.981 229.153 278.991 229.059 278.914C229.017 278.879 228.973 278.825 228.927 278.754C228.867 278.656 228.836 278.585 228.836 278.541C228.836 278.496 228.846 278.458 228.864 278.425C228.897 278.374 228.962 278.321 229.059 278.265L230.471 277.446L229.064 276.628C229.009 276.596 228.968 276.569 228.941 276.548C228.874 276.492 228.841 276.431 228.841 276.366C228.841 276.306 228.867 276.235 228.918 276.152C229.012 275.998 229.1 275.921 229.182 275.921C229.254 275.921 229.336 275.949 229.427 276.006L231.366 277.135Z"/>
</mask>
<path d="M201.441 275.716C201.511 275.716 201.563 275.719 201.596 275.725C201.632 275.728 201.672 275.742 201.714 275.765C201.759 275.789 201.791 275.829 201.809 275.885C201.828 275.942 201.837 276.017 201.837 276.112C201.837 276.207 201.828 276.283 201.809 276.339C201.791 276.395 201.759 276.435 201.714 276.459C201.669 276.48 201.628 276.493 201.591 276.499C201.558 276.502 201.505 276.504 201.432 276.504H200.043V276.953H200.937C201.01 276.953 201.063 276.956 201.096 276.962C201.133 276.965 201.174 276.978 201.219 277.002C201.298 277.046 201.337 277.163 201.337 277.353C201.337 277.561 201.279 277.684 201.164 277.722C201.116 277.737 201.039 277.744 200.933 277.744H200.043V278.585C200.043 278.656 200.04 278.708 200.034 278.741C200.031 278.773 200.017 278.812 199.993 278.856C199.95 278.936 199.832 278.976 199.638 278.976C199.426 278.976 199.302 278.92 199.266 278.807C199.248 278.76 199.239 278.684 199.239 278.581V276.108C199.239 275.957 199.268 275.854 199.325 275.801C199.383 275.745 199.492 275.716 199.652 275.716H201.441Z" fill="#15191E"/>
<path d="M202.042 277.024C202.042 276.956 202.043 276.905 202.046 276.873C202.052 276.837 202.066 276.797 202.087 276.753C202.13 276.676 202.248 276.637 202.441 276.637C202.587 276.637 202.69 276.662 202.75 276.713C202.802 276.754 202.829 276.818 202.832 276.904C202.835 276.934 202.837 276.977 202.837 277.033V278.589C202.837 278.658 202.834 278.71 202.828 278.745C202.824 278.778 202.811 278.816 202.787 278.861C202.747 278.938 202.631 278.976 202.437 278.976C202.246 278.976 202.13 278.936 202.087 278.856C202.066 278.812 202.052 278.773 202.046 278.741C202.043 278.708 202.042 278.656 202.042 278.585V277.024ZM202.787 276.201C202.765 276.243 202.726 276.272 202.669 276.29C202.611 276.308 202.534 276.317 202.437 276.317C202.343 276.317 202.267 276.308 202.21 276.29C202.152 276.272 202.111 276.241 202.087 276.197C202.066 276.152 202.052 276.114 202.046 276.081C202.043 276.046 202.042 275.994 202.042 275.925C202.042 275.857 202.043 275.807 202.046 275.774C202.052 275.739 202.066 275.7 202.087 275.659C202.13 275.579 202.248 275.539 202.441 275.539C202.632 275.539 202.747 275.579 202.787 275.659C202.811 275.703 202.824 275.743 202.828 275.779C202.834 275.811 202.837 275.862 202.837 275.93C202.837 275.998 202.834 276.05 202.828 276.086C202.824 276.118 202.811 276.157 202.787 276.201Z" fill="#15191E"/>
<path d="M204.857 277.802L205.361 278.3C205.47 278.407 205.525 278.499 205.525 278.576C205.525 278.65 205.47 278.741 205.361 278.847C205.252 278.951 205.16 279.003 205.084 279.003C205.008 279.003 204.916 278.95 204.807 278.843L204.308 278.349L203.803 278.843C203.694 278.95 203.602 279.003 203.526 279.003C203.454 279.003 203.361 278.951 203.249 278.847C203.14 278.741 203.086 278.65 203.086 278.576C203.086 278.499 203.14 278.407 203.249 278.3L203.753 277.802L203.249 277.304C203.14 277.197 203.086 277.107 203.086 277.033C203.086 276.956 203.14 276.864 203.249 276.757C203.361 276.65 203.454 276.597 203.526 276.597C203.602 276.597 203.694 276.65 203.803 276.757L204.308 277.255L204.807 276.757C204.916 276.65 205.008 276.597 205.084 276.597C205.16 276.597 205.252 276.65 205.361 276.757C205.47 276.864 205.525 276.956 205.525 277.033C205.525 277.107 205.47 277.197 205.361 277.304L204.857 277.802Z" fill="#15191E"/>
<path d="M207.166 277.42L206.871 277.402V278.016C206.871 278.096 206.883 278.154 206.907 278.189C206.934 278.225 206.983 278.243 207.052 278.243C207.125 278.243 207.18 278.246 207.216 278.251C207.255 278.254 207.296 278.268 207.339 278.291C207.408 278.33 207.443 278.429 207.443 278.589C207.443 278.776 207.401 278.89 207.316 278.932C207.27 278.953 207.23 278.966 207.193 278.972C207.16 278.975 207.11 278.976 207.043 278.976C206.728 278.976 206.489 278.907 206.326 278.767C206.162 278.628 206.081 278.392 206.081 278.06V277.402C206.023 277.411 205.961 277.415 205.894 277.415C205.828 277.415 205.772 277.39 205.726 277.34C205.684 277.289 205.663 277.203 205.663 277.082C205.663 276.96 205.67 276.873 205.685 276.819C205.701 276.763 205.722 276.723 205.749 276.699C205.797 276.661 205.858 276.642 205.931 276.642L206.081 276.659V276.201C206.081 276.133 206.082 276.083 206.085 276.05C206.091 276.017 206.106 275.982 206.13 275.943C206.17 275.869 206.286 275.832 206.48 275.832C206.686 275.832 206.809 275.887 206.848 275.997C206.863 276.044 206.871 276.12 206.871 276.223V276.659C207.004 276.647 207.104 276.642 207.171 276.642C207.24 276.642 207.292 276.644 207.325 276.65C207.361 276.653 207.402 276.667 207.448 276.69C207.526 276.729 207.566 276.843 207.566 277.033C207.566 277.22 207.525 277.334 207.443 277.375C207.398 277.396 207.357 277.409 207.32 277.415C207.287 277.418 207.236 277.42 207.166 277.42Z" fill="#15191E"/>
<path d="M210.035 277.527C210.035 277.707 209.988 277.842 209.894 277.931C209.803 278.017 209.702 278.06 209.59 278.06H208.513C208.513 278.143 208.563 278.213 208.663 278.269C208.763 278.326 208.863 278.354 208.963 278.354C209.139 278.354 209.276 278.336 209.376 278.3L209.426 278.283C209.499 278.25 209.56 278.234 209.608 278.234C209.705 278.234 209.788 278.3 209.858 278.434C209.897 278.514 209.917 278.582 209.917 278.638C209.917 278.902 209.594 279.034 208.949 279.034C208.725 279.034 208.526 278.997 208.35 278.923C208.177 278.846 208.043 278.745 207.946 278.621C207.755 278.38 207.66 278.112 207.66 277.816C207.66 277.442 207.782 277.144 208.027 276.922C208.276 276.696 208.585 276.584 208.954 276.584C209.375 276.584 209.684 276.729 209.88 277.02C209.983 277.174 210.035 277.343 210.035 277.527ZM209.077 277.655C209.192 277.655 209.249 277.608 209.249 277.513C209.249 277.445 209.222 277.39 209.167 277.349C209.116 277.307 209.04 277.286 208.94 277.286C208.843 277.286 208.747 277.326 208.65 277.406C208.553 277.484 208.504 277.567 208.504 277.655H209.077Z" fill="#15191E"/>
<path d="M211.957 276.659C212.015 276.677 212.062 276.708 212.098 276.753C212.137 276.794 212.157 276.862 212.157 276.957C212.157 277.052 212.128 277.156 212.071 277.269C212.013 277.381 211.93 277.438 211.821 277.438C211.766 277.438 211.713 277.426 211.662 277.402C211.613 277.378 211.548 277.366 211.467 277.366C211.385 277.366 211.308 277.395 211.235 277.451C211.165 277.507 211.131 277.575 211.131 277.655V278.589C211.131 278.658 211.127 278.71 211.121 278.745C211.118 278.778 211.105 278.816 211.081 278.861C211.035 278.938 210.917 278.976 210.726 278.976C210.581 278.976 210.477 278.951 210.413 278.901C210.364 278.859 210.337 278.795 210.331 278.71C210.331 278.68 210.331 278.637 210.331 278.581V277.02C210.331 276.951 210.333 276.901 210.336 276.868C210.342 276.833 210.355 276.794 210.377 276.753C210.419 276.673 210.537 276.633 210.731 276.633C210.913 276.633 211.026 276.667 211.071 276.735C211.105 276.782 211.121 276.831 211.121 276.882C211.137 276.861 211.158 276.836 211.185 276.806C211.215 276.776 211.277 276.736 211.371 276.686C211.465 276.636 211.547 276.61 211.616 276.61C211.689 276.61 211.75 276.615 211.798 276.624C211.847 276.63 211.9 276.642 211.957 276.659Z" fill="#15191E"/>
<path d="M213.786 278.683C213.671 278.831 213.488 278.905 213.237 278.905C212.985 278.905 212.749 278.793 212.528 278.567C212.31 278.339 212.201 278.074 212.201 277.771C212.201 277.469 212.312 277.203 212.533 276.975C212.754 276.747 212.996 276.633 213.259 276.633C213.362 276.633 213.456 276.652 213.541 276.69C213.626 276.726 213.683 276.76 213.714 276.793C213.747 276.822 213.773 276.851 213.791 276.877C213.8 276.794 213.83 276.732 213.882 276.69C213.936 276.646 214.022 276.624 214.141 276.624C214.259 276.624 214.345 276.633 214.399 276.65C214.454 276.668 214.492 276.699 214.513 276.744C214.537 276.785 214.551 276.822 214.554 276.855C214.56 276.888 214.563 276.938 214.563 277.006V278.847C214.563 279.188 214.442 279.463 214.2 279.67C213.957 279.881 213.685 279.986 213.382 279.986C213.152 279.986 212.932 279.931 212.724 279.821C212.515 279.712 212.41 279.612 212.41 279.523C212.41 279.408 212.456 279.305 212.546 279.217C212.604 279.154 212.648 279.111 212.678 279.088C212.711 279.064 212.749 279.052 212.792 279.052C212.834 279.052 212.878 279.07 212.923 279.105C213.069 279.215 213.226 279.27 213.396 279.27C213.511 279.27 213.605 279.225 213.677 279.136C213.75 279.048 213.786 278.941 213.786 278.816V278.683ZM212.978 277.776C212.978 277.87 213.016 277.956 213.091 278.034C213.17 278.111 213.264 278.149 213.373 278.149C213.485 278.149 213.577 278.111 213.65 278.034C213.723 277.953 213.759 277.867 213.759 277.776C213.759 277.681 213.724 277.593 213.655 277.513C213.585 277.43 213.491 277.389 213.373 277.389C213.255 277.389 213.16 277.429 213.087 277.509C213.014 277.589 212.978 277.678 212.978 277.776Z" fill="#A72E36"/>
<path d="M217.233 277.527C217.233 277.707 217.186 277.842 217.092 277.931C217.002 278.017 216.9 278.06 216.788 278.06H215.712C215.712 278.143 215.762 278.213 215.862 278.269C215.962 278.326 216.061 278.354 216.161 278.354C216.337 278.354 216.475 278.336 216.575 278.3L216.625 278.283C216.697 278.25 216.758 278.234 216.806 278.234C216.903 278.234 216.986 278.3 217.056 278.434C217.095 278.514 217.115 278.582 217.115 278.638C217.115 278.902 216.793 279.034 216.148 279.034C215.924 279.034 215.724 278.997 215.548 278.923C215.376 278.846 215.241 278.745 215.144 278.621C214.953 278.38 214.858 278.112 214.858 277.816C214.858 277.442 214.981 277.144 215.226 276.922C215.474 276.696 215.783 276.584 216.152 276.584C216.573 276.584 216.882 276.729 217.079 277.02C217.182 277.174 217.233 277.343 217.233 277.527ZM216.275 277.655C216.39 277.655 216.447 277.608 216.447 277.513C216.447 277.445 216.42 277.39 216.366 277.349C216.314 277.307 216.239 277.286 216.139 277.286C216.042 277.286 215.945 277.326 215.848 277.406C215.751 277.484 215.703 277.567 215.703 277.655H216.275Z" fill="#A72E36"/>
<path d="M219.837 277.527C219.837 277.707 219.79 277.842 219.696 277.931C219.605 278.017 219.504 278.06 219.392 278.06H218.315C218.315 278.143 218.365 278.213 218.465 278.269C218.565 278.326 218.665 278.354 218.765 278.354C218.94 278.354 219.078 278.336 219.178 278.3L219.228 278.283C219.301 278.25 219.361 278.234 219.41 278.234C219.507 278.234 219.59 278.3 219.66 278.434C219.699 278.514 219.719 278.582 219.719 278.638C219.719 278.902 219.396 279.034 218.751 279.034C218.527 279.034 218.327 278.997 218.152 278.923C217.979 278.846 217.844 278.745 217.747 278.621C217.557 278.38 217.461 278.112 217.461 277.816C217.461 277.442 217.584 277.144 217.829 276.922C218.078 276.696 218.386 276.584 218.756 276.584C219.177 276.584 219.485 276.729 219.682 277.02C219.785 277.174 219.837 277.343 219.837 277.527ZM218.878 277.655C218.993 277.655 219.051 277.608 219.051 277.513C219.051 277.445 219.024 277.39 218.969 277.349C218.918 277.307 218.842 277.286 218.742 277.286C218.645 277.286 218.548 277.326 218.451 277.406C218.355 277.484 218.306 277.567 218.306 277.655H218.878Z" fill="#A72E36"/>
<path d="M221.541 277.802L222.145 278.291C222.221 278.354 222.268 278.401 222.286 278.434C222.307 278.466 222.317 278.498 222.317 278.527C222.317 278.598 222.271 278.695 222.177 278.816C222.074 278.941 221.983 279.003 221.904 279.003C221.838 279.003 221.745 278.96 221.627 278.874L221.582 278.843C221.512 278.787 221.405 278.689 221.259 278.549C221.114 278.407 221.003 278.306 220.928 278.247V278.589C220.928 278.658 220.925 278.71 220.919 278.745C220.916 278.778 220.902 278.816 220.878 278.861C220.838 278.938 220.722 278.976 220.528 278.976C220.337 278.976 220.221 278.936 220.178 278.856C220.157 278.812 220.144 278.773 220.137 278.741C220.134 278.705 220.133 278.653 220.133 278.585V275.921C220.133 275.853 220.134 275.802 220.137 275.77C220.144 275.734 220.157 275.694 220.178 275.65C220.221 275.57 220.339 275.53 220.533 275.53C220.678 275.53 220.781 275.555 220.841 275.605C220.893 275.647 220.92 275.712 220.923 275.801C220.926 275.828 220.928 275.869 220.928 275.925V277.335C220.982 277.291 221.064 277.215 221.173 277.108C221.285 277.002 221.368 276.926 221.423 276.882L221.477 276.846C221.583 276.766 221.674 276.726 221.75 276.726C221.825 276.726 221.912 276.787 222.009 276.908C222.109 277.027 222.159 277.12 222.159 277.189C222.159 277.257 222.103 277.337 221.99 277.429L221.541 277.802Z" fill="#A72E36"/>
<path d="M223.78 277.753C223.662 277.697 223.603 277.595 223.603 277.446C223.603 277.298 223.664 277.194 223.785 277.135C224.823 276.533 225.42 276.186 225.574 276.094C225.729 276.003 225.821 275.952 225.851 275.943C225.884 275.928 225.924 275.921 225.969 275.921C226.051 275.921 226.136 275.994 226.224 276.139C226.281 276.231 226.31 276.301 226.31 276.348C226.31 276.392 226.299 276.431 226.278 276.464C226.251 276.511 226.189 276.566 226.092 276.628C225.19 277.15 224.72 277.423 224.684 277.446L226.092 278.265C226.149 278.297 226.19 278.324 226.214 278.345C226.281 278.398 226.314 278.456 226.314 278.518C226.314 278.578 226.287 278.65 226.233 278.736C226.181 278.819 226.134 278.879 226.092 278.914C226.049 278.95 226.006 278.967 225.96 278.967C225.9 278.967 225.821 278.939 225.724 278.883L223.78 277.753Z" fill="#A72E36"/>
<path d="M227.182 279.012C227.157 279.062 227.138 279.099 227.123 279.123C227.11 279.147 227.088 279.169 227.054 279.19C227.024 279.214 226.983 279.225 226.932 279.225C226.88 279.225 226.805 279.203 226.705 279.159C226.605 279.114 226.537 279.074 226.5 279.039C226.467 279.006 226.45 278.969 226.45 278.927C226.45 278.886 226.469 278.812 226.505 278.705L227.967 275.712C228.025 275.599 228.076 275.534 228.122 275.516C228.146 275.504 228.181 275.499 228.226 275.499C228.275 275.499 228.352 275.522 228.458 275.57C228.621 275.647 228.703 275.731 228.703 275.823C228.703 275.862 228.682 275.936 228.64 276.046L227.182 279.012Z" fill="#A72E36"/>
<path d="M231.366 277.135C231.487 277.194 231.548 277.298 231.548 277.446C231.548 277.595 231.489 277.697 231.371 277.753L229.431 278.883C229.277 278.981 229.153 278.991 229.059 278.914C229.017 278.879 228.973 278.825 228.927 278.754C228.867 278.656 228.836 278.585 228.836 278.541C228.836 278.496 228.846 278.458 228.864 278.425C228.897 278.374 228.962 278.321 229.059 278.265L230.471 277.446L229.064 276.628C229.009 276.596 228.968 276.569 228.941 276.548C228.874 276.492 228.841 276.431 228.841 276.366C228.841 276.306 228.867 276.235 228.918 276.152C229.012 275.998 229.1 275.921 229.182 275.921C229.254 275.921 229.336 275.949 229.427 276.006L231.366 277.135Z" fill="#A72E36"/>
<path d="M201.441 275.716C201.511 275.716 201.563 275.719 201.596 275.725C201.632 275.728 201.672 275.742 201.714 275.765C201.759 275.789 201.791 275.829 201.809 275.885C201.828 275.942 201.837 276.017 201.837 276.112C201.837 276.207 201.828 276.283 201.809 276.339C201.791 276.395 201.759 276.435 201.714 276.459C201.669 276.48 201.628 276.493 201.591 276.499C201.558 276.502 201.505 276.504 201.432 276.504H200.043V276.953H200.937C201.01 276.953 201.063 276.956 201.096 276.962C201.133 276.965 201.174 276.978 201.219 277.002C201.298 277.046 201.337 277.163 201.337 277.353C201.337 277.561 201.279 277.684 201.164 277.722C201.116 277.737 201.039 277.744 200.933 277.744H200.043V278.585C200.043 278.656 200.04 278.708 200.034 278.741C200.031 278.773 200.017 278.812 199.993 278.856C199.95 278.936 199.832 278.976 199.638 278.976C199.426 278.976 199.302 278.92 199.266 278.807C199.248 278.76 199.239 278.684 199.239 278.581V276.108C199.239 275.957 199.268 275.854 199.325 275.801C199.383 275.745 199.492 275.716 199.652 275.716H201.441Z" stroke="white" stroke-width="2" mask="url(#path-13-outside-1_1557_134)"/>
<path d="M202.042 277.024C202.042 276.956 202.043 276.905 202.046 276.873C202.052 276.837 202.066 276.797 202.087 276.753C202.13 276.676 202.248 276.637 202.441 276.637C202.587 276.637 202.69 276.662 202.75 276.713C202.802 276.754 202.829 276.818 202.832 276.904C202.835 276.934 202.837 276.977 202.837 277.033V278.589C202.837 278.658 202.834 278.71 202.828 278.745C202.824 278.778 202.811 278.816 202.787 278.861C202.747 278.938 202.631 278.976 202.437 278.976C202.246 278.976 202.13 278.936 202.087 278.856C202.066 278.812 202.052 278.773 202.046 278.741C202.043 278.708 202.042 278.656 202.042 278.585V277.024ZM202.787 276.201C202.765 276.243 202.726 276.272 202.669 276.29C202.611 276.308 202.534 276.317 202.437 276.317C202.343 276.317 202.267 276.308 202.21 276.29C202.152 276.272 202.111 276.241 202.087 276.197C202.066 276.152 202.052 276.114 202.046 276.081C202.043 276.046 202.042 275.994 202.042 275.925C202.042 275.857 202.043 275.807 202.046 275.774C202.052 275.739 202.066 275.7 202.087 275.659C202.13 275.579 202.248 275.539 202.441 275.539C202.632 275.539 202.747 275.579 202.787 275.659C202.811 275.703 202.824 275.743 202.828 275.779C202.834 275.811 202.837 275.862 202.837 275.93C202.837 275.998 202.834 276.05 202.828 276.086C202.824 276.118 202.811 276.157 202.787 276.201Z" stroke="white" stroke-width="2" mask="url(#path-13-outside-1_1557_134)"/>
<path d="M204.857 277.802L205.361 278.3C205.47 278.407 205.525 278.499 205.525 278.576C205.525 278.65 205.47 278.741 205.361 278.847C205.252 278.951 205.16 279.003 205.084 279.003C205.008 279.003 204.916 278.95 204.807 278.843L204.308 278.349L203.803 278.843C203.694 278.95 203.602 279.003 203.526 279.003C203.454 279.003 203.361 278.951 203.249 278.847C203.14 278.741 203.086 278.65 203.086 278.576C203.086 278.499 203.14 278.407 203.249 278.3L203.753 277.802L203.249 277.304C203.14 277.197 203.086 277.107 203.086 277.033C203.086 276.956 203.14 276.864 203.249 276.757C203.361 276.65 203.454 276.597 203.526 276.597C203.602 276.597 203.694 276.65 203.803 276.757L204.308 277.255L204.807 276.757C204.916 276.65 205.008 276.597 205.084 276.597C205.16 276.597 205.252 276.65 205.361 276.757C205.47 276.864 205.525 276.956 205.525 277.033C205.525 277.107 205.47 277.197 205.361 277.304L204.857 277.802Z" stroke="white" stroke-width="2" mask="url(#path-13-outside-1_1557_134)"/>
<path d="M207.166 277.42L206.871 277.402V278.016C206.871 278.096 206.883 278.154 206.907 278.189C206.934 278.225 206.983 278.243 207.052 278.243C207.125 278.243 207.18 278.246 207.216 278.251C207.255 278.254 207.296 278.268 207.339 278.291C207.408 278.33 207.443 278.429 207.443 278.589C207.443 278.776 207.401 278.89 207.316 278.932C207.27 278.953 207.23 278.966 207.193 278.972C207.16 278.975 207.11 278.976 207.043 278.976C206.728 278.976 206.489 278.907 206.326 278.767C206.162 278.628 206.081 278.392 206.081 278.06V277.402C206.023 277.411 205.961 277.415 205.894 277.415C205.828 277.415 205.772 277.39 205.726 277.34C205.684 277.289 205.663 277.203 205.663 277.082C205.663 276.96 205.67 276.873 205.685 276.819C205.701 276.763 205.722 276.723 205.749 276.699C205.797 276.661 205.858 276.642 205.931 276.642L206.081 276.659V276.201C206.081 276.133 206.082 276.083 206.085 276.05C206.091 276.017 206.106 275.982 206.13 275.943C206.17 275.869 206.286 275.832 206.48 275.832C206.686 275.832 206.809 275.887 206.848 275.997C206.863 276.044 206.871 276.12 206.871 276.223V276.659C207.004 276.647 207.104 276.642 207.171 276.642C207.24 276.642 207.292 276.644 207.325 276.65C207.361 276.653 207.402 276.667 207.448 276.69C207.526 276.729 207.566 276.843 207.566 277.033C207.566 277.22 207.525 277.334 207.443 277.375C207.398 277.396 207.357 277.409 207.32 277.415C207.287 277.418 207.236 277.42 207.166 277.42Z" stroke="white" stroke-width="2" mask="url(#path-13-outside-1_1557_134)"/>
<path d="M210.035 277.527C210.035 277.707 209.988 277.842 209.894 277.931C209.803 278.017 209.702 278.06 209.59 278.06H208.513C208.513 278.143 208.563 278.213 208.663 278.269C208.763 278.326 208.863 278.354 208.963 278.354C209.139 278.354 209.276 278.336 209.376 278.3L209.426 278.283C209.499 278.25 209.56 278.234 209.608 278.234C209.705 278.234 209.788 278.3 209.858 278.434C209.897 278.514 209.917 278.582 209.917 278.638C209.917 278.902 209.594 279.034 208.949 279.034C208.725 279.034 208.526 278.997 208.35 278.923C208.177 278.846 208.043 278.745 207.946 278.621C207.755 278.38 207.66 278.112 207.66 277.816C207.66 277.442 207.782 277.144 208.027 276.922C208.276 276.696 208.585 276.584 208.954 276.584C209.375 276.584 209.684 276.729 209.88 277.02C209.983 277.174 210.035 277.343 210.035 277.527ZM209.077 277.655C209.192 277.655 209.249 277.608 209.249 277.513C209.249 277.445 209.222 277.39 209.167 277.349C209.116 277.307 209.04 277.286 208.94 277.286C208.843 277.286 208.747 277.326 208.65 277.406C208.553 277.484 208.504 277.567 208.504 277.655H209.077Z" stroke="white" stroke-width="2" mask="url(#path-13-outside-1_1557_134)"/>
<path d="M211.957 276.659C212.015 276.677 212.062 276.708 212.098 276.753C212.137 276.794 212.157 276.862 212.157 276.957C212.157 277.052 212.128 277.156 212.071 277.269C212.013 277.381 211.93 277.438 211.821 277.438C211.766 277.438 211.713 277.426 211.662 277.402C211.613 277.378 211.548 277.366 211.467 277.366C211.385 277.366 211.308 277.395 211.235 277.451C211.165 277.507 211.131 277.575 211.131 277.655V278.589C211.131 278.658 211.127 278.71 211.121 278.745C211.118 278.778 211.105 278.816 211.081 278.861C211.035 278.938 210.917 278.976 210.726 278.976C210.581 278.976 210.477 278.951 210.413 278.901C210.364 278.859 210.337 278.795 210.331 278.71C210.331 278.68 210.331 278.637 210.331 278.581V277.02C210.331 276.951 210.333 276.901 210.336 276.868C210.342 276.833 210.355 276.794 210.377 276.753C210.419 276.673 210.537 276.633 210.731 276.633C210.913 276.633 211.026 276.667 211.071 276.735C211.105 276.782 211.121 276.831 211.121 276.882C211.137 276.861 211.158 276.836 211.185 276.806C211.215 276.776 211.277 276.736 211.371 276.686C211.465 276.636 211.547 276.61 211.616 276.61C211.689 276.61 211.75 276.615 211.798 276.624C211.847 276.63 211.9 276.642 211.957 276.659Z" stroke="white" stroke-width="2" mask="url(#path-13-outside-1_1557_134)"/>
<path d="M213.786 278.683C213.671 278.831 213.488 278.905 213.237 278.905C212.985 278.905 212.749 278.793 212.528 278.567C212.31 278.339 212.201 278.074 212.201 277.771C212.201 277.469 212.312 277.203 212.533 276.975C212.754 276.747 212.996 276.633 213.259 276.633C213.362 276.633 213.456 276.652 213.541 276.69C213.626 276.726 213.683 276.76 213.714 276.793C213.747 276.822 213.773 276.851 213.791 276.877C213.8 276.794 213.83 276.732 213.882 276.69C213.936 276.646 214.022 276.624 214.141 276.624C214.259 276.624 214.345 276.633 214.399 276.65C214.454 276.668 214.492 276.699 214.513 276.744C214.537 276.785 214.551 276.822 214.554 276.855C214.56 276.888 214.563 276.938 214.563 277.006V278.847C214.563 279.188 214.442 279.463 214.2 279.67C213.957 279.881 213.685 279.986 213.382 279.986C213.152 279.986 212.932 279.931 212.724 279.821C212.515 279.712 212.41 279.612 212.41 279.523C212.41 279.408 212.456 279.305 212.546 279.217C212.604 279.154 212.648 279.111 212.678 279.088C212.711 279.064 212.749 279.052 212.792 279.052C212.834 279.052 212.878 279.07 212.923 279.105C213.069 279.215 213.226 279.27 213.396 279.27C213.511 279.27 213.605 279.225 213.677 279.136C213.75 279.048 213.786 278.941 213.786 278.816V278.683ZM212.978 277.776C212.978 277.87 213.016 277.956 213.091 278.034C213.17 278.111 213.264 278.149 213.373 278.149C213.485 278.149 213.577 278.111 213.65 278.034C213.723 277.953 213.759 277.867 213.759 277.776C213.759 277.681 213.724 277.593 213.655 277.513C213.585 277.43 213.491 277.389 213.373 277.389C213.255 277.389 213.16 277.429 213.087 277.509C213.014 277.589 212.978 277.678 212.978 277.776Z" stroke="white" stroke-width="2" mask="url(#path-13-outside-1_1557_134)"/>
<path d="M217.233 277.527C217.233 277.707 217.186 277.842 217.092 277.931C217.002 278.017 216.9 278.06 216.788 278.06H215.712C215.712 278.143 215.762 278.213 215.862 278.269C215.962 278.326 216.061 278.354 216.161 278.354C216.337 278.354 216.475 278.336 216.575 278.3L216.625 278.283C216.697 278.25 216.758 278.234 216.806 278.234C216.903 278.234 216.986 278.3 217.056 278.434C217.095 278.514 217.115 278.582 217.115 278.638C217.115 278.902 216.793 279.034 216.148 279.034C215.924 279.034 215.724 278.997 215.548 278.923C215.376 278.846 215.241 278.745 215.144 278.621C214.953 278.38 214.858 278.112 214.858 277.816C214.858 277.442 214.981 277.144 215.226 276.922C215.474 276.696 215.783 276.584 216.152 276.584C216.573 276.584 216.882 276.729 217.079 277.02C217.182 277.174 217.233 277.343 217.233 277.527ZM216.275 277.655C216.39 277.655 216.447 277.608 216.447 277.513C216.447 277.445 216.42 277.39 216.366 277.349C216.314 277.307 216.239 277.286 216.139 277.286C216.042 277.286 215.945 277.326 215.848 277.406C215.751 277.484 215.703 277.567 215.703 277.655H216.275Z" stroke="white" stroke-width="2" mask="url(#path-13-outside-1_1557_134)"/>
<path d="M219.837 277.527C219.837 277.707 219.79 277.842 219.696 277.931C219.605 278.017 219.504 278.06 219.392 278.06H218.315C218.315 278.143 218.365 278.213 218.465 278.269C218.565 278.326 218.665 278.354 218.765 278.354C218.94 278.354 219.078 278.336 219.178 278.3L219.228 278.283C219.301 278.25 219.361 278.234 219.41 278.234C219.507 278.234 219.59 278.3 219.66 278.434C219.699 278.514 219.719 278.582 219.719 278.638C219.719 278.902 219.396 279.034 218.751 279.034C218.527 279.034 218.327 278.997 218.152 278.923C217.979 278.846 217.844 278.745 217.747 278.621C217.557 278.38 217.461 278.112 217.461 277.816C217.461 277.442 217.584 277.144 217.829 276.922C218.078 276.696 218.386 276.584 218.756 276.584C219.177 276.584 219.485 276.729 219.682 277.02C219.785 277.174 219.837 277.343 219.837 277.527ZM218.878 277.655C218.993 277.655 219.051 277.608 219.051 277.513C219.051 277.445 219.024 277.39 218.969 277.349C218.918 277.307 218.842 277.286 218.742 277.286C218.645 277.286 218.548 277.326 218.451 277.406C218.355 277.484 218.306 277.567 218.306 277.655H218.878Z" stroke="white" stroke-width="2" mask="url(#path-13-outside-1_1557_134)"/>
<path d="M221.541 277.802L222.145 278.291C222.221 278.354 222.268 278.401 222.286 278.434C222.307 278.466 222.317 278.498 222.317 278.527C222.317 278.598 222.271 278.695 222.177 278.816C222.074 278.941 221.983 279.003 221.904 279.003C221.838 279.003 221.745 278.96 221.627 278.874L221.582 278.843C221.512 278.787 221.405 278.689 221.259 278.549C221.114 278.407 221.003 278.306 220.928 278.247V278.589C220.928 278.658 220.925 278.71 220.919 278.745C220.916 278.778 220.902 278.816 220.878 278.861C220.838 278.938 220.722 278.976 220.528 278.976C220.337 278.976 220.221 278.936 220.178 278.856C220.157 278.812 220.144 278.773 220.137 278.741C220.134 278.705 220.133 278.653 220.133 278.585V275.921C220.133 275.853 220.134 275.802 220.137 275.77C220.144 275.734 220.157 275.694 220.178 275.65C220.221 275.57 220.339 275.53 220.533 275.53C220.678 275.53 220.781 275.555 220.841 275.605C220.893 275.647 220.92 275.712 220.923 275.801C220.926 275.828 220.928 275.869 220.928 275.925V277.335C220.982 277.291 221.064 277.215 221.173 277.108C221.285 277.002 221.368 276.926 221.423 276.882L221.477 276.846C221.583 276.766 221.674 276.726 221.75 276.726C221.825 276.726 221.912 276.787 222.009 276.908C222.109 277.027 222.159 277.12 222.159 277.189C222.159 277.257 222.103 277.337 221.99 277.429L221.541 277.802Z" stroke="white" stroke-width="2" mask="url(#path-13-outside-1_1557_134)"/>
<path d="M223.78 277.753C223.662 277.697 223.603 277.595 223.603 277.446C223.603 277.298 223.664 277.194 223.785 277.135C224.823 276.533 225.42 276.186 225.574 276.094C225.729 276.003 225.821 275.952 225.851 275.943C225.884 275.928 225.924 275.921 225.969 275.921C226.051 275.921 226.136 275.994 226.224 276.139C226.281 276.231 226.31 276.301 226.31 276.348C226.31 276.392 226.299 276.431 226.278 276.464C226.251 276.511 226.189 276.566 226.092 276.628C225.19 277.15 224.72 277.423 224.684 277.446L226.092 278.265C226.149 278.297 226.19 278.324 226.214 278.345C226.281 278.398 226.314 278.456 226.314 278.518C226.314 278.578 226.287 278.65 226.233 278.736C226.181 278.819 226.134 278.879 226.092 278.914C226.049 278.95 226.006 278.967 225.96 278.967C225.9 278.967 225.821 278.939 225.724 278.883L223.78 277.753Z" stroke="white" stroke-width="2" mask="url(#path-13-outside-1_1557_134)"/>
<path d="M227.182 279.012C227.157 279.062 227.138 279.099 227.123 279.123C227.11 279.147 227.088 279.169 227.054 279.19C227.024 279.214 226.983 279.225 226.932 279.225C226.88 279.225 226.805 279.203 226.705 279.159C226.605 279.114 226.537 279.074 226.5 279.039C226.467 279.006 226.45 278.969 226.45 278.927C226.45 278.886 226.469 278.812 226.505 278.705L227.967 275.712C228.025 275.599 228.076 275.534 228.122 275.516C228.146 275.504 228.181 275.499 228.226 275.499C228.275 275.499 228.352 275.522 228.458 275.57C228.621 275.647 228.703 275.731 228.703 275.823C228.703 275.862 228.682 275.936 228.64 276.046L227.182 279.012Z" stroke="white" stroke-width="2" mask="url(#path-13-outside-1_1557_134)"/>
<path d="M231.366 277.135C231.487 277.194 231.548 277.298 231.548 277.446C231.548 277.595 231.489 277.697 231.371 277.753L229.431 278.883C229.277 278.981 229.153 278.991 229.059 278.914C229.017 278.879 228.973 278.825 228.927 278.754C228.867 278.656 228.836 278.585 228.836 278.541C228.836 278.496 228.846 278.458 228.864 278.425C228.897 278.374 228.962 278.321 229.059 278.265L230.471 277.446L229.064 276.628C229.009 276.596 228.968 276.569 228.941 276.548C228.874 276.492 228.841 276.431 228.841 276.366C228.841 276.306 228.867 276.235 228.918 276.152C229.012 275.998 229.1 275.921 229.182 275.921C229.254 275.921 229.336 275.949 229.427 276.006L231.366 277.135Z" stroke="white" stroke-width="2" mask="url(#path-13-outside-1_1557_134)"/>
<defs>
<clipPath id="clip0_1557_134">
<rect width="160" height="208" fill="white" transform="translate(48)"/>
</clipPath>
</defs>
</svg>
