<svg width="161" height="186" viewBox="0 0 161 186" fill="none" xmlns="http://www.w3.org/2000/svg">
<path d="M82.6785 0.5C90.2941 0.500018 94.7395 1.43066 98.8094 3.11816C100.854 3.9661 102.814 5.0087 105.05 6.23926C107.275 7.46455 109.771 8.87334 112.864 10.4375C123.029 16.898 127.184 19.7728 129.501 21.8486C130.648 22.8763 131.344 23.709 132.105 24.7012C132.87 25.6972 133.712 26.8707 135.122 28.5352C140.646 35.0551 143.116 42.504 145.471 50.8789L145.472 50.8848C145.617 51.3766 145.748 51.8845 145.882 52.4023C146.012 52.9093 146.145 53.4258 146.293 53.9297C147.004 57.1698 147.512 60.4562 147.716 63.8389L147.752 64.5176C148.989 94.7703 148.4 129.976 145.337 162.288C144.917 166.744 141.742 169.95 137.775 171.229C133.808 172.508 129.114 171.834 125.727 168.585C121.185 164.222 113.772 163.853 108.802 167.785L95.7762 177.994H95.7752C90.7407 181.958 83.0991 181.101 79.2068 176.132V176.131L72.4276 167.516V167.515L72.2166 167.256C67.731 161.894 59.2166 161.259 53.9022 165.975L35.16 182.554C33.0112 184.422 30.1804 185.5 27.2361 185.5H26.6463C21.0372 185.5 16.3802 181.772 15.4324 176.797L15.3524 176.312C10.8188 143.244 9.75799 101.615 11.5252 64.1045C12.0513 53.572 15.3238 43.7414 20.7606 35.1963H20.7615L20.7654 35.1895C21.2284 34.4366 21.7507 33.6814 22.282 32.9131C28.8438 23.5286 37.3724 15.3623 48.4744 8.79297C50.6042 7.53275 53.9471 5.46773 59.3563 3.71094C64.5986 2.00833 71.7968 0.591224 81.7108 0.503906L82.6785 0.5Z" stroke="black"/>
<path d="M68.592 50.4157C68.592 64.5089 59.8519 75.901 49.0308 75.9596C41.6582 72.1427 36.4854 62.5124 36.4854 51.2968C36.4854 38.3192 43.3824 27.5733 52.5386 25.2832C61.695 27.5144 68.592 37.9082 68.592 50.4157Z" fill="black"/>
<path d="M119.67 49.9275C119.67 61.2714 113.031 70.6171 104.561 71.6166C98.0363 68.5013 93.4006 59.8607 93.4006 49.6335C93.4006 39.9941 97.6357 31.7064 103.588 28.1797C112.516 28.5322 119.67 38.1718 119.67 49.9275Z" fill="black"/>
<path d="M40.6686 76.0317C41.7997 73.0673 37.9038 69.011 31.9669 66.972C26.0296 64.933 20.2999 65.683 19.1686 68.6476C18.0373 71.6122 21.9332 75.6683 27.8703 77.7075C33.8072 79.7466 39.5373 78.9963 40.6686 76.0317Z" fill="black"/>
<path d="M132.664 79.155C138.601 77.1162 142.497 73.06 141.366 70.0955C140.236 67.1308 134.505 66.3801 128.569 68.419C122.631 70.4579 118.735 74.5139 119.866 77.4788C120.997 80.4435 126.726 81.1939 132.664 79.155Z" fill="black"/>
<path d="M1.72389 50.6914L6.95626 52.2498C6.87998 53.1474 6.81532 54.0483 6.81532 54.9651C6.81532 72.9276 21.7772 87.542 40.1677 87.542C58.5583 87.542 73.5202 72.9276 73.5202 54.9651C73.5202 50.6031 72.6232 46.4456 71.0239 42.64C73.7672 40.9464 76.9413 40.0256 80.266 40.0256C83.5896 40.0256 86.7642 40.9462 89.508 42.64C87.9086 46.4454 87.0116 50.6031 87.0116 54.9651C87.0116 72.9276 101.974 87.542 120.364 87.542C138.754 87.542 153.717 72.9276 153.717 54.9651C153.717 54.0483 153.653 53.1473 153.575 52.2496L158.809 50.6914C160.093 50.3085 160.818 48.9813 160.426 47.7262C160.034 46.4697 158.672 45.761 157.391 46.1463L152.802 47.5127C149.338 33.1344 136.126 22.3867 120.364 22.3867C108.174 22.3867 97.5213 28.8283 91.7028 38.3896C88.2815 36.3738 84.3649 35.2739 80.266 35.2739C76.1672 35.2739 72.2505 36.3734 68.829 38.3895C63.0107 28.8281 52.3579 22.3867 40.1677 22.3867C24.4059 22.3867 11.1941 33.1342 7.73032 47.5127L3.14198 46.1463C1.85339 45.76 0.49719 46.4697 0.106435 47.7262C-0.285533 48.9813 0.438939 50.3085 1.72389 50.6914ZM93.5867 45.5607C93.8089 45.6239 94.0325 45.6891 94.2622 45.6891C94.8844 45.6891 95.507 45.4571 95.9818 44.9931C96.932 44.065 96.932 42.5615 95.9818 41.6334C95.8553 41.5098 95.716 41.4037 95.5869 41.2833C100.487 32.8508 109.749 27.1383 120.364 27.1383C136.073 27.1383 148.853 39.622 148.853 54.9651C148.853 70.3083 136.073 82.7905 120.364 82.7905C104.656 82.7905 91.8763 70.3083 91.8763 54.9651C91.8763 51.6609 92.4997 48.5034 93.5867 45.5607ZM40.1677 27.1383C50.7832 27.1383 60.0448 32.8508 64.9451 41.2833C64.8159 41.4037 64.6767 41.5098 64.5501 41.6334C63.5999 42.5615 63.5999 44.0662 64.5501 44.9931C65.2004 45.6283 66.1206 45.7953 66.9451 45.5607C68.0321 48.5034 68.6557 51.6609 68.6557 54.9651C68.6557 70.3083 55.8755 82.7905 40.1677 82.7905C24.46 82.7905 11.68 70.3083 11.68 54.9651C11.68 39.622 24.46 27.1383 40.1677 27.1383Z" fill="black"/>
</svg>
