<svg xmlns="http://www.w3.org/2000/svg" viewBox="0 0 1715.78 720.24" id="girl-received-notification-on-mobile">
  <g id="Layer_2">
    <g id="outline">
      <g id="flower">
        <g id="leaves">
          <path d="M331 301c-16-4.67-34.51-7.52-56.08-7.84 0 0-8.2 29.85 1.82 67.15" style="fill:none;stroke:#111;stroke-width:6px;stroke-linecap:round;stroke-linejoin:round"></path>
          <path d="M331.29 365a174.69 174.69 0 0 1-.41-64.24M330.88 300.76c6.51-36.61 25.26-77.68 64.24-121.66 0 0 41.65 21.92 72.66 68.55" style="fill:none;stroke:#111;stroke-width:6px;stroke-linecap:round;stroke-linejoin:round"></path>
          <path d="M420.22 331.91c13.83-47.32 47.75-99.76 121.86-144.37 0 0 27.76 25.69 43.81 71.74" style="fill:none;stroke:#111;stroke-width:6px;stroke-linecap:round;stroke-linejoin:round"></path>
          <path d="M545.65 354.72c-4.47-24-17-51.57-42.58-82.46 0 0-173.38 78.67-86.44 184.83" style="fill:none;stroke:#111;stroke-width:6px;stroke-linecap:round;stroke-linejoin:round"></path>
          <path d="M392.23 392.82c-29.42-20.12-68.08-35.53-115.41-31.37M276.82 361.45A198.08 198.08 0 0 0 235 369.9s24.87 57.45 82.17 92.66" style="fill:none;stroke:#111;stroke-width:6px;stroke-linecap:round;stroke-linejoin:round"></path>
        </g>
        <path id="pot" d="M508.84 457.1H327.06a9.54 9.54 0 0 0-9.61 9.46v34.54a9.54 9.54 0 0 0 9.61 9.46h16l40.06 173.26" style="fill:none;stroke:#111;stroke-width:6px;stroke-linecap:round;stroke-linejoin:round"></path>
        <path id="pot-2" d="m542.15 716.94 15.59-67.42" style="fill:none;stroke:#111;stroke-width:6px;stroke-linecap:round;stroke-linejoin:round"></path>
      </g>
      <g id="woman">
        <g id="legs">
          <path d="m1408.78 689.62-16-151.5a16.49 16.49 0 0 0-23.85-14.78c-20.47 10.26-47.41 37.42-52.26 109.25M1270.91 600.67h49.83" style="fill:none;stroke:#111;stroke-width:6px;stroke-linecap:round;stroke-linejoin:round"></path>
          <path d="M1420 716.87s-11.29-87.58-164.59-91.4" style="fill:none;stroke:#111;stroke-width:6px;stroke-linecap:round;stroke-linejoin:round"></path>
          <path d="M1164.33 716.59 1274.93 606s-156.53-130.38-191-158.52c-35.5-29-88.92-91.2-162.08-39.12-28.59 20.35-80.32 63-131.53 111l.35.05-1.4.93c-12.7 11.91-25.35 24.14-37.6 36.42-2.69 25.45-12.56 70.13-30.32 63.11-5.78-2.28-11.82-10.93-17.37-12.34q-5.4 6.18-10.47 12.25c-2.74 9.83-12.7 30.79-23.56 30.37-19.66 27.76-30.47 51.45-26.34 66.69" style="fill:none;stroke:#111;stroke-width:6px;stroke-linecap:round;stroke-linejoin:round"></path>
          <path d="m1036.12 716.59-58.75-108.77c-38.72 70.55-59.9 98-72.29 107.53" style="fill:none;stroke:#111;stroke-width:6px;stroke-linecap:round;stroke-linejoin:round"></path>
        </g>
        <path id="shirt" d="M799.75 281.8c-30.68-7-93.75-8.7-121.39 5.29l-60.92 12.23c-21.38-7.59-47.34-3.34-67.15 21.26-40.9 50.78-78.92 238.52-78.92 238.52l76 7 7-14S528 717.38 569.16 717.38c1.41 0 34-.26 74.46-.6-4.13-15.24 6.67-38.93 26.33-66.69a7.63 7.63 0 0 1-1.42-.16c-10.72-2.29-22.38-14.31-25.16-29.79-8.74-4.21-3.45-.94-10.88-4.17A66.79 66.79 0 0 1 608 601.36c-4.71 10-7.95 22.3-5.44 33a3 3 0 0 1-2.23 3.6 2.72 2.72 0 0 1-.69.09 3 3 0 0 1-2.92-2.32c-3.08-13.06 1-27.68 6.82-39.12a58.09 58.09 0 0 1-5.64-8.1c-14.11 17.42-17.82 41.6-17.87 41.91a3 3 0 0 1-3 2.57 3.25 3.25 0 0 1-.44 0 3 3 0 0 1-2.54-3.4c.2-1.38 4.29-28.19 20.84-46.9-10.34-23.36-5-49.77-.47-56.75 8.09-12.44 9.44-11.34 9.44-11.34-4.59-14.71-15.28-12.76-20.92-10.68a2 2 0 0 1-2.47-2.58c20.47-52.06 77.72-14.51 77.72-14.51l11.58-4.44c-.82-22.82 1.6-50.73 5.71-54.92 9.49-9.69 50.08 35.42 50.08 35.42 29.42-5.61 59.52-11.11 86.23-15.25 1.3-10.15 2.26-20.44 2.62-30.24 15.38 8.58 30.78 16.95 45.52 24.84l17.73-1.52-7.66 6.79 1 .54c20.2-16.75 37.87-30.53 50.8-39.73a113.38 113.38 0 0 1 31.27-16.11C907 351.91 831.15 288.94 799.75 281.8Z" style="fill:#111"></path>
        <g id="shirt-2">
          <path d="m718.11 618-.09-.06ZM719.2 618.7h-.05ZM720.3 619.33l-.09-.05ZM723.87 620.47l-.5-.08ZM723 620.33l-.57-.15ZM722.2 620.11c-.28-.09-.57-.18-.85-.3.28.12.57.19.85.3ZM717 617.16l-.09-.07ZM713.77 614.38c-1.13-1-2.26-2-3.37-3 1.11.97 2.24 1.99 3.37 3ZM714.84 615.33l-.15-.13ZM715.9 616.24a.27.27 0 0 1-.08-.07.27.27 0 0 0 .08.07ZM727.83 620.09l-.42.13ZM730.07 619.05l-.41.24ZM728.59 619.81l-.42.16ZM724.68 620.54h-.46ZM730.8 618.57l-.41.28ZM732.23 617.42c-.14.13-.28.26-.43.38.2-.12.29-.25.43-.38ZM729.34 619.46l-.41.2ZM726.28 620.46h-.44ZM725 620.54ZM727.06 620.31l-.43.09ZM710.38 611.39c-.36-.31-.71-.6-1.07-.88.36.28.69.57 1.07.88ZM800.26 510.06c0-.21.09-.41.14-.62l-10.95 9.74c.42.05.83.1 1.22.17l-.35-.05q4.97-4.66 9.94-9.24ZM683.21 641a1.33 1.33 0 0 1-.14.19 1.33 1.33 0 0 0 .14-.19ZM682.33 642.18l-.06.07ZM684.06 639.82c0 .07-.1.15-.16.22s.1-.15.16-.22ZM677.85 646.89ZM685.59 637.46l-.05.09ZM684.86 638.61l-.13.21ZM733 616.74l-.46.45ZM675 648.83h-.09ZM677 647.59l-.11.08ZM676 648.25l-.12.08ZM688.38 632.48ZM694.07 617.4c-.13.68-.32 1.47-.56 2.34q5.07-6.06 10.47-12.25c-3.57-.93-6.98 1.16-9.91 9.91ZM705 607.81a8.13 8.13 0 0 0-1-.34 8.13 8.13 0 0 1 1 .34ZM693.24 620.67ZM709.3 610.5ZM707.13 608.93a13 13 0 0 0-2.07-1.1 13 13 0 0 1 2.07 1.1ZM708.22 609.67q-.53-.37-1.05-.72.53.34 1.05.72ZM689.68 629.81l-.13.28ZM690.79 627.31c0 .06 0 .11-.07.17s.05-.11.07-.17ZM689.05 631.13a2.56 2.56 0 0 1-.11.24 2.56 2.56 0 0 0 .11-.24ZM690.26 628.53a2.72 2.72 0 0 1-.11.25 2.72 2.72 0 0 0 .11-.25ZM731.52 618l-.42.32ZM747.76 580.82l-.12.52ZM748.07 579.38c0 .16-.07.32-.1.48.03-.16.03-.32.1-.48ZM748.63 576.63a2.56 2.56 0 0 1 0 .27 2.56 2.56 0 0 0 0-.27ZM748.36 578c0 .13-.05.27-.08.41.03-.17.05-.31.08-.41ZM747.44 582.26c-.05.19-.09.38-.13.57.04-.19.08-.38.13-.57ZM746.75 585.16l-.15.63ZM746 588.07c-.06.22-.12.43-.17.65.07-.22.17-.43.17-.65ZM747.1 583.71c-.05.2-.09.4-.14.6.04-.2.09-.4.14-.6ZM746.39 586.62c0 .21-.11.42-.16.63.05-.25.11-.42.16-.63ZM748.87 575.42ZM750.73 564.26v.15ZM751.41 559.08v.11s-.01-.07 0-.11ZM751.55 557.86ZM752.08 552.28c-.11 1.39-.24 2.87-.41 4.42 12.25-12.28 24.9-24.51 37.6-36.42l-4.34 2.9ZM733.17 616.52l.57-.61ZM751.25 560.33ZM750.33 567ZM750.53 565.63ZM745.63 589.51l-.18.66ZM750.92 562.93v.15ZM751.09 561.63v.12ZM737.58 610.45ZM738.16 609.41l-.32.59ZM737 611.46c-.12.19-.24.37-.35.56.1-.19.22-.37.35-.56ZM738.73 608.33l-.31.6ZM739.29 607.21ZM736.38 612.42l-.38.58ZM735.13 614.2c-.16.22-.33.43-.49.64.16-.21.36-.42.49-.64ZM739.84 606.06l-.3.64ZM734.49 615c-.21.26-.43.52-.65.77.22-.22.44-.48.65-.77ZM735.76 613.33c-.13.2-.27.38-.41.57.14-.19.28-.37.41-.57ZM741.41 602.39c-.1.23-.19.47-.28.7.09-.23.18-.47.28-.7ZM742.88 598.43l-.27.79ZM743.4 596.92ZM744 595.17c-.08.26-.17.52-.25.78.05-.26.14-.52.25-.78ZM744.4 593.78l-.21.7ZM740.37 604.87l-.29.65ZM744.82 592.37l-.19.67c.06-.23.13-.45.19-.67ZM745.23 591c-.06.22-.12.44-.19.66.07-.27.13-.49.19-.66ZM742.4 599.78c-.09.26-.18.51-.28.76.1-.25.19-.54.28-.76ZM740.89 603.64c-.09.23-.19.46-.28.68.09-.22.19-.45.28-.68ZM741.91 601.1l-.28.72Z" style="fill:#111"></path>
        </g>
        <g id="hand_with_smartphone">
          <path id="hand_line" d="m1073.06 211.9-4.59.26a13.94 13.94 0 0 0-12.08 8.48l-4.08 6.88" style="fill:none;stroke:#111;stroke-width:6px;stroke-linecap:round;stroke-linejoin:round"></path>
          <g id="fingers">
            <path d="M1129.28 213.87c3-.34 5.37 0 6.68 1.54 5 5.78 3.39 12.69-11.6 18.66M1123.28 234.57c3.68-.69 6.78-.5 8.32 1.3 5.31 6.19 3.13 13.67-15 19.91" style="fill:none;stroke:#111;stroke-width:6px;stroke-linecap:round;stroke-linejoin:round"></path>
            <path d="M1117.59 249.7c3.51.59 6.2 1.78 7 3.9 2.55 6.52-.42 12.12-13.44 13.52" style="fill:none;stroke:#111;stroke-width:6px;stroke-linecap:round;stroke-linejoin:round"></path>
          </g>
          <path id="phone" d="M1135.71 195 1092 177.9a7.11 7.11 0 0 0-9.21 4l-17.5 44.64a24.34 24.34 0 0 1 5.89.61l14.33-36.55a7.11 7.11 0 0 1 9.21-4l29.76 11.66a7.12 7.12 0 0 1 4 9.22l-31.21 79.62a7.09 7.09 0 0 1-9.21 4l-29.77-11.66a7.12 7.12 0 0 1-4-9.22l9.11-23.25a46 46 0 0 0-11.65 14.42v-.22l-6 15.38a7.11 7.11 0 0 0 4 9.21l43.71 17.13a7.11 7.11 0 0 0 9.22-4l37.1-94.65a7.12 7.12 0 0 0-4.07-9.24Z" style="fill:#6d6d6d"></path>
          <path id="thumb" d="M1043.39 412.79c19.4-38.44 34.38-84.61 39.28-112" style="fill:none;stroke:#111;stroke-width:6px;stroke-linecap:round;stroke-linejoin:round"></path>
          <path id="thumb-2" d="M1051.76 261.42a45.88 45.88 0 0 1 11.78-14.53c28.74-2 21.18-13.11 12.77-17.78-8.7-4.83-21.08-4.85-29.19 3l-3.55 4c-8 8.29-7.41 37.83-7.41 37.83-15.05 27.14-40 75.09-74.35 114.27" style="fill:none;stroke:#111;stroke-width:6px;stroke-linecap:round;stroke-linejoin:round"></path>
        </g>
        <g id="head">
          <path id="neck" d="M718.51 242 713 281.68l24.28-1.5s10.85 57.05-50 65.66c-42.41 6-44.57-57.43-44.57-57.43l1.38-101.31" style="fill:none;stroke:#111;stroke-width:6px;stroke-linecap:round;stroke-linejoin:round"></path>
          <path d="M644.19 177.71s-38.94 11.22-42.09-26.31c-2.4-28.46 25-31.19 38.36-30.84" style="fill:none;stroke:#111;stroke-width:6px;stroke-linecap:round;stroke-linejoin:round"></path>
          <path d="M789.94 136.43c1.18 17.15-2.16 96.58-55.36 104.71s-90.78-40.09-97.82-91 14-94.5 47.63-100.44 96.97-37.46 105.55 86.73Z" style="fill:none;stroke:#111;stroke-width:6px;stroke-linecap:round;stroke-linejoin:round"></path>
          <path d="m739.45 167.55 16.06-.63-12.7-64.44M705.15 113.57s10.79-12.78 21.36-4.84M759 110.41s12.4-11.15 21.77-1.78" style="fill:none;stroke:#111;stroke-width:6px;stroke-linecap:round;stroke-linejoin:round"></path>
          <ellipse cx="726.51" cy="143.46" rx="8.44" ry="5.33" style="fill:#111" transform="rotate(-89.17 726.482 143.473)"></ellipse>
          <ellipse cx="777.68" cy="146.04" rx="8.44" ry="5.33" style="fill:#111" transform="rotate(-89.17 777.648 146.059)"></ellipse>
          <ellipse cx="706.9" cy="132.74" rx="45.7" ry="33.81" style="fill:none;stroke-linecap:round;stroke-linejoin:round;stroke:#6d6d6d;stroke-width:4.5px" transform="rotate(-87.17 706.933 132.722)"></ellipse>
          <ellipse cx="796.13" cy="135.19" rx="45.7" ry="33.81" style="fill:none;stroke-linecap:round;stroke-linejoin:round;stroke:#6d6d6d;stroke-width:4.5px" transform="rotate(-87.17 796.16 135.176)"></ellipse>
          <path d="m762.94 122.26-21.13-.64M675.23 115.44l-49.3 5.34" style="fill:none;stroke-linecap:round;stroke-linejoin:round;stroke:#6d6d6d;stroke-width:4.5px"></path>
          <path id="mouth" d="M723.71 193.24s9.66 7.86 19.37 4.95" style="fill:#fff;stroke-linecap:round;stroke-linejoin:round;stroke:#111;stroke-width:6px"></path>
          <path d="M822.67 56.54C802.2-28.33 692.94-2.2 675.9 35.19c-71.7-16.39-100.11 35.92-113.75 69.69-13.2 32.68-5.71 63.78 10.41 98.87 9.27 20.18 49.4 6.19 71.07 3.68l.1-29.6c-4.35 1.11-38.68 8.71-41.63-26.43-1.1-12.83 3.9-20.4 10.9-24.87 2.58 3.61 7.47 5.15 15.64 3.42 28.25-6 44.07-33.18 51.52-50.8l129-4.71a14.49 14.49 0 0 0 13.51-17.9Z" style="fill:#111"></path>
          <g id="ponytail">
            <ellipse cx="617.79" cy="253.77" rx="57.43" ry="49.97" style="fill:#111" transform="rotate(-78.79 617.775 253.778)"></ellipse>
            <ellipse cx="675.14" cy="313.25" rx="41.63" ry="36.23" style="fill:#111" transform="rotate(-66.49 675.144 313.246)"></ellipse>
            <ellipse cx="708.49" cy="362.95" rx="37.16" ry="32.33" style="fill:#111" transform="rotate(-50.25 708.45 362.947)"></ellipse>
            <path d="M721.67 435.06c11.41 9.37 29.48 6.41 40.35-6.61s10.44-31.19-1-40.56-29.89-7.31-40.76 5.71-10 32.08 1.41 41.46Z" style="fill:#111"></path>
            <path d="m647.34 302.06 20.14-33.66M685.08 347.65l25.79-20.84M719.32 393.65l9.2-4.68M743.27 436.16l9.79-3.31" style="fill:none;stroke-linecap:round;stroke-linejoin:round;stroke:#6d6d6d;stroke-width:8px"></path>
          </g>
        </g>
        <g id="hand_II">
          <path d="M404.94 669.84s-45.75 24.5-58.43 31.1-12.22 14.95-12.22 14.95" style="fill:none;stroke:#111;stroke-width:6px;stroke-linecap:round;stroke-linejoin:round"></path>
          <path d="m474.92 556.68-32.69 117.5-25.79-5a29.24 29.24 0 0 0-22 6.27l-47 34.54a3.26 3.26 0 0 0 1.93 5.88c29.56-.08 101.86-.26 114.31 0 17 .37 26.58-6.43 40.86-42.68 7.52-19.09 24.58-70.36 40.71-110.94Z" style="fill:none;stroke:#111;stroke-width:6px;stroke-linecap:round;stroke-linejoin:round"></path>
          <path d="M361.59 715.93s36-19.6 41.38-22 24.14.28 24.14.28" style="fill:none;stroke:#111;stroke-width:6px;stroke-linecap:round;stroke-linejoin:round"></path>
          <path d="M397 714.16s-2.9-12.43 8.68-14.24 27.19-4.42 37.88-13.75" style="fill:none;stroke:#111;stroke-width:6px;stroke-linecap:round;stroke-linejoin:round"></path>
        </g>
      </g>
      <g id="cat">
        <path id="ear_line_II" d="M674.5 435.54s36.17 17.43 31.59 38.08" style="fill:none;stroke:#111;stroke-width:6px;stroke-linecap:round;stroke-linejoin:round"></path>
        <path d="M342.12 511.1h237" style="fill:none;stroke:#111;stroke-width:6px;stroke-linecap:round;stroke-linejoin:round"></path>
        <path id="nose" d="m643.09 553 9.5 3a2.69 2.69 0 0 0 3.31-1.78l2.83-8.87a2.44 2.44 0 0 0-3.44-3L643 548.28a2.55 2.55 0 0 0 .09 4.72Z" style="fill:#111"></path>
        <path id="mouth-2" d="M665 557c.75 13.28-7.67 3.35-11.24-2.64 2 6.22 2.42 17.34-4.71 10.89" style="fill:none;stroke:#111;stroke-width:6px;stroke-linecap:round;stroke-linejoin:round"></path>
        <g id="paw_lines_II">
          <path d="M732.06 617.35c-.89-2.25-8.28-30.25-5.1-46.07M708.05 577.75c-.33.57 4.81 29.24 15.61 42.39" style="fill:none;stroke:#111;stroke-width:6px;stroke-linecap:round;stroke-linejoin:round"></path>
          <path d="M791 519.4c-18.54-3.13-77.84 11.51-91.38 41.75s.87 50.29 21.95 58.64" style="fill:none;stroke:#111;stroke-width:6px;stroke-linecap:round;stroke-linejoin:round"></path>
        </g>
        <g id="paw_lines">
          <path d="M675.4 607.56s-5.65 29.52-2.18 42M657 607s-.81 32.59 8.48 42.28" style="fill:none;stroke:#111;stroke-width:6px;stroke-linecap:round;stroke-linejoin:round"></path>
          <path d="M693.9 589.09c-9.69-4.77-41.5-10.54-48.85 11.36-1.46 4.37-4.47 15.56-4.46 19.69" style="fill:none;stroke:#111;stroke-width:6px;stroke-linecap:round;stroke-linejoin:round"></path>
        </g>
        <path d="M677.25 520.54s-.68 10.77-11.34 5.87M636.86 537.35s-.68 10.77-11.34 5.87" style="fill:none;stroke:#111;stroke-width:6px;stroke-linecap:round;stroke-linejoin:round"></path>
        <path id="ear_line" d="M594.56 499.47s16.66-17.43 49.73-4" style="fill:none;stroke:#111;stroke-width:6px;stroke-linecap:round;stroke-linejoin:round"></path>
      </g>
      <g id="notification">
        <path d="M1018.94 115.57a5.94 5.94 0 0 0-11.86 0v8.22a5.95 5.95 0 0 0 11.86 0v-8.23Z" style="fill:#111"></path>
        <path d="M1045 90.87h-60.32a7.73 7.73 0 0 0-7.59 7.86v45.49a7.73 7.73 0 0 0 7.53 7.86l41.82.64 26.17 27.11v-81.1a7.72 7.72 0 0 0-7.61-7.86Zm-20.29 32.72a1.34 1.34 0 0 1 0 .2c0 6-5.26 10.92-11.73 10.92s-11.73-4.9-11.73-10.92v-8.22c0-6 5.26-10.93 11.73-10.93s11.73 4.9 11.73 10.93a1.41 1.41 0 0 1 0 .2v7.81Z" style="fill:#111"></path>
      </g>
      <path id="line" d="M1712.78 717.24H3" style="fill:none;stroke:#111;stroke-width:6px;stroke-linecap:round;stroke-linejoin:round"></path>
    </g>
  </g>
</svg>
