<svg width="64" height="71" viewBox="0 0 64 71" fill="none" xmlns="http://www.w3.org/2000/svg">
<path d="M21.0406 14C19.9343 14 19.0374 13.1046 19.0374 12V8C19.0374 6.89543 19.9343 6 21.0406 6C22.1469 6 23.0437 6.89543 23.0437 8V12C23.0437 13.1046 22.1469 14 21.0406 14ZM50.8095 13.6394C48.6202 11.4535 45.0706 11.4535 42.8813 13.6394L27.3757 29.1206C27.3901 28.6196 27.3963 28.1098 27.3877 27.6022C27.3484 25.2575 27.0053 22.3042 25.038 20.3399C22.8386 18.1439 19.2956 18.3228 17.3041 20.5667C16.8363 21.0937 16.5925 21.6767 16.4514 22.0543L11.3166 35.7928C11.1288 36.2952 10.8887 36.7658 10.5899 37.3515C10.5265 37.4756 10.4605 37.605 10.3918 37.7409C7.92549 42.621 8.82902 48.6039 12.7742 52.5428L22.5001 62.2534C27.5035 67.2489 35.6155 67.2489 40.6189 62.2534L53.3572 49.5352C55.5465 47.3493 55.5465 43.8053 53.3572 41.6195C52.6981 40.9614 51.9156 40.5014 51.0841 40.2396C51.4079 38.4891 50.8917 36.6142 49.5357 35.2604C48.9915 34.717 48.3631 34.3087 47.6925 34.0354C48.3613 32.0788 47.9142 29.826 46.3512 28.2654C45.9581 27.8729 45.5212 27.5509 45.0562 27.2994L50.8095 21.5551C52.9988 19.3692 52.9988 15.8253 50.8095 13.6394Z" fill="#F9A39D" stroke="#F9A39D" stroke-width="10"/>
<path d="M26.7277 16.4486C25.9367 15.6763 25.9367 14.4243 26.7277 13.6521L29.6248 10.8236C30.4158 10.0514 31.6983 10.0514 32.4893 10.8236C33.2803 11.5959 33.2803 12.8479 32.4893 13.6202L29.5921 16.4486C28.8011 17.2208 27.5187 17.2208 26.7277 16.4486ZM12.4577 10.8234C11.6667 10.0512 10.3843 10.0512 9.59325 10.8234C8.80225 11.5957 8.80225 12.8477 9.59325 13.62L12.4904 16.4484C13.2814 17.2206 14.5639 17.2206 15.3549 16.4484C16.1459 15.6761 16.1459 14.4241 15.3549 13.6519L12.4577 10.8234Z" fill="#F9A39D" stroke="#F9A39D" stroke-width="8"/>
<path d="M21.0406 14C19.9343 14 19.0374 13.1046 19.0374 12V8C19.0374 6.89543 19.9343 6 21.0406 6C22.1469 6 23.0437 6.89543 23.0437 8V12C23.0437 13.1046 22.1469 14 21.0406 14ZM50.8095 13.6394C48.6202 11.4535 45.0706 11.4535 42.8813 13.6394L27.3757 29.1206C27.3901 28.6196 27.3963 28.1098 27.3877 27.6022C27.3484 25.2575 27.0053 22.3042 25.038 20.3399C22.8386 18.1439 19.2956 18.3228 17.3041 20.5667C16.8363 21.0937 16.5925 21.6767 16.4514 22.0543L11.3166 35.7928C11.1288 36.2952 10.8887 36.7658 10.5899 37.3515C10.5265 37.4756 10.4605 37.605 10.3918 37.7409C7.92549 42.621 8.82902 48.6039 12.7742 52.5428L22.5001 62.2534C27.5035 67.2489 35.6155 67.2489 40.6189 62.2534L53.3572 49.5352C55.5465 47.3493 55.5465 43.8053 53.3572 41.6195C52.6981 40.9614 51.9156 40.5014 51.0841 40.2396C51.4079 38.4891 50.8917 36.6142 49.5357 35.2604C48.9915 34.717 48.3631 34.3087 47.6925 34.0354C48.3613 32.0788 47.9142 29.826 46.3512 28.2654C45.9581 27.8729 45.5212 27.5509 45.0562 27.2994L50.8095 21.5551C52.9988 19.3692 52.9988 15.8253 50.8095 13.6394Z" fill="black"/>
<path d="M26.7277 16.4486C25.9367 15.6763 25.9367 14.4243 26.7277 13.6521L29.6248 10.8236C30.4158 10.0514 31.6983 10.0514 32.4893 10.8236C33.2803 11.5959 33.2803 12.8479 32.4893 13.6202L29.5921 16.4486C28.8011 17.2208 27.5187 17.2208 26.7277 16.4486ZM12.4577 10.8234C11.6667 10.0512 10.3843 10.0512 9.59325 10.8234C8.80225 11.5957 8.80225 12.8477 9.59325 13.62L12.4904 16.4484C13.2814 17.2206 14.5639 17.2206 15.3549 16.4484C16.1459 15.6761 16.1459 14.4241 15.3549 13.6519L12.4577 10.8234Z" fill="black"/>
</svg>
