<svg width="86" height="86" viewBox="0 0 86 86" fill="none" xmlns="http://www.w3.org/2000/svg">
<path d="M25.084 50.1667C31.021 50.1667 35.834 45.3538 35.834 39.4167C35.834 33.4797 31.021 28.6667 25.084 28.6667C19.1469 28.6667 14.334 33.4797 14.334 39.4167C14.334 45.3538 19.1469 50.1667 25.084 50.1667Z" fill="#FBE05D" stroke="#FBE05D" stroke-width="14"/>
<path d="M53.7513 43C61.6674 43 68.0846 36.5828 68.0846 28.6667C68.0846 20.7506 61.6674 14.3334 53.7513 14.3334C45.8352 14.3334 39.418 20.7506 39.418 28.6667C39.418 36.5828 45.8352 43 53.7513 43Z" fill="#FBE05D" stroke="#FBE05D" stroke-width="14"/>
<path d="M53.7509 46.5834C49.9112 46.5914 46.1246 47.4808 42.6828 49.183C39.241 50.8853 36.236 53.3549 33.8993 56.4018C32.6236 55.7028 31.2625 55.1728 29.8501 54.8251H29.2768C26.5228 54.1479 23.6457 54.1479 20.8918 54.8251H20.2826C17.2897 55.589 14.5525 57.132 12.3495 59.2972C10.1466 61.4624 8.55645 64.1725 7.74093 67.1518C7.6 67.6152 7.55451 68.1024 7.60719 68.584C7.65988 69.0655 7.80965 69.5313 8.04745 69.9533C8.28525 70.3754 8.60615 70.7448 8.99075 71.0393C9.37535 71.3338 9.81567 71.5472 10.2851 71.6668C10.5943 71.7073 10.9075 71.7073 11.2168 71.6668C12.0257 71.6945 12.8203 71.4475 13.471 70.966C14.1216 70.4845 14.5901 69.7968 14.8001 69.0151C15.2898 67.2819 16.226 65.7077 17.5152 64.45C18.8043 63.1923 20.4012 62.2952 22.1459 61.8484H22.7193C24.3432 61.4477 26.0403 61.4477 27.6643 61.8484H28.2376C29.0233 62.0389 29.7818 62.3279 30.4951 62.7084C29.8631 64.2901 29.4065 65.9363 29.1334 67.6176C29.0652 68.0882 29.0903 68.5676 29.2074 69.0284C29.3244 69.4893 29.5311 69.9226 29.8156 70.3036C30.1001 70.6846 30.4568 71.0058 30.8654 71.2489C31.2741 71.492 31.7266 71.6523 32.1972 71.7205C32.6677 71.7887 33.1471 71.7636 33.608 71.6466C34.0689 71.5295 34.5022 71.3229 34.8832 71.0384C35.2641 70.7539 35.5854 70.3971 35.8285 69.9885C36.0716 69.5799 36.2319 69.1273 36.3001 68.6568C36.595 66.7342 37.2257 64.8784 38.1634 63.1743C39.6818 60.3533 41.9287 57.991 44.6702 56.3335C47.4117 54.676 50.5475 53.7839 53.7509 53.7501C56.1096 53.7387 58.4468 54.1988 60.6252 55.1034C62.8035 56.0079 64.7791 57.3387 66.4359 59.0176C69.0885 61.6122 70.835 64.9921 71.4168 68.6568C71.5541 69.5047 71.9915 70.275 72.6492 70.8275C73.3069 71.38 74.1412 71.6778 75.0001 71.6668H75.5734C76.5083 71.5169 77.3458 71.0031 77.9031 70.2377C78.4604 69.4723 78.6921 68.5175 78.5476 67.5818C77.7709 62.4234 75.3593 57.6505 71.6676 53.9651C69.3296 51.595 66.5384 49.7199 63.4602 48.4517C60.382 47.1835 57.0799 46.5481 53.7509 46.5834Z" fill="#FBE05D" stroke="#FBE05D" stroke-width="14"/>
<path d="M25.084 50.1667C31.021 50.1667 35.834 45.3538 35.834 39.4167C35.834 33.4797 31.021 28.6667 25.084 28.6667C19.1469 28.6667 14.334 33.4797 14.334 39.4167C14.334 45.3538 19.1469 50.1667 25.084 50.1667Z" fill="black"/>
<path d="M53.7513 43C61.6674 43 68.0846 36.5828 68.0846 28.6667C68.0846 20.7506 61.6674 14.3334 53.7513 14.3334C45.8352 14.3334 39.418 20.7506 39.418 28.6667C39.418 36.5828 45.8352 43 53.7513 43Z" fill="black"/>
<path d="M53.7509 46.5834C49.9112 46.5914 46.1246 47.4808 42.6828 49.183C39.241 50.8853 36.236 53.3549 33.8993 56.4018C32.6236 55.7028 31.2625 55.1728 29.8501 54.8251H29.2768C26.5228 54.1479 23.6457 54.1479 20.8918 54.8251H20.2826C17.2897 55.589 14.5525 57.132 12.3495 59.2972C10.1466 61.4624 8.55645 64.1725 7.74093 67.1518C7.6 67.6152 7.55451 68.1024 7.60719 68.584C7.65988 69.0655 7.80965 69.5313 8.04745 69.9533C8.28525 70.3754 8.60615 70.7448 8.99075 71.0393C9.37535 71.3338 9.81567 71.5472 10.2851 71.6668C10.5943 71.7073 10.9075 71.7073 11.2168 71.6668C12.0257 71.6945 12.8203 71.4475 13.471 70.966C14.1216 70.4845 14.5901 69.7968 14.8001 69.0151C15.2898 67.2819 16.226 65.7077 17.5152 64.45C18.8043 63.1923 20.4012 62.2952 22.1459 61.8484H22.7193C24.3432 61.4477 26.0403 61.4477 27.6643 61.8484H28.2376C29.0233 62.0389 29.7818 62.3279 30.4951 62.7084C29.8631 64.2901 29.4065 65.9363 29.1334 67.6176C29.0652 68.0882 29.0903 68.5676 29.2074 69.0284C29.3244 69.4893 29.5311 69.9226 29.8156 70.3036C30.1001 70.6846 30.4568 71.0058 30.8654 71.2489C31.2741 71.492 31.7266 71.6523 32.1972 71.7205C32.6677 71.7887 33.1471 71.7636 33.608 71.6466C34.0689 71.5295 34.5022 71.3229 34.8832 71.0384C35.2641 70.7539 35.5854 70.3971 35.8285 69.9885C36.0716 69.5799 36.2319 69.1273 36.3001 68.6568C36.595 66.7342 37.2257 64.8784 38.1634 63.1743C39.6818 60.3533 41.9287 57.991 44.6702 56.3335C47.4117 54.676 50.5475 53.7839 53.7509 53.7501C56.1096 53.7387 58.4468 54.1988 60.6252 55.1034C62.8035 56.0079 64.7791 57.3387 66.4359 59.0176C69.0885 61.6122 70.835 64.9921 71.4168 68.6568C71.5541 69.5047 71.9915 70.275 72.6492 70.8275C73.3069 71.38 74.1412 71.6778 75.0001 71.6668H75.5734C76.5083 71.5169 77.3458 71.0031 77.9031 70.2377C78.4604 69.4723 78.6921 68.5175 78.5476 67.5818C77.7709 62.4234 75.3593 57.6505 71.6676 53.9651C69.3296 51.595 66.5384 49.7199 63.4602 48.4517C60.382 47.1835 57.0799 46.5481 53.7509 46.5834Z" fill="black"/>
</svg>
