<svg width="26" height="26" viewBox="0 0 26 26" fill="none" xmlns="http://www.w3.org/2000/svg">
<g clip-path="url(#clip0_790_529)">
<path d="M22.75 14.5C22.75 12.595 21.481 10.997 19.75 10.459V10C19.75 6.278 16.722 3.25 13 3.25C9.278 3.25 6.25 6.278 6.25 10V10.459C4.519 10.997 3.25 12.594 3.25 14.5C3.25 16.843 5.157 18.75 7.5 18.75H8C8.965 18.75 9.75 17.965 9.75 17V12C9.75 11.035 8.965 10.25 8 10.25H7.75V10C7.75 7.105 10.105 4.75 13 4.75C15.895 4.75 18.25 7.105 18.25 10V10.25H18C17.035 10.25 16.25 11.035 16.25 12V17C16.25 17.965 17.035 18.75 18 18.75H18.154C17.813 20.18 16.533 21.25 15 21.25H12.772C12.358 21.25 12.022 21.586 12.022 22C12.022 22.414 12.358 22.75 12.772 22.75H15C17.428 22.75 19.413 20.912 19.694 18.558C21.454 18.038 22.75 16.426 22.75 14.5Z" fill="#C4B9F9" stroke="#C4B9F9" stroke-width="5"/>
<path d="M22.75 14.5C22.75 12.595 21.481 10.997 19.75 10.459V10C19.75 6.278 16.722 3.25 13 3.25C9.278 3.25 6.25 6.278 6.25 10V10.459C4.519 10.997 3.25 12.594 3.25 14.5C3.25 16.843 5.157 18.75 7.5 18.75H8C8.965 18.75 9.75 17.965 9.75 17V12C9.75 11.035 8.965 10.25 8 10.25H7.75V10C7.75 7.105 10.105 4.75 13 4.75C15.895 4.75 18.25 7.105 18.25 10V10.25H18C17.035 10.25 16.25 11.035 16.25 12V17C16.25 17.965 17.035 18.75 18 18.75H18.154C17.813 20.18 16.533 21.25 15 21.25H12.772C12.358 21.25 12.022 21.586 12.022 22C12.022 22.414 12.358 22.75 12.772 22.75H15C17.428 22.75 19.413 20.912 19.694 18.558C21.454 18.038 22.75 16.426 22.75 14.5Z" fill="black"/>
<rect x="10" y="7" width="6" height="12" fill="#C4B9F9"/>
</g>
<defs>
<clipPath id="clip0_790_529">
<rect width="26" height="26" fill="white"/>
</clipPath>
</defs>
</svg>
