<svg width="63" height="63" viewBox="0 0 63 63" fill="none" xmlns="http://www.w3.org/2000/svg">
<path d="M26.375 34.25H10.625C9.05 34.25 8 35.3 8 36.875V52.625C8 54.2 9.05 55.25 10.625 55.25H26.375C27.95 55.25 29 54.2 29 52.625V36.875C29 35.3 27.95 34.25 26.375 34.25ZM26.375 8H10.625C9.05 8 8 9.05 8 10.625V26.375C8 27.95 9.05 29 10.625 29H26.375C27.95 29 29 27.95 29 26.375V10.625C29 9.05 27.95 8 26.375 8ZM52.625 42.125H47.375V36.875C47.375 35.3 46.325 34.25 44.75 34.25C43.175 34.25 42.125 35.3 42.125 36.875V42.125H36.875C35.3 42.125 34.25 43.175 34.25 44.75C34.25 46.325 35.3 47.375 36.875 47.375H42.125V52.625C42.125 54.2 43.175 55.25 44.75 55.25C46.325 55.25 47.375 54.2 47.375 52.625V47.375H52.625C54.2 47.375 55.25 46.325 55.25 44.75C55.25 43.175 54.2 42.125 52.625 42.125ZM52.625 8H36.875C35.3 8 34.25 9.05 34.25 10.625V26.375C34.25 27.95 35.3 29 36.875 29H52.625C54.2 29 55.25 27.95 55.25 26.375V10.625C55.25 9.05 54.2 8 52.625 8Z" fill="#76D3CB" stroke="#76D3CB" stroke-width="12"/>
<path d="M26.25 34.125H10.5C8.925 34.125 7.875 35.175 7.875 36.75V52.5C7.875 54.075 8.925 55.125 10.5 55.125H26.25C27.825 55.125 28.875 54.075 28.875 52.5V36.75C28.875 35.175 27.825 34.125 26.25 34.125ZM26.25 7.875H10.5C8.925 7.875 7.875 8.925 7.875 10.5V26.25C7.875 27.825 8.925 28.875 10.5 28.875H26.25C27.825 28.875 28.875 27.825 28.875 26.25V10.5C28.875 8.925 27.825 7.875 26.25 7.875ZM52.5 42H47.25V36.75C47.25 35.175 46.2 34.125 44.625 34.125C43.05 34.125 42 35.175 42 36.75V42H36.75C35.175 42 34.125 43.05 34.125 44.625C34.125 46.2 35.175 47.25 36.75 47.25H42V52.5C42 54.075 43.05 55.125 44.625 55.125C46.2 55.125 47.25 54.075 47.25 52.5V47.25H52.5C54.075 47.25 55.125 46.2 55.125 44.625C55.125 43.05 54.075 42 52.5 42ZM52.5 7.875H36.75C35.175 7.875 34.125 8.925 34.125 10.5V26.25C34.125 27.825 35.175 28.875 36.75 28.875H52.5C54.075 28.875 55.125 27.825 55.125 26.25V10.5C55.125 8.925 54.075 7.875 52.5 7.875Z" fill="black"/>
</svg>
