<svg width="63" height="58" viewBox="0 0 63 58" fill="none" xmlns="http://www.w3.org/2000/svg">
<path d="M13.8506 42.3945C14.4518 42.3945 14.927 42.8695 14.9375 43.4707V52.0449C14.9375 52.6355 14.452 53.1211 13.8613 53.1211H5.28711C4.68594 53.1211 4.21094 52.6355 4.21094 52.0449V43.4707C4.21094 42.8695 4.69648 42.3945 5.28711 42.3945H13.8506ZM55.1104 45.0732C56.5867 45.0733 57.7888 46.2757 57.7891 47.752C57.7891 49.2285 56.5868 50.4315 55.1104 50.4316H25.6426C24.166 50.4316 22.9629 49.2285 22.9629 47.752C22.9631 46.2756 24.1662 45.0732 25.6426 45.0732H55.1104ZM15.707 21.7441C16.7617 20.7 18.4494 20.7 19.5146 21.7441C20.5585 22.7883 20.5587 24.4862 19.5146 25.5303L11.4775 33.5664C10.9502 34.0832 10.2646 34.3477 9.5791 34.3477C8.89362 34.3476 8.20796 34.0937 7.68066 33.5664L5.00195 30.8877C3.95793 29.8435 3.95785 28.1457 5.00195 27.1016C6.04605 26.0575 7.74394 26.0576 8.78809 27.1016L9.56836 27.8818L15.707 21.7441ZM55.1104 26.3213C56.5868 26.3214 57.789 27.5235 57.7891 29C57.7891 30.4765 56.5868 31.6786 55.1104 31.6787H25.6426C24.166 31.6787 22.9629 30.4766 22.9629 29C22.9629 27.5235 24.166 26.3213 25.6426 26.3213H55.1104ZM13.8613 4.88965C14.4625 4.88965 14.9375 5.3752 14.9375 5.96582V14.5293C14.9375 15.1199 14.452 15.6055 13.8613 15.6055H5.28711C4.69648 15.6055 4.21094 15.1201 4.21094 14.54V5.96582C4.21094 5.36465 4.69648 4.88965 5.28711 4.88965H13.8613ZM55.1104 7.56836C56.5868 7.56847 57.7891 8.77155 57.7891 10.248C57.7889 11.7244 56.5867 12.9267 55.1104 12.9268H25.6426C24.1661 12.9268 22.9631 11.7245 22.9629 10.248C22.9629 8.77148 24.166 7.56836 25.6426 7.56836H55.1104Z" fill="#BBF0FF"/>
<path d="M14.9375 43.4707H18.9375V43.4356L18.9369 43.4005L14.9375 43.4707ZM55.1104 45.0732L55.1106 41.0732H55.1104V45.0732ZM57.7891 47.752L61.7891 47.752L61.7891 47.7513L57.7891 47.752ZM55.1104 50.4316L55.1104 54.4316L55.1106 54.4316L55.1104 50.4316ZM22.9629 47.752L18.9629 47.7513V47.752H22.9629ZM15.707 21.7441L12.8929 18.9015L12.8858 18.9085L12.8788 18.9155L15.707 21.7441ZM19.5146 21.7441L22.3435 18.9161L22.3291 18.9018L22.3147 18.8876L19.5146 21.7441ZM19.5146 25.5303L22.3429 28.3589L22.3431 28.3587L19.5146 25.5303ZM11.4775 33.5664L14.2773 36.4233L14.2916 36.4092L14.3058 36.395L11.4775 33.5664ZM9.5791 34.3477L9.57882 38.3477H9.5791V34.3477ZM7.68066 33.5664L10.5091 30.738L7.68066 33.5664ZM5.00195 30.8877L2.17335 33.7159L2.17353 33.7161L5.00195 30.8877ZM5.00195 27.1016L2.17356 24.2731L2.17353 24.2731L5.00195 27.1016ZM8.78809 27.1016L11.6165 24.2731L11.6163 24.273L8.78809 27.1016ZM9.56836 27.8818L6.73993 30.7103L9.56813 33.5385L12.3966 30.7105L9.56836 27.8818ZM55.1104 26.3213L55.1106 22.3213H55.1104V26.3213ZM57.7891 29L61.7891 29L61.7891 28.9999L57.7891 29ZM55.1104 31.6787L55.1104 35.6787L55.1106 35.6787L55.1104 31.6787ZM22.9629 29L18.9629 28.9999V29H22.9629ZM5.28711 4.88965V8.88965V4.88965ZM55.1104 7.56836L55.1106 3.56836H55.1104V7.56836ZM57.7891 10.248L61.7891 10.2486V10.248H57.7891ZM55.1104 12.9268L55.1104 16.9268L55.1106 16.9268L55.1104 12.9268ZM22.9629 10.248L18.9629 10.248L18.9629 10.2486L22.9629 10.248ZM13.8506 42.3945V46.3945C12.2308 46.3945 10.9651 45.0817 10.9381 43.5409L14.9375 43.4707L18.9369 43.4005C18.8888 40.6573 16.6728 38.3945 13.8506 38.3945V42.3945ZM14.9375 43.4707H10.9375V52.0449H14.9375H18.9375V43.4707H14.9375ZM14.9375 52.0449H10.9375C10.9375 50.4264 12.2428 49.1211 13.8613 49.1211V53.1211V57.1211C16.6611 57.1211 18.9375 54.8447 18.9375 52.0449H14.9375ZM13.8613 53.1211V49.1211H5.28711V53.1211V57.1211H13.8613V53.1211ZM5.28711 53.1211V49.1211C6.92059 49.1211 8.21094 50.452 8.21094 52.0449H4.21094H0.210938C0.210938 54.8191 2.45129 57.1211 5.28711 57.1211V53.1211ZM4.21094 52.0449H8.21094V43.4707H4.21094H0.210938V52.0449H4.21094ZM4.21094 43.4707H8.21094C8.21094 45.1042 6.88003 46.3945 5.28711 46.3945V42.3945V38.3945C2.51294 38.3945 0.210938 40.6349 0.210938 43.4707H4.21094ZM5.28711 42.3945V46.3945H13.8506V42.3945V38.3945H5.28711V42.3945ZM55.1104 45.0732L55.1101 49.0732C54.3771 49.0732 53.7892 48.4846 53.7891 47.7526L57.7891 47.752L61.7891 47.7513C61.7885 44.0667 58.7962 41.0735 55.1106 41.0732L55.1104 45.0732ZM57.7891 47.752H53.7891C53.7891 47.0209 54.376 46.4317 55.1101 46.4316L55.1104 50.4316L55.1106 54.4316C58.7976 54.4314 61.7891 51.436 61.7891 47.752H57.7891ZM55.1104 50.4316V46.4316H25.6426V50.4316V54.4316H55.1104V50.4316ZM25.6426 50.4316V46.4316C26.3752 46.4316 26.9629 47.0194 26.9629 47.752H22.9629H18.9629C18.9629 51.4377 21.9569 54.4316 25.6426 54.4316V50.4316ZM22.9629 47.752L26.9629 47.7526C26.9628 48.4861 26.374 49.0732 25.6426 49.0732V45.0732V41.0732C21.9583 41.0732 18.9635 44.0651 18.9629 47.7513L22.9629 47.752ZM25.6426 45.0732V49.0732H55.1104V45.0732V41.0732H25.6426V45.0732ZM15.707 21.7441L18.5212 24.5867C18.0094 25.0934 17.197 25.0735 16.7146 24.6007L19.5146 21.7441L22.3147 18.8876C19.7018 16.3265 15.514 16.3066 12.8929 18.9015L15.707 21.7441ZM19.5146 21.7441L16.6858 24.5722C16.1685 24.0547 16.1678 23.2203 16.6862 22.7019L19.5146 25.5303L22.3431 28.3587C24.9495 25.7522 24.9486 21.5219 22.3435 18.9161L19.5146 21.7441ZM19.5146 25.5303L16.6864 22.7017L8.64928 30.7378L11.4775 33.5664L14.3058 36.395L22.3429 28.3589L19.5146 25.5303ZM11.4775 33.5664L8.67782 30.7096C8.91091 30.4811 9.23575 30.3477 9.5791 30.3477V34.3477V38.3477C11.2935 38.3477 12.9895 37.6853 14.2773 36.4233L11.4775 33.5664ZM9.5791 34.3477L9.57938 30.3477C9.88605 30.3477 10.2391 30.468 10.5091 30.738L7.68066 33.5664L4.85224 36.3948C6.17677 37.7194 7.90119 38.3475 9.57882 38.3477L9.5791 34.3477ZM7.68066 33.5664L10.5091 30.738L7.83038 28.0593L5.00195 30.8877L2.17353 33.7161L4.85224 36.3948L7.68066 33.5664ZM5.00195 30.8877L7.83056 28.0594C8.34822 28.5772 8.34856 29.4118 7.83038 29.93L5.00195 27.1016L2.17353 24.2731C-0.432849 26.8795 -0.432352 31.1099 2.17335 33.7159L5.00195 30.8877ZM5.00195 27.1016L7.83034 29.93C7.31221 30.4481 6.47761 30.4479 5.95984 29.9302L8.78809 27.1016L11.6163 24.273C9.01028 21.6672 4.7799 21.6668 2.17356 24.2731L5.00195 27.1016ZM8.78809 27.1016L5.95966 29.93L6.73993 30.7103L9.56836 27.8818L12.3968 25.0534L11.6165 24.2731L8.78809 27.1016ZM9.56836 27.8818L12.3966 30.7105L18.5352 24.5728L15.707 21.7441L12.8788 18.9155L6.74016 25.0532L9.56836 27.8818ZM55.1104 26.3213L55.1101 30.3213C54.3778 30.3212 53.7891 29.7329 53.7891 29.0001L57.7891 29L61.7891 28.9999C61.789 25.3142 58.7958 22.3216 55.1106 22.3213L55.1104 26.3213ZM57.7891 29H53.7891C53.7891 28.2671 54.3779 27.6788 55.1101 27.6787L55.1104 31.6787L55.1106 35.6787C58.7957 35.6784 61.7891 32.6859 61.7891 29H57.7891ZM55.1104 31.6787V27.6787H25.6426V31.6787V35.6787H55.1104V31.6787ZM25.6426 31.6787V27.6787C26.3733 27.6787 26.9629 28.2655 26.9629 29H22.9629H18.9629C18.9629 32.6876 21.9588 35.6787 25.6426 35.6787V31.6787ZM22.9629 29L26.9629 29.0001C26.9629 29.7344 26.3733 30.3213 25.6426 30.3213V26.3213V22.3213C21.9587 22.3213 18.963 25.3125 18.9629 28.9999L22.9629 29ZM25.6426 26.3213V30.3213H55.1104V26.3213V22.3213H25.6426V26.3213ZM13.8613 4.88965V8.88965C12.2278 8.88965 10.9375 7.55874 10.9375 5.96582H14.9375H18.9375C18.9375 3.19165 16.6972 0.889648 13.8613 0.889648V4.88965ZM14.9375 5.96582H10.9375V14.5293H14.9375H18.9375V5.96582H14.9375ZM14.9375 14.5293H10.9375C10.9375 12.9108 12.2428 11.6055 13.8613 11.6055V15.6055V19.6055C16.6611 19.6055 18.9375 17.3291 18.9375 14.5293H14.9375ZM13.8613 15.6055V11.6055H5.28711V15.6055V19.6055H13.8613V15.6055ZM5.28711 15.6055V11.6055C6.87907 11.6055 8.21094 12.8845 8.21094 14.54H4.21094H0.210938C0.210938 17.3557 2.5139 19.6055 5.28711 19.6055V15.6055ZM4.21094 14.54H8.21094V5.96582H4.21094H0.210938V14.54H4.21094ZM4.21094 5.96582H8.21094C8.21094 7.5993 6.88003 8.88965 5.28711 8.88965L5.28711 4.88965L5.28711 0.889648C2.51294 0.889648 0.210938 3.13 0.210938 5.96582H4.21094ZM5.28711 4.88965V8.88965H13.8613V4.88965V0.889648H5.28711V4.88965ZM55.1104 7.56836L55.1101 11.5684C54.376 11.5683 53.7891 10.9791 53.7891 10.248H57.7891H61.7891C61.7891 6.56402 58.7976 3.56862 55.1106 3.56836L55.1104 7.56836ZM57.7891 10.248L53.7891 10.2475C53.7892 9.51535 54.3773 8.92681 55.1101 8.92676L55.1104 12.9268L55.1106 16.9268C58.7961 16.9265 61.7886 13.9334 61.7891 10.2486L57.7891 10.248ZM55.1104 12.9268V8.92676H25.6426V12.9268V16.9268H55.1104V12.9268ZM25.6426 12.9268V8.92676C26.3739 8.92676 26.9628 9.51381 26.9629 10.2475L22.9629 10.248L18.9629 10.2486C18.9634 13.9351 21.9584 16.9268 25.6426 16.9268V12.9268ZM22.9629 10.248H26.9629C26.9629 10.9806 26.3752 11.5684 25.6426 11.5684V7.56836V3.56836C21.9569 3.56836 18.9629 6.56235 18.9629 10.248H22.9629ZM25.6426 7.56836V11.5684H55.1104V7.56836V3.56836H25.6426V7.56836Z" fill="#BBF0FF"/>
<rect x="10.5" y="9.5" width="43" height="38" fill="#BBF0FF" stroke="#BBF0FF"/>
<path d="M15.707 21.7438L9.56875 27.8821L8.78828 27.1016C7.74414 26.0575 6.04609 26.0575 5.00195 27.1016C3.95781 28.1458 3.95781 29.8438 5.00195 30.8879L7.68086 33.5668C8.2082 34.0942 8.89375 34.3473 9.5793 34.3473C10.2648 34.3473 10.9504 34.0836 11.4777 33.5668L19.5145 25.5301C20.5586 24.486 20.5586 22.7879 19.5145 21.7438C18.4492 20.6997 16.7617 20.6997 15.707 21.7438ZM5.28672 15.6055H13.8613C14.452 15.6055 14.9371 15.1204 14.9371 14.5297V5.96567C14.9371 5.37505 14.4625 4.88989 13.8613 4.88989H5.28672C4.69609 4.88989 4.21094 5.3645 4.21094 5.96567V14.5403C4.21094 15.1204 4.69609 15.6055 5.28672 15.6055ZM13.8508 42.3946H5.28672C4.69609 42.3946 4.21094 42.8692 4.21094 43.4704V52.045C4.21094 52.6356 4.68555 53.1208 5.28672 53.1208H13.8613C14.452 53.1208 14.9371 52.6356 14.9371 52.045V43.4704C14.9266 42.8692 14.452 42.3946 13.8508 42.3946ZM25.6422 12.9266H55.1102C56.5867 12.9266 57.7891 11.7243 57.7891 10.2477C57.7891 8.77114 56.5867 7.5688 55.1102 7.5688H25.6422C24.1656 7.5688 22.9633 8.77114 22.9633 10.2477C22.9633 11.7243 24.1656 12.9266 25.6422 12.9266ZM55.1102 26.3211H25.6422C24.1656 26.3211 22.9633 27.5235 22.9633 29C22.9633 30.4766 24.1656 31.679 25.6422 31.679H55.1102C56.5867 31.679 57.7891 30.4766 57.7891 29C57.7891 27.5235 56.5867 26.3211 55.1102 26.3211ZM55.1102 45.0735H25.6422C24.1656 45.0735 22.9633 46.2758 22.9633 47.7524C22.9633 49.229 24.1656 50.4313 25.6422 50.4313H55.1102C56.5867 50.4313 57.7891 49.229 57.7891 47.7524C57.7891 46.2758 56.5867 45.0735 55.1102 45.0735Z" fill="black"/>
</svg>
