<svg width="138" height="138" viewBox="0 0 138 138" fill="none" xmlns="http://www.w3.org/2000/svg">
<path d="M70.5928 57.3334C76.4837 57.3336 81.2588 62.1094 81.2588 68.0004C81.2586 73.8911 76.4836 78.6662 70.5928 78.6664C64.7018 78.6664 59.926 73.8913 59.9258 68.0004C59.9258 62.1093 64.7017 57.3334 70.5928 57.3334Z" fill="#BFDD78" stroke="#BFDD78" stroke-width="10"/>
<path d="M93.2588 57.3334C99.1497 57.3336 103.925 62.1094 103.925 68.0004C103.925 73.8911 99.1496 78.6662 93.2588 78.6664C87.3679 78.6664 82.592 73.8913 82.5918 68.0004C82.5918 62.1093 87.3678 57.3334 93.2588 57.3334Z" fill="#BFDD78" stroke="#BFDD78" stroke-width="10"/>
<path d="M47.9248 57.3334C53.8157 57.3336 58.5908 62.1094 58.5908 68.0004C58.5906 73.8911 53.8156 78.6662 47.9248 78.6664C42.0339 78.6664 37.258 73.8913 37.2578 68.0004C37.2578 62.1093 42.0338 57.3334 47.9248 57.3334Z" fill="#BFDD78" stroke="#BFDD78" stroke-width="10"/>
<path d="M35.9316 16.7791C47.8268 8.7419 62.1533 5.10631 76.4414 6.49976C90.377 7.85885 103.422 13.9208 113.445 23.6677L113.74 23.7859L114.463 24.5027C124.647 34.6208 130.981 47.9753 132.375 62.2634C133.768 76.5517 130.133 90.8789 122.096 102.774C114.058 114.669 102.123 123.388 88.3467 127.427C74.5817 131.462 59.8412 130.571 46.6621 124.91C46.3606 124.783 46.0344 124.727 45.709 124.746L21.71 129.569L21.2227 129.667H19.5918V129.665C18.1953 129.684 16.8084 129.431 15.5098 128.915C14.1716 128.383 12.9545 127.586 11.9326 126.572L11.9111 126.551C10.6646 125.298 9.7488 123.755 9.24609 122.06C8.74341 120.366 8.66961 118.573 9.03125 116.844L13.9863 93.0193C14.0139 92.8225 13.985 92.6215 13.8984 92.4421L13.8516 92.3455L13.8086 92.2458C8.13528 79.0586 7.24109 64.3052 11.2793 50.5291C15.3177 36.7527 24.0364 24.8164 35.9316 16.7791ZM82.9805 29.574C76.8852 27.6123 70.4104 27.1307 64.0918 28.1677H64.0898C58.0702 29.1535 52.3525 31.4918 47.3672 35.0066C42.3818 38.5214 38.2584 43.1212 35.3076 48.4597C32.3569 53.7983 30.6552 59.7367 30.3311 65.8279C30.007 71.919 31.069 78.0042 33.4365 83.6257C35.2341 87.7479 35.7566 92.3145 34.9346 96.7371L34.9277 96.7751L34.9199 96.8142L33.1816 105.409L41.7783 103.673L41.8477 103.659L41.917 103.646C43.2349 103.419 44.5698 103.299 45.9072 103.29H45.9814C49.0697 103.314 52.1231 103.948 54.9658 105.155C60.5874 107.523 66.6734 108.585 72.7646 108.26C78.8557 107.936 84.7943 106.235 90.1328 103.284C95.4712 100.333 100.071 96.2096 103.586 91.2244C107.101 86.2391 109.439 80.5212 110.425 74.5017V74.5007C111.462 68.1822 110.979 61.7072 109.018 55.6121C107.056 49.5168 103.671 43.9757 99.1436 39.448C94.6159 34.9205 89.0755 31.5356 82.9805 29.574Z" fill="#BFDD78" stroke="#BFDD78" stroke-width="10"/>
<circle cx="65.0918" cy="68.5" r="46.5" fill="#BFDD78"/>
<g clip-path="url(#clip0_805_749)">
<path d="M69.8034 73.6667C72.933 73.6667 75.4701 71.1297 75.4701 68C75.4701 64.8704 72.933 62.3334 69.8034 62.3334C66.6738 62.3334 64.1367 64.8704 64.1367 68C64.1367 71.1297 66.6738 73.6667 69.8034 73.6667Z" fill="black"/>
<path d="M92.4694 73.6667C95.599 73.6667 98.1361 71.1297 98.1361 68C98.1361 64.8704 95.599 62.3334 92.4694 62.3334C89.3398 62.3334 86.8027 64.8704 86.8027 68C86.8027 71.1297 89.3398 73.6667 92.4694 73.6667Z" fill="black"/>
<path d="M47.1354 73.6667C50.265 73.6667 52.8021 71.1297 52.8021 68C52.8021 64.8704 50.265 62.3334 47.1354 62.3334C44.0058 62.3334 41.4688 64.8704 41.4688 68C41.4688 71.1297 44.0058 73.6667 47.1354 73.6667Z" fill="black"/>
<path d="M109.866 27.9367C100.568 18.5782 88.2969 12.7569 75.1671 11.4764C62.0373 10.1959 48.8722 13.5365 37.9414 20.9221C27.0106 28.3078 18.9992 39.2758 15.2882 51.9351C11.5773 64.5945 12.3994 78.1519 17.6129 90.27C18.1563 91.3964 18.3346 92.6642 18.1229 93.8967L13.1362 117.867C12.9441 118.786 12.9834 119.738 13.2504 120.638C13.5175 121.538 14.004 122.358 14.6662 123.023C15.2091 123.562 15.8555 123.986 16.5665 124.268C17.2774 124.551 18.0382 124.686 18.8029 124.667H19.9362L44.1896 119.793C45.4223 119.645 46.6723 119.821 47.8162 120.303C59.9344 125.517 73.4918 126.339 86.1512 122.628C98.8105 118.917 109.778 110.906 117.164 99.9749C124.55 89.0441 127.89 75.879 126.61 62.7492C125.329 49.6194 119.508 37.3478 110.15 28.05L109.866 27.9367ZM114.57 75.31C113.462 82.0759 110.834 88.5024 106.883 94.1058C102.933 99.7092 97.7625 104.344 91.7621 107.66C85.7617 110.977 79.0872 112.889 72.2408 113.254C65.3945 113.618 58.5547 112.424 52.2362 109.763C49.9953 108.81 47.5881 108.309 45.1529 108.29C44.0892 108.297 43.0278 108.392 41.9796 108.573L25.9996 111.803L29.2296 95.8234C29.8729 92.3626 29.4582 88.7883 28.0396 85.5667C25.3785 79.2482 24.1852 72.4084 24.5494 65.5621C24.9137 58.7158 26.8261 52.0413 30.1427 46.0409C33.4593 40.0404 38.0937 34.8704 43.6971 30.9199C49.3005 26.9694 55.727 24.3413 62.4929 23.2334C69.5948 22.0678 76.8721 22.6099 83.723 24.8147C90.5738 27.0195 96.8012 30.8238 101.89 35.9128C106.979 41.0017 110.783 47.2292 112.988 54.08C115.193 60.9308 115.735 68.2082 114.57 75.31Z" fill="black"/>
</g>
<defs>
<clipPath id="clip0_805_749">
<rect width="136" height="136" fill="white" transform="translate(1.80273)"/>
</clipPath>
</defs>
</svg>
