<svg width="120" height="112" viewBox="0 0 120 112" fill="none" xmlns="http://www.w3.org/2000/svg">
<path d="M35.3156 64.5299L23.4656 51.5299C23.2302 51.2734 23.0996 50.938 23.0996 50.5899C23.0996 50.2417 23.2302 49.9063 23.4656 49.6499L35.3156 36.5299C35.44 36.3913 35.5905 36.2787 35.7586 36.1986C35.9266 36.1185 36.1089 36.0725 36.2948 36.0632C36.4808 36.0539 36.6667 36.0815 36.8419 36.1444C37.0171 36.2074 37.1781 36.3044 37.3156 36.4299L39.6856 38.5899C39.8259 38.7134 39.9399 38.8639 40.0207 39.0324C40.1014 39.2009 40.1474 39.384 40.1558 39.5707C40.1642 39.7574 40.1349 39.9439 40.0696 40.119C40.0042 40.2941 39.9043 40.4543 39.7756 40.5899L31.5956 49.5899C31.3602 49.8463 31.2296 50.1818 31.2296 50.5299C31.2296 50.878 31.3602 51.2134 31.5956 51.4699L39.7756 60.4699C39.9043 60.6055 40.0042 60.7656 40.0696 60.9407C40.1349 61.1158 40.1642 61.3023 40.1558 61.489C40.1474 61.6757 40.1014 61.8588 40.0207 62.0273C39.9399 62.1959 39.8259 62.3464 39.6856 62.4699L37.3156 64.6299C37.1781 64.7554 37.0171 64.8524 36.8419 64.9153C36.6667 64.9782 36.4808 65.0059 36.2948 64.9966C36.1089 64.9873 35.9266 64.9412 35.7586 64.8611C35.5905 64.781 35.44 64.6684 35.3156 64.5299Z" fill="black" stroke="black" stroke-width="8"/>
<path d="M58.1847 86.2499C58.0897 85.7818 57.8416 85.3586 57.4795 85.0471C57.1173 84.7357 56.6618 84.5537 56.1847 84.5299H27.2147C25.0505 84.5299 22.975 83.6702 21.4447 82.1399C19.9144 80.6096 19.0547 78.5341 19.0547 76.3699V24.6899C19.0547 22.5257 19.9144 20.4502 21.4447 18.9199C22.975 17.3896 25.0505 16.5299 27.2147 16.5299H78.8947C81.0589 16.5299 83.1344 17.3896 84.6647 18.9199C86.195 20.4502 87.0547 22.5257 87.0547 24.6899V50.5299C87.0545 51.065 87.2636 51.579 87.6373 51.9621C88.011 52.3451 88.5197 52.5669 89.0547 52.5799H89.1447C90.8475 52.5747 92.5283 52.965 94.0547 53.7199C94.3715 53.8825 94.7251 53.9601 95.0809 53.9453C95.4367 53.9304 95.7825 53.8236 96.0847 53.6352C96.3869 53.4469 96.6351 53.1834 96.8051 52.8705C96.9751 52.5576 97.0611 52.2059 97.0547 51.8499V24.6899C97.0547 19.8736 95.1414 15.2545 91.7357 11.8488C88.3301 8.44319 83.711 6.52991 78.8947 6.52991H27.2147C22.3984 6.52991 17.7793 8.44319 14.3736 11.8488C10.968 15.2545 9.05469 19.8736 9.05469 24.6899V76.3699C9.05469 81.1862 10.968 85.8053 14.3736 89.211C17.7793 92.6166 22.3984 94.5299 27.2147 94.5299H57.8647C58.3909 94.5251 58.905 94.371 59.3472 94.0856C59.7893 93.8002 60.1414 93.3951 60.3624 92.9175C60.5834 92.4398 60.6643 91.9093 60.5956 91.3875C60.527 90.8657 60.3117 90.3741 59.9747 89.9699C59.0793 88.8972 58.4642 87.619 58.1847 86.2499Z" fill="#C4B9F9" stroke="#C4B9F9" stroke-width="12"/>
<path d="M53.1735 38.5446L46.8417 61.8498C46.639 62.5959 47.0795 63.3651 47.8256 63.5679L50.9137 64.4069C51.6598 64.6096 52.429 64.1691 52.6318 63.4229L58.9636 40.1178C59.1664 39.3716 58.7258 38.6024 57.9797 38.3997L54.8916 37.5607C54.1455 37.3579 53.3763 37.7985 53.1735 38.5446Z" fill="black" stroke="black" stroke-width="12"/>
<path d="M66.4442 62.4498L68.8142 64.6098C69.0884 64.8596 69.45 64.9913 69.8206 64.9763C70.1913 64.9613 70.5411 64.8009 70.7942 64.5298L82.6642 51.3898C82.8996 51.1334 83.0303 50.798 83.0303 50.4498C83.0303 50.1017 82.8996 49.7663 82.6642 49.5098L70.8142 36.5098C70.6899 36.3713 70.5394 36.2587 70.3713 36.1786C70.2033 36.0985 70.021 36.0524 69.8351 36.0431C69.6491 36.0338 69.4632 36.0615 69.288 36.1244C69.1128 36.1873 68.9517 36.2844 68.8142 36.4098L66.4442 38.5698C66.3039 38.6933 66.19 38.8438 66.1092 39.0124C66.0284 39.1809 65.9825 39.364 65.9741 39.5507C65.9657 39.7374 65.995 39.9239 66.0603 40.099C66.1256 40.2741 66.2256 40.4343 66.3542 40.5698L74.5342 49.5698C74.7696 49.8263 74.9003 50.1617 74.9003 50.5098C74.9003 50.858 74.7696 51.1934 74.5342 51.4498L66.3542 60.4498C66.2256 60.5854 66.1256 60.7456 66.0603 60.9207C65.995 61.0958 65.9657 61.2823 65.9741 61.469C65.9825 61.6557 66.0284 61.8388 66.1092 62.0073C66.19 62.1758 66.3039 62.3264 66.4442 62.4498Z" stroke="#C4B9F9" stroke-width="12"/>
<path d="M109.844 84.7598L100.784 88.3298C99.1804 88.964 97.7237 89.9204 96.5042 91.1399C95.2847 92.3593 94.3284 93.816 93.6942 95.4198L90.1242 104.42C90.0517 104.608 89.9241 104.769 89.7582 104.884C89.5922 104.998 89.3957 105.059 89.1942 105.06C88.9928 105.059 88.7962 104.998 88.6303 104.884C88.4643 104.769 88.3367 104.608 88.2642 104.42L84.6942 95.4198C84.0616 93.8151 83.1058 92.3576 81.8861 91.1379C80.6664 89.9183 79.2089 88.9624 77.6042 88.3298L68.6042 84.7598C68.4177 84.6861 68.2577 84.558 68.1449 84.3922C68.0321 84.2263 67.9718 84.0304 67.9718 83.8298C67.9718 83.6293 68.0321 83.4334 68.1449 83.2675C68.2577 83.1017 68.4177 82.9736 68.6042 82.8998L77.6042 79.3298C79.2089 78.6973 80.6664 77.7414 81.8861 76.5217C83.1058 75.3021 84.0616 73.8446 84.6942 72.2398L88.2642 63.2398C88.3383 63.0538 88.4666 62.8943 88.6324 62.7819C88.7982 62.6696 88.9939 62.6097 89.1942 62.6098C89.3945 62.6097 89.5902 62.6696 89.756 62.7819C89.9219 62.8943 90.0501 63.0538 90.1242 63.2398L93.6942 72.2398C94.3284 73.8437 95.2847 75.3003 96.5042 76.5198C97.7237 77.7393 99.1804 78.6957 100.784 79.3298L109.844 82.8998C110.031 82.9736 110.191 83.1017 110.304 83.2675C110.416 83.4334 110.477 83.6293 110.477 83.8298C110.477 84.0304 110.416 84.2263 110.304 84.3922C110.191 84.558 110.031 84.6861 109.844 84.7598Z" stroke="#C4B9F9" stroke-width="12"/>
<rect x="22.0547" y="19.5299" width="63" height="59" fill="#C4B9F9" stroke="#C4B9F9" stroke-width="12"/>
<path d="M78.0547 74.5299H97.0547L103.555 83.0299L97.0547 90.5299L89.5547 97.5299L78.0547 90.5299V74.5299Z" fill="#C4B9F9"/>
<path d="M58.1847 86.2499C58.0897 85.7818 57.8416 85.3586 57.4795 85.0471C57.1173 84.7357 56.6618 84.5537 56.1847 84.5299H27.2147C25.0505 84.5299 22.975 83.6702 21.4447 82.1399C19.9144 80.6096 19.0547 78.5341 19.0547 76.3699V24.6899C19.0547 22.5257 19.9144 20.4502 21.4447 18.9199C22.975 17.3896 25.0505 16.5299 27.2147 16.5299H78.8947C81.0589 16.5299 83.1344 17.3896 84.6647 18.9199C86.195 20.4502 87.0547 22.5257 87.0547 24.6899V50.5299C87.0545 51.065 87.2636 51.579 87.6373 51.9621C88.011 52.3451 88.5197 52.5669 89.0547 52.5799H89.1447C90.8475 52.5747 92.5283 52.965 94.0547 53.7199C94.3715 53.8825 94.7251 53.9601 95.0809 53.9453C95.4367 53.9304 95.7825 53.8236 96.0847 53.6352C96.3869 53.4469 96.6351 53.1834 96.8051 52.8705C96.9751 52.5576 97.0611 52.2059 97.0547 51.8499V24.6899C97.0547 19.8736 95.1414 15.2545 91.7357 11.8488C88.3301 8.44319 83.711 6.52991 78.8947 6.52991H27.2147C22.3984 6.52991 17.7793 8.44319 14.3736 11.8488C10.968 15.2545 9.05469 19.8736 9.05469 24.6899V76.3699C9.05469 81.1862 10.968 85.8053 14.3736 89.211C17.7793 92.6166 22.3984 94.5299 27.2147 94.5299H57.8647C58.3909 94.5251 58.905 94.371 59.3472 94.0856C59.7893 93.8002 60.1414 93.3951 60.3624 92.9175C60.5834 92.4398 60.6643 91.9093 60.5956 91.3875C60.527 90.8657 60.3117 90.3741 59.9747 89.9699C59.0793 88.8972 58.4642 87.619 58.1847 86.2499Z" fill="black"/>
<path d="M35.3156 64.5299L23.4656 51.5299C23.2302 51.2734 23.0996 50.938 23.0996 50.5899C23.0996 50.2417 23.2302 49.9063 23.4656 49.6499L35.3156 36.5299C35.44 36.3913 35.5905 36.2787 35.7586 36.1986C35.9266 36.1185 36.1089 36.0725 36.2948 36.0632C36.4808 36.0539 36.6667 36.0815 36.8419 36.1444C37.0171 36.2074 37.1781 36.3044 37.3156 36.4299L39.6856 38.5899C39.8259 38.7134 39.9399 38.8639 40.0207 39.0324C40.1014 39.2009 40.1474 39.384 40.1558 39.5707C40.1642 39.7574 40.1349 39.9439 40.0696 40.119C40.0042 40.2941 39.9043 40.4543 39.7756 40.5899L31.5956 49.5899C31.3602 49.8463 31.2296 50.1818 31.2296 50.5299C31.2296 50.878 31.3602 51.2134 31.5956 51.4699L39.7756 60.4699C39.9043 60.6055 40.0042 60.7656 40.0696 60.9407C40.1349 61.1158 40.1642 61.3023 40.1558 61.489C40.1474 61.6757 40.1014 61.8588 40.0207 62.0273C39.9399 62.1959 39.8259 62.3464 39.6856 62.4699L37.3156 64.6299C37.1781 64.7554 37.0171 64.8524 36.8419 64.9153C36.6667 64.9782 36.4808 65.0059 36.2948 64.9966C36.1089 64.9873 35.9266 64.9412 35.7586 64.8611C35.5905 64.781 35.44 64.6684 35.3156 64.5299Z" fill="black"/>
<path d="M53.1735 38.5446L46.8417 61.8498C46.639 62.5959 47.0795 63.3651 47.8256 63.5679L50.9137 64.4069C51.6598 64.6096 52.429 64.1691 52.6318 63.4229L58.9636 40.1178C59.1664 39.3716 58.7258 38.6024 57.9797 38.3997L54.8916 37.5607C54.1455 37.3579 53.3763 37.7985 53.1735 38.5446Z" fill="black"/>
<path d="M68.8142 64.6098L66.4442 62.4498C66.3039 62.3264 66.19 62.1758 66.1092 62.0073C66.0284 61.8388 65.9825 61.6557 65.9741 61.469C65.9657 61.2823 65.995 61.0958 66.0603 60.9207C66.1256 60.7456 66.2256 60.5854 66.3542 60.4498L74.5342 51.4498C74.7696 51.1934 74.9003 50.858 74.9003 50.5098C74.9003 50.1617 74.7696 49.8263 74.5342 49.5698L66.3542 40.5698C66.2256 40.4343 66.1256 40.2741 66.0603 40.099C65.995 39.9239 65.9657 39.7374 65.9741 39.5507C65.9825 39.364 66.0284 39.1809 66.1092 39.0124C66.19 38.8438 66.3039 38.6933 66.4442 38.5698L68.8142 36.4098C68.9517 36.2844 69.1128 36.1873 69.288 36.1244C69.4632 36.0615 69.6491 36.0338 69.8351 36.0431C70.021 36.0524 70.2033 36.0985 70.3713 36.1786C70.5394 36.2587 70.6899 36.3713 70.8142 36.5098L82.6642 49.5098C82.8996 49.7663 83.0303 50.1017 83.0303 50.4498C83.0303 50.798 82.8996 51.1334 82.6642 51.3898L70.7942 64.5298C70.5411 64.8009 70.1913 64.9613 69.8206 64.9763C69.45 64.9913 69.0884 64.8596 68.8142 64.6098ZM100.784 88.3298L109.844 84.7598C110.031 84.6861 110.191 84.558 110.304 84.3922C110.416 84.2263 110.477 84.0304 110.477 83.8298C110.477 83.6293 110.416 83.4334 110.304 83.2675C110.191 83.1017 110.031 82.9736 109.844 82.8998L100.784 79.3298C99.1804 78.6957 97.7237 77.7393 96.5042 76.5198C95.2847 75.3003 94.3284 73.8437 93.6942 72.2398L90.1242 63.2398C90.0501 63.0538 89.9219 62.8943 89.756 62.7819C89.5902 62.6696 89.3945 62.6097 89.1942 62.6098C88.9939 62.6097 88.7982 62.6696 88.6324 62.7819C88.4666 62.8943 88.3383 63.0538 88.2642 63.2398L84.6942 72.2398C84.0616 73.8446 83.1058 75.3021 81.8861 76.5217C80.6664 77.7414 79.2089 78.6973 77.6042 79.3298L68.6042 82.8998C68.4177 82.9736 68.2577 83.1017 68.1449 83.2675C68.0321 83.4334 67.9718 83.6293 67.9718 83.8298C67.9718 84.0304 68.0321 84.2263 68.1449 84.3922C68.2577 84.558 68.4177 84.6861 68.6042 84.7598L77.6042 88.3298C79.2089 88.9624 80.6664 89.9183 81.8861 91.1379C83.1058 92.3576 84.0616 93.8151 84.6942 95.4198L88.2642 104.42C88.3367 104.608 88.4643 104.769 88.6303 104.884C88.7962 104.998 88.9928 105.059 89.1942 105.06C89.3957 105.059 89.5922 104.998 89.7582 104.884C89.9241 104.769 90.0517 104.608 90.1242 104.42L93.6942 95.4198C94.3284 93.816 95.2847 92.3593 96.5042 91.1399C97.7237 89.9204 99.1804 88.964 100.784 88.3298Z" fill="black"/>
</svg>
