<svg width="26" height="26" viewBox="0 0 26 26" fill="none" xmlns="http://www.w3.org/2000/svg">
<path fill-rule="evenodd" clip-rule="evenodd" d="M3.89965 17.572C3.11212 16.1138 2.70102 14.4822 2.70365 12.825C2.70365 7.30195 7.18065 2.82495 12.7036 2.82495C18.2256 2.82495 22.7036 7.30195 22.7036 12.825C22.7036 18.348 18.2256 22.825 12.7036 22.825C11.0449 22.8276 9.41179 22.4158 7.95265 21.627L4.11965 22.777C3.92935 22.8341 3.72712 22.8387 3.53443 22.7902C3.34175 22.7416 3.16581 22.6418 3.02531 22.5013C2.8848 22.3608 2.78498 22.1848 2.73645 21.9922C2.68791 21.7995 2.69247 21.5972 2.74965 21.4069L3.89965 17.572Z" fill="#B2E7CA"/>
<path d="M8.57565 9.14995L8.56165 9.16295L8.57165 9.15395L8.56365 9.16195L8.51565 9.21195C8.39371 9.33228 8.28261 9.46312 8.18365 9.60295C7.86565 10.048 7.70365 10.559 7.70365 11.167C7.70365 11.702 7.87665 12.278 8.21565 12.892C8.35956 13.1543 8.52372 13.4051 8.70665 13.642L8.83265 13.812C9.31788 14.4746 9.87014 15.0855 10.4806 15.635C11.2476 16.324 12.0446 16.846 12.8646 17.189C13.3163 17.3776 13.7776 17.5422 14.2466 17.682C14.7416 17.834 15.2306 17.862 15.8086 17.778C16.4666 17.683 17.3396 17.091 17.5206 16.602C17.7136 16.077 17.7486 15.556 17.6506 15.398C17.6176 15.346 17.5746 15.306 17.4946 15.258C17.4556 15.235 17.4126 15.213 17.3396 15.178L17.1436 15.086C16.4716 14.761 15.6486 14.381 15.4886 14.324C15.1356 14.2 14.9926 14.234 14.8216 14.482C14.7156 14.635 14.4266 14.981 14.1456 15.297L13.9386 15.53L13.6536 15.408C13.4186 15.307 13.1156 15.172 12.9636 15.093C12.5426 14.877 12.1486 14.609 11.7626 14.277C11.2976 13.875 10.8806 13.378 10.5376 12.838L10.3526 12.547L10.5896 12.297C10.6316 12.253 10.6796 12.198 10.7796 12.08L10.9006 11.939C10.9732 11.8584 11.0347 11.7687 11.0836 11.672L11.1216 11.597L11.1566 11.529C11.2426 11.362 11.2366 11.211 11.1366 11.019C11.1086 10.964 10.9846 10.677 10.7266 10.069L10.4006 9.30195L10.3806 9.25795L10.3626 9.22095C10.2156 8.92095 9.80965 8.83295 9.80965 8.83295M18.3606 7.16965C19.7668 8.57646 20.5985 10.4566 20.6934 12.4434C20.7883 14.4302 20.1397 16.3812 18.874 17.9156C17.6084 19.45 15.8165 20.458 13.8479 20.7428C11.8793 21.0276 9.87527 20.5688 8.22665 19.4559L5.14565 20.381L6.06965 17.298C4.95757 15.6488 4.49973 13.6445 4.78544 11.6761C5.07114 9.70765 6.0799 7.91624 7.61493 6.65131M3.89965 17.572C3.11212 16.1138 2.70102 14.4822 2.70365 12.825C2.70365 7.30195 7.18065 2.82495 12.7036 2.82495C18.2256 2.82495 22.7036 7.30195 22.7036 12.825C22.7036 18.348 18.2256 22.825 12.7036 22.825C11.0449 22.8276 9.41179 22.4158 7.95265 21.627L4.11965 22.777C3.92935 22.8341 3.72712 22.8387 3.53443 22.7902C3.34175 22.7416 3.16581 22.6418 3.02531 22.5013C2.8848 22.3608 2.78498 22.1848 2.73645 21.9922C2.68791 21.7995 2.69247 21.5972 2.74965 21.4069L3.89965 17.572Z" stroke="#B2E7CA" stroke-width="5"/>
<g clip-path="url(#clip0_790_506)">
<path fill-rule="evenodd" clip-rule="evenodd" d="M8.21565 12.892C7.87665 12.278 7.70365 11.702 7.70365 11.167C7.70365 10.559 7.86565 10.048 8.18365 9.60295C8.28261 9.46312 8.39371 9.33228 8.51565 9.21195L8.56365 9.16195L8.57165 9.15395L8.56165 9.16295L8.57565 9.14995C8.66723 9.04963 8.77832 8.96906 8.90212 8.91318C9.02593 8.8573 9.15984 8.82727 9.29565 8.82495C9.50065 8.82495 9.64065 8.82695 9.76265 8.83295H9.80965C10.0746 8.83295 10.2156 8.92095 10.3626 9.22095L10.3806 9.25795L10.4006 9.30195L10.7266 10.069C10.9846 10.677 11.1086 10.964 11.1366 11.019C11.2366 11.211 11.2426 11.362 11.1566 11.529L11.1216 11.597L11.0836 11.672C11.0347 11.7687 10.9732 11.8584 10.9006 11.939L10.7796 12.08C10.6796 12.198 10.6316 12.253 10.5896 12.297L10.3526 12.547L10.5376 12.838C10.8806 13.378 11.2976 13.875 11.7626 14.277C12.1486 14.609 12.5426 14.877 12.9636 15.093C13.1156 15.172 13.4186 15.307 13.6536 15.408L13.9386 15.53L14.1456 15.297C14.4266 14.981 14.7156 14.635 14.8216 14.482C14.9926 14.234 15.1356 14.2 15.4886 14.324C15.6486 14.381 16.4716 14.761 17.1436 15.086L17.3396 15.178C17.4126 15.213 17.4556 15.235 17.4946 15.258C17.5746 15.306 17.6176 15.346 17.6506 15.398C17.7486 15.556 17.7136 16.077 17.5206 16.602C17.3396 17.091 16.4666 17.683 15.8086 17.778C15.2306 17.862 14.7416 17.834 14.2466 17.682C13.7776 17.5422 13.3163 17.3776 12.8646 17.189C12.0446 16.846 11.2476 16.324 10.4806 15.635C9.87014 15.0855 9.31788 14.4746 8.83265 13.812L8.70665 13.642C8.52372 13.4051 8.35956 13.1543 8.21565 12.892ZM5.14565 20.381L8.22665 19.4559C9.87527 20.5688 11.8793 21.0276 13.8479 20.7428C15.8165 20.458 17.6084 19.45 18.874 17.9156C20.1397 16.3812 20.7883 14.4302 20.6934 12.4434C20.5985 10.4566 19.7668 8.57646 18.3606 7.16965C16.9545 5.76284 15.0747 4.93032 13.0879 4.83449C11.1012 4.73865 9.14997 5.38637 7.61493 6.65131C6.0799 7.91624 5.07114 9.70765 4.78544 11.6761C4.49973 13.6445 4.95757 15.6488 6.06965 17.298L5.14565 20.381ZM3.89965 17.572C3.11212 16.1138 2.70102 14.4822 2.70365 12.825C2.70365 7.30195 7.18065 2.82495 12.7036 2.82495C18.2256 2.82495 22.7036 7.30195 22.7036 12.825C22.7036 18.348 18.2256 22.825 12.7036 22.825C11.0449 22.8276 9.41179 22.4158 7.95265 21.627L4.11965 22.777C3.92935 22.8341 3.72712 22.8387 3.53443 22.7902C3.34175 22.7416 3.16581 22.6418 3.02531 22.5013C2.8848 22.3608 2.78498 22.1848 2.73645 21.9922C2.68791 21.7995 2.69247 21.5972 2.74965 21.4069L3.89965 17.572Z" fill="black"/>
</g>
<defs>
<clipPath id="clip0_790_506">
<rect width="21" height="21" fill="white" transform="translate(2 2)"/>
</clipPath>
</defs>
</svg>
