<svg width="1512" height="982" viewBox="0 0 1512 982" fill="none" xmlns="http://www.w3.org/2000/svg">
<g clip-path="url(#clip0_805_681)">
<path d="M-488.347 215.076C-489.02 215.076 -489.693 214.803 -490.207 214.259C-491.24 213.166 -491.243 211.388 -490.217 210.29C-488.33 208.27 -486.4 206.274 -484.482 204.351C-483.422 203.286 -481.751 203.341 -480.753 204.47C-479.754 205.6 -479.805 207.376 -480.865 208.438C-482.741 210.319 -484.629 212.274 -486.476 214.248C-486.993 214.8 -487.67 215.076 -488.347 215.076ZM29.6073 932.806C28.3439 932.806 27.2279 931.839 27.0097 930.469C26.7661 928.94 27.7328 927.49 29.1688 927.231C34.5045 926.267 39.7107 925.309 44.7873 924.352C46.2189 924.088 47.5907 925.1 47.8432 926.627C48.0967 928.154 47.1401 929.612 45.7062 929.882C40.6174 930.84 35.4002 931.8 30.0524 932.766C29.9029 932.795 29.7545 932.806 29.6073 932.806ZM60.8563 926.916C59.6107 926.916 58.5024 925.972 58.2665 924.622C58.0008 923.097 58.9465 921.632 60.3792 921.348C65.7215 920.294 70.9065 919.24 75.9366 918.187C77.3672 917.877 78.7535 918.877 79.0347 920.4C79.316 921.92 78.3848 923.396 76.9553 923.696C71.9064 924.754 66.7024 925.811 61.3413 926.87C61.1785 926.902 61.0169 926.916 60.8563 926.916ZM91.9925 920.38C90.7713 920.38 89.675 919.474 89.4137 918.15C89.1137 916.633 90.0261 915.145 91.4511 914.825C96.81 913.625 102.009 912.41 106.903 911.218C108.324 910.866 109.738 911.816 110.063 913.328C110.388 914.839 109.501 916.344 108.08 916.691C103.157 917.89 97.9272 919.111 92.5372 920.319C92.3557 920.36 92.173 920.38 91.9925 920.38ZM122.918 912.817C121.739 912.817 120.665 911.97 120.363 910.698C120.005 909.195 120.861 907.668 122.273 907.289C127.622 905.848 132.749 904.379 137.516 902.927C138.913 902.501 140.377 903.361 140.779 904.853C141.18 906.343 140.37 907.898 138.97 908.326C134.152 909.795 128.97 911.277 123.568 912.731C123.35 912.789 123.132 912.817 122.918 912.817ZM153.399 903.451C152.296 903.451 151.267 902.709 150.898 901.533C150.435 900.063 151.18 898.471 152.562 897.98C157.864 896.091 162.814 894.143 167.274 892.194C168.62 891.601 170.162 892.287 170.716 893.724C171.269 895.158 170.626 896.797 169.279 897.386C164.71 899.383 159.65 901.375 154.236 903.304C153.959 903.403 153.677 903.451 153.399 903.451ZM182.621 890.415C181.687 890.415 180.782 889.887 180.303 888.954C179.605 887.593 180.075 885.888 181.354 885.145C186.339 882.247 190.611 879.203 194.056 876.097C195.167 875.092 196.832 875.242 197.774 876.424C198.715 877.607 198.578 879.378 197.466 880.379C193.75 883.733 189.18 886.992 183.882 890.071C183.481 890.306 183.047 890.415 182.621 890.415ZM205.755 868.135C205.353 868.135 204.946 868.038 204.562 867.831C203.264 867.129 202.745 865.441 203.404 864.057C205.333 860.012 206.271 855.8 206.271 851.178C206.271 850.525 206.252 849.868 206.214 849.203C206.126 847.656 207.233 846.325 208.687 846.232C210.139 846.115 211.392 847.316 211.48 848.864C211.525 849.642 211.547 850.415 211.547 851.179C211.547 856.628 210.39 861.816 208.109 866.6C207.643 867.573 206.716 868.135 205.755 868.135ZM204.941 835.56C203.914 835.56 202.936 834.915 202.511 833.845C200.737 829.383 198.277 824.528 195.199 819.417C194.413 818.11 194.77 816.375 195.997 815.539C197.225 814.699 198.855 815.083 199.641 816.387C202.878 821.766 205.478 826.904 207.368 831.657C207.936 833.085 207.308 834.731 205.966 835.336C205.633 835.488 205.284 835.56 204.941 835.56ZM188.186 806.984C187.424 806.984 186.67 806.635 186.148 805.961C183.358 802.355 179.608 798.724 175.001 795.168C173.822 794.258 173.559 792.501 174.414 791.248C175.27 789.99 176.92 789.716 178.099 790.623C183.068 794.459 187.147 798.419 190.222 802.392C191.147 803.589 190.987 805.358 189.862 806.344C189.37 806.774 188.776 806.984 188.186 806.984ZM163.161 786.85C162.737 786.85 162.306 786.742 161.906 786.51C157.681 784.073 152.954 781.614 147.855 779.204C146.524 778.575 145.924 776.915 146.515 775.499C147.105 774.081 148.666 773.442 149.998 774.072C155.222 776.542 160.075 779.067 164.421 781.576C165.701 782.315 166.177 784.019 165.483 785.381C165.005 786.319 164.097 786.85 163.161 786.85ZM134.237 773.026C133.924 773.026 133.606 772.966 133.296 772.84C128.656 770.952 123.656 769.043 118.436 767.163C117.057 766.666 116.316 765.072 116.783 763.603C117.25 762.136 118.748 761.344 120.128 761.844C125.412 763.748 130.476 765.682 135.18 767.595C136.54 768.149 137.222 769.772 136.702 771.22C136.3 772.338 135.299 773.026 134.237 773.026ZM104.152 762.133C103.896 762.133 103.636 762.091 103.378 762.008C98.5306 760.427 93.4175 758.832 88.1826 757.264C86.7797 756.844 85.9625 755.294 86.3578 753.802C86.7531 752.31 88.2091 751.437 89.612 751.861C94.8857 753.439 100.038 755.048 104.924 756.64C106.317 757.094 107.099 758.664 106.673 760.147C106.325 761.354 105.281 762.133 104.152 762.133ZM73.5573 752.943C73.3359 752.943 73.1122 752.915 72.8885 752.851C67.9625 751.482 62.7906 750.09 57.5169 748.715C56.1019 748.346 55.2361 746.826 55.5827 745.321C55.9292 743.817 57.3553 742.895 58.7715 743.263C64.0717 744.645 69.2701 746.043 74.2216 747.419C75.6311 747.811 76.4759 749.344 76.1072 750.845C75.7972 752.107 74.7276 752.943 73.5573 752.943ZM42.6835 744.882C42.4865 744.882 42.2872 744.858 42.0868 744.809C37.0223 743.565 31.8627 742.327 26.6089 741.1C25.1861 740.767 24.2849 739.271 24.5982 737.757C24.9105 736.242 26.3178 735.283 27.7405 735.617C33.0131 736.848 38.1927 738.09 43.2748 739.34C44.6943 739.688 45.5789 741.196 45.2512 742.707C44.9688 744.004 43.8827 744.882 42.6835 744.882ZM11.6371 737.62C11.4577 737.62 11.2761 737.601 11.0934 737.56C5.98805 736.423 0.804029 735.29 -4.45305 734.166C-5.88026 733.861 -6.8059 732.381 -6.52024 730.861C-6.23347 729.341 -4.84827 728.357 -3.41443 728.661C1.85705 729.788 7.0554 730.922 12.1752 732.067C13.6013 732.385 14.5148 733.872 14.2158 735.389C13.9556 736.71 12.8595 737.62 11.6371 737.62ZM-19.5223 730.947C-19.6873 730.947 -19.8556 730.931 -20.025 730.896C-25.1602 729.841 -30.3598 728.788 -35.6202 727.743C-37.0518 727.459 -37.9962 725.992 -37.7294 724.469C-37.4614 722.944 -36.0808 721.94 -34.6524 722.225C-29.381 723.273 -24.1715 724.325 -19.024 725.383C-17.5935 725.678 -16.658 727.151 -16.9348 728.672C-17.1795 730.015 -18.2833 730.947 -19.5223 730.947ZM-50.7625 724.736C-50.9186 724.736 -51.0758 724.722 -51.2342 724.691C-56.3938 723.7 -61.6044 722.712 -66.8648 721.728C-68.2998 721.459 -69.2586 720.005 -69.0062 718.478C-68.7549 716.95 -67.3885 715.927 -65.9513 716.198C-60.6821 717.182 -55.4626 718.173 -50.2952 719.167C-48.8614 719.443 -47.9092 720.903 -48.1683 722.428C-48.4008 723.784 -49.5113 724.736 -50.7625 724.736ZM-82.0614 718.881C-82.2097 718.881 -82.3593 718.869 -82.5098 718.841C-87.6861 717.898 -92.9055 716.96 -98.1659 716.026C-99.6031 715.772 -100.573 714.325 -100.334 712.795C-100.095 711.266 -98.7317 710.235 -97.2979 710.488C-92.0297 711.422 -86.8036 712.363 -81.6196 713.306C-80.1835 713.568 -79.2192 715.019 -79.465 716.547C-79.6842 717.915 -80.8003 718.881 -82.0614 718.881ZM-113.406 713.312C-113.546 713.312 -113.689 713.301 -113.834 713.276C-119.025 712.376 -124.251 711.477 -129.511 710.58C-130.95 710.335 -131.929 708.895 -131.699 707.364C-131.469 705.834 -130.117 704.779 -128.678 705.037C-123.412 705.934 -118.18 706.833 -112.984 707.737C-111.547 707.986 -110.57 709.43 -110.805 710.959C-111.016 712.333 -112.136 713.312 -113.406 713.312ZM-144.783 707.966C-144.919 707.966 -145.057 707.956 -145.195 707.932C-150.397 707.066 -155.628 706.198 -160.888 705.333C-162.328 705.096 -163.315 703.662 -163.092 702.129C-162.87 700.596 -161.518 699.552 -160.083 699.784C-154.82 700.649 -149.584 701.516 -144.379 702.386C-142.94 702.625 -141.955 704.063 -142.181 705.593C-142.384 706.978 -143.505 707.966 -144.783 707.966ZM-176.185 702.802C-176.317 702.802 -176.451 702.792 -176.585 702.77C-181.796 701.927 -187.033 701.085 -192.29 700.245C-193.73 700.015 -194.723 698.586 -194.507 697.053C-194.291 695.518 -192.95 694.453 -191.507 694.694C-186.245 695.534 -181.007 696.375 -175.793 697.219C-174.353 697.452 -173.363 698.883 -173.581 700.417C-173.779 701.807 -174.903 702.802 -176.185 702.802ZM-207.607 697.784C-207.735 697.784 -207.866 697.775 -207.997 697.754C-213.215 696.93 -218.453 696.108 -223.709 695.286C-225.151 695.061 -226.147 693.636 -225.936 692.103C-225.724 690.567 -224.385 689.502 -222.943 689.733C-217.685 690.554 -212.443 691.377 -207.223 692.2C-205.781 692.428 -204.787 693.856 -205 695.389C-205.194 696.782 -206.321 697.784 -207.607 697.784ZM-239.042 692.874C-239.168 692.874 -239.295 692.865 -239.425 692.846C-244.651 692.038 -249.892 691.231 -255.145 690.422C-256.587 690.201 -257.588 688.777 -257.38 687.242C-257.172 685.707 -255.834 684.65 -254.392 684.865C-249.136 685.672 -243.894 686.48 -238.668 687.289C-237.226 687.513 -236.227 688.936 -236.437 690.472C-236.626 691.868 -237.754 692.874 -239.042 692.874ZM-270.489 688.043C-270.613 688.043 -270.739 688.034 -270.867 688.015L-286.591 685.622C-288.033 685.404 -289.036 683.98 -288.83 682.447C-288.623 680.912 -287.291 679.852 -285.846 680.065L-270.118 682.458C-268.677 682.677 -267.675 684.101 -267.881 685.636C-268.07 687.035 -269.198 688.043 -270.489 688.043ZM-301.943 683.268C-302.067 683.268 -302.191 683.258 -302.318 683.24L-318.045 680.866C-319.488 680.648 -320.492 679.228 -320.288 677.693C-320.083 676.156 -318.754 675.096 -317.306 675.307L-301.574 677.681C-300.133 677.9 -299.129 679.32 -299.335 680.856C-299.522 682.257 -300.65 683.268 -301.943 683.268ZM-333.401 678.524C-333.524 678.524 -333.648 678.515 -333.774 678.496L-349.503 676.129C-350.944 675.911 -351.949 674.491 -351.745 672.956C-351.54 671.422 -350.206 670.346 -348.763 670.57L-333.035 672.937C-331.592 673.154 -330.588 674.575 -330.792 676.11C-330.979 677.51 -332.108 678.524 -333.401 678.524ZM-364.859 673.786C-364.982 673.786 -365.106 673.777 -365.232 673.758L-381.02 671.377C-382.462 671.159 -383.466 669.738 -383.261 668.203C-383.056 666.667 -381.721 665.6 -380.278 665.818L-364.492 668.199C-363.051 668.417 -362.046 669.837 -362.25 671.372C-362.437 672.773 -363.565 673.786 -364.859 673.786ZM-396.403 669.02C-396.527 669.02 -396.651 669.011 -396.779 668.993L-412.507 666.603C-413.95 666.383 -414.95 664.96 -414.745 663.427C-414.537 661.89 -413.205 660.824 -411.759 661.046L-396.036 663.433C-394.593 663.652 -393.59 665.074 -393.796 666.608C-393.982 668.008 -395.11 669.02 -396.403 669.02ZM-427.824 664.232C-427.949 664.232 -428.075 664.222 -428.202 664.203C-433.433 663.405 -438.657 662.601 -443.871 661.796C-445.313 661.572 -446.311 660.149 -446.103 658.615C-445.894 657.079 -444.553 656.027 -443.114 656.239C-437.902 657.044 -432.681 657.848 -427.452 658.646C-426.01 658.867 -425.008 660.289 -425.217 661.823C-425.406 663.223 -426.534 664.232 -427.824 664.232ZM-459.209 659.389C-459.337 659.389 -459.464 659.379 -459.594 659.358C-464.847 658.542 -470.088 657.722 -475.315 656.9C-476.757 656.674 -477.752 655.247 -477.539 653.713C-477.327 652.179 -475.984 651.129 -474.544 651.346C-469.319 652.167 -464.081 652.987 -458.831 653.802C-457.389 654.028 -456.391 655.453 -456.602 656.986C-456.794 658.385 -457.922 659.389 -459.209 659.389ZM-490.641 654.446C-490.771 654.446 -490.901 654.436 -491.033 654.415C-496.289 653.581 -501.528 652.743 -506.749 651.903C-508.189 651.671 -509.18 650.24 -508.962 648.707C-508.744 647.173 -507.399 646.108 -505.959 646.351C-500.742 647.191 -495.507 648.029 -490.255 648.861C-488.814 649.089 -487.82 650.517 -488.035 652.051C-488.231 653.445 -489.357 654.446 -490.641 654.446ZM-522.057 649.391C-522.19 649.391 -522.324 649.381 -522.459 649.358C-527.717 648.502 -532.955 647.642 -538.167 646.778C-539.607 646.54 -540.592 645.105 -540.369 643.572C-540.144 642.039 -538.789 641.005 -537.356 641.23C-532.146 642.093 -526.915 642.955 -521.662 643.809C-520.222 644.044 -519.233 645.476 -519.453 647.008C-519.652 648.397 -520.776 649.391 -522.057 649.391ZM-553.454 644.187C-553.591 644.187 -553.729 644.177 -553.869 644.153C-559.128 643.267 -564.361 642.377 -569.566 641.485C-571.004 641.239 -571.982 639.798 -571.75 638.266C-571.519 636.737 -570.168 635.688 -568.726 635.941C-563.526 636.833 -558.298 637.722 -553.044 638.606C-551.605 638.848 -550.623 640.286 -550.851 641.818C-551.057 643.202 -552.178 644.187 -553.454 644.187ZM-584.823 638.804C-584.966 638.804 -585.11 638.792 -585.255 638.767C-590.515 637.847 -595.743 636.922 -600.937 635.994C-602.374 635.736 -603.342 634.289 -603.1 632.761C-602.859 631.232 -601.497 630.202 -600.062 630.456C-594.875 631.385 -589.653 632.306 -584.399 633.227C-582.961 633.479 -581.988 634.922 -582.224 636.452C-582.436 637.827 -583.555 638.804 -584.823 638.804ZM-616.16 633.195C-616.308 633.195 -616.459 633.183 -616.611 633.154C-621.871 632.191 -627.094 631.222 -632.276 630.249C-633.711 629.979 -634.668 628.523 -634.415 626.997C-634.161 625.469 -632.798 624.452 -631.358 624.72C-626.185 625.694 -620.97 626.66 -615.717 627.623C-614.281 627.884 -613.318 629.336 -613.565 630.864C-613.784 632.231 -614.9 633.195 -616.16 633.195ZM-647.453 627.314C-647.609 627.314 -647.768 627.298 -647.928 627.269C-653.189 626.252 -658.404 625.231 -663.569 624.201C-665.001 623.916 -665.944 622.448 -665.676 620.925C-665.407 619.401 -664.031 618.393 -662.598 618.683C-657.442 619.709 -652.237 620.731 -646.986 621.745C-645.552 622.022 -644.602 623.483 -644.862 625.009C-645.093 626.364 -646.203 627.314 -647.453 627.314ZM-678.691 621.09C-678.857 621.09 -679.025 621.073 -679.194 621.039C-684.454 619.958 -689.658 618.868 -694.804 617.772C-696.232 617.468 -697.159 615.989 -696.872 614.468C-696.585 612.948 -695.192 611.965 -693.767 612.267C-688.634 613.36 -683.441 614.448 -678.193 615.526C-676.763 615.82 -675.827 617.293 -676.104 618.815C-676.348 620.158 -677.452 621.09 -678.691 621.09ZM-709.854 614.443C-710.032 614.443 -710.213 614.424 -710.393 614.384C-715.653 613.22 -720.843 612.047 -725.961 610.864C-727.385 610.537 -728.288 609.042 -727.979 607.526C-727.67 606.012 -726.263 605.048 -724.841 605.378C-719.739 606.555 -714.563 607.727 -709.318 608.887C-707.892 609.203 -706.976 610.69 -707.273 612.208C-707.533 613.533 -708.631 614.443 -709.854 614.443ZM-740.916 607.263C-741.109 607.263 -741.306 607.241 -741.503 607.194C-746.798 605.914 -752.015 604.619 -757.011 603.349C-758.428 602.989 -759.301 601.474 -758.964 599.966C-758.626 598.457 -757.2 597.529 -755.785 597.888C-750.723 599.174 -745.571 600.453 -740.334 601.718C-738.913 602.062 -738.023 603.566 -738.346 605.078C-738.624 606.381 -739.711 607.263 -740.916 607.263ZM-771.832 599.39C-772.046 599.39 -772.263 599.363 -772.48 599.305C-777.738 597.892 -782.927 596.452 -787.902 595.03C-789.308 594.627 -790.143 593.086 -789.764 591.589C-789.387 590.093 -787.941 589.203 -786.531 589.608C-781.583 591.024 -776.42 592.456 -771.187 593.861C-769.775 594.241 -768.919 595.768 -769.276 597.27C-769.578 598.543 -770.653 599.39 -771.832 599.39ZM-802.531 590.593C-802.772 590.593 -803.018 590.557 -803.262 590.482C-808.506 588.873 -813.649 587.234 -818.548 585.607C-819.938 585.145 -820.714 583.571 -820.28 582.091C-819.848 580.611 -818.367 579.791 -816.976 580.247C-812.115 581.861 -807.009 583.489 -801.802 585.086C-800.401 585.515 -799.594 587.072 -799.997 588.561C-800.331 589.79 -801.386 590.593 -802.531 590.593ZM-832.877 580.486C-833.16 580.486 -833.447 580.437 -833.731 580.334C-838.946 578.437 -844.007 576.498 -848.774 574.566C-850.136 574.015 -850.819 572.393 -850.3 570.943C-849.782 569.494 -848.26 568.767 -846.897 569.318C-842.186 571.226 -837.182 573.145 -832.024 575.02C-830.645 575.522 -829.909 577.117 -830.38 578.584C-830.756 579.751 -831.781 580.486 -832.877 580.486ZM-862.568 568.391C-862.918 568.391 -863.275 568.315 -863.617 568.157C-868.793 565.768 -873.684 563.324 -878.153 560.894C-879.449 560.188 -879.964 558.496 -879.3 557.117C-878.636 555.733 -877.046 555.191 -875.75 555.893C-871.381 558.271 -866.592 560.664 -861.517 563.006C-860.18 563.622 -859.567 565.275 -860.146 566.699C-860.579 567.757 -861.549 568.391 -862.568 568.391ZM-890.753 552.859C-891.238 552.859 -891.729 552.717 -892.169 552.419C-897.137 549.046 -901.515 545.583 -905.182 542.121C-906.273 541.094 -906.373 539.319 -905.406 538.158C-904.44 536.999 -902.773 536.892 -901.682 537.922C-898.221 541.187 -894.066 544.471 -889.332 547.684C-888.103 548.517 -887.742 550.254 -888.526 551.561C-889.03 552.402 -889.881 552.859 -890.753 552.859ZM-913.637 530.337C-914.52 530.337 -915.384 529.865 -915.883 529.005C-918.969 523.695 -920.689 518.188 -920.995 512.64C-921.081 511.092 -919.971 509.763 -918.516 509.674C-917.063 509.555 -915.814 510.764 -915.728 512.311C-915.475 516.919 -914.017 521.543 -911.396 526.052C-910.63 527.371 -911.013 529.101 -912.253 529.916C-912.685 530.201 -913.164 530.337 -913.637 530.337ZM-133.697 503.721C-135.15 503.721 -136.33 502.47 -136.334 500.92C-136.338 499.369 -135.16 498.11 -133.703 498.106C-128.394 498.091 -123.112 498.048 -117.859 497.975C-117.848 497.975 -117.836 497.975 -117.825 497.975C-116.384 497.975 -115.206 499.208 -115.187 500.746C-115.168 502.296 -116.334 503.569 -117.791 503.59C-123.063 503.663 -128.363 503.706 -133.69 503.721C-133.69 503.721 -133.693 503.721 -133.697 503.721ZM-149.569 503.684C-149.575 503.684 -149.581 503.684 -149.587 503.684C-154.863 503.645 -160.164 503.583 -165.485 503.495C-166.942 503.47 -168.105 502.194 -168.081 500.643C-168.059 499.108 -166.882 497.88 -165.445 497.88C-165.432 497.88 -165.417 497.88 -165.403 497.88C-160.096 497.967 -154.811 498.031 -149.551 498.069C-148.094 498.079 -146.921 499.345 -146.931 500.895C-146.941 502.439 -148.12 503.684 -149.569 503.684ZM-101.954 503.281C-103.381 503.281 -104.555 502.068 -104.59 500.541C-104.624 498.99 -103.473 497.704 -102.016 497.668C-96.6557 497.531 -91.3288 497.36 -86.1814 497.164C-84.7409 497.108 -83.503 498.32 -83.4509 499.868C-83.3978 501.418 -84.5361 502.719 -85.9921 502.775C-91.1606 502.973 -96.5084 503.142 -101.889 503.279C-101.911 503.281 -101.933 503.281 -101.954 503.281ZM-181.315 503.166C-181.336 503.166 -181.357 503.166 -181.378 503.165C-186.656 503.033 -191.953 502.878 -197.268 502.703C-198.724 502.655 -199.867 501.36 -199.822 499.809C-199.777 498.259 -198.57 497.033 -197.104 497.09C-191.802 497.266 -186.519 497.42 -181.254 497.552C-179.797 497.588 -178.644 498.873 -178.679 500.424C-178.713 501.951 -179.888 503.166 -181.315 503.166ZM-213.05 502.121C-213.084 502.121 -213.117 502.12 -213.152 502.118C-218.431 501.906 -223.725 501.674 -229.032 501.423C-230.488 501.355 -231.614 500.042 -231.549 498.494C-231.485 496.944 -230.264 495.766 -228.797 495.814C-223.502 496.065 -218.22 496.296 -212.953 496.508C-211.497 496.567 -210.361 497.871 -210.416 499.42C-210.47 500.933 -211.64 502.121 -213.05 502.121ZM-70.2297 502.061C-71.627 502.061 -72.794 500.893 -72.8626 499.392C-72.9346 497.842 -71.8119 496.526 -70.357 496.448C-65.0069 496.169 -59.6867 495.852 -54.5448 495.507C-53.0954 495.405 -51.8376 496.584 -51.7457 498.132C-51.6538 499.679 -52.7577 501.013 -54.2126 501.111C-59.3789 501.457 -64.7234 501.777 -70.0979 502.058C-70.1422 502.059 -70.1865 502.061 -70.2297 502.061ZM-244.772 500.624C-244.816 500.624 -244.862 500.623 -244.907 500.62C-250.17 500.337 -255.443 500.039 -260.727 499.726C-262.181 499.64 -263.295 498.316 -263.214 496.766C-263.133 495.219 -261.896 494.015 -260.432 494.12C-255.159 494.432 -249.894 494.731 -244.64 495.013C-243.184 495.091 -242.065 496.409 -242.138 497.958C-242.211 499.459 -243.376 500.624 -244.772 500.624ZM-38.5476 499.92C-39.9106 499.92 -41.0654 498.804 -41.1751 497.333C-41.2902 495.788 -40.2052 494.436 -38.7525 494.313C-33.4423 493.868 -28.1376 493.374 -22.9834 492.847C-21.5286 492.721 -20.2453 493.831 -20.1058 495.374C-19.9663 496.917 -21.0293 498.289 -22.4797 498.437C-27.6626 498.966 -32.9983 499.461 -38.3373 499.91C-38.407 499.917 -38.4779 499.92 -38.5476 499.92ZM-915.008 498.996C-915.401 498.996 -915.8 498.903 -916.177 498.704C-917.482 498.015 -918.017 496.332 -917.37 494.942C-914.981 489.806 -911.477 485.098 -906.957 480.948C-905.854 479.933 -904.188 480.065 -903.237 481.239C-902.284 482.412 -902.407 484.186 -903.51 485.198C-907.494 488.858 -910.566 492.976 -912.643 497.436C-913.102 498.423 -914.037 498.996 -915.008 498.996ZM-276.389 498.75C-276.443 498.75 -276.497 498.748 -276.551 498.744C-281.82 498.402 -287.098 498.047 -292.379 497.678C-293.833 497.576 -294.933 496.241 -294.838 494.693C-294.743 493.147 -293.484 491.971 -292.034 492.074C-286.76 492.443 -281.491 492.798 -276.23 493.14C-274.776 493.234 -273.669 494.565 -273.758 496.112C-273.843 497.602 -275.004 498.75 -276.389 498.75ZM-6.94869 496.68C-8.27182 496.68 -9.41227 495.625 -9.56617 494.194C-9.73226 492.653 -8.69482 491.26 -7.24658 491.083C-1.9751 490.44 3.30528 489.738 8.44832 488.994C9.89213 488.773 11.2208 489.861 11.4179 491.398C11.6139 492.933 10.6019 494.347 9.15804 494.556C3.97846 495.304 -1.33842 496.014 -6.64533 496.662C-6.74719 496.676 -6.84793 496.68 -6.94869 496.68ZM-308.023 496.543C-308.085 496.543 -308.147 496.54 -308.21 496.536C-313.485 496.143 -318.764 495.739 -324.044 495.324C-325.497 495.211 -326.588 493.864 -326.481 492.318C-326.374 490.774 -325.118 489.606 -323.657 489.726C-318.383 490.138 -313.111 490.543 -307.842 490.935C-306.39 491.043 -305.294 492.384 -305.395 493.931C-305.491 495.41 -306.649 496.543 -308.023 496.543ZM-339.677 494.058C-339.746 494.058 -339.813 494.055 -339.883 494.049C-345.165 493.614 -350.446 493.17 -355.726 492.715C-357.179 492.59 -358.261 491.238 -358.143 489.692C-358.026 488.147 -356.762 486.997 -355.301 487.121C-350.027 487.573 -344.75 488.017 -339.476 488.452C-338.023 488.571 -336.937 489.922 -337.049 491.468C-337.156 492.938 -338.312 494.058 -339.677 494.058ZM24.5041 492.123C23.2297 492.123 22.1092 491.139 21.9022 489.757C21.673 488.226 22.6539 486.786 24.0922 486.543C29.3548 485.651 34.5953 484.691 39.6686 483.691C41.1002 483.413 42.4776 484.414 42.7422 485.94C43.0079 487.465 42.0624 488.929 40.6297 489.212C35.5121 490.221 30.2273 491.188 24.9215 492.089C24.7809 492.112 24.6414 492.123 24.5041 492.123ZM-371.35 491.34C-371.425 491.34 -371.499 491.338 -371.573 491.331C-376.861 490.861 -382.146 490.382 -387.425 489.898C-388.875 489.766 -389.952 488.406 -389.828 486.861C-389.702 485.316 -388.421 484.157 -386.973 484.305C-381.698 484.785 -376.418 485.264 -371.134 485.734C-369.683 485.862 -368.604 487.22 -368.725 488.766C-368.84 490.233 -369.994 491.34 -371.35 491.34ZM-403.049 488.435C-403.126 488.435 -403.205 488.43 -403.285 488.424C-408.581 487.926 -413.87 487.422 -419.148 486.913C-420.598 486.773 -421.669 485.409 -421.537 483.864C-421.407 482.32 -420.109 481.209 -418.673 481.321C-413.396 481.83 -408.111 482.333 -402.82 482.832C-401.368 482.968 -400.296 484.332 -400.425 485.876C-400.547 487.335 -401.698 488.435 -403.049 488.435ZM55.7111 485.952C54.4943 485.952 53.4004 485.052 53.1346 483.734C52.829 482.218 53.7358 480.726 55.1597 480.401C60.398 479.202 65.5731 477.929 70.5412 476.616C71.9552 476.241 73.3857 477.16 73.7367 478.664C74.0888 480.169 73.2262 481.692 71.8123 482.066C66.791 483.393 61.5616 484.678 56.268 485.888C56.0809 485.931 55.8949 485.952 55.7111 485.952ZM-434.719 485.389C-434.8 485.389 -434.88 485.385 -434.963 485.377C-440.246 484.86 -445.517 484.339 -450.776 483.817C-452.226 483.673 -453.292 482.305 -453.156 480.761C-453.021 479.217 -451.739 478.068 -450.284 478.227C-445.028 478.749 -439.76 479.27 -434.48 479.787C-433.029 479.928 -431.961 481.295 -432.095 482.838C-432.222 484.294 -433.371 485.389 -434.719 485.389ZM-466.334 482.251C-466.417 482.251 -466.501 482.246 -466.586 482.239L-482.393 480.646C-483.844 480.499 -484.908 479.128 -484.769 477.585C-484.632 476.041 -483.337 474.922 -481.893 475.056L-466.089 476.649C-464.638 476.794 -463.574 478.163 -463.71 479.707C-463.841 481.161 -464.989 482.251 -466.334 482.251ZM-497.944 479.059C-498.029 479.059 -498.113 479.054 -498.198 479.047L-514.002 477.446C-515.453 477.298 -516.517 475.928 -516.38 474.384C-516.242 472.841 -514.936 471.718 -513.504 471.856L-497.697 473.457C-496.247 473.604 -495.183 474.975 -495.321 476.518C-495.452 477.97 -496.6 479.059 -497.944 479.059ZM86.5073 477.791C85.3602 477.791 84.304 476.987 83.9729 475.755C83.5721 474.265 84.3815 472.71 85.7821 472.282C90.913 470.719 95.9807 469.056 100.845 467.341C102.224 466.854 103.719 467.651 104.177 469.123C104.635 470.595 103.885 472.184 102.503 472.671C97.5717 474.409 92.4343 476.094 87.2359 477.68C86.9923 477.754 86.7475 477.791 86.5073 477.791ZM-891.953 476.739C-892.925 476.739 -893.861 476.164 -894.32 475.175C-894.965 473.784 -894.429 472.101 -893.123 471.415C-888.658 469.068 -883.578 466.924 -878.021 465.043C-876.63 464.579 -875.149 465.391 -874.707 466.867C-874.265 468.344 -875.032 469.923 -876.421 470.393C-881.726 472.189 -886.559 474.226 -890.787 476.448C-891.162 476.645 -891.561 476.739 -891.953 476.739ZM-529.555 475.857C-529.639 475.857 -529.723 475.854 -529.807 475.845L-545.612 474.258C-547.063 474.113 -548.128 472.744 -547.992 471.2C-547.856 469.657 -546.572 468.533 -545.119 468.668L-529.311 470.255C-527.86 470.402 -526.796 471.772 -526.934 473.314C-527.062 474.768 -528.211 475.857 -529.555 475.857ZM-561.17 472.702C-561.252 472.702 -561.334 472.698 -561.417 472.69C-566.715 472.168 -571.984 471.652 -577.224 471.146C-578.674 471.005 -579.744 469.64 -579.612 468.097C-579.48 466.552 -578.18 465.443 -576.746 465.554C-571.505 466.063 -566.233 466.578 -560.931 467.1C-559.48 467.242 -558.413 468.61 -558.547 470.154C-558.673 471.609 -559.824 472.702 -561.17 472.702ZM-592.793 469.646C-592.872 469.646 -592.95 469.642 -593.029 469.636C-598.335 469.134 -603.605 468.643 -608.838 468.165C-610.29 468.033 -611.366 466.673 -611.241 465.129C-611.116 463.584 -609.824 462.434 -608.387 462.572C-603.149 463.05 -597.874 463.541 -592.563 464.042C-591.111 464.179 -590.04 465.543 -590.168 467.087C-590.291 468.547 -591.442 469.646 -592.793 469.646ZM116.621 467.149C115.56 467.149 114.56 466.462 114.158 465.345C113.636 463.898 114.317 462.273 115.677 461.72C120.672 459.682 125.561 457.532 130.213 455.331C131.54 454.696 133.101 455.338 133.695 456.753C134.287 458.171 133.688 459.828 132.357 460.46C127.623 462.702 122.646 464.891 117.566 466.962C117.255 467.089 116.936 467.149 116.621 467.149ZM-624.431 466.756C-624.504 466.756 -624.577 466.753 -624.651 466.746C-629.967 466.279 -635.24 465.825 -640.467 465.389C-641.919 465.268 -643.005 463.916 -642.889 462.37C-642.776 460.824 -641.505 459.689 -640.053 459.791C-634.819 460.228 -629.54 460.683 -624.216 461.151C-622.765 461.278 -621.685 462.634 -621.805 464.18C-621.919 465.646 -623.072 466.756 -624.431 466.756ZM-861.882 466.237C-863.098 466.237 -864.192 465.338 -864.459 464.021C-864.765 462.507 -863.86 461.013 -862.436 460.686C-857.527 459.561 -852.215 458.548 -846.644 457.674C-845.21 457.448 -843.862 458.509 -843.651 460.042C-843.438 461.577 -844.434 463.003 -845.876 463.229C-851.332 464.085 -856.53 465.076 -861.324 466.175C-861.51 466.217 -861.697 466.237 -861.882 466.237ZM-656.09 464.112C-656.155 464.112 -656.22 464.109 -656.287 464.103C-661.614 463.685 -666.89 463.286 -672.109 462.905C-673.563 462.799 -674.661 461.46 -674.56 459.914C-674.461 458.367 -673.191 457.196 -671.749 457.305C-666.519 457.684 -661.234 458.085 -655.897 458.505C-654.444 458.619 -653.353 459.965 -653.461 461.511C-653.563 462.988 -654.72 464.112 -656.09 464.112ZM-687.771 461.817C-687.825 461.817 -687.88 461.816 -687.936 461.812C-693.277 461.46 -698.555 461.136 -703.767 460.837C-705.221 460.753 -706.338 459.43 -706.259 457.883C-706.181 456.335 -704.92 455.143 -703.483 455.231C-698.257 455.53 -692.967 455.858 -687.611 456.207C-686.157 456.302 -685.05 457.634 -685.141 459.182C-685.226 460.671 -686.388 461.817 -687.771 461.817ZM-830.51 461.215C-831.85 461.215 -832.997 460.134 -833.132 458.684C-833.276 457.141 -832.216 455.766 -830.767 455.614C-825.711 455.08 -820.357 454.624 -814.853 454.256C-813.385 454.167 -812.146 455.334 -812.055 456.883C-811.963 458.429 -813.069 459.762 -814.522 459.86C-819.964 460.223 -825.254 460.675 -830.248 461.201C-830.335 461.211 -830.423 461.215 -830.51 461.215ZM-719.48 460.005C-719.52 460.005 -719.56 460.004 -719.601 460.003C-724.959 459.747 -730.239 459.524 -735.437 459.336C-736.893 459.283 -738.034 457.984 -737.984 456.434C-737.934 454.884 -736.715 453.671 -735.257 453.724C-730.041 453.912 -724.741 454.137 -719.363 454.394C-717.908 454.464 -716.781 455.776 -716.846 457.325C-716.911 458.828 -718.078 460.005 -719.48 460.005ZM-798.835 459.055C-800.25 459.055 -801.42 457.862 -801.469 456.345C-801.52 454.795 -800.38 453.495 -798.923 453.442C-793.83 453.256 -788.472 453.125 -782.997 453.054C-782.986 453.054 -782.975 453.054 -782.964 453.054C-781.522 453.054 -780.344 454.289 -780.326 455.827C-780.309 457.378 -781.476 458.649 -782.932 458.669C-788.368 458.739 -793.686 458.869 -798.741 459.054C-798.773 459.055 -798.804 459.055 -798.835 459.055ZM-751.219 458.861C-751.238 458.861 -751.257 458.861 -751.276 458.861C-756.712 458.736 -762.04 458.656 -767.108 458.623C-768.566 458.614 -769.739 457.348 -769.73 455.797C-769.721 454.254 -768.541 453.008 -767.093 453.008C-767.087 453.008 -767.082 453.008 -767.076 453.008C-761.98 453.043 -756.625 453.123 -751.163 453.246C-749.706 453.281 -748.551 454.564 -748.582 456.114C-748.613 457.644 -749.788 458.861 -751.219 458.861ZM145.583 453.388C144.63 453.388 143.71 452.836 143.24 451.875C142.568 450.499 143.073 448.803 144.366 448.089C149.087 445.481 153.685 442.727 158.028 439.907C159.273 439.099 160.895 439.518 161.654 440.84C162.414 442.164 162.021 443.891 160.777 444.699C156.33 447.587 151.626 450.405 146.797 453.073C146.408 453.286 145.993 453.388 145.583 453.388ZM172.613 435.773C171.795 435.773 170.989 435.37 170.473 434.612C169.62 433.356 169.883 431.602 171.063 430.692C175.352 427.387 179.47 423.916 183.305 420.37C184.404 419.353 186.071 419.479 187.026 420.648C187.982 421.818 187.864 423.592 186.765 424.608C182.814 428.261 178.573 431.837 174.158 435.24C173.69 435.6 173.148 435.773 172.613 435.773ZM196.478 413.63C195.828 413.63 195.177 413.377 194.667 412.864C193.608 411.8 193.56 410.023 194.56 408.896C198.149 404.85 201.536 400.604 204.629 396.272C205.51 395.039 207.165 394.798 208.325 395.735C209.485 396.674 209.711 398.433 208.83 399.669C205.624 404.159 202.113 408.56 198.395 412.751C197.877 413.334 197.178 413.63 196.478 413.63ZM215.521 386.763C215.084 386.763 214.64 386.648 214.233 386.404C212.963 385.646 212.51 383.935 213.222 382.582C215.776 377.736 217.844 372.713 219.365 367.657C219.809 366.179 221.293 365.361 222.681 365.839C224.068 366.31 224.833 367.891 224.389 369.366C222.76 374.782 220.551 380.153 217.825 385.329C217.34 386.246 216.444 386.763 215.521 386.763ZM225.05 354.808C224.969 354.808 224.887 354.804 224.805 354.797C223.354 354.654 222.287 353.287 222.421 351.742C222.622 349.429 222.724 347.069 222.724 344.727C222.725 341.686 222.553 338.576 222.214 335.478C222.045 333.939 223.082 332.544 224.529 332.365C225.978 332.173 227.286 333.287 227.454 334.829C227.817 338.14 228.001 341.471 228 344.727C228 347.241 227.89 349.776 227.675 352.261C227.547 353.715 226.398 354.808 225.05 354.808ZM221.546 321.497C220.417 321.497 219.372 320.718 219.024 319.509C217.575 314.47 215.676 309.322 213.379 304.21C212.751 302.813 213.307 301.136 214.623 300.466C215.938 299.8 217.511 300.391 218.14 301.79C220.548 307.152 222.544 312.561 224.069 317.868C224.496 319.35 223.712 320.92 222.319 321.373C222.062 321.456 221.802 321.497 221.546 321.497ZM208.047 291.069C207.174 291.069 206.321 290.61 205.818 289.769C203.131 285.269 200.091 280.712 196.789 276.224C195.89 275.004 196.091 273.239 197.238 272.283C198.386 271.327 200.044 271.542 200.942 272.762C204.352 277.394 207.491 282.102 210.271 286.756C211.053 288.065 210.69 289.8 209.461 290.631C209.021 290.928 208.532 291.069 208.047 291.069ZM188.559 264.456C187.849 264.456 187.141 264.153 186.622 263.556C183.168 259.583 179.446 255.598 175.561 251.711C174.499 250.651 174.447 248.874 175.445 247.743C176.444 246.615 178.112 246.557 179.174 247.62C183.149 251.596 186.958 255.673 190.494 259.741C191.484 260.88 191.419 262.655 190.35 263.709C189.842 264.21 189.199 264.456 188.559 264.456ZM165.462 241.288C164.868 241.288 164.271 241.076 163.778 240.64C159.815 237.136 155.651 233.657 151.401 230.298C150.232 229.374 149.988 227.614 150.857 226.37C151.726 225.126 153.378 224.865 154.547 225.79C158.873 229.209 163.114 232.752 167.149 236.322C168.27 237.312 168.424 239.083 167.494 240.276C166.971 240.941 166.219 241.288 165.462 241.288ZM-57.5797 226.45C-58.8386 226.45 -59.9524 225.488 -60.1761 224.123C-60.4241 222.595 -59.463 221.142 -58.0281 220.877C-53.3966 220.023 -49.4527 217.509 -46.306 213.405C-45.3859 212.203 -43.7228 212.026 -42.5946 213.004C-41.4663 213.985 -41.2969 215.755 -42.2192 216.955C-46.1919 222.136 -51.2087 225.317 -57.1268 226.409C-57.2785 226.436 -57.4302 226.45 -57.5797 226.45ZM-73.1162 224.31C-73.4439 224.31 -73.7761 224.244 -74.0972 224.108C-79.1682 221.943 -84.0355 218.583 -88.1743 214.387C-89.2295 213.318 -89.2694 211.54 -88.2652 210.417C-87.2598 209.297 -85.5901 209.252 -84.5361 210.321C-80.8778 214.031 -76.5884 216.995 -72.134 218.897C-70.781 219.475 -70.1245 221.108 -70.667 222.548C-71.08 223.642 -72.0698 224.31 -73.1162 224.31ZM139.987 221.118C139.483 221.118 138.975 220.965 138.525 220.646C134.216 217.582 129.739 214.56 125.218 211.66C123.97 210.86 123.568 209.135 124.32 207.807C125.072 206.479 126.693 206.052 127.941 206.851C132.531 209.795 137.079 212.864 141.455 215.976C142.667 216.838 142.993 218.58 142.184 219.871C141.675 220.681 140.839 221.118 139.987 221.118ZM112.793 203.665C112.367 203.665 111.937 203.556 111.536 203.326C106.934 200.665 102.212 198.078 97.5031 195.631C96.1944 194.95 95.6508 193.27 96.2896 191.877C96.9285 190.483 98.5084 189.905 99.8172 190.585C104.596 193.067 109.386 195.694 114.055 198.391C115.335 199.131 115.809 200.835 115.115 202.197C114.635 203.135 113.729 203.665 112.793 203.665ZM-37.4748 202.873C-37.6995 202.873 -37.9276 202.844 -38.1546 202.779C-39.5619 202.382 -40.4 200.843 -40.0258 199.345C-39.1511 195.845 -38.5145 191.917 -38.1314 187.671C-38.055 186.809 -38.0151 185.946 -38.0151 185.104C-38.0151 184.583 -38.0294 184.064 -38.0582 183.545C-38.1435 181.998 -37.0341 180.669 -35.5792 180.577C-34.1022 180.517 -32.8765 181.668 -32.7912 183.215C-32.7569 183.843 -32.7392 184.473 -32.7392 185.103C-32.7392 186.121 -32.7857 187.165 -32.8787 188.202C-33.2895 192.756 -33.9782 196.99 -34.9271 200.785C-35.2415 202.044 -36.3089 202.873 -37.4748 202.873ZM-95.3071 201.376C-96.3667 201.376 -97.3665 200.69 -97.7695 199.574C-98.9786 196.229 -99.592 192.891 -99.592 189.653C-99.592 186.65 -99.0628 183.751 -98.0187 181.034C-97.4684 179.6 -95.9294 178.912 -94.5786 179.498C-93.23 180.085 -92.5844 181.724 -93.1347 183.159C-93.9175 185.198 -94.315 187.382 -94.315 189.653C-94.315 192.199 -93.8201 194.858 -92.8435 197.559C-92.3209 199.005 -92.9985 200.63 -94.3582 201.186C-94.6726 201.313 -94.9926 201.376 -95.3071 201.376ZM-470.782 198.021C-471.54 198.021 -472.292 197.676 -472.814 197.005C-473.744 195.813 -473.589 194.042 -472.466 193.052C-468.404 189.468 -464.151 185.941 -459.826 182.571C-458.65 181.655 -456.999 181.926 -456.139 183.178C-455.279 184.429 -455.533 186.185 -456.709 187.1C-460.949 190.404 -465.117 193.859 -469.098 197.374C-469.592 197.809 -470.189 198.021 -470.782 198.021ZM84.2365 188.831C83.8844 188.831 83.5278 188.756 83.1845 188.597C78.3604 186.361 73.4565 184.222 68.6068 182.237C67.2472 181.681 66.5684 180.056 67.091 178.609C67.6137 177.161 69.1384 176.444 70.5003 176.996C75.4208 179.01 80.3976 181.18 85.2904 183.449C86.6257 184.068 87.2381 185.723 86.6557 187.144C86.2239 188.2 85.254 188.831 84.2365 188.831ZM-445.203 178.061C-446.068 178.061 -446.914 177.61 -447.42 176.781C-448.211 175.48 -447.864 173.742 -446.641 172.898C-442.225 169.85 -437.629 166.861 -432.982 164.018C-431.717 163.244 -430.106 163.707 -429.38 165.052C-428.653 166.396 -429.089 168.113 -430.352 168.885C-434.919 171.68 -439.433 174.615 -443.771 177.608C-444.214 177.916 -444.711 178.061 -445.203 178.061ZM54.6039 176.716C54.3271 176.716 54.0459 176.669 53.7691 176.571C48.7655 174.794 43.6977 173.137 38.7086 171.645C37.3057 171.226 36.4886 169.675 36.8828 168.182C37.277 166.689 38.7352 165.821 40.1358 166.238C45.2058 167.756 50.3544 169.438 55.4387 171.242C56.8206 171.733 57.5668 173.323 57.1062 174.794C56.7375 175.971 55.7078 176.716 54.6039 176.716ZM-84.9357 172.79C-85.8381 172.79 -86.7162 172.297 -87.2089 171.412C-87.9507 170.077 -87.5344 168.356 -86.281 167.566C-83.7533 165.975 -80.8446 164.548 -77.6336 163.326C-75.4701 162.503 -73.2302 161.733 -70.9782 161.041C-69.5831 160.61 -68.1159 161.467 -67.7107 162.956C-67.3055 164.445 -68.1116 166.002 -69.5111 166.433C-71.6613 167.095 -73.796 167.828 -75.8577 168.614C-78.753 169.715 -81.3561 170.989 -83.596 172.4C-84.0168 172.663 -84.4796 172.79 -84.9357 172.79ZM-40.462 170.438C-41.3345 170.438 -42.1882 169.977 -42.6909 169.136C-44.1391 166.711 -45.9284 164.307 -48.041 161.944C-50.1812 162.205 -52.2872 162.51 -54.3477 162.86C-55.7838 163.098 -57.1379 162.06 -57.3671 160.528C-57.5963 158.997 -56.6152 157.557 -55.177 157.313C-54.4573 157.191 -53.731 157.075 -53.0002 156.964C-53.8406 155.934 -53.8716 154.377 -53.0168 153.306C-52.0734 152.124 -50.4082 151.98 -49.2988 152.984C-48.1727 154.002 -47.1009 155.033 -46.0856 156.077C-43.797 155.839 -41.4774 155.65 -39.1356 155.509C-37.6707 155.433 -36.4362 156.608 -36.3542 158.156C-36.2734 159.703 -37.3862 161.029 -38.8411 161.116C-39.7424 161.169 -40.6414 161.231 -41.5361 161.3C-40.3082 162.892 -39.2086 164.5 -38.2398 166.125C-37.4581 167.434 -37.8213 169.169 -39.0514 170C-39.4899 170.296 -39.9793 170.438 -40.462 170.438ZM24.0313 167.592C23.8386 167.592 23.6427 167.57 23.4467 167.524C18.2483 166.273 13.0555 165.183 8.01318 164.284C6.576 164.028 5.60609 162.581 5.84746 161.052C6.08883 159.523 7.44956 158.493 8.88562 158.746C14.0253 159.663 19.3157 160.774 24.6104 162.046C26.031 162.389 26.9233 163.891 26.6011 165.403C26.3254 166.707 25.2371 167.592 24.0313 167.592ZM-7.28084 162.049C-7.37053 162.049 -7.46133 162.046 -7.55434 162.034C-12.869 161.453 -18.1327 161.077 -23.2016 160.917C-24.6576 160.872 -25.8024 159.577 -25.7593 158.028C-25.7161 156.477 -24.5513 155.24 -23.0443 155.306C-17.8493 155.471 -12.456 155.855 -7.01512 156.45C-5.56577 156.608 -4.51172 157.986 -4.6612 159.529C-4.7996 160.973 -5.94554 162.049 -7.28084 162.049ZM-417.713 161.218C-418.673 161.218 -419.6 160.659 -420.065 159.687C-420.727 158.304 -420.211 156.615 -418.912 155.91C-414.236 153.374 -409.386 150.896 -404.495 148.547C-403.169 147.906 -401.605 148.536 -401.005 149.949C-400.405 151.362 -400.996 153.026 -402.324 153.662C-407.14 155.977 -411.914 158.416 -416.516 160.913C-416.9 161.121 -417.31 161.218 -417.713 161.218ZM-63.9927 148.262C-64.4466 148.262 -64.9062 148.137 -65.3269 147.875C-69.51 145.259 -74.1758 142.727 -79.1948 140.348C-80.5257 139.718 -81.1236 138.057 -80.5312 136.641C-79.9378 135.224 -78.381 134.587 -77.0479 135.218C-71.8495 137.683 -67.0077 140.312 -62.6541 143.032C-61.3985 143.818 -60.9777 145.537 -61.7151 146.875C-62.2067 147.767 -63.0881 148.262 -63.9927 148.262ZM-388.803 147.31C-389.851 147.31 -390.842 146.64 -391.255 145.541C-391.794 144.1 -391.135 142.468 -389.781 141.894C-384.893 139.819 -379.857 137.812 -374.816 135.929C-373.443 135.416 -371.936 136.186 -371.453 137.649C-370.971 139.111 -371.695 140.713 -373.069 141.227C-378.04 143.083 -383.005 145.062 -387.827 147.108C-388.148 147.246 -388.479 147.31 -388.803 147.31ZM-358.868 136.117C-359.996 136.117 -361.04 135.339 -361.389 134.131C-361.816 132.648 -361.033 131.078 -359.64 130.623C-354.617 128.982 -349.451 127.41 -344.287 125.949C-342.88 125.55 -341.433 126.441 -341.059 127.94C-340.685 129.438 -341.523 130.976 -342.93 131.374C-348.031 132.817 -353.132 134.37 -358.094 135.991C-358.35 136.075 -358.611 136.117 -358.868 136.117ZM-92.8779 134.381C-93.168 134.381 -93.4625 134.329 -93.7515 134.221C-98.4937 132.449 -103.535 130.76 -108.733 129.2C-110.136 128.779 -110.952 127.229 -110.557 125.736C-110.162 124.245 -108.702 123.371 -107.303 123.796C-101.998 125.386 -96.8506 127.112 -92.0043 128.924C-90.6291 129.438 -89.9072 131.039 -90.3899 132.503C-90.7697 133.658 -91.7895 134.381 -92.8779 134.381ZM-328.2 127.425C-329.403 127.425 -330.491 126.543 -330.77 125.242C-331.093 123.73 -330.204 122.224 -328.783 121.88C-323.663 120.639 -318.406 119.468 -313.157 118.398C-311.717 118.107 -310.344 119.104 -310.069 120.628C-309.794 122.15 -310.733 123.622 -312.164 123.912C-317.355 124.97 -322.552 126.128 -327.612 127.355C-327.809 127.404 -328.005 127.425 -328.2 127.425ZM-123.404 125.161C-123.597 125.161 -123.793 125.138 -123.988 125.091C-128.979 123.89 -134.175 122.771 -139.433 121.767C-140.867 121.493 -141.82 120.033 -141.563 118.508C-141.307 116.981 -139.935 115.966 -138.501 116.241C-133.166 117.26 -127.891 118.396 -122.825 119.617C-121.403 119.958 -120.513 121.462 -120.834 122.974C-121.111 124.277 -122.198 125.161 -123.404 125.161ZM-297.025 121.064C-298.301 121.064 -299.423 120.076 -299.627 118.693C-299.854 117.162 -298.871 115.725 -297.431 115.484C-292.223 114.612 -286.905 113.817 -281.625 113.121C-280.179 112.925 -278.861 114.023 -278.682 115.561C-278.502 117.099 -279.53 118.501 -280.975 118.692C-286.197 119.381 -291.459 120.168 -296.611 121.031C-296.75 121.053 -296.889 121.064 -297.025 121.064ZM-154.643 119.165C-154.764 119.165 -154.885 119.157 -155.008 119.139C-160.116 118.386 -165.386 117.717 -170.676 117.148C-172.125 116.991 -173.181 115.614 -173.035 114.073C-172.889 112.53 -171.598 111.408 -170.145 111.562C-164.793 112.138 -159.456 112.815 -154.285 113.578C-152.842 113.791 -151.834 115.209 -152.034 116.744C-152.216 118.148 -153.346 119.165 -154.643 119.165ZM-265.518 116.897C-266.865 116.897 -268.016 115.804 -268.142 114.347C-268.275 112.804 -267.209 111.436 -265.757 111.294C-260.491 110.777 -255.139 110.343 -249.847 110.002C-248.38 109.879 -247.143 111.086 -247.054 112.634C-246.966 114.181 -248.074 115.513 -249.527 115.606C-254.763 115.943 -260.06 116.373 -265.272 116.884C-265.355 116.892 -265.436 116.897 -265.518 116.897ZM-186.228 115.754C-186.286 115.754 -186.345 115.753 -186.406 115.748C-191.618 115.379 -196.923 115.097 -202.175 114.91C-203.631 114.859 -204.771 113.56 -204.724 112.012C-204.675 110.46 -203.437 109.209 -201.999 109.299C-196.69 109.488 -191.326 109.774 -186.057 110.147C-184.603 110.248 -183.503 111.586 -183.599 113.134C-183.691 114.616 -184.85 115.754 -186.228 115.754ZM-233.833 114.85C-235.253 114.85 -236.426 113.647 -236.468 112.125C-236.511 110.577 -235.365 109.282 -233.909 109.237C-228.887 109.079 -223.813 109 -218.833 109L-217.948 109.001C-216.491 109.008 -215.315 110.27 -215.322 111.821C-215.329 113.367 -216.508 114.616 -217.96 114.616C-217.964 114.616 -217.968 114.616 -217.972 114.616L-218.833 114.615C-223.763 114.615 -228.782 114.694 -233.754 114.849C-233.779 114.85 -233.806 114.85 -233.833 114.85ZM5.77988 937C4.50768 937 3.38829 936.02 3.17902 934.641C2.94761 933.11 3.92527 931.669 5.36244 931.421C7.99209 930.968 10.5941 930.52 13.1684 930.07C14.6067 929.821 15.963 930.857 16.1989 932.387C16.4347 933.916 15.4603 935.36 14.0231 935.611C11.4455 936.061 8.83806 936.511 6.20509 936.964C6.06115 936.988 5.91939 937 5.77988 937Z" fill="#51B8BF" fill-opacity="0.15"/>
</g>
<defs>
<clipPath id="clip0_805_681">
<rect width="1512" height="982" fill="white"/>
</clipPath>
</defs>
</svg>
