<svg width="12" height="12" viewBox="0 0 12 12" fill="none" xmlns="http://www.w3.org/2000/svg">
<path fill-rule="evenodd" clip-rule="evenodd" d="M3.95258 0.544985C4.06058 0.587485 4.15808 0.657485 4.24658 0.749985C4.39408 0.902985 4.51858 1.12198 4.61358 1.38148C4.70908 1.64248 4.77108 1.93148 4.79458 2.22148C5.10938 2.04339 5.45876 1.93494 5.81908 1.90348L5.84458 1.90148C6.27958 1.86648 6.70958 1.94498 7.08458 2.13848C7.13508 2.16498 7.18458 2.19348 7.23308 2.22348C7.25808 1.93898 7.31908 1.65648 7.41308 1.40148C7.50808 1.14148 7.63258 0.922985 7.77958 0.769485C7.86173 0.680617 7.96222 0.610669 8.07408 0.564485C8.20258 0.514485 8.33908 0.505485 8.47208 0.543485C8.67258 0.600485 8.84458 0.727485 8.98008 0.911985C9.10408 1.08048 9.19708 1.29648 9.26058 1.55548C9.37558 2.02248 9.39558 2.63698 9.31808 3.37798L9.34458 3.39798L9.35758 3.40748C9.73608 3.69548 9.99958 4.10598 10.1391 4.58248C10.3566 5.32598 10.2471 6.15998 9.87208 6.62648L9.86308 6.63698L9.86408 6.63848C10.0726 7.01948 10.1991 7.42198 10.2261 7.83848L10.2271 7.85348C10.2591 8.38598 10.1271 8.92198 9.82008 9.44848L9.81658 9.45348L9.82158 9.46548C10.0576 10.044 10.1316 10.6265 10.0406 11.2085L10.0376 11.228C10.0235 11.313 9.97624 11.389 9.90623 11.4392C9.83621 11.4894 9.74913 11.5099 9.66408 11.496C9.62196 11.4894 9.58156 11.4746 9.54518 11.4524C9.50881 11.4302 9.47717 11.401 9.45209 11.3665C9.42701 11.3321 9.40897 11.293 9.39902 11.2515C9.38906 11.2101 9.38738 11.1671 9.39408 11.125C9.47758 10.6085 9.39908 10.0905 9.15408 9.56349C9.13122 9.51453 9.12107 9.46059 9.12456 9.40667C9.12806 9.35275 9.14509 9.30058 9.17408 9.25498L9.17608 9.25198C9.47808 8.78998 9.60308 8.33698 9.57608 7.89198C9.55308 7.50248 9.41358 7.11998 9.17608 6.75548C9.12989 6.68462 9.11343 6.59843 9.13027 6.51554C9.14711 6.43264 9.1959 6.3597 9.26608 6.31248L9.27058 6.30948C9.39208 6.22998 9.50408 6.02698 9.56058 5.74948C9.62292 5.42135 9.60664 5.08312 9.51308 4.76248C9.41058 4.41248 9.22308 4.12048 8.96058 3.92098C8.66308 3.69398 8.26908 3.58448 7.77058 3.61598C7.70539 3.62022 7.64044 3.60481 7.5841 3.57174C7.52777 3.53867 7.48265 3.48947 7.45458 3.43048C7.29758 3.09798 7.06858 2.85998 6.78308 2.71248C6.50898 2.57568 6.20211 2.51819 5.89708 2.54648C5.27458 2.59598 4.72558 2.94698 4.56208 3.38948C4.53895 3.45176 4.49734 3.50549 4.44283 3.54347C4.38832 3.58144 4.32351 3.60186 4.25708 3.60198C3.72358 3.60298 3.31058 3.72798 3.00858 3.95348C2.74758 4.14848 2.56958 4.42098 2.47558 4.74748C2.39052 5.05481 2.37887 5.37783 2.44158 5.69048C2.49758 5.96948 2.60708 6.20048 2.73258 6.32498L2.73658 6.32848C2.84258 6.43198 2.86508 6.59348 2.79108 6.72098C2.61108 7.03198 2.47658 7.49548 2.45458 7.94098C2.42958 8.44998 2.54758 8.89198 2.81408 9.20898L2.82208 9.21848C2.8623 9.26535 2.88816 9.32281 2.89659 9.384C2.90501 9.44518 2.89563 9.50749 2.86958 9.56349C2.58158 10.1815 2.49308 10.6895 2.58858 11.0895C2.60574 11.1727 2.58977 11.2593 2.54406 11.3308C2.49835 11.4024 2.42651 11.4533 2.34383 11.4727C2.26115 11.4922 2.17416 11.4785 2.10137 11.4348C2.02857 11.391 1.97573 11.3206 1.95408 11.2385C1.83258 10.7295 1.91508 10.1465 2.19058 9.48948L2.19758 9.47198L2.19358 9.46598C2.05817 9.26598 1.95712 9.04477 1.89458 8.81148L1.89208 8.80198C1.81618 8.51093 1.78632 8.20978 1.80358 7.90948C1.82558 7.45448 1.94258 6.98848 2.11458 6.61448L2.12058 6.60148L2.11958 6.60048C1.97308 6.39148 1.86458 6.12398 1.80458 5.82798L1.80208 5.81598C1.71941 5.40311 1.73534 4.97655 1.84858 4.57098C1.97958 4.11348 2.23708 3.72048 2.61658 3.43648C2.64658 3.41398 2.67808 3.39148 2.70958 3.37048C2.63008 2.62398 2.65008 2.00548 2.76558 1.53548C2.82908 1.27648 2.92258 1.06048 3.04658 0.891985C3.18158 0.707985 3.35358 0.580985 3.55408 0.523485C3.68708 0.485485 3.82408 0.493985 3.95258 0.544485V0.544985ZM6.01058 5.08998C6.47858 5.08998 6.91058 5.24648 7.23358 5.51748C7.54858 5.78098 7.73608 6.13498 7.73608 6.48748C7.73608 6.93148 7.53308 7.27748 7.16958 7.49848C6.85958 7.68598 6.44408 7.77698 5.96808 7.77698C5.46358 7.77698 5.03258 7.64748 4.72158 7.40998C4.41308 7.17498 4.24008 6.84498 4.24008 6.48748C4.24008 6.13398 4.43908 5.77898 4.76808 5.51448C5.10208 5.24598 5.54308 5.08998 6.01058 5.08998ZM6.01058 5.53798C5.6637 5.53496 5.32601 5.64951 5.05258 5.86298C4.82208 6.04798 4.69158 6.28048 4.69158 6.48798C4.69158 6.70198 4.79658 6.90248 4.99658 7.05498C5.22408 7.22848 5.55858 7.32898 5.96808 7.32898C6.36758 7.32898 6.70458 7.25548 6.93408 7.11598C7.16558 6.97598 7.28408 6.77298 7.28408 6.48748C7.28408 6.27598 7.16108 6.04248 6.94258 5.85948C6.70058 5.65698 6.37258 5.53798 6.01058 5.53798ZM6.34158 6.14298L6.34358 6.14498C6.40358 6.22048 6.39108 6.32998 6.31558 6.38998L6.16958 6.50498V6.72798C6.16931 6.77763 6.14937 6.82514 6.11413 6.8601C6.07889 6.89506 6.03122 6.91462 5.98158 6.91448C5.93194 6.91462 5.88427 6.89506 5.84903 6.8601C5.81378 6.82514 5.79384 6.77763 5.79358 6.72798V6.49798L5.65808 6.38898C5.6402 6.37466 5.62534 6.35694 5.61435 6.33685C5.60336 6.31675 5.59646 6.29468 5.59404 6.2719C5.59162 6.24912 5.59374 6.22609 5.60027 6.20414C5.6068 6.18218 5.61761 6.16174 5.63208 6.14398C5.66159 6.10806 5.70409 6.08523 5.75034 6.08045C5.79658 6.07568 5.84285 6.08935 5.87908 6.11848L5.98658 6.20448L6.09658 6.11748C6.13268 6.08896 6.1785 6.07567 6.22426 6.08043C6.27003 6.08519 6.31212 6.10764 6.34158 6.14298ZM3.82158 5.18348C4.06058 5.18348 4.25508 5.37848 4.25508 5.61898C4.25521 5.73427 4.20958 5.84489 4.1282 5.92655C4.04682 6.0082 3.93636 6.05422 3.82108 6.05448C3.70597 6.05409 3.59571 6.00808 3.51446 5.92655C3.4332 5.84501 3.38758 5.73459 3.38758 5.61948C3.38731 5.5042 3.43282 5.39353 3.5141 5.31178C3.59539 5.23002 3.7063 5.18388 3.82158 5.18348ZM8.17458 5.18348C8.41458 5.18348 8.60858 5.37848 8.60858 5.61898C8.60871 5.73427 8.56308 5.84489 8.4817 5.92655C8.40032 6.0082 8.28986 6.05422 8.17458 6.05448C8.05947 6.05409 7.94921 6.00808 7.86796 5.92655C7.7867 5.84501 7.74108 5.73459 7.74108 5.61948C7.74081 5.5042 7.78632 5.39353 7.8676 5.31178C7.94889 5.23002 8.0593 5.18388 8.17458 5.18348ZM3.72008 1.14998L3.71858 1.15098C3.66065 1.17617 3.61119 1.21748 3.57608 1.26998L3.57358 1.27298C3.50458 1.36748 3.44458 1.50648 3.39958 1.68898C3.31458 2.03498 3.29158 2.50448 3.33758 3.07998C3.55258 3.01598 3.78708 2.97598 4.03958 2.96148L4.04458 2.96098L4.05408 2.94398C4.07708 2.90298 4.10158 2.86348 4.12808 2.82448C4.18958 2.43898 4.13908 1.97848 4.00158 1.60248C3.93458 1.42048 3.85308 1.27748 3.77508 1.19598C3.75898 1.17904 3.74103 1.16395 3.72158 1.15098L3.72008 1.14998ZM8.30708 1.16998L8.30608 1.17048C8.28663 1.18345 8.26868 1.19854 8.25258 1.21548C8.17458 1.29698 8.09258 1.44048 8.02608 1.62248C7.88108 2.01948 7.83258 2.51048 7.91108 2.90848L7.94008 2.95698L7.94408 2.96398H7.95908C8.20723 2.96405 8.45408 2.99975 8.69208 3.06998C8.73508 2.50798 8.71108 2.04848 8.62808 1.70898C8.58308 1.52648 8.52308 1.38748 8.45358 1.29298L8.45158 1.28998C8.41654 1.23729 8.36707 1.19581 8.30908 1.17048H8.30708V1.16998Z" fill="#384B4B"/>
</svg>
