<svg width="80" height="80" viewBox="0 0 80 80" fill="none" xmlns="http://www.w3.org/2000/svg">
<path d="M47.679 24.6465L55.5784 32.5469L55.9319 32.9004L11.9163 76.916C11.4895 77.3478 10.9807 77.6905 10.4202 77.9238C9.85888 78.1574 9.25665 78.2772 8.64868 78.2754H8.64771C8.03623 78.2725 7.43129 78.1464 6.86938 77.9053C6.31251 77.6662 5.80895 77.3185 5.38794 76.8828L3.31372 74.8574L3.30884 74.8535C2.87887 74.424 2.53769 73.9139 2.30493 73.3525C2.07214 72.791 1.95239 72.1889 1.95239 71.5811C1.95242 70.9732 2.07214 70.371 2.30493 69.8096C2.53772 69.2482 2.87884 68.7381 3.30884 68.3086L46.9719 24.6465L47.3254 24.293L47.679 24.6465ZM5.35376 70.3535C5.02688 70.6835 4.84302 71.1292 4.84302 71.5938C4.84302 72.0578 5.02651 72.5031 5.35278 72.833L7.42798 74.8955L7.43188 74.8994C7.59245 75.0629 7.78405 75.1926 7.99536 75.2812C8.20663 75.3699 8.43325 75.416 8.66235 75.416C8.89151 75.416 9.119 75.3699 9.33032 75.2812C9.54138 75.1926 9.73242 75.0627 9.89282 74.8994L9.89673 74.8965L51.8674 32.9365L47.3245 28.3936L5.35376 70.3535Z" fill="#9A99EA" stroke="#9A99EA"/>
<mask id="path-2-outside-1_1490_732" maskUnits="userSpaceOnUse" x="33.0499" y="0.563232" width="47" height="36" fill="black">
<rect fill="white" x="33.0499" y="0.563232" width="47" height="36"/>
<path d="M53.8875 34.2499L45.9875 26.3499L55.8875 16.4374C56.6805 15.6802 57.7348 15.2576 58.8312 15.2576C59.9277 15.2576 60.982 15.6802 61.775 16.4374L63.75 18.4499C64.5248 19.2338 64.9593 20.2915 64.9593 21.3937C64.9593 22.4958 64.5248 23.5535 63.75 24.3374L53.8875 34.2499ZM48.6375 26.3499L53.8875 31.5999L62.5 23.0124C62.9267 22.5817 63.1661 21.9999 63.1661 21.3937C63.1661 20.7874 62.9267 20.2056 62.5 19.7749L60.475 17.7624C60.0403 17.3482 59.4629 17.1172 58.8625 17.1172C58.2621 17.1172 57.6847 17.3482 57.25 17.7624L48.6375 26.3499ZM48.8125 17.2624C48.5639 17.2622 48.3256 17.1633 48.15 16.9874C47.3293 16.1665 46.3549 15.5153 45.2826 15.071C44.2102 14.6267 43.0608 14.398 41.9 14.398C40.7392 14.398 39.5898 14.6267 38.5174 15.071C37.445 15.5153 36.4707 16.1665 35.65 16.9874C35.4742 17.163 35.2359 17.2616 34.9875 17.2616C34.739 17.2616 34.5008 17.163 34.325 16.9874C34.2373 16.9009 34.1679 16.7977 34.1206 16.6839C34.0734 16.5701 34.0494 16.4481 34.05 16.3249C34.0487 16.2016 34.0724 16.0794 34.1197 15.9655C34.1669 15.8516 34.2368 15.7485 34.325 15.6624C35.1459 14.8417 35.7971 13.8674 36.2414 12.795C36.6857 11.7226 36.9144 10.5732 36.9144 9.41241C36.9144 8.25163 36.6857 7.10222 36.2414 6.02983C35.7971 4.95744 35.1459 3.98308 34.325 3.16241C34.1494 2.98663 34.0508 2.74835 34.0508 2.49991C34.0508 2.25147 34.1494 2.01319 34.325 1.83741C34.5008 1.66184 34.739 1.56323 34.9875 1.56323C35.2359 1.56323 35.4742 1.66184 35.65 1.83741C36.4707 2.65833 37.445 3.30953 38.5174 3.75383C39.5898 4.19812 40.7392 4.4268 41.9 4.4268C43.0608 4.4268 44.2102 4.19812 45.2826 3.75383C46.3549 3.30953 47.3293 2.65833 48.15 1.83741C48.3258 1.66184 48.564 1.56323 48.8125 1.56323C49.0609 1.56323 49.2992 1.66184 49.475 1.83741C49.6464 2.01596 49.7446 2.25241 49.75 2.49991C49.7446 2.7474 49.6464 2.98385 49.475 3.16241C48.6541 3.98308 48.0029 4.95744 47.5586 6.02983C47.1143 7.10222 46.8856 8.25163 46.8856 9.41241C46.8856 10.5732 47.1143 11.7226 47.5586 12.795C48.0029 13.8674 48.6541 14.8417 49.475 15.6624C49.6486 15.8396 49.7471 16.0769 49.75 16.3249C49.75 16.5735 49.6512 16.812 49.4754 16.9878C49.2996 17.1636 49.0611 17.2624 48.8125 17.2624ZM38.0875 5.59991C39.0203 8.05598 39.0203 10.7688 38.0875 13.2249C40.5407 12.2998 43.2468 12.2998 45.7 13.2249C44.7831 10.7659 44.7831 8.05889 45.7 5.59991C43.2468 6.52498 40.5407 6.52498 38.0875 5.59991ZM75.1875 15.9124C74.9412 15.9129 74.7041 15.8189 74.525 15.6499C73.9165 15.0399 73.1937 14.5559 72.3979 14.2257C71.6022 13.8955 70.7491 13.7255 69.8875 13.7255C69.0259 13.7255 68.1728 13.8955 67.377 14.2257C66.5812 14.5559 65.8584 15.0399 65.25 15.6499C65.0742 15.8255 64.8359 15.9241 64.5875 15.9241C64.339 15.9241 64.1008 15.8255 63.925 15.6499C63.7486 15.472 63.6497 15.2316 63.6497 14.9812C63.6497 14.7307 63.7486 14.4903 63.925 14.3124C64.535 13.704 65.019 12.9812 65.3492 12.1854C65.6794 11.3896 65.8494 10.5365 65.8494 9.67491C65.8494 8.81333 65.6794 7.96022 65.3492 7.16444C65.019 6.36866 64.535 5.64585 63.925 5.03741C63.7491 4.86176 63.6502 4.62346 63.65 4.37491C63.6644 4.1405 63.7619 3.91891 63.925 3.74991C64.1008 3.57434 64.339 3.47573 64.5875 3.47573C64.8359 3.47573 65.0742 3.57434 65.25 3.74991C65.8584 4.35992 66.5812 4.84389 67.377 5.17411C68.1728 5.50434 69.0259 5.67432 69.8875 5.67432C70.7491 5.67432 71.6022 5.50434 72.3979 5.17411C73.1937 4.84389 73.9165 4.35992 74.525 3.74991C74.7044 3.57654 74.9442 3.47964 75.1937 3.47964C75.4432 3.47964 75.683 3.57654 75.8625 3.74991C76.038 3.92569 76.1367 4.16397 76.1367 4.41241C76.1367 4.66085 76.038 4.89913 75.8625 5.07491C75.2525 5.68335 74.7685 6.40616 74.4383 7.20194C74.108 7.99772 73.9381 8.85083 73.9381 9.71241C73.9381 10.574 74.108 11.4271 74.4383 12.2229C74.7685 13.0187 75.2525 13.7415 75.8625 14.3499C76.0358 14.5294 76.1327 14.7691 76.1327 15.0187C76.1327 15.2682 76.0358 15.508 75.8625 15.6874C75.6739 15.8448 75.4328 15.9251 75.1875 15.9124ZM69.8875 11.8499C70.7737 11.8476 71.655 11.9826 72.5 12.2499C71.9749 10.5777 71.9749 8.78466 72.5 7.11241C70.8277 7.63747 69.0347 7.63747 67.3625 7.11241C67.8957 8.7834 67.8957 10.5789 67.3625 12.2499C68.1794 11.991 69.0305 11.8561 69.8875 11.8499ZM68.1125 35.2999C67.8638 35.2999 67.6254 35.2011 67.4496 35.0253C67.2738 34.8495 67.175 34.611 67.175 34.3624C67.1985 34.1234 67.3153 33.9034 67.5 33.7499C68.5373 32.7095 69.1199 31.3003 69.1199 29.8312C69.1199 28.362 68.5373 26.9528 67.5 25.9124C67.4118 25.8263 67.3419 25.7232 67.2947 25.6093C67.2474 25.4954 67.2237 25.3732 67.225 25.2499C67.2244 25.1267 67.2484 25.0047 67.2956 24.8909C67.3429 24.7772 67.4123 24.674 67.5 24.5874C67.6758 24.4118 67.914 24.3132 68.1625 24.3132C68.4109 24.3132 68.6492 24.4118 68.825 24.5874C69.8653 25.6248 71.2746 26.2073 72.7437 26.2073C74.2129 26.2073 75.6221 25.6248 76.6625 24.5874C76.8383 24.4118 77.0765 24.3132 77.325 24.3132C77.5734 24.3132 77.8117 24.4118 77.9875 24.5874C78.1589 24.766 78.2571 25.0024 78.2625 25.2499C78.2596 25.4979 78.1611 25.7353 77.9875 25.9124C77.4723 26.4267 77.0636 27.0376 76.7848 27.71C76.506 28.3824 76.3624 29.1032 76.3624 29.8312C76.3624 30.5591 76.506 31.2799 76.7848 31.9523C77.0636 32.6247 77.4723 33.2356 77.9875 33.7499C78.1611 33.9271 78.2596 34.1644 78.2625 34.4124C78.2571 34.6599 78.1589 34.8964 77.9875 35.0749C77.8117 35.2505 77.5734 35.3491 77.325 35.3491C77.0765 35.3491 76.8383 35.2505 76.6625 35.0749C76.151 34.545 75.5391 34.1222 74.8626 33.8312C74.1861 33.5401 73.4584 33.3867 72.7219 33.3797C71.9855 33.3727 71.255 33.5124 70.5731 33.7905C69.8912 34.0687 69.2714 34.4798 68.75 34.9999C68.5854 35.1801 68.3562 35.2879 68.1125 35.2999ZM70.6125 27.7999C70.9862 29.1283 70.9862 30.534 70.6125 31.8624C71.9364 31.4871 73.3386 31.4871 74.6625 31.8624C74.2957 30.5331 74.2957 29.1292 74.6625 27.7999C73.3497 28.1495 71.9661 28.1322 70.6625 27.7499L70.6125 27.7999Z"/>
</mask>
<path d="M53.8875 34.2499L45.9875 26.3499L55.8875 16.4374C56.6805 15.6802 57.7348 15.2576 58.8312 15.2576C59.9277 15.2576 60.982 15.6802 61.775 16.4374L63.75 18.4499C64.5248 19.2338 64.9593 20.2915 64.9593 21.3937C64.9593 22.4958 64.5248 23.5535 63.75 24.3374L53.8875 34.2499ZM48.6375 26.3499L53.8875 31.5999L62.5 23.0124C62.9267 22.5817 63.1661 21.9999 63.1661 21.3937C63.1661 20.7874 62.9267 20.2056 62.5 19.7749L60.475 17.7624C60.0403 17.3482 59.4629 17.1172 58.8625 17.1172C58.2621 17.1172 57.6847 17.3482 57.25 17.7624L48.6375 26.3499ZM48.8125 17.2624C48.5639 17.2622 48.3256 17.1633 48.15 16.9874C47.3293 16.1665 46.3549 15.5153 45.2826 15.071C44.2102 14.6267 43.0608 14.398 41.9 14.398C40.7392 14.398 39.5898 14.6267 38.5174 15.071C37.445 15.5153 36.4707 16.1665 35.65 16.9874C35.4742 17.163 35.2359 17.2616 34.9875 17.2616C34.739 17.2616 34.5008 17.163 34.325 16.9874C34.2373 16.9009 34.1679 16.7977 34.1206 16.6839C34.0734 16.5701 34.0494 16.4481 34.05 16.3249C34.0487 16.2016 34.0724 16.0794 34.1197 15.9655C34.1669 15.8516 34.2368 15.7485 34.325 15.6624C35.1459 14.8417 35.7971 13.8674 36.2414 12.795C36.6857 11.7226 36.9144 10.5732 36.9144 9.41241C36.9144 8.25163 36.6857 7.10222 36.2414 6.02983C35.7971 4.95744 35.1459 3.98308 34.325 3.16241C34.1494 2.98663 34.0508 2.74835 34.0508 2.49991C34.0508 2.25147 34.1494 2.01319 34.325 1.83741C34.5008 1.66184 34.739 1.56323 34.9875 1.56323C35.2359 1.56323 35.4742 1.66184 35.65 1.83741C36.4707 2.65833 37.445 3.30953 38.5174 3.75383C39.5898 4.19812 40.7392 4.4268 41.9 4.4268C43.0608 4.4268 44.2102 4.19812 45.2826 3.75383C46.3549 3.30953 47.3293 2.65833 48.15 1.83741C48.3258 1.66184 48.564 1.56323 48.8125 1.56323C49.0609 1.56323 49.2992 1.66184 49.475 1.83741C49.6464 2.01596 49.7446 2.25241 49.75 2.49991C49.7446 2.7474 49.6464 2.98385 49.475 3.16241C48.6541 3.98308 48.0029 4.95744 47.5586 6.02983C47.1143 7.10222 46.8856 8.25163 46.8856 9.41241C46.8856 10.5732 47.1143 11.7226 47.5586 12.795C48.0029 13.8674 48.6541 14.8417 49.475 15.6624C49.6486 15.8396 49.7471 16.0769 49.75 16.3249C49.75 16.5735 49.6512 16.812 49.4754 16.9878C49.2996 17.1636 49.0611 17.2624 48.8125 17.2624ZM38.0875 5.59991C39.0203 8.05598 39.0203 10.7688 38.0875 13.2249C40.5407 12.2998 43.2468 12.2998 45.7 13.2249C44.7831 10.7659 44.7831 8.05889 45.7 5.59991C43.2468 6.52498 40.5407 6.52498 38.0875 5.59991ZM75.1875 15.9124C74.9412 15.9129 74.7041 15.8189 74.525 15.6499C73.9165 15.0399 73.1937 14.5559 72.3979 14.2257C71.6022 13.8955 70.7491 13.7255 69.8875 13.7255C69.0259 13.7255 68.1728 13.8955 67.377 14.2257C66.5812 14.5559 65.8584 15.0399 65.25 15.6499C65.0742 15.8255 64.8359 15.9241 64.5875 15.9241C64.339 15.9241 64.1008 15.8255 63.925 15.6499C63.7486 15.472 63.6497 15.2316 63.6497 14.9812C63.6497 14.7307 63.7486 14.4903 63.925 14.3124C64.535 13.704 65.019 12.9812 65.3492 12.1854C65.6794 11.3896 65.8494 10.5365 65.8494 9.67491C65.8494 8.81333 65.6794 7.96022 65.3492 7.16444C65.019 6.36866 64.535 5.64585 63.925 5.03741C63.7491 4.86176 63.6502 4.62346 63.65 4.37491C63.6644 4.1405 63.7619 3.91891 63.925 3.74991C64.1008 3.57434 64.339 3.47573 64.5875 3.47573C64.8359 3.47573 65.0742 3.57434 65.25 3.74991C65.8584 4.35992 66.5812 4.84389 67.377 5.17411C68.1728 5.50434 69.0259 5.67432 69.8875 5.67432C70.7491 5.67432 71.6022 5.50434 72.3979 5.17411C73.1937 4.84389 73.9165 4.35992 74.525 3.74991C74.7044 3.57654 74.9442 3.47964 75.1937 3.47964C75.4432 3.47964 75.683 3.57654 75.8625 3.74991C76.038 3.92569 76.1367 4.16397 76.1367 4.41241C76.1367 4.66085 76.038 4.89913 75.8625 5.07491C75.2525 5.68335 74.7685 6.40616 74.4383 7.20194C74.108 7.99772 73.9381 8.85083 73.9381 9.71241C73.9381 10.574 74.108 11.4271 74.4383 12.2229C74.7685 13.0187 75.2525 13.7415 75.8625 14.3499C76.0358 14.5294 76.1327 14.7691 76.1327 15.0187C76.1327 15.2682 76.0358 15.508 75.8625 15.6874C75.6739 15.8448 75.4328 15.9251 75.1875 15.9124ZM69.8875 11.8499C70.7737 11.8476 71.655 11.9826 72.5 12.2499C71.9749 10.5777 71.9749 8.78466 72.5 7.11241C70.8277 7.63747 69.0347 7.63747 67.3625 7.11241C67.8957 8.7834 67.8957 10.5789 67.3625 12.2499C68.1794 11.991 69.0305 11.8561 69.8875 11.8499ZM68.1125 35.2999C67.8638 35.2999 67.6254 35.2011 67.4496 35.0253C67.2738 34.8495 67.175 34.611 67.175 34.3624C67.1985 34.1234 67.3153 33.9034 67.5 33.7499C68.5373 32.7095 69.1199 31.3003 69.1199 29.8312C69.1199 28.362 68.5373 26.9528 67.5 25.9124C67.4118 25.8263 67.3419 25.7232 67.2947 25.6093C67.2474 25.4954 67.2237 25.3732 67.225 25.2499C67.2244 25.1267 67.2484 25.0047 67.2956 24.8909C67.3429 24.7772 67.4123 24.674 67.5 24.5874C67.6758 24.4118 67.914 24.3132 68.1625 24.3132C68.4109 24.3132 68.6492 24.4118 68.825 24.5874C69.8653 25.6248 71.2746 26.2073 72.7437 26.2073C74.2129 26.2073 75.6221 25.6248 76.6625 24.5874C76.8383 24.4118 77.0765 24.3132 77.325 24.3132C77.5734 24.3132 77.8117 24.4118 77.9875 24.5874C78.1589 24.766 78.2571 25.0024 78.2625 25.2499C78.2596 25.4979 78.1611 25.7353 77.9875 25.9124C77.4723 26.4267 77.0636 27.0376 76.7848 27.71C76.506 28.3824 76.3624 29.1032 76.3624 29.8312C76.3624 30.5591 76.506 31.2799 76.7848 31.9523C77.0636 32.6247 77.4723 33.2356 77.9875 33.7499C78.1611 33.9271 78.2596 34.1644 78.2625 34.4124C78.2571 34.6599 78.1589 34.8964 77.9875 35.0749C77.8117 35.2505 77.5734 35.3491 77.325 35.3491C77.0765 35.3491 76.8383 35.2505 76.6625 35.0749C76.151 34.545 75.5391 34.1222 74.8626 33.8312C74.1861 33.5401 73.4584 33.3867 72.7219 33.3797C71.9855 33.3727 71.255 33.5124 70.5731 33.7905C69.8912 34.0687 69.2714 34.4798 68.75 34.9999C68.5854 35.1801 68.3562 35.2879 68.1125 35.2999ZM70.6125 27.7999C70.9862 29.1283 70.9862 30.534 70.6125 31.8624C71.9364 31.4871 73.3386 31.4871 74.6625 31.8624C74.2957 30.5331 74.2957 29.1292 74.6625 27.7999C73.3497 28.1495 71.9661 28.1322 70.6625 27.7499L70.6125 27.7999Z" fill="#9A99EA"/>
<path d="M53.8875 34.2499L45.9875 26.3499L55.8875 16.4374C56.6805 15.6802 57.7348 15.2576 58.8312 15.2576C59.9277 15.2576 60.982 15.6802 61.775 16.4374L63.75 18.4499C64.5248 19.2338 64.9593 20.2915 64.9593 21.3937C64.9593 22.4958 64.5248 23.5535 63.75 24.3374L53.8875 34.2499ZM48.6375 26.3499L53.8875 31.5999L62.5 23.0124C62.9267 22.5817 63.1661 21.9999 63.1661 21.3937C63.1661 20.7874 62.9267 20.2056 62.5 19.7749L60.475 17.7624C60.0403 17.3482 59.4629 17.1172 58.8625 17.1172C58.2621 17.1172 57.6847 17.3482 57.25 17.7624L48.6375 26.3499ZM48.8125 17.2624C48.5639 17.2622 48.3256 17.1633 48.15 16.9874C47.3293 16.1665 46.3549 15.5153 45.2826 15.071C44.2102 14.6267 43.0608 14.398 41.9 14.398C40.7392 14.398 39.5898 14.6267 38.5174 15.071C37.445 15.5153 36.4707 16.1665 35.65 16.9874C35.4742 17.163 35.2359 17.2616 34.9875 17.2616C34.739 17.2616 34.5008 17.163 34.325 16.9874C34.2373 16.9009 34.1679 16.7977 34.1206 16.6839C34.0734 16.5701 34.0494 16.4481 34.05 16.3249C34.0487 16.2016 34.0724 16.0794 34.1197 15.9655C34.1669 15.8516 34.2368 15.7485 34.325 15.6624C35.1459 14.8417 35.7971 13.8674 36.2414 12.795C36.6857 11.7226 36.9144 10.5732 36.9144 9.41241C36.9144 8.25163 36.6857 7.10222 36.2414 6.02983C35.7971 4.95744 35.1459 3.98308 34.325 3.16241C34.1494 2.98663 34.0508 2.74835 34.0508 2.49991C34.0508 2.25147 34.1494 2.01319 34.325 1.83741C34.5008 1.66184 34.739 1.56323 34.9875 1.56323C35.2359 1.56323 35.4742 1.66184 35.65 1.83741C36.4707 2.65833 37.445 3.30953 38.5174 3.75383C39.5898 4.19812 40.7392 4.4268 41.9 4.4268C43.0608 4.4268 44.2102 4.19812 45.2826 3.75383C46.3549 3.30953 47.3293 2.65833 48.15 1.83741C48.3258 1.66184 48.564 1.56323 48.8125 1.56323C49.0609 1.56323 49.2992 1.66184 49.475 1.83741C49.6464 2.01596 49.7446 2.25241 49.75 2.49991C49.7446 2.7474 49.6464 2.98385 49.475 3.16241C48.6541 3.98308 48.0029 4.95744 47.5586 6.02983C47.1143 7.10222 46.8856 8.25163 46.8856 9.41241C46.8856 10.5732 47.1143 11.7226 47.5586 12.795C48.0029 13.8674 48.6541 14.8417 49.475 15.6624C49.6486 15.8396 49.7471 16.0769 49.75 16.3249C49.75 16.5735 49.6512 16.812 49.4754 16.9878C49.2996 17.1636 49.0611 17.2624 48.8125 17.2624ZM38.0875 5.59991C39.0203 8.05598 39.0203 10.7688 38.0875 13.2249C40.5407 12.2998 43.2468 12.2998 45.7 13.2249C44.7831 10.7659 44.7831 8.05889 45.7 5.59991C43.2468 6.52498 40.5407 6.52498 38.0875 5.59991ZM75.1875 15.9124C74.9412 15.9129 74.7041 15.8189 74.525 15.6499C73.9165 15.0399 73.1937 14.5559 72.3979 14.2257C71.6022 13.8955 70.7491 13.7255 69.8875 13.7255C69.0259 13.7255 68.1728 13.8955 67.377 14.2257C66.5812 14.5559 65.8584 15.0399 65.25 15.6499C65.0742 15.8255 64.8359 15.9241 64.5875 15.9241C64.339 15.9241 64.1008 15.8255 63.925 15.6499C63.7486 15.472 63.6497 15.2316 63.6497 14.9812C63.6497 14.7307 63.7486 14.4903 63.925 14.3124C64.535 13.704 65.019 12.9812 65.3492 12.1854C65.6794 11.3896 65.8494 10.5365 65.8494 9.67491C65.8494 8.81333 65.6794 7.96022 65.3492 7.16444C65.019 6.36866 64.535 5.64585 63.925 5.03741C63.7491 4.86176 63.6502 4.62346 63.65 4.37491C63.6644 4.1405 63.7619 3.91891 63.925 3.74991C64.1008 3.57434 64.339 3.47573 64.5875 3.47573C64.8359 3.47573 65.0742 3.57434 65.25 3.74991C65.8584 4.35992 66.5812 4.84389 67.377 5.17411C68.1728 5.50434 69.0259 5.67432 69.8875 5.67432C70.7491 5.67432 71.6022 5.50434 72.3979 5.17411C73.1937 4.84389 73.9165 4.35992 74.525 3.74991C74.7044 3.57654 74.9442 3.47964 75.1937 3.47964C75.4432 3.47964 75.683 3.57654 75.8625 3.74991C76.038 3.92569 76.1367 4.16397 76.1367 4.41241C76.1367 4.66085 76.038 4.89913 75.8625 5.07491C75.2525 5.68335 74.7685 6.40616 74.4383 7.20194C74.108 7.99772 73.9381 8.85083 73.9381 9.71241C73.9381 10.574 74.108 11.4271 74.4383 12.2229C74.7685 13.0187 75.2525 13.7415 75.8625 14.3499C76.0358 14.5294 76.1327 14.7691 76.1327 15.0187C76.1327 15.2682 76.0358 15.508 75.8625 15.6874C75.6739 15.8448 75.4328 15.9251 75.1875 15.9124ZM69.8875 11.8499C70.7737 11.8476 71.655 11.9826 72.5 12.2499C71.9749 10.5777 71.9749 8.78466 72.5 7.11241C70.8277 7.63747 69.0347 7.63747 67.3625 7.11241C67.8957 8.7834 67.8957 10.5789 67.3625 12.2499C68.1794 11.991 69.0305 11.8561 69.8875 11.8499ZM68.1125 35.2999C67.8638 35.2999 67.6254 35.2011 67.4496 35.0253C67.2738 34.8495 67.175 34.611 67.175 34.3624C67.1985 34.1234 67.3153 33.9034 67.5 33.7499C68.5373 32.7095 69.1199 31.3003 69.1199 29.8312C69.1199 28.362 68.5373 26.9528 67.5 25.9124C67.4118 25.8263 67.3419 25.7232 67.2947 25.6093C67.2474 25.4954 67.2237 25.3732 67.225 25.2499C67.2244 25.1267 67.2484 25.0047 67.2956 24.8909C67.3429 24.7772 67.4123 24.674 67.5 24.5874C67.6758 24.4118 67.914 24.3132 68.1625 24.3132C68.4109 24.3132 68.6492 24.4118 68.825 24.5874C69.8653 25.6248 71.2746 26.2073 72.7437 26.2073C74.2129 26.2073 75.6221 25.6248 76.6625 24.5874C76.8383 24.4118 77.0765 24.3132 77.325 24.3132C77.5734 24.3132 77.8117 24.4118 77.9875 24.5874C78.1589 24.766 78.2571 25.0024 78.2625 25.2499C78.2596 25.4979 78.1611 25.7353 77.9875 25.9124C77.4723 26.4267 77.0636 27.0376 76.7848 27.71C76.506 28.3824 76.3624 29.1032 76.3624 29.8312C76.3624 30.5591 76.506 31.2799 76.7848 31.9523C77.0636 32.6247 77.4723 33.2356 77.9875 33.7499C78.1611 33.9271 78.2596 34.1644 78.2625 34.4124C78.2571 34.6599 78.1589 34.8964 77.9875 35.0749C77.8117 35.2505 77.5734 35.3491 77.325 35.3491C77.0765 35.3491 76.8383 35.2505 76.6625 35.0749C76.151 34.545 75.5391 34.1222 74.8626 33.8312C74.1861 33.5401 73.4584 33.3867 72.7219 33.3797C71.9855 33.3727 71.255 33.5124 70.5731 33.7905C69.8912 34.0687 69.2714 34.4798 68.75 34.9999C68.5854 35.1801 68.3562 35.2879 68.1125 35.2999ZM70.6125 27.7999C70.9862 29.1283 70.9862 30.534 70.6125 31.8624C71.9364 31.4871 73.3386 31.4871 74.6625 31.8624C74.2957 30.5331 74.2957 29.1292 74.6625 27.7999C73.3497 28.1495 71.9661 28.1322 70.6625 27.7499L70.6125 27.7999Z" stroke="#9A99EA" stroke-width="2" mask="url(#path-2-outside-1_1490_732)"/>
</svg>
