<svg width="64" height="64" viewBox="0 0 64 64" fill="none" xmlns="http://www.w3.org/2000/svg">
<path d="M42.68 22.39C42.07 22.3375 41.4557 22.4137 40.8769 22.6135C40.2981 22.8133 39.7677 23.1323 39.32 23.55L38.1 24.69C37.8206 24.9497 37.4604 25.1054 37.0798 25.1308C36.6993 25.1563 36.3215 25.0501 36.01 24.83C35.6607 24.5835 35.4214 24.2105 35.343 23.7903C35.2646 23.3701 35.3532 22.9359 35.59 22.58L38.56 18.07C38.9268 17.5131 39.1639 16.8811 39.2539 16.2204C39.344 15.5597 39.2846 14.8872 39.0803 14.2525C38.8759 13.6178 38.5317 13.0371 38.0731 12.5531C37.6144 12.0691 37.0531 11.6941 36.4303 11.4559C35.8075 11.2177 35.1392 11.1222 34.4746 11.1765C33.8101 11.2309 33.1662 11.4337 32.5904 11.7699C32.0146 12.1062 31.5216 12.5674 31.1477 13.1195C30.7738 13.6716 30.5285 14.3005 30.43 14.96L30.03 17.68C29.9727 18.028 29.8084 18.3496 29.56 18.6L29.07 19.09C28.8305 19.3277 28.5246 19.4873 28.1927 19.548C27.8607 19.6087 27.5181 19.5675 27.21 19.43L25.04 18.42C24.2176 18.0419 23.2898 17.9601 22.4139 18.1883C21.538 18.4164 20.768 18.9406 20.2346 19.6718C19.7012 20.4031 19.4372 21.2963 19.4874 22.2001C19.5376 23.1038 19.8989 23.9623 20.51 24.63L21.68 25.89C21.9597 26.1939 22.115 26.5919 22.115 27.005C22.115 27.4181 21.9597 27.816 21.68 28.12L21.49 28.33C21.338 28.5011 21.1517 28.6385 20.9433 28.7333C20.7349 28.828 20.5089 28.878 20.28 28.88C19.8207 28.8741 19.3823 28.6872 19.06 28.36L15.7 24.78C15.2644 24.3166 14.7335 23.9532 14.1439 23.7148C13.5543 23.4764 12.92 23.3687 12.2848 23.3991C11.6496 23.4294 11.0284 23.5972 10.4643 23.8908C9.90014 24.1844 9.40636 24.5968 9.01698 25.0996C8.62759 25.6025 8.35187 26.1837 8.20881 26.8034C8.06576 27.4231 8.05877 28.0664 8.18833 28.689C8.31789 29.3117 8.58092 29.8988 8.95929 30.41C9.33765 30.9212 9.82236 31.3442 10.38 31.65L14.88 34.12C15.0834 34.2337 15.2606 34.3888 15.4002 34.5753C15.5399 34.7618 15.6388 34.9756 15.6907 35.2027C15.7425 35.4299 15.7461 35.6654 15.7012 35.894C15.6563 36.1226 15.5639 36.3393 15.43 36.53L13.37 39.42C12.5433 40.5805 12.0525 41.9465 11.9514 43.3677C11.8503 44.789 12.1429 46.2107 12.797 47.4765C13.4511 48.7424 14.4415 49.8035 15.6593 50.5433C16.877 51.283 18.2751 51.6729 19.7 51.67C19.9705 51.6716 20.2409 51.6583 20.51 51.63C21.5695 51.518 22.5946 51.1895 23.5218 50.6648C24.449 50.1402 25.2585 49.4305 25.9 48.58L29.37 43.96C29.6279 43.6199 29.9574 43.3407 30.3351 43.1419C30.7128 42.9432 31.1296 42.8298 31.5559 42.8097C31.9822 42.7897 32.4078 42.8635 32.8025 43.026C33.1971 43.1885 33.5513 43.4356 33.84 43.75L36 46.13C37.0493 47.2807 38.5012 47.9834 40.0546 48.0925C41.6081 48.2016 43.1439 47.7086 44.3437 46.7159C45.5435 45.7231 46.3152 44.3067 46.4988 42.7603C46.6825 41.2139 46.2639 39.6561 45.33 38.41L42.26 34.33C42.1288 34.1584 42.033 33.9625 41.978 33.7537C41.9231 33.5448 41.9101 33.3271 41.9399 33.1132C41.9697 32.8993 42.0416 32.6934 42.1514 32.5075C42.2613 32.3215 42.407 32.1592 42.58 32.03L44.95 30.23C45.6547 29.6961 46.1809 28.9611 46.4593 28.122C46.7376 27.2829 46.755 26.3791 46.5091 25.5299C46.2632 24.6807 45.7657 23.9261 45.082 23.3655C44.3984 22.8049 43.5609 22.4648 42.68 22.39ZM13.59 16.21C15.59 14.53 15.34 11.06 13.03 8.30998C12.0516 7.10758 10.7402 6.22055 9.26 5.75998C8.79184 5.62455 8.30734 5.5539 7.82 5.54998C6.91714 5.53112 6.03736 5.83621 5.34 6.40998C3.34 8.08998 3.59 11.56 5.9 14.3C6.51777 15.1072 7.30177 15.7723 8.19892 16.2502C9.09606 16.7281 10.0854 17.0077 11.1 17.07C12.0056 17.0869 12.8879 16.7822 13.59 16.21ZM22.56 14.05C24.52 14.05 26.06 12 26.06 9.38998C26.06 6.76998 24.52 4.72998 22.56 4.72998C20.59 4.72998 19.05 6.76998 19.05 9.38998C19.05 12 20.59 14.05 22.56 14.05ZM42.61 52.4C40.35 51.1 37.81 51.41 36.83 53.11C36.5833 53.5715 36.4542 54.0867 36.4542 54.61C36.4542 55.1333 36.5833 55.6485 36.83 56.11C37.3408 57.1042 38.134 57.9253 39.11 58.47C39.9718 58.9772 40.9502 59.2528 41.95 59.27C42.07 59.27 42.18 59.27 42.29 59.26C42.8184 59.2645 43.3385 59.1288 43.7972 58.8666C44.256 58.6044 44.637 58.2252 44.9013 57.7677C45.1657 57.3102 45.3039 56.7907 45.3019 56.2623C45.2999 55.7339 45.1578 55.2155 44.89 54.76C44.3793 53.7658 43.586 52.9447 42.61 52.4ZM57.34 37.67C55.08 36.37 52.54 36.68 51.55 38.38C51.3074 38.8431 51.1814 39.3584 51.1832 39.8812C51.1849 40.404 51.3143 40.9185 51.56 41.38C52.0708 42.3742 52.864 43.1953 53.84 43.74C54.7018 44.2472 55.6802 44.5228 56.68 44.54C56.79 44.54 56.91 44.54 57.02 44.53C57.5437 44.514 58.0555 44.3698 58.5106 44.11C58.9656 43.8503 59.35 43.4828 59.63 43.04C59.8787 42.6044 60.0097 42.1116 60.01 41.61C59.9391 40.7797 59.6565 39.9815 59.189 39.2917C58.7215 38.6019 58.0849 38.0435 57.34 37.67Z" fill="black"/>
</svg>
