<svg width="80" height="80" viewBox="0 0 80 80" fill="none" xmlns="http://www.w3.org/2000/svg">
<path d="M14.825 1.0625C15.2062 1.0625 15.572 1.21381 15.8416 1.4834C16.1111 1.75298 16.2625 2.11875 16.2625 2.5V24.0049L16.2605 24.1504C16.2517 24.2947 16.2212 24.4376 16.1697 24.5732C16.1009 24.7541 15.9961 24.9191 15.8621 25.0586C15.7278 25.1982 15.5667 25.3099 15.3884 25.3857C15.2548 25.4426 15.1134 25.4787 14.9695 25.4932L14.825 25.5C14.4437 25.5 14.0779 25.3487 13.8083 25.0791C13.5388 24.8095 13.3875 24.4437 13.3875 24.0625V2.5C13.3875 2.11875 13.5388 1.75298 13.8083 1.4834C14.0779 1.21382 14.4437 1.0625 14.825 1.0625Z" fill="#9A99EA" stroke="#9A99EA"/>
<path d="M49.5225 17.5369C49.7845 17.4294 50.0726 17.4016 50.3506 17.4558C50.6285 17.51 50.8845 17.6445 51.0869 17.8425L51.0908 17.8464L64.4893 31.2576C64.6906 31.4579 64.83 31.7138 64.8877 31.9919C64.9452 32.2698 64.9194 32.5584 64.8145 32.822L64.8115 32.8289L49.6865 69.3533L49.6846 69.3582C49.544 69.6881 49.2852 69.9543 48.959 70.1033C48.633 70.2519 48.263 70.2736 47.9219 70.1638V70.1628C37.2263 66.8293 26.7248 68.8986 18.8457 71.8445C14.9091 73.3163 11.638 75.0034 9.3418 76.3308C8.19439 76.9941 7.2913 77.5674 6.6709 77.9783C6.0515 78.3885 5.7349 78.6234 5.72559 78.6296L5.7041 78.6472C5.46167 78.8325 5.16533 78.9332 4.86035 78.9363L4.86133 78.9373C4.85939 78.9373 4.85741 78.9362 4.85547 78.9363L4.85254 78.9373L4.85156 78.9363C4.66176 78.9392 4.47318 78.9046 4.29785 78.8318C4.11955 78.7578 3.95838 78.6473 3.8252 78.5076V78.5066C3.57868 78.2643 3.42702 77.9416 3.39941 77.5964C3.37113 77.2426 3.4749 76.8911 3.69043 76.6091L3.69434 76.6033L3.69922 76.5974C3.69908 76.5973 3.75682 76.5197 3.875 76.3513C3.9907 76.1864 4.15639 75.9458 4.3623 75.6345C4.7742 75.0119 5.34788 74.1067 6.01172 72.9578C7.33976 70.6594 9.02601 67.3886 10.4971 63.4529C13.4418 55.5743 15.5083 45.0775 12.1729 34.3865L12.1719 34.3826C12.0685 34.0414 12.0948 33.6736 12.2471 33.3513C12.3994 33.029 12.6669 32.7752 12.9961 32.6384V32.6375L49.5215 17.5378L49.5225 17.5369ZM15.2871 34.8171C19.6226 50.5182 13.3908 65.5397 9.23438 73.1179C16.8427 68.9625 31.8258 62.726 47.5195 67.0623L61.7852 32.6169L49.7568 20.5886L15.2871 34.8171ZM25.5879 11.825C25.9689 11.8251 26.3341 11.9765 26.6035 12.2458C26.8731 12.5154 27.0254 12.8812 27.0254 13.2625C27.0254 13.6437 26.8731 14.0095 26.6035 14.2791C26.3341 14.5484 25.9689 14.6998 25.5879 14.7H4.0625C3.68125 14.7 3.31548 14.5486 3.0459 14.2791C2.77631 14.0095 2.625 13.6437 2.625 13.2625C2.625 12.8812 2.77631 12.5154 3.0459 12.2458C3.31548 11.9763 3.68125 11.825 4.0625 11.825H25.5879Z" fill="#9A99EA" stroke="#9A99EA"/>
<path d="M30.8142 50.1233C31.1866 50.1299 31.5421 50.2809 31.8054 50.5442C32.0688 50.8076 32.2197 51.163 32.2263 51.5354C32.2329 51.9077 32.0944 52.2678 31.8406 52.5403L31.8347 52.5471L5.86597 78.5159C5.73307 78.6499 5.57447 78.756 5.40015 78.8284C5.22884 78.8994 5.04548 78.936 4.86011 78.9368L4.86108 78.9377C4.85653 78.9378 4.85197 78.9377 4.84741 78.9377V78.9368C4.65902 78.9391 4.47171 78.9036 4.29761 78.8313C4.12521 78.7597 3.97012 78.6531 3.8396 78.5198L3.83862 78.5208C3.70244 78.3881 3.5942 78.2291 3.52026 78.054C3.44637 77.8788 3.408 77.6904 3.40796 77.5002C3.40796 77.3101 3.44641 77.1217 3.52026 76.9465C3.59346 76.773 3.70039 76.6156 3.83472 76.4836L29.7966 50.5217L29.8025 50.5149L29.8093 50.509C30.0818 50.2553 30.4419 50.1168 30.8142 50.1233Z" fill="#9A99EA" stroke="#9A99EA"/>
<path d="M33.5776 40.2512C34.9913 39.97 36.4569 40.1147 37.7886 40.6663C39.1203 41.2179 40.2593 42.1522 41.0601 43.3508C41.8606 44.5493 42.2877 45.9584 42.2876 47.3997C42.2876 49.3324 41.5195 51.1863 40.1528 52.553C38.7862 53.9196 36.9323 54.6868 34.9995 54.6868C33.5582 54.6869 32.1492 54.2599 30.9507 53.4592C29.7522 52.6585 28.8177 51.5204 28.2661 50.1887C27.7145 48.857 27.5698 47.3915 27.8511 45.9778C28.1324 44.5641 28.8269 43.2655 29.8462 42.2463C30.8653 41.227 32.1639 40.5325 33.5776 40.2512ZM34.9985 43.0002C34.4192 42.9987 33.8454 43.1118 33.3101 43.3333C32.7747 43.5547 32.2884 43.88 31.8794 44.2903C31.0537 45.1195 30.5904 46.2421 30.5903 47.4124C30.5903 48.5794 31.0511 49.699 31.8726 50.5276L32.0327 50.676C32.8515 51.3941 33.9055 51.7921 34.9995 51.7922C36.1665 51.7922 37.2883 51.3387 38.1274 50.5276C38.7417 49.9114 39.1607 49.1271 39.3306 48.2737C39.5009 47.4177 39.4136 46.5302 39.0796 45.7239C38.7454 44.9173 38.1787 44.2273 37.4526 43.7424C36.7267 43.2578 35.8733 42.9998 35.0005 43.0002H34.9985ZM55.3999 4.97583C55.7807 4.97583 56.146 5.12679 56.4155 5.39575L76.9536 25.8958V25.8967C77.2228 26.1662 77.3745 26.5315 77.3745 26.9124C77.3745 27.293 77.2224 27.6575 76.9536 27.927L68.0737 36.844C67.9405 36.9838 67.7803 37.0952 67.6021 37.1692C67.4303 37.2405 67.2459 37.275 67.0601 37.2737L67.061 37.2747C67.0571 37.2747 67.0532 37.2736 67.0493 37.2737C67.0458 37.2736 67.0421 37.2747 67.0386 37.2747V37.2737C66.8532 37.2748 66.6689 37.2403 66.4976 37.1692C66.3228 37.0966 66.1653 36.9886 66.0337 36.8528L45.4839 16.3167V16.3157C45.2147 16.0461 45.063 15.681 45.063 15.3C45.063 14.9191 45.2147 14.554 45.4839 14.2844V14.2834L54.3843 5.39575C54.6538 5.12677 55.0191 4.97584 55.3999 4.97583ZM48.5317 15.3L67.0483 33.803L73.8442 26.9504L55.3989 8.44458L48.5317 15.3Z" fill="#9A99EA" stroke="#9A99EA"/>
</svg>
