<svg width="491" height="413" viewBox="0 0 491 413" fill="none" xmlns="http://www.w3.org/2000/svg">
<path d="M6.43198e-06 419.897L64.1069 379.114L66.6944 424.069C107.649 353.388 162.819 293.34 223.494 363.999C246.021 390.296 259.062 420.652 282.033 425.34C305.005 430.027 347.61 408.22 347.61 408.22C347.61 408.22 309.279 409.632 282.137 374.744C254.994 339.855 224.09 296.079 190.215 285.758C87.5545 254.484 25.2122 368.411 6.43198e-06 419.897ZM388.026 321.112C388.026 321.112 401.382 297.582 442.135 307.205C482.887 316.827 504.415 281.451 509 257.788C509 257.788 491.757 272.486 457.892 265.468C424.028 258.451 394.096 277.053 388.026 321.112ZM493.356 23.1483C496.389 15.9405 498.754 7.99144 499.313 0C499.313 0 488 29.6008 433.86 42.5128C390.908 52.7562 361.059 64.7858 361.059 64.7858L376.532 77.2953L339.273 128.597L461.039 60.8253C474.509 53.3422 486.122 40.3525 493.356 23.1483Z" fill="#EDC75A"/>
</svg>
