<svg width="327" height="323" viewBox="0 0 327 323" fill="none" xmlns="http://www.w3.org/2000/svg">
<path fill-rule="evenodd" clip-rule="evenodd" d="M551 192.011C501.99 239.769 443.37 282.401 388.274 304.882C336.352 326.053 286.411 329.955 247.01 305.814C197.738 275.616 201.757 220.316 205.426 169.821C207.436 142.157 209.27 116.967 202.31 114.987C186.032 110.328 170.656 119.763 154.96 129.402C124.908 147.806 94.2439 166.618 44.2731 146.321C-6.92089 125.529 -6.33851 93.8749 9.38659 55.1736C12.5607 47.3985 17.1618 38.1672 21.9958 28.5283C33.2363 6.10542 46.0203 -19.4042 42.089 -40.9825L71.7337 -28.9849L97.9713 -51C105.251 -10.9301 87.9539 23.5779 72.753 53.9215C68.9382 61.5511 65.269 68.8313 62.1531 76.5482C58.9789 84.3525 58.2509 90.526 65.6475 93.5254C89.0896 103.048 107.406 91.8364 125.345 80.8289C151.786 64.6087 177.733 48.7088 217.919 60.1823C269.433 74.8882 265.997 122.034 262.24 173.811C259.765 207.882 257.057 245.214 276.655 257.241C298.67 270.724 331.023 266.735 366.929 252.087C415.065 232.431 467.22 194.312 511.396 151.242L551 192.011Z" fill="#E9BEA4"/>
</svg>
