<svg width="86" height="86" viewBox="0 0 86 86" fill="none" xmlns="http://www.w3.org/2000/svg">
<path d="M41.6025 6.66511C37.4654 7.13667 33.3691 7.9152 29.3475 8.99428C25.6153 10.2696 22.1958 12.3213 19.3142 15.0143C13.3218 20.6397 9.25867 28.0135 7.70417 36.0843C5.96747 44.6764 7.46019 53.6073 11.8967 61.1676C16.0602 67.808 22.1829 72.9916 29.4192 76.0026C36.5126 79.3059 44.4978 80.1763 52.1363 78.4788C59.7749 76.7814 66.6399 72.6109 71.6667 66.6143C76.0683 60.9322 78.6323 54.0428 79.0164 46.8655C79.4006 39.6883 77.5866 32.5646 73.8167 26.4451C69.7859 19.7023 63.887 14.2725 56.8342 10.8128C49.7813 7.35316 41.8768 6.01203 34.0775 6.95178C31.82 7.27428 32.7875 10.7143 35.045 10.5351C41.2202 9.85589 47.467 10.748 53.2052 13.1285C58.9435 15.509 63.9873 19.3008 67.8683 24.1518C72.0194 29.154 74.5789 35.2839 75.2175 41.7527C75.8561 48.2216 74.5446 54.7336 71.4517 60.4509C68.0044 66.3303 62.7234 70.9164 56.4189 73.5055C50.1143 76.0947 43.1344 76.5439 36.55 74.7843C29.1497 73.1302 22.5447 68.9781 17.846 63.0264C13.1473 57.0747 10.6415 49.6864 10.75 42.1043C11.0763 33.5259 14.4714 25.3497 20.3175 19.0634C23.1348 15.984 26.6847 13.6667 30.6375 12.3268C34.561 11.3294 38.5477 10.5991 42.57 10.1409C44.8275 9.78261 43.86 6.30678 41.6025 6.55761V6.66511Z" fill="#9A99EA"/>
<path d="M34.7942 32.895V32.25C34.7836 31.7782 34.591 31.3288 34.2567 30.9958C34.0941 30.8271 33.8993 30.6926 33.6839 30.6003C33.4685 30.508 33.2368 30.4597 33.0025 30.4583C32.1483 30.5445 31.3199 30.8003 30.5658 31.2108C29.8605 31.6773 29.2621 32.2879 28.81 33.0025C28.3297 33.7541 28.1211 34.6474 28.2189 35.534C28.3166 36.4206 28.7149 37.247 29.3475 37.8758C29.8963 38.5499 30.6714 39.0014 31.5283 39.1465C32.3853 39.2915 33.2658 39.1201 34.0058 38.6642C34.4446 38.3856 34.8174 38.0148 35.0986 37.5777C35.3797 37.1406 35.5624 36.6476 35.634 36.1329C35.7056 35.6181 35.6644 35.0939 35.5131 34.5967C35.3619 34.0995 35.1044 33.6411 34.7583 33.2533C34.316 32.7645 33.7221 32.4387 33.0722 32.3282C32.4222 32.2177 31.754 32.329 31.175 32.6442C30.6174 32.9691 30.1875 33.4748 29.9567 34.0775C29.8135 34.3925 29.7402 34.7348 29.7417 35.0808C29.755 35.5062 29.8653 35.9229 30.0642 36.2992C30.3008 36.704 30.6868 36.9999 31.1392 37.1233C31.3657 37.1931 31.6046 37.2132 31.8395 37.1823C32.0745 37.1514 32.3001 37.0702 32.5008 36.9442C32.705 36.8229 32.883 36.6622 33.0244 36.4715C33.1659 36.2808 33.2681 36.0639 33.325 35.8333C33.4273 35.3725 33.3639 34.8904 33.1458 34.4717L33.3608 34.9017V35.3675V35.8692C33.3563 35.7856 33.3563 35.7019 33.3608 35.6183L33.1817 36.0483C33.1632 35.9658 33.1632 35.8801 33.1817 35.7975L32.895 36.1558L32.5367 36.4067H32.8233L32.68 35.8333H32.9308H32.4292H32.25H32.5367L32.25 35.5825V35.8333V35.3675C32.2865 35.5206 32.2865 35.6802 32.25 35.8333V35.26C32.1799 35.4108 32.0959 35.5547 31.9992 35.69L32.25 35.3317L31.8917 35.8333L32.25 35.3675L31.8917 35.5825H32.3217H31.9275H32.3933H31.8917L32.25 35.5467L31.7125 35.2242L32.0708 35.5108L31.6408 35.045L31.9275 35.4033C31.7797 35.2517 31.6692 35.0676 31.605 34.8658L31.7842 35.2958C31.7679 35.117 31.7679 34.9371 31.7842 34.7583V35.26C31.7485 35.0826 31.7485 34.8999 31.7842 34.7225V35.1883C31.8104 34.9654 31.8708 34.7479 31.9633 34.5433L31.7842 34.9733C31.9172 34.7542 32.0734 34.55 32.25 34.3642L31.9633 34.7225C32.0385 34.5218 32.1345 34.3297 32.25 34.1492L31.8558 34.4C32.1224 34.2102 32.4112 34.0538 32.7158 33.9342H32.2858C32.5792 33.7965 32.8946 33.7116 33.2175 33.6833H32.9667L31.175 32.25V33.0383C31.1795 33.5044 31.3585 33.9519 31.6767 34.2925C32.0227 34.6291 32.484 34.8213 32.9667 34.83C33.439 34.8208 33.8894 34.6291 34.2234 34.2951C34.5575 33.9611 34.7492 33.5106 34.7583 33.0383L34.7942 32.895ZM56.0075 31.4258C55.4001 31.033 54.6881 30.8331 53.965 30.8525C53.2545 30.8775 52.5628 31.0875 51.9583 31.4617C51.2564 31.8367 50.6994 32.4347 50.375 33.1614C50.0505 33.8881 49.9773 34.7021 50.1667 35.475C50.3587 36.1745 50.7586 36.7993 51.3133 37.2667C51.8586 37.7659 52.5262 38.112 53.2483 38.27C53.746 38.3592 54.2556 38.3592 54.7533 38.27C55.1224 38.2086 55.4756 38.0746 55.7925 37.8758C56.4204 37.4985 56.9295 36.9521 57.2617 36.2992C57.8664 35.0411 58.0906 33.6337 57.9067 32.25C57.9067 31.8623 57.7809 31.4851 57.5483 31.175C57.3157 30.8649 56.9888 30.6386 56.6167 30.53C56.2215 30.3994 55.8032 30.3543 55.3893 30.3975C54.9754 30.4407 54.5754 30.5714 54.2158 30.7808C53.9336 30.9562 53.6798 31.1738 53.4633 31.4258C53.1343 31.7798 52.9001 32.2112 52.7825 32.68C52.6241 33.1324 52.6241 33.6251 52.7825 34.0775C52.9004 34.2845 53.0593 34.4653 53.2493 34.6089C53.4394 34.7525 53.6567 34.856 53.888 34.913C54.1193 34.97 54.3597 34.9793 54.5947 34.9404C54.8298 34.9015 55.0544 34.8152 55.255 34.6867C55.4543 34.5766 55.6298 34.4281 55.7713 34.2497C55.9128 34.0713 56.0174 33.8666 56.0792 33.6475C56.0579 33.5652 56.0579 33.4789 56.0792 33.3967L55.9 33.8267V33.5758L55.6492 33.9342L55.8642 33.7192L55.5058 34.0058L55.7925 33.8267L55.3625 34.0058H55.685H55.2192H55.5058H55.04H55.2908L54.3233 32.25C54.4129 32.9159 54.4129 33.5908 54.3233 34.2567V33.7908C54.2738 34.1329 54.1897 34.469 54.0725 34.7942L54.2517 34.3642C54.1536 34.5678 54.0334 34.7601 53.8933 34.9375L54.18 34.5792L53.8217 34.9375L54.18 34.6867C54.0611 34.7025 53.9406 34.7025 53.8217 34.6867H54.2875H53.75H54.2158H53.6783L54.1083 34.8658C53.9757 34.774 53.8553 34.6656 53.75 34.5433L54.1083 34.7942C53.9722 34.679 53.8517 34.5465 53.75 34.4L54.0008 34.7583L53.75 34.2925L53.965 34.7225C53.9496 34.5796 53.9496 34.4354 53.965 34.2925V34.7583V34.3642V34.83C53.9496 34.6871 53.9496 34.5429 53.965 34.4L53.75 34.83C53.7323 34.6992 53.7323 34.5666 53.75 34.4358L53.4633 34.7942L53.8575 34.4L53.4992 34.6867L54.0367 34.3642L53.75 34.5433H54.3233H53.8217H54.395L53.75 34.4H54.18L53.75 34.3283L54.0725 34.5075C54.5214 34.6851 55.0211 34.6851 55.47 34.5075C55.6891 34.4457 55.8938 34.3411 56.0722 34.1996C56.2506 34.0581 56.3991 33.8827 56.5092 33.6833C56.6412 33.4853 56.7287 33.2611 56.7659 33.0261C56.803 32.791 56.7887 32.5507 56.7242 32.3217C56.568 31.8863 56.2799 31.5105 55.9 31.2467L56.0075 31.4258ZM27.2692 49.0917L28.4875 51.2775L26.2658 52.5317L25.1908 51.7075C26.06 52.9883 27.0435 54.1876 28.1292 55.2908C29.4307 56.4673 30.89 57.4563 32.465 58.2292C35.8376 59.8911 39.4765 60.9464 43.215 61.3467C47.0369 61.5247 50.8488 60.826 54.3592 59.3042C55.9515 58.8333 57.3952 57.9592 58.5504 56.7663C59.7056 55.5735 60.533 54.1025 60.9525 52.4958C61.3825 50.2383 57.9425 49.2708 57.3692 51.5283C56.7958 54.5742 53.7858 55.7567 51.2058 56.5808C48.0066 57.74 44.5586 58.0366 41.2083 57.4408C38.087 56.8716 35.0907 55.7556 32.3575 54.1442C31.2031 53.4199 30.1642 52.526 29.2758 51.4925C28.5233 50.5967 28.1292 49.4142 26.9467 49.02C26.5548 48.9902 26.1636 49.0851 25.829 49.2911C25.4943 49.497 25.2333 49.8035 25.0833 50.1667C24.9719 50.6224 25.0399 51.1034 25.2734 51.5103C25.5069 51.9172 25.8879 52.2188 26.3375 52.3525C28.5592 53.105 29.4908 49.6292 27.305 48.7692L27.2692 49.0917Z" fill="#9A99EA"/>
</svg>
