<svg width="87" height="87" viewBox="0 0 87 87" fill="none" xmlns="http://www.w3.org/2000/svg">
<path d="M12.8017 13.7515C13.1798 11.902 15.8223 11.902 16.2003 13.7515C17.0352 17.8362 20.2274 21.0284 24.3123 21.8632C26.1617 22.2413 26.1617 24.8839 24.3123 25.2618C20.2274 26.0969 17.0352 29.289 16.2003 33.3739C15.8223 35.2233 13.1798 35.2233 12.8017 33.3739C11.9668 29.289 8.77465 26.0969 4.68989 25.2618C2.84044 24.8839 2.84044 22.2413 4.68989 21.8632C8.77465 21.0284 11.9668 17.8362 12.8017 13.7515ZM37.4837 83.326C38.9508 83.6461 40.3995 82.7163 40.7196 81.2492C41.0397 79.7822 40.1098 78.3336 38.6428 78.0136L37.4837 83.326ZM66.7056 32.7143C65.7538 31.553 64.0406 31.3832 62.8794 32.3351C61.7183 33.287 61.5485 35 62.5004 36.1613L66.7056 32.7143ZM50.1542 64.631C48.8111 63.9596 47.1781 64.5039 46.5065 65.847C45.835 67.1899 46.3795 68.8229 47.7223 69.4944L50.1542 64.631ZM8.63641 37.0009C9.05097 35.5577 8.21711 34.0517 6.77394 33.6372C5.33078 33.2227 3.82481 34.0564 3.41025 35.4996L8.63641 37.0009ZM28.7591 15.8419C27.2634 15.9755 26.1592 17.2961 26.2928 18.7918C26.4264 20.2872 27.747 21.3914 29.2426 21.2578L28.7591 15.8419ZM51.6009 26.8005C52.8885 27.5728 54.5584 27.155 55.3309 25.8674C56.1032 24.5798 55.6854 22.9098 54.3978 22.1374L51.6009 26.8005ZM31.7959 56.7607C31.5916 56.7669 31.4245 56.5998 31.4307 56.3957L25.9957 56.2309C25.8946 59.5661 28.6253 62.2968 31.9605 62.1957L31.7959 56.7607ZM31.4307 56.3957C31.5519 52.3926 33.1962 48.5869 36.0281 45.7552L32.1832 41.9104C28.3721 45.7215 26.1588 50.8435 25.9957 56.2309L31.4307 56.3957ZM31.9605 62.1957C37.348 62.0326 42.4699 59.8195 46.2812 56.0082L42.4362 52.1633C39.6045 54.9952 35.7988 56.6395 31.7959 56.7607L31.9605 62.1957ZM70.2673 17.9241C72.0368 19.6937 72.0368 22.5627 70.2673 24.3322L74.1122 28.1772C78.0052 24.2842 78.0052 17.9722 74.1122 14.0792L70.2673 17.9241ZM74.1122 14.0792C70.2191 10.1862 63.9072 10.1862 60.0142 14.0792L63.8592 17.9241C65.6288 16.1545 68.4978 16.1545 70.2673 17.9241L74.1122 14.0792ZM38.6428 78.0136C33.6909 76.9329 28.6706 74.781 24.0043 71.5136L20.8856 75.9678C26.1309 79.6406 31.8155 82.0893 37.4837 83.326L38.6428 78.0136ZM62.5004 36.1613C66.8607 41.4806 69.0749 46.9274 69.8075 51.5772C70.5528 56.3071 69.739 59.9603 68.4262 61.9296L72.9503 64.9458C75.2626 61.4778 76.057 56.3047 75.1786 50.7307C74.2878 45.0768 71.6466 38.7421 66.7056 32.7143L62.5004 36.1613ZM68.4262 61.9296C65.5709 66.2126 61.3436 67.0209 57.365 66.6231C55.3715 66.4237 53.5468 65.9204 52.2065 65.4566C51.5416 65.2264 51.0097 65.0107 50.6517 64.8564C50.473 64.7794 50.3385 64.718 50.2537 64.6783C50.2113 64.6585 50.1814 64.6442 50.1645 64.636C50.1562 64.6321 50.1509 64.6295 50.1493 64.6286C50.1484 64.6281 50.1486 64.6281 50.1493 64.6286C50.1496 64.6288 50.1502 64.629 50.1509 64.6295C50.1507 64.6293 50.1515 64.6297 50.1509 64.6295C50.1518 64.6299 50.1542 64.631 48.9384 67.0628C47.7223 69.4944 47.7234 69.495 47.7245 69.4955C47.7249 69.4957 47.726 69.4963 47.7269 69.4968C47.7287 69.4975 47.7305 69.4986 47.7327 69.4997C47.737 69.5017 47.7423 69.5044 47.7484 69.5073C47.7606 69.5133 47.7764 69.5211 47.7956 69.5303C47.8342 69.549 47.8866 69.574 47.952 69.6046C48.0832 69.6659 48.2674 69.7498 48.4994 69.8497C48.9626 70.0494 49.62 70.3151 50.4279 70.5948C52.0328 71.1503 54.2863 71.7798 56.824 72.0336C61.9079 72.542 68.5558 71.5379 72.9503 64.9458L68.4262 61.9296ZM24.0043 71.5136C11.037 62.4339 5.45062 48.0914 8.63641 37.0009L3.41025 35.4996C-0.571096 49.3596 6.51941 65.9086 20.8856 75.9678L24.0043 71.5136ZM29.2426 21.2578C36.3221 20.6258 44.2759 22.4068 51.6009 26.8005L54.3978 22.1374C46.1629 17.1979 37.0697 15.0999 28.7591 15.8419L29.2426 21.2578ZM36.0281 45.7552L63.8592 17.9241L60.0142 14.0792L32.1832 41.9104L36.0281 45.7552ZM70.2673 24.3322L42.4362 52.1633L46.2812 56.0082L74.1122 28.1772L70.2673 24.3322Z" fill="#9A99EA"/>
</svg>
