<svg width="568" height="270" viewBox="0 0 568 270" fill="none" xmlns="http://www.w3.org/2000/svg">
<rect x="0.5" y="0.5" width="567" height="269" rx="39.5" fill="white"/>
<rect x="0.5" y="0.5" width="567" height="269" rx="39.5" stroke="#E0E0E0"/>
<path d="M320 118C320 113.582 323.582 110 328 110H504C508.418 110 512 113.582 512 118V218H320V118Z" fill="#171717"/>
<circle cx="334.5" cy="120.5" r="2.5" fill="#ED695F"/>
<circle cx="344.115" cy="120.5" r="2.5" fill="#F4BD4F"/>
<circle cx="353.731" cy="120.5" r="2.5" fill="#62C454"/>
<path d="M397.457 142.296H400.417V143H396.665V137.336H400.297V138.032H397.457V139.728H400.129V140.408H397.457V142.296ZM403.477 140.168C403.392 140.029 403.272 139.917 403.117 139.832C402.963 139.741 402.789 139.696 402.597 139.696C402.512 139.696 402.427 139.707 402.341 139.728C402.256 139.744 402.179 139.773 402.109 139.816C402.045 139.853 401.992 139.904 401.949 139.968C401.912 140.027 401.893 140.101 401.893 140.192C401.893 140.352 401.965 140.472 402.109 140.552C402.253 140.627 402.469 140.696 402.757 140.76C402.939 140.803 403.107 140.853 403.261 140.912C403.416 140.971 403.549 141.045 403.661 141.136C403.779 141.221 403.869 141.325 403.933 141.448C403.997 141.571 404.029 141.715 404.029 141.88C404.029 142.104 403.987 142.293 403.901 142.448C403.816 142.603 403.701 142.731 403.557 142.832C403.419 142.928 403.259 142.997 403.077 143.04C402.896 143.083 402.709 143.104 402.517 143.104C402.229 143.104 401.947 143.048 401.669 142.936C401.397 142.824 401.171 142.653 400.989 142.424L401.525 141.968C401.627 142.117 401.765 142.243 401.941 142.344C402.123 142.445 402.32 142.496 402.533 142.496C402.629 142.496 402.72 142.488 402.805 142.472C402.896 142.451 402.976 142.419 403.045 142.376C403.12 142.333 403.179 142.277 403.221 142.208C403.264 142.139 403.285 142.051 403.285 141.944C403.285 141.768 403.2 141.637 403.029 141.552C402.864 141.467 402.619 141.387 402.293 141.312C402.165 141.28 402.035 141.243 401.901 141.2C401.773 141.152 401.656 141.088 401.549 141.008C401.443 140.928 401.355 140.829 401.285 140.712C401.221 140.589 401.189 140.44 401.189 140.264C401.189 140.061 401.229 139.888 401.309 139.744C401.395 139.595 401.504 139.475 401.637 139.384C401.771 139.288 401.923 139.219 402.093 139.176C402.264 139.128 402.44 139.104 402.621 139.104C402.893 139.104 403.155 139.157 403.405 139.264C403.661 139.371 403.859 139.525 403.997 139.728L403.477 140.168ZM407.64 140.168C407.56 140.045 407.44 139.944 407.28 139.864C407.12 139.779 406.949 139.736 406.768 139.736C406.571 139.736 406.395 139.773 406.24 139.848C406.091 139.923 405.963 140.024 405.856 140.152C405.749 140.275 405.667 140.419 405.608 140.584C405.555 140.749 405.528 140.923 405.528 141.104C405.528 141.285 405.555 141.459 405.608 141.624C405.667 141.789 405.749 141.936 405.856 142.064C405.963 142.187 406.093 142.285 406.248 142.36C406.403 142.435 406.579 142.472 406.776 142.472C406.968 142.472 407.141 142.435 407.296 142.36C407.456 142.285 407.587 142.184 407.688 142.056L408.192 142.512C408.032 142.699 407.832 142.845 407.592 142.952C407.352 143.053 407.08 143.104 406.776 143.104C406.483 143.104 406.211 143.056 405.96 142.96C405.715 142.864 405.501 142.731 405.32 142.56C405.139 142.384 404.995 142.173 404.888 141.928C404.787 141.683 404.736 141.408 404.736 141.104C404.736 140.805 404.787 140.533 404.888 140.288C404.989 140.043 405.131 139.832 405.312 139.656C405.493 139.48 405.707 139.344 405.952 139.248C406.203 139.152 406.472 139.104 406.76 139.104C407.027 139.104 407.291 139.157 407.552 139.264C407.819 139.371 408.029 139.525 408.184 139.728L407.64 140.168ZM408.937 140.024C408.937 139.923 408.934 139.792 408.929 139.632C408.924 139.472 408.916 139.331 408.905 139.208H409.617C409.628 139.304 409.636 139.416 409.641 139.544C409.646 139.667 409.649 139.768 409.649 139.848H409.673C409.78 139.624 409.934 139.445 410.137 139.312C410.345 139.173 410.577 139.104 410.833 139.104C410.95 139.104 411.049 139.115 411.129 139.136L411.097 139.832C410.99 139.805 410.876 139.792 410.753 139.792C410.572 139.792 410.414 139.827 410.281 139.896C410.148 139.96 410.036 140.048 409.945 140.16C409.86 140.272 409.796 140.403 409.753 140.552C409.71 140.696 409.689 140.848 409.689 141.008V143H408.937V140.024ZM412.596 143H411.844V139.208H412.596V143ZM412.46 138.488H411.844L412.644 137.336H413.548L412.46 138.488ZM414.65 142.4V143H413.922V136.952H414.674V139.776H414.698C414.826 139.589 415.004 139.432 415.234 139.304C415.463 139.171 415.735 139.104 416.05 139.104C416.332 139.104 416.588 139.155 416.818 139.256C417.052 139.357 417.252 139.499 417.418 139.68C417.588 139.861 417.719 140.075 417.81 140.32C417.9 140.56 417.946 140.819 417.946 141.096C417.946 141.373 417.9 141.635 417.81 141.88C417.719 142.125 417.591 142.339 417.426 142.52C417.26 142.701 417.06 142.845 416.826 142.952C416.591 143.053 416.327 143.104 416.034 143.104C415.762 143.104 415.503 143.045 415.258 142.928C415.012 142.805 414.815 142.629 414.666 142.4H414.65ZM417.17 141.096C417.17 140.92 417.143 140.749 417.09 140.584C417.036 140.419 416.956 140.272 416.85 140.144C416.743 140.016 416.61 139.915 416.45 139.84C416.295 139.765 416.114 139.728 415.906 139.728C415.714 139.728 415.538 139.765 415.378 139.84C415.223 139.915 415.09 140.016 414.978 140.144C414.866 140.272 414.778 140.419 414.714 140.584C414.655 140.749 414.626 140.923 414.626 141.104C414.626 141.285 414.655 141.459 414.714 141.624C414.778 141.789 414.866 141.936 414.978 142.064C415.09 142.187 415.223 142.285 415.378 142.36C415.538 142.435 415.714 142.472 415.906 142.472C416.114 142.472 416.295 142.435 416.45 142.36C416.61 142.28 416.743 142.176 416.85 142.048C416.956 141.92 417.036 141.773 417.09 141.608C417.143 141.443 417.17 141.272 417.17 141.096ZM421.768 140.768C421.762 140.619 421.736 140.48 421.688 140.352C421.645 140.219 421.578 140.104 421.488 140.008C421.402 139.912 421.293 139.837 421.16 139.784C421.032 139.725 420.88 139.696 420.704 139.696C420.544 139.696 420.392 139.725 420.248 139.784C420.109 139.837 419.986 139.912 419.88 140.008C419.778 140.104 419.693 140.219 419.624 140.352C419.56 140.48 419.522 140.619 419.512 140.768H421.768ZM422.528 141.072C422.528 141.115 422.528 141.157 422.528 141.2C422.528 141.243 422.525 141.285 422.52 141.328H419.512C419.517 141.488 419.552 141.64 419.616 141.784C419.685 141.923 419.776 142.045 419.888 142.152C420 142.253 420.128 142.333 420.272 142.392C420.421 142.451 420.578 142.48 420.744 142.48C421 142.48 421.221 142.424 421.408 142.312C421.594 142.2 421.741 142.064 421.848 141.904L422.376 142.328C422.173 142.595 421.933 142.792 421.656 142.92C421.384 143.043 421.08 143.104 420.744 143.104C420.456 143.104 420.189 143.056 419.944 142.96C419.698 142.864 419.488 142.731 419.312 142.56C419.136 142.384 418.997 142.173 418.896 141.928C418.794 141.683 418.744 141.411 418.744 141.112C418.744 140.819 418.792 140.549 418.888 140.304C418.989 140.053 419.128 139.84 419.304 139.664C419.48 139.488 419.688 139.352 419.928 139.256C420.168 139.155 420.426 139.104 420.704 139.104C420.981 139.104 421.232 139.149 421.456 139.24C421.685 139.331 421.877 139.461 422.032 139.632C422.192 139.803 422.314 140.011 422.4 140.256C422.485 140.496 422.528 140.768 422.528 141.072ZM424.258 139.208C424.268 139.304 424.276 139.413 424.282 139.536C424.287 139.653 424.29 139.752 424.29 139.832H424.314C424.362 139.731 424.426 139.637 424.506 139.552C424.591 139.461 424.687 139.384 424.794 139.32C424.9 139.251 425.018 139.197 425.146 139.16C425.274 139.123 425.407 139.104 425.546 139.104C425.791 139.104 426.002 139.147 426.178 139.232C426.354 139.312 426.5 139.421 426.618 139.56C426.735 139.699 426.82 139.861 426.874 140.048C426.932 140.235 426.962 140.435 426.962 140.648V143H426.21V140.896C426.21 140.741 426.196 140.595 426.17 140.456C426.148 140.317 426.106 140.195 426.042 140.088C425.978 139.981 425.89 139.896 425.778 139.832C425.666 139.768 425.522 139.736 425.346 139.736C425.047 139.736 424.802 139.851 424.61 140.08C424.423 140.304 424.33 140.605 424.33 140.984V143H423.578V140.024C423.578 139.923 423.575 139.792 423.57 139.632C423.564 139.472 423.556 139.331 423.546 139.208H424.258ZM432.074 141.096C432.074 141.389 432.021 141.659 431.914 141.904C431.813 142.149 431.669 142.363 431.482 142.544C431.301 142.72 431.085 142.859 430.834 142.96C430.583 143.056 430.314 143.104 430.026 143.104C429.738 143.104 429.469 143.056 429.218 142.96C428.967 142.859 428.751 142.72 428.57 142.544C428.389 142.363 428.245 142.149 428.138 141.904C428.037 141.659 427.986 141.389 427.986 141.096C427.986 140.803 428.037 140.536 428.138 140.296C428.245 140.051 428.389 139.84 428.57 139.664C428.751 139.488 428.967 139.352 429.218 139.256C429.469 139.155 429.738 139.104 430.026 139.104C430.314 139.104 430.583 139.155 430.834 139.256C431.085 139.352 431.301 139.488 431.482 139.664C431.669 139.84 431.813 140.051 431.914 140.296C432.021 140.536 432.074 140.803 432.074 141.096ZM431.29 141.096C431.29 140.915 431.261 140.741 431.202 140.576C431.149 140.411 431.069 140.267 430.962 140.144C430.855 140.016 430.722 139.915 430.562 139.84C430.407 139.765 430.229 139.728 430.026 139.728C429.823 139.728 429.642 139.765 429.482 139.84C429.327 139.915 429.197 140.016 429.09 140.144C428.983 140.267 428.901 140.411 428.842 140.576C428.789 140.741 428.762 140.915 428.762 141.096C428.762 141.277 428.789 141.451 428.842 141.616C428.901 141.781 428.983 141.928 429.09 142.056C429.197 142.184 429.327 142.285 429.482 142.36C429.642 142.435 429.823 142.472 430.026 142.472C430.229 142.472 430.407 142.435 430.562 142.36C430.722 142.285 430.855 142.184 430.962 142.056C431.069 141.928 431.149 141.781 431.202 141.616C431.261 141.451 431.29 141.277 431.29 141.096ZM435.165 140.168C435.079 140.029 434.959 139.917 434.805 139.832C434.65 139.741 434.477 139.696 434.285 139.696C434.199 139.696 434.114 139.707 434.029 139.728C433.943 139.744 433.866 139.773 433.797 139.816C433.733 139.853 433.679 139.904 433.637 139.968C433.599 140.027 433.581 140.101 433.581 140.192C433.581 140.352 433.653 140.472 433.797 140.552C433.941 140.627 434.157 140.696 434.445 140.76C434.626 140.803 434.794 140.853 434.949 140.912C435.103 140.971 435.237 141.045 435.349 141.136C435.466 141.221 435.557 141.325 435.621 141.448C435.685 141.571 435.717 141.715 435.717 141.88C435.717 142.104 435.674 142.293 435.589 142.448C435.503 142.603 435.389 142.731 435.245 142.832C435.106 142.928 434.946 142.997 434.765 143.04C434.583 143.083 434.397 143.104 434.205 143.104C433.917 143.104 433.634 143.048 433.357 142.936C433.085 142.824 432.858 142.653 432.677 142.424L433.213 141.968C433.314 142.117 433.453 142.243 433.629 142.344C433.81 142.445 434.007 142.496 434.221 142.496C434.317 142.496 434.407 142.488 434.493 142.472C434.583 142.451 434.663 142.419 434.733 142.376C434.807 142.333 434.866 142.277 434.909 142.208C434.951 142.139 434.973 142.051 434.973 141.944C434.973 141.768 434.887 141.637 434.717 141.552C434.551 141.467 434.306 141.387 433.981 141.312C433.853 141.28 433.722 141.243 433.589 141.2C433.461 141.152 433.343 141.088 433.237 141.008C433.13 140.928 433.042 140.829 432.973 140.712C432.909 140.589 432.877 140.44 432.877 140.264C432.877 140.061 432.917 139.888 432.997 139.744C433.082 139.595 433.191 139.475 433.325 139.384C433.458 139.288 433.61 139.219 433.781 139.176C433.951 139.128 434.127 139.104 434.309 139.104C434.581 139.104 434.842 139.157 435.093 139.264C435.349 139.371 435.546 139.525 435.685 139.728L435.165 140.168Z" fill="#939393"/>
<rect x="333" y="151" width="166" height="15" rx="4" fill="#0E0E11"/>
<rect x="333" y="201" width="166" height="15" rx="4" fill="#0E0E11"/>
<rect x="333" y="176" width="166" height="15" rx="4" fill="#0E0E11"/>
<line opacity="0.2" x1="320" y1="130.9" x2="512" y2="130.9" stroke="white" stroke-width="0.2"/>
<rect x="32.5" y="81.5" width="239" height="136" rx="23.5" stroke="#EFEFEF"/>
<path d="M64 110.5H240C244.142 110.5 247.5 113.858 247.5 118V217.5H56.5V118C56.5 113.858 59.8579 110.5 64 110.5Z" fill="white" stroke="#EFEFEF"/>
<path d="M133.457 144.296H136.417V145H132.665V139.336H136.297V140.032H133.457V141.728H136.129V142.408H133.457V144.296ZM139.477 142.168C139.392 142.029 139.272 141.917 139.117 141.832C138.963 141.741 138.789 141.696 138.597 141.696C138.512 141.696 138.427 141.707 138.341 141.728C138.256 141.744 138.179 141.773 138.109 141.816C138.045 141.853 137.992 141.904 137.949 141.968C137.912 142.027 137.893 142.101 137.893 142.192C137.893 142.352 137.965 142.472 138.109 142.552C138.253 142.627 138.469 142.696 138.757 142.76C138.939 142.803 139.107 142.853 139.261 142.912C139.416 142.971 139.549 143.045 139.661 143.136C139.779 143.221 139.869 143.325 139.933 143.448C139.997 143.571 140.029 143.715 140.029 143.88C140.029 144.104 139.987 144.293 139.901 144.448C139.816 144.603 139.701 144.731 139.557 144.832C139.419 144.928 139.259 144.997 139.077 145.04C138.896 145.083 138.709 145.104 138.517 145.104C138.229 145.104 137.947 145.048 137.669 144.936C137.397 144.824 137.171 144.653 136.989 144.424L137.525 143.968C137.627 144.117 137.765 144.243 137.941 144.344C138.123 144.445 138.32 144.496 138.533 144.496C138.629 144.496 138.72 144.488 138.805 144.472C138.896 144.451 138.976 144.419 139.045 144.376C139.12 144.333 139.179 144.277 139.221 144.208C139.264 144.139 139.285 144.051 139.285 143.944C139.285 143.768 139.2 143.637 139.029 143.552C138.864 143.467 138.619 143.387 138.293 143.312C138.165 143.28 138.035 143.243 137.901 143.2C137.773 143.152 137.656 143.088 137.549 143.008C137.443 142.928 137.355 142.829 137.285 142.712C137.221 142.589 137.189 142.44 137.189 142.264C137.189 142.061 137.229 141.888 137.309 141.744C137.395 141.595 137.504 141.475 137.637 141.384C137.771 141.288 137.923 141.219 138.093 141.176C138.264 141.128 138.44 141.104 138.621 141.104C138.893 141.104 139.155 141.157 139.405 141.264C139.661 141.371 139.859 141.525 139.997 141.728L139.477 142.168ZM143.64 142.168C143.56 142.045 143.44 141.944 143.28 141.864C143.12 141.779 142.949 141.736 142.768 141.736C142.571 141.736 142.395 141.773 142.24 141.848C142.091 141.923 141.963 142.024 141.856 142.152C141.749 142.275 141.667 142.419 141.608 142.584C141.555 142.749 141.528 142.923 141.528 143.104C141.528 143.285 141.555 143.459 141.608 143.624C141.667 143.789 141.749 143.936 141.856 144.064C141.963 144.187 142.093 144.285 142.248 144.36C142.403 144.435 142.579 144.472 142.776 144.472C142.968 144.472 143.141 144.435 143.296 144.36C143.456 144.285 143.587 144.184 143.688 144.056L144.192 144.512C144.032 144.699 143.832 144.845 143.592 144.952C143.352 145.053 143.08 145.104 142.776 145.104C142.483 145.104 142.211 145.056 141.96 144.96C141.715 144.864 141.501 144.731 141.32 144.56C141.139 144.384 140.995 144.173 140.888 143.928C140.787 143.683 140.736 143.408 140.736 143.104C140.736 142.805 140.787 142.533 140.888 142.288C140.989 142.043 141.131 141.832 141.312 141.656C141.493 141.48 141.707 141.344 141.952 141.248C142.203 141.152 142.472 141.104 142.76 141.104C143.027 141.104 143.291 141.157 143.552 141.264C143.819 141.371 144.029 141.525 144.184 141.728L143.64 142.168ZM144.937 142.024C144.937 141.923 144.934 141.792 144.929 141.632C144.924 141.472 144.916 141.331 144.905 141.208H145.617C145.628 141.304 145.636 141.416 145.641 141.544C145.646 141.667 145.649 141.768 145.649 141.848H145.673C145.78 141.624 145.934 141.445 146.137 141.312C146.345 141.173 146.577 141.104 146.833 141.104C146.95 141.104 147.049 141.115 147.129 141.136L147.097 141.832C146.99 141.805 146.876 141.792 146.753 141.792C146.572 141.792 146.414 141.827 146.281 141.896C146.148 141.96 146.036 142.048 145.945 142.16C145.86 142.272 145.796 142.403 145.753 142.552C145.71 142.696 145.689 142.848 145.689 143.008V145H144.937V142.024ZM148.596 145H147.844V141.208H148.596V145ZM148.46 140.488H147.844L148.644 139.336H149.548L148.46 140.488ZM150.65 144.4V145H149.922V138.952H150.674V141.776H150.698C150.826 141.589 151.004 141.432 151.234 141.304C151.463 141.171 151.735 141.104 152.05 141.104C152.332 141.104 152.588 141.155 152.818 141.256C153.052 141.357 153.252 141.499 153.418 141.68C153.588 141.861 153.719 142.075 153.81 142.32C153.9 142.56 153.946 142.819 153.946 143.096C153.946 143.373 153.9 143.635 153.81 143.88C153.719 144.125 153.591 144.339 153.426 144.52C153.26 144.701 153.06 144.845 152.826 144.952C152.591 145.053 152.327 145.104 152.034 145.104C151.762 145.104 151.503 145.045 151.258 144.928C151.012 144.805 150.815 144.629 150.666 144.4H150.65ZM153.17 143.096C153.17 142.92 153.143 142.749 153.09 142.584C153.036 142.419 152.956 142.272 152.85 142.144C152.743 142.016 152.61 141.915 152.45 141.84C152.295 141.765 152.114 141.728 151.906 141.728C151.714 141.728 151.538 141.765 151.378 141.84C151.223 141.915 151.09 142.016 150.978 142.144C150.866 142.272 150.778 142.419 150.714 142.584C150.655 142.749 150.626 142.923 150.626 143.104C150.626 143.285 150.655 143.459 150.714 143.624C150.778 143.789 150.866 143.936 150.978 144.064C151.09 144.187 151.223 144.285 151.378 144.36C151.538 144.435 151.714 144.472 151.906 144.472C152.114 144.472 152.295 144.435 152.45 144.36C152.61 144.28 152.743 144.176 152.85 144.048C152.956 143.92 153.036 143.773 153.09 143.608C153.143 143.443 153.17 143.272 153.17 143.096ZM157.768 142.768C157.762 142.619 157.736 142.48 157.688 142.352C157.645 142.219 157.578 142.104 157.488 142.008C157.402 141.912 157.293 141.837 157.16 141.784C157.032 141.725 156.88 141.696 156.704 141.696C156.544 141.696 156.392 141.725 156.248 141.784C156.109 141.837 155.986 141.912 155.88 142.008C155.778 142.104 155.693 142.219 155.624 142.352C155.56 142.48 155.522 142.619 155.512 142.768H157.768ZM158.528 143.072C158.528 143.115 158.528 143.157 158.528 143.2C158.528 143.243 158.525 143.285 158.52 143.328H155.512C155.517 143.488 155.552 143.64 155.616 143.784C155.685 143.923 155.776 144.045 155.888 144.152C156 144.253 156.128 144.333 156.272 144.392C156.421 144.451 156.578 144.48 156.744 144.48C157 144.48 157.221 144.424 157.408 144.312C157.594 144.2 157.741 144.064 157.848 143.904L158.376 144.328C158.173 144.595 157.933 144.792 157.656 144.92C157.384 145.043 157.08 145.104 156.744 145.104C156.456 145.104 156.189 145.056 155.944 144.96C155.698 144.864 155.488 144.731 155.312 144.56C155.136 144.384 154.997 144.173 154.896 143.928C154.794 143.683 154.744 143.411 154.744 143.112C154.744 142.819 154.792 142.549 154.888 142.304C154.989 142.053 155.128 141.84 155.304 141.664C155.48 141.488 155.688 141.352 155.928 141.256C156.168 141.155 156.426 141.104 156.704 141.104C156.981 141.104 157.232 141.149 157.456 141.24C157.685 141.331 157.877 141.461 158.032 141.632C158.192 141.803 158.314 142.011 158.4 142.256C158.485 142.496 158.528 142.768 158.528 143.072ZM160.258 141.208C160.268 141.304 160.276 141.413 160.282 141.536C160.287 141.653 160.29 141.752 160.29 141.832H160.314C160.362 141.731 160.426 141.637 160.506 141.552C160.591 141.461 160.687 141.384 160.794 141.32C160.9 141.251 161.018 141.197 161.146 141.16C161.274 141.123 161.407 141.104 161.546 141.104C161.791 141.104 162.002 141.147 162.178 141.232C162.354 141.312 162.5 141.421 162.618 141.56C162.735 141.699 162.82 141.861 162.874 142.048C162.932 142.235 162.962 142.435 162.962 142.648V145H162.21V142.896C162.21 142.741 162.196 142.595 162.17 142.456C162.148 142.317 162.106 142.195 162.042 142.088C161.978 141.981 161.89 141.896 161.778 141.832C161.666 141.768 161.522 141.736 161.346 141.736C161.047 141.736 160.802 141.851 160.61 142.08C160.423 142.304 160.33 142.605 160.33 142.984V145H159.578V142.024C159.578 141.923 159.575 141.792 159.57 141.632C159.564 141.472 159.556 141.331 159.546 141.208H160.258ZM168.074 143.096C168.074 143.389 168.021 143.659 167.914 143.904C167.813 144.149 167.669 144.363 167.482 144.544C167.301 144.72 167.085 144.859 166.834 144.96C166.583 145.056 166.314 145.104 166.026 145.104C165.738 145.104 165.469 145.056 165.218 144.96C164.967 144.859 164.751 144.72 164.57 144.544C164.389 144.363 164.245 144.149 164.138 143.904C164.037 143.659 163.986 143.389 163.986 143.096C163.986 142.803 164.037 142.536 164.138 142.296C164.245 142.051 164.389 141.84 164.57 141.664C164.751 141.488 164.967 141.352 165.218 141.256C165.469 141.155 165.738 141.104 166.026 141.104C166.314 141.104 166.583 141.155 166.834 141.256C167.085 141.352 167.301 141.488 167.482 141.664C167.669 141.84 167.813 142.051 167.914 142.296C168.021 142.536 168.074 142.803 168.074 143.096ZM167.29 143.096C167.29 142.915 167.261 142.741 167.202 142.576C167.149 142.411 167.069 142.267 166.962 142.144C166.855 142.016 166.722 141.915 166.562 141.84C166.407 141.765 166.229 141.728 166.026 141.728C165.823 141.728 165.642 141.765 165.482 141.84C165.327 141.915 165.197 142.016 165.09 142.144C164.983 142.267 164.901 142.411 164.842 142.576C164.789 142.741 164.762 142.915 164.762 143.096C164.762 143.277 164.789 143.451 164.842 143.616C164.901 143.781 164.983 143.928 165.09 144.056C165.197 144.184 165.327 144.285 165.482 144.36C165.642 144.435 165.823 144.472 166.026 144.472C166.229 144.472 166.407 144.435 166.562 144.36C166.722 144.285 166.855 144.184 166.962 144.056C167.069 143.928 167.149 143.781 167.202 143.616C167.261 143.451 167.29 143.277 167.29 143.096ZM171.165 142.168C171.079 142.029 170.959 141.917 170.805 141.832C170.65 141.741 170.477 141.696 170.285 141.696C170.199 141.696 170.114 141.707 170.029 141.728C169.943 141.744 169.866 141.773 169.797 141.816C169.733 141.853 169.679 141.904 169.637 141.968C169.599 142.027 169.581 142.101 169.581 142.192C169.581 142.352 169.653 142.472 169.797 142.552C169.941 142.627 170.157 142.696 170.445 142.76C170.626 142.803 170.794 142.853 170.949 142.912C171.103 142.971 171.237 143.045 171.349 143.136C171.466 143.221 171.557 143.325 171.621 143.448C171.685 143.571 171.717 143.715 171.717 143.88C171.717 144.104 171.674 144.293 171.589 144.448C171.503 144.603 171.389 144.731 171.245 144.832C171.106 144.928 170.946 144.997 170.765 145.04C170.583 145.083 170.397 145.104 170.205 145.104C169.917 145.104 169.634 145.048 169.357 144.936C169.085 144.824 168.858 144.653 168.677 144.424L169.213 143.968C169.314 144.117 169.453 144.243 169.629 144.344C169.81 144.445 170.007 144.496 170.221 144.496C170.317 144.496 170.407 144.488 170.493 144.472C170.583 144.451 170.663 144.419 170.733 144.376C170.807 144.333 170.866 144.277 170.909 144.208C170.951 144.139 170.973 144.051 170.973 143.944C170.973 143.768 170.887 143.637 170.717 143.552C170.551 143.467 170.306 143.387 169.981 143.312C169.853 143.28 169.722 143.243 169.589 143.2C169.461 143.152 169.343 143.088 169.237 143.008C169.13 142.928 169.042 142.829 168.973 142.712C168.909 142.589 168.877 142.44 168.877 142.264C168.877 142.061 168.917 141.888 168.997 141.744C169.082 141.595 169.191 141.475 169.325 141.384C169.458 141.288 169.61 141.219 169.781 141.176C169.951 141.128 170.127 141.104 170.309 141.104C170.581 141.104 170.842 141.157 171.093 141.264C171.349 141.371 171.546 141.525 171.685 141.728L171.165 142.168Z" fill="#4B5563"/>
<rect x="69" y="156" width="166" height="14" rx="4" fill="#EFF1F2"/>
<rect x="69" y="202" width="166" height="14" rx="4" fill="#EFF1F2"/>
<rect x="69" y="179" width="166" height="14" rx="4" fill="#EFF1F2"/>
<line x1="56" y1="130.9" x2="248" y2="130.9" stroke="#EFF1F2" stroke-width="0.2"/>
<circle cx="70.5" cy="120.5" r="2.5" fill="#ED695F"/>
<circle cx="80.1152" cy="120.5" r="2.5" fill="#F4BD4F"/>
<circle cx="89.731" cy="120.5" r="2.5" fill="#62C454"/>
<rect x="296.5" y="81.5" width="239" height="136" rx="23.5" stroke="#EFEFEF"/>
<path d="M136.912 229.432V239.544H142V241H135.344V229.432H136.912ZM144.183 231.32C143.639 231.32 143.191 230.872 143.191 230.328C143.191 229.768 143.639 229.336 144.183 229.336C144.727 229.336 145.175 229.768 145.175 230.328C145.175 230.872 144.727 231.32 144.183 231.32ZM143.447 241V233.176H144.951V241H143.447ZM146.639 236.888C146.639 234.68 148.063 232.952 150.335 232.952C151.599 232.952 152.575 233.528 153.071 234.504L153.183 233.176H154.527V240.68C154.527 243.144 153.007 244.712 150.607 244.712C148.479 244.712 147.023 243.512 146.735 241.528H148.239C148.431 242.68 149.295 243.352 150.607 243.352C152.079 243.352 153.039 242.392 153.039 240.904V239.336C152.527 240.248 151.503 240.792 150.271 240.792C148.047 240.792 146.639 239.08 146.639 236.888ZM148.143 236.856C148.143 238.328 149.055 239.48 150.527 239.48C152.047 239.48 152.975 238.392 152.975 236.856C152.975 235.352 152.079 234.264 150.543 234.264C149.039 234.264 148.143 235.416 148.143 236.856ZM158.201 240.984H156.697V229.224H158.201V234.376C158.697 233.528 159.641 232.952 160.857 232.952C162.857 232.952 163.817 234.216 163.817 236.216V241H162.313V236.552C162.313 234.968 161.561 234.328 160.441 234.328C158.985 234.328 158.201 235.384 158.201 236.728V240.984ZM168.109 241H166.605V234.44H165.069V233.176H166.605V230.728H168.109V233.176H169.645V234.44H168.109V241Z" fill="#4B5563"/>
<path d="M404.168 241H400.344V229.432H404.104C407.56 229.432 409.896 231.768 409.896 235.224C409.896 238.664 407.592 241 404.168 241ZM403.992 230.872H401.912V239.544H404.056C406.632 239.544 408.264 237.88 408.264 235.224C408.264 232.536 406.632 230.872 403.992 230.872ZM413.923 241.192C412.243 241.192 411.251 240.248 411.251 238.824C411.251 237.384 412.323 236.488 414.163 236.344L416.627 236.152V235.928C416.627 234.616 415.843 234.152 414.787 234.152C413.523 234.152 412.803 234.712 412.803 235.656H411.491C411.491 234.024 412.835 232.952 414.851 232.952C416.787 232.952 418.099 233.976 418.099 236.088V241H416.819L416.659 239.736C416.259 240.632 415.187 241.192 413.923 241.192ZM414.355 240.024C415.779 240.024 416.643 239.096 416.643 237.624V237.208L414.643 237.368C413.315 237.496 412.771 238.008 412.771 238.776C412.771 239.608 413.379 240.024 414.355 240.024ZM424.662 233.112V234.488H423.99C422.566 234.488 421.686 235.352 421.686 236.856V241H420.182V233.192H421.59L421.686 234.376C422.006 233.56 422.79 233.016 423.862 233.016C424.134 233.016 424.358 233.048 424.662 233.112ZM427.608 241H426.104V229.224H427.608V236.856L431.08 233.176H432.968L429.976 236.296L432.952 241H431.224L428.936 237.384L427.608 238.776V241Z" fill="#4B5563"/>
<rect x="32" y="24" width="96" height="41" rx="20.5" fill="#9FD39E"/>
<path d="M50.336 38.808V36.648H63.128V38.808H57.92V54H55.568V38.808H50.336ZM68.2741 54.288C64.8181 54.288 62.4421 51.792 62.4421 48.144C62.4421 44.472 64.7701 41.928 68.1781 41.928C71.5141 41.928 73.6981 44.232 73.6981 47.712V48.552L64.6261 48.576C64.7941 51.048 66.0901 52.416 68.3221 52.416C70.0741 52.416 71.2261 51.696 71.6101 50.352H73.7221C73.1461 52.872 71.1781 54.288 68.2741 54.288ZM68.1781 43.824C66.2101 43.824 64.9621 45 64.6741 47.064H71.4421C71.4421 45.12 70.1701 43.824 68.1781 43.824ZM78.4739 54H76.2179V42.264H78.2339L78.4499 43.8C79.0499 42.696 80.2979 41.928 81.9539 41.928C83.7779 41.928 85.0739 42.84 85.6739 44.304C86.2259 42.84 87.6419 41.928 89.4659 41.928C92.1539 41.928 93.7859 43.608 93.7859 46.32V54H91.5779V46.872C91.5779 45.024 90.5459 43.968 88.9619 43.968C87.2579 43.968 86.1299 45.168 86.1299 47.04V54H83.8979V46.848C83.8979 45 82.8899 43.992 81.3059 43.992C79.6019 43.992 78.4739 45.168 78.4739 47.04V54ZM100.345 54.288C97.8253 54.288 96.3373 52.872 96.3373 50.736C96.3373 48.576 97.9453 47.232 100.705 47.016L104.401 46.728V46.392C104.401 44.424 103.225 43.728 101.641 43.728C99.7453 43.728 98.6653 44.568 98.6653 45.984H96.6973C96.6973 43.536 98.7133 41.928 101.737 41.928C104.641 41.928 106.609 43.464 106.609 46.632V54H104.689L104.449 52.104C103.849 53.448 102.241 54.288 100.345 54.288ZM100.993 52.536C103.129 52.536 104.425 51.144 104.425 48.936V48.312L101.425 48.552C99.4333 48.744 98.6173 49.512 98.6173 50.664C98.6173 51.912 99.5293 52.536 100.993 52.536Z" fill="white"/>
</svg>
