<svg width="576" height="245" viewBox="0 0 576 245" fill="none" xmlns="http://www.w3.org/2000/svg">
<rect x="0.5" y="0.5" width="575" height="244" rx="39.5" fill="white"/>
<rect x="0.5" y="0.5" width="575" height="244" rx="39.5" stroke="#E0E0E0"/>
<rect x="304.5" y="81.5" width="239" height="57" rx="15.5" stroke="#EFEFEF"/>
<rect x="304.5" y="163.5" width="239" height="57" rx="15.5" stroke="#EFEFEF"/>
<rect x="32.5" y="81.5" width="239" height="57" rx="15.5" stroke="#EFEFEF"/>
<rect x="234.5" y="99.5" width="21" height="21" rx="10.5" fill="#9A99EA" stroke="#9A99EA"/>
<path d="M242.385 113.99C242.47 114.076 242.587 114.124 242.709 114.124C242.83 114.124 242.947 114.076 243.033 113.99L250.824 106.198C250.868 106.156 250.903 106.105 250.927 106.049C250.951 105.993 250.964 105.933 250.964 105.872C250.965 105.812 250.953 105.751 250.93 105.695C250.907 105.639 250.873 105.587 250.83 105.544C250.787 105.501 250.736 105.467 250.679 105.444C250.623 105.421 250.563 105.41 250.502 105.41C250.441 105.411 250.381 105.423 250.325 105.447C250.269 105.471 250.218 105.506 250.176 105.55L242.709 113.018L240.283 110.592C240.196 110.508 240.08 110.462 239.96 110.463C239.84 110.464 239.725 110.512 239.64 110.597C239.555 110.682 239.507 110.797 239.506 110.917C239.505 111.038 239.551 111.153 239.635 111.24L242.385 113.99Z" fill="white"/>
<rect x="234.5" y="181.5" width="21" height="21" rx="10.5" fill="#9A99EA" stroke="#9A99EA"/>
<path d="M242.385 195.99C242.47 196.076 242.587 196.124 242.709 196.124C242.83 196.124 242.947 196.076 243.033 195.99L250.824 188.198C250.868 188.156 250.903 188.105 250.927 188.049C250.951 187.993 250.964 187.933 250.964 187.872C250.965 187.812 250.953 187.751 250.93 187.695C250.907 187.639 250.873 187.587 250.83 187.544C250.787 187.501 250.736 187.467 250.679 187.444C250.623 187.421 250.563 187.41 250.502 187.41C250.441 187.411 250.381 187.423 250.325 187.447C250.269 187.471 250.218 187.506 250.176 187.55L242.709 195.018L240.283 192.592C240.196 192.508 240.08 192.462 239.96 192.463C239.84 192.464 239.725 192.512 239.64 192.597C239.555 192.682 239.507 192.797 239.506 192.917C239.505 193.038 239.551 193.153 239.635 193.24L242.385 195.99Z" fill="white"/>
<rect x="506.5" y="99.5" width="21" height="21" rx="10.5" fill="#9A99EA" stroke="#9A99EA"/>
<path d="M514.385 113.99C514.47 114.076 514.587 114.124 514.709 114.124C514.83 114.124 514.947 114.076 515.033 113.99L522.824 106.198C522.868 106.156 522.903 106.105 522.927 106.049C522.951 105.993 522.964 105.933 522.964 105.872C522.965 105.812 522.953 105.751 522.93 105.695C522.907 105.639 522.873 105.587 522.83 105.544C522.787 105.501 522.736 105.467 522.679 105.444C522.623 105.421 522.563 105.41 522.502 105.41C522.441 105.411 522.381 105.423 522.325 105.447C522.269 105.471 522.218 105.506 522.176 105.55L514.709 113.018L512.283 110.592C512.196 110.508 512.08 110.462 511.96 110.463C511.84 110.464 511.725 110.512 511.64 110.597C511.555 110.682 511.507 110.797 511.506 110.917C511.505 111.038 511.551 111.153 511.635 111.24L514.385 113.99Z" fill="white"/>
<rect x="506.5" y="181.5" width="21" height="21" rx="10.5" stroke="#9A99EA"/>
<rect x="32.5" y="163.5" width="239" height="57" rx="15.5" stroke="#EFEFEF"/>
<path d="M51.498 118H49.914V102.248H51.52L60.188 115.36V102.248H61.75V118H60.188L51.498 104.888V118ZM64.5196 112.676C64.5196 109.42 66.8076 107.066 69.9316 107.066C73.0556 107.066 75.3436 109.42 75.3436 112.676C75.3436 115.91 73.0556 118.264 69.9316 118.264C66.8076 118.264 64.5196 115.91 64.5196 112.676ZM66.0596 112.654C66.0596 115.162 67.6436 116.9 69.9316 116.9C72.1976 116.9 73.8036 115.162 73.8036 112.654C73.8036 110.19 72.1976 108.43 69.9316 108.43C67.6436 108.43 66.0596 110.19 66.0596 112.654ZM79.2895 118H77.7715V107.352H79.0915L79.2675 108.87C79.7955 107.748 80.9835 107.066 82.4795 107.066C84.1515 107.066 85.4055 107.946 85.9115 109.332C86.3955 107.946 87.6935 107.066 89.4095 107.066C91.7195 107.066 93.2375 108.562 93.2375 111.026V118H91.7635V111.334C91.7635 109.508 90.7515 108.43 89.1235 108.43C87.3415 108.43 86.2855 109.772 86.2855 111.422V118H84.7895V111.312C84.7895 109.508 83.7555 108.452 82.1495 108.452C80.3675 108.452 79.2895 109.772 79.2895 111.4V118ZM97.611 118H96.291V101.962H97.809V109.42C98.557 107.858 100.009 107.066 101.813 107.066C104.915 107.066 106.719 109.486 106.719 112.698C106.719 115.888 104.871 118.264 101.769 118.264C99.987 118.264 98.513 117.472 97.765 115.822L97.611 118ZM97.831 112.654C97.831 115.118 99.195 116.878 101.527 116.878C103.837 116.878 105.179 115.118 105.179 112.654C105.179 110.212 103.837 108.43 101.527 108.43C99.195 108.43 97.831 110.212 97.831 112.654ZM114.705 107.22V108.584H113.869C111.911 108.584 110.657 109.904 110.657 111.928V118H109.139V107.352H110.569L110.679 109.002C111.097 107.858 112.219 107.11 113.715 107.11C114.045 107.11 114.331 107.132 114.705 107.22ZM120.78 118.264C117.656 118.264 115.566 116.02 115.566 112.676C115.566 109.354 117.634 107.066 120.67 107.066C123.552 107.066 125.51 109.112 125.51 112.126V112.874H117.04C117.15 115.47 118.514 116.966 120.802 116.966C122.54 116.966 123.662 116.218 124.058 114.81H125.51C124.938 117.054 123.288 118.264 120.78 118.264ZM120.67 108.364C118.668 108.364 117.348 109.684 117.084 111.774H123.992C123.992 109.728 122.672 108.364 120.67 108.364Z" fill="#4B5563"/>
<path d="M59.352 200H49.914V184.248H59.33V185.7H51.498V191.376H58.604V192.806H51.498V198.548H59.352V200ZM63.7563 200H62.2383V189.352H63.5583L63.7343 190.87C64.2623 189.748 65.4503 189.066 66.9463 189.066C68.6183 189.066 69.8723 189.946 70.3783 191.332C70.8623 189.946 72.1603 189.066 73.8763 189.066C76.1863 189.066 77.7043 190.562 77.7043 193.026V200H76.2303V193.334C76.2303 191.508 75.2183 190.43 73.5903 190.43C71.8083 190.43 70.7523 191.772 70.7523 193.422V200H69.2563V193.312C69.2563 191.508 68.2223 190.452 66.6163 190.452C64.8343 190.452 63.7563 191.772 63.7563 193.4V200ZM83.8158 200.264C81.5498 200.264 80.2078 198.988 80.2078 197.118C80.2078 195.16 81.7038 193.928 84.1898 193.73L87.7098 193.444V193.092C87.7098 191.002 86.4558 190.342 84.8938 190.342C83.0458 190.342 81.9458 191.178 81.9458 192.608H80.5598C80.5598 190.452 82.3198 189.066 84.9378 189.066C87.4018 189.066 89.2058 190.298 89.2058 193.114V200H87.9298L87.7318 198.13C87.0718 199.472 85.6198 200.264 83.8158 200.264ZM84.1678 199.032C86.4118 199.032 87.7098 197.47 87.7098 195.16V194.588L84.5638 194.83C82.5618 195.006 81.7478 195.886 81.7478 197.074C81.7478 198.372 82.7158 199.032 84.1678 199.032ZM93 186.426C92.384 186.426 91.878 185.92 91.878 185.304C91.878 184.688 92.384 184.16 93 184.16C93.616 184.16 94.144 184.688 94.144 185.304C94.144 185.92 93.616 186.426 93 186.426ZM92.252 200V189.352H93.77V200H92.252ZM98.5196 200H97.0016V183.962H98.5196V200Z" fill="#4B5563"/>
<path d="M331.352 118H321.914V102.248H331.33V103.7H323.498V109.376H330.604V110.806H323.498V116.548H331.352V118ZM335.756 118H334.238V107.352H335.558L335.734 108.87C336.262 107.748 337.45 107.066 338.946 107.066C340.618 107.066 341.872 107.946 342.378 109.332C342.862 107.946 344.16 107.066 345.876 107.066C348.186 107.066 349.704 108.562 349.704 111.026V118H348.23V111.334C348.23 109.508 347.218 108.43 345.59 108.43C343.808 108.43 342.752 109.772 342.752 111.422V118H341.256V111.312C341.256 109.508 340.222 108.452 338.616 108.452C336.834 108.452 335.756 109.772 335.756 111.4V118ZM352.758 122.642V107.352H354.078L354.232 109.508C354.98 107.858 356.476 107.066 358.258 107.066C361.338 107.066 363.186 109.42 363.186 112.632C363.186 115.844 361.404 118.264 358.258 118.264C356.454 118.264 355.024 117.494 354.276 115.954V122.642H352.758ZM354.298 112.676C354.298 115.118 355.662 116.9 357.994 116.9C360.304 116.9 361.646 115.118 361.646 112.676C361.646 110.212 360.304 108.452 357.994 108.452C355.662 108.452 354.298 110.212 354.298 112.676ZM371.171 107.22V108.584H370.335C368.377 108.584 367.123 109.904 367.123 111.928V118H365.605V107.352H367.035L367.145 109.002C367.563 107.858 368.685 107.11 370.181 107.11C370.511 107.11 370.797 107.132 371.171 107.22ZM377.247 118.264C374.123 118.264 372.033 116.02 372.033 112.676C372.033 109.354 374.101 107.066 377.137 107.066C380.019 107.066 381.977 109.112 381.977 112.126V112.874H373.507C373.617 115.47 374.981 116.966 377.269 116.966C379.007 116.966 380.129 116.218 380.525 114.81H381.977C381.405 117.054 379.755 118.264 377.247 118.264ZM377.137 108.364C375.135 108.364 373.815 109.684 373.551 111.774H380.459C380.459 109.728 379.139 108.364 377.137 108.364ZM383.502 115.008H384.954C384.954 116.24 385.878 117.01 387.374 117.01C389.024 117.01 389.992 116.306 389.992 115.162C389.992 114.282 389.552 113.776 388.298 113.468L386.472 113.006C384.624 112.544 383.722 111.576 383.722 110.124C383.722 108.254 385.284 107.066 387.572 107.066C389.816 107.066 391.268 108.298 391.334 110.278H389.86C389.816 109.046 388.958 108.32 387.528 108.32C386.032 108.32 385.196 108.958 385.196 110.102C385.196 110.916 385.768 111.488 386.934 111.774L388.76 112.236C390.608 112.698 391.444 113.556 391.444 115.096C391.444 117.01 389.816 118.264 387.396 118.264C384.998 118.264 383.502 116.988 383.502 115.008ZM397.001 118.264C394.735 118.264 393.393 116.988 393.393 115.118C393.393 113.16 394.889 111.928 397.375 111.73L400.895 111.444V111.092C400.895 109.002 399.641 108.342 398.079 108.342C396.231 108.342 395.131 109.178 395.131 110.608H393.745C393.745 108.452 395.505 107.066 398.123 107.066C400.587 107.066 402.391 108.298 402.391 111.114V118H401.115L400.917 116.13C400.257 117.472 398.805 118.264 397.001 118.264ZM397.353 117.032C399.597 117.032 400.895 115.47 400.895 113.16V112.588L397.749 112.83C395.747 113.006 394.933 113.886 394.933 115.074C394.933 116.372 395.901 117.032 397.353 117.032Z" fill="#4B5563"/>
<path d="M323.476 200H321.914V184.248H323.476L329.218 198.13L334.96 184.248H336.544V200H334.982V192.52C334.982 189.77 335.026 188.56 335.114 187.482L329.988 200H328.47L323.344 187.548C323.432 188.142 323.476 189.88 323.476 192.278V200ZM344.505 200.264C341.381 200.264 339.291 198.02 339.291 194.676C339.291 191.354 341.359 189.066 344.395 189.066C347.277 189.066 349.235 191.112 349.235 194.126V194.874H340.765C340.875 197.47 342.239 198.966 344.527 198.966C346.265 198.966 347.387 198.218 347.783 196.81H349.235C348.663 199.054 347.013 200.264 344.505 200.264ZM344.395 190.364C342.393 190.364 341.073 191.684 340.809 193.774H347.717C347.717 191.728 346.397 190.364 344.395 190.364ZM353.18 200H351.662V189.352H352.982L353.202 191.2C353.906 189.836 355.314 189.066 356.854 189.066C359.78 189.066 360.99 190.804 360.99 193.488V200H359.472V193.818C359.472 191.332 358.35 190.452 356.59 190.452C354.412 190.452 353.18 192.036 353.18 194.434V200ZM362.985 197.008H364.437C364.437 198.24 365.361 199.01 366.857 199.01C368.507 199.01 369.475 198.306 369.475 197.162C369.475 196.282 369.035 195.776 367.781 195.468L365.955 195.006C364.107 194.544 363.205 193.576 363.205 192.124C363.205 190.254 364.767 189.066 367.055 189.066C369.299 189.066 370.751 190.298 370.817 192.278H369.343C369.299 191.046 368.441 190.32 367.011 190.32C365.515 190.32 364.679 190.958 364.679 192.102C364.679 192.916 365.251 193.488 366.417 193.774L368.243 194.236C370.091 194.698 370.927 195.556 370.927 197.096C370.927 199.01 369.299 200.264 366.879 200.264C364.481 200.264 362.985 198.988 362.985 197.008ZM376.484 200.264C374.218 200.264 372.876 198.988 372.876 197.118C372.876 195.16 374.372 193.928 376.858 193.73L380.378 193.444V193.092C380.378 191.002 379.124 190.342 377.562 190.342C375.714 190.342 374.614 191.178 374.614 192.608H373.228C373.228 190.452 374.988 189.066 377.606 189.066C380.07 189.066 381.874 190.298 381.874 193.114V200H380.598L380.4 198.13C379.74 199.472 378.288 200.264 376.484 200.264ZM376.836 199.032C379.08 199.032 380.378 197.47 380.378 195.16V194.588L377.232 194.83C375.23 195.006 374.416 195.886 374.416 197.074C374.416 198.372 375.384 199.032 376.836 199.032ZM385.69 186.426C385.052 186.426 384.546 185.92 384.546 185.304C384.546 184.688 385.052 184.16 385.69 184.16C386.284 184.16 386.812 184.688 386.812 185.304C386.812 185.92 386.284 186.426 385.69 186.426ZM382.082 204.664L382.368 203.278C382.808 203.388 383.072 203.432 383.402 203.432C384.458 203.432 384.92 202.816 384.92 201.518V189.352H386.438V201.606C386.438 203.63 385.382 204.862 383.512 204.862C382.94 204.862 382.632 204.818 382.082 204.664ZM394.07 200.264C390.946 200.264 388.856 198.02 388.856 194.676C388.856 191.354 390.924 189.066 393.96 189.066C396.842 189.066 398.8 191.112 398.8 194.126V194.874H390.33C390.44 197.47 391.804 198.966 394.092 198.966C395.83 198.966 396.952 198.218 397.348 196.81H398.8C398.228 199.054 396.578 200.264 394.07 200.264ZM393.96 190.364C391.958 190.364 390.638 191.684 390.374 193.774H397.282C397.282 191.728 395.962 190.364 393.96 190.364Z" fill="#4B5563"/>
<rect x="32" y="24" width="127" height="41" rx="20.5" fill="#F4BD4F"/>
<path d="M59.216 54.264C54.272 54.264 50.984 50.712 50.984 45.336C50.984 39.984 54.368 36.36 59.336 36.36C63.248 36.36 66.248 38.688 66.896 42.24H64.376C63.728 39.984 61.784 38.616 59.264 38.616C55.76 38.616 53.456 41.256 53.456 45.312C53.456 49.368 55.76 52.008 59.264 52.008C61.808 52.008 63.824 50.64 64.472 48.504H66.968C66.224 51.96 63.128 54.264 59.216 54.264ZM72.6656 54.288C70.1456 54.288 68.6576 52.872 68.6576 50.736C68.6576 48.576 70.2656 47.232 73.0256 47.016L76.7216 46.728V46.392C76.7216 44.424 75.5456 43.728 73.9616 43.728C72.0656 43.728 70.9856 44.568 70.9856 45.984H69.0176C69.0176 43.536 71.0336 41.928 74.0576 41.928C76.9616 41.928 78.9296 43.464 78.9296 46.632V54H77.0096L76.7696 52.104C76.1696 53.448 74.5616 54.288 72.6656 54.288ZM73.3136 52.536C75.4496 52.536 76.7456 51.144 76.7456 48.936V48.312L73.7456 48.552C71.7536 48.744 70.9376 49.512 70.9376 50.664C70.9376 51.912 71.8496 52.536 73.3136 52.536ZM84.3099 54H82.0539V42.264H84.0699L84.2859 43.8C84.8859 42.696 86.1339 41.928 87.7899 41.928C89.6139 41.928 90.9099 42.84 91.5099 44.304C92.0619 42.84 93.4779 41.928 95.3019 41.928C97.9899 41.928 99.6219 43.608 99.6219 46.32V54H97.4139V46.872C97.4139 45.024 96.3819 43.968 94.7979 43.968C93.0939 43.968 91.9659 45.168 91.9659 47.04V54H89.7339V46.848C89.7339 45 88.7259 43.992 87.1419 43.992C85.4379 43.992 84.3099 45.168 84.3099 47.04V54ZM102.749 59.256V42.264H104.789L104.957 44.376C105.749 42.768 107.333 41.928 109.205 41.928C112.565 41.928 114.653 44.448 114.653 48.048C114.653 51.624 112.685 54.312 109.205 54.312C107.333 54.312 105.773 53.52 105.005 52.08V59.256H102.749ZM105.029 48.144C105.029 50.544 106.421 52.272 108.725 52.272C111.029 52.272 112.397 50.544 112.397 48.144C112.397 45.72 111.029 43.992 108.725 43.992C106.421 43.992 105.029 45.696 105.029 48.144ZM116.372 48.12C116.372 44.496 118.964 41.952 122.492 41.952C125.996 41.952 128.588 44.496 128.588 48.12C128.588 51.744 125.996 54.288 122.492 54.288C118.964 54.288 116.372 51.744 116.372 48.12ZM118.652 48.12C118.652 50.568 120.212 52.272 122.492 52.272C124.748 52.272 126.332 50.568 126.332 48.12C126.332 45.672 124.748 43.968 122.492 43.968C120.212 43.968 118.652 45.672 118.652 48.12ZM130.125 50.592H132.285C132.285 51.792 133.197 52.512 134.685 52.512C136.269 52.512 137.181 51.864 137.181 50.784C137.181 49.992 136.797 49.512 135.573 49.2L133.509 48.72C131.421 48.216 130.437 47.184 130.437 45.456C130.437 43.296 132.261 41.928 134.853 41.928C137.421 41.928 139.101 43.368 139.149 45.6H136.989C136.941 44.424 136.149 43.68 134.781 43.68C133.365 43.68 132.573 44.304 132.573 45.384C132.573 46.176 133.149 46.704 134.301 46.992L136.365 47.496C138.357 47.976 139.341 48.888 139.341 50.64C139.341 52.872 137.421 54.288 134.637 54.288C131.877 54.288 130.125 52.824 130.125 50.592Z" fill="white"/>
</svg>
