<svg width="592" height="185" viewBox="0 0 592 185" fill="none" xmlns="http://www.w3.org/2000/svg">
<rect x="0.5" y="0.5" width="591" height="184" rx="39.5" fill="white"/>
<rect x="0.5" y="0.5" width="591" height="184" rx="39.5" stroke="#E0E0E0"/>
<rect x="32" y="24" width="145" height="41" rx="20.5" fill="#91D8D8"/>
<path d="M54.368 36.648V54H52.016V36.648H54.368ZM60.3344 54H58.0784V36.336H60.3344V54ZM71.7674 42.264H73.9994V54H71.9834L71.7434 52.224C71.0714 53.448 69.5114 54.288 67.7834 54.288C65.0474 54.288 63.5114 52.44 63.5114 49.56V42.264H65.7674V48.816C65.7674 51.336 66.8474 52.296 68.5754 52.296C70.6394 52.296 71.7674 50.976 71.7674 48.456V42.264ZM76.0783 50.592H78.2383C78.2383 51.792 79.1503 52.512 80.6383 52.512C82.2223 52.512 83.1343 51.864 83.1343 50.784C83.1343 49.992 82.7503 49.512 81.5263 49.2L79.4623 48.72C77.3743 48.216 76.3903 47.184 76.3903 45.456C76.3903 43.296 78.2143 41.928 80.8063 41.928C83.3743 41.928 85.0543 43.368 85.1023 45.6H82.9423C82.8943 44.424 82.1023 43.68 80.7343 43.68C79.3183 43.68 78.5263 44.304 78.5263 45.384C78.5263 46.176 79.1023 46.704 80.2543 46.992L82.3183 47.496C84.3103 47.976 85.2943 48.888 85.2943 50.64C85.2943 52.872 83.3743 54.288 80.5903 54.288C77.8303 54.288 76.0783 52.824 76.0783 50.592ZM91.1081 54H88.8521V44.16H86.5481V42.264H88.8521V38.592H91.1081V42.264H93.4121V44.16H91.1081V54ZM102.157 42.168V44.232H101.149C99.0127 44.232 97.6927 45.528 97.6927 47.784V54H95.4367V42.288H97.5487L97.6927 44.064C98.1727 42.84 99.3487 42.024 100.957 42.024C101.365 42.024 101.701 42.072 102.157 42.168ZM107.236 54.288C104.716 54.288 103.228 52.872 103.228 50.736C103.228 48.576 104.836 47.232 107.596 47.016L111.292 46.728V46.392C111.292 44.424 110.116 43.728 108.532 43.728C106.636 43.728 105.556 44.568 105.556 45.984H103.588C103.588 43.536 105.604 41.928 108.628 41.928C111.532 41.928 113.5 43.464 113.5 46.632V54H111.58L111.34 52.104C110.74 53.448 109.132 54.288 107.236 54.288ZM107.884 52.536C110.02 52.536 111.316 51.144 111.316 48.936V48.312L108.316 48.552C106.324 48.744 105.508 49.512 105.508 50.664C105.508 51.912 106.42 52.536 107.884 52.536ZM115.856 48.144C115.856 44.472 118.184 41.928 121.616 41.928C124.568 41.928 126.632 43.608 127.04 46.224H124.784C124.4 44.736 123.2 43.944 121.688 43.944C119.552 43.944 118.088 45.576 118.088 48.12C118.088 50.64 119.456 52.272 121.592 52.272C123.2 52.272 124.4 51.432 124.808 50.04H127.064C126.608 52.584 124.424 54.288 121.592 54.288C118.136 54.288 115.856 51.84 115.856 48.144ZM130.549 39.48C129.733 39.48 129.061 38.808 129.061 37.992C129.061 37.152 129.733 36.504 130.549 36.504C131.365 36.504 132.037 37.152 132.037 37.992C132.037 38.808 131.365 39.48 130.549 39.48ZM129.445 54V42.264H131.701V54H129.445ZM143.304 37.704L141.216 40.896H139.488L141.096 37.704H143.304ZM134.208 48.12C134.208 44.496 136.8 41.952 140.328 41.952C143.832 41.952 146.424 44.496 146.424 48.12C146.424 51.744 143.832 54.288 140.328 54.288C136.8 54.288 134.208 51.744 134.208 48.12ZM136.488 48.12C136.488 50.568 138.048 52.272 140.328 52.272C142.584 52.272 144.168 50.568 144.168 48.12C144.168 45.672 142.584 43.968 140.328 43.968C138.048 43.968 136.488 45.672 136.488 48.12ZM151.177 54H148.921V42.264H150.961L151.201 44.064C151.945 42.72 153.433 41.928 155.089 41.928C158.185 41.928 159.601 43.824 159.601 46.824V54H157.345V47.328C157.345 44.952 156.241 43.992 154.513 43.992C152.401 43.992 151.177 45.504 151.177 47.784V54Z" fill="white"/>
<rect x="32.5" y="81.5" width="79" height="79" rx="7.5" stroke="#EFEFEF"/>
<rect x="144.5" y="81.5" width="79" height="79" rx="7.5" stroke="#EFEFEF"/>
<rect x="256.5" y="81.5" width="79" height="79" rx="7.5" stroke="#EFEFEF"/>
<rect x="368.5" y="81.5" width="79" height="79" rx="7.5" stroke="#EFEFEF"/>
<rect x="480.5" y="81.5" width="79" height="79" rx="7.5" stroke="#EFEFEF"/>
<path d="M520.444 137V105ZM504 121H536.889Z" fill="#8A8A8D"/>
<path d="M520.444 137V105M504 121H536.889" stroke="#8A8A8D" stroke-opacity="0.3" stroke-width="2" stroke-miterlimit="10" stroke-linecap="round" stroke-linejoin="round"/>
<path d="M72 103C68.4399 103 64.9598 104.056 61.9997 106.034C59.0397 108.011 56.7326 110.823 55.3702 114.112C54.0078 117.401 53.6513 121.02 54.3459 124.512C55.0404 128.003 56.7547 131.211 59.2721 133.728C61.7894 136.245 64.9967 137.96 68.4884 138.654C71.98 139.349 75.5992 138.992 78.8883 137.63C82.1774 136.267 84.9886 133.96 86.9665 131C88.9443 128.04 90 124.56 90 121C90 116.226 88.1036 111.648 84.7279 108.272C81.3523 104.896 76.7739 103 72 103ZM80.49 117.385L72 125.86C71.1563 126.703 70.0125 127.176 68.82 127.176C67.6275 127.176 66.4838 126.703 65.64 125.86L63.51 123.745C63.3702 123.605 63.2592 123.439 63.1835 123.256C63.1078 123.074 63.0689 122.878 63.0689 122.68C63.0689 122.482 63.1078 122.286 63.1835 122.104C63.2592 121.921 63.3702 121.755 63.51 121.615C63.6499 121.475 63.8159 121.364 63.9986 121.289C64.1814 121.213 64.3772 121.174 64.575 121.174C64.7728 121.174 64.9686 121.213 65.1514 121.289C65.3341 121.364 65.5002 121.475 65.64 121.615L67.755 123.745C67.8945 123.886 68.0604 123.997 68.2431 124.073C68.4259 124.149 68.622 124.189 68.82 124.189C69.018 124.189 69.2141 124.149 69.3969 124.073C69.5797 123.997 69.7456 123.886 69.885 123.745L78.36 115.255C78.4999 115.115 78.6659 115.004 78.8486 114.929C79.0314 114.853 79.2272 114.814 79.425 114.814C79.6228 114.814 79.8186 114.853 80.0014 114.929C80.1841 115.004 80.3502 115.115 80.49 115.255C80.6299 115.395 80.7408 115.561 80.8165 115.744C80.8922 115.926 80.9311 116.122 80.9311 116.32C80.9311 116.518 80.8922 116.714 80.8165 116.896C80.7408 117.079 80.6299 117.245 80.49 117.385Z" fill="#95BF48"/>
<path d="M166 102.5C164.067 102.5 162.5 104.067 162.5 106V125.4C162.5 127.333 164.067 128.9 166 128.9H198C199.933 128.9 201.5 127.333 201.5 125.4V106C201.5 104.067 199.933 102.5 198 102.5H166Z" fill="#FFC44D"/>
<path fill-rule="evenodd" clip-rule="evenodd" d="M201.377 105.076C200.971 103.592 199.613 102.5 198 102.5H166C164.387 102.5 163.028 103.591 162.623 105.076L164.005 106.104C164.021 106.115 164.037 106.127 164.053 106.138L181.153 117.838C181.664 118.187 182.337 118.187 182.847 117.838L199.947 106.138C199.963 106.127 199.979 106.115 199.995 106.104L201.377 105.076Z" fill="#FFD071"/>
<path d="M194 116.5C187.649 116.5 182.5 121.649 182.5 128C182.5 134.351 187.649 139.5 194 139.5C200.351 139.5 205.5 134.351 205.5 128C205.5 121.649 200.351 116.5 194 116.5Z" fill="#ECEFF1"/>
<path fill-rule="evenodd" clip-rule="evenodd" d="M198.872 122.78C199.546 123.261 199.702 124.198 199.221 124.872L194.221 131.872C193.986 132.201 193.629 132.421 193.229 132.483C192.83 132.544 192.423 132.443 192.1 132.2L188.1 129.2C187.437 128.703 187.303 127.763 187.8 127.1C188.297 126.437 189.237 126.303 189.9 126.8L192.672 128.879L196.779 123.128C197.261 122.454 198.198 122.298 198.872 122.78Z" fill="#8BC94D"/>
<path d="M317.456 132.011C319.495 130.529 318.954 127.236 318.887 124.615C318.838 122.66 318.788 120.706 318.737 118.751C318.597 113.339 319.362 108.553 312.954 108.881C299.613 109.566 294.183 107.901 290.586 110.712C289.258 111.751 289.337 113.41 289.232 114.96C288.987 118.581 289.026 123.999 289.211 127.227C289.289 128.588 289.486 130.038 290.528 130.991C291 131.933 291.759 132.646 292.989 132.878C294.274 133.12 309.379 133.211 312.732 133.06C314.158 132.995 316.039 132.917 317.294 132.121C317.359 132.103 317.416 132.065 317.456 132.011ZM289.219 121.698C289.2 119.229 289.241 116.766 289.437 114.295C289.511 113.356 289.49 112.218 290.076 111.428C292.522 108.126 299.926 109.642 309.3 109.34C312.128 109.25 316.617 108.219 317.853 111.55C316.157 109.125 313.321 109.88 307.269 109.942C303.848 109.977 300.422 110.003 297.001 109.977C294.715 109.959 290.983 110.02 290.068 112.696C289.566 114.165 289.671 123.509 289.714 125.078C289.759 126.739 289.675 129.083 290.428 130.783C289.133 129.365 289.265 127.541 289.22 121.698L289.219 121.698ZM317.157 111.799C309.436 120.069 308.411 123.153 304.382 123.051C301.284 122.973 298.452 120.875 296.207 118.927C292.458 115.673 292.008 114.118 290.64 113.045C291.477 110.584 294.929 110.597 297.218 110.635C299.884 110.678 307.749 110.629 310.391 110.547C312.886 110.469 315.688 109.954 317.157 111.799ZM292.308 132.136C290.01 130.711 290.322 126.706 290.273 123.701C290.239 121.559 290.171 115.743 290.503 113.616C291.134 114.774 293.927 117.688 294.977 118.658C297.029 120.555 299.653 122.581 302.355 123.351C301.608 123.889 300.953 124.626 300.283 125.235C293.304 131.581 292.368 131.872 292.308 132.136ZM312.704 132.54C308.286 132.904 296.5 132.648 293.062 132.471C293.006 132.452 292.892 132.424 292.661 132.322C294.855 130.594 301.677 124.775 302.649 123.429C304.153 123.805 305.719 123.792 307.175 123.14C308.608 124.695 310.253 126.107 311.778 127.569C313.332 129.059 314.907 130.531 316.659 131.785C315.489 132.378 313.978 132.435 312.704 132.54V132.54ZM307.577 122.944C309.315 122.01 310.494 120.359 311.761 118.897C313.659 116.706 315.833 114.603 317.398 112.146C318.188 113.471 317.953 115.65 318.022 118.332C318.269 127.845 318.713 130.143 317.183 131.443C312.677 127.958 310.226 124.634 307.577 122.944Z" fill="#E8B140"/>
<path d="M315.868 119.137C315.839 119.085 315.772 119.124 315.779 119.175C315.976 120.602 315.874 122.384 316.452 123.716C316.491 123.805 316.617 123.763 316.611 123.671C316.55 122.765 316.446 121.855 316.364 120.95C316.306 120.296 316.183 119.715 315.868 119.137ZM301.525 131.326C300.03 131.347 298.495 131.242 297.006 131.411C296.821 131.431 298.322 131.935 301.53 131.395C301.569 131.388 301.564 131.326 301.525 131.326H301.525ZM297.162 111.251C294.784 110.765 292.474 112.49 292.709 112.393C293.425 112.098 294.099 111.748 294.861 111.572C295.62 111.396 296.382 111.432 297.15 111.346C297.199 111.34 297.221 111.262 297.162 111.251ZM307.709 120.722C307.636 120.83 309.321 119.271 310.595 117.532C310.923 117.086 309.192 118.537 307.709 120.722ZM287.791 113.727C286.243 113.482 284.625 113.497 283.061 113.402C281.506 113.306 279.859 113.024 278.305 113.161C278.006 113.187 277.985 113.582 278.261 113.668C279.747 114.134 281.45 114.152 282.998 114.25C284.577 114.351 286.221 114.482 287.796 114.285C288.12 114.244 288.102 113.776 287.791 113.727ZM287.756 121.397C285.399 122.085 280.689 122.2 278.232 122.497C278.044 122.519 278.072 122.802 278.25 122.82C279.904 122.987 281.588 122.87 283.237 122.703C284.775 122.547 286.56 122.48 287.9 121.647C288.05 121.554 287.901 121.354 287.756 121.397V121.397ZM273.08 126.57C272.973 126.586 272.97 126.766 273.076 126.784C275.524 127.221 278.206 126.869 280.663 126.66C281.989 126.548 283.314 126.411 284.64 126.295C285.914 126.184 287.216 126.164 288.474 125.928C288.762 125.874 288.814 125.411 288.484 125.384C285.747 125.159 284.106 125.696 277.288 126.258C275.892 126.373 274.465 126.362 273.08 126.57ZM287.938 117.842C286.887 117.661 285.766 117.836 284.703 117.854C283.528 117.873 282.296 117.78 281.132 117.956C280.969 117.981 280.969 118.201 281.125 118.238C282.258 118.51 283.518 118.467 284.678 118.454C285.747 118.442 286.916 118.521 287.947 118.205C288.118 118.152 288.13 117.875 287.938 117.842ZM284.307 130.113C285.376 130.102 286.545 130.18 287.576 129.864C287.746 129.812 287.758 129.534 287.567 129.501C286.516 129.32 285.395 129.496 284.332 129.513C283.156 129.532 281.925 129.439 280.761 129.615C280.597 129.64 280.597 129.86 280.753 129.898C281.887 130.169 283.147 130.126 284.307 130.113Z" fill="#E8B140"/>
<g clip-path="url(#clip0_1410_842)">
<path d="M420.523 130.79C420.497 130.79 420.497 130.79 420.471 130.764C420.445 130.738 420.445 130.712 420.471 130.686C420.68 130.503 420.862 130.321 421.019 130.138C421.045 130.112 421.071 130.112 421.097 130.138C421.123 130.164 421.123 130.191 421.097 130.216C420.914 130.399 420.732 130.607 420.549 130.764C420.549 130.79 420.523 130.79 420.523 130.79ZM390.991 125.916C390.964 125.916 390.964 125.916 390.938 125.89L390.886 125.811C390.756 125.629 390.652 125.42 390.547 125.212C390.547 125.186 390.547 125.16 390.573 125.134C390.6 125.134 390.626 125.134 390.652 125.16C390.756 125.368 390.86 125.577 390.964 125.759L391.017 125.837C391.043 125.864 391.017 125.89 390.991 125.916ZM390.235 124.273C390.209 124.273 390.182 124.247 390.182 124.247C390.104 123.987 390.052 123.752 390 123.491C390 123.465 390.026 123.439 390.052 123.439C390.078 123.439 390.104 123.465 390.104 123.491C390.156 123.752 390.209 123.987 390.287 124.247C390.287 124.221 390.261 124.247 390.235 124.273ZM392.346 117.861C392.32 117.861 392.32 117.861 392.294 117.835C392.268 117.809 392.294 117.783 392.32 117.757C392.528 117.627 392.763 117.522 393.024 117.392C393.05 117.392 393.076 117.392 393.102 117.418C393.102 117.444 393.102 117.47 393.076 117.496C392.841 117.601 392.607 117.731 392.372 117.835L392.346 117.861ZM394.014 117.157C393.988 117.157 393.962 117.131 393.962 117.131C393.962 117.105 393.962 117.079 393.988 117.053C394.223 116.975 394.457 116.923 394.744 116.845C394.77 116.845 394.796 116.845 394.796 116.871C394.796 116.897 394.796 116.923 394.77 116.923C394.509 117.001 394.249 117.079 394.014 117.157ZM411.948 114.707C411.922 114.707 411.922 114.707 411.896 114.681C411.87 114.655 411.896 114.629 411.922 114.603C412.156 114.473 412.365 114.316 412.573 114.16C412.599 114.134 412.625 114.16 412.652 114.16C412.677 114.186 412.652 114.212 412.652 114.238C412.443 114.394 412.234 114.551 412 114.681L411.948 114.707ZM413.355 113.56C413.355 113.56 413.329 113.56 413.329 113.534C413.303 113.508 413.303 113.482 413.329 113.456C413.512 113.274 413.668 113.065 413.824 112.856C413.85 112.83 413.877 112.83 413.903 112.83C413.929 112.856 413.929 112.883 413.929 112.909C413.772 113.117 413.616 113.326 413.433 113.534C413.381 113.56 413.381 113.56 413.355 113.56ZM412.834 112.335C412.808 112.335 412.782 112.309 412.782 112.283C412.782 112.257 412.808 112.231 412.834 112.231C413.095 112.231 413.355 112.205 413.616 112.179C413.642 112.179 413.668 112.205 413.668 112.231C413.668 112.257 413.642 112.283 413.616 112.283C413.355 112.309 413.095 112.335 412.834 112.335ZM411.791 112.205C411.505 112.153 411.27 112.074 411.035 111.97C411.009 111.97 411.009 111.918 411.009 111.892C411.009 111.866 411.061 111.866 411.088 111.866C411.322 111.97 411.557 112.048 411.817 112.101C411.843 112.101 411.87 112.127 411.87 112.153C411.843 112.205 411.817 112.205 411.791 112.205ZM414.346 112.048C414.32 112.048 414.32 112.048 414.346 112.048C414.294 112.022 414.294 111.996 414.294 111.97C414.398 111.736 414.45 111.475 414.502 111.24C414.502 111.214 414.528 111.188 414.554 111.188C414.58 111.188 414.606 111.214 414.606 111.24C414.554 111.501 414.476 111.762 414.372 111.996C414.372 112.022 414.346 112.048 414.346 112.048ZM414.632 112.022C414.606 112.022 414.58 111.996 414.58 111.996C414.58 111.97 414.58 111.944 414.606 111.918C414.841 111.84 415.076 111.736 415.31 111.605C415.336 111.579 415.362 111.605 415.388 111.631C415.414 111.658 415.388 111.683 415.362 111.71C415.128 111.814 414.893 111.918 414.632 112.022ZM410.175 111.423H410.149C410.045 111.345 409.967 111.24 409.862 111.162C409.784 111.058 409.68 110.954 409.602 110.849C409.576 110.823 409.602 110.797 409.628 110.771C409.654 110.745 409.68 110.771 409.706 110.797L409.941 111.11C410.019 111.214 410.123 111.292 410.201 111.371C410.227 111.397 410.227 111.423 410.201 111.449C410.201 111.423 410.201 111.423 410.175 111.423ZM416.196 111.11C416.17 111.11 416.17 111.11 416.144 111.084C416.118 111.058 416.118 111.032 416.144 111.006C416.353 110.849 416.535 110.667 416.718 110.485C416.744 110.458 416.77 110.458 416.796 110.485C416.822 110.511 416.822 110.537 416.796 110.563C416.613 110.745 416.405 110.928 416.223 111.084C416.223 111.11 416.223 111.11 416.196 111.11ZM414.659 110.25C414.632 110.25 414.606 110.224 414.606 110.198C414.606 109.937 414.58 109.676 414.528 109.442C414.528 109.416 414.554 109.39 414.58 109.39C414.606 109.39 414.632 109.416 414.632 109.442C414.685 109.703 414.711 109.963 414.711 110.224C414.711 110.224 414.685 110.25 414.659 110.25ZM409.237 109.911C409.211 109.911 409.185 109.885 409.185 109.859C409.132 109.598 409.08 109.338 409.08 109.077C409.08 109.051 409.107 109.025 409.132 109.025C409.159 109.025 409.185 109.051 409.185 109.077C409.185 109.338 409.211 109.598 409.289 109.833C409.289 109.859 409.263 109.911 409.237 109.911ZM417.448 109.807H417.422C417.395 109.781 417.395 109.755 417.422 109.729C417.578 109.52 417.708 109.285 417.839 109.077C417.865 109.051 417.891 109.051 417.917 109.051C417.943 109.077 417.943 109.103 417.943 109.129C417.813 109.364 417.682 109.598 417.526 109.807C417.474 109.781 417.474 109.807 417.448 109.807ZM414.268 108.477C414.241 108.477 414.241 108.477 414.215 108.451C414.111 108.217 413.955 108.008 413.798 107.8C413.772 107.774 413.772 107.748 413.798 107.722C413.824 107.695 413.85 107.695 413.877 107.722C414.033 107.93 414.189 108.139 414.294 108.399C414.32 108.451 414.32 108.477 414.268 108.477ZM418.282 108.165C418.23 108.165 418.23 108.112 418.23 108.086C418.308 107.852 418.386 107.591 418.438 107.33C418.438 107.304 418.464 107.278 418.49 107.278C418.516 107.278 418.542 107.304 418.542 107.33C418.49 107.591 418.412 107.852 418.334 108.086C418.308 108.165 418.308 108.165 418.282 108.165ZM409.315 108.112C409.263 108.086 409.263 108.06 409.263 108.034C409.367 107.774 409.497 107.539 409.68 107.357C409.706 107.33 409.732 107.33 409.758 107.357C409.784 107.383 409.784 107.409 409.758 107.435C409.602 107.617 409.471 107.852 409.367 108.086C409.367 108.112 409.341 108.112 409.315 108.112ZM413.068 107.148H413.043C412.834 107.018 412.599 106.913 412.339 106.835C412.313 106.835 412.287 106.809 412.313 106.757C412.313 106.731 412.339 106.705 412.391 106.731C412.652 106.809 412.886 106.913 413.121 107.044C413.147 107.07 413.147 107.096 413.147 107.122C413.095 107.122 413.095 107.148 413.068 107.148ZM410.566 106.861C410.54 106.861 410.514 106.861 410.514 106.835C410.514 106.809 410.514 106.783 410.54 106.757C410.775 106.653 411.035 106.601 411.322 106.601C411.348 106.601 411.374 106.627 411.374 106.653C411.374 106.679 411.348 106.705 411.322 106.705C411.061 106.705 410.827 106.757 410.566 106.861ZM418.595 106.392C418.568 106.392 418.542 106.366 418.542 106.34V106.262C418.542 106.027 418.516 105.793 418.49 105.558C418.49 105.532 418.516 105.506 418.542 105.506C418.568 105.506 418.595 105.532 418.595 105.558C418.621 105.793 418.647 106.027 418.647 106.288V106.366C418.647 106.366 418.621 106.392 418.595 106.392Z" fill="#4C5C75"/>
<path d="M408.064 129.903C407.595 130.007 407.204 130.007 406.865 129.929C406.708 129.903 406.552 129.825 406.448 129.772C406.422 129.746 406.396 129.746 406.37 129.72C406.344 129.668 406.344 129.616 406.37 129.564C406.422 129.486 406.474 129.434 406.526 129.408C406.578 129.381 406.604 129.355 406.656 129.355C406.787 129.329 406.917 129.303 407.047 129.303C407.256 129.303 407.438 129.277 407.647 129.277C407.803 129.277 407.934 129.251 408.064 129.277C408.09 129.277 408.116 129.277 408.142 129.303L408.064 129.903Z" fill="#F6A285"/>
<path d="M406.917 129.799C406.917 129.851 406.891 129.877 406.865 129.93C406.708 129.903 406.552 129.825 406.448 129.773C406.422 129.747 406.396 129.747 406.37 129.721C406.344 129.669 406.344 129.617 406.37 129.565C406.422 129.486 406.474 129.434 406.526 129.408C406.787 129.486 406.943 129.643 406.917 129.799Z" fill="#FDE0BB"/>
<path d="M408.663 128.288L408.142 129.279C408.116 129.279 408.09 129.279 408.064 129.253C407.725 129.175 407.386 129.123 407.047 129.018C406.891 128.966 406.761 128.914 406.604 128.862C406.578 128.836 406.526 128.836 406.5 128.784C406.474 128.732 406.474 128.653 406.5 128.601C406.526 128.549 406.578 128.497 406.63 128.445C406.709 128.393 406.787 128.341 406.865 128.314C407.021 128.262 407.178 128.262 407.334 128.262C407.569 128.262 407.803 128.236 408.038 128.236C408.246 128.262 408.455 128.236 408.663 128.288Z" fill="#F6A285"/>
<path d="M407.126 128.886C407.126 128.939 407.1 128.991 407.047 129.017C406.891 128.965 406.761 128.913 406.604 128.86C406.578 128.834 406.526 128.834 406.5 128.782C406.474 128.73 406.474 128.652 406.5 128.6C406.526 128.548 406.578 128.495 406.63 128.443C406.943 128.548 407.152 128.73 407.126 128.886Z" fill="#FDE0BB"/>
<path d="M409.107 127.194L408.612 128.263C408.247 128.185 407.908 128.106 407.569 127.976C407.387 127.924 407.231 127.846 407.048 127.767C407.022 127.741 406.97 127.741 406.944 127.689C406.918 127.637 406.918 127.559 406.944 127.507C406.97 127.455 407.022 127.403 407.074 127.35C407.152 127.298 407.231 127.272 407.309 127.246C407.465 127.194 407.622 127.194 407.778 127.194C408.013 127.194 408.247 127.168 408.482 127.168C408.716 127.168 408.925 127.168 409.107 127.194Z" fill="#F6A285"/>
<path d="M407.674 127.819C407.674 127.871 407.622 127.949 407.569 127.975C407.387 127.923 407.231 127.845 407.048 127.767C407.022 127.741 406.97 127.741 406.944 127.688C406.918 127.636 406.918 127.558 406.944 127.506C406.97 127.454 407.022 127.402 407.074 127.35C407.465 127.428 407.7 127.636 407.674 127.819Z" fill="#FDE0BB"/>
<path d="M408.063 129.904C407.438 130.061 406.916 130.009 406.421 129.8C406.395 129.774 406.343 129.774 406.317 129.722C406.291 129.67 406.317 129.618 406.317 129.591C406.473 129.253 406.916 129.279 407.177 129.253H407.646C407.802 129.253 407.959 129.227 408.115 129.279C407.959 129.253 407.802 129.279 407.646 129.279L407.177 129.305C406.89 129.305 406.499 129.305 406.369 129.591C406.343 129.67 406.369 129.722 406.447 129.748C406.916 129.956 407.438 130.035 408.063 129.904Z" fill="#E17659"/>
<path d="M408.143 129.279C407.804 129.227 407.465 129.175 407.126 129.071C406.97 129.019 406.605 128.914 406.5 128.836C406.448 128.81 406.448 128.732 406.448 128.706C406.474 128.602 406.526 128.523 406.579 128.471C406.839 128.237 407.23 128.263 407.595 128.263C408.09 128.263 408.377 128.237 408.638 128.315C408.299 128.263 407.96 128.315 407.595 128.315C407.204 128.341 406.839 128.315 406.605 128.497C406.552 128.549 406.5 128.628 406.474 128.706C406.448 128.784 406.526 128.836 406.605 128.862C407.126 129.071 407.621 129.175 408.143 129.279ZM408.612 128.289C407.804 128.132 407.074 127.846 406.97 127.767C406.917 127.741 406.891 127.689 406.891 127.637C406.891 127.533 406.97 127.455 407.022 127.403C407.282 127.142 407.673 127.194 408.038 127.168H408.56C408.742 127.168 408.925 127.168 409.081 127.22C408.742 127.168 408.377 127.22 408.038 127.22C407.647 127.246 407.282 127.194 407.048 127.429C406.996 127.481 406.943 127.559 406.943 127.637C406.943 127.715 407.022 127.741 407.1 127.794C407.569 127.976 408.064 128.158 408.612 128.289Z" fill="#E17659"/>
<path d="M420.811 126.099V141.556C420.811 143.198 419.482 144.527 417.839 144.527H393.415C391.773 144.527 390.444 143.198 390.444 141.556V126.099C390.444 125.499 390.626 124.926 390.965 124.43C391.095 124.222 391.278 124.013 391.486 123.831L404.024 113.196C404.937 112.414 406.292 112.414 407.204 113.196L419.742 123.857C419.951 124.039 420.133 124.248 420.264 124.456C420.628 124.926 420.811 125.499 420.811 126.099Z" fill="#FFB861"/>
<path d="M416.875 115.671V127.167L406.631 135.299C406.24 135.612 405.667 135.612 405.25 135.325L394.354 127.036V115.698C394.354 115.202 394.771 114.811 395.24 114.811H415.989C416.484 114.759 416.875 115.15 416.875 115.671Z" fill="white"/>
<path d="M420.811 126.098V141.555C420.811 143.197 419.482 144.527 417.839 144.527H393.415C391.773 144.527 390.444 143.197 390.444 141.555V126.098C390.444 125.498 390.626 124.925 390.965 124.43L405.249 135.273C405.64 135.586 406.214 135.586 406.605 135.247L420.264 124.43C420.628 124.925 420.811 125.498 420.811 126.098Z" fill="#FFD375"/>
<path d="M406.318 117.288V119.113C406.318 119.269 406.187 119.373 406.057 119.373H396.96C396.804 119.373 396.699 119.243 396.699 119.113V117.288C396.699 117.132 396.83 117.027 396.96 117.027H406.057C406.214 117.027 406.318 117.158 406.318 117.288ZM414.529 121.641C414.529 121.876 414.346 122.084 414.086 122.084H397.116C396.882 122.084 396.673 121.902 396.673 121.641C396.673 121.406 396.856 121.198 397.116 121.198H414.086C414.32 121.198 414.529 121.406 414.529 121.641ZM414.529 123.57C414.529 123.805 414.346 124.013 414.086 124.013H397.116C396.882 124.013 396.673 123.831 396.673 123.57C396.673 123.335 396.856 123.127 397.116 123.127H414.086C414.32 123.127 414.529 123.335 414.529 123.57ZM414.529 125.499C414.529 125.733 414.346 125.942 414.086 125.942H397.116C396.882 125.942 396.673 125.759 396.673 125.499C396.673 125.264 396.856 125.056 397.116 125.056H414.086C414.32 125.056 414.529 125.264 414.529 125.499ZM412.157 127.428C412.157 127.662 411.974 127.871 411.714 127.871H397.116C396.882 127.871 396.673 127.688 396.673 127.428C396.673 127.193 396.856 126.985 397.116 126.985H411.714C411.974 126.985 412.157 127.167 412.157 127.428ZM409.003 129.357C409.003 129.591 408.82 129.8 408.559 129.8H402.642C402.408 129.8 402.199 129.617 402.199 129.357C402.199 129.122 402.382 128.913 402.642 128.913H408.559C408.82 128.913 409.003 129.096 409.003 129.357Z" fill="#F2F0FB"/>
<path d="M427.25 97.373L422.74 105.897C422.662 106.027 422.506 106.079 422.376 105.975L415.703 101.022C415.546 100.892 415.572 100.657 415.781 100.605L426.963 97.0081C427.172 96.956 427.354 97.1645 427.25 97.373Z" fill="#F2F0FB"/>
<path d="M418.542 105.272L418.282 102.952L425.737 98.2598L419.168 103.603L418.542 105.272Z" fill="#CFCDF1"/>
<path d="M418.542 105.272L419.742 104.021L419.168 103.604L418.542 105.272Z" fill="#AAAADA"/>
</g>
<defs>
<clipPath id="clip0_1410_842">
<rect width="37.5652" height="48" fill="white" transform="translate(390 97)"/>
</clipPath>
</defs>
</svg>
