<svg width="329" height="185" viewBox="0 0 329 185" fill="none" xmlns="http://www.w3.org/2000/svg">
<rect x="0.5" y="0.5" width="328" height="184" rx="39.5" fill="white"/>
<rect x="0.5" y="0.5" width="328" height="184" rx="39.5" stroke="#E0E0E0"/>
<rect x="32" y="24" width="101" height="41" rx="20.5" fill="#ED695F"/>
<path d="M59.216 54.264C54.272 54.264 50.984 50.712 50.984 45.336C50.984 39.984 54.368 36.36 59.336 36.36C63.248 36.36 66.248 38.688 66.896 42.24H64.376C63.728 39.984 61.784 38.616 59.264 38.616C55.76 38.616 53.456 41.256 53.456 45.312C53.456 49.368 55.76 52.008 59.264 52.008C61.808 52.008 63.824 50.64 64.472 48.504H66.968C66.224 51.96 63.128 54.264 59.216 54.264ZM68.6999 48.12C68.6999 44.496 71.2919 41.952 74.8199 41.952C78.3239 41.952 80.9159 44.496 80.9159 48.12C80.9159 51.744 78.3239 54.288 74.8199 54.288C71.2919 54.288 68.6999 51.744 68.6999 48.12ZM70.9799 48.12C70.9799 50.568 72.5399 52.272 74.8199 52.272C77.0759 52.272 78.6599 50.568 78.6599 48.12C78.6599 45.672 77.0759 43.968 74.8199 43.968C72.5399 43.968 70.9799 45.672 70.9799 48.12ZM85.7173 54H83.4613V36.336H85.7173V54ZM88.2703 48.12C88.2703 44.496 90.8623 41.952 94.3903 41.952C97.8943 41.952 100.486 44.496 100.486 48.12C100.486 51.744 97.8943 54.288 94.3903 54.288C90.8623 54.288 88.2703 51.744 88.2703 48.12ZM90.5503 48.12C90.5503 50.568 92.1103 52.272 94.3903 52.272C96.6463 52.272 98.2303 50.568 98.2303 48.12C98.2303 45.672 96.6463 43.968 94.3903 43.968C92.1103 43.968 90.5503 45.672 90.5503 48.12ZM109.704 42.168V44.232H108.696C106.56 44.232 105.24 45.528 105.24 47.784V54H102.984V42.288H105.096L105.24 44.064C105.72 42.84 106.896 42.024 108.504 42.024C108.912 42.024 109.248 42.072 109.704 42.168Z" fill="white"/>
<rect x="32.5" y="81.5" width="264" height="79" rx="7.5" stroke="#EFEFEF"/>
<rect x="48.5" y="97.5" width="47" height="47" rx="7.5" fill="#ED695F" stroke="#ED695F"/>
<path d="M115.44 123.376H117.936L118.728 119.44H115.8L116.088 117.88H119.016L120.024 112.816H121.656L120.672 117.88H124.872L125.88 112.816H127.536L126.528 117.88H129.072L128.76 119.44H126.24L125.448 123.376H128.112L127.824 124.936H125.16L124.152 130H122.496L123.504 124.936H119.28L118.296 130H116.64L117.648 124.936H115.128L115.44 123.376ZM119.592 123.376H123.792L124.584 119.44H120.36L119.592 123.376ZM142.579 130H132.283V112.816H142.555V114.4H134.011V120.592H141.763V122.152H134.011V128.416H142.579V130ZM151.32 130H146.088V112.816H151.272C156.456 112.816 159.912 116.272 159.912 121.408C159.912 126.544 156.48 130 151.32 130ZM151.2 114.4H147.816V128.416H151.248C155.448 128.416 158.136 125.68 158.136 121.408C158.136 117.112 155.448 114.4 151.2 114.4ZM164.209 118.6L168.505 112.816H170.521L166.009 118.792C166.825 118.384 167.569 118.216 168.361 118.216C171.937 118.216 174.313 120.832 174.313 124.192C174.313 127.72 171.649 130.288 168.217 130.288C164.761 130.288 162.049 127.624 162.049 124.192C162.049 122.2 162.601 120.808 164.209 118.6ZM163.801 124.216C163.801 126.832 165.601 128.728 168.217 128.728C170.761 128.728 172.585 126.832 172.585 124.216C172.585 121.6 170.761 119.728 168.217 119.728C165.601 119.728 163.801 121.6 163.801 124.216ZM186.146 124.192L181.85 130H179.834L184.346 124C183.554 124.432 182.81 124.576 181.993 124.576C178.418 124.576 176.042 121.96 176.042 118.6C176.042 115.096 178.706 112.504 182.138 112.504C185.594 112.504 188.306 115.168 188.306 118.624C188.306 120.616 187.778 122.008 186.146 124.192ZM186.578 118.6C186.578 115.984 184.754 114.088 182.138 114.088C179.594 114.088 177.77 115.984 177.77 118.6C177.77 121.192 179.594 123.064 182.138 123.064C184.754 123.064 186.578 121.192 186.578 118.6ZM196.312 130.288C192.856 130.288 190.648 128.128 190.648 124.744H192.376C192.376 127.216 193.888 128.704 196.336 128.704C198.928 128.704 200.608 126.976 200.608 124.432C200.608 122.032 199.048 120.136 196.336 120.136C194.752 120.136 193.312 120.856 192.376 121.888L191.008 121.456L193.072 112.816H201.376V114.4H194.32L193.024 119.8C193.984 119.032 195.232 118.6 196.576 118.6C200.152 118.6 202.36 121.168 202.36 124.384C202.36 127.84 199.912 130.288 196.312 130.288ZM214.192 122.44H207.16V130H205.432V112.816H215.56V114.4H207.16V120.88H214.192V122.44Z" fill="#4B5563"/>
</svg>
