<svg width="608" height="276" viewBox="0 0 608 276" fill="none" xmlns="http://www.w3.org/2000/svg">
<g clip-path="url(#clip0_1351_1371)">
<rect width="608" height="276" rx="40" fill="white"/>
<rect x="48.5" y="96.5" width="511" height="187" rx="15.5" stroke="#EFEFEF"/>
<path d="M204.5 146C204.5 141.858 207.858 138.5 212 138.5H396C400.142 138.5 403.5 141.858 403.5 146V279.5H204.5V146Z" fill="white" stroke="#E0E0E0"/>
<rect x="237" y="209" width="134" height="49" rx="4" fill="#E0E0E0"/>
<path d="M271.366 184C260.825 184 252.526 182.881 247 181.814L257.965 181.179C261.765 181.672 266.267 182.024 271.366 182.024C274.826 182.024 278.394 181.7 282.199 181.122C286.011 180.542 289.694 179.765 293.412 178.958L294.38 178.747C297.661 178.034 301.072 177.291 304.333 176.778C307.816 176.23 312.431 175.732 317.28 176.164C320.483 176.449 322.563 176.975 324.03 177.619C325.405 178.222 326.353 178.979 327.275 179.801C327.696 180.176 328.411 180.54 329.229 180.785C329.628 180.905 329.972 180.973 330.211 181.007C330.422 181.037 330.516 181.037 330.54 181.037C331.58 181.037 333.366 180.874 335.917 180.472C337.499 180.223 338.85 179.973 340.203 179.723C341.042 179.569 341.882 179.413 342.778 179.258C345.158 178.846 347.221 178.569 348.732 178.392C349.486 178.304 350.104 178.24 350.555 178.197C350.78 178.176 350.964 178.159 351.102 178.147L351.275 178.133L351.336 178.128L351.359 178.126L351.369 178.125C351.369 178.125 351.378 178.124 352.731 179.061L351.378 178.124C353.613 177.951 356.031 178.231 356.779 178.748C357.523 179.263 356.33 179.82 354.114 179.996L354.081 179.999C354.035 180.003 353.945 180.011 353.815 180.023C353.556 180.048 353.137 180.09 352.585 180.155C351.48 180.284 349.844 180.502 347.891 180.84C347.391 180.926 346.737 181.047 345.991 181.183C344.444 181.468 342.5 181.825 340.719 182.105C338.065 182.523 334.39 183.012 330.541 183.012C326.823 183.012 324.13 182.489 322.471 181.992C320.779 181.484 319.644 180.859 319.014 180.297C318.077 179.463 317.336 178.916 316.481 178.541C315.719 178.207 315.031 178.08 314.215 178.008C313.516 177.945 312.121 177.941 309.132 178.412C306.46 178.832 303.548 179.465 300.102 180.214L299.249 180.399C295.57 181.197 291.394 182.087 286.885 182.773C282.369 183.46 277.152 184 271.366 184Z" fill="#E0E0E0"/>
<path d="M127.285 150.988L135.338 155.271L125.699 160.627L127.285 150.988Z" fill="#9FD39E"/>
<path d="M98.7109 220.618L91.0001 224.24L92.0969 214.945L98.6859 212.674L98.7109 220.618Z" fill="#B3B9FF"/>
<path d="M175.803 127.234L175.819 137.494L168.108 132.429L168.817 124L175.803 127.234Z" fill="#B3B9FF"/>
<path d="M167.766 185.688L175.819 189.97L166.181 195.326L167.766 185.688Z" fill="#FFD280"/>
<path d="M100.297 268.578L108.35 272.861L98.7111 278.217L100.297 268.578Z" fill="#FFD280"/>
<path d="M171.964 276.523L164.253 280.144L165.35 270.85L171.939 268.578L171.964 276.523Z" fill="#B3B9FF"/>
<path d="M143.032 235.185L143.048 245.445L135.337 240.381L136.045 231.951L143.032 235.185Z" fill="#FFB3F7"/>
<path d="M473.535 146.988L465.481 151.271L475.12 156.627L473.535 146.988Z" fill="#9FD39E"/>
<path d="M502.108 216.618L509.819 220.24L508.722 210.945L502.133 208.674L502.108 216.618Z" fill="#B3B9FF"/>
<path d="M425.016 123.234L425 133.494L432.711 128.429L432.002 120L425.016 123.234Z" fill="#B3B9FF"/>
<path d="M433.053 181.688L425 185.97L434.639 191.326L433.053 181.688Z" fill="#FFD280"/>
<path d="M500.523 264.578L492.47 268.861L502.108 274.217L500.523 264.578Z" fill="#FFD280"/>
<path d="M428.855 272.523L436.566 276.144L435.47 266.85L428.88 264.578L428.855 272.523Z" fill="#B3B9FF"/>
<path d="M457.788 231.185L457.771 241.445L465.482 236.381L464.774 227.951L457.788 231.185Z" fill="#FFB3F7"/>
<rect x="32" y="24" width="167" height="41" rx="20.5" fill="#FFB3CA"/>
<path d="M51.192 53H48.336L55.728 32.756H58.78L66.2 53H63.316L61.496 47.96H52.984L51.192 53ZM56.904 37.124L53.824 45.58H60.684L57.576 37.124C57.436 36.732 57.296 36.256 57.24 35.948C57.184 36.228 57.044 36.704 56.904 37.124ZM71.0751 53H68.4431V39.308H70.8231L71.1031 41.408C71.9711 39.84 73.7071 38.916 75.6391 38.916C79.2511 38.916 80.9031 41.128 80.9031 44.628V53H78.2711V45.216C78.2711 42.444 76.9831 41.324 74.9671 41.324C72.5031 41.324 71.0751 43.088 71.0751 45.748V53ZM85.8365 36.06C84.8845 36.06 84.1005 35.276 84.1005 34.324C84.1005 33.344 84.8845 32.588 85.8365 32.588C86.7885 32.588 87.5725 33.344 87.5725 34.324C87.5725 35.276 86.7885 36.06 85.8365 36.06ZM84.5485 53V39.308H87.1805V53H84.5485ZM93.6337 53H91.0017V39.308H93.3537L93.6057 41.1C94.3057 39.812 95.7617 38.916 97.6937 38.916C99.8217 38.916 101.334 39.98 102.034 41.688C102.678 39.98 104.33 38.916 106.458 38.916C109.594 38.916 111.498 40.876 111.498 44.04V53H108.922V44.684C108.922 42.528 107.718 41.296 105.87 41.296C103.882 41.296 102.566 42.696 102.566 44.88V53H99.9617V44.656C99.9617 42.5 98.7857 41.324 96.9377 41.324C94.9497 41.324 93.6337 42.696 93.6337 44.88V53ZM119.15 53.336C116.21 53.336 114.474 51.684 114.474 49.192C114.474 46.672 116.35 45.104 119.57 44.852L123.882 44.516V44.124C123.882 41.828 122.51 41.016 120.662 41.016C118.45 41.016 117.19 41.996 117.19 43.648H114.894C114.894 40.792 117.246 38.916 120.774 38.916C124.162 38.916 126.458 40.708 126.458 44.404V53H124.218L123.938 50.788C123.238 52.356 121.362 53.336 119.15 53.336ZM119.906 51.292C122.398 51.292 123.91 49.668 123.91 47.092V46.364L120.41 46.644C118.086 46.868 117.134 47.764 117.134 49.108C117.134 50.564 118.198 51.292 119.906 51.292ZM129.207 46.168C129.207 41.884 131.923 38.916 135.927 38.916C139.371 38.916 141.779 40.876 142.255 43.928H139.623C139.175 42.192 137.775 41.268 136.011 41.268C133.519 41.268 131.811 43.172 131.811 46.14C131.811 49.08 133.407 50.984 135.899 50.984C137.775 50.984 139.175 50.004 139.651 48.38H142.283C141.751 51.348 139.203 53.336 135.899 53.336C131.867 53.336 129.207 50.48 129.207 46.168ZM146.348 36.06C145.396 36.06 144.612 35.276 144.612 34.324C144.612 33.344 145.396 32.588 146.348 32.588C147.3 32.588 148.084 33.344 148.084 34.324C148.084 35.276 147.3 36.06 146.348 36.06ZM145.06 53V39.308H147.692V53H145.06ZM161.229 33.988L158.793 37.712H156.777L158.653 33.988H161.229ZM150.617 46.14C150.617 41.912 153.641 38.944 157.757 38.944C161.845 38.944 164.869 41.912 164.869 46.14C164.869 50.368 161.845 53.336 157.757 53.336C153.641 53.336 150.617 50.368 150.617 46.14ZM153.277 46.14C153.277 48.996 155.097 50.984 157.757 50.984C160.389 50.984 162.237 48.996 162.237 46.14C162.237 43.284 160.389 41.296 157.757 41.296C155.097 41.296 153.277 43.284 153.277 46.14ZM170.415 53H167.783V39.308H170.163L170.443 41.408C171.311 39.84 173.047 38.916 174.979 38.916C178.591 38.916 180.243 41.128 180.243 44.628V53H177.611V45.216C177.611 42.444 176.323 41.324 174.307 41.324C171.843 41.324 170.415 43.088 170.415 45.748V53Z" fill="white"/>
</g>
<rect x="0.5" y="0.5" width="607" height="275" rx="39.5" stroke="#E0E0E0"/>
<defs>
<clipPath id="clip0_1351_1371">
<rect width="608" height="276" rx="40" fill="white"/>
</clipPath>
</defs>
</svg>
