<svg width="576" height="245" viewBox="0 0 576 245" fill="none" xmlns="http://www.w3.org/2000/svg">
<rect width="576" height="245" rx="40" fill="#111114"/>
<rect x="0.5" y="0.5" width="575" height="244" rx="39.5" stroke="white" stroke-opacity="0.15"/>
<rect x="32" y="24" width="207" height="41" rx="20.5" fill="#CC876F"/>
<path d="M58.752 53.308C52.984 53.308 49.148 49.164 49.148 42.892C49.148 36.648 53.096 32.42 58.892 32.42C63.456 32.42 66.956 35.136 67.712 39.28H64.772C64.016 36.648 61.748 35.052 58.808 35.052C54.72 35.052 52.032 38.132 52.032 42.864C52.032 47.596 54.72 50.676 58.808 50.676C61.776 50.676 64.128 49.08 64.884 46.588H67.796C66.928 50.62 63.316 53.308 58.752 53.308ZM69.8166 46.14C69.8166 41.912 72.8406 38.944 76.9566 38.944C81.0446 38.944 84.0686 41.912 84.0686 46.14C84.0686 50.368 81.0446 53.336 76.9566 53.336C72.8406 53.336 69.8166 50.368 69.8166 46.14ZM72.4766 46.14C72.4766 48.996 74.2966 50.984 76.9566 50.984C79.5886 50.984 81.4366 48.996 81.4366 46.14C81.4366 43.284 79.5886 41.296 76.9566 41.296C74.2966 41.296 72.4766 43.284 72.4766 46.14ZM89.6141 53H86.9821V39.308H89.3621L89.6421 41.408C90.5101 39.84 92.2461 38.916 94.1781 38.916C97.7901 38.916 99.4421 41.128 99.4421 44.628V53H96.8101V45.216C96.8101 42.444 95.5221 41.324 93.5061 41.324C91.0421 41.324 89.6141 43.088 89.6141 45.748V53ZM112.356 53V41.52H106.28V53H103.648V41.52H101.632V39.308H103.648V37.124C103.648 33.764 105.468 32.392 107.848 32.392C108.352 32.392 108.968 32.42 109.472 32.504V34.772H108.296C106.7 34.772 106.28 35.64 106.28 37.124V39.308H114.988V53H112.356ZM113.672 35.948C112.72 35.948 111.992 35.22 111.992 34.268C111.992 33.316 112.72 32.588 113.672 32.588C114.596 32.588 115.324 33.316 115.324 34.268C115.324 35.22 114.596 35.948 113.672 35.948ZM126.568 39.196V41.604H125.392C122.9 41.604 121.36 43.116 121.36 45.748V53H118.728V39.336H121.192L121.36 41.408C121.92 39.98 123.292 39.028 125.168 39.028C125.644 39.028 126.036 39.084 126.568 39.196ZM131.669 53H129.037V39.308H131.389L131.641 41.1C132.341 39.812 133.797 38.916 135.729 38.916C137.857 38.916 139.369 39.98 140.069 41.688C140.713 39.98 142.365 38.916 144.493 38.916C147.629 38.916 149.533 40.876 149.533 44.04V53H146.957V44.684C146.957 42.528 145.753 41.296 143.905 41.296C141.917 41.296 140.601 42.696 140.601 44.88V53H137.997V44.656C137.997 42.5 136.821 41.324 134.973 41.324C132.985 41.324 131.669 42.696 131.669 44.88V53ZM157.185 53.336C154.245 53.336 152.509 51.684 152.509 49.192C152.509 46.672 154.385 45.104 157.605 44.852L161.917 44.516V44.124C161.917 41.828 160.545 41.016 158.697 41.016C156.485 41.016 155.225 41.996 155.225 43.648H152.929C152.929 40.792 155.281 38.916 158.809 38.916C162.197 38.916 164.493 40.708 164.493 44.404V53H162.253L161.973 50.788C161.273 52.356 159.397 53.336 157.185 53.336ZM157.941 51.292C160.433 51.292 161.945 49.668 161.945 47.092V46.364L158.445 46.644C156.121 46.868 155.169 47.764 155.169 49.108C155.169 50.564 156.233 51.292 157.941 51.292ZM167.242 46.168C167.242 41.884 169.958 38.916 173.962 38.916C177.406 38.916 179.814 40.876 180.29 43.928H177.658C177.21 42.192 175.81 41.268 174.046 41.268C171.554 41.268 169.846 43.172 169.846 46.14C169.846 49.08 171.442 50.984 173.934 50.984C175.81 50.984 177.21 50.004 177.686 48.38H180.318C179.786 51.348 177.238 53.336 173.934 53.336C169.902 53.336 167.242 50.48 167.242 46.168ZM184.383 36.06C183.431 36.06 182.647 35.276 182.647 34.324C182.647 33.344 183.431 32.588 184.383 32.588C185.335 32.588 186.119 33.344 186.119 34.324C186.119 35.276 185.335 36.06 184.383 36.06ZM183.095 53V39.308H185.727V53H183.095ZM199.265 33.988L196.829 37.712H194.813L196.689 33.988H199.265ZM188.653 46.14C188.653 41.912 191.677 38.944 195.793 38.944C199.881 38.944 202.905 41.912 202.905 46.14C202.905 50.368 199.881 53.336 195.793 53.336C191.677 53.336 188.653 50.368 188.653 46.14ZM191.313 46.14C191.313 48.996 193.133 50.984 195.793 50.984C198.425 50.984 200.273 48.996 200.273 46.14C200.273 43.284 198.425 41.296 195.793 41.296C193.133 41.296 191.313 43.284 191.313 46.14ZM208.45 53H205.818V39.308H208.198L208.478 41.408C209.346 39.84 211.082 38.916 213.014 38.916C216.626 38.916 218.278 41.128 218.278 44.628V53H215.646V45.216C215.646 42.444 214.358 41.324 212.342 41.324C209.878 41.324 208.45 43.088 208.45 45.748V53Z" fill="white"/>
<rect x="32.5" y="81.5" width="511" height="139" rx="7.5" stroke="#EFEFEF" stroke-opacity="0.1"/>
<path d="M54.966 104.12C51.996 104.12 50.124 106.316 50.124 109.61C50.124 112.958 52.104 114.992 55.002 114.992C57.162 114.992 59.268 113.948 59.268 110.852V110.186H54.606V109.034H60.492V116.018H59.466L59.34 113.966C58.656 115.244 57.036 116.216 54.948 116.216C51.294 116.216 48.774 113.588 48.774 109.61C48.774 105.668 51.294 102.896 54.984 102.896C57.702 102.896 59.808 104.444 60.312 106.784H58.908C58.368 105.02 56.856 104.12 54.966 104.12ZM67.35 107.18V108.296H66.666C65.064 108.296 64.038 109.376 64.038 111.032V116H62.796V107.288H63.966L64.056 108.638C64.398 107.702 65.316 107.09 66.54 107.09C66.81 107.09 67.044 107.108 67.35 107.18ZM71.1515 116.216C69.2975 116.216 68.1995 115.172 68.1995 113.642C68.1995 112.04 69.4235 111.032 71.4575 110.87L74.3375 110.636V110.348C74.3375 108.638 73.3115 108.098 72.0335 108.098C70.5215 108.098 69.6215 108.782 69.6215 109.952H68.4875C68.4875 108.188 69.9275 107.054 72.0695 107.054C74.0855 107.054 75.5615 108.062 75.5615 110.366V116H74.5175L74.3555 114.47C73.8155 115.568 72.6275 116.216 71.1515 116.216ZM71.4395 115.208C73.2755 115.208 74.3375 113.93 74.3375 112.04V111.572L71.7635 111.77C70.1255 111.914 69.4595 112.634 69.4595 113.606C69.4595 114.668 70.2515 115.208 71.4395 115.208ZM77.4418 111.662C77.4418 108.926 79.1158 107.054 81.6538 107.054C83.6698 107.054 85.1458 108.224 85.4878 110.024H84.2458C83.9218 108.818 82.8778 108.152 81.6718 108.152C79.9078 108.152 78.6658 109.502 78.6658 111.644C78.6658 113.714 79.8178 115.1 81.5818 115.1C82.8778 115.1 83.9218 114.38 84.2638 113.264H85.5238C85.1098 115.046 83.5618 116.216 81.5818 116.216C79.1158 116.216 77.4418 114.398 77.4418 111.662ZM88.0174 104.894C87.5134 104.894 87.0994 104.48 87.0994 103.976C87.0994 103.472 87.5134 103.04 88.0174 103.04C88.5214 103.04 88.9534 103.472 88.9534 103.976C88.9534 104.48 88.5214 104.894 88.0174 104.894ZM87.4054 116V107.288H88.6474V116H87.4054ZM93.7394 116.216C91.8854 116.216 90.7874 115.172 90.7874 113.642C90.7874 112.04 92.0114 111.032 94.0454 110.87L96.9254 110.636V110.348C96.9254 108.638 95.8994 108.098 94.6214 108.098C93.1094 108.098 92.2094 108.782 92.2094 109.952H91.0754C91.0754 108.188 92.5154 107.054 94.6574 107.054C96.6734 107.054 98.1494 108.062 98.1494 110.366V116H97.1054L96.9434 114.47C96.4034 115.568 95.2154 116.216 93.7394 116.216ZM94.0274 115.208C95.8634 115.208 96.9254 113.93 96.9254 112.04V111.572L94.3514 111.77C92.7134 111.914 92.0474 112.634 92.0474 113.606C92.0474 114.668 92.8394 115.208 94.0274 115.208ZM99.9037 113.552H101.092C101.092 114.56 101.848 115.19 103.072 115.19C104.422 115.19 105.214 114.614 105.214 113.678C105.214 112.958 104.854 112.544 103.828 112.292L102.334 111.914C100.822 111.536 100.084 110.744 100.084 109.556C100.084 108.026 101.362 107.054 103.234 107.054C105.07 107.054 106.258 108.062 106.312 109.682H105.106C105.07 108.674 104.368 108.08 103.198 108.08C101.974 108.08 101.29 108.602 101.29 109.538C101.29 110.204 101.758 110.672 102.712 110.906L104.206 111.284C105.718 111.662 106.402 112.364 106.402 113.624C106.402 115.19 105.07 116.216 103.09 116.216C101.128 116.216 99.9037 115.172 99.9037 113.552ZM113.439 119.798V107.288H114.519L114.645 109.052C115.257 107.702 116.481 107.054 117.939 107.054C120.459 107.054 121.971 108.98 121.971 111.608C121.971 114.236 120.513 116.216 117.939 116.216C116.463 116.216 115.293 115.586 114.681 114.326V119.798H113.439ZM114.699 111.644C114.699 113.642 115.815 115.1 117.723 115.1C119.613 115.1 120.711 113.642 120.711 111.644C120.711 109.628 119.613 108.188 117.723 108.188C115.815 108.188 114.699 109.628 114.699 111.644ZM123.338 111.644C123.338 108.98 125.21 107.054 127.766 107.054C130.322 107.054 132.194 108.98 132.194 111.644C132.194 114.29 130.322 116.216 127.766 116.216C125.21 116.216 123.338 114.29 123.338 111.644ZM124.598 111.626C124.598 113.678 125.894 115.1 127.766 115.1C129.62 115.1 130.934 113.678 130.934 111.626C130.934 109.61 129.62 108.17 127.766 108.17C125.894 108.17 124.598 109.61 124.598 111.626ZM138.735 107.18V108.296H138.051C136.449 108.296 135.423 109.376 135.423 111.032V116H134.181V107.288H135.351L135.441 108.638C135.783 107.702 136.701 107.09 137.925 107.09C138.195 107.09 138.429 107.108 138.735 107.18ZM147.376 116H146.152V108.332H144.406V107.288H146.152V104.534H147.376V107.288H149.122V108.332H147.376V116ZM156.859 107.288H158.101V116H157.021L156.859 114.524C156.373 115.532 155.167 116.216 153.799 116.216C151.747 116.216 150.631 114.812 150.631 112.688V107.27H151.891V112.292C151.891 114.362 152.809 115.1 154.195 115.1C155.869 115.1 156.859 113.984 156.859 111.914V107.288ZM159.775 113.552H160.963C160.963 114.56 161.719 115.19 162.943 115.19C164.293 115.19 165.085 114.614 165.085 113.678C165.085 112.958 164.725 112.544 163.699 112.292L162.205 111.914C160.693 111.536 159.955 110.744 159.955 109.556C159.955 108.026 161.233 107.054 163.105 107.054C164.941 107.054 166.129 108.062 166.183 109.682H164.977C164.941 108.674 164.239 108.08 163.069 108.08C161.845 108.08 161.161 108.602 161.161 109.538C161.161 110.204 161.629 110.672 162.583 110.906L164.077 111.284C165.589 111.662 166.273 112.364 166.273 113.624C166.273 115.19 164.941 116.216 162.961 116.216C160.999 116.216 159.775 115.172 159.775 113.552ZM172.698 111.662C172.698 108.926 174.372 107.054 176.91 107.054C178.926 107.054 180.402 108.224 180.744 110.024H179.502C179.178 108.818 178.134 108.152 176.928 108.152C175.164 108.152 173.922 109.502 173.922 111.644C173.922 113.714 175.074 115.1 176.838 115.1C178.134 115.1 179.178 114.38 179.52 113.264H180.78C180.366 115.046 178.818 116.216 176.838 116.216C174.372 116.216 172.698 114.398 172.698 111.662ZM182.049 111.644C182.049 108.98 183.921 107.054 186.477 107.054C189.033 107.054 190.905 108.98 190.905 111.644C190.905 114.29 189.033 116.216 186.477 116.216C183.921 116.216 182.049 114.29 182.049 111.644ZM183.309 111.626C183.309 113.678 184.605 115.1 186.477 115.1C188.331 115.1 189.645 113.678 189.645 111.626C189.645 109.61 188.331 108.17 186.477 108.17C184.605 108.17 183.309 109.61 183.309 111.626ZM194.134 116H192.892V107.288H193.972L194.116 108.53C194.548 107.612 195.52 107.054 196.744 107.054C198.112 107.054 199.138 107.774 199.552 108.908C199.948 107.774 201.01 107.054 202.414 107.054C204.304 107.054 205.546 108.278 205.546 110.294V116H204.34V110.546C204.34 109.052 203.512 108.17 202.18 108.17C200.722 108.17 199.858 109.268 199.858 110.618V116H198.634V110.528C198.634 109.052 197.788 108.188 196.474 108.188C195.016 108.188 194.134 109.268 194.134 110.6V116ZM211.698 116.216C209.142 116.216 207.432 114.38 207.432 111.644C207.432 108.926 209.124 107.054 211.608 107.054C213.966 107.054 215.568 108.728 215.568 111.194V111.806H208.638C208.728 113.93 209.844 115.154 211.716 115.154C213.138 115.154 214.056 114.542 214.38 113.39H215.568C215.1 115.226 213.75 116.216 211.698 116.216ZM211.608 108.116C209.97 108.116 208.89 109.196 208.674 110.906H214.326C214.326 109.232 213.246 108.116 211.608 108.116ZM218.796 116H217.554V107.288H218.634L218.814 108.8C219.39 107.684 220.542 107.054 221.802 107.054C224.196 107.054 225.186 108.476 225.186 110.672V116H223.944V110.942C223.944 108.908 223.026 108.188 221.586 108.188C219.804 108.188 218.796 109.484 218.796 111.446V116ZM229.659 116H228.435V108.332H226.689V107.288H228.435V104.534H229.659V107.288H231.405V108.332H229.659V116ZM235.384 116.216C233.53 116.216 232.432 115.172 232.432 113.642C232.432 112.04 233.656 111.032 235.69 110.87L238.57 110.636V110.348C238.57 108.638 237.544 108.098 236.266 108.098C234.754 108.098 233.854 108.782 233.854 109.952H232.72C232.72 108.188 234.16 107.054 236.302 107.054C238.318 107.054 239.794 108.062 239.794 110.366V116H238.75L238.588 114.47C238.048 115.568 236.86 116.216 235.384 116.216ZM235.672 115.208C237.508 115.208 238.57 113.93 238.57 112.04V111.572L235.996 111.77C234.358 111.914 233.692 112.634 233.692 113.606C233.692 114.668 234.484 115.208 235.672 115.208ZM246.84 107.18V108.296H246.156C244.554 108.296 243.528 109.376 243.528 111.032V116H242.286V107.288H243.456L243.546 108.638C243.888 107.702 244.806 107.09 246.03 107.09C246.3 107.09 246.534 107.108 246.84 107.18ZM249.103 104.894C248.599 104.894 248.185 104.48 248.185 103.976C248.185 103.472 248.599 103.04 249.103 103.04C249.607 103.04 250.039 103.472 250.039 103.976C250.039 104.48 249.607 104.894 249.103 104.894ZM248.491 116V107.288H249.733V116H248.491ZM251.711 111.644C251.711 108.98 253.583 107.054 256.139 107.054C258.695 107.054 260.567 108.98 260.567 111.644C260.567 114.29 258.695 116.216 256.139 116.216C253.583 116.216 251.711 114.29 251.711 111.644ZM252.971 111.626C252.971 113.678 254.267 115.1 256.139 115.1C257.993 115.1 259.307 113.678 259.307 111.626C259.307 109.61 257.993 108.17 256.139 108.17C254.267 108.17 252.971 109.61 252.971 111.626ZM261.816 113.552H263.004C263.004 114.56 263.76 115.19 264.984 115.19C266.334 115.19 267.126 114.614 267.126 113.678C267.126 112.958 266.766 112.544 265.74 112.292L264.246 111.914C262.734 111.536 261.996 110.744 261.996 109.556C261.996 108.026 263.274 107.054 265.146 107.054C266.982 107.054 268.17 108.062 268.224 109.682H267.018C266.982 108.674 266.28 108.08 265.11 108.08C263.886 108.08 263.202 108.602 263.202 109.538C263.202 110.204 263.67 110.672 264.624 110.906L266.118 111.284C267.63 111.662 268.314 112.364 268.314 113.624C268.314 115.19 266.982 116.216 265.002 116.216C263.04 116.216 261.816 115.172 261.816 113.552ZM271.28 116.198C270.668 116.198 270.146 115.694 270.146 115.1C270.146 114.488 270.668 113.966 271.28 113.966C271.892 113.966 272.414 114.488 272.414 115.1C272.414 115.694 271.892 116.198 271.28 116.198ZM279.417 106.46C279.417 104.3 281.145 102.878 283.737 102.878C286.059 102.878 287.589 104.174 287.787 106.334H286.473C286.329 104.876 285.339 104.048 283.719 104.048C281.901 104.048 280.713 104.984 280.713 106.442C280.713 107.576 281.379 108.296 282.729 108.638L284.943 109.178C286.959 109.664 288.003 110.816 288.003 112.562C288.003 114.794 286.275 116.216 283.611 116.216C281.109 116.216 279.417 114.902 279.255 112.796H280.587C280.659 114.146 281.847 115.028 283.611 115.028C285.501 115.028 286.707 114.11 286.707 112.634C286.707 111.482 286.059 110.726 284.673 110.402L282.495 109.862C280.479 109.376 279.417 108.224 279.417 106.46ZM293.718 116.216C291.162 116.216 289.452 114.38 289.452 111.644C289.452 108.926 291.144 107.054 293.628 107.054C295.986 107.054 297.588 108.728 297.588 111.194V111.806H290.658C290.748 113.93 291.864 115.154 293.736 115.154C295.158 115.154 296.076 114.542 296.4 113.39H297.588C297.12 115.226 295.77 116.216 293.718 116.216ZM293.628 108.116C291.99 108.116 290.91 109.196 290.694 110.906H296.346C296.346 109.232 295.266 108.116 293.628 108.116ZM298.979 111.392C298.979 109.016 300.509 107.054 303.065 107.054C304.577 107.054 305.729 107.756 306.287 109.034L306.413 107.288H307.493V115.73C307.493 118.322 305.837 120.014 303.281 120.014C301.049 120.014 299.483 118.754 299.141 116.648H300.383C300.653 118.052 301.733 118.88 303.299 118.88C305.081 118.88 306.269 117.674 306.269 115.856V113.786C305.675 115.01 304.469 115.73 302.975 115.73C300.491 115.73 298.979 113.768 298.979 111.392ZM300.221 111.374C300.221 113.156 301.319 114.614 303.155 114.614C305.045 114.614 306.161 113.246 306.161 111.374C306.161 109.52 305.081 108.152 303.173 108.152C301.301 108.152 300.221 109.61 300.221 111.374ZM316.205 107.288H317.447V116H316.367L316.205 114.524C315.719 115.532 314.513 116.216 313.145 116.216C311.093 116.216 309.977 114.812 309.977 112.688V107.27H311.237V112.292C311.237 114.362 312.155 115.1 313.541 115.1C315.215 115.1 316.205 113.984 316.205 111.914V107.288ZM320.646 104.894C320.142 104.894 319.728 104.48 319.728 103.976C319.728 103.472 320.142 103.04 320.646 103.04C321.15 103.04 321.582 103.472 321.582 103.976C321.582 104.48 321.15 104.894 320.646 104.894ZM320.034 116V107.288H321.276V116H320.034ZM328.42 107.18V108.296H327.736C326.134 108.296 325.108 109.376 325.108 111.032V116H323.866V107.288H325.036L325.126 108.638C325.468 107.702 326.386 107.09 327.61 107.09C327.88 107.09 328.114 107.108 328.42 107.18ZM333.391 116.216C330.835 116.216 329.125 114.38 329.125 111.644C329.125 108.926 330.817 107.054 333.301 107.054C335.659 107.054 337.261 108.728 337.261 111.194V111.806H330.331C330.421 113.93 331.537 115.154 333.409 115.154C334.831 115.154 335.749 114.542 336.073 113.39H337.261C336.793 115.226 335.443 116.216 333.391 116.216ZM333.301 108.116C331.663 108.116 330.583 109.196 330.367 110.906H336.019C336.019 109.232 334.939 108.116 333.301 108.116ZM340.489 116H339.247V107.288H340.327L340.471 108.53C340.903 107.612 341.875 107.054 343.099 107.054C344.467 107.054 345.493 107.774 345.907 108.908C346.303 107.774 347.365 107.054 348.769 107.054C350.659 107.054 351.901 108.278 351.901 110.294V116H350.695V110.546C350.695 109.052 349.867 108.17 348.535 108.17C347.077 108.17 346.213 109.268 346.213 110.618V116H344.989V110.528C344.989 109.052 344.143 108.188 342.829 108.188C341.371 108.188 340.489 109.268 340.489 110.6V116ZM353.788 111.644C353.788 108.98 355.66 107.054 358.216 107.054C360.772 107.054 362.644 108.98 362.644 111.644C362.644 114.29 360.772 116.216 358.216 116.216C355.66 116.216 353.788 114.29 353.788 111.644ZM355.048 111.626C355.048 113.678 356.344 115.1 358.216 115.1C360.07 115.1 361.384 113.678 361.384 111.626C361.384 109.61 360.07 108.17 358.216 108.17C356.344 108.17 355.048 109.61 355.048 111.626ZM363.892 113.552H365.08C365.08 114.56 365.836 115.19 367.06 115.19C368.41 115.19 369.202 114.614 369.202 113.678C369.202 112.958 368.842 112.544 367.816 112.292L366.322 111.914C364.81 111.536 364.072 110.744 364.072 109.556C364.072 108.026 365.35 107.054 367.222 107.054C369.058 107.054 370.246 108.062 370.3 109.682H369.094C369.058 108.674 368.356 108.08 367.186 108.08C365.962 108.08 365.278 108.602 365.278 109.538C365.278 110.204 365.746 110.672 366.7 110.906L368.194 111.284C369.706 111.662 370.39 112.364 370.39 113.624C370.39 115.19 369.058 116.216 367.078 116.216C365.116 116.216 363.892 115.172 363.892 113.552ZM379.425 116H378.201V108.332H376.455V107.288H378.201V104.534H379.425V107.288H381.171V108.332H379.425V116ZM387.342 107.18V108.296H386.658C385.056 108.296 384.03 109.376 384.03 111.032V116H382.788V107.288H383.958L384.048 108.638C384.39 107.702 385.308 107.09 386.532 107.09C386.802 107.09 387.036 107.108 387.342 107.18ZM391.144 116.216C389.29 116.216 388.192 115.172 388.192 113.642C388.192 112.04 389.416 111.032 391.45 110.87L394.33 110.636V110.348C394.33 108.638 393.304 108.098 392.026 108.098C390.514 108.098 389.614 108.782 389.614 109.952H388.48C388.48 108.188 389.92 107.054 392.062 107.054C394.078 107.054 395.554 108.062 395.554 110.366V116H394.51L394.348 114.47C393.808 115.568 392.62 116.216 391.144 116.216ZM391.432 115.208C393.268 115.208 394.33 113.93 394.33 112.04V111.572L391.756 111.77C390.118 111.914 389.452 112.634 389.452 113.606C389.452 114.668 390.244 115.208 391.432 115.208ZM399.126 116H398.046V102.878H399.288V108.98C399.9 107.702 401.088 107.054 402.564 107.054C405.102 107.054 406.578 109.034 406.578 111.662C406.578 114.272 405.066 116.216 402.528 116.216C401.07 116.216 399.864 115.568 399.252 114.218L399.126 116ZM399.306 111.626C399.306 113.642 400.422 115.082 402.33 115.082C404.22 115.082 405.318 113.642 405.318 111.626C405.318 109.628 404.22 108.17 402.33 108.17C400.422 108.17 399.306 109.628 399.306 111.626ZM411.06 116.216C409.206 116.216 408.108 115.172 408.108 113.642C408.108 112.04 409.332 111.032 411.366 110.87L414.246 110.636V110.348C414.246 108.638 413.22 108.098 411.942 108.098C410.43 108.098 409.53 108.782 409.53 109.952H408.396C408.396 108.188 409.836 107.054 411.978 107.054C413.994 107.054 415.47 108.062 415.47 110.366V116H414.426L414.264 114.47C413.724 115.568 412.536 116.216 411.06 116.216ZM411.348 115.208C413.184 115.208 414.246 113.93 414.246 112.04V111.572L411.672 111.77C410.034 111.914 409.368 112.634 409.368 113.606C409.368 114.668 410.16 115.208 411.348 115.208ZM418.592 104.894C418.07 104.894 417.656 104.48 417.656 103.976C417.656 103.472 418.07 103.04 418.592 103.04C419.078 103.04 419.51 103.472 419.51 103.976C419.51 104.48 419.078 104.894 418.592 104.894ZM415.64 119.816L415.874 118.682C416.234 118.772 416.45 118.808 416.72 118.808C417.584 118.808 417.962 118.304 417.962 117.242V107.288H419.204V117.314C419.204 118.97 418.34 119.978 416.81 119.978C416.342 119.978 416.09 119.942 415.64 119.816ZM424.296 116.216C422.442 116.216 421.344 115.172 421.344 113.642C421.344 112.04 422.568 111.032 424.602 110.87L427.482 110.636V110.348C427.482 108.638 426.456 108.098 425.178 108.098C423.666 108.098 422.766 108.782 422.766 109.952H421.632C421.632 108.188 423.072 107.054 425.214 107.054C427.23 107.054 428.706 108.062 428.706 110.366V116H427.662L427.5 114.47C426.96 115.568 425.772 116.216 424.296 116.216ZM424.584 115.208C426.42 115.208 427.482 113.93 427.482 112.04V111.572L424.908 111.77C423.27 111.914 422.604 112.634 422.604 113.606C422.604 114.668 423.396 115.208 424.584 115.208ZM432.44 116H431.198V107.288H432.278L432.458 108.8C433.034 107.684 434.186 107.054 435.446 107.054C437.84 107.054 438.83 108.476 438.83 110.672V116H437.588V110.942C437.588 108.908 436.67 108.188 435.23 108.188C433.448 108.188 432.44 109.484 432.44 111.446V116ZM444.726 116.216C442.188 116.216 440.694 114.272 440.694 111.662C440.694 109.034 442.188 107.054 444.78 107.054C446.22 107.054 447.372 107.684 447.984 108.944V102.878H449.226V116H448.146L448.02 114.218C447.408 115.568 446.184 116.216 444.726 116.216ZM444.942 115.082C446.85 115.082 447.966 113.642 447.966 111.626C447.966 109.628 446.85 108.17 444.942 108.17C443.052 108.17 441.954 109.628 441.954 111.626C441.954 113.642 443.052 115.082 444.942 115.082ZM451.205 111.644C451.205 108.98 453.077 107.054 455.633 107.054C458.189 107.054 460.061 108.98 460.061 111.644C460.061 114.29 458.189 116.216 455.633 116.216C453.077 116.216 451.205 114.29 451.205 111.644ZM452.465 111.626C452.465 113.678 453.761 115.1 455.633 115.1C457.487 115.1 458.801 113.678 458.801 111.626C458.801 109.61 457.487 108.17 455.633 108.17C453.761 108.17 452.465 109.61 452.465 111.626ZM470.694 116.216C468.138 116.216 466.428 114.38 466.428 111.644C466.428 108.926 468.12 107.054 470.604 107.054C472.962 107.054 474.564 108.728 474.564 111.194V111.806H467.634C467.724 113.93 468.84 115.154 470.712 115.154C472.134 115.154 473.052 114.542 473.376 113.39H474.564C474.096 115.226 472.746 116.216 470.694 116.216ZM470.604 108.116C468.966 108.116 467.886 109.196 467.67 110.906H473.322C473.322 109.232 472.242 108.116 470.604 108.116ZM477.792 116H476.55V107.288H477.63L477.81 108.8C478.386 107.684 479.538 107.054 480.798 107.054C483.192 107.054 484.182 108.476 484.182 110.672V116H482.94V110.942C482.94 108.908 482.022 108.188 480.582 108.188C478.8 108.188 477.792 109.484 477.792 111.446V116ZM50.538 140H49.296V131.288H50.376L50.556 132.8C51.132 131.684 52.284 131.054 53.544 131.054C55.938 131.054 56.928 132.476 56.928 134.672V140H55.686V134.942C55.686 132.908 54.768 132.188 53.328 132.188C51.546 132.188 50.538 133.484 50.538 135.446V140ZM65.5234 131.288H66.7654V140H65.6854L65.5234 138.524C65.0374 139.532 63.8314 140.216 62.4634 140.216C60.4114 140.216 59.2954 138.812 59.2954 136.688V131.27H60.5554V136.292C60.5554 138.362 61.4734 139.1 62.8594 139.1C64.5334 139.1 65.5234 137.984 65.5234 135.914V131.288ZM72.8309 140.216C70.2749 140.216 68.5649 138.38 68.5649 135.644C68.5649 132.926 70.2569 131.054 72.7409 131.054C75.0989 131.054 76.7009 132.728 76.7009 135.194V135.806H69.7709C69.8609 137.93 70.9769 139.154 72.8489 139.154C74.2709 139.154 75.1889 138.542 75.5129 137.39H76.7009C76.2329 139.226 74.8829 140.216 72.8309 140.216ZM72.7409 132.116C71.1029 132.116 70.0229 133.196 69.8069 134.906H75.4589C75.4589 133.232 74.3789 132.116 72.7409 132.116ZM80.8881 140L77.3241 131.288H78.6561L80.9061 136.904C81.1401 137.534 81.3741 138.128 81.5361 138.704C81.6981 138.11 81.9321 137.534 82.1841 136.904L84.4701 131.288H85.7481L82.1301 140H80.8881ZM86.2133 135.644C86.2133 132.98 88.0853 131.054 90.6413 131.054C93.1973 131.054 95.0693 132.98 95.0693 135.644C95.0693 138.29 93.1973 140.216 90.6413 140.216C88.0853 140.216 86.2133 138.29 86.2133 135.644ZM87.4733 135.626C87.4733 137.678 88.7693 139.1 90.6413 139.1C92.4953 139.1 93.8093 137.678 93.8093 135.626C93.8093 133.61 92.4953 132.17 90.6413 132.17C88.7693 132.17 87.4733 133.61 87.4733 135.626ZM101.076 131.288H102.408V129.596C102.408 127.634 103.488 126.878 104.82 126.878C105.126 126.878 105.486 126.896 105.774 126.95V128.012H105.036C103.938 128.012 103.65 128.57 103.65 129.596V131.288H105.702V132.332H103.65V140H102.408V132.332H101.076V131.288ZM110.782 140.216C108.226 140.216 106.516 138.38 106.516 135.644C106.516 132.926 108.208 131.054 110.692 131.054C113.05 131.054 114.652 132.728 114.652 135.194V135.806H107.722C107.812 137.93 108.928 139.154 110.8 139.154C112.222 139.154 113.14 138.542 113.464 137.39H114.652C114.184 139.226 112.834 140.216 110.782 140.216ZM110.692 132.116C109.054 132.116 107.974 133.196 107.758 134.906H113.41C113.41 133.232 112.33 132.116 110.692 132.116ZM119.052 140.216C117.198 140.216 116.1 139.172 116.1 137.642C116.1 136.04 117.324 135.032 119.358 134.87L122.238 134.636V134.348C122.238 132.638 121.212 132.098 119.934 132.098C118.422 132.098 117.522 132.782 117.522 133.952H116.388C116.388 132.188 117.828 131.054 119.97 131.054C121.986 131.054 123.462 132.062 123.462 134.366V140H122.418L122.256 138.47C121.716 139.568 120.528 140.216 119.052 140.216ZM119.34 139.208C121.176 139.208 122.238 137.93 122.238 136.04V135.572L119.664 135.77C118.026 135.914 117.36 136.634 117.36 137.606C117.36 138.668 118.152 139.208 119.34 139.208ZM127.794 140H126.57V132.332H124.824V131.288H126.57V128.534H127.794V131.288H129.54V132.332H127.794V140ZM137.277 131.288H138.519V140H137.439L137.277 138.524C136.791 139.532 135.585 140.216 134.217 140.216C132.165 140.216 131.049 138.812 131.049 136.688V131.27H132.309V136.292C132.309 138.362 133.227 139.1 134.613 139.1C136.287 139.1 137.277 137.984 137.277 135.914V131.288ZM145.661 131.18V132.296H144.977C143.375 132.296 142.349 133.376 142.349 135.032V140H141.107V131.288H142.277L142.367 132.638C142.709 131.702 143.627 131.09 144.851 131.09C145.121 131.09 145.355 131.108 145.661 131.18ZM150.632 140.216C148.076 140.216 146.366 138.38 146.366 135.644C146.366 132.926 148.058 131.054 150.542 131.054C152.9 131.054 154.502 132.728 154.502 135.194V135.806H147.572C147.662 137.93 148.778 139.154 150.65 139.154C152.072 139.154 152.99 138.542 153.314 137.39H154.502C154.034 139.226 152.684 140.216 150.632 140.216ZM150.542 132.116C148.904 132.116 147.824 133.196 147.608 134.906H153.26C153.26 133.232 152.18 132.116 150.542 132.116ZM155.749 137.552H156.937C156.937 138.56 157.693 139.19 158.917 139.19C160.267 139.19 161.059 138.614 161.059 137.678C161.059 136.958 160.699 136.544 159.673 136.292L158.179 135.914C156.667 135.536 155.929 134.744 155.929 133.556C155.929 132.026 157.207 131.054 159.079 131.054C160.915 131.054 162.103 132.062 162.157 133.682H160.951C160.915 132.674 160.213 132.08 159.043 132.08C157.819 132.08 157.135 132.602 157.135 133.538C157.135 134.204 157.603 134.672 158.557 134.906L160.051 135.284C161.563 135.662 162.247 136.364 162.247 137.624C162.247 139.19 160.915 140.216 158.935 140.216C156.973 140.216 155.749 139.172 155.749 137.552ZM169.284 143.798V131.288H170.364L170.49 133.052C171.102 131.702 172.326 131.054 173.784 131.054C176.304 131.054 177.816 132.98 177.816 135.608C177.816 138.236 176.358 140.216 173.784 140.216C172.308 140.216 171.138 139.586 170.526 138.326V143.798H169.284ZM170.544 135.644C170.544 137.642 171.66 139.1 173.568 139.1C175.458 139.1 176.556 137.642 176.556 135.644C176.556 133.628 175.458 132.188 173.568 132.188C171.66 132.188 170.544 133.628 170.544 135.644ZM182.298 140.216C180.444 140.216 179.346 139.172 179.346 137.642C179.346 136.04 180.57 135.032 182.604 134.87L185.484 134.636V134.348C185.484 132.638 184.458 132.098 183.18 132.098C181.668 132.098 180.768 132.782 180.768 133.952H179.634C179.634 132.188 181.074 131.054 183.216 131.054C185.232 131.054 186.708 132.062 186.708 134.366V140H185.664L185.502 138.47C184.962 139.568 183.774 140.216 182.298 140.216ZM182.586 139.208C184.422 139.208 185.484 137.93 185.484 136.04V135.572L182.91 135.77C181.272 135.914 180.606 136.634 180.606 137.606C180.606 138.668 181.398 139.208 182.586 139.208ZM193.754 131.18V132.296H193.07C191.468 132.296 190.442 133.376 190.442 135.032V140H189.2V131.288H190.37L190.46 132.638C190.802 131.702 191.72 131.09 192.944 131.09C193.214 131.09 193.448 131.108 193.754 131.18ZM197.556 140.216C195.702 140.216 194.604 139.172 194.604 137.642C194.604 136.04 195.828 135.032 197.862 134.87L200.742 134.636V134.348C200.742 132.638 199.716 132.098 198.438 132.098C196.926 132.098 196.026 132.782 196.026 133.952H194.892C194.892 132.188 196.332 131.054 198.474 131.054C200.49 131.054 201.966 132.062 201.966 134.366V140H200.922L200.76 138.47C200.22 139.568 199.032 140.216 197.556 140.216ZM197.844 139.208C199.68 139.208 200.742 137.93 200.742 136.04V135.572L198.168 135.77C196.53 135.914 195.864 136.634 195.864 137.606C195.864 138.668 196.656 139.208 197.844 139.208ZM210.692 140H209.45V131.288H210.53L210.674 132.53C211.106 131.612 212.078 131.054 213.302 131.054C214.67 131.054 215.696 131.774 216.11 132.908C216.506 131.774 217.568 131.054 218.972 131.054C220.862 131.054 222.104 132.278 222.104 134.294V140H220.898V134.546C220.898 133.052 220.07 132.17 218.738 132.17C217.28 132.17 216.416 133.268 216.416 134.618V140H215.192V134.528C215.192 133.052 214.346 132.188 213.032 132.188C211.574 132.188 210.692 133.268 210.692 134.6V140ZM228.257 140.216C225.701 140.216 223.991 138.38 223.991 135.644C223.991 132.926 225.683 131.054 228.167 131.054C230.525 131.054 232.127 132.728 232.127 135.194V135.806H225.197C225.287 137.93 226.403 139.154 228.275 139.154C229.697 139.154 230.615 138.542 230.939 137.39H232.127C231.659 139.226 230.309 140.216 228.257 140.216ZM228.167 132.116C226.529 132.116 225.449 133.196 225.233 134.906H230.885C230.885 133.232 229.805 132.116 228.167 132.116ZM234.742 128.894C234.22 128.894 233.806 128.48 233.806 127.976C233.806 127.472 234.22 127.04 234.742 127.04C235.228 127.04 235.66 127.472 235.66 127.976C235.66 128.48 235.228 128.894 234.742 128.894ZM231.79 143.816L232.024 142.682C232.384 142.772 232.6 142.808 232.87 142.808C233.734 142.808 234.112 142.304 234.112 141.242V131.288H235.354V141.314C235.354 142.97 234.49 143.978 232.96 143.978C232.492 143.978 232.24 143.942 231.79 143.816ZM237.332 135.644C237.332 132.98 239.204 131.054 241.76 131.054C244.316 131.054 246.188 132.98 246.188 135.644C246.188 138.29 244.316 140.216 241.76 140.216C239.204 140.216 237.332 138.29 237.332 135.644ZM238.592 135.626C238.592 137.678 239.888 139.1 241.76 139.1C243.614 139.1 244.928 137.678 244.928 135.626C244.928 133.61 243.614 132.17 241.76 132.17C239.888 132.17 238.592 133.61 238.592 135.626ZM252.729 131.18V132.296H252.045C250.443 132.296 249.417 133.376 249.417 135.032V140H248.175V131.288H249.345L249.435 132.638C249.777 131.702 250.695 131.09 251.919 131.09C252.189 131.09 252.423 131.108 252.729 131.18ZM256.53 140.216C254.676 140.216 253.578 139.172 253.578 137.642C253.578 136.04 254.802 135.032 256.836 134.87L259.716 134.636V134.348C259.716 132.638 258.69 132.098 257.412 132.098C255.9 132.098 255 132.782 255 133.952H253.866C253.866 132.188 255.306 131.054 257.448 131.054C259.464 131.054 260.94 132.062 260.94 134.366V140H259.896L259.734 138.47C259.194 139.568 258.006 140.216 256.53 140.216ZM256.818 139.208C258.654 139.208 259.716 137.93 259.716 136.04V135.572L257.142 135.77C255.504 135.914 254.838 136.634 254.838 137.606C254.838 138.668 255.63 139.208 256.818 139.208ZM267.987 131.18V132.296H267.303C265.701 132.296 264.675 133.376 264.675 135.032V140H263.433V131.288H264.603L264.693 132.638C265.035 131.702 265.953 131.09 267.177 131.09C267.447 131.09 267.681 131.108 267.987 131.18ZM276.628 140H275.404V132.332H273.658V131.288H275.404V128.534H276.628V131.288H278.374V132.332H276.628V140ZM286.111 131.288H287.353V140H286.273L286.111 138.524C285.625 139.532 284.419 140.216 283.051 140.216C280.999 140.216 279.883 138.812 279.883 136.688V131.27H281.143V136.292C281.143 138.362 282.061 139.1 283.447 139.1C285.121 139.1 286.111 137.984 286.111 135.914V131.288ZM298.587 140.216C296.031 140.216 294.321 138.38 294.321 135.644C294.321 132.926 296.013 131.054 298.497 131.054C300.855 131.054 302.457 132.728 302.457 135.194V135.806H295.527C295.617 137.93 296.733 139.154 298.605 139.154C300.027 139.154 300.945 138.542 301.269 137.39H302.457C301.989 139.226 300.639 140.216 298.587 140.216ZM298.497 132.116C296.859 132.116 295.779 133.196 295.563 134.906H301.215C301.215 133.232 300.135 132.116 298.497 132.116ZM304.486 140H303.028L306.142 135.644L303.046 131.288H304.504L306.97 134.78L309.418 131.288H310.858L307.762 135.662L310.84 140H309.364L306.916 136.508L304.486 140ZM312.335 143.798V131.288H313.415L313.541 133.052C314.153 131.702 315.377 131.054 316.835 131.054C319.355 131.054 320.867 132.98 320.867 135.608C320.867 138.236 319.409 140.216 316.835 140.216C315.359 140.216 314.189 139.586 313.577 138.326V143.798H312.335ZM313.595 135.644C313.595 137.642 314.711 139.1 316.619 139.1C318.509 139.1 319.607 137.642 319.607 135.644C319.607 133.628 318.509 132.188 316.619 132.188C314.711 132.188 313.595 133.628 313.595 135.644ZM326.501 140.216C323.945 140.216 322.235 138.38 322.235 135.644C322.235 132.926 323.927 131.054 326.411 131.054C328.769 131.054 330.371 132.728 330.371 135.194V135.806H323.441C323.531 137.93 324.647 139.154 326.519 139.154C327.941 139.154 328.859 138.542 329.183 137.39H330.371C329.903 139.226 328.553 140.216 326.501 140.216ZM326.411 132.116C324.773 132.116 323.693 133.196 323.477 134.906H329.129C329.129 133.232 328.049 132.116 326.411 132.116ZM336.911 131.18V132.296H336.227C334.625 132.296 333.599 133.376 333.599 135.032V140H332.357V131.288H333.527L333.617 132.638C333.959 131.702 334.877 131.09 336.101 131.09C336.371 131.09 336.605 131.108 336.911 131.18ZM339.174 128.894C338.67 128.894 338.256 128.48 338.256 127.976C338.256 127.472 338.67 127.04 339.174 127.04C339.678 127.04 340.11 127.472 340.11 127.976C340.11 128.48 339.678 128.894 339.174 128.894ZM338.562 140V131.288H339.804V140H338.562ZM346.048 140.216C343.492 140.216 341.782 138.38 341.782 135.644C341.782 132.926 343.474 131.054 345.958 131.054C348.316 131.054 349.918 132.728 349.918 135.194V135.806H342.988C343.078 137.93 344.194 139.154 346.066 139.154C347.488 139.154 348.406 138.542 348.73 137.39H349.918C349.45 139.226 348.1 140.216 346.048 140.216ZM345.958 132.116C344.32 132.116 343.24 133.196 343.024 134.906H348.676C348.676 133.232 347.596 132.116 345.958 132.116ZM353.145 140H351.903V131.288H352.983L353.163 132.8C353.739 131.684 354.891 131.054 356.151 131.054C358.545 131.054 359.535 132.476 359.535 134.672V140H358.293V134.942C358.293 132.908 357.375 132.188 355.935 132.188C354.153 132.188 353.145 133.484 353.145 135.446V140ZM361.399 135.662C361.399 132.926 363.073 131.054 365.611 131.054C367.627 131.054 369.103 132.224 369.445 134.024H368.203C367.879 132.818 366.835 132.152 365.629 132.152C363.865 132.152 362.623 133.502 362.623 135.644C362.623 137.714 363.775 139.1 365.539 139.1C366.835 139.1 367.879 138.38 368.221 137.264H369.481C369.067 139.046 367.519 140.216 365.539 140.216C363.073 140.216 361.399 138.398 361.399 135.662ZM371.974 128.894C371.47 128.894 371.056 128.48 371.056 127.976C371.056 127.472 371.47 127.04 371.974 127.04C372.478 127.04 372.91 127.472 372.91 127.976C372.91 128.48 372.478 128.894 371.974 128.894ZM371.362 140V131.288H372.604V140H371.362ZM377.696 140.216C375.842 140.216 374.744 139.172 374.744 137.642C374.744 136.04 375.968 135.032 378.002 134.87L380.882 134.636V134.348C380.882 132.638 379.856 132.098 378.578 132.098C377.066 132.098 376.166 132.782 376.166 133.952H375.032C375.032 132.188 376.472 131.054 378.614 131.054C380.63 131.054 382.106 132.062 382.106 134.366V140H381.062L380.9 138.47C380.36 139.568 379.172 140.216 377.696 140.216ZM377.984 139.208C379.82 139.208 380.882 137.93 380.882 136.04V135.572L378.308 135.77C376.67 135.914 376.004 136.634 376.004 137.606C376.004 138.668 376.796 139.208 377.984 139.208ZM385.661 140.198C385.049 140.198 384.527 139.694 384.527 139.1C384.527 138.488 385.049 137.966 385.661 137.966C386.273 137.966 386.795 138.488 386.795 139.1C386.795 139.694 386.273 140.198 385.661 140.198Z" fill="#9DA3AE"/>
</svg>
