<svg width="240" height="72" viewBox="0 0 240 72" fill="none" xmlns="http://www.w3.org/2000/svg">
<rect width="240" height="72" rx="8" fill="#F4F5FB"/>
<rect x="16.5" y="12.5" width="207" height="47" rx="7.5" fill="white" stroke="#E3E1E1"/>
<path d="M30.96 40.592H36.88V42H29.376V30.672H36.64V32.064H30.96V35.456H36.304V36.816H30.96V40.592ZM43.0014 36.336C42.8307 36.0587 42.5907 35.8347 42.2814 35.664C41.972 35.4827 41.6254 35.392 41.2414 35.392C41.0707 35.392 40.9 35.4133 40.7294 35.456C40.5587 35.488 40.404 35.5467 40.2654 35.632C40.1374 35.7067 40.0307 35.808 39.9454 35.936C39.8707 36.0533 39.8334 36.2027 39.8334 36.384C39.8334 36.704 39.9774 36.944 40.2654 37.104C40.5534 37.2533 40.9854 37.392 41.5614 37.52C41.924 37.6053 42.26 37.7067 42.5694 37.824C42.8787 37.9413 43.1454 38.0907 43.3694 38.272C43.604 38.4427 43.7854 38.6507 43.9134 38.896C44.0414 39.1413 44.1054 39.4293 44.1054 39.76C44.1054 40.208 44.02 40.5867 43.8494 40.896C43.6787 41.2053 43.4494 41.4613 43.1614 41.664C42.884 41.856 42.564 41.9947 42.2014 42.08C41.8387 42.1653 41.4654 42.208 41.0814 42.208C40.5054 42.208 39.94 42.096 39.3854 41.872C38.8414 41.648 38.388 41.3067 38.0254 40.848L39.0974 39.936C39.3 40.2347 39.5774 40.4853 39.9294 40.688C40.292 40.8907 40.6867 40.992 41.1134 40.992C41.3054 40.992 41.4867 40.976 41.6574 40.944C41.8387 40.9013 41.9987 40.8373 42.1374 40.752C42.2867 40.6667 42.404 40.5547 42.4894 40.416C42.5747 40.2773 42.6174 40.1013 42.6174 39.888C42.6174 39.536 42.4467 39.2747 42.1054 39.104C41.7747 38.9333 41.284 38.7733 40.6334 38.624C40.3774 38.56 40.116 38.4853 39.8494 38.4C39.5934 38.304 39.3587 38.176 39.1454 38.016C38.932 37.856 38.756 37.6587 38.6174 37.424C38.4894 37.1787 38.4254 36.88 38.4254 36.528C38.4254 36.1227 38.5054 35.776 38.6654 35.488C38.836 35.1893 39.0547 34.9493 39.3214 34.768C39.588 34.576 39.892 34.4373 40.2334 34.352C40.5747 34.256 40.9267 34.208 41.2894 34.208C41.8334 34.208 42.356 34.3147 42.8574 34.528C43.3694 34.7413 43.764 35.0507 44.0414 35.456L43.0014 36.336ZM51.3268 36.336C51.1668 36.0907 50.9268 35.888 50.6068 35.728C50.2868 35.5573 49.9454 35.472 49.5828 35.472C49.1881 35.472 48.8361 35.5467 48.5268 35.696C48.2281 35.8453 47.9721 36.048 47.7588 36.304C47.5454 36.5493 47.3801 36.8373 47.2628 37.168C47.1561 37.4987 47.1028 37.8453 47.1028 38.208C47.1028 38.5707 47.1561 38.9173 47.2628 39.248C47.3801 39.5787 47.5454 39.872 47.7588 40.128C47.9721 40.3733 48.2334 40.5707 48.5428 40.72C48.8521 40.8693 49.2041 40.944 49.5988 40.944C49.9828 40.944 50.3294 40.8693 50.6388 40.72C50.9588 40.5707 51.2201 40.368 51.4228 40.112L52.4308 41.024C52.1108 41.3973 51.7108 41.6907 51.2308 41.904C50.7508 42.1067 50.2068 42.208 49.5988 42.208C49.0121 42.208 48.4681 42.112 47.9668 41.92C47.4761 41.728 47.0494 41.4613 46.6868 41.12C46.3241 40.768 46.0361 40.3467 45.8228 39.856C45.6201 39.3653 45.5188 38.816 45.5188 38.208C45.5188 37.6107 45.6201 37.0667 45.8228 36.576C46.0254 36.0853 46.3081 35.664 46.6708 35.312C47.0334 34.96 47.4601 34.688 47.9508 34.496C48.4521 34.304 48.9908 34.208 49.5668 34.208C50.1001 34.208 50.6281 34.3147 51.1508 34.528C51.6841 34.7413 52.1054 35.0507 52.4148 35.456L51.3268 36.336ZM53.921 36.048C53.921 35.8453 53.9157 35.584 53.905 35.264C53.8943 34.944 53.8783 34.6613 53.857 34.416H55.281C55.3023 34.608 55.3183 34.832 55.329 35.088C55.3397 35.3333 55.345 35.536 55.345 35.696H55.393C55.6063 35.248 55.9157 34.8907 56.321 34.624C56.737 34.3467 57.201 34.208 57.713 34.208C57.9477 34.208 58.145 34.2293 58.305 34.272L58.241 35.664C58.0277 35.6107 57.7983 35.584 57.553 35.584C57.1903 35.584 56.8757 35.6533 56.609 35.792C56.3423 35.92 56.1183 36.096 55.937 36.32C55.7663 36.544 55.6383 36.8053 55.553 37.104C55.4677 37.392 55.425 37.696 55.425 38.016V42H53.921V36.048ZM61.2379 42H59.7339V34.416H61.2379V42ZM61.4939 31.68C61.4939 31.9573 61.3925 32.1867 61.1899 32.368C60.9979 32.5493 60.7632 32.64 60.4859 32.64C60.2085 32.64 59.9739 32.5493 59.7819 32.368C59.5899 32.176 59.4939 31.9467 59.4939 31.68C59.4939 31.4027 59.5899 31.1733 59.7819 30.992C59.9739 30.8 60.2085 30.704 60.4859 30.704C60.7632 30.704 60.9979 30.8 61.1899 30.992C61.3925 31.1733 61.4939 31.4027 61.4939 31.68ZM65.3465 40.8V42H63.8905V29.904H65.3945V35.552H65.4425C65.6985 35.1787 66.0558 34.864 66.5145 34.608C66.9732 34.3413 67.5172 34.208 68.1465 34.208C68.7118 34.208 69.2238 34.3093 69.6825 34.512C70.1518 34.7147 70.5518 34.9973 70.8825 35.36C71.2238 35.7227 71.4852 36.1493 71.6665 36.64C71.8478 37.12 71.9385 37.6373 71.9385 38.192C71.9385 38.7467 71.8478 39.2693 71.6665 39.76C71.4852 40.2507 71.2292 40.6773 70.8985 41.04C70.5678 41.4027 70.1678 41.6907 69.6985 41.904C69.2292 42.1067 68.7012 42.208 68.1145 42.208C67.5705 42.208 67.0532 42.0907 66.5625 41.856C66.0718 41.6107 65.6772 41.2587 65.3785 40.8H65.3465ZM70.3865 38.192C70.3865 37.84 70.3332 37.4987 70.2265 37.168C70.1198 36.8373 69.9598 36.544 69.7465 36.288C69.5332 36.032 69.2665 35.8293 68.9465 35.68C68.6372 35.5307 68.2745 35.456 67.8585 35.456C67.4745 35.456 67.1225 35.5307 66.8025 35.68C66.4932 35.8293 66.2265 36.032 66.0025 36.288C65.7785 36.544 65.6025 36.8373 65.4745 37.168C65.3572 37.4987 65.2985 37.8453 65.2985 38.208C65.2985 38.5707 65.3572 38.9173 65.4745 39.248C65.6025 39.5787 65.7785 39.872 66.0025 40.128C66.2265 40.3733 66.4932 40.5707 66.8025 40.72C67.1225 40.8693 67.4745 40.944 67.8585 40.944C68.2745 40.944 68.6372 40.8693 68.9465 40.72C69.2665 40.56 69.5332 40.352 69.7465 40.096C69.9598 39.84 70.1198 39.5467 70.2265 39.216C70.3332 38.8853 70.3865 38.544 70.3865 38.192ZM79.5824 37.536C79.5717 37.2373 79.5184 36.96 79.4224 36.704C79.337 36.4373 79.2037 36.208 79.0224 36.016C78.8517 35.824 78.633 35.6747 78.3664 35.568C78.1104 35.4507 77.8064 35.392 77.4544 35.392C77.1344 35.392 76.8304 35.4507 76.5424 35.568C76.265 35.6747 76.0197 35.824 75.8064 36.016C75.6037 36.208 75.433 36.4373 75.2944 36.704C75.1664 36.96 75.0917 37.2373 75.0704 37.536H79.5824ZM81.1024 38.144C81.1024 38.2293 81.1024 38.3147 81.1024 38.4C81.1024 38.4853 81.097 38.5707 81.0864 38.656H75.0704C75.081 38.976 75.1504 39.28 75.2784 39.568C75.417 39.8453 75.5984 40.0907 75.8224 40.304C76.0464 40.5067 76.3024 40.6667 76.5904 40.784C76.889 40.9013 77.2037 40.96 77.5344 40.96C78.0464 40.96 78.489 40.848 78.8624 40.624C79.2357 40.4 79.529 40.128 79.7424 39.808L80.7984 40.656C80.393 41.1893 79.913 41.584 79.3584 41.84C78.8144 42.0853 78.2064 42.208 77.5344 42.208C76.9584 42.208 76.425 42.112 75.9344 41.92C75.4437 41.728 75.0224 41.4613 74.6704 41.12C74.3184 40.768 74.041 40.3467 73.8384 39.856C73.6357 39.3653 73.5344 38.8213 73.5344 38.224C73.5344 37.6373 73.6304 37.0987 73.8224 36.608C74.025 36.1067 74.3024 35.68 74.6544 35.328C75.0064 34.976 75.4224 34.704 75.9024 34.512C76.3824 34.3093 76.8997 34.208 77.4544 34.208C78.009 34.208 78.5104 34.2987 78.9584 34.48C79.417 34.6613 79.801 34.9227 80.1104 35.264C80.4304 35.6053 80.6757 36.0213 80.8464 36.512C81.017 36.992 81.1024 37.536 81.1024 38.144Z" fill="#3C424E" fill-opacity="0.3"/>
</svg>
