<svg width="240" height="72" viewBox="0 0 240 72" fill="none" xmlns="http://www.w3.org/2000/svg">
<rect width="240" height="72" rx="8" fill="#F4F5FB"/>
<rect x="16.5" y="12.5" width="207" height="47" rx="7.5" fill="white" stroke="#E3E1E1"/>
<path d="M210 33L204 39L198 33" stroke="#4B5563" stroke-width="2" stroke-miterlimit="10" stroke-linecap="round" stroke-linejoin="round"/>
<path d="M35.008 32.768C34.784 32.4587 34.48 32.208 34.096 32.016C33.712 31.8133 33.28 31.712 32.8 31.712C32.544 31.712 32.2827 31.7493 32.016 31.824C31.76 31.888 31.5253 32 31.312 32.16C31.0987 32.3093 30.9227 32.5013 30.784 32.736C30.656 32.96 30.592 33.232 30.592 33.552C30.592 33.8613 30.6507 34.1227 30.768 34.336C30.896 34.5387 31.0613 34.7147 31.264 34.864C31.4773 35.0027 31.7227 35.1253 32 35.232C32.288 35.328 32.592 35.4293 32.912 35.536C33.296 35.6533 33.6853 35.7867 34.08 35.936C34.4747 36.0853 34.832 36.2827 35.152 36.528C35.472 36.7733 35.7333 37.0827 35.936 37.456C36.1387 37.8187 36.24 38.2827 36.24 38.848C36.24 39.4347 36.128 39.9467 35.904 40.384C35.6907 40.8107 35.4027 41.168 35.04 41.456C34.6773 41.7333 34.256 41.9413 33.776 42.08C33.3067 42.2187 32.8213 42.288 32.32 42.288C31.6053 42.288 30.912 42.1493 30.24 41.872C29.5787 41.5947 29.0293 41.184 28.592 40.64L29.824 39.6C30.0907 39.9947 30.448 40.3147 30.896 40.56C31.344 40.8053 31.8293 40.928 32.352 40.928C32.6187 40.928 32.8853 40.8907 33.152 40.816C33.4187 40.7413 33.6587 40.624 33.872 40.464C34.096 40.304 34.2773 40.1067 34.416 39.872C34.5547 39.6267 34.624 39.3333 34.624 38.992C34.624 38.6507 34.5493 38.368 34.4 38.144C34.2613 37.9093 34.0693 37.712 33.824 37.552C33.5787 37.392 33.2907 37.2587 32.96 37.152C32.64 37.0347 32.2987 36.9173 31.936 36.8C31.5733 36.6933 31.216 36.5653 30.864 36.416C30.512 36.256 30.1973 36.0587 29.92 35.824C29.6427 35.5787 29.4187 35.28 29.248 34.928C29.0773 34.576 28.992 34.1387 28.992 33.616C28.992 33.0507 29.104 32.5653 29.328 32.16C29.5627 31.7547 29.8613 31.4187 30.224 31.152C30.5973 30.8853 31.0133 30.6933 31.472 30.576C31.9413 30.448 32.4107 30.384 32.88 30.384C33.5413 30.384 34.16 30.5013 34.736 30.736C35.312 30.9707 35.776 31.2853 36.128 31.68L35.008 32.768ZM43.9574 37.536C43.9467 37.2373 43.8934 36.96 43.7974 36.704C43.712 36.4373 43.5787 36.208 43.3974 36.016C43.2267 35.824 43.008 35.6747 42.7414 35.568C42.4854 35.4507 42.1814 35.392 41.8294 35.392C41.5094 35.392 41.2054 35.4507 40.9174 35.568C40.64 35.6747 40.3947 35.824 40.1814 36.016C39.9787 36.208 39.808 36.4373 39.6694 36.704C39.5414 36.96 39.4667 37.2373 39.4454 37.536H43.9574ZM45.4774 38.144C45.4774 38.2293 45.4774 38.3147 45.4774 38.4C45.4774 38.4853 45.472 38.5707 45.4614 38.656H39.4454C39.456 38.976 39.5254 39.28 39.6534 39.568C39.792 39.8453 39.9734 40.0907 40.1974 40.304C40.4214 40.5067 40.6774 40.6667 40.9654 40.784C41.264 40.9013 41.5787 40.96 41.9094 40.96C42.4214 40.96 42.864 40.848 43.2374 40.624C43.6107 40.4 43.904 40.128 44.1174 39.808L45.1734 40.656C44.768 41.1893 44.288 41.584 43.7334 41.84C43.1894 42.0853 42.5814 42.208 41.9094 42.208C41.3334 42.208 40.8 42.112 40.3094 41.92C39.8187 41.728 39.3974 41.4613 39.0454 41.12C38.6934 40.768 38.416 40.3467 38.2134 39.856C38.0107 39.3653 37.9094 38.8213 37.9094 38.224C37.9094 37.6373 38.0054 37.0987 38.1974 36.608C38.4 36.1067 38.6774 35.68 39.0294 35.328C39.3814 34.976 39.7974 34.704 40.2774 34.512C40.7574 34.3093 41.2747 34.208 41.8294 34.208C42.384 34.208 42.8854 34.2987 43.3334 34.48C43.792 34.6613 44.176 34.9227 44.4854 35.264C44.8054 35.6053 45.0507 36.0213 45.2214 36.512C45.392 36.992 45.4774 37.536 45.4774 38.144ZM49.1133 42H47.6093V29.904H49.1133V42ZM57.2855 37.536C57.2748 37.2373 57.2215 36.96 57.1255 36.704C57.0402 36.4373 56.9068 36.208 56.7255 36.016C56.5548 35.824 56.3362 35.6747 56.0695 35.568C55.8135 35.4507 55.5095 35.392 55.1575 35.392C54.8375 35.392 54.5335 35.4507 54.2455 35.568C53.9682 35.6747 53.7228 35.824 53.5095 36.016C53.3068 36.208 53.1362 36.4373 52.9975 36.704C52.8695 36.96 52.7948 37.2373 52.7735 37.536H57.2855ZM58.8055 38.144C58.8055 38.2293 58.8055 38.3147 58.8055 38.4C58.8055 38.4853 58.8002 38.5707 58.7895 38.656H52.7735C52.7842 38.976 52.8535 39.28 52.9815 39.568C53.1202 39.8453 53.3015 40.0907 53.5255 40.304C53.7495 40.5067 54.0055 40.6667 54.2935 40.784C54.5922 40.9013 54.9068 40.96 55.2375 40.96C55.7495 40.96 56.1922 40.848 56.5655 40.624C56.9388 40.4 57.2322 40.128 57.4455 39.808L58.5015 40.656C58.0962 41.1893 57.6162 41.584 57.0615 41.84C56.5175 42.0853 55.9095 42.208 55.2375 42.208C54.6615 42.208 54.1282 42.112 53.6375 41.92C53.1468 41.728 52.7255 41.4613 52.3735 41.12C52.0215 40.768 51.7442 40.3467 51.5415 39.856C51.3388 39.3653 51.2375 38.8213 51.2375 38.224C51.2375 37.6373 51.3335 37.0987 51.5255 36.608C51.7282 36.1067 52.0055 35.68 52.3575 35.328C52.7095 34.976 53.1255 34.704 53.6055 34.512C54.0855 34.3093 54.6028 34.208 55.1575 34.208C55.7122 34.208 56.2135 34.2987 56.6615 34.48C57.1202 34.6613 57.5042 34.9227 57.8135 35.264C58.1335 35.6053 58.3788 36.0213 58.5495 36.512C58.7202 36.992 58.8055 37.536 58.8055 38.144ZM66.2174 36.336C66.0574 36.0907 65.8174 35.888 65.4974 35.728C65.1774 35.5573 64.836 35.472 64.4734 35.472C64.0787 35.472 63.7267 35.5467 63.4174 35.696C63.1187 35.8453 62.8627 36.048 62.6494 36.304C62.436 36.5493 62.2707 36.8373 62.1534 37.168C62.0467 37.4987 61.9934 37.8453 61.9934 38.208C61.9934 38.5707 62.0467 38.9173 62.1534 39.248C62.2707 39.5787 62.436 39.872 62.6494 40.128C62.8627 40.3733 63.124 40.5707 63.4334 40.72C63.7427 40.8693 64.0947 40.944 64.4894 40.944C64.8734 40.944 65.22 40.8693 65.5294 40.72C65.8494 40.5707 66.1107 40.368 66.3134 40.112L67.3214 41.024C67.0014 41.3973 66.6014 41.6907 66.1214 41.904C65.6414 42.1067 65.0974 42.208 64.4894 42.208C63.9027 42.208 63.3587 42.112 62.8574 41.92C62.3667 41.728 61.94 41.4613 61.5774 41.12C61.2147 40.768 60.9267 40.3467 60.7134 39.856C60.5107 39.3653 60.4094 38.816 60.4094 38.208C60.4094 37.6107 60.5107 37.0667 60.7134 36.576C60.916 36.0853 61.1987 35.664 61.5614 35.312C61.924 34.96 62.3507 34.688 62.8414 34.496C63.3427 34.304 63.8814 34.208 64.4574 34.208C64.9907 34.208 65.5187 34.3147 66.0414 34.528C66.5747 34.7413 66.996 35.0507 67.3054 35.456L66.2174 36.336ZM74.1236 36.336C73.9636 36.0907 73.7236 35.888 73.4036 35.728C73.0836 35.5573 72.7423 35.472 72.3796 35.472C71.985 35.472 71.633 35.5467 71.3236 35.696C71.025 35.8453 70.769 36.048 70.5556 36.304C70.3423 36.5493 70.177 36.8373 70.0596 37.168C69.953 37.4987 69.8996 37.8453 69.8996 38.208C69.8996 38.5707 69.953 38.9173 70.0596 39.248C70.177 39.5787 70.3423 39.872 70.5556 40.128C70.769 40.3733 71.0303 40.5707 71.3396 40.72C71.649 40.8693 72.001 40.944 72.3956 40.944C72.7796 40.944 73.1263 40.8693 73.4356 40.72C73.7556 40.5707 74.017 40.368 74.2196 40.112L75.2276 41.024C74.9076 41.3973 74.5076 41.6907 74.0276 41.904C73.5476 42.1067 73.0036 42.208 72.3956 42.208C71.809 42.208 71.265 42.112 70.7636 41.92C70.273 41.728 69.8463 41.4613 69.4836 41.12C69.121 40.768 68.833 40.3467 68.6196 39.856C68.417 39.3653 68.3156 38.816 68.3156 38.208C68.3156 37.6107 68.417 37.0667 68.6196 36.576C68.8223 36.0853 69.105 35.664 69.4676 35.312C69.8303 34.96 70.257 34.688 70.7476 34.496C71.249 34.304 71.7876 34.208 72.3636 34.208C72.897 34.208 73.425 34.3147 73.9476 34.528C74.481 34.7413 74.9023 35.0507 75.2116 35.456L74.1236 36.336ZM78.2379 42H76.7339V34.416H78.2379V42ZM78.4939 31.68C78.4939 31.9573 78.3925 32.1867 78.1899 32.368C77.9979 32.5493 77.7632 32.64 77.4859 32.64C77.2085 32.64 76.9739 32.5493 76.7819 32.368C76.5899 32.176 76.4939 31.9467 76.4939 31.68C76.4939 31.4027 76.5899 31.1733 76.7819 30.992C76.9739 30.8 77.2085 30.704 77.4859 30.704C77.7632 30.704 77.9979 30.8 78.1899 30.992C78.3925 31.1733 78.4939 31.4027 78.4939 31.68ZM88.5385 38.192C88.5385 38.7787 88.4318 39.3173 88.2185 39.808C88.0158 40.2987 87.7278 40.7253 87.3545 41.088C86.9918 41.44 86.5598 41.7173 86.0585 41.92C85.5572 42.112 85.0185 42.208 84.4425 42.208C83.8665 42.208 83.3278 42.112 82.8265 41.92C82.3252 41.7173 81.8932 41.44 81.5305 41.088C81.1678 40.7253 80.8798 40.2987 80.6665 39.808C80.4638 39.3173 80.3625 38.7787 80.3625 38.192C80.3625 37.6053 80.4638 37.072 80.6665 36.592C80.8798 36.1013 81.1678 35.68 81.5305 35.328C81.8932 34.976 82.3252 34.704 82.8265 34.512C83.3278 34.3093 83.8665 34.208 84.4425 34.208C85.0185 34.208 85.5572 34.3093 86.0585 34.512C86.5598 34.704 86.9918 34.976 87.3545 35.328C87.7278 35.68 88.0158 36.1013 88.2185 36.592C88.4318 37.072 88.5385 37.6053 88.5385 38.192ZM86.9705 38.192C86.9705 37.8293 86.9118 37.4827 86.7945 37.152C86.6878 36.8213 86.5278 36.5333 86.3145 36.288C86.1012 36.032 85.8345 35.8293 85.5145 35.68C85.2052 35.5307 84.8478 35.456 84.4425 35.456C84.0372 35.456 83.6745 35.5307 83.3545 35.68C83.0452 35.8293 82.7838 36.032 82.5705 36.288C82.3572 36.5333 82.1918 36.8213 82.0745 37.152C81.9678 37.4827 81.9145 37.8293 81.9145 38.192C81.9145 38.5547 81.9678 38.9013 82.0745 39.232C82.1918 39.5627 82.3572 39.856 82.5705 40.112C82.7838 40.368 83.0452 40.5707 83.3545 40.72C83.6745 40.8693 84.0372 40.944 84.4425 40.944C84.8478 40.944 85.2052 40.8693 85.5145 40.72C85.8345 40.5707 86.1012 40.368 86.3145 40.112C86.5278 39.856 86.6878 39.5627 86.7945 39.232C86.9118 38.9013 86.9705 38.5547 86.9705 38.192ZM91.9841 34.416C92.0055 34.608 92.0215 34.8267 92.0321 35.072C92.0428 35.3067 92.0481 35.504 92.0481 35.664H92.0961C92.1921 35.4613 92.3201 35.2747 92.4801 35.104C92.6508 34.9227 92.8428 34.768 93.0561 34.64C93.2695 34.5013 93.5041 34.3947 93.7601 34.32C94.0161 34.2453 94.2828 34.208 94.5601 34.208C95.0508 34.208 95.4721 34.2933 95.8241 34.464C96.1761 34.624 96.4695 34.8427 96.7041 35.12C96.9388 35.3973 97.1095 35.7227 97.2161 36.096C97.3335 36.4693 97.3921 36.8693 97.3921 37.296V42H95.8881V37.792C95.8881 37.4827 95.8615 37.1893 95.8081 36.912C95.7655 36.6347 95.6801 36.3893 95.5521 36.176C95.4241 35.9627 95.2481 35.792 95.0241 35.664C94.8001 35.536 94.5121 35.472 94.1601 35.472C93.5628 35.472 93.0721 35.7013 92.6881 36.16C92.3148 36.608 92.1281 37.2107 92.1281 37.968V42H90.6241V36.048C90.6241 35.8453 90.6188 35.584 90.6081 35.264C90.5975 34.944 90.5815 34.6613 90.5601 34.416H91.9841ZM104.657 37.088C104.657 36.5227 104.486 36.1067 104.145 35.84C103.803 35.5627 103.35 35.424 102.785 35.424C102.358 35.424 101.953 35.5093 101.569 35.68C101.195 35.84 100.881 36.048 100.625 36.304L99.8246 35.344C100.198 34.992 100.651 34.7147 101.185 34.512C101.729 34.3093 102.31 34.208 102.929 34.208C103.473 34.208 103.942 34.288 104.337 34.448C104.742 34.5973 105.073 34.8053 105.329 35.072C105.585 35.3387 105.777 35.6533 105.905 36.016C106.033 36.3787 106.097 36.768 106.097 37.184V40.496C106.097 40.752 106.102 41.024 106.113 41.312C106.134 41.5893 106.166 41.8187 106.209 42H104.849C104.763 41.6373 104.721 41.2747 104.721 40.912H104.673C104.395 41.3173 104.043 41.632 103.617 41.856C103.201 42.08 102.705 42.192 102.129 42.192C101.83 42.192 101.515 42.1493 101.185 42.064C100.865 41.9893 100.571 41.8613 100.305 41.68C100.038 41.4987 99.814 41.2587 99.6326 40.96C99.462 40.6613 99.3766 40.2933 99.3766 39.856C99.3766 39.28 99.5313 38.8267 99.8406 38.496C100.15 38.1547 100.555 37.8987 101.057 37.728C101.558 37.5467 102.123 37.4293 102.753 37.376C103.382 37.3227 104.017 37.296 104.657 37.296V37.088ZM104.289 38.384C103.915 38.384 103.526 38.4 103.121 38.432C102.726 38.464 102.363 38.528 102.033 38.624C101.713 38.72 101.446 38.864 101.233 39.056C101.019 39.248 100.913 39.504 100.913 39.824C100.913 40.048 100.955 40.2347 101.041 40.384C101.137 40.5333 101.259 40.656 101.409 40.752C101.558 40.848 101.723 40.9173 101.905 40.96C102.086 40.992 102.273 41.008 102.465 41.008C103.169 41.008 103.707 40.8 104.081 40.384C104.465 39.9573 104.657 39.424 104.657 38.784V38.384H104.289Z" fill="#3C424E" fill-opacity="0.3"/>
</svg>
