<svg width="24" height="24" viewBox="0 0 24 24" fill="none" xmlns="http://www.w3.org/2000/svg">
<path d="M12.0012 22.7941C10.8342 22.7941 9.76616 22.1551 9.21416 21.1261C9.01916 20.7601 9.15416 20.3071 9.52016 20.1121C9.88616 19.9171 10.3392 20.0521 10.5342 20.4181C10.8252 20.9581 11.3862 21.2971 11.9982 21.2971C12.6102 21.2971 13.1742 20.9611 13.4622 20.4181C13.6572 20.0521 14.1132 19.9171 14.4762 20.1121C14.8422 20.3071 14.9772 20.7631 14.7822 21.1261C14.2362 22.1551 13.1682 22.7941 12.0012 22.7941Z" fill="#191A20"/>
<path d="M12.0008 18.7771C8.85084 18.7771 6.33684 18.5461 4.53384 18.0901C3.24684 17.7661 2.72184 17.4211 2.55684 17.2891C1.88484 16.7821 1.46484 15.8911 1.46484 14.9581C1.46484 14.0521 1.85784 13.2421 2.54184 12.7351C2.80884 12.5371 3.09084 12.3751 3.36084 12.2191C3.86484 11.9281 4.30284 11.6791 4.46184 11.3011C4.83684 10.4221 5.02584 9.37206 5.02584 8.17806C5.02584 7.25706 5.20584 6.36005 5.55684 5.51105C5.90784 4.66205 6.41784 3.90005 7.06884 3.24905C7.71984 2.59805 8.48184 2.09105 9.33084 1.73705C10.1798 1.38305 11.0798 1.20605 11.9978 1.20605C12.9188 1.20605 13.8158 1.38605 14.6648 1.73705C15.5138 2.08805 16.2758 2.59805 16.9268 3.24905C17.5778 3.90005 18.0848 4.66205 18.4388 5.51105C18.7898 6.36005 18.9698 7.26006 18.9698 8.17806C18.9698 8.97906 19.0838 9.78605 19.3418 10.7851C19.3988 10.9621 19.4618 11.1331 19.5338 11.2981C19.6958 11.6761 20.1308 11.9281 20.6348 12.2161C20.9048 12.3721 21.1868 12.5311 21.4538 12.7321C22.1378 13.2391 22.5308 14.0491 22.5308 14.9551C22.5308 15.8881 22.1138 16.7821 21.4388 17.2861C21.2768 17.4151 20.7518 17.7601 19.4618 18.0871C17.6648 18.5461 15.1508 18.7771 12.0008 18.7771ZM3.49884 16.1191C3.57984 16.1701 4.02384 16.4371 5.16384 16.6981C6.31584 16.9621 8.43384 17.2771 12.0008 17.2771C15.5648 17.2771 17.6858 16.9621 18.8378 16.6981C19.9778 16.4371 20.4248 16.1701 20.5028 16.1191C20.5178 16.1041 20.5118 16.1131 20.5388 16.0921C20.8358 15.8731 21.0368 15.4141 21.0368 14.9551C21.0368 14.7061 20.9768 14.2411 20.5658 13.9381C20.3678 13.7911 20.1368 13.6591 19.8908 13.5181C19.2458 13.1461 18.5138 12.7261 18.1538 11.8861C18.0638 11.6731 17.9798 11.4511 17.9078 11.2231C17.9048 11.2111 17.8988 11.1961 17.8958 11.1811C17.6048 10.0591 17.4698 9.10506 17.4698 8.17806C17.4698 6.71706 16.8998 5.34306 15.8678 4.30806C14.8328 3.27306 13.4588 2.70605 11.9978 2.70605C10.5368 2.70605 9.16284 3.27606 8.12784 4.30806C7.09284 5.34005 6.52584 6.71706 6.52584 8.17806C6.52584 9.57306 6.29484 10.8211 5.84184 11.8861C5.48484 12.7291 4.75284 13.1491 4.10484 13.5181C3.85884 13.6591 3.62784 13.7911 3.42984 13.9381C3.02184 14.2411 2.95884 14.7061 2.95884 14.9551C2.95884 15.4141 3.15984 15.8731 3.45684 16.0921C3.48984 16.1131 3.48384 16.1071 3.49884 16.1191Z" fill="#191A20"/>
</svg>
