<svg width="20" height="20" viewBox="0 0 20 20" fill="none" xmlns="http://www.w3.org/2000/svg">
<path d="M13.4885 4.83417C15.1541 6.19953 16.1115 7.12327 17.283 8.51126C17.8869 9.22641 17.8844 10.2623 17.2802 10.9778C16.1057 12.3689 15.1851 13.2629 13.4885 14.6536L13.5513 14.7302L13.4878 14.6529C13.1384 14.9424 12.6248 14.9113 12.3063 14.5928C12.2831 14.5696 12.2625 14.5492 12.2476 14.53L12.2469 14.5279L12.193 14.4547C11.9462 14.0802 12.0149 13.5718 12.3684 13.2835L12.3691 13.2828C13.9701 11.9724 14.8337 11.1317 15.9309 9.83294L15.9295 9.83156C15.9747 9.78011 15.9754 9.70444 15.9295 9.6534L15.9302 9.65409C14.9626 8.51016 14.1765 7.72375 12.9298 6.67444L12.3657 6.20695C11.988 5.89928 11.9325 5.33761 12.2407 4.95915C12.5484 4.5814 13.11 4.52588 13.4885 4.83417Z" fill="#4B5563" stroke="white" stroke-width="0.2"/>
<path d="M8.33924 5.13433C8.62862 5.48957 8.59995 6.00326 8.284 6.31928L8.21702 6.37936C6.61584 7.68992 5.75254 8.53043 4.65524 9.82927H4.65663C4.61063 9.88049 4.611 9.956 4.65663 10.0074L4.65524 10.0088C5.76091 11.316 6.62986 12.1566 8.21978 13.456C8.59747 13.7637 8.65303 14.3253 8.34477 14.7037C8.05637 15.0575 7.54537 15.128 7.17086 14.8819L7.09766 14.828C6.14311 14.046 5.42051 13.4078 4.76021 12.7475C4.26637 12.2536 3.8032 11.7454 3.30318 11.1509L3.30249 11.1503C2.69872 10.435 2.70182 9.39975 3.30318 8.68712C4.47752 7.29627 5.39794 6.40251 7.09421 5.0121C7.47302 4.70354 8.03183 4.75699 8.33924 5.13433Z" fill="#4B5563" stroke="white" stroke-width="0.2"/>
</svg>
