<svg width="24" height="24" viewBox="0 0 24 24" fill="none" xmlns="http://www.w3.org/2000/svg">
<path d="M15.566 5.92672C17.6182 7.60883 18.7941 8.74474 20.2348 10.4517C20.9404 11.2872 20.9384 12.4972 20.232 13.3339C18.7876 15.0445 17.6553 16.1423 15.5653 17.8553L15.5646 17.856C15.1848 18.1706 14.6251 18.1373 14.2767 17.789C14.2467 17.7591 14.2273 17.7392 14.2145 17.7228L14.2104 17.7186C13.873 17.3043 13.9324 16.6944 14.343 16.3597L14.3437 16.359C16.3256 14.7369 17.3978 13.6944 18.7584 12.084L18.7563 12.082C18.8523 11.9715 18.8534 11.809 18.757 11.6987H18.7584C17.3873 10.0778 16.3088 9.03463 14.3409 7.42652L14.3402 7.42583C13.9286 7.09049 13.8669 6.47765 14.2035 6.06413C14.5387 5.6526 15.1524 5.59049 15.566 5.92672Z" fill="#191A20" stroke="white" stroke-width="0.5"/>
<path d="M9.18926 6.28159C9.52685 6.696 9.46745 7.30582 9.05667 7.64052L9.05598 7.64121C7.07407 9.26331 6.00261 10.3064 4.64196 11.9169H4.64334C4.54707 12.027 4.5477 12.1889 4.64334 12.2994L4.64126 12.3015C5.84107 13.7199 6.81754 14.6957 8.36128 15.995L9.06013 16.5737C9.47185 16.909 9.53286 17.5225 9.19617 17.9361C8.86073 18.3478 8.24728 18.409 7.8337 18.0721C6.65739 17.1084 5.76942 16.3228 4.95823 15.5117C4.50289 15.0564 4.06841 14.591 3.61993 14.0782L3.16486 13.5485L3.04125 13.3877C2.4623 12.563 2.50642 11.4508 3.16555 10.6698C4.6097 8.95948 5.74071 7.86167 7.83025 6.14901C8.2447 5.81143 8.85455 5.8708 9.18926 6.28159Z" fill="#191A20" stroke="white" stroke-width="0.5"/>
</svg>
