<svg width="20" height="20" viewBox="0 0 20 20" fill="none" xmlns="http://www.w3.org/2000/svg">
<path d="M12.5 18.9575H10C8.7775 18.9575 7.895 18.9575 7.1725 18.86C6.3225 18.745 5.74 18.4925 5.29 18.0425C4.8375 17.59 4.585 17.01 4.4725 16.16C4.375 15.4375 4.375 14.555 4.375 13.3325V9.16748C4.375 7.94498 4.375 7.06248 4.4725 6.33998C4.5875 5.48998 4.84 4.90748 5.29 4.45748C5.7425 4.00498 6.3225 3.75248 7.1725 3.63998C7.895 3.54248 8.7775 3.54248 10 3.54248H12.5C13.7225 3.54248 14.605 3.54248 15.3275 3.63998C16.1775 3.75498 16.76 4.00748 17.21 4.45748C17.6625 4.90998 17.915 5.48998 18.0275 6.33998C18.125 7.06248 18.125 7.94498 18.125 9.16748V13.335C18.125 14.5575 18.125 15.44 18.0275 16.1625C17.9125 17.0125 17.66 17.595 17.21 18.045C16.76 18.495 16.1775 18.75 15.3275 18.8625C14.605 18.9575 13.7225 18.9575 12.5 18.9575ZM10 4.79248C7.8175 4.79248 6.7225 4.79248 6.175 5.34248C5.625 5.89248 5.625 6.98748 5.625 9.16748V13.335C5.625 15.5175 5.625 16.6125 6.175 17.16C6.725 17.7075 7.82 17.71 10 17.71H12.5C14.6825 17.71 15.7775 17.71 16.325 17.16C16.875 16.61 16.875 15.515 16.875 13.335V9.16748C16.875 6.98498 16.875 5.88998 16.325 5.34248C15.775 4.79248 14.68 4.79248 12.5 4.79248H10Z" fill="#4B5563"/>
<path d="M5 16.4575C3.2775 16.4575 1.875 15.055 1.875 13.3325V8.33254C1.875 6.71254 1.875 5.54004 2.0025 4.59254C2.1475 3.50504 2.4675 2.76754 3.035 2.20004C3.6025 1.63254 4.34 1.31504 5.4275 1.16754C6.3775 1.04004 7.5475 1.04004 9.1675 1.04004H12.5C14.2225 1.04004 15.625 2.44254 15.625 4.16504H14.375C14.375 3.13004 13.535 2.29004 12.5 2.29004H9.1675C6.2 2.29004 4.7125 2.29004 3.92 3.08254C3.125 3.87754 3.125 5.36754 3.125 8.33254V13.3325C3.125 14.3675 3.965 15.2075 5 15.2075V16.4575Z" fill="#4B5563"/>
</svg>
