<svg width="24" height="24" viewBox="0 0 24 24" fill="none" xmlns="http://www.w3.org/2000/svg">
<path d="M12.0001 16.2659C11.8501 16.2659 11.6971 16.2209 11.5651 16.1249C11.2291 15.8849 11.1511 15.4139 11.3911 15.0779L16.2121 8.3489C16.4521 8.0129 16.9231 7.9349 17.2591 8.1749C17.5951 8.4149 17.6731 8.8859 17.4331 9.2219L12.6091 15.9509C12.4621 16.1579 12.2341 16.2659 12.0001 16.2659Z" fill="#4B5563"/>
<path d="M12.0001 22.7939C10.3231 22.7939 8.79905 22.5569 7.46705 22.0859C6.12305 21.6119 4.96805 20.8979 4.03505 19.9619C3.10205 19.0259 2.38805 17.8739 1.91105 16.5299C1.44305 15.2009 1.20605 13.6769 1.20605 11.9999C1.20605 10.3229 1.44305 8.79888 1.91405 7.46688C2.38805 6.12288 3.10205 4.96788 4.03805 4.03488C4.97405 3.10188 6.12605 2.38788 7.47005 1.91088C8.79905 1.43988 10.3231 1.20288 12.0031 1.20288C13.6831 1.20288 15.2041 1.43988 16.5361 1.91088C17.8801 2.38488 19.0351 3.09888 19.9681 4.03488C20.9011 4.97088 21.6151 6.12288 22.0921 7.46688C22.5631 8.79588 22.8001 10.3199 22.8001 11.9999C22.8001 13.6799 22.5631 15.2009 22.0921 16.5329C21.6181 17.8769 20.9041 19.0319 19.9681 19.9649C19.0321 20.8979 17.8801 21.6119 16.5361 22.0889C15.2011 22.5569 13.6771 22.7939 12.0001 22.7939ZM12.0001 2.70588C6.00605 2.70588 2.70605 6.00588 2.70605 11.9999C2.70605 17.9939 6.00605 21.2939 12.0001 21.2939C17.9941 21.2939 21.2941 17.9939 21.2941 11.9999C21.2941 6.00588 17.9941 2.70588 12.0001 2.70588Z" fill="#4B5563"/>
<path d="M12 22.7939C9.294 22.7939 7.029 22.1849 5.265 20.9789C3.486 19.7639 2.271 17.9909 1.659 15.7079C1.599 15.4829 1.647 15.2429 1.788 15.0569C1.929 14.8709 2.151 14.7629 2.382 14.7629H21.615C21.849 14.7629 22.068 14.8709 22.209 15.0569C22.35 15.2429 22.398 15.4829 22.338 15.7079C21.726 17.9909 20.511 19.7639 18.732 20.9789C16.971 22.1849 14.706 22.7939 12 22.7939ZM3.414 16.2659C4.686 19.5599 7.632 21.2939 12 21.2939C16.368 21.2939 19.314 19.5599 20.586 16.2659H3.414Z" fill="#4B5563"/>
</svg>
