<svg width="24" height="24" viewBox="0 0 24 24" fill="none" xmlns="http://www.w3.org/2000/svg">
<path d="M11.5815 22.728C8.8137 22.728 6.43427 21.9223 4.9272 21.247C3.54475 20.6297 2.61152 19.282 2.42604 17.6474C2.23186 15.923 2 13.4508 2 11.4481C2 10.086 2.06956 8.31516 2.18838 6.71245C2.21737 6.31249 2.56515 6.01398 2.96511 6.04296C3.36506 6.07194 3.66358 6.41973 3.63459 6.81968C3.51866 8.38761 3.44911 10.1207 3.44911 11.4481C3.44911 13.3812 3.67517 15.7983 3.86355 17.4851C3.99107 18.6067 4.60839 19.5197 5.51553 19.9254C6.89508 20.5427 9.06585 21.2789 11.5786 21.2789C14.0913 21.2789 16.2621 20.5427 17.6417 19.9254C18.5517 19.5197 19.169 18.6067 19.2936 17.4851C19.482 15.7983 19.7081 13.3812 19.7081 11.4481C19.7081 10.1555 19.6414 8.75279 19.5023 7.02835C19.4704 6.6284 19.7661 6.28061 20.166 6.24873C20.566 6.21685 20.9137 6.51247 20.9456 6.91242C21.0876 8.67454 21.1572 10.115 21.1572 11.4481C21.1572 13.4479 20.9253 15.923 20.7312 17.6474C20.5457 19.2849 19.6124 20.6297 18.23 21.247C16.7287 21.9223 14.3493 22.728 11.5815 22.728Z" fill="#191A20"/>
<path d="M11.5815 11.1323C8.71516 11.1323 6.45745 10.7758 4.86633 10.0715C2.6463 9.08903 2.17969 7.62254 2.17969 6.56759C2.17969 5.51264 2.6463 4.04614 4.86633 3.06364C6.45745 2.35648 8.71516 2 11.5815 2C14.4478 2 16.7055 2.35648 18.2967 3.06075C20.5167 4.04324 20.9833 5.50974 20.9833 6.56469C20.9833 7.61964 20.5167 9.08613 18.2967 10.0686C16.7055 10.7758 14.4478 11.1323 11.5815 11.1323ZM11.5815 3.44911C8.95571 3.44911 6.83712 3.77371 5.45467 4.38523C4.22583 4.93009 3.62879 5.64305 3.62879 6.56469C3.62879 7.48922 4.22583 8.20218 5.45467 8.74414C6.84002 9.35567 8.95861 9.68027 11.5815 9.68027C14.2044 9.68027 16.3259 9.35567 17.7083 8.74414C18.9372 8.19928 19.5342 7.48632 19.5342 6.56469C19.5342 5.64016 18.9372 4.9272 17.7083 4.38523C16.3259 3.77371 14.2073 3.44911 11.5815 3.44911Z" fill="#191A20"/>
<path d="M11.5924 16.7431C8.46237 16.7431 5.3294 16.0157 2.46886 14.5608C2.11238 14.3782 1.97037 13.9434 2.15006 13.587C2.33264 13.2305 2.76738 13.0885 3.12386 13.2682C8.43338 15.9664 14.7515 15.9664 20.0291 13.2682C20.3856 13.0856 20.8232 13.2276 21.0029 13.5841C21.1826 13.9405 21.0435 14.3782 20.687 14.5579C17.8497 16.0157 14.7225 16.7431 11.5924 16.7431Z" fill="#191A20"/>
</svg>
