<svg width="212" height="212" viewBox="0 0 212 212" fill="none" xmlns="http://www.w3.org/2000/svg">
<rect width="212" height="212" rx="32" fill="#5158F6"/>
<path d="M69.7257 56.0237C66.5943 55.9284 63.4603 56.0653 60.3773 56.6528C58.1444 57.0784 55.8479 57.8914 53.9923 59.2134C52.0715 60.5818 50.4751 62.3122 49.4532 64.444C48.2843 66.8827 47.7567 69.3706 47.3978 72.0282C47.0455 74.6359 46.9624 77.2725 46.9314 79.9004C46.8846 83.8615 46.7099 87.7576 46.1825 91.6895C46.2288 91.3478 46.2752 91.0061 46.3215 90.6644C45.7418 94.9239 44.9859 99.1575 44.4817 103.428C44.0302 107.25 43.9579 111.066 44.0184 114.91C44.1329 122.189 44.5222 129.487 45.4351 136.713C45.8752 140.198 46.3417 143.746 47.2716 147.143C48.074 150.074 49.7352 152.904 52.1185 154.845C56.9342 158.768 63.2493 159.571 69.2897 159.717C72.1551 159.786 75.0218 159.687 77.8865 159.628C81.1891 159.56 84.49 159.614 87.7907 159.737C95.7073 160.032 103.607 160.669 111.508 161.223C115.235 161.484 118.963 161.732 122.696 161.907C126.501 162.086 130.266 162.003 134.063 161.689C138.127 161.352 142.173 160.833 146.221 160.347C148.16 160.115 150.099 159.89 152.042 159.698C153.217 159.581 154.402 159.495 155.559 159.25C158.705 158.585 161.262 156.595 163.021 153.984C164.803 151.34 165.617 148.039 166.132 144.942C166.912 140.247 167.179 135.485 167.348 130.736C167.572 124.434 167.614 118.125 167.698 111.82C167.75 107.914 167.809 104.008 167.888 100.103C167.974 95.7985 168.146 91.5231 167.75 87.2276C167.371 83.1049 166.669 79.0193 166.257 74.9001C166.056 72.8911 165.974 70.8857 165.947 68.8679C165.926 67.2409 165.732 65.5618 165.268 63.9977C164.685 62.0261 163.596 60.1038 162.033 58.7307C160.424 57.3162 158.5 56.3906 156.427 55.8449C152.151 54.7199 147.529 54.9215 143.146 54.9219C141.023 54.9222 139.252 56.6758 139.252 58.7782C139.252 60.8801 141.023 62.6347 143.146 62.6345C146.473 62.6341 149.836 62.5538 153.142 62.9909C152.797 62.945 152.452 62.899 152.108 62.8532C153.174 63.0005 154.228 63.2103 155.252 63.5452C155.6 63.6593 156.596 64.073 155.16 63.4727C155.389 63.5682 155.612 63.6765 155.832 63.7894C156.047 63.8997 156.255 64.0234 156.46 64.1518C156.561 64.2151 156.659 64.283 156.756 64.3509C157.232 64.6808 155.894 63.6742 156.346 64.0331C156.686 64.303 156.993 64.6115 157.276 64.9393C157.654 65.3778 156.616 64.0694 156.964 64.5353C157.037 64.6329 157.105 64.7341 157.173 64.8352C157.312 65.0427 157.435 65.2607 157.552 65.4811C157.612 65.5949 157.667 65.7115 157.722 65.828C157.981 66.3786 157.309 64.8226 157.536 65.395C157.638 65.6533 157.722 65.9182 157.8 66.1842C157.974 66.7702 158.083 67.3737 158.165 67.9783C158.119 67.6366 158.072 67.2949 158.026 66.9532C158.242 68.6931 158.156 70.4568 158.255 72.2052C158.371 74.2512 158.606 76.2894 158.864 78.322C159.392 82.4717 160.03 86.6088 160.208 90.7929C160.389 95.0293 160.111 99.3025 160.036 103.541C159.97 107.302 159.92 111.064 159.872 114.825C159.803 120.076 159.747 125.328 159.566 130.576C159.431 134.513 159.238 138.462 158.715 142.37C158.761 142.029 158.808 141.687 158.854 141.345C158.623 143.048 158.325 144.745 157.873 146.406C157.683 147.102 157.461 147.79 157.201 148.464C157.142 148.615 157.081 148.764 157.019 148.913C157.641 147.43 157.345 148.157 157.189 148.493C157.052 148.788 156.903 149.077 156.745 149.361C156.606 149.611 156.455 149.854 156.297 150.092C156.221 150.207 156.141 150.32 156.06 150.432C155.622 151.035 156.806 149.505 156.337 150.078C155.993 150.497 155.606 150.88 155.185 151.223C154.715 151.605 156.193 150.475 155.617 150.889C155.514 150.964 155.408 151.034 155.301 151.103C155.068 151.253 154.825 151.387 154.577 151.511C154.461 151.569 154.343 151.623 154.225 151.675C153.899 151.817 155.469 151.18 154.729 151.457C154.456 151.559 154.176 151.643 153.894 151.718C153.483 151.826 153.063 151.903 152.641 151.96C152.986 151.915 153.332 151.869 153.676 151.823C150.157 152.28 146.609 152.589 143.083 153.013C139.052 153.499 135.015 153.963 130.959 154.196C127.268 154.408 123.604 154.257 119.918 154.052C116.086 153.84 112.259 153.567 108.431 153.293C100.594 152.733 92.7529 152.132 84.8962 151.933C78.9577 151.783 73.006 152.256 67.0738 151.917C66.0223 151.857 64.9733 151.76 63.9292 151.623C64.2741 151.669 64.6191 151.715 64.9643 151.761C63.0136 151.495 61.0833 151.072 59.2554 150.335C60.7144 150.923 59.2261 150.298 58.8636 150.11C58.4402 149.89 58.0322 149.642 57.6356 149.378C57.4782 149.272 57.3251 149.161 57.1728 149.049C58.3388 149.908 57.5589 149.342 57.2991 149.12C56.9387 148.811 56.6047 148.473 56.2878 148.121C56.1593 147.978 56.0378 147.829 55.9171 147.68C56.8208 148.799 56.2 148.035 56.0081 147.754C55.7242 147.338 55.4781 146.897 55.2522 146.448C55.1112 146.168 54.777 145.376 55.3195 146.654C55.2139 146.405 55.121 146.151 55.031 145.896C54.8408 145.356 54.6948 144.802 54.5692 144.244C54.0097 141.761 53.5673 139.262 53.2216 136.741C53.268 137.082 53.3144 137.424 53.3607 137.766C52.561 131.852 52.1589 125.888 51.9382 119.928C51.8358 117.163 51.7819 114.396 51.7759 111.63C51.7685 108.232 52.0625 104.855 52.5141 101.489C52.4678 101.831 52.4214 102.172 52.3751 102.514C53.1908 96.521 54.368 90.5669 54.6497 84.514C54.8438 80.3457 54.6246 76.1787 55.1852 72.0288C55.1389 72.3705 55.0925 72.7122 55.0462 73.054C55.2593 71.5232 55.5704 70.0038 56.098 68.5467C56.1493 68.405 56.2045 68.2646 56.2602 68.1246C56.4011 67.7808 56.3131 67.9851 55.9965 68.7374C56.0397 68.6364 56.0854 68.5362 56.1312 68.4361C56.2804 68.1103 56.448 67.7931 56.6266 67.4821C56.7832 67.2097 56.9556 66.9466 57.1364 66.6894C57.6385 65.9747 56.6122 67.3378 56.9028 66.9758C57.0102 66.842 57.1235 66.7128 57.2381 66.585C57.4447 66.3544 57.6668 66.1376 57.8955 65.9287C58.0237 65.8115 58.1572 65.7002 58.2918 65.5903C58.651 65.2971 57.2885 66.3255 58.0097 65.8118C58.5816 65.4044 59.2025 65.0681 59.8422 64.7782C60.558 64.4537 58.9134 65.155 59.4557 64.9385C59.6438 64.8634 59.8347 64.795 60.0259 64.728C60.4278 64.5874 60.8373 64.4691 61.2492 64.3607C62.1172 64.1322 63.0038 63.9769 63.893 63.8568C63.548 63.9026 63.203 63.9486 62.858 63.9945C65.1343 63.7002 67.4344 63.6671 69.7263 63.7368C71.8485 63.8014 73.6198 61.9339 73.6198 59.8805C73.6192 57.729 71.8466 56.0883 69.7257 56.0237Z" fill="white"/>
<path d="M94.615 63.3232C102.48 63.3134 110.359 62.4279 118.196 63.4524C117.851 63.4065 117.506 63.3605 117.161 63.3147C117.785 63.3994 118.406 63.494 119.027 63.5987C120.099 63.7795 121.056 63.7734 122.027 63.2099C122.897 62.7048 123.548 61.8691 123.816 60.9052C124.336 59.0339 123.191 56.5148 121.097 56.1615C116.637 55.4094 112.158 55.1691 107.64 55.2483C103.297 55.3245 98.9601 55.6053 94.615 55.6106C92.4926 55.6133 90.7215 57.3628 90.7215 59.4669C90.7215 61.5671 92.4925 63.3258 94.615 63.3232Z" fill="white"/>
<path d="M128.127 53.5448C127.593 59.556 128.395 65.5711 128.405 71.5867C128.409 73.6888 130.173 75.443 132.298 75.443C134.418 75.443 136.195 73.6889 136.192 71.5867C136.182 65.5711 135.38 59.556 135.914 53.5448C136.1 51.4475 134.002 49.6885 132.02 49.6885C129.757 49.6885 128.313 51.4516 128.127 53.5448Z" fill="white"/>
<path d="M125.068 76.5448C130.055 76.0034 135.071 75.8587 140.085 75.8561C142.208 75.855 143.979 74.1028 143.979 71.9998C143.979 69.8986 142.208 68.1425 140.085 68.1436C135.071 68.1462 130.055 68.2908 125.068 68.8322C123.995 68.9487 123.106 69.1783 122.315 69.9617C121.588 70.6815 121.174 71.6697 121.174 72.6885C121.174 74.617 122.953 76.7743 125.068 76.5448Z" fill="white"/>
<path d="M73.0617 76.5447C75.4757 76.5386 77.8716 76.2643 80.2714 76.0368C83.4251 75.7377 86.5806 75.6122 89.7481 75.7184C91.8703 75.7895 93.6416 73.9105 93.6416 71.8621C93.6416 69.7062 91.8687 68.0769 89.7481 68.0058C86.6411 67.9017 83.547 68.0214 80.453 68.3072C77.9919 68.5346 75.537 68.8257 73.0617 68.8322C70.9394 68.8377 69.1682 70.5822 69.1682 72.6885C69.1682 74.7866 70.9392 76.5503 73.0617 76.5447Z" fill="white"/>
<path d="M78.0695 52.8563C77.6435 56.2836 77.4863 59.7173 77.648 63.167C77.7799 65.9755 78.0642 68.7728 78.0695 71.5868C78.0734 73.6889 79.8376 75.4431 81.963 75.4431C84.0825 75.4431 85.8604 73.689 85.8565 71.5868C85.8513 68.8318 85.5852 66.091 85.4436 63.3417C85.2631 59.8352 85.4233 56.3402 85.8565 52.8563C85.975 51.9031 85.3699 50.7771 84.7161 50.1295C83.9893 49.4095 82.9916 49 81.963 49C80.9344 49 79.9367 49.4096 79.2099 50.1295C78.4113 50.9204 78.2022 51.7895 78.0695 52.8563Z" fill="white"/>
<path d="M53.0381 95.6884C70.922 96.2371 88.8151 95.8268 106.703 95.8262C124.415 95.8255 142.126 95.6942 159.838 95.6886C160.207 95.6886 160.575 95.6884 160.943 95.6884C163.066 95.6884 164.837 93.9344 164.837 91.8322C164.837 89.7301 163.066 87.9759 160.943 87.9759C143.221 87.9764 125.498 88.1064 107.776 88.1133C89.8886 88.1203 71.9942 88.5191 54.1107 88.008C53.7532 87.9978 53.3956 87.9869 53.0381 87.9759C50.9158 87.9107 49.1446 89.7792 49.1446 91.8322C49.1446 93.9835 50.9172 95.6233 53.0381 95.6884Z" fill="white"/>
<path d="M68.9391 116.22C69.0958 116.198 69.2528 116.176 69.4096 116.155C69.0646 116.201 68.7197 116.247 68.3745 116.293C72.509 115.746 76.6817 115.515 80.8486 115.383C82.9693 115.316 84.7421 113.68 84.7421 111.527C84.7421 109.475 82.9708 107.603 80.8486 107.67C76.1683 107.818 71.5073 108.136 66.869 108.783C65.9304 108.914 64.9978 109.785 64.5421 110.555C64.0154 111.446 63.8731 112.532 64.1495 113.527C64.4172 114.491 65.0685 115.326 65.9389 115.831C66.93 116.407 67.8495 116.372 68.9391 116.22Z" fill="white"/>
<path d="M68.612 138.658C72.6919 138.171 76.7599 138.648 80.8487 138.658C82.9712 138.664 84.7422 136.9 84.7422 134.802C84.7422 132.696 82.9711 130.951 80.8487 130.946C76.7599 130.936 72.6919 130.459 68.612 130.946C67.5356 131.075 66.6561 131.286 65.8589 132.075C65.1319 132.795 64.7185 133.783 64.7185 134.802C64.7185 136.714 66.4998 138.911 68.612 138.658Z" fill="white"/>
<path d="M99.7599 138.383C104.212 138.377 108.676 138.126 113.109 138.658C115.221 138.912 117.003 136.712 117.003 134.802C117.003 133.784 116.589 132.795 115.862 132.075C115.065 131.286 114.186 131.075 113.109 130.946C108.676 130.414 104.212 130.665 99.7599 130.67C97.6376 130.673 95.8665 132.423 95.8665 134.527C95.8665 136.627 97.6374 138.386 99.7599 138.383Z" fill="white"/>
<path d="M102.389 116.22C106.115 116.235 109.801 116.883 113.526 116.898C115.649 116.907 117.42 115.137 117.42 113.042C117.42 110.933 115.649 109.194 113.526 109.185C109.801 109.171 106.115 108.523 102.389 108.508C100.267 108.499 98.4958 110.268 98.4958 112.364C98.4958 114.473 100.267 116.212 102.389 116.22Z" fill="white"/>
<path d="M133.537 117.322C137.452 117.312 141.315 116.632 145.23 116.623C147.353 116.617 149.124 114.872 149.124 112.766C149.124 110.668 147.353 108.905 145.23 108.91C141.315 108.92 137.452 109.6 133.537 109.609C131.415 109.615 129.644 111.36 129.644 113.466C129.644 115.564 131.415 117.327 133.537 117.322Z" fill="white"/>
</svg>
