<svg width="24" height="24" viewBox="0 0 24 24" fill="none" xmlns="http://www.w3.org/2000/svg">
<path d="M12 22.749C9.57598 22.749 7.82398 22.749 6.41398 22.56C4.82698 22.347 3.75598 21.885 2.93398 21.066C2.11498 20.247 1.65298 19.173 1.43998 17.586C1.25098 16.176 1.25098 14.424 1.25098 12C1.25098 9.57598 1.25098 7.82398 1.43998 6.41398C1.65298 4.82698 2.11498 3.75598 2.93398 2.93398C3.75298 2.11198 4.82698 1.65298 6.41398 1.43998C7.82398 1.25098 9.57598 1.25098 12 1.25098C12.351 1.25098 12.546 1.25098 12.75 1.26898C13.713 1.35298 14.652 1.74298 15.39 2.36398C15.549 2.49598 15.687 2.63698 15.942 2.88898L21.108 8.05498C21.363 8.30998 21.501 8.44798 21.636 8.60698C22.257 9.34798 22.647 10.284 22.731 11.247C22.749 11.454 22.749 11.646 22.749 11.997C22.749 14.421 22.749 16.173 22.56 17.583C22.347 19.17 21.885 20.241 21.066 21.063C20.247 21.882 19.173 22.344 17.586 22.557C16.176 22.749 14.424 22.749 12 22.749ZM12 2.75098C7.49998 2.75098 5.24098 2.75098 3.99598 3.99598C2.75098 5.24098 2.75098 7.49998 2.75098 12C2.75098 16.5 2.75098 18.759 3.99598 20.004C5.24098 21.249 7.49998 21.249 12 21.249C16.5 21.249 18.759 21.249 20.004 20.004C21.249 18.759 21.249 16.5 21.249 12C21.249 11.682 21.249 11.52 21.237 11.379C21.18 10.719 20.913 10.077 20.49 9.57298C20.397 9.46498 20.283 9.34798 20.052 9.11698L14.883 3.95098C14.652 3.71998 14.535 3.60298 14.427 3.51298C13.92 3.08698 13.278 2.82298 12.621 2.76598C12.48 2.75098 12.318 2.75098 12 2.75098Z" fill="#4B5563"/>
<path d="M17.751 21.999H16.251V21C16.251 19.254 16.236 18.468 15.885 18.117C15.534 17.766 14.748 17.751 13.002 17.751H11.001C9.25502 17.751 8.46902 17.766 8.11802 18.117C7.76702 18.468 7.75202 19.254 7.75202 21V21.999H6.25202V21C6.25202 18.975 6.25202 17.862 7.05602 17.055C7.86002 16.248 8.97602 16.251 11.001 16.251H13.002C15.027 16.251 16.14 16.251 16.947 17.055C17.751 17.859 17.751 18.975 17.751 21V21.999ZM12.999 8.75098H6.99902C6.58502 8.75098 6.24902 8.41498 6.24902 8.00098C6.24902 7.58698 6.58502 7.25098 6.99902 7.25098H12.999C13.413 7.25098 13.749 7.58698 13.749 8.00098C13.749 8.41498 13.413 8.75098 12.999 8.75098Z" fill="#4B5563"/>
</svg>
