<svg width="40" height="40" viewBox="0 0 40 40" fill="none" xmlns="http://www.w3.org/2000/svg">
<g clip-path="url(#clip0_3_10250)">
<g opacity="0.3">
<path opacity="0.3" d="M24.8192 10.951C24.1586 10.9504 23.5252 10.6877 23.058 10.2206C22.5909 9.75343 22.3282 9.12005 22.3276 8.45945V5H11.1952C10.7681 4.99984 10.3451 5.08382 9.9505 5.24715C9.55585 5.41049 9.19727 5.64999 8.8952 5.95195C8.59313 6.2539 8.35351 6.61241 8.19002 7.00699C8.02654 7.40157 7.94238 7.8245 7.94238 8.25161V27.8532C7.94238 28.2804 8.02654 28.7033 8.19002 29.0978C8.35351 29.4924 8.59313 29.8509 8.8952 30.1529C9.19727 30.4549 9.55585 30.6944 9.9505 30.8576C10.3451 31.021 10.7681 31.105 11.1952 31.1048H24.5594C24.9864 31.1048 25.4092 31.0207 25.8037 30.8574C26.1982 30.6939 26.5566 30.4544 26.8586 30.1524C27.1606 29.8505 27.4001 29.4921 27.5635 29.0975C27.7269 28.703 27.811 28.2802 27.811 27.8532V10.951H24.8192Z" fill="#0263D1"/>
</g>
<path d="M27.8104 10.951H24.8186C24.158 10.9504 23.5246 10.6877 23.0575 10.2206C22.5903 9.75343 22.3276 9.12005 22.327 8.45945V5L27.8104 10.951ZM23.7226 15.1174H11.2478C11.1279 15.1174 11.013 15.0698 10.9283 14.985C10.8435 14.9002 10.7959 14.7853 10.7959 14.6655C10.7957 14.606 10.8073 14.5471 10.83 14.4921C10.8526 14.4372 10.8859 14.3872 10.9278 14.3451C10.9698 14.303 11.0197 14.2696 11.0746 14.2468C11.1295 14.2241 11.1884 14.2123 11.2478 14.2123H23.7226C23.8429 14.2123 23.958 14.2601 24.0431 14.3451C24.128 14.43 24.1758 14.5453 24.1758 14.6655C24.1754 14.7854 24.1276 14.9004 24.0426 14.9851C23.9577 15.0698 23.8426 15.1174 23.7226 15.1174ZM23.7226 17.8204H11.2478C11.1279 17.8204 11.013 17.7728 10.9283 17.6881C10.8435 17.6033 10.7959 17.4884 10.7959 17.3685C10.7957 17.309 10.8073 17.2502 10.83 17.1952C10.8526 17.1402 10.8859 17.0902 10.9278 17.0482C10.9698 17.0061 11.0197 16.9727 11.0746 16.9499C11.1295 16.9271 11.1884 16.9154 11.2478 16.9154H23.7226C23.8429 16.9154 23.958 16.9631 24.0431 17.0481C24.128 17.1331 24.1758 17.2484 24.1758 17.3685C24.1754 17.4885 24.1276 17.6034 24.0426 17.6881C23.9577 17.7728 23.8426 17.8204 23.7226 17.8204ZM23.7226 20.5235H11.2478C11.1884 20.5235 11.1295 20.5117 11.0746 20.4889C11.0197 20.4662 10.9698 20.4327 10.9278 20.3907C10.8859 20.3486 10.8526 20.2986 10.83 20.2436C10.8073 20.1886 10.7957 20.1298 10.7959 20.0703C10.7959 19.9505 10.8435 19.8356 10.9283 19.7507C11.013 19.666 11.1279 19.6184 11.2478 19.6184H23.7226C23.8426 19.6184 23.9577 19.666 24.0426 19.7507C24.1276 19.8354 24.1754 19.9503 24.1758 20.0703C24.1758 20.1906 24.128 20.3057 24.0431 20.3908C23.958 20.4757 23.8429 20.5235 23.7226 20.5235ZM18.8023 23.2265H11.2478C11.1884 23.2265 11.1295 23.2148 11.0746 23.1919C11.0197 23.1692 10.9698 23.1358 10.9278 23.0937C10.8859 23.0517 10.8526 23.0016 10.83 22.9466C10.8073 22.8918 10.7957 22.8328 10.7959 22.7734C10.7959 22.6535 10.8435 22.5386 10.9283 22.4538C11.013 22.3691 11.1279 22.3215 11.2478 22.3215H18.8023C18.9222 22.3215 19.0371 22.3691 19.1219 22.4538C19.2066 22.5386 19.2542 22.6535 19.2542 22.7734C19.2544 22.8328 19.2428 22.8918 19.2202 22.9466C19.1976 23.0016 19.1643 23.0517 19.1223 23.0937C19.0803 23.1358 19.0304 23.1692 18.9755 23.1919C18.9206 23.2148 18.8618 23.2265 18.8023 23.2265ZM30.1691 25.6154H15.0601C13.9884 25.6154 13.1195 26.4842 13.1195 27.556V32.0606C13.1195 33.1324 13.9884 34.0012 15.0601 34.0012H30.1691C31.2409 34.0012 32.1097 33.1324 32.1097 32.0606V27.556C32.1097 26.4842 31.2409 25.6154 30.1691 25.6154Z" fill="#0263D1"/>
<path d="M17.1521 30.7835V31.662H16.2422V30.7835H17.1521ZM20.649 30.7859C20.4977 31.0607 20.2692 31.285 19.9916 31.4312C19.6794 31.5909 19.3321 31.6702 18.9815 31.662H17.6088V28.0285H18.9815C19.3324 28.0198 19.6801 28.0974 19.9941 28.2545C20.2704 28.398 20.4983 28.6199 20.649 28.8925C20.8052 29.1825 20.8839 29.508 20.8774 29.8374C20.8835 30.1679 20.805 30.4945 20.649 30.7859ZM19.7041 30.6035C19.8023 30.5027 19.8784 30.3825 19.9275 30.2505C19.9765 30.1186 19.9977 29.9779 19.9892 29.8374C19.9977 29.6971 19.9767 29.5565 19.9276 29.4248C19.8784 29.293 19.8023 29.1731 19.7041 29.0725C19.4839 28.8796 19.1964 28.7813 18.9042 28.7994H18.4897V30.8754H18.9053C19.1969 30.893 19.4838 30.7954 19.7041 30.6035ZM24.0359 28.211C24.3124 28.3679 24.5409 28.5973 24.6969 28.8744C24.8604 29.1669 24.9438 29.4975 24.9386 29.8326C24.9441 30.1685 24.8607 30.4999 24.6969 30.7932C24.5404 31.0712 24.3111 31.3014 24.0335 31.459C23.751 31.6203 23.4308 31.7037 23.1055 31.7007C22.7802 31.7036 22.46 31.6202 22.1775 31.459C21.9001 31.3018 21.6711 31.0715 21.5154 30.7932C21.351 30.5001 21.2675 30.1685 21.2737 29.8326C21.2674 29.4974 21.3509 29.1665 21.5154 28.8744C21.6718 28.5973 21.9007 28.3679 22.1775 28.211C22.46 28.0498 22.7802 27.9664 23.1055 27.9693C23.4315 27.9663 23.7526 28.0497 24.0359 28.211ZM22.4168 29.0689C22.2385 29.2822 22.1478 29.555 22.163 29.8326C22.1478 30.1089 22.2385 30.3808 22.4168 30.5926C22.5036 30.687 22.61 30.7612 22.7286 30.81C22.8472 30.8589 22.975 30.8812 23.1031 30.8754C23.2308 30.8808 23.3582 30.8583 23.4762 30.8095C23.5944 30.7607 23.7005 30.6866 23.787 30.5926C23.9661 30.3812 24.0578 30.1093 24.0432 29.8326C24.0577 29.5562 23.9671 29.2847 23.7894 29.0725C23.7027 28.978 23.5962 28.9038 23.4777 28.855C23.359 28.8061 23.2312 28.7839 23.1031 28.7898C22.9754 28.7839 22.8478 28.8058 22.7292 28.8541C22.6108 28.9022 22.5041 28.9755 22.4168 29.0689ZM28.2397 28.3572C28.5462 28.6066 28.7546 28.9562 28.8282 29.3444H27.8978C27.8349 29.1836 27.7251 29.0453 27.5824 28.9481C27.432 28.8502 27.2555 28.8 27.0761 28.8043C26.9577 28.8005 26.8399 28.824 26.732 28.873C26.6241 28.9221 26.5288 28.9953 26.4538 29.087C26.2855 29.3022 26.1998 29.5706 26.2121 29.8434C26.1998 30.1152 26.2856 30.3824 26.4538 30.5962C26.5295 30.687 26.6249 30.7594 26.7327 30.8077C26.8405 30.8561 26.9579 30.8792 27.0761 30.8754C27.2555 30.8802 27.4322 30.8299 27.5824 30.7316C27.7243 30.636 27.8341 30.5001 27.8978 30.3413H28.8282C28.7534 30.7283 28.5452 31.0769 28.2397 31.3261C27.9111 31.577 27.5049 31.7052 27.0918 31.6886C26.7663 31.6955 26.4449 31.6145 26.1614 31.4542C25.8962 31.3 25.681 31.0726 25.5415 30.7992C25.3917 30.4994 25.3171 30.1676 25.324 29.8326C25.3173 29.4975 25.3918 29.1658 25.5415 28.8659C25.681 28.5926 25.8962 28.3652 26.1614 28.211C26.4449 28.0506 26.7663 27.9697 27.0918 27.9766C27.5071 27.9656 27.9132 28.1002 28.2397 28.3572Z" fill="white"/>
</g>
<defs>
<clipPath id="clip0_3_10250">
<rect width="24.2875" height="29" fill="white" transform="translate(7.85645 5)"/>
</clipPath>
</defs>
</svg>
