<svg width="24" height="24" viewBox="0 0 24 24" fill="none" xmlns="http://www.w3.org/2000/svg">
<path fill-rule="evenodd" clip-rule="evenodd" d="M7.62598 15.6963C7.62598 15.2821 7.96176 14.9463 8.37598 14.9463H15.596C16.0102 14.9463 16.346 15.2821 16.346 15.6963C16.346 16.1105 16.0102 16.4463 15.596 16.4463H8.37598C7.96176 16.4463 7.62598 16.1105 7.62598 15.6963ZM7.62598 11.9365C7.62598 11.5223 7.96176 11.1865 8.37598 11.1865H15.596C16.0102 11.1865 16.346 11.5223 16.346 11.9365C16.346 12.3507 16.0102 12.6865 15.596 12.6865H8.37598C7.96176 12.6865 7.62598 12.3507 7.62598 11.9365ZM7.62622 8.17725C7.62622 7.76304 7.96201 7.42725 8.37622 7.42725H11.1312C11.5454 7.42725 11.8812 7.76304 11.8812 8.17725C11.8812 8.59146 11.5454 8.92725 11.1312 8.92725H8.37622C7.96201 8.92725 7.62622 8.59146 7.62622 8.17725Z" fill="#191A20"/>
<path fill-rule="evenodd" clip-rule="evenodd" d="M4.89023 4.26972C6.42217 2.58093 8.79856 2 12.0011 2C15.2041 2 17.5806 2.58091 19.1124 4.26975C20.6242 5.93649 21.1421 8.50173 21.1421 12C21.1421 15.4983 20.6242 18.0635 19.1124 19.7303C17.5806 21.4191 15.2041 22 12.0011 22C8.79856 22 6.42217 21.4191 4.89023 19.7303C3.37832 18.0636 2.86011 15.4983 2.86011 12C2.86011 8.50166 3.37832 5.93644 4.89023 4.26972ZM6.00123 5.27753C4.8909 6.50155 4.36011 8.56134 4.36011 12C4.36011 15.4387 4.8909 17.4984 6.00123 18.7225C7.09155 19.9244 8.91065 20.5 12.0011 20.5C15.0921 20.5 16.9112 19.9244 18.0013 18.7225C19.1115 17.4985 19.6421 15.4387 19.6421 12C19.6421 8.56127 19.1115 6.50151 18.0013 5.2775C16.9112 4.07559 15.0921 3.5 12.0011 3.5C8.91065 3.5 7.09155 4.07557 6.00123 5.27753Z" fill="#191A20"/>
</svg>
