<svg width="28" height="28" viewBox="0 0 28 28" fill="none" xmlns="http://www.w3.org/2000/svg">
<path d="M18.1511 25.543H9.3922C7.78563 25.543 6.62587 25.543 5.67639 25.4149C4.55934 25.2637 3.79384 24.9319 3.20246 24.3405C2.6078 23.7459 2.27598 22.9836 2.12813 21.8666C2 20.9171 2 19.7574 2 18.1508V17.0567C2 15.4502 2 14.2904 2.12813 13.3409C2.27926 12.2239 2.61109 11.4584 3.20246 10.867C4.30308 9.7664 5.86037 9.68098 8.29158 9.66455H8.29487C8.74497 9.66455 9.11294 10.0292 9.11622 10.4826C9.11951 10.936 8.75154 11.3073 8.29815 11.3073C6.01807 11.3204 4.96673 11.4255 4.36222 12.0301C3.63942 12.7528 3.63942 14.1919 3.63942 17.0567V18.1508C3.63942 21.019 3.63942 22.458 4.36222 23.1775C5.08501 23.9003 6.52402 23.9003 9.38891 23.9003H18.1511C21.0193 23.9003 22.4583 23.9003 23.1778 23.1775C23.9006 22.4547 23.9006 21.0157 23.9006 18.1508V17.0567C23.9006 14.1886 23.9006 12.7496 23.1778 12.0301C22.5733 11.4255 21.522 11.3237 19.2419 11.3105C18.7885 11.3073 18.4238 10.9393 18.4238 10.4859C18.4271 10.0325 18.7951 9.66784 19.2452 9.66784H19.2485C21.683 9.68098 23.237 9.76968 24.3376 10.8703C24.9322 11.465 25.2641 12.2272 25.4119 13.3442C25.54 14.2937 25.54 15.4535 25.54 17.06V18.1541C25.54 19.7606 25.54 20.9204 25.4119 21.8699C25.2608 22.9869 24.9289 23.7524 24.3376 24.3438C23.7429 24.9385 22.9807 25.2703 21.8637 25.4181C20.9175 25.543 19.7577 25.543 18.1511 25.543Z" fill="#4B5563"/>
<path d="M13.771 17.8784C13.6495 17.8784 13.5279 17.8522 13.4162 17.7996C13.4162 17.7996 13.4162 17.7996 13.4129 17.7996C13.3308 17.7602 13.2552 17.7076 13.1895 17.6386C13.1698 17.6189 13.1534 17.6025 13.1369 17.5795L9.86138 13.7585C9.56569 13.4136 9.60512 12.8945 9.95008 12.5988C10.2951 12.3031 10.8141 12.3425 11.1098 12.6875L12.9497 14.8361V2.82135C12.9497 2.36797 13.3176 2 13.771 2C14.2244 2 14.5924 2.36797 14.5924 2.82135V14.8394L16.4322 12.6908C16.7279 12.3458 17.247 12.3064 17.592 12.6021C17.9369 12.8977 17.9764 13.4168 17.6807 13.7618L14.4051 17.5827C14.3887 17.6025 14.3723 17.6222 14.3525 17.6419C14.2868 17.7076 14.2113 17.7634 14.1291 17.7996C14.0141 17.8522 13.8959 17.8784 13.771 17.8784Z" fill="#4B5563"/>
</svg>
