<svg width="24" height="24" viewBox="0 0 24 24" fill="none" xmlns="http://www.w3.org/2000/svg">
<path fill-rule="evenodd" clip-rule="evenodd" d="M20.9081 15.9694C21.4492 14.7568 21.75 13.4135 21.75 12C21.75 6.61522 17.3848 2.25 12 2.25C6.61522 2.25 2.25 6.61522 2.25 12C2.25 17.3848 6.61522 21.75 12 21.75C15.7282 21.75 18.9676 19.6575 20.608 16.5829C20.7578 16.4194 20.883 16.2228 20.9615 15.9872L20.9081 15.9694ZM3.75 12C3.75 11.801 3.75704 11.6038 3.77089 11.4083C4.2152 12.1342 4.92986 12.75 6 12.75C6.73689 12.75 7.42783 12.4982 7.92382 11.9314C8.40832 11.3776 8.625 10.6168 8.625 9.75C8.625 8.84842 8.74927 8.54625 8.8545 8.3997C8.96917 8.23995 9.12075 8.14972 9.54128 7.8993C9.6075 7.85985 9.6804 7.81642 9.76087 7.76813C10.8437 7.1184 11.5463 6.20503 11.9024 5.28677C12.0973 4.7841 12.1969 4.25322 12.1802 3.75193C14.0887 3.79284 15.8376 4.48181 17.2157 5.6076C16.7015 5.77472 16.1702 5.99518 15.7023 6.2752C15.2346 6.55512 14.7722 6.92867 14.4776 7.42309C14.1651 7.94745 14.0662 8.57033 14.2885 9.23715C14.6142 10.2143 15.156 10.9822 15.5451 11.5336C15.6514 11.6842 15.7463 11.8187 15.8222 11.9368C16.0185 12.2421 16.0869 12.4202 16.0989 12.5496C16.1073 12.6406 16.0964 12.7881 15.9 13.05C15.2541 13.9112 14.9986 14.7629 15.081 15.518C15.1627 16.2668 15.5793 16.8781 16.1646 17.1708C16.4743 17.3257 16.8869 17.4073 17.2762 17.4456C17.5579 17.4733 17.8658 17.4819 18.1786 17.4671C16.6671 19.174 14.4592 20.25 12 20.25C11.7889 20.25 11.5798 20.2421 11.3727 20.2265C11.5782 19.8575 11.6979 19.4433 11.7503 19.0441C11.8783 18.071 11.6583 16.9605 11.1406 16.1101C10.3386 14.7923 9.02977 13.9595 7.36583 14.2621C6.58075 14.4049 5.80439 14.8641 5.23485 15.3629C5.04858 15.5261 4.8739 15.7025 4.72097 15.8865C4.10134 14.7284 3.75 13.4053 3.75 12ZM5.62903 17.2418C6.64736 18.4781 8.01855 19.4128 9.58853 19.892C9.9066 19.8025 10.1789 19.49 10.2632 18.8486C10.3481 18.2026 10.1929 17.4381 9.85935 16.89C9.29932 15.9699 8.54767 15.5718 7.63417 15.7379C7.19665 15.8174 6.66051 16.1082 6.2232 16.4913C6.01012 16.6779 5.84528 16.8652 5.73967 17.0257C5.66258 17.1428 5.63731 17.2143 5.62903 17.2418ZM4.91453 10.3711C4.66621 9.83745 4.53831 9.15562 4.50746 8.54212C5.63867 6.09507 7.93343 4.29604 10.682 3.85472C10.6835 4.10347 10.6346 4.40717 10.5038 4.74448C10.2662 5.35746 9.78128 6.00661 8.98913 6.48188C8.931 6.51676 8.8701 6.55223 8.80725 6.58878C8.41523 6.81692 7.95 7.0877 7.63613 7.52467C7.24453 8.07 7.125 8.77658 7.125 9.75C7.125 10.3832 6.96668 10.7473 6.79494 10.9436C6.63467 11.1268 6.38811 11.25 6 11.25C5.55713 11.25 5.20041 10.9854 4.91453 10.3711ZM19.3982 15.6552C19.3666 15.676 19.328 15.6981 19.281 15.7212C19.0727 15.8233 18.7766 15.9016 18.428 15.9426C18.0851 15.983 17.7289 15.9829 17.423 15.9528C17.0975 15.9208 16.9007 15.8618 16.8354 15.8292C16.7499 15.7865 16.604 15.6479 16.5722 15.3554C16.541 15.0694 16.6209 14.5888 17.1 13.95C17.4661 13.4619 17.6427 12.9531 17.5925 12.4113C17.5459 11.9079 17.3096 11.4767 17.084 11.1257C16.9573 10.9285 16.8267 10.7426 16.6969 10.5578C16.3252 10.0284 15.9601 9.5085 15.7115 8.76285C15.6337 8.52968 15.6662 8.35882 15.7661 8.19098C15.884 7.9932 16.1153 7.77615 16.4726 7.56233C17.0456 7.21936 17.7935 6.97253 18.4279 6.82806C19.5677 8.24288 20.25 10.0417 20.25 12C20.25 13.3126 19.9435 14.5535 19.3982 15.6552Z" fill="#191A20"/>
</svg>
