<svg width="24" height="24" viewBox="0 0 24 24" fill="none" xmlns="http://www.w3.org/2000/svg">
<path d="M13.9971 22.7549H9.99514C8.05114 22.7549 6.64414 22.7549 5.50714 22.6019C4.20214 22.4279 3.31714 22.0439 2.63614 21.3629C1.95514 20.6819 1.57414 19.7969 1.39714 18.4919C1.24414 17.3519 1.24414 15.9479 1.24414 14.0039V6.95387C1.24414 6.02687 1.24414 5.55887 1.32514 5.12387C1.50214 4.18187 1.95514 3.32387 2.63314 2.64587C3.31114 1.96787 4.16914 1.51487 5.11114 1.33787C5.59414 1.24787 7.09114 1.21187 7.77814 1.27487C8.73214 1.36487 9.62914 1.73387 10.3671 2.34587C10.7961 2.69987 11.4411 3.38987 11.8791 3.83087C12.7041 4.66487 12.9261 4.88987 13.7571 5.12687C14.1981 5.25287 15.1791 5.25287 16.1271 5.25287H16.4001C17.6991 5.25287 18.7251 5.24987 19.5561 5.38487C20.5431 5.54387 21.2301 5.88587 21.7761 6.49487L21.7971 6.51887L21.8151 6.54287C22.2651 7.13987 22.5351 8.09687 22.6551 9.55487C22.7751 10.9769 22.7361 12.5789 22.7361 14.0039C22.7361 15.9479 22.7361 17.3549 22.5831 18.4919C22.4091 19.7969 22.0251 20.6819 21.3441 21.3629C20.6631 22.0439 19.7781 22.4249 18.4731 22.6019C17.3451 22.7549 15.9411 22.7549 13.9971 22.7549ZM5.39314 2.81387C4.07014 3.06287 3.05314 4.07987 2.80114 5.40587C2.74414 5.70587 2.74414 6.12287 2.74414 6.95687V14.0069C2.74414 17.5679 2.74414 19.3529 3.69514 20.3039C4.64614 21.2549 6.43414 21.2549 9.99214 21.2549H13.9911C17.5521 21.2549 19.3371 21.2549 20.2881 20.3039C21.2391 19.3529 21.2391 17.5649 21.2391 14.0069C21.2391 12.6179 21.2781 11.0519 21.1641 9.68387C21.0501 8.31887 20.8191 7.73087 20.6391 7.47587C19.9881 6.77987 18.9231 6.75287 16.4001 6.75587H16.1241C14.9781 6.75587 13.9851 6.75887 13.3431 6.57287C12.1311 6.22787 11.6901 5.78087 10.8081 4.88687C10.4421 4.51787 9.75814 3.79487 9.40414 3.50087C8.90014 3.08087 8.28514 2.82887 7.63114 2.76587C7.43914 2.75087 5.59114 2.77487 5.39314 2.81387Z" fill="#191A20"/>
<path d="M11.9971 15.7559C10.4821 15.7559 9.24609 14.5229 9.24609 13.0049C9.24609 11.4869 10.4791 10.2539 11.9971 10.2539C13.5151 10.2539 14.7481 11.4869 14.7481 13.0049C14.7481 14.5229 13.5121 15.7559 11.9971 15.7559ZM11.9971 11.7569C11.3071 11.7569 10.7461 12.3179 10.7461 13.0079C10.7461 13.6979 11.3071 14.2589 11.9971 14.2589C12.6871 14.2589 13.2481 13.6979 13.2481 13.0079C13.2481 12.3179 12.6871 11.7569 11.9971 11.7569Z" fill="#191A20"/>
<path d="M11.2461 17.5049C11.2461 17.9189 11.5821 18.2549 11.9961 18.2549C12.4101 18.2549 12.7461 17.9189 12.7461 17.5049H11.2461ZM11.2461 15.0059V17.5049H12.7461V15.0059H11.2461Z" fill="#191A20"/>
</svg>
