<svg width="40" height="40" viewBox="0 0 40 40" fill="none" xmlns="http://www.w3.org/2000/svg">
<g clip-path="url(#clip0_97_22)">
<rect width="40" height="40" rx="20" fill="#2C417F"/>
<path d="M52.2964 37.0301C52.2676 37.0136 52.2386 36.9976 52.2093 36.9821C49.5075 35.5451 47.1295 33.5688 45.2226 31.1754C49.0978 30.3161 52.5645 28.1621 55.0513 25.0683C57.538 21.9745 58.8964 18.1257 58.9023 14.1564C58.9023 13.3856 58.5962 12.6464 58.0511 12.1014C57.5061 11.5564 56.7669 11.2502 55.9961 11.2502C55.2253 11.2502 54.4861 11.5564 53.9411 12.1014C53.396 12.6464 53.0898 13.3856 53.0898 14.1564C53.085 17.1035 51.9616 19.9388 49.9466 22.0894C47.9317 24.24 45.1755 25.5456 42.235 25.7422C41.8305 24.6331 41.5365 23.4869 41.3573 22.3201L39.7022 10.7852C38.8095 5.72465 36.0527 1.18243 31.9756 -1.94547C27.8986 -5.07337 22.7974 -6.55982 17.6784 -6.1116C12.5593 -5.66337 7.79404 -3.31303 4.32265 0.475805C0.851259 4.26464 -1.07421 9.21683 -1.07394 14.3555L-0.892297 27.0994C-3.65407 26.6971 -6.17914 25.3152 -8.00674 23.2059C-9.83434 21.0966 -10.8426 18.4005 -10.8477 15.6095C-10.8477 14.8387 -11.1538 14.0995 -11.6989 13.5545C-12.2439 13.0095 -12.9831 12.7033 -13.7539 12.7033C-14.5247 12.7033 -15.2639 13.0095 -15.8089 13.5545C-16.354 14.0995 -16.6602 14.8387 -16.6602 15.6095C-16.6543 19.9573 -15.026 24.1464 -12.094 27.3568C-9.16202 30.5673 -5.13744 32.5679 -0.808015 32.9671L-0.726641 38.7011C-0.651443 44.0103 0.311213 49.2696 2.12148 54.2612C7.06211 67.8363 13.2379 77.0607 19.2698 74.8636C20.97 74.246 22.0264 72.0228 22.6847 69.2618C22.873 68.4887 23.2415 67.7711 23.7601 67.1676C24.2786 66.564 24.9326 66.0917 25.6685 65.789C26.4044 65.4864 27.2015 65.362 27.9946 65.4261C28.7877 65.4903 29.5544 65.741 30.2322 66.1579C39.3898 70.7309 48.7523 70.433 51.753 65.2352C52.7003 63.4858 52.9545 61.444 52.465 59.5157C52.3847 59.0798 52.4047 58.6314 52.5236 58.2044C52.6425 57.7774 52.857 57.3832 53.151 57.0515C53.445 56.7198 53.8107 56.4595 54.2203 56.2902C54.63 56.121 55.0728 56.0473 55.5151 56.0747C59.0462 56.2927 61.8333 55.3874 63.0394 53.2992C65.4472 49.1288 60.6374 41.8457 52.2964 37.0301Z" fill="#9A99EA"/>
<path d="M28.3867 21.4219C30.7943 21.4219 32.7461 18.1689 32.7461 14.1562C32.7461 10.1436 30.7943 6.89062 28.3867 6.89062C25.9791 6.89062 24.0273 10.1436 24.0273 14.1562C24.0273 18.1689 25.9791 21.4219 28.3867 21.4219Z" fill="#373737"/>
<path d="M10.9492 21.4219C13.3568 21.4219 15.3086 18.1689 15.3086 14.1562C15.3086 10.1436 13.3568 6.89062 10.9492 6.89062C8.5416 6.89062 6.58984 10.1436 6.58984 14.1562C6.58984 18.1689 8.5416 21.4219 10.9492 21.4219Z" fill="#373737"/>
</g>
<defs>
<clipPath id="clip0_97_22">
<rect width="40" height="40" rx="20" fill="white"/>
</clipPath>
</defs>
</svg>
