<svg width="16" height="16" viewBox="0 0 16 16" fill="none" xmlns="http://www.w3.org/2000/svg">
<path d="M13.556 2.84103H2.25743C2.01223 2.84103 1.81323 2.64203 1.81323 2.39683C1.81323 2.15164 2.01223 1.95264 2.25743 1.95264H13.556C13.8012 1.95264 14.0002 2.15164 14.0002 2.39683C14.0002 2.64203 13.8012 2.84103 13.556 2.84103Z" fill="#4B5563"/>
<path d="M13.5557 6.64718H7.03672C6.79153 6.64718 6.59253 6.44818 6.59253 6.20298C6.59253 5.95779 6.79153 5.75879 7.03672 5.75879H13.5557C13.8009 5.75879 13.9999 5.95779 13.9999 6.20298C13.9999 6.44818 13.8009 6.64718 13.5557 6.64718Z" fill="#4B5563"/>
<path d="M13.5557 10.4543H7.03672C6.79153 10.4543 6.59253 10.2553 6.59253 10.0101C6.59253 9.76492 6.79153 9.56592 7.03672 9.56592H13.5557C13.8009 9.56592 13.9999 9.76492 13.9999 10.0101C13.9999 10.2553 13.8009 10.4543 13.5557 10.4543Z" fill="#4B5563"/>
<path d="M13.556 14.2619H2.25743C2.01223 14.2619 1.81323 14.0629 1.81323 13.8177C1.81323 13.5725 2.01223 13.3735 2.25743 13.3735H13.556C13.8012 13.3735 14.0002 13.5725 14.0002 13.8177C14.0002 14.0629 13.8012 14.2619 13.556 14.2619Z" fill="#4B5563"/>
<path d="M2.24484 10.402C2.08137 10.402 1.92502 10.3114 1.84684 10.1569C1.73668 9.93831 1.82552 9.67002 2.04584 9.56163C2.63395 9.26846 3.22562 8.70522 3.57742 8.11889C3.22562 7.53255 2.63395 6.97109 2.04584 6.67614C1.8273 6.56598 1.73668 6.29946 1.84684 6.08092C1.957 5.86238 2.22352 5.77176 2.44206 5.88192C3.26826 6.29413 4.06781 7.09546 4.48003 7.91989C4.54221 8.04426 4.54221 8.19174 4.48003 8.31789C4.06781 9.14409 3.26649 9.94364 2.44206 10.3559C2.37987 10.3861 2.31236 10.402 2.24484 10.402Z" fill="#4B5563"/>
</svg>
