<svg width="24" height="24" viewBox="0 0 24 24" fill="none" xmlns="http://www.w3.org/2000/svg">
<path d="M20.3336 4.2613H3.38577C3.01798 4.2613 2.71948 3.9628 2.71948 3.595C2.71948 3.22721 3.01798 2.92871 3.38577 2.92871H20.3336C20.7014 2.92871 20.9999 3.22721 20.9999 3.595C20.9999 3.9628 20.7014 4.2613 20.3336 4.2613Z" fill="#191A20"/>
<path d="M20.3337 9.97126H10.5552C10.1874 9.97126 9.88892 9.67276 9.88892 9.30496C9.88892 8.93717 10.1874 8.63867 10.5552 8.63867H20.3337C20.7015 8.63867 21 8.93717 21 9.30496C21 9.67276 20.7015 9.97126 20.3337 9.97126Z" fill="#191A20"/>
<path d="M20.3336 15.6812H10.5551C10.1873 15.6812 9.88879 15.3827 9.88879 15.0149C9.88879 14.6471 10.1873 14.3486 10.5551 14.3486H20.3336C20.7014 14.3486 20.9999 14.6471 20.9999 15.0149C20.9999 15.3827 20.7014 15.6812 20.3336 15.6812Z" fill="#191A20"/>
<path d="M20.3336 21.3931H3.38577C3.01798 21.3931 2.71948 21.0946 2.71948 20.7268C2.71948 20.359 3.01798 20.0605 3.38577 20.0605H20.3336C20.7014 20.0605 20.9999 20.359 20.9999 20.7268C20.9999 21.0946 20.7014 21.3931 20.3336 21.3931Z" fill="#191A20"/>
<path d="M3.36714 15.6036C3.12194 15.6036 2.88741 15.4676 2.77014 15.2358C2.6049 14.908 2.73816 14.5055 3.06864 14.3429C3.95081 13.9032 4.83831 13.0583 5.36601 12.1788C4.83831 11.2993 3.95081 10.4571 3.06864 10.0147C2.74082 9.84946 2.6049 9.44969 2.77014 9.12187C2.93538 8.79405 3.33515 8.65813 3.66297 8.82337C4.90227 9.44169 6.1016 10.6437 6.71992 11.8803C6.8132 12.0669 6.8132 12.2881 6.71992 12.4773C6.1016 13.7166 4.89961 14.9159 3.66297 15.5343C3.56969 15.5796 3.46841 15.6036 3.36714 15.6036Z" fill="#191A20"/>
</svg>
