<svg width="32" height="32" viewBox="0 0 32 32" fill="none" xmlns="http://www.w3.org/2000/svg">
<path d="M11.4967 16.1778C11.4967 15.2519 11.7712 14.3468 12.2857 13.5769C12.8001 12.8071 13.5312 12.207 14.3866 11.8527C15.2421 11.4984 16.1834 11.4056 17.0915 11.5863C17.9996 11.7669 18.8338 12.2128 19.4885 12.8675C20.1432 13.5222 20.5891 14.3564 20.7697 15.2645C20.9503 16.1726 20.8576 17.1139 20.5033 17.9693C20.149 18.8248 19.5489 19.5559 18.7791 20.0703C18.0092 20.5847 17.1041 20.8593 16.1782 20.8593C15.5632 20.8601 14.9541 20.7395 14.3857 20.5045C13.8174 20.2695 13.301 19.9247 12.8661 19.4899C12.4312 19.055 12.0864 18.5386 11.8515 17.9703C11.6165 17.4019 11.4959 16.7928 11.4967 16.1778ZM8.96632 16.1778C8.96749 17.6039 9.39145 18.9977 10.1846 20.1829C10.9778 21.3681 12.1045 22.2915 13.4224 22.8365C14.7403 23.3814 16.1902 23.5234 17.5888 23.2444C18.9873 22.9655 20.2718 22.2782 21.2798 21.2693C22.2878 20.2605 22.9741 18.9755 23.2519 17.5767C23.5297 16.1779 23.3865 14.7281 22.8405 13.4107C22.2945 12.0932 21.3701 10.9672 20.1842 10.175C18.9984 9.38285 17.6043 8.96003 16.1782 8.96003C15.2306 8.96003 14.2923 9.14677 13.4169 9.50957C12.5416 9.87237 11.7463 10.4041 11.0765 11.0744C10.4068 11.7447 9.87566 12.5405 9.51358 13.4161C9.1515 14.2918 8.96554 15.2302 8.96632 16.1778ZM22.0034 8.67559C22.0034 9.00769 22.1016 9.33236 22.2858 9.60872C22.4699 9.88508 22.7317 10.1008 23.0382 10.2287C23.3447 10.3566 23.6822 10.3909 24.0082 10.3274C24.3341 10.2639 24.634 10.1054 24.8701 9.87177C25.1061 9.63818 25.2678 9.33996 25.3347 9.01468C25.4017 8.6894 25.3709 8.35158 25.2462 8.04377C25.1216 7.73596 24.9086 7.4719 24.6342 7.28486C24.3598 7.09781 24.0362 6.99613 23.7041 6.99263C23.2582 6.99419 22.8311 7.172 22.5158 7.48728C22.2005 7.80256 22.0227 8.22972 22.0211 8.67559H22.0034ZM10.513 27.6386C9.62275 27.6292 8.74076 27.4669 7.90557 27.1586C7.28825 26.9232 6.73142 26.5527 6.27595 26.0741C5.8109 25.6214 5.45258 25.0708 5.22706 24.4623C4.91615 23.6255 4.75177 22.7415 4.74113 21.8489C4.67595 20.3734 4.65817 19.9289 4.65817 16.1778C4.65817 12.4267 4.65817 11.9823 4.74113 10.5008C4.75115 9.61008 4.91556 8.72787 5.22706 7.89337C5.45913 7.2864 5.81657 6.73519 6.27606 6.2757C6.73555 5.81621 7.28676 5.45877 7.89372 5.2267C8.72823 4.9152 9.61044 4.75079 10.5011 4.74077C11.9826 4.67559 12.4271 4.65781 16.1782 4.65781C19.9293 4.65781 20.3737 4.65781 21.8552 4.74077C22.7458 4.75186 23.6278 4.91624 24.4626 5.2267C25.0712 5.45223 25.6218 5.81054 26.0745 6.27559C26.5409 6.73064 26.901 7.28305 27.1293 7.89337C27.4376 8.72855 27.6 9.61054 27.6093 10.5008C27.6804 11.9823 27.6922 12.4267 27.6922 16.1778C27.6922 19.9289 27.6922 20.3734 27.6093 21.8489C27.5997 22.7411 27.4374 23.625 27.1293 24.4623C26.8924 25.0664 26.5333 25.6152 26.0744 26.0741C25.6155 26.5329 25.0668 26.8921 24.4626 27.1289C23.6272 27.4366 22.7454 27.5989 21.8552 27.6089C20.3737 27.68 19.9293 27.6919 16.1782 27.6919C12.4271 27.6919 11.9826 27.6919 10.5011 27.6089L10.513 27.6386ZM10.3945 2.24596C9.22972 2.26658 8.07717 2.48707 6.98706 2.89781C6.04881 3.24798 5.19909 3.8003 4.49817 4.51559C3.78288 5.21651 3.23056 6.06623 2.88039 7.00448C2.46965 8.09459 2.24916 9.24714 2.22854 10.4119C2.15743 11.9111 2.13965 12.3911 2.13965 16.2074C2.13965 20.0237 2.13965 20.4978 2.22854 21.9971C2.24857 23.1619 2.46908 24.3145 2.88039 25.4045C3.23244 26.3268 3.78034 27.1618 4.48632 27.8519C5.1886 28.5669 6.0378 29.1209 6.9752 29.4756C8.06692 29.8806 9.21849 30.1009 10.3826 30.1274C11.8819 30.1926 12.3619 30.2104 16.1782 30.2104C19.9945 30.2104 20.4685 30.2104 21.9678 30.1274C23.132 30.1016 24.2837 29.8813 25.3752 29.4756C26.3085 29.1128 27.1561 28.5599 27.8641 27.8519C28.5721 27.1438 29.125 26.2963 29.4878 25.363C29.8935 24.2715 30.1138 23.1198 30.1396 21.9556C30.2048 20.4563 30.2226 19.9763 30.2226 16.166C30.2226 12.3556 30.2226 11.8697 30.1396 10.3704C30.1131 9.20628 29.8928 8.05471 29.4878 6.963C29.1282 6.02876 28.5701 5.18365 27.8522 4.48596C27.1513 3.77067 26.3016 3.21835 25.3634 2.86818C24.2734 2.45687 23.1207 2.23637 21.9559 2.21633C20.4567 2.14522 19.9767 2.12744 16.1663 2.12744C12.3559 2.12744 11.87 2.12744 10.3708 2.21633L10.3945 2.24596Z" fill="url(#paint0_radial_7_645)"/>
<defs>
<radialGradient id="paint0_radial_7_645" cx="0" cy="0" r="1" gradientUnits="userSpaceOnUse" gradientTransform="translate(7.01746 30.6422) scale(33.9026)">
<stop stop-color="#FBE18A"/>
<stop offset="0.21" stop-color="#FCBB45"/>
<stop offset="0.38" stop-color="#F75274"/>
<stop offset="0.52" stop-color="#D53692"/>
<stop offset="0.74" stop-color="#8F39CE"/>
<stop offset="1" stop-color="#5B4FE9"/>
</radialGradient>
</defs>
</svg>
