<svg width="16" height="16" viewBox="0 0 16 16" fill="none" xmlns="http://www.w3.org/2000/svg">
<g clip-path="url(#clip0_52_7662)">
<path d="M9.33403 15.1659H6.66603C5.37003 15.1659 4.43203 15.1659 3.67403 15.0639C2.80403 14.9479 2.21403 14.6919 1.76003 14.2379C1.30603 13.7839 1.05203 13.1939 0.934031 12.3239C0.832031 11.5639 0.832031 10.6279 0.832031 9.33187C0.832031 8.03587 0.832031 7.09787 0.934031 6.33987C1.05003 5.46987 1.30603 4.87987 1.76003 4.42587C2.26003 3.92587 2.91403 3.66987 3.95003 3.56787L4.04803 4.56387C3.25203 4.64187 2.79203 4.80787 2.46803 5.13387C1.83403 5.76987 1.83403 6.95987 1.83403 9.33387C1.83403 11.7059 1.83403 12.8979 2.46803 13.5319C3.10203 14.1659 4.29403 14.1659 6.66603 14.1659H9.33203C11.706 14.1659 12.896 14.1659 13.53 13.5319C14.164 12.8979 14.164 11.7059 14.164 9.33387C14.164 6.95987 14.164 5.76987 13.53 5.13587C13.204 4.80987 12.746 4.64587 11.95 4.56587L12.048 3.56987C13.084 3.67187 13.74 3.92787 14.238 4.42787C14.692 4.88187 14.946 5.47187 15.064 6.34187C15.166 7.10187 15.166 8.03787 15.166 9.33387C15.166 10.6299 15.166 11.5679 15.064 12.3259C14.948 13.1959 14.692 13.7859 14.238 14.2399C13.784 14.6939 13.194 14.9479 12.324 15.0659C11.566 15.1659 10.63 15.1659 9.33403 15.1659Z" fill="#4B5563"/>
<path d="M9.33402 4.5H6.66602C6.39002 4.5 6.16602 4.276 6.16602 4C6.16602 3.724 6.39002 3.5 6.66602 3.5H9.33202C9.60802 3.5 9.83202 3.724 9.83202 4C9.83202 4.276 9.61002 4.5 9.33402 4.5ZM8.66602 6.5H7.33202C7.05602 6.5 6.83202 6.276 6.83202 6C6.83202 5.724 7.05602 5.5 7.33202 5.5H8.66602C8.94202 5.5 9.16602 5.724 9.16602 6C9.16602 6.276 8.94202 6.5 8.66602 6.5Z" fill="#4B5563"/>
<path d="M8 9.89594C7.094 9.89594 6.394 9.31194 5.12 8.24994L4.64 7.84994C4.128 7.42394 3.846 7.18794 3.674 6.81994C3.5 6.44994 3.5 6.08394 3.5 5.41794V4.66794C3.5 3.01394 3.5 2.10394 4.134 1.46994C4.768 0.835938 5.68 0.835938 7.332 0.835938H8.666C10.32 0.835938 11.23 0.835938 11.864 1.46994C12.5 2.10194 12.5 3.01394 12.5 4.66594V5.41594C12.5 6.08194 12.5 6.44794 12.326 6.81794C12.152 7.18794 11.872 7.42194 11.36 7.84794L10.88 8.24794C9.606 9.31194 8.906 9.89594 8 9.89594ZM7.334 1.83394C5.804 1.83394 5.17 1.84794 4.842 2.17594C4.514 2.50394 4.5 3.13794 4.5 4.66794V5.41794C4.5 5.99394 4.504 6.23394 4.578 6.39594C4.654 6.55794 4.836 6.71394 5.278 7.08194L5.758 7.48194C6.966 8.48794 7.476 8.89594 7.998 8.89594C8.52 8.89594 9.032 8.48794 10.238 7.48194L10.718 7.08194C11.16 6.71394 11.344 6.55594 11.418 6.39594C11.494 6.23394 11.496 5.99394 11.496 5.41794V4.66794C11.496 3.13794 11.482 2.50394 11.154 2.17594C10.826 1.84794 10.192 1.83394 8.662 1.83394H7.334Z" fill="#4B5563"/>
</g>
<defs>
<clipPath id="clip0_52_7662">
<rect width="16" height="16" fill="white"/>
</clipPath>
</defs>
</svg>
