<svg width="32" height="32" viewBox="0 0 32 32" fill="none" xmlns="http://www.w3.org/2000/svg">
<path d="M15.9999 0.999512C12.0216 0.999512 8.20637 2.57985 5.39335 5.39287C2.58034 8.20588 1 12.0212 1 15.9994C1.00016 19.2944 2.08532 22.4978 4.08784 25.1145C3.47462 26.7974 3.24785 28.7712 3.86296 29.3854C4.52721 30.0496 6.77506 29.734 8.53063 29.0074C10.8036 30.3125 13.3789 30.9993 15.9999 30.9992C19.9781 30.9992 23.7933 29.4189 26.6063 26.6059C29.4194 23.7928 30.9997 19.9776 30.9997 15.9994C30.9997 12.0212 29.4194 8.20588 26.6063 5.39287C23.7933 2.57985 19.9781 0.999512 15.9999 0.999512Z" fill="#00A1FF"/>
<path d="M23.6903 12.1267C23.2954 11.898 22.7454 11.9377 22.3306 12.413L19.5471 15.4196L13.0218 11.6524C12.7631 11.5023 12.4773 11.4048 12.1809 11.3654C11.8844 11.3261 11.5831 11.3457 11.2943 11.4231C11.0054 11.5006 10.7347 11.6343 10.4977 11.8167C10.2607 11.999 10.062 12.2264 9.91313 12.4857C9.89045 12.5235 9.70053 12.8543 9.64951 13.0007L7.87787 18.5528C7.46969 19.7452 8.84164 20.537 9.6703 19.5874L12.4539 16.5799L18.9792 20.348C19.2378 20.4981 19.5236 20.5956 19.8201 20.635C20.1165 20.6743 20.4178 20.6547 20.7067 20.5773C20.9955 20.4998 21.2662 20.3661 21.5032 20.1837C21.7403 20.0014 21.9389 19.774 22.0878 19.5147C22.1105 19.4769 22.3032 19.1462 22.3505 18.9988L24.1231 13.4476C24.3272 12.8514 24.0853 12.3554 23.6903 12.1267Z" fill="white"/>
</svg>
