<svg width="24" height="24" viewBox="0 0 24 24" fill="none" xmlns="http://www.w3.org/2000/svg">
<path d="M12.75 6.1084H11.25V21.2554H12.75V6.1084Z" fill="#4B5563"/>
<path d="M20.055 2.52316C18.918 2.56216 17.43 2.68216 16.284 3.02416C15.288 3.32116 14.169 3.90316 13.296 4.41016C12.477 4.88416 11.46 4.90816 10.632 4.47016C9.63598 3.94516 8.32798 3.32116 7.19098 3.02116C6.23098 2.76616 5.01598 2.64616 4.02898 2.58616C2.47198 2.49016 1.25098 3.75916 1.25098 5.25616V16.4012C1.25098 17.9372 2.49598 19.1372 3.96898 19.2302C4.92898 19.2902 6.00598 19.4042 6.80998 19.6172C7.80298 19.8782 9.02998 20.4602 10.02 20.9912C11.253 21.6482 12.747 21.6482 13.98 20.9912C14.97 20.4632 16.197 19.8812 17.19 19.6172C17.994 19.4042 19.071 19.2902 20.031 19.2302C21.504 19.1372 22.749 17.9372 22.749 16.4012V5.18716C22.749 3.72616 21.585 2.46916 20.055 2.52316ZM19.938 17.7302C18.957 17.7902 17.76 17.9132 16.809 18.1652C15.639 18.4742 14.283 19.1282 13.275 19.6652C12.483 20.0882 11.517 20.0882 10.725 19.6652C9.71698 19.1282 8.36098 18.4742 7.19098 18.1652C6.23998 17.9132 5.04298 17.7902 4.06198 17.7302C3.31798 17.6852 2.75098 17.0852 2.75098 16.3982V5.25316C2.75098 4.55716 3.30298 4.04116 3.93598 4.08016C4.90198 4.14016 5.99698 4.25416 6.80698 4.47016C7.76998 4.72516 8.95198 5.28016 9.92998 5.79616C11.223 6.48016 12.789 6.43816 14.049 5.70916C14.898 5.21716 15.894 4.71016 16.716 4.46416C17.664 4.17916 18.99 4.06516 20.109 4.02616C20.724 4.00516 21.252 4.50916 21.252 5.19316V16.4042C21.249 17.0852 20.682 17.6822 19.938 17.7302Z" fill="#4B5563"/>
<path d="M9.00008 11.004C8.82908 11.007 4.99208 10.026 4.81808 9.98099C4.41608 9.88199 4.17308 9.47399 4.27208 9.07199C4.37108 8.66999 4.77908 8.42699 5.18108 8.52599L9.18008 9.52499C9.58208 9.62399 9.82508 10.032 9.72608 10.434C9.64208 10.776 9.33608 11.004 9.00008 11.004ZM15.0001 11.004C14.6641 11.004 14.3581 10.776 14.2741 10.437C14.1751 10.035 14.4181 9.62699 14.8201 9.52799L18.8191 8.52899C19.2211 8.42999 19.6291 8.67299 19.7281 9.07499C19.8271 9.47699 19.5841 9.88499 19.1821 9.98399C19.1821 9.98099 15.0601 11.004 15.0001 11.004ZM9.00008 15.006C8.82908 15.009 4.99208 14.028 4.81808 13.983C4.41608 13.884 4.17308 13.476 4.27208 13.074C4.37108 12.672 4.77908 12.429 5.18108 12.528L9.18008 13.527C9.58208 13.626 9.82508 14.034 9.72608 14.436C9.64208 14.778 9.33608 15.006 9.00008 15.006ZM15.0001 15.006C14.6641 15.006 14.3581 14.778 14.2741 14.439C14.1751 14.037 14.4181 13.629 14.8201 13.53L18.8191 12.531C19.2211 12.432 19.6291 12.675 19.7281 13.077C19.8271 13.479 19.5841 13.887 19.1821 13.986C19.1821 13.983 15.0601 15.006 15.0001 15.006Z" fill="#4B5563"/>
</svg>
