<svg width="24" height="24" viewBox="0 0 24 24" fill="none" xmlns="http://www.w3.org/2000/svg">
<path fill-rule="evenodd" clip-rule="evenodd" d="M14.5375 2.04319L4.13125 2.81965C3.2925 2.89312 3 3.44728 3 4.11164V15.6369C3 16.1543 3.1825 16.597 3.62063 17.1886L6.06687 20.402C6.46875 20.9195 6.83375 21.0303 7.60125 20.9936L19.6856 20.2545C20.7075 20.181 21 19.7003 21 18.8878V5.92232C21 5.50179 20.8356 5.38082 20.3519 5.02299C20.3243 5.00256 20.2968 4.98209 20.2694 4.96156L16.9475 2.59735C16.1444 2.00709 15.8156 1.93236 14.5375 2.04319ZM7.875 5.70952C6.88812 5.77665 6.66437 5.79185 6.10375 5.33142L4.67875 4.18637C4.53375 4.03817 4.60688 3.85324 4.97125 3.81651L14.9756 3.07805C15.815 3.00395 16.2531 3.29971 16.5819 3.55811L18.2981 4.81399C18.3713 4.85136 18.5531 5.07239 18.3344 5.07239L8.0025 5.70065L7.875 5.70952ZM6.72437 18.7769V7.76973C6.72437 7.28903 6.87 7.06737 7.30812 7.03L19.1737 6.32828C19.5762 6.29154 19.7587 6.54994 19.7587 7.03V17.9637C19.7587 18.4444 19.6856 18.851 19.0275 18.8878L7.67312 19.5528C7.01625 19.5895 6.72437 19.3685 6.72437 18.7769ZM17.9338 8.35999C18.0063 8.69248 17.9338 9.02498 17.6044 9.06298L17.0569 9.17254V17.2994C16.5819 17.5578 16.1444 17.7053 15.7794 17.7053C15.195 17.7053 15.0481 17.5204 14.6106 16.9669L11.0319 11.2784V16.782L12.1644 17.041C12.1644 17.041 12.1644 17.706 11.2506 17.706L8.73187 17.8535C8.65937 17.7053 8.73187 17.3368 8.98812 17.2627L9.64438 17.0784V9.80144L8.73187 9.72671C8.65937 9.39421 8.84125 8.91415 9.35313 8.87741L12.055 8.69248L15.7794 14.4558V9.35748L14.8294 9.24728C14.7569 8.84005 15.0481 8.54492 15.4137 8.50818L17.9338 8.35999Z" fill="#191A20"/>
</svg>
