<svg width="32" height="32" viewBox="0 0 32 32" fill="none" xmlns="http://www.w3.org/2000/svg">
<path d="M13.3335 25.533H18.6665C19.292 25.533 19.8003 26.0412 19.8003 26.6667C19.8003 27.2923 19.292 27.8005 18.6665 27.8005H13.3335C12.708 27.8005 12.1997 27.2923 12.1997 26.6667C12.1997 26.0412 12.708 25.533 13.3335 25.533ZM15.9976 2.86694H16.0024C20.3092 2.86694 23.8002 6.35706 23.8003 10.6638V15.7322L23.8208 15.7751L26.3462 20.8269C26.522 21.1784 26.5036 21.5952 26.2974 21.9294C26.0897 22.2638 25.7266 22.4665 25.3335 22.4666H6.6665C6.27325 22.4665 5.90925 22.2641 5.70166 21.9294H5.70264C5.49643 21.5952 5.47803 21.1785 5.65381 20.8269L8.1792 15.7751L8.19971 15.7322V10.6638C8.19985 6.35706 11.6908 2.86694 15.9976 2.86694ZM15.9976 5.13354C12.9432 5.13354 10.4665 7.60948 10.4663 10.6638V15.9998C10.4663 16.1754 10.4263 16.3494 10.3472 16.5066H10.3462L8.64502 19.9109L8.50049 20.2H23.4995L23.355 19.9109L21.6538 16.5066H21.6528C21.5737 16.3494 21.5337 16.1754 21.5337 15.9998V10.6638C21.5335 7.60948 19.0568 5.13354 16.0024 5.13354H15.9976Z" fill="#4B5563" stroke="#F2F5F9" stroke-width="0.4"/>
</svg>
