<svg width="40" height="40" viewBox="0 0 40 40" fill="none" xmlns="http://www.w3.org/2000/svg">
<g clip-path="url(#clip0_3_10230)">
<g opacity="0.3">
<path opacity="0.3" d="M24.8026 10.951C24.142 10.9504 23.5086 10.6877 23.0414 10.2206C22.5743 9.75343 22.3116 9.12005 22.311 8.45945V5H11.1774C10.315 5 9.48796 5.34259 8.87816 5.95239C8.26836 6.56218 7.92578 7.38923 7.92578 8.25161V27.8532C7.92706 28.7148 8.27021 29.5405 8.87987 30.1493C9.48952 30.758 10.3159 31.1 11.1774 31.1H24.5428C25.4043 31.1 26.2307 30.758 26.8403 30.1493C27.45 29.5405 27.7931 28.7148 27.7944 27.8532V10.951H24.8026Z" fill="#EF3739"/>
</g>
<path d="M27.7941 10.951H24.8022C24.1416 10.9504 23.5082 10.6877 23.0411 10.2206C22.5739 9.75343 22.3113 9.12005 22.3107 8.45945V5L27.7941 10.951ZM23.7063 23.2265H11.2314C11.1113 23.2265 10.996 23.1788 10.911 23.0938C10.8261 23.0088 10.7783 22.8936 10.7783 22.7734C10.7786 22.6534 10.8265 22.5385 10.9115 22.4538C10.9964 22.3691 11.1115 22.3215 11.2314 22.3215H23.7063C23.8261 22.3215 23.9411 22.3691 24.0259 22.4538C24.1106 22.5386 24.1582 22.6535 24.1582 22.7734C24.1583 22.8328 24.1468 22.8918 24.1241 22.9467C24.1015 23.0016 24.0683 23.0517 24.0262 23.0937C23.9843 23.1358 23.9344 23.1692 23.8796 23.1919C23.8246 23.2148 23.7657 23.2265 23.7063 23.2265ZM23.7063 18.1225H11.2314C11.1115 18.1225 10.9964 18.0749 10.9115 17.9902C10.8265 17.9055 10.7786 17.7906 10.7783 17.6706C10.7783 17.5505 10.8261 17.4352 10.911 17.3501C10.996 17.2652 11.1113 17.2175 11.2314 17.2175H23.7063C23.7657 17.2175 23.8246 17.2292 23.8796 17.252C23.9344 17.2747 23.9843 17.3082 24.0262 17.3503C24.0683 17.3923 24.1015 17.4423 24.1241 17.4973C24.1468 17.5523 24.1583 17.6111 24.1582 17.6706C24.1582 17.7905 24.1106 17.9054 24.0259 17.9902C23.9411 18.0749 23.8261 18.1225 23.7063 18.1225ZM23.7063 20.6745H11.2314C11.1113 20.6745 10.996 20.6268 10.911 20.5418C10.8261 20.4568 10.7783 20.3416 10.7783 20.2214C10.7786 20.1014 10.8265 19.9865 10.9115 19.9018C10.9964 19.8171 11.1115 19.7695 11.2314 19.7695H23.7063C23.8261 19.7695 23.9411 19.8171 24.0259 19.9018C24.1106 19.9866 24.1582 20.1015 24.1582 20.2214C24.1583 20.2808 24.1468 20.3397 24.1241 20.3947C24.1015 20.4496 24.0683 20.4997 24.0262 20.5417C23.9843 20.5838 23.9344 20.6172 23.8796 20.6399C23.8246 20.6628 23.7657 20.6745 23.7063 20.6745ZM18.7859 15.5705H11.2314C11.1115 15.5705 10.9964 15.5229 10.9115 15.4382C10.8265 15.3535 10.7786 15.2385 10.7783 15.1186C10.7783 14.9984 10.8261 14.8832 10.911 14.7982C10.996 14.7132 11.1113 14.6655 11.2314 14.6655H18.7859C18.9059 14.6658 19.0209 14.7136 19.1056 14.7986C19.1903 14.8835 19.2379 14.9986 19.2379 15.1186C19.2375 15.2383 19.1898 15.3531 19.1051 15.4378C19.0205 15.5225 18.9057 15.5702 18.7859 15.5705ZM18.7859 13.0185H11.2314C11.1115 13.0185 10.9964 12.9709 10.9115 12.8862C10.8265 12.8015 10.7786 12.6866 10.7783 12.5666C10.7783 12.4464 10.8261 12.3311 10.911 12.2462C10.996 12.1612 11.1113 12.1135 11.2314 12.1135H18.7859C18.9059 12.1138 19.0209 12.1617 19.1056 12.2466C19.1903 12.3316 19.2379 12.4466 19.2379 12.5666C19.2375 12.6864 19.1898 12.8011 19.1051 12.8858C19.0205 12.9705 18.9057 13.0182 18.7859 13.0185ZM30.1515 25.6154H15.0425C13.9708 25.6154 13.1019 26.4842 13.1019 27.556V32.0606C13.1019 33.1324 13.9708 34.0012 15.0425 34.0012H30.1515C31.2233 34.0012 32.0921 33.1324 32.0921 32.0606V27.556C32.0921 26.4842 31.2233 25.6154 30.1515 25.6154Z" fill="#EF3739"/>
<path d="M18.0581 30.7835V31.662H17.1494V30.7835H18.0581ZM19.3945 30.3872V31.662H18.516V28.0285H19.9395C20.3708 28.0285 20.7007 28.1361 20.9267 28.3499C21.041 28.4623 21.1303 28.5975 21.1886 28.7469C21.2469 28.8962 21.273 29.0562 21.265 29.2163C21.2693 29.4275 21.2173 29.6361 21.114 29.8205C21.0085 30.0006 20.8521 30.1458 20.6645 30.2373C20.4381 30.3443 20.1897 30.3961 19.9395 30.3884L19.3945 30.3872ZM20.3708 29.2163C20.3708 28.894 20.1944 28.733 19.8416 28.733H19.3945V29.6791H19.8416C20.1944 29.6824 20.3708 29.5281 20.3708 29.2163ZM24.7365 30.7859C24.5853 31.0607 24.3568 31.285 24.0792 31.4312C23.767 31.591 23.4197 31.6703 23.069 31.662H21.6976V28.0285H23.069C23.4199 28.0197 23.7677 28.0973 24.0816 28.2545C24.3583 28.3975 24.5863 28.6195 24.7365 28.8925C24.8937 29.1822 24.9729 29.5079 24.9661 29.8374C24.9726 30.1681 24.8936 30.4948 24.7365 30.7859ZM23.7916 30.6035C23.8899 30.5027 23.966 30.3825 24.015 30.2505C24.0641 30.1186 24.0851 29.9779 24.0768 29.8374C24.0852 29.6971 24.0642 29.5564 24.0152 29.4247C23.966 29.293 23.8899 29.173 23.7916 29.0725C23.5718 28.8797 23.2847 28.7815 22.9929 28.7994H22.576V30.8753H22.9929C23.2845 30.8931 23.5713 30.7953 23.7916 30.6035ZM27.8335 28.0285V28.7281H26.3436V29.5244H27.494V30.1926H26.3436V31.662H25.464V28.0285H27.8335Z" fill="white"/>
<path d="M23.4854 12.1133H21.3491C20.9766 12.1133 20.6748 12.4151 20.6748 12.7875V14.9239C20.6748 15.2962 20.9766 15.5981 21.3491 15.5981H23.4854C23.8578 15.5981 24.1596 15.2962 24.1596 14.9239V12.7875C24.1596 12.4151 23.8578 12.1133 23.4854 12.1133Z" fill="#EF3739"/>
</g>
<defs>
<clipPath id="clip0_3_10230">
<rect width="24.2875" height="29" fill="white" transform="translate(7.85645 5)"/>
</clipPath>
</defs>
</svg>
