<svg width="13" height="13" viewBox="0 0 13 13" fill="none" xmlns="http://www.w3.org/2000/svg">
<g clip-path="url(#clip0_97_122)">
<path d="M7.42744 10.9022C7.39332 10.9022 7.36082 10.8973 7.32669 10.8892C6.07057 10.5691 4.92007 9.91418 4.00032 8.99605C3.07894 8.0763 2.42407 6.9258 2.10882 5.6713C2.07957 5.5543 2.10394 5.4308 2.17382 5.3333C2.24532 5.2358 2.35419 5.17405 2.47444 5.16593L4.78519 5.0083C4.90382 4.06093 5.13132 2.36768 6.08844 1.41055C6.40857 1.09043 6.79207 0.8808 7.22594 0.7898C7.61594 0.70855 8.03844 0.723175 8.48207 0.8353C9.26532 1.03355 10.0794 1.52593 10.7749 2.22143C11.4704 2.91693 11.9628 3.73105 12.1611 4.5143C12.2732 4.95793 12.2894 5.38043 12.2066 5.77043C12.1156 6.2043 11.9059 6.5878 11.5858 6.90793C10.6287 7.86505 8.93544 8.09255 7.98807 8.21118L7.83207 10.5236C7.82394 10.6438 7.76219 10.7543 7.66469 10.8258C7.59644 10.8762 7.51194 10.9022 7.42744 10.9022Z" fill="#EDC75A"/>
<path d="M1.14534 12.2608C1.04134 12.2608 0.937344 12.2218 0.857719 12.1421C0.698469 11.9829 0.698469 11.7261 0.857719 11.5669L3.99234 8.43389C4.15159 8.27464 4.40834 8.27464 4.56759 8.43389C4.72684 8.59314 4.72684 8.84989 4.56759 9.00914L1.43134 12.1421C1.35334 12.2218 1.24934 12.2608 1.14534 12.2608Z" fill="#EDC75A"/>
</g>
<defs>
<clipPath id="clip0_97_122">
<rect width="13" height="13" fill="white"/>
</clipPath>
</defs>
</svg>
