<svg width="24" height="24" viewBox="0 0 24 24" fill="none" xmlns="http://www.w3.org/2000/svg">
<g clip-path="url(#clip0_695_25)">
<path d="M12.0793 14.4966C11.9374 14.4966 11.7956 14.4465 11.6788 14.3548C11.4118 14.1379 11.3785 13.7374 11.5954 13.4704L14.4571 10.0081C14.6823 9.74107 15.0745 9.70769 15.3414 9.92459C15.6084 10.1416 15.6418 10.542 15.4249 10.809L12.5632 14.2713C12.4381 14.4215 12.2545 14.4966 12.0793 14.4966Z" fill="#191A20"/>
<path d="M11.9959 15.7147C13.1662 15.7147 14.115 14.7659 14.115 13.5955C14.115 12.4252 13.1662 11.4764 11.9959 11.4764C10.8255 11.4764 9.87675 12.4252 9.87675 13.5955C9.87675 14.7659 10.8255 15.7147 11.9959 15.7147ZM3.03546 14.4382H1.40023C1.05817 14.4382 0.774506 14.1545 0.774506 13.8124C0.774506 13.4704 1.05817 13.1867 1.40023 13.1867H3.03546C3.37752 13.1867 3.66119 13.4704 3.66119 13.8124C3.66119 14.1545 3.38587 14.4382 3.03546 14.4382ZM22.5997 14.4382H20.9646C20.6225 14.4382 20.3389 14.1545 20.3389 13.8124C20.3389 13.4704 20.6225 13.1867 20.9646 13.1867H22.5997C22.9418 13.1867 23.2255 13.4704 23.2255 13.8124C23.2255 14.1545 22.9418 14.4382 22.5997 14.4382ZM11.9959 6.10348C11.6538 6.10348 11.3701 5.81981 11.3701 5.47775V3.84252C11.3701 3.50046 11.6538 3.2168 11.9959 3.2168C12.3379 3.2168 12.6216 3.50046 12.6216 3.84252V5.47775C12.6216 5.81981 12.3463 6.10348 11.9959 6.10348Z" fill="#191A20"/>
<path d="M22.3828 21.7133H1.61714L0.899647 19.9279C-0.593752 16.232 -0.209973 11.9938 1.91749 8.59815C3.97821 5.31101 7.33209 3.28366 11.1281 3.02503C11.7205 2.99166 12.3045 2.99166 12.8718 3.02503C16.6679 3.28366 20.0218 5.31101 22.0825 8.59815C24.21 11.9938 24.5938 16.232 23.1004 19.9279L22.3828 21.7133ZM2.45978 20.4619H21.5402L21.9406 19.4607C23.2839 16.1319 22.9418 12.3191 21.0229 9.26557C19.1791 6.32885 16.1757 4.51008 12.7884 4.27648C12.2711 4.24311 11.7372 4.24311 11.2032 4.27648C7.81597 4.50174 4.8125 6.32051 2.9687 9.26557C1.04981 12.3191 0.707747 16.1319 2.05097 19.4607L2.45978 20.4619Z" fill="#191A20"/>
</g>
<defs>
<clipPath id="clip0_695_25">
<rect width="24" height="24" fill="white"/>
</clipPath>
</defs>
</svg>
