<svg width="16" height="16" viewBox="0 0 16 16" fill="none" xmlns="http://www.w3.org/2000/svg">
<path fill-rule="evenodd" clip-rule="evenodd" d="M2.58865 1.66417C3.21941 0.989945 4.21111 0.833252 5.47211 0.833252H10.5121C11.7731 0.833252 12.7648 0.989945 13.3956 1.66417C14.0153 2.32653 14.1588 3.35755 14.1588 4.69325V12.2066C14.1588 12.6899 14.0937 13.1179 13.9525 13.4657C13.8107 13.8151 13.5762 14.1175 13.2253 14.269C12.8707 14.4221 12.4909 14.3807 12.1445 14.2313C11.803 14.0841 11.4656 13.8221 11.1405 13.4751L11.1397 13.4741C10.9603 13.2817 10.7563 13.2128 10.5777 13.2225C10.3988 13.2323 10.2031 13.3231 10.0455 13.5331C10.0455 13.5332 10.0456 13.5331 10.0455 13.5331L9.37245 14.4328L9.37079 14.4351C9.02059 14.8977 8.52765 15.1683 7.99545 15.1683C7.46325 15.1683 6.97032 14.8977 6.62011 14.4351L6.61841 14.4328L5.94544 13.5333C5.94537 13.5332 5.94551 13.5333 5.94544 13.5333C5.78787 13.3233 5.59205 13.2323 5.41325 13.2225C5.2346 13.2128 5.03057 13.2817 4.85124 13.4741L4.85039 13.4751C4.52679 13.8206 4.19006 14.0818 3.84856 14.2287C3.50217 14.3776 3.12264 14.4184 2.76801 14.266C2.41694 14.1151 2.18097 13.8137 2.0373 13.4639C1.89432 13.1157 1.82726 12.6869 1.82545 12.2018L1.82544 12.1999V4.69325C1.82544 3.35755 1.96899 2.32653 2.58865 1.66417ZM3.3189 2.34734C2.99523 2.69332 2.82544 3.34229 2.82544 4.69325V12.199C2.82704 12.6035 2.88412 12.8935 2.96233 13.0839C3.0399 13.2729 3.12227 13.3298 3.16287 13.3472C3.1999 13.3631 3.28537 13.3823 3.45356 13.31C3.62665 13.2355 3.85408 13.0759 4.12049 12.7915L4.48543 13.1333L4.11963 12.7924C4.48697 12.3982 4.97294 12.1971 5.46763 12.224C5.96209 12.2509 6.42304 12.5034 6.74545 12.9333L7.41745 13.8315C7.41772 13.8318 7.41799 13.8322 7.41825 13.8325C7.60779 14.0825 7.82119 14.1683 7.99545 14.1683C8.16965 14.1683 8.38305 14.0824 8.57265 13.8325C8.57292 13.8321 8.57319 13.8318 8.57345 13.8315L9.24505 12.9337C9.56745 12.5039 10.0288 12.2509 10.5233 12.224C11.0177 12.1971 11.5034 12.398 11.8707 12.7917C12.1388 13.0779 12.3671 13.2383 12.5405 13.3131C12.7091 13.3858 12.7935 13.3661 12.829 13.3509C12.868 13.334 12.9494 13.2781 13.0259 13.0896C13.1031 12.8995 13.1588 12.61 13.1588 12.2066V4.69325C13.1588 3.34229 12.989 2.69332 12.6653 2.34734C12.3527 2.01323 11.7711 1.83325 10.5121 1.83325H5.47211C4.21311 1.83325 3.63148 2.01323 3.3189 2.34734Z" fill="#191A20"/>
<path fill-rule="evenodd" clip-rule="evenodd" d="M5.66675 6.66675C5.66675 6.39061 5.89061 6.16675 6.16675 6.16675H9.83341C10.1095 6.16675 10.3334 6.39061 10.3334 6.66675C10.3334 6.94288 10.1095 7.16675 9.83341 7.16675H6.16675C5.89061 7.16675 5.66675 6.94288 5.66675 6.66675Z" fill="#191A20"/>
</svg>
