<svg width="20" height="20" viewBox="0 0 20 20" fill="none" xmlns="http://www.w3.org/2000/svg">
<path d="M9.52109 17.1298C8.52791 17.1298 7.53655 17.0552 6.55063 16.904C6.02867 16.8253 5.54477 16.5311 5.18955 16.0775C4.84339 15.6363 4.63135 15.0625 4.59329 14.4619L4.21269 8.38036C4.19457 8.09451 4.38305 7.84802 4.63316 7.8273C4.88326 7.80659 5.09893 8.02201 5.11706 8.30786L5.49765 14.3894C5.54477 15.1558 6.03774 15.7813 6.67025 15.8787C8.56054 16.1666 10.4798 16.1666 12.3701 15.8787C13.0008 15.7813 13.4956 15.1558 13.5427 14.3894L13.9233 8.30786C13.9414 8.02201 14.1571 7.80866 14.4072 7.8273C14.6573 7.84802 14.844 8.09451 14.8277 8.38036L14.4471 14.4619C14.409 15.0625 14.1988 15.6363 13.8508 16.0775C13.4956 16.5311 13.0117 16.8232 12.4897 16.904C11.5056 17.0531 10.5124 17.1298 9.52109 17.1298Z" fill="#ED695F"/>
<path d="M15.5886 6.17215H3.45309C3.20298 6.17215 3 5.94016 3 5.65431C3 5.36847 3.20298 5.13647 3.45309 5.13647H15.5886C15.8387 5.13647 16.0417 5.36847 16.0417 5.65431C16.0417 5.94016 15.8387 6.17215 15.5886 6.17215Z" fill="#ED695F"/>
<path d="M11.9474 6.08678C11.7626 6.08678 11.5886 5.95629 11.5215 5.74501L11.0485 4.25778C10.8165 3.52659 10.2021 3.03361 9.5207 3.03361C8.83925 3.03361 8.22486 3.52452 7.99288 4.25778L7.51986 5.74501C7.43468 6.01429 7.1737 6.15307 6.9399 6.05571C6.7043 5.95836 6.58287 5.66009 6.66805 5.39288L7.14107 3.90565C7.50355 2.7664 8.46047 2 9.5207 2C10.5809 2 11.5379 2.7664 11.9003 3.90565L12.3733 5.39288C12.4585 5.66216 12.3371 5.95836 12.1015 6.05571C12.0526 6.0785 12 6.08678 11.9474 6.08678Z" fill="#ED695F"/>
</svg>
