<svg width="28" height="28" viewBox="0 0 28 28" fill="none" xmlns="http://www.w3.org/2000/svg">
<path d="M14.0917 2.625C8.49931 2.625 3.90192 6.8985 3.45365 12.3472H2.33303C1.97851 12.3472 1.65901 12.5611 1.52398 12.889C1.38895 13.2168 1.46508 13.5936 1.71675 13.8433L3.67653 15.7878C4.01768 16.1262 4.56796 16.1262 4.9091 15.7878L6.86888 13.8433C7.12055 13.5936 7.19668 13.2168 7.06165 12.889C6.92662 12.5611 6.60713 12.3472 6.2526 12.3472H5.21094C5.65395 7.87695 9.45526 4.375 14.0917 4.375C17.3228 4.375 20.1512 6.07652 21.7179 8.62492C21.9709 9.03659 22.5098 9.16516 22.9215 8.91207C23.3332 8.65899 23.4618 8.12008 23.2086 7.70841C21.3346 4.65998 17.9515 2.625 14.0917 2.625ZM24.3143 12.211C23.9735 11.8741 23.4251 11.8741 23.0842 12.211L21.1169 14.1555C20.8645 14.4049 20.7878 14.782 20.9226 15.1103C21.0574 15.4385 21.3771 15.6528 21.732 15.6528H22.7809C22.3361 20.1206 18.5216 23.625 13.8629 23.625C10.6166 23.625 7.77651 21.922 6.20396 19.3738C5.95016 18.9625 5.41106 18.8349 4.99981 19.0888C4.58857 19.3425 4.46093 19.8816 4.71471 20.2929C6.59609 23.3415 9.99108 25.375 13.8629 25.375C19.472 25.375 24.0884 21.1041 24.5383 15.6528H25.6666C26.0214 15.6528 26.341 15.4385 26.4759 15.1103C26.6108 14.782 26.534 14.4049 26.2816 14.1555L24.3143 12.211Z" fill="#4B5563"/>
</svg>
