<svg width="16" height="16" viewBox="0 0 16 16" fill="none" xmlns="http://www.w3.org/2000/svg">
<g clip-path="url(#clip0_1_1333)">
<path d="M14.7281 15.3819C14.6001 15.3819 14.4721 15.3339 14.3741 15.2359L11.4981 12.3579C11.3021 12.1619 11.3021 11.8459 11.4981 11.6499C11.6941 11.4539 12.0101 11.4539 12.2061 11.6499L15.0821 14.5259C15.2781 14.7219 15.2781 15.0379 15.0821 15.2339C14.9841 15.3319 14.8561 15.3819 14.7281 15.3819Z" fill="#B6B6BA"/>
<path d="M7.44999 13.9762C6.45599 13.9762 5.46999 13.7982 4.59999 13.4582C3.65199 13.0882 2.87399 12.5542 2.28799 11.8662C1.18599 10.5722 0.627993 8.59816 0.799993 6.59016C0.873993 5.71016 1.09199 4.85216 1.42799 4.10616C1.79599 3.29216 2.29599 2.61616 2.91399 2.10016C4.04199 1.15816 5.69399 0.618164 7.44799 0.618164C9.20199 0.618164 10.856 1.15816 11.984 2.10016C12.602 2.61616 13.102 3.29016 13.47 4.10416C13.806 4.84816 14.024 5.70816 14.098 6.58816C14.268 8.59816 13.712 10.5702 12.608 11.8662C12.022 12.5542 11.246 13.0882 10.298 13.4582C9.43199 13.7962 8.44599 13.9762 7.44999 13.9762C7.45199 13.9762 7.45199 13.9762 7.44999 13.9762ZM3.05199 11.2182C3.98999 12.3182 5.63399 12.9762 7.45199 12.9762C9.26799 12.9762 10.912 12.3182 11.85 11.2182C12.784 10.1222 13.252 8.42216 13.104 6.67216C12.968 5.07416 12.328 3.68816 11.346 2.86816C9.34399 1.19616 5.55999 1.19616 3.55799 2.86816C2.57599 3.68816 1.93399 5.07616 1.79799 6.67416C1.64999 8.42416 2.11799 10.1222 3.05199 11.2182Z" fill="#B6B6BA"/>
</g>
<defs>
<clipPath id="clip0_1_1333">
<rect width="16" height="16" fill="white"/>
</clipPath>
</defs>
</svg>
