<svg width="24" height="24" viewBox="0 0 24 24" fill="none" xmlns="http://www.w3.org/2000/svg">
<path fill-rule="evenodd" clip-rule="evenodd" d="M13.2138 4.87682C9.54152 5.88791 5.71911 7.24573 4.05313 8.20737C3.65519 8.43709 3.56732 8.59035 3.55163 8.62409C3.55903 8.64999 3.58803 8.71219 3.68912 8.81942C3.87441 9.01595 4.20087 9.24645 4.67124 9.4941C5.13156 9.73646 5.68538 9.97251 6.28616 10.1959C7.48745 10.6425 8.82561 11.0197 9.87194 11.2866C10.3932 11.4195 10.8382 11.5242 11.1523 11.5954C11.3093 11.631 11.4334 11.6582 11.5178 11.6765L11.6137 11.697L11.6377 11.702L11.6446 11.7035C11.9376 11.7641 12.1667 11.993 12.2273 12.286L12.2288 12.2932L12.2339 12.3172L12.2544 12.4131C12.2726 12.4975 12.2998 12.6216 12.3355 12.7786C12.4067 13.0926 12.5113 13.5376 12.6443 14.0589C12.9112 15.1052 13.2884 16.4434 13.735 17.6447C13.9583 18.2455 14.1944 18.7993 14.4368 19.2596C14.6844 19.73 14.9149 20.0564 15.1114 20.2417C15.2187 20.3428 15.2809 20.3718 15.3068 20.3792C15.3405 20.3635 15.4938 20.2756 15.7235 19.8777C16.6851 18.2117 18.0429 14.3893 19.054 10.7171C19.5561 8.89343 19.9634 7.14033 20.1893 5.74908C20.3026 5.05177 20.3672 4.46341 20.3791 4.01106C20.3838 3.83073 20.3798 3.68139 20.3694 3.56142C20.2495 3.55103 20.1001 3.54705 19.9198 3.55177C19.4674 3.56361 18.8791 3.62827 18.1818 3.7415C16.7905 3.96743 15.0374 4.37471 13.2138 4.87682ZM15.321 20.3811C15.321 20.3811 15.3179 20.3819 15.311 20.3803C15.3175 20.3797 15.321 20.3811 15.321 20.3811ZM10.863 13.0679C10.8491 13.0647 10.8349 13.0615 10.8205 13.0582C10.4959 12.9846 10.0377 12.8769 9.5012 12.74C8.43197 12.4673 7.03609 12.075 5.76346 11.6018C5.12728 11.3653 4.50918 11.104 3.97242 10.8214C3.44572 10.5441 2.94996 10.222 2.59772 9.84842C2.24667 9.47608 1.93495 8.93293 2.08941 8.28371C2.23273 7.68135 2.72501 7.24207 3.30324 6.90827C5.14941 5.84262 9.13506 4.444 12.8156 3.43064C14.6683 2.92053 16.4778 2.49857 17.9413 2.2609C18.6715 2.14234 19.3336 2.0666 19.8805 2.05229C20.1541 2.04513 20.4135 2.05286 20.6465 2.0828C20.8704 2.11159 21.1182 2.16661 21.3378 2.2836C21.4694 2.35369 21.5772 2.46141 21.6473 2.59301C21.7642 2.81268 21.8193 3.06047 21.8481 3.28439C21.878 3.51733 21.8857 3.77679 21.8786 4.0503C21.8643 4.59728 21.7885 5.2594 21.67 5.98951C21.4323 7.4531 21.0103 9.26257 20.5002 11.1153C19.4869 14.7958 18.0882 18.7814 17.0226 20.6276C16.6888 21.2058 16.2495 21.6981 15.6471 21.8414C14.9979 21.9959 14.4548 21.6842 14.0824 21.3331C13.7088 20.9809 13.3868 20.4851 13.1095 19.9584C12.8269 19.4217 12.5655 18.8036 12.329 18.1674C11.8559 16.8948 11.4636 15.4989 11.1908 14.4297C11.054 13.8932 10.9463 13.435 10.8726 13.1104C10.8693 13.0959 10.8661 13.0818 10.863 13.0679ZM3.54978 8.60981C3.54978 8.60981 3.55113 8.61336 3.55054 8.61989C3.54894 8.61298 3.54978 8.60981 3.54978 8.60981Z" fill="#191A20"/>
<path fill-rule="evenodd" clip-rule="evenodd" d="M21.5158 2.41499C21.8087 2.70788 21.8087 3.18275 21.5158 3.47565L12.0234 12.968C11.7305 13.2609 11.2557 13.2609 10.9628 12.968C10.6699 12.6751 10.6699 12.2002 10.9628 11.9073L20.4552 2.41499C20.7481 2.12209 21.2229 2.12209 21.5158 2.41499Z" fill="#191A20"/>
</svg>
