<svg width="24" height="24" viewBox="0 0 24 24" fill="none" xmlns="http://www.w3.org/2000/svg">
<path fill-rule="evenodd" clip-rule="evenodd" d="M12 8.25C9.92895 8.25 8.25 9.92895 8.25 12C8.25 14.0711 9.92895 15.75 12 15.75C14.0711 15.75 15.75 14.0711 15.75 12C15.75 9.92895 14.0711 8.25 12 8.25ZM9.75 12C9.75 10.7573 10.7574 9.75 12 9.75C13.2427 9.75 14.25 10.7573 14.25 12C14.25 13.2427 13.2427 14.25 12 14.25C10.7574 14.25 9.75 13.2427 9.75 12Z" fill="#191A20"/>
<path fill-rule="evenodd" clip-rule="evenodd" d="M11.2495 2.25C10.0068 2.25 8.99946 3.25736 8.99946 4.5V5.60085C8.99946 5.7809 8.88058 6.00484 8.62108 6.15514C8.36586 6.30293 8.11723 6.29448 7.95816 6.20263L7.00429 5.65192C5.92813 5.0306 4.55205 5.39932 3.93073 6.47548L3.18073 7.7745C2.5594 8.85068 2.92813 10.2268 4.00429 10.8481L4.95818 11.3988C5.11636 11.4901 5.24945 11.7035 5.24945 12C5.24945 12.2965 5.11636 12.5098 4.95819 12.6012L4.00428 13.1519C2.92813 13.7732 2.5594 15.1493 3.18073 16.2255L3.93073 17.5245C4.55205 18.6007 5.92813 18.9694 7.00428 18.3481L7.95816 17.7973C8.11723 17.7055 8.36586 17.6971 8.62108 17.8448C8.88058 17.9951 8.99946 18.2191 8.99946 18.3992V19.5C8.99946 20.7427 10.0068 21.75 11.2495 21.75H12.7495C13.9921 21.75 14.9995 20.7427 14.9995 19.5V18.3992C14.9995 18.2191 15.1183 17.9951 15.3778 17.8448C15.6331 17.6971 15.8817 17.7055 16.0408 17.7973L16.9947 18.3481C18.0708 18.9694 19.4469 18.6007 20.0683 17.5245L20.8183 16.2255C21.4396 15.1493 21.0709 13.7732 19.9947 13.1519L19.0407 12.6011C18.8825 12.5099 18.7495 12.2965 18.7495 12C18.7495 11.7035 18.8825 11.4901 19.0407 11.3989L19.9947 10.8481C21.0709 10.2268 21.4396 8.85068 20.8183 7.7745L20.0683 6.47548C19.4469 5.39932 18.0709 5.0306 16.9947 5.65192L16.0408 6.20263C15.8817 6.29449 15.6331 6.30294 15.3778 6.15514C15.1183 6.00484 14.9995 5.78089 14.9995 5.60084V4.5C14.9995 3.25736 13.9921 2.25 12.7495 2.25H11.2495ZM10.4995 4.5C10.4995 4.08579 10.8352 3.75 11.2495 3.75H12.7495C13.1637 3.75 13.4995 4.08579 13.4995 4.5V5.60084C13.4995 6.43054 14.0119 7.09745 14.6261 7.45319C15.2455 7.81185 16.0747 7.91512 16.7908 7.50165L17.7447 6.95095C18.1034 6.74385 18.5621 6.86675 18.7692 7.22548L19.5192 8.5245C19.7263 8.88322 19.6034 9.34193 19.2447 9.549L18.2907 10.0998C17.574 10.5136 17.2495 11.2863 17.2495 12C17.2495 12.7136 17.574 13.4864 18.2907 13.9002L19.2447 14.4509C19.6034 14.6581 19.7263 15.1168 19.5192 15.4755L18.7692 16.7745C18.5621 17.1332 18.1034 17.2562 17.7447 17.049L16.7908 16.4984C16.0747 16.0849 15.2455 16.1882 14.6261 16.5468C14.0119 16.9025 13.4995 17.5695 13.4995 18.3992V19.5C13.4995 19.9142 13.1637 20.25 12.7495 20.25H11.2495C10.8352 20.25 10.4995 19.9142 10.4995 19.5V18.3992C10.4995 17.5695 9.98706 16.9025 9.37281 16.5468C8.75346 16.1882 7.92426 16.0849 7.20813 16.4984L6.25428 17.049C5.89556 17.2562 5.43687 17.1332 5.22976 16.7745L4.47976 15.4755C4.27266 15.1168 4.39556 14.6581 4.75428 14.4509L5.70819 13.9002C6.42491 13.4864 6.74945 12.7137 6.74945 12C6.74945 11.2863 6.42491 10.5136 5.70818 10.0998L4.75429 9.549C4.39556 9.34193 4.27266 8.88322 4.47976 8.5245L5.22976 7.22548C5.43687 6.86675 5.89556 6.74385 6.25429 6.95095L7.20814 7.50165C7.92426 7.91512 8.75346 7.81185 9.37281 7.45318C9.98706 7.09744 10.4995 6.43054 10.4995 5.60085V4.5Z" fill="#191A20"/>
</svg>
