<svg width="32" height="32" viewBox="0 0 32 32" fill="none" xmlns="http://www.w3.org/2000/svg">
<g clip-path="url(#clip0_7_695)">
<path d="M26.576 6.23067C26.565 6.16233 26.5314 6.09963 26.4807 6.05253C26.43 6.00543 26.365 5.97662 26.296 5.97067L23.72 5.77867L21.824 3.89467C21.636 3.70667 21.2707 3.764 21.128 3.80533L20.172 4.1C19.6013 2.45867 18.5947 0.949333 16.8227 0.949333C16.7733 0.949333 16.724 0.950667 16.6733 0.954667C16.1707 0.289333 15.5467 0 15.0067 0C10.88 0 8.908 5.15867 8.29066 7.78133C6.68666 8.27733 5.548 8.63067 5.40266 8.67733C4.50666 8.95733 4.47866 8.98533 4.36133 9.82933C4.272 10.468 1.93066 28.58 1.93066 28.58L20.1813 32L30.0707 29.8613L26.576 6.23067ZM19.164 4.41333L17.62 4.89067L17.6213 4.55733C17.6213 3.53733 17.48 2.71467 17.252 2.064C18.1653 2.18 18.7733 3.21867 19.164 4.41333ZM16.12 2.268C16.3733 2.904 16.5387 3.816 16.5387 5.048L16.5373 5.22667L13.348 6.21467C13.9627 3.844 15.1133 2.7 16.12 2.268ZM14.8933 1.10667C15.072 1.10667 15.2507 1.16667 15.4227 1.28533C14.1 1.908 12.6827 3.47467 12.084 6.60533L9.56266 7.38667C10.264 4.99867 11.9293 1.10667 14.8933 1.10667Z" fill="#95BF46"/>
<path d="M26.2976 5.97077L23.7216 5.77877L21.8256 3.89477C21.7523 3.82802 21.6601 3.78564 21.5616 3.77344L20.1816 32.0001L30.0696 29.8614C30.0696 29.8614 26.5976 6.3921 26.5763 6.23077C26.5656 6.16254 26.5323 6.09988 26.4818 6.05276C26.4313 6.00564 26.3664 5.97678 26.2976 5.97077Z" fill="#5E8E3E"/>
<path d="M16.8237 11.4347L15.605 15.0614C15.605 15.0614 14.537 14.4907 13.2277 14.4907C11.3077 14.4907 11.2117 15.6961 11.2117 15.9987C11.2117 17.6547 15.5304 18.2894 15.5304 22.1707C15.5304 25.2241 13.5944 27.1894 10.9837 27.1894C7.85036 27.1894 6.24902 25.2401 6.24902 25.2401L7.08769 22.4681C7.08769 22.4681 8.73436 23.8814 10.1237 23.8814C11.0317 23.8814 11.401 23.1667 11.401 22.6441C11.401 20.4827 7.85836 20.3867 7.85836 16.8361C7.85836 13.8481 10.0037 10.9561 14.333 10.9561C15.9997 10.9574 16.8237 11.4347 16.8237 11.4347Z" fill="white"/>
</g>
<defs>
<clipPath id="clip0_7_695">
<rect width="32" height="32" fill="white"/>
</clipPath>
</defs>
</svg>
