<svg width="32" height="32" viewBox="0 0 32 32" fill="none" xmlns="http://www.w3.org/2000/svg">
<g clip-path="url(#clip0_7_706)">
<path d="M11.7331 0C9.96578 0 8.5333 1.43287 8.5333 3.19989C8.53288 3.61969 8.61531 4.03545 8.77588 4.42346C8.93646 4.81146 9.17203 5.16409 9.46916 5.46123C9.76629 5.75837 10.1191 5.99419 10.5076 6.15523C10.896 6.31626 11.3125 6.39936 11.7331 6.39979H14.9334V3.19989C14.9341 2.35203 14.5974 1.5386 13.9972 0.938523C13.397 0.338442 12.5826 0.000850402 11.7331 0ZM11.7331 8.53305H3.19979C1.43248 8.53305 0 9.96591 0 11.7335C0 13.5005 1.43248 14.9334 3.19979 14.9334H11.7336C13.5004 14.9334 14.9334 13.5005 14.9334 11.7335C14.9334 9.96591 13.5004 8.53305 11.7331 8.53305Z" fill="#36C5F0"/>
<path d="M31.9998 11.7335C31.9998 9.96591 30.5668 8.53305 28.7995 8.53305C27.0322 8.53305 25.5997 9.96591 25.5997 11.7335V14.9334H28.7995C29.649 14.9325 30.4634 14.5949 31.0636 13.9948C31.6638 13.3948 32.0005 12.5813 31.9998 11.7335ZM23.4665 11.7335V3.19989C23.4672 2.35203 23.1305 1.5386 22.5303 0.938523C21.9301 0.338442 21.1157 0.000850402 20.2662 0C18.4989 0 17.0664 1.43287 17.0664 3.19989V11.7329C17.0664 13.501 18.4989 14.9339 20.2662 14.9339C21.1157 14.9331 21.9301 14.5955 22.5303 13.9954C23.1305 13.3953 23.4672 12.5813 23.4665 11.7335Z" fill="#2EB67D"/>
<path d="M20.2662 31.9998C21.1157 31.9989 21.9301 31.6613 22.5303 31.0613C23.1305 30.4612 23.4672 29.6477 23.4665 28.7999C23.4672 27.952 23.1305 27.1386 22.5303 26.5385C21.9301 25.9384 21.1157 25.6008 20.2662 25.6H17.0664V28.7999C17.0664 30.5669 18.4989 31.9998 20.2662 31.9998ZM20.2662 23.4667H28.8C30.5668 23.4667 31.9998 22.0339 31.9998 20.2663C32.0005 19.4184 31.6638 18.605 31.0636 18.0049C30.4634 17.4048 29.649 17.0673 28.7995 17.0664H20.2662C18.4989 17.0664 17.0664 18.4993 17.0664 20.2663C17.066 20.6861 17.1484 21.1019 17.309 21.4899C17.4696 21.8779 17.7051 22.2305 18.0023 22.5276C18.2994 22.8248 18.6523 23.0606 19.0407 23.2216C19.4291 23.3827 19.8456 23.4663 20.2662 23.4667Z" fill="#ECB22E"/>
<path d="M1.61453e-06 20.2663C-0.000420699 20.6861 0.0820092 21.1019 0.242585 21.4899C0.403161 21.8779 0.638738 22.2305 0.935865 22.5276C1.23299 22.8248 1.58585 23.0606 1.9743 23.2216C2.36274 23.3827 2.77916 23.4658 3.19979 23.4662C4.04932 23.4653 4.86374 23.1278 5.4639 22.5277C6.06406 21.9276 6.40082 21.1142 6.40011 20.2663V17.0664H3.19979C1.43249 17.0664 1.61453e-06 18.4993 1.61453e-06 20.2663ZM8.5333 20.2663V28.7993C8.5333 30.5669 9.96578 31.9998 11.7331 31.9998C12.5826 31.9989 13.397 31.6613 13.9972 31.0613C14.5974 30.4612 14.9341 29.6477 14.9334 28.7999V20.2663C14.9338 19.8465 14.8514 19.4306 14.6908 19.0426C14.5302 18.6546 14.2945 18.3019 13.9974 18.0048C13.7002 17.7076 13.3472 17.4718 12.9587 17.3108C12.5702 17.1498 12.1538 17.0668 11.7331 17.0664C9.96578 17.0664 8.5333 18.4993 8.5333 20.2663Z" fill="#E01E5A"/>
</g>
<defs>
<clipPath id="clip0_7_706">
<rect width="32" height="32" fill="white"/>
</clipPath>
</defs>
</svg>
