<svg width="28" height="28" viewBox="0 0 28 28" fill="none" xmlns="http://www.w3.org/2000/svg">
<path d="M10.6179 24.0561C8.49011 24.0561 6.75417 22.3243 6.75417 20.1923C6.75417 18.0603 8.4859 16.3286 10.6179 16.3286C12.7457 16.3286 14.4816 18.0603 14.4816 20.1923C14.4816 22.3243 12.7499 24.0561 10.6179 24.0561ZM10.6179 18.4395C9.64881 18.4395 8.8609 19.2275 8.8609 20.1966C8.8609 21.1656 9.64881 21.9536 10.6179 21.9536C11.587 21.9536 12.3749 21.1656 12.3749 20.1966C12.3749 19.2275 11.587 18.4395 10.6179 18.4395ZM16.2387 12.8188C14.1109 12.8188 12.3749 11.0871 12.3749 8.95505C12.3749 6.82725 14.1067 5.09131 16.2387 5.09131C18.3707 5.09131 20.1024 6.82304 20.1024 8.95505C20.0982 11.0871 18.3665 12.8188 16.2387 12.8188ZM16.2387 7.20225C15.2696 7.20225 14.4816 7.99017 14.4816 8.95926C14.4816 9.92836 15.2696 10.7163 16.2387 10.7163C17.2078 10.7163 17.9957 9.92836 17.9957 8.95926C17.9915 7.99017 17.2035 7.20225 16.2387 7.20225ZM23.2583 21.2457H16.2387C15.6572 21.2457 15.1853 20.7738 15.1853 20.1923C15.1853 19.6109 15.6572 19.139 16.2387 19.139H23.2625C23.844 19.139 24.3159 19.6109 24.3159 20.1923C24.3159 20.7738 23.8397 21.2457 23.2583 21.2457ZM10.6179 10.0126H3.59829C3.01683 10.0126 2.54492 9.54072 2.54492 8.95926C2.54492 8.37781 3.01683 7.9059 3.59829 7.9059H10.6221C11.2036 7.9059 11.6755 8.37781 11.6755 8.95926C11.6755 9.54072 11.1994 10.0126 10.6179 10.0126ZM5.00137 21.2457H3.59829C3.01683 21.2457 2.54492 20.7738 2.54492 20.1923C2.54492 19.6109 3.01683 19.139 3.59829 19.139H5.00137C5.58283 19.139 6.05473 19.6109 6.05473 20.1923C6.05473 20.7738 5.58283 21.2457 5.00137 21.2457ZM23.2583 10.0126H21.8552C21.2737 10.0126 20.8018 9.54072 20.8018 8.95926C20.8018 8.37781 21.2737 7.9059 21.8552 7.9059H23.2583C23.8397 7.9059 24.3116 8.37781 24.3116 8.95926C24.3116 9.54072 23.8397 10.0126 23.2583 10.0126Z" fill="#4B5563"/>
</svg>
