<svg width="24" height="24" viewBox="0 0 24 24" fill="none" xmlns="http://www.w3.org/2000/svg">
<path d="M12.5303 3.21967C12.2375 2.92678 11.7626 2.92678 11.4697 3.21967L6.69672 7.99268C6.40383 8.28555 6.40383 8.76038 6.69672 9.05333C6.98962 9.3462 7.46449 9.3462 7.75735 9.05333L11.25 5.56066V15.75C11.25 16.1642 11.5858 16.5 12 16.5C12.4142 16.5 12.75 16.1642 12.75 15.75V5.56066L16.2427 9.05333C16.5356 9.3462 17.0104 9.3462 17.3033 9.05333C17.5962 8.76038 17.5962 8.28555 17.3033 7.99268L12.5303 3.21967Z" fill="#4B5563"/>
<path d="M5.25 15.75C5.25 15.3358 4.91421 15 4.5 15C4.08579 15 3.75 15.3358 3.75 15.75V18C3.75 19.6568 5.09314 21 6.75 21H17.25C18.9068 21 20.25 19.6568 20.25 18V15.75C20.25 15.3358 19.9142 15 19.5 15C19.0858 15 18.75 15.3358 18.75 15.75V18C18.75 18.8284 18.0785 19.5 17.25 19.5H6.75C5.92157 19.5 5.25 18.8284 5.25 18V15.75Z" fill="#4B5563"/>
</svg>
