<svg width="14" height="14" viewBox="0 0 14 14" fill="none" xmlns="http://www.w3.org/2000/svg">
<path fill-rule="evenodd" clip-rule="evenodd" d="M4.74877 9.32422C4.174 9.67731 3.91799 10.0948 3.91799 10.451C3.91799 10.6217 3.97339 10.746 4.07731 10.8538C4.1916 10.9725 4.38041 11.0859 4.66281 11.1806C5.23204 11.3715 6.04858 11.4439 6.98402 11.4439C7.92394 11.4439 8.73997 11.3689 9.30737 11.176C9.58878 11.0803 9.77684 10.9661 9.89071 10.8467C9.99454 10.7379 10.05 10.6125 10.05 10.4411C10.05 10.087 9.79353 9.67183 9.21667 9.32031C8.65299 8.97691 7.85762 8.74771 6.98402 8.74771C6.10558 8.74771 5.31075 8.97901 4.74877 9.32422ZM4.29078 8.57866C5.00555 8.13959 5.96248 7.87271 6.98402 7.87271C7.99978 7.87271 8.95615 8.13702 9.6719 8.57306C10.3744 9.00106 10.925 9.65136 10.925 10.4411C10.925 10.8417 10.78 11.1823 10.5237 11.4508C10.2776 11.7087 9.94601 11.8831 9.58907 12.0044C8.87968 12.2457 7.94395 12.3189 6.98402 12.3189C6.02998 12.3189 5.09477 12.2484 4.38461 12.0102C4.02731 11.8904 3.69451 11.7177 3.44712 11.4609C3.18935 11.1933 3.04299 10.8527 3.04299 10.451C3.04299 9.66279 3.58877 9.00986 4.29078 8.57866ZM4.30067 4.43247C4.301 2.95097 5.50241 1.74976 6.98402 1.74976C8.4658 1.74976 9.66735 2.9513 9.66735 4.43309C9.66735 5.91505 8.46563 7.11584 6.98402 7.11584H6.96827H6.96681C5.48895 7.11094 4.29682 5.90881 4.30067 4.43247ZM4.30067 4.43247C4.30067 4.43227 4.30067 4.43206 4.30067 4.43185L4.73817 4.43309H4.30067C4.30067 4.43289 4.30067 4.43268 4.30067 4.43247ZM6.98402 2.62476C5.98547 2.62476 5.17567 3.43455 5.17567 4.43309V4.43433C5.17285 5.42849 5.9752 6.23716 6.96897 6.24084H6.98402C7.98268 6.24084 8.79235 5.43148 8.79235 4.43309C8.79235 3.43455 7.98257 2.62476 6.98402 2.62476ZM10.1858 2.6824C10.2341 2.44566 10.4652 2.29294 10.702 2.3413C11.6731 2.53964 12.4024 3.39833 12.4024 4.4272C12.4024 5.41385 11.7322 6.24142 10.8244 6.48432C10.5909 6.5468 10.3511 6.4082 10.2887 6.17481C10.2262 5.94136 10.3648 5.70152 10.5982 5.63907C11.1335 5.49584 11.5274 5.00738 11.5274 4.4272C11.5274 3.82156 11.0981 3.31525 10.5269 3.1986C10.2902 3.15025 10.1375 2.91914 10.1858 2.6824ZM10.6126 7.90083C10.6126 7.65921 10.8085 7.46333 11.0501 7.46333C11.6576 7.46333 12.221 7.66802 12.639 7.97071C13.0409 8.2618 13.3846 8.70501 13.3846 9.21391C13.3846 9.80139 12.9234 10.3599 12.2882 10.509C12.053 10.5642 11.8175 10.4183 11.7623 10.1831C11.7071 9.94781 11.853 9.71237 12.0883 9.65713C12.3678 9.59156 12.5096 9.35561 12.5096 9.21391C12.5096 9.10331 12.4165 8.88999 12.1258 8.67941C11.8509 8.48043 11.4659 8.33833 11.0501 8.33833C10.8085 8.33833 10.6126 8.14245 10.6126 7.90083ZM3.78213 2.68234C3.83051 2.91907 3.67783 3.1502 3.4411 3.19859C2.87032 3.31525 2.44057 3.8217 2.44057 4.4272C2.44057 5.0073 2.83438 5.49577 3.37024 5.63904C3.60367 5.70145 3.74231 5.9413 3.67989 6.17469C3.61748 6.40814 3.37766 6.54674 3.14424 6.48432C2.23577 6.24148 1.56557 5.41393 1.56557 4.4272C1.56557 3.39819 2.2955 2.53965 3.26588 2.34131C3.50261 2.29292 3.73374 2.44561 3.78213 2.68234ZM1.32889 7.97071C1.74683 7.66802 2.31024 7.46333 2.91769 7.46333C3.15932 7.46333 3.35519 7.65921 3.35519 7.90083C3.35519 8.14245 3.15932 8.33833 2.91769 8.33833C2.50198 8.33833 2.11689 8.48043 1.84212 8.67941C1.55135 8.88999 1.45819 9.10331 1.45819 9.21391C1.45819 9.35549 1.59993 9.59145 1.88003 9.65713C2.11528 9.71226 2.26129 9.94769 2.20615 10.1829C2.15101 10.4181 1.9156 10.5642 1.68035 10.509C1.04463 10.36 0.583191 9.80151 0.583191 9.21391C0.583191 8.70501 0.926952 8.2618 1.32889 7.97071Z" fill="#4B5563"/>
</svg>
