<svg width="24" height="24" viewBox="0 0 24 24" fill="none" xmlns="http://www.w3.org/2000/svg">
<path fill-rule="evenodd" clip-rule="evenodd" d="M8.14098 15.9843C7.15567 16.5896 6.71679 17.3053 6.71679 17.916C6.71679 18.2085 6.81177 18.4216 6.98991 18.6065C7.18584 18.8099 7.50951 19.0043 7.99363 19.1667C8.96945 19.4939 10.3692 19.618 11.9728 19.618C13.5841 19.618 14.983 19.4895 15.9557 19.1588C16.4381 18.9948 16.7605 18.7989 16.9557 18.5943C17.1337 18.4078 17.2288 18.1928 17.2288 17.899C17.2288 17.2919 16.7891 16.5802 15.8002 15.9776C14.8339 15.3889 13.4704 14.996 11.9728 14.996C10.4669 14.996 9.10439 15.3925 8.14098 15.9843ZM7.35586 14.7062C8.58119 13.9535 10.2216 13.496 11.9728 13.496C13.7141 13.496 15.3536 13.9491 16.5806 14.6966C17.7849 15.4303 18.7288 16.5451 18.7288 17.899C18.7288 18.5857 18.4802 19.1696 18.0409 19.6299C17.619 20.072 17.0505 20.3709 16.4386 20.5789C15.2225 20.9925 13.6184 21.118 11.9728 21.118C10.3373 21.118 8.73413 20.9971 7.51671 20.5888C6.9042 20.3834 6.33368 20.0874 5.90958 19.6472C5.46769 19.1884 5.21679 18.6045 5.21679 17.916C5.21679 16.5647 6.15241 15.4454 7.35586 14.7062ZM7.37281 7.59845C7.37339 5.05873 9.43295 2.99951 11.9728 2.99951C14.513 2.99951 16.5728 5.0593 16.5728 7.59951C16.5728 10.14 14.5127 12.1985 11.9728 12.1985H11.9458H11.9433C9.40986 12.1901 7.36622 10.1293 7.37281 7.59845ZM7.37281 7.59845C7.37282 7.5981 7.37282 7.59774 7.37282 7.59739L8.12281 7.59951H7.37281C7.37281 7.59916 7.37281 7.5988 7.37281 7.59845ZM11.9728 4.49951C10.261 4.49951 8.87281 5.88773 8.87281 7.59951V7.60164C8.86798 9.30591 10.2434 10.6922 11.947 10.6985H11.9728C13.6848 10.6985 15.0728 9.31104 15.0728 7.59951C15.0728 5.88773 13.6846 4.49951 11.9728 4.49951ZM17.4616 4.59833C17.5444 4.19249 17.9406 3.93069 18.3465 4.01358C20.0113 4.3536 21.2614 5.82564 21.2614 7.58941C21.2614 9.28082 20.1126 10.6995 18.5563 11.1159C18.1561 11.223 17.745 10.9854 17.6379 10.5853C17.5308 10.1851 17.7684 9.77397 18.1685 9.6669C19.0862 9.42136 19.7614 8.584 19.7614 7.58941C19.7614 6.55118 19.0255 5.68322 18.0463 5.48324C17.6405 5.40035 17.3787 5.00417 17.4616 4.59833ZM18.1933 13.5442C18.1933 13.13 18.5291 12.7942 18.9433 12.7942C19.9847 12.7942 20.9505 13.1451 21.667 13.664C22.356 14.163 22.9453 14.9228 22.9453 15.7952C22.9453 16.8023 22.1546 17.7598 21.0657 18.0154C20.6624 18.11 20.2588 17.8598 20.1642 17.4566C20.0695 17.0533 20.3197 16.6497 20.723 16.555C21.2021 16.4426 21.4453 16.0381 21.4453 15.7952C21.4453 15.6056 21.2856 15.2399 20.7872 14.8789C20.3161 14.5378 19.656 14.2942 18.9433 14.2942C18.5291 14.2942 18.1933 13.9584 18.1933 13.5442ZM6.48389 4.59822C6.56683 5.00404 6.30509 5.40027 5.89927 5.48322C4.92078 5.68321 4.18408 6.55142 4.18408 7.58941C4.18408 8.58387 4.85917 9.42125 5.7778 9.66686C6.17796 9.77385 6.41562 10.185 6.30863 10.5851C6.20164 10.9853 5.79052 11.2229 5.39036 11.1159C3.83299 10.6996 2.68408 9.28095 2.68408 7.58941C2.68408 5.8254 3.93538 4.35361 5.59889 4.0136C6.00471 3.93065 6.40094 4.1924 6.48389 4.59822ZM2.27833 13.664C2.9948 13.1451 3.96065 12.7942 5.002 12.7942C5.41621 12.7942 5.752 13.13 5.752 13.5442C5.752 13.9584 5.41621 14.2942 5.002 14.2942C4.28934 14.2942 3.62919 14.5378 3.15816 14.8789C2.65969 15.2399 2.5 15.6056 2.5 15.7952C2.5 16.0379 2.74297 16.4424 3.22315 16.555C3.62644 16.6495 3.87673 17.0531 3.78221 17.4564C3.68768 17.8596 3.28412 18.1099 2.88084 18.0154C1.79103 17.76 1 16.8025 1 15.7952C1 14.9228 1.5893 14.163 2.27833 13.664Z" fill="#191A20"/>
</svg>
