<svg width="17" height="17" viewBox="0 0 17 17" fill="none" xmlns="http://www.w3.org/2000/svg">
<g clip-path="url(#clip0_3_9919)">
<path fill-rule="evenodd" clip-rule="evenodd" d="M5.03088 8.81744C4.75645 8.3204 4.6164 7.85411 4.6164 7.42102C4.6164 6.92882 4.74755 6.51516 5.00497 6.15492C5.08509 6.04172 5.17502 5.9358 5.27374 5.8384L5.31259 5.79792L5.31907 5.79144L5.31097 5.79873L5.32231 5.78821C5.39644 5.707 5.48637 5.64177 5.5866 5.59654C5.68682 5.5513 5.79522 5.52699 5.90516 5.52511C6.07112 5.52511 6.18445 5.52673 6.28321 5.53159H6.32126C6.53578 5.53159 6.64993 5.60283 6.76893 5.84568L6.7835 5.87563L6.79969 5.91125L7.06359 6.53216C7.27245 7.02435 7.37283 7.25668 7.3955 7.30121C7.47645 7.45663 7.48131 7.57887 7.41169 7.71406L7.38336 7.76911L7.35259 7.82982C7.31299 7.90811 7.26317 7.98079 7.20445 8.04597L7.1065 8.16011C7.02555 8.25563 6.98669 8.30016 6.95269 8.33578L6.76083 8.53816L6.91059 8.77373C7.18826 9.21087 7.52583 9.61321 7.90226 9.93863C8.21474 10.2074 8.53369 10.4243 8.8745 10.5992C8.99755 10.6632 9.24283 10.7724 9.43307 10.8542L9.66378 10.953L9.83136 10.7643C10.0588 10.5085 10.2928 10.2284 10.3786 10.1046C10.517 9.90382 10.6328 9.8763 10.9185 9.97668C11.0481 10.0228 11.7143 10.3304 12.2583 10.5935L12.417 10.668C12.4761 10.6963 12.5109 10.7142 12.5424 10.7328C12.6072 10.7716 12.642 10.804 12.6687 10.8461C12.7481 10.974 12.7197 11.3958 12.5635 11.8208C12.417 12.2166 11.7103 12.6959 11.1776 12.7728C10.7097 12.8408 10.3138 12.8181 9.91312 12.6951C9.53341 12.5819 9.15996 12.4487 8.79436 12.296C8.13055 12.0183 7.48535 11.5957 6.86445 11.038C6.37023 10.5932 5.92316 10.0987 5.53035 9.56221L5.42835 9.42459C5.28027 9.23285 5.14738 9.02985 5.03088 8.81744ZM2.54564 14.88L5.03978 14.1312C6.37439 15.032 7.99672 15.4034 9.59033 15.1729C11.1839 14.9423 12.6345 14.1264 13.6591 12.8842C14.6836 11.642 15.2087 10.0627 15.1319 8.45437C15.0551 6.84601 14.3818 5.32395 13.2435 4.18511C12.1052 3.04626 10.5834 2.37232 8.97511 2.29473C7.36678 2.21715 5.78723 2.7415 4.54459 3.76549C3.30194 4.78949 2.48533 6.23968 2.25404 7.83318C2.02276 9.42667 2.39339 11.0492 3.29364 12.3842L2.54564 14.88ZM1.53697 12.606C0.899448 11.4256 0.566658 10.1048 0.568783 8.76321C0.568783 4.29221 4.19302 0.667969 8.66402 0.667969C13.1342 0.667969 16.7593 4.29221 16.7593 8.76321C16.7593 13.2342 13.1342 16.8584 8.66402 16.8584C7.32123 16.8606 5.99918 16.5272 4.81797 15.8886L1.71507 16.8196C1.56102 16.8659 1.39731 16.8696 1.24132 16.8303C1.08534 16.791 0.942915 16.7102 0.829174 16.5964C0.715433 16.4827 0.634624 16.3403 0.595333 16.1843C0.556042 16.0283 0.559736 15.8646 0.606021 15.7105L1.53697 12.606Z" fill="#70C567"/>
</g>
<defs>
<clipPath id="clip0_3_9919">
<rect width="17" height="17" fill="white"/>
</clipPath>
</defs>
</svg>
