<svg width="32" height="32" viewBox="0 0 32 32" fill="none" xmlns="http://www.w3.org/2000/svg">
<g clip-path="url(#clip0_7_700)">
<path d="M16 0C7.16343 0 0 7.16343 0 16C0 24.8366 7.16343 32 16 32C24.8366 32 32 24.8366 32 16C32 7.16343 24.8366 0 16 0ZM16 31.2949C7.56686 31.2949 0.705143 24.4331 0.705143 16C0.705143 7.56686 7.56686 0.705143 16 0.705143C24.4331 0.705143 31.2949 7.56686 31.2949 16C31.2949 24.4331 24.4331 31.2949 16 31.2949Z" fill="#3F7596"/>
<path d="M7.2944 8.40438C8.67154 8.31638 9.23154 8.21923 9.40983 8.42609C9.63383 8.68666 9.66354 9.29695 9.27726 9.39523C8.89211 9.49466 7.50354 9.56095 7.50354 9.56095L12.539 24.5141L15.5733 15.5152L13.3984 9.57924C13.3984 9.57924 12.003 9.43981 11.8487 9.43295C11.6944 9.42609 11.4075 9.16095 11.4521 8.76438C11.4967 8.36781 11.739 8.30152 11.9664 8.30152C12.1938 8.30152 15.3378 8.46038 16.1173 8.45581C17.3218 8.44895 19.1584 8.28666 19.4967 8.28666C19.835 8.28666 19.9961 8.65352 19.9813 8.78609C19.9664 8.91866 19.9813 9.34495 19.4967 9.40323C19.0121 9.46152 17.9104 9.56438 17.9104 9.56438L22.8544 24.3598C22.8544 24.3598 25.1458 17.8147 25.235 16.3381C25.3241 14.8615 25.2133 13.4295 24.5081 12.1507C23.803 10.8718 22.2384 8.97695 22.987 7.27981C23.5573 5.98952 24.6807 5.78381 25.4853 5.88781C22.9995 3.55638 19.6681 2.11523 15.9995 2.11523C11.1241 2.11523 6.83611 4.64666 4.3584 8.45695C5.03954 8.46609 6.2544 8.47066 7.2944 8.40438ZM28.0967 9.20781C28.2613 10.4821 28.2795 12.4832 27.475 14.8981C26.3847 18.1667 23.9698 25.0478 22.9241 28.0169C27.0773 25.6147 29.8853 21.1335 29.8853 15.9998C29.8841 13.5324 29.2293 11.2181 28.0967 9.20781Z" fill="#3F7596"/>
<path d="M16.2204 17.2776L12.0547 29.305C13.3061 29.6764 14.6284 29.8844 15.9998 29.8844C17.5941 29.8844 19.1198 29.601 20.5472 29.1039L16.2204 17.2776ZM3.32438 10.3599C2.55295 12.0856 2.11523 13.9907 2.11523 15.9999C2.11523 21.4753 5.30952 26.2067 9.92438 28.465L3.32438 10.3599Z" fill="#3F7596"/>
</g>
<defs>
<clipPath id="clip0_7_700">
<rect width="32" height="32" fill="white"/>
</clipPath>
</defs>
</svg>
