<svg xmlns="http://www.w3.org/2000/svg" enable-background="new 0 0 256 256" viewBox="0 0 256 256" id="xlsx">
  <path fill="#939598" d="M206.473,225.394H67.879c-2.209,0-4-1.791-4-4V40.926c0-2.209,1.791-4,4-4h138.594c2.209,0,4,1.791,4,4
						v180.468C210.473,223.603,208.682,225.394,206.473,225.394z"></path>
  <path fill="#F1F2F2" d="M149.868,27.631H58.583c-2.209,0-4,1.791-4,4v180.468c0,2.209,1.791,4,4,4h138.594
							c2.209,0,4-1.791,4-4V77.282L149.868,27.631z"></path>
  <path fill="#FFF" d="M60.58,198.16c-1.101,0-2-0.9-2-2V33.63c0-0.52,0.22-1.04,0.59-1.41c0.37-0.38,0.89-0.59,1.41-0.59
								h57.479c1.101,0,2,0.9,2,2s-0.899,2-2,2H62.58v160.53C62.58,197.26,61.689,198.16,60.58,198.16z M126.06,35.63
								c-1.109,0-2-0.9-2-2s0.891-2,2-2c1.101,0,2,0.9,2,2S127.16,35.63,126.06,35.63z"></path>
  <path fill="#E6E7E8" d="M191.178,67.605v134.494c0,2.209-1.791,4-4,4H54.583v6c0,2.209,1.791,4,4,4h138.594
							c2.209,0,4-1.791,4-4V77.282L191.178,67.605z"></path>
  <path fill="#D1D3D4" d="M196.178,72.444v134.655c0,2.209-1.791,4-4,4H54.583v1c0,2.209,1.791,4,4,4h138.594
							c2.209,0,4-1.791,4-4V77.282L196.178,72.444z"></path>
  <g>
    <path fill="#D1D3D4" d="M149.867,73.533c0,2.071,1.679,3.749,3.749,3.749h47.561l-51.31-49.651V73.533z"></path>
  </g>
  <g>
    <path fill="#76A34F" d="M131.499,77.282H41.038c-2.209,0-4-1.791-4-4V45.574c0-2.209,1.791-4,4-4h90.461c2.209,0,4,1.791,4,4
				v27.708C135.499,75.491,133.708,77.282,131.499,77.282z"></path>
  </g>
  <g>
    <path fill="#91B56B" d="M99.687 108.638H69.853c-1.105 0-2-.895-2-2V89.146c0-1.105.895-2 2-2h29.834c1.105 0 2 .895 2 2v17.492C101.687 107.743 100.792 108.638 99.687 108.638zM141.581 108.638h-29.834c-1.105 0-2-.895-2-2V89.146c0-1.105.895-2 2-2h29.834c1.105 0 2 .895 2 2v17.492C143.581 107.743 142.686 108.638 141.581 108.638zM183.475 108.638h-29.834c-1.105 0-2-.895-2-2V89.146c0-1.105.895-2 2-2h29.834c1.105 0 2 .895 2 2v17.492C185.475 107.743 184.58 108.638 183.475 108.638z"></path>
    <path fill="#5A7A39" d="M99.687 138.478H69.853c-1.105 0-2-.895-2-2v-17.492c0-1.105.895-2 2-2h29.834c1.105 0 2 .895 2 2v17.492C101.687 137.582 100.792 138.478 99.687 138.478zM141.581 138.478h-29.834c-1.105 0-2-.895-2-2v-17.492c0-1.105.895-2 2-2h29.834c1.105 0 2 .895 2 2v17.492C143.581 137.582 142.686 138.478 141.581 138.478zM183.475 138.478h-29.834c-1.105 0-2-.895-2-2v-17.492c0-1.105.895-2 2-2h29.834c1.105 0 2 .895 2 2v17.492C185.475 137.582 184.58 138.478 183.475 138.478z"></path>
    <g>
      <path fill="#91B56B" d="M99.687 168.317H69.853c-1.105 0-2-.895-2-2v-17.492c0-1.105.895-2 2-2h29.834c1.105 0 2 .895 2 2v17.492C101.687 167.422 100.792 168.317 99.687 168.317zM141.581 168.317h-29.834c-1.105 0-2-.895-2-2v-17.492c0-1.105.895-2 2-2h29.834c1.105 0 2 .895 2 2v17.492C143.581 167.422 142.686 168.317 141.581 168.317zM183.475 168.317h-29.834c-1.105 0-2-.895-2-2v-17.492c0-1.105.895-2 2-2h29.834c1.105 0 2 .895 2 2v17.492C185.475 167.422 184.58 168.317 183.475 168.317z"></path>
    </g>
    <g>
      <path fill="#5A7A39" d="M99.687 198.157H69.853c-1.105 0-2-.895-2-2v-17.492c0-1.105.895-2 2-2h29.834c1.105 0 2 .895 2 2v17.492C101.687 197.261 100.792 198.157 99.687 198.157zM141.581 198.157h-29.834c-1.105 0-2-.895-2-2v-17.492c0-1.105.895-2 2-2h29.834c1.105 0 2 .895 2 2v17.492C143.581 197.261 142.686 198.157 141.581 198.157zM183.475 198.157h-29.834c-1.105 0-2-.895-2-2v-17.492c0-1.105.895-2 2-2h29.834c1.105 0 2 .895 2 2v17.492C185.475 197.261 184.58 198.157 183.475 198.157z"></path>
    </g>
  </g>
  <g>
    <path fill="#FFF" d="M65.584,73.428c-0.356,0-0.701-0.19-0.882-0.526l-14-26c-0.262-0.486-0.079-1.093,0.407-1.354
					c0.484-0.263,1.093-0.08,1.354,0.406l14,26c0.262,0.486,0.079,1.093-0.407,1.354C65.906,73.39,65.744,73.428,65.584,73.428z"></path>
    <path fill="#FFF" d="M51.582 73.428c-.16 0-.322-.038-.473-.12-.486-.262-.669-.868-.407-1.354l14-26c.262-.486.87-.669 1.354-.406.486.262.669.868.407 1.354l-14 26C52.283 73.237 51.938 73.428 51.582 73.428zM122.732 73.428c-.356 0-.701-.19-.882-.526l-14-26c-.262-.486-.079-1.093.407-1.354.485-.263 1.093-.08 1.354.406l14 26c.262.486.079 1.093-.407 1.354C123.055 73.39 122.893 73.428 122.732 73.428z"></path>
    <path fill="#FFF" d="M108.73,73.428c-0.16,0-0.322-0.038-0.473-0.12c-0.486-0.262-0.669-0.868-0.407-1.354l14-26
					c0.262-0.486,0.869-0.669,1.354-0.406c0.486,0.262,0.669,0.868,0.407,1.354l-14,26C109.432,73.237,109.087,73.428,108.73,73.428
					z"></path>
    <g>
      <path fill="#FFF" d="M85.853,73.428h-11.5c-1.93,0-3.5-1.57-3.5-3.5v-23.5c0-0.552,0.447-1,1-1s1,0.448,1,1v23.5
				c0,0.827,0.673,1.5,1.5,1.5h11.5c0.553,0,1,0.448,1,1S86.405,73.428,85.853,73.428z"></path>
    </g>
    <g>
      <path fill="#FFF" d="M98.853,73.428h-4c-3.309,0-6-2.691-6-6c0-0.552,0.447-1,1-1s1,0.448,1,1c0,2.206,1.794,4,4,4h4
				c2.206,0,4-1.794,4-4v-6c0-2.206-1.794-4-4-4h-4c-3.309,0-6-2.691-6-6s2.691-6,6-6h4c3.309,0,6,2.691,6,6c0,0.552-0.447,1-1,1
				s-1-0.448-1-1c0-2.206-1.794-4-4-4h-4c-2.206,0-4,1.794-4,4s1.794,4,4,4h4c3.309,0,6,2.691,6,6v6
				C104.853,70.736,102.161,73.428,98.853,73.428z"></path>
    </g>
  </g>
</svg>
