<svg width="24" height="24" viewBox="0 0 24 24" fill="none" xmlns="http://www.w3.org/2000/svg">
  <defs>
    <linearGradient id="deepseekGrad" x1="0%" y1="0%" x2="100%" y2="100%">
      <stop offset="0%" style="stop-color:#1E293B;stop-opacity:1" />
      <stop offset="100%" style="stop-color:#0F172A;stop-opacity:1" />
    </linearGradient>
  </defs>
  <!-- Fondo redondeado -->
  <rect x="2" y="2" width="20" height="20" rx="6" fill="url(#deepseekGrad)"/>
  
  <!-- Letra D estilizada -->
  <path d="M7 7V17H11C14.3 17 17 14.3 17 11C17 7.7 14.3 5 11 5H7V7Z" fill="white"/>
  <path d="M9 9V15H11C12.7 15 14 13.7 14 12C14 10.3 12.7 9 11 9H9Z" fill="url(#deepseekGrad)"/>
  
  <!-- Elementos tech -->
  <circle cx="16" cy="8" r="1" fill="#0EA5E9"/>
  <circle cx="18" cy="16" r="1" fill="#0EA5E9"/>
  <path d="M15 6L17 8" stroke="#0EA5E9" stroke-width="1"/>
  <path d="M17 14L19 16" stroke="#0EA5E9" stroke-width="1"/>
</svg>