<svg width="24" height="24" viewBox="0 0 24 24" fill="none" xmlns="http://www.w3.org/2000/svg">
  <defs>
    <linearGradient id="metaGrad" x1="0%" y1="0%" x2="100%" y2="100%">
      <stop offset="0%" style="stop-color:#0866FF;stop-opacity:1" />
      <stop offset="100%" style="stop-color:#0653D3;stop-opacity:1" />
    </linearGradient>
  </defs>
  <!-- Fondo redondeado -->
  <rect x="2" y="2" width="20" height="20" rx="6" fill="url(#metaGrad)"/>
  
  <!-- Logo Meta estilizado (infinito) -->
  <path d="M6 12C6 10 7 8 9 8C10.5 8 11.5 9 12 10C12.5 9 13.5 8 15 8C17 8 18 10 18 12C18 14 17 16 15 16C13.5 16 12.5 15 12 14C11.5 15 10.5 16 9 16C7 16 6 14 6 12Z" fill="white"/>
  
  <!-- Detalles internos -->
  <ellipse cx="9.5" cy="11.5" rx="1" ry="1.5" fill="url(#metaGrad)"/>
  <ellipse cx="14.5" cy="11.5" rx="1" ry="1.5" fill="url(#metaGrad)"/>
</svg>