<svg width="24" height="24" viewBox="0 0 24 24" fill="none" xmlns="http://www.w3.org/2000/svg">
  <defs>
    <linearGradient id="metaGrad" x1="0%" y1="0%" x2="100%" y2="100%">
      <stop offset="0%" style="stop-color:#0866FF;stop-opacity:1" />
      <stop offset="100%" style="stop-color:#1C2B33;stop-opacity:1" />
    </linearGradient>
  </defs>
  <circle cx="12" cy="12" r="11" fill="url(#metaGrad)" stroke="#FFFFFF" stroke-width="0.5"/>
  <path d="M7 9C7 8 7.5 7 8.5 7C9.5 7 10 8 10 9V11C10 12.5 10.5 13.5 11.5 13.5C12.5 13.5 13 12.5 13 11V9C13 8 13.5 7 14.5 7C15.5 7 16 8 16 9V11C16 14 15 17 12 17C9 17 8 14 8 11V9H7Z" fill="white" fill-opacity="0.9"/>
  <circle cx="9" cy="9.5" r="0.5" fill="url(#metaGrad)"/>
  <circle cx="15" cy="9.5" r="0.5" fill="url(#metaGrad)"/>
</svg>