<svg width="24" height="24" viewBox="0 0 24 24" fill="none" xmlns="http://www.w3.org/2000/svg">
  <path d="M22 12C22 17.5228 17.5228 22 12 22C6.47715 22 2 17.5228 2 12C2 6.47715 6.47715 2 12 2C17.5228 2 22 6.47715 22 12Z" fill="#10A37F"/>
  <path d="M17 8.5C17 10.433 14.7614 12 12 12C9.23858 12 7 10.433 7 8.5C7 6.567 9.23858 5 12 5C14.7614 5 17 6.567 17 8.5Z" fill="white"/>
  <path d="M17 15.5C17 17.433 14.7614 19 12 19C9.23858 19 7 17.433 7 15.5C7 13.567 9.23858 12 12 12C14.7614 12 17 13.567 17 15.5Z" fill="white"/>
  <path d="M7 8.5C7 10.433 4.76142 12 2 12M17 8.5C17 10.433 19.2386 12 22 12M7 15.5C7 17.433 4.76142 19 2 19M17 15.5C17 17.433 19.2386 19 22 19" stroke="white" stroke-width="1.5"/>
</svg>