<svg width="219" height="194" viewBox="0 0 219 194" fill="none" xmlns="http://www.w3.org/2000/svg">
<g opacity="0.5">
<path d="M154.272 15.9872C155.27 14.9859 156.457 14.1918 157.764 13.6506C159.07 13.1094 160.471 12.8318 161.885 12.8336H172.591C173.385 9.19702 175.399 5.94145 178.299 3.60711C181.198 1.27277 184.809 0 188.531 0C192.253 0 195.864 1.27277 198.763 3.60711C201.663 5.94145 203.677 9.19702 204.472 12.8336H207.346C208.76 12.8331 210.161 13.1113 211.467 13.6522C212.774 14.1932 213.961 14.9862 214.961 15.9862C215.961 16.9861 216.754 18.1732 217.295 19.4798C217.836 20.7863 218.114 22.1866 218.114 23.6007C218.114 25.0147 217.835 26.4148 217.294 27.7212C216.753 29.0275 215.96 30.2145 214.96 31.2143C213.96 32.2141 212.773 33.0072 211.467 33.5483C210.16 34.0894 208.76 34.3679 207.346 34.3679H161.885C160.471 34.3679 159.071 34.0895 157.765 33.5484C156.458 33.0073 155.271 32.2142 154.271 31.2143C153.272 30.2145 152.479 29.0275 151.937 27.7212C151.396 26.4149 151.118 25.0147 151.118 23.6008C151.116 22.1865 151.394 20.7858 151.935 19.4793C152.476 18.1727 153.27 16.9859 154.272 15.9872ZM47.3201 33.4809C46.5799 32.7387 45.7003 32.1501 44.7318 31.749C43.7634 31.3478 42.7252 31.142 41.677 31.1434H33.742C33.153 28.4479 31.6601 26.0349 29.511 24.3047C27.3619 22.5744 24.6858 21.631 21.9267 21.631C19.1677 21.631 16.4916 22.5744 14.3425 24.3047C12.1934 26.0349 10.7005 28.4479 10.1115 31.1434H7.98068C6.93254 31.143 5.89461 31.3492 4.92619 31.7502C3.95777 32.1511 3.07784 32.7389 2.3367 33.4801C1.59555 34.2212 1.00771 35.1012 0.606774 36.0696C0.205832 37.038 -0.000353022 38.0759 4.53719e-07 39.1241C-1.61495e-06 40.1721 0.206423 41.2099 0.607489 42.1782C1.00856 43.1464 1.59641 44.0262 2.33748 44.7673C3.07856 45.5084 3.95834 46.0962 4.9266 46.4973C5.89486 46.8983 6.93264 47.1048 7.98068 47.1048H41.677C42.725 47.1048 43.7628 46.8984 44.7311 46.4973C45.6993 46.0963 46.5791 45.5084 47.3202 44.7673C48.0613 44.0263 48.6491 43.1465 49.0502 42.1782C49.4512 41.2099 49.6577 40.1721 49.6576 39.1241C49.659 38.0758 49.4532 37.0377 49.0521 36.0692C48.6509 35.1008 48.0623 34.2211 47.3201 33.4809Z" fill="#EEEEEE"/>
<path d="M179.516 99.4838C179.486 99.2869 179.417 99.0979 179.313 98.9277C179.21 98.7574 179.074 98.6093 178.913 98.4917C178.752 98.3741 178.569 98.2894 178.376 98.2424C178.182 98.1955 177.981 98.1871 177.784 98.2179C177.587 98.2487 177.399 98.318 177.229 98.4219C177.059 98.5257 176.911 98.6621 176.793 98.8232C176.676 98.9842 176.592 99.1669 176.545 99.3606C176.498 99.5543 176.491 99.7553 176.522 99.9521C176.739 101.364 177.016 105.786 175.49 107.565C175.178 107.941 174.742 108.192 174.26 108.272L174.399 99.8504C174.404 99.5589 174.35 99.2694 174.242 98.9989C174.133 98.7283 173.972 98.4822 173.767 98.2748C173.562 98.0674 173.318 97.903 173.049 97.7912C172.78 97.6793 172.491 97.6224 172.2 97.6236C171.908 97.6248 171.62 97.6841 171.352 97.7981C171.083 97.9122 170.841 98.0786 170.637 98.2877C170.434 98.4967 170.275 98.7442 170.169 99.0156C170.062 99.2871 170.011 99.577 170.019 99.8684L170.415 115.851C169.914 115.78 169.457 115.526 169.133 115.137C167.607 113.358 167.884 108.936 168.101 107.524C168.132 107.328 168.123 107.127 168.077 106.934C168.03 106.74 167.945 106.558 167.828 106.397C167.711 106.236 167.563 106.1 167.393 105.997C167.223 105.893 167.035 105.824 166.838 105.793C166.641 105.762 166.441 105.771 166.247 105.817C166.054 105.864 165.872 105.949 165.711 106.066C165.55 106.183 165.414 106.331 165.31 106.501C165.207 106.671 165.137 106.859 165.107 107.056C164.998 107.752 164.122 113.943 166.828 117.106C167.283 117.64 167.843 118.076 168.472 118.386C169.102 118.695 169.789 118.872 170.49 118.906L170.663 125.863H173.969L174.209 111.328C174.897 111.285 175.569 111.105 176.185 110.796C176.801 110.488 177.348 110.058 177.795 109.534C180.501 106.371 179.625 100.179 179.516 99.4838ZM38.3147 113.033C38.2751 112.78 38.1366 112.553 37.9296 112.402C37.7227 112.251 37.4642 112.188 37.2111 112.228C36.9579 112.267 36.7309 112.406 36.5799 112.613C36.429 112.82 36.3664 113.078 36.406 113.331C36.5445 114.231 36.721 117.05 35.7483 118.184C35.5494 118.424 35.2711 118.584 34.9642 118.635L35.0528 113.266C35.0559 113.081 35.0218 112.896 34.9527 112.724C34.8835 112.551 34.7806 112.394 34.6501 112.262C34.5195 112.13 34.3639 112.025 34.1923 111.954C34.0207 111.882 33.8366 111.846 33.6508 111.847C33.4649 111.848 33.2812 111.885 33.1102 111.958C32.9392 112.031 32.7844 112.137 32.6549 112.27C32.5254 112.404 32.4239 112.561 32.3561 112.734C32.2884 112.907 32.2559 113.092 32.2605 113.278L32.5129 123.467C32.1935 123.421 31.9023 123.259 31.6957 123.011C30.723 121.877 30.8994 119.058 31.038 118.158C31.0776 117.905 31.015 117.647 30.864 117.44C30.713 117.233 30.486 117.094 30.2329 117.055C29.9798 117.015 29.7213 117.078 29.5143 117.229C29.3073 117.38 29.1688 117.607 29.1292 117.86C29.0598 118.303 28.5013 122.25 30.2265 124.266C30.5165 124.607 30.8733 124.885 31.2748 125.082C31.6764 125.279 32.1141 125.392 32.5611 125.414L32.6709 129.848H34.779L34.932 120.583C35.3703 120.556 35.7986 120.441 36.1913 120.244C36.584 120.047 36.933 119.774 37.2174 119.439C38.9426 117.423 38.3841 113.476 38.3147 113.033Z" fill="#BDBDBD"/>
<path d="M109.057 194C169.287 194 218.114 176.715 218.114 155.392C218.114 134.069 169.287 116.784 109.057 116.784C48.8264 116.784 0 134.069 0 155.392C0 176.715 48.8264 194 109.057 194Z" fill="url(#paint0_linear_637_484)"/>
</g>
<path d="M135.004 137.521C135.004 137.521 134.226 129.259 137.255 124.643C144.528 113.561 140.601 98.3633 130.701 89.5589C130.503 89.3832 130.304 89.2077 130.102 89.0323C116.281 77.008 94.7656 80.8821 86.036 97.0026C80.5975 107.045 76.3243 120.609 77.0888 137.991L77.1808 140.356L77.3383 147.758C77.3555 148.567 77.5772 149.359 77.9827 150.06C78.3883 150.76 78.9644 151.346 79.6573 151.763C80.3501 152.18 81.1372 152.414 81.9448 152.443C82.7525 152.473 83.5544 152.297 84.2757 151.931L84.7511 151.691C85.5988 151.261 86.5549 151.095 87.4974 151.212C88.4399 151.329 89.3263 151.725 90.0433 152.349L94.0392 155.826C94.9013 156.576 96.0027 156.993 97.1444 157C98.2862 157.007 99.3928 156.605 100.264 155.866L103.803 152.864C104.61 152.18 105.621 151.782 106.677 151.735C107.734 151.687 108.776 151.992 109.641 152.601L114.287 155.871C115.174 156.496 116.247 156.8 117.329 156.733C118.411 156.667 119.438 156.234 120.242 155.506L123.003 153.006C123.762 152.319 124.721 151.893 125.74 151.793C126.758 151.692 127.782 151.922 128.66 152.447C129.415 152.899 130.279 153.133 131.158 153.125C132.036 153.117 132.896 152.866 133.642 152.4C134.388 151.934 134.991 151.271 135.385 150.484C135.78 149.697 135.95 148.817 135.877 147.939L135.018 137.521" fill="#9A99EA"/>
<path d="M91.2226 124.598C94.1702 112.492 100.222 101.972 112.158 103.08C117.786 103.579 123.385 104.376 128.929 105.469C137.491 107.156 141.772 116.957 137.043 124.298C137.006 124.354 136.97 124.411 136.933 124.467C133.885 129.108 134.668 137.415 134.668 137.415L134.681 137.415L135.546 147.89C135.619 148.778 135.445 149.669 135.043 150.464C134.641 151.258 134.027 151.926 133.268 152.392C132.51 152.858 131.637 153.105 130.747 153.104C129.857 153.103 128.985 152.855 128.227 152.388C126.447 151.293 124.141 151.582 122.591 152.984L119.813 155.498C119.003 156.23 117.97 156.665 116.881 156.732C115.792 156.798 114.713 156.493 113.82 155.865L109.145 152.577C108.274 151.964 107.225 151.658 106.162 151.706C105.099 151.754 104.082 152.153 103.27 152.841L99.7093 155.86C98.8324 156.603 97.7188 157.007 96.5699 157C95.421 156.993 94.3127 156.574 93.4452 155.82L89.4242 152.324C89.0999 152.045 88.7398 151.812 88.3535 151.629C88.3535 151.629 86 148.613 86 145.52C86 145.52 89.9072 147.612 92.0879 144.883C94.2686 142.154 94.5412 135.241 94.5412 135.241C94.5412 135.241 89.5391 131.51 91.2224 124.597L91.2226 124.598Z" fill="url(#paint1_linear_637_484)"/>
<path d="M100 128L121 130" stroke="white" stroke-width="2" stroke-miterlimit="10" stroke-linecap="round"/>
<path d="M103 129V136" stroke="white" stroke-width="2" stroke-miterlimit="10" stroke-linecap="round"/>
<path d="M120.164 114.313C120.164 114.313 117.79 121.646 123.466 121.752C129.141 121.858 129.114 115.45 129.114 115.45M110.524 111.92C110.524 111.92 110.323 119.756 104.786 118.487C99.249 117.217 100.781 111 100.781 111" stroke="#373737" stroke-width="2" stroke-linecap="round" stroke-linejoin="round"/>
<path d="M105.5 170C115.717 170 124 168.881 124 167.5C124 166.119 115.717 165 105.5 165C95.2827 165 87 166.119 87 167.5C87 168.881 95.2827 170 105.5 170Z" fill="#D3DADC"/>
<defs>
<linearGradient id="paint0_linear_637_484" x1="109.057" y1="99.2858" x2="109.057" y2="159.912" gradientUnits="userSpaceOnUse">
<stop stop-color="#E5E5E5"/>
<stop offset="0.476" stop-color="#F4F4F4"/>
<stop offset="1" stop-color="white"/>
</linearGradient>
<linearGradient id="paint1_linear_637_484" x1="89.652" y1="118.613" x2="135.514" y2="143.607" gradientUnits="userSpaceOnUse">
<stop offset="0.529" stop-color="#9A99EA" stop-opacity="0.701961"/>
<stop offset="1" stop-color="#9A99EA"/>
</linearGradient>
</defs>
</svg>
