<svg width="303" height="119" viewBox="0 0 303 119" fill="none" xmlns="http://www.w3.org/2000/svg">
<g clip-path="url(#clip0_1027_459)">
<g clip-path="url(#clip1_1027_459)">
<rect width="303" height="119" rx="16" fill="#EDC75A"/>
<path d="M266 -46.5H16C7.43959 -46.5 0.5 -39.5604 0.5 -31V96C0.5 104.56 7.43959 111.5 16 111.5H95C103.56 111.5 110.5 104.56 110.5 96V69.5C110.5 60.3873 117.887 53 127 53H266C274.56 53 281.5 46.0604 281.5 37.5V-31C281.5 -39.5604 274.56 -46.5 266 -46.5Z" stroke="#AC9249" stroke-opacity="0.3"/>
<g clip-path="url(#clip2_1027_459)">
<path d="M230.042 53.042C233.306 53.042 235.958 55.6937 235.958 58.958C235.958 58.9832 235.975 59 236 59C236.025 59 236.042 58.9832 236.042 58.958C236.042 55.6937 238.694 53.042 241.958 53.042C241.983 53.042 242 53.0252 242 53C242 52.9748 241.983 52.958 241.958 52.958C238.694 52.958 236.042 50.3063 236.042 47.042C236.042 47.0168 236.025 47 236 47C235.975 47 235.958 47.0168 235.958 47.042C235.958 50.3063 233.306 52.958 230.042 52.958C230.017 52.958 230 52.9748 230 53C230 53.0252 230.017 53.042 230.042 53.042Z" fill="#AC9249"/>
<path d="M233.315 48.6364C232.434 48.6364 231.72 47.9231 231.72 47.042C231.72 47.0168 231.704 47 231.678 47C231.653 47 231.636 47.0168 231.636 47.042C231.636 47.9231 230.923 48.6364 230.042 48.6364C230.017 48.6364 230 48.6531 230 48.6783C230 48.7035 230.017 48.7203 230.042 48.7203C230.923 48.7203 231.636 49.4336 231.636 50.3147C231.636 50.3399 231.653 50.3566 231.678 50.3566C231.704 50.3566 231.72 50.3399 231.72 50.3147C231.72 49.4336 232.434 48.7203 233.315 48.7203C233.34 48.7203 233.357 48.7035 233.357 48.6783C233.357 48.6531 233.34 48.6364 233.315 48.6364Z" fill="#AC9249"/>
<path d="M239.189 57.3633C239.793 57.3633 240.28 57.85 240.28 58.4542C240.28 58.4794 240.297 58.4961 240.322 58.4961C240.347 58.4961 240.364 58.4794 240.364 58.4542C240.364 57.85 240.85 57.3633 241.455 57.3633C241.48 57.3633 241.497 57.3465 241.497 57.3213C241.497 57.2961 241.48 57.2794 241.455 57.2794C240.85 57.2794 240.364 56.7926 240.364 56.1884C240.364 56.1633 240.347 56.1465 240.322 56.1465C240.297 56.1465 240.28 56.1633 240.28 56.1884C240.28 56.7926 239.793 57.2794 239.189 57.2794C239.164 57.2794 239.147 57.2961 239.147 57.3213C239.147 57.3465 239.164 57.3633 239.189 57.3633Z" fill="#AC9249"/>
</g>
<g clip-path="url(#clip3_1027_459)">
<path d="M133.021 53.021C134.653 53.021 135.979 54.3469 135.979 55.979C135.979 55.9916 135.987 56 136 56C136.013 56 136.021 55.9916 136.021 55.979C136.021 54.3469 137.347 53.021 138.979 53.021C138.992 53.021 139 53.0126 139 53C139 52.9874 138.992 52.979 138.979 52.979C137.347 52.979 136.021 51.6531 136.021 50.021C136.021 50.0084 136.013 50 136 50C135.987 50 135.979 50.0084 135.979 50.021C135.979 51.6531 134.653 52.979 133.021 52.979C133.008 52.979 133 52.9874 133 53C133 53.0126 133.008 53.021 133.021 53.021Z" fill="#AC9249"/>
<path d="M134.657 50.8182C134.217 50.8182 133.86 50.4615 133.86 50.021C133.86 50.0084 133.852 50 133.839 50C133.826 50 133.818 50.0084 133.818 50.021C133.818 50.4615 133.461 50.8182 133.021 50.8182C133.008 50.8182 133 50.8266 133 50.8392C133 50.8517 133.008 50.8601 133.021 50.8601C133.461 50.8601 133.818 51.2168 133.818 51.6573C133.818 51.6699 133.826 51.6783 133.839 51.6783C133.852 51.6783 133.86 51.6699 133.86 51.6573C133.86 51.2168 134.217 50.8601 134.657 50.8601C134.67 50.8601 134.678 50.8517 134.678 50.8392C134.678 50.8266 134.67 50.8182 134.657 50.8182Z" fill="#AC9249"/>
<path d="M137.594 55.1816C137.897 55.1816 138.14 55.425 138.14 55.7271C138.14 55.7397 138.148 55.7481 138.161 55.7481C138.173 55.7481 138.182 55.7397 138.182 55.7271C138.182 55.425 138.425 55.1816 138.727 55.1816C138.74 55.1816 138.748 55.1732 138.748 55.1607C138.748 55.1481 138.74 55.1397 138.727 55.1397C138.425 55.1397 138.182 54.8963 138.182 54.5942C138.182 54.5816 138.173 54.5732 138.161 54.5732C138.148 54.5732 138.14 54.5816 138.14 54.5942C138.14 54.8963 137.897 55.1397 137.594 55.1397C137.582 55.1397 137.573 55.1481 137.573 55.1607C137.573 55.1732 137.582 55.1816 137.594 55.1816Z" fill="#AC9249"/>
</g>
<g clip-path="url(#clip4_1027_459)">
<path d="M59.021 111.521C60.6531 111.521 61.979 112.847 61.979 114.479C61.979 114.492 61.9874 114.5 62 114.5C62.0126 114.5 62.021 114.492 62.021 114.479C62.021 112.847 63.3469 111.521 64.979 111.521C64.9916 111.521 65 111.513 65 111.5C65 111.487 64.9916 111.479 64.979 111.479C63.3469 111.479 62.021 110.153 62.021 108.521C62.021 108.508 62.0126 108.5 62 108.5C61.9874 108.5 61.979 108.508 61.979 108.521C61.979 110.153 60.6531 111.479 59.021 111.479C59.0084 111.479 59 111.487 59 111.5C59 111.513 59.0084 111.521 59.021 111.521Z" fill="#AC9249"/>
<path d="M60.6572 109.318C60.2167 109.318 59.86 108.962 59.86 108.521C59.86 108.508 59.8516 108.5 59.8391 108.5C59.8265 108.5 59.8181 108.508 59.8181 108.521C59.8181 108.962 59.4614 109.318 59.0209 109.318C59.0083 109.318 58.9999 109.327 58.9999 109.339C58.9999 109.352 59.0083 109.36 59.0209 109.36C59.4614 109.36 59.8181 109.717 59.8181 110.157C59.8181 110.17 59.8265 110.178 59.8391 110.178C59.8516 110.178 59.86 110.17 59.86 110.157C59.86 109.717 60.2167 109.36 60.6572 109.36C60.6698 109.36 60.6782 109.352 60.6782 109.339C60.6782 109.327 60.6698 109.318 60.6572 109.318Z" fill="#AC9249"/>
<path d="M63.5944 113.682C63.8965 113.682 64.1399 113.925 64.1399 114.227C64.1399 114.24 64.1483 114.248 64.1609 114.248C64.1735 114.248 64.1819 114.24 64.1819 114.227C64.1819 113.925 64.4252 113.682 64.7273 113.682C64.7399 113.682 64.7483 113.673 64.7483 113.661C64.7483 113.648 64.7399 113.64 64.7273 113.64C64.4252 113.64 64.1819 113.396 64.1819 113.094C64.1819 113.082 64.1735 113.073 64.1609 113.073C64.1483 113.073 64.1399 113.082 64.1399 113.094C64.1399 113.396 63.8965 113.64 63.5944 113.64C63.5819 113.64 63.5735 113.648 63.5735 113.661C63.5735 113.673 63.5819 113.682 63.5944 113.682Z" fill="#AC9249"/>
</g>
<line y1="-0.5" x2="23.8472" y2="-0.5" transform="matrix(-1 6.23212e-08 1.22635e-07 1 229.944 53.5)" stroke="#AC9249"/>
</g>
</g>
<defs>
<clipPath id="clip0_1027_459">
<rect width="303" height="119" fill="white"/>
</clipPath>
<clipPath id="clip1_1027_459">
<rect width="303" height="119" rx="16" fill="white"/>
</clipPath>
<clipPath id="clip2_1027_459">
<rect width="12" height="12" fill="white" transform="matrix(-1 0 0 1 242 47)"/>
</clipPath>
<clipPath id="clip3_1027_459">
<rect width="6" height="6" fill="white" transform="matrix(-1 0 0 1 139 50)"/>
</clipPath>
<clipPath id="clip4_1027_459">
<rect width="6" height="6" fill="white" transform="matrix(-1 0 0 1 65 108.5)"/>
</clipPath>
</defs>
</svg>
