<svg width="303" height="119" viewBox="0 0 303 119" fill="none" xmlns="http://www.w3.org/2000/svg">
<g clip-path="url(#clip0_1027_424)">
<g clip-path="url(#clip1_1027_424)">
<rect width="303" height="119" rx="16" fill="#8AD7C8"/>
<path d="M266 -46.5H16C7.43959 -46.5 0.5 -39.5604 0.5 -31V96C0.5 104.56 7.43959 111.5 16 111.5H95C103.56 111.5 110.5 104.56 110.5 96V69.5C110.5 60.3873 117.887 53 127 53H266C274.56 53 281.5 46.0604 281.5 37.5V-31C281.5 -39.5604 274.56 -46.5 266 -46.5Z" stroke="#40C3AA" stroke-opacity="0.3"/>
<g clip-path="url(#clip2_1027_424)">
<path d="M191.945 53.042C195.209 53.042 197.861 55.6937 197.861 58.958C197.861 58.9832 197.878 59 197.903 59C197.928 59 197.945 58.9832 197.945 58.958C197.945 55.6937 200.597 53.042 203.861 53.042C203.886 53.042 203.903 53.0252 203.903 53C203.903 52.9748 203.886 52.958 203.861 52.958C200.597 52.958 197.945 50.3063 197.945 47.042C197.945 47.0168 197.928 47 197.903 47C197.878 47 197.861 47.0168 197.861 47.042C197.861 50.3063 195.209 52.958 191.945 52.958C191.92 52.958 191.903 52.9748 191.903 53C191.903 53.0252 191.92 53.042 191.945 53.042Z" fill="#40C3AA"/>
<path d="M195.218 48.6364C194.336 48.6364 193.623 47.9231 193.623 47.042C193.623 47.0168 193.606 47 193.581 47C193.556 47 193.539 47.0168 193.539 47.042C193.539 47.9231 192.826 48.6364 191.945 48.6364C191.92 48.6364 191.903 48.6531 191.903 48.6783C191.903 48.7035 191.92 48.7203 191.945 48.7203C192.826 48.7203 193.539 49.4336 193.539 50.3147C193.539 50.3399 193.556 50.3566 193.581 50.3566C193.606 50.3566 193.623 50.3399 193.623 50.3147C193.623 49.4336 194.336 48.7203 195.218 48.7203C195.243 48.7203 195.26 48.7035 195.26 48.6783C195.26 48.6531 195.243 48.6364 195.218 48.6364Z" fill="#40C3AA"/>
<path d="M201.092 57.3633C201.696 57.3633 202.183 57.85 202.183 58.4542C202.183 58.4794 202.199 58.4961 202.225 58.4961C202.25 58.4961 202.267 58.4794 202.267 58.4542C202.267 57.85 202.753 57.3633 203.357 57.3633C203.383 57.3633 203.399 57.3465 203.399 57.3213C203.399 57.2961 203.383 57.2794 203.357 57.2794C202.753 57.2794 202.267 56.7926 202.267 56.1884C202.267 56.1633 202.25 56.1465 202.225 56.1465C202.199 56.1465 202.183 56.1633 202.183 56.1884C202.183 56.7926 201.696 57.2794 201.092 57.2794C201.067 57.2794 201.05 57.2961 201.05 57.3213C201.05 57.3465 201.067 57.3633 201.092 57.3633Z" fill="#40C3AA"/>
</g>
<g clip-path="url(#clip3_1027_424)">
<path d="M133.021 53.021C134.653 53.021 135.979 54.3469 135.979 55.979C135.979 55.9916 135.987 56 136 56C136.013 56 136.021 55.9916 136.021 55.979C136.021 54.3469 137.347 53.021 138.979 53.021C138.992 53.021 139 53.0126 139 53C139 52.9874 138.992 52.979 138.979 52.979C137.347 52.979 136.021 51.6531 136.021 50.021C136.021 50.0084 136.013 50 136 50C135.987 50 135.979 50.0084 135.979 50.021C135.979 51.6531 134.653 52.979 133.021 52.979C133.008 52.979 133 52.9874 133 53C133 53.0126 133.008 53.021 133.021 53.021Z" fill="#40C3AA"/>
<path d="M134.657 50.8182C134.217 50.8182 133.86 50.4615 133.86 50.021C133.86 50.0084 133.852 50 133.839 50C133.826 50 133.818 50.0084 133.818 50.021C133.818 50.4615 133.461 50.8182 133.021 50.8182C133.008 50.8182 133 50.8266 133 50.8392C133 50.8517 133.008 50.8601 133.021 50.8601C133.461 50.8601 133.818 51.2168 133.818 51.6573C133.818 51.6699 133.826 51.6783 133.839 51.6783C133.852 51.6783 133.86 51.6699 133.86 51.6573C133.86 51.2168 134.217 50.8601 134.657 50.8601C134.67 50.8601 134.678 50.8517 134.678 50.8392C134.678 50.8266 134.67 50.8182 134.657 50.8182Z" fill="#40C3AA"/>
<path d="M137.594 55.1816C137.897 55.1816 138.14 55.425 138.14 55.7271C138.14 55.7397 138.148 55.7481 138.161 55.7481C138.173 55.7481 138.182 55.7397 138.182 55.7271C138.182 55.425 138.425 55.1816 138.727 55.1816C138.74 55.1816 138.748 55.1732 138.748 55.1607C138.748 55.1481 138.74 55.1397 138.727 55.1397C138.425 55.1397 138.182 54.8963 138.182 54.5942C138.182 54.5816 138.173 54.5732 138.161 54.5732C138.148 54.5732 138.14 54.5816 138.14 54.5942C138.14 54.8963 137.897 55.1397 137.594 55.1397C137.582 55.1397 137.573 55.1481 137.573 55.1607C137.573 55.1732 137.582 55.1816 137.594 55.1816Z" fill="#40C3AA"/>
</g>
<g clip-path="url(#clip4_1027_424)">
<path d="M59.021 111.521C60.6531 111.521 61.979 112.847 61.979 114.479C61.979 114.492 61.9874 114.5 62 114.5C62.0126 114.5 62.021 114.492 62.021 114.479C62.021 112.847 63.3469 111.521 64.979 111.521C64.9916 111.521 65 111.513 65 111.5C65 111.487 64.9916 111.479 64.979 111.479C63.3469 111.479 62.021 110.153 62.021 108.521C62.021 108.508 62.0126 108.5 62 108.5C61.9874 108.5 61.979 108.508 61.979 108.521C61.979 110.153 60.6531 111.479 59.021 111.479C59.0084 111.479 59 111.487 59 111.5C59 111.513 59.0084 111.521 59.021 111.521Z" fill="#40C3AA"/>
<path d="M60.6572 109.318C60.2167 109.318 59.86 108.962 59.86 108.521C59.86 108.508 59.8516 108.5 59.8391 108.5C59.8265 108.5 59.8181 108.508 59.8181 108.521C59.8181 108.962 59.4614 109.318 59.0209 109.318C59.0083 109.318 58.9999 109.327 58.9999 109.339C58.9999 109.352 59.0083 109.36 59.0209 109.36C59.4614 109.36 59.8181 109.717 59.8181 110.157C59.8181 110.17 59.8265 110.178 59.8391 110.178C59.8516 110.178 59.86 110.17 59.86 110.157C59.86 109.717 60.2167 109.36 60.6572 109.36C60.6698 109.36 60.6782 109.352 60.6782 109.339C60.6782 109.327 60.6698 109.318 60.6572 109.318Z" fill="#40C3AA"/>
<path d="M63.5944 113.682C63.8965 113.682 64.1399 113.925 64.1399 114.227C64.1399 114.24 64.1483 114.248 64.1609 114.248C64.1735 114.248 64.1819 114.24 64.1819 114.227C64.1819 113.925 64.4252 113.682 64.7273 113.682C64.7399 113.682 64.7483 113.673 64.7483 113.661C64.7483 113.648 64.7399 113.64 64.7273 113.64C64.4252 113.64 64.1819 113.396 64.1819 113.094C64.1819 113.082 64.1735 113.073 64.1609 113.073C64.1483 113.073 64.1399 113.082 64.1399 113.094C64.1399 113.396 63.8965 113.64 63.5944 113.64C63.5819 113.64 63.5735 113.648 63.5735 113.661C63.5735 113.673 63.5819 113.682 63.5944 113.682Z" fill="#40C3AA"/>
</g>
<line y1="-0.5" x2="23.8472" y2="-0.5" transform="matrix(-1 6.23212e-08 1.22635e-07 1 196.847 53.5)" stroke="#40C3AA"/>
</g>
</g>
<defs>
<clipPath id="clip0_1027_424">
<rect width="303" height="119" fill="white"/>
</clipPath>
<clipPath id="clip1_1027_424">
<rect width="303" height="119" rx="16" fill="white"/>
</clipPath>
<clipPath id="clip2_1027_424">
<rect width="12" height="12" fill="white" transform="matrix(-1 0 0 1 203.903 47)"/>
</clipPath>
<clipPath id="clip3_1027_424">
<rect width="6" height="6" fill="white" transform="matrix(-1 0 0 1 139 50)"/>
</clipPath>
<clipPath id="clip4_1027_424">
<rect width="6" height="6" fill="white" transform="matrix(-1 0 0 1 65 108.5)"/>
</clipPath>
</defs>
</svg>
