<svg width="53" height="86" viewBox="0 0 53 86" fill="none" xmlns="http://www.w3.org/2000/svg">
<g clip-path="url(#clip0_1027_500)">
<rect y="5.76074" width="53" height="165.913" rx="4" fill="#F4DE97"/>
<circle cx="17.8586" cy="37.446" r="8.6413" fill="white"/>
<circle cx="39.7502" cy="37.446" r="8.6413" fill="white"/>
<circle cx="21.3152" cy="37.4465" r="5.18478" fill="black"/>
<circle cx="36.2937" cy="37.4465" r="5.18478" fill="black"/>
<path d="M30.137 20.236C26.5452 20.236 21.6823 19.8812 19.0113 18.5078C17.7634 17.8661 15.0777 14.3899 14.9805 10.1732C14.9242 7.73157 15.8519 6.75056 16.707 5.83401C17.5031 4.98064 19.6418 4.45913 21.6379 3.90864C23.7465 3.32713 25.5557 4.0848 26.508 4.90777C27.3946 5.67401 27.2773 7.3822 26.9942 8.94008C26.8681 9.63395 26.1448 9.95297 25.4756 10.1401C24.8065 10.3273 24.0515 10.3273 23.3795 9.96398C21.9165 9.17303 21.5578 6.85374 21.6522 4.65455C21.6922 3.72334 21.9353 3.182 22.3157 2.7196C23.9617 0.718426 25.5676 -0.290256 28.8048 0.0730641C30.1546 0.436384 32.7908 1.87185 33.1797 3.79029C33.5687 5.70873 33.5687 8.79695 32.4248 13.0797" stroke="black" stroke-width="2" stroke-linecap="round"/>
</g>
<defs>
<clipPath id="clip0_1027_500">
<rect width="53" height="86" fill="white"/>
</clipPath>
</defs>
</svg>
