<svg width="85" height="85" viewBox="0 0 85 85" fill="none" xmlns="http://www.w3.org/2000/svg">
<ellipse cx="42.325" cy="39.3444" rx="42.325" ry="39.3444" transform="matrix(-1 0 0 1 84.65 5.76953)" fill="#B2E7CA"/>
<circle cx="15.4993" cy="15.4993" r="15.4993" transform="matrix(-1 0 0 1 56.0357 15.3066)" fill="white"/>
<circle cx="9.53803" cy="9.53803" r="9.53803" transform="matrix(-1 0 0 1 50.0746 21.2686)" fill="black"/>
<path d="M71.535 8.83497C69.8052 9.45302 66.0004 9.57738 62.2976 8.74866C59.6899 8.16503 58.7303 5.68344 58.3907 4.91227C58.0369 4.10898 58.1698 3.02562 58.5707 2.03636C58.734 1.63332 59.0328 1.53709 59.3734 1.47398C59.714 1.41088 60.1427 1.41088 60.4555 1.50275C61.4877 1.80598 61.635 3.07759 61.7287 3.97497C61.8233 4.88072 61.7612 5.98412 61.1441 7.06804C60.5695 8.07725 59.289 8.70876 58.0844 9.32774C55.9581 10.4204 52.0022 9.20989 50.1351 8.3756C47.5527 7.22177 47.7185 5.56095 47.1302 3.61491C46.9043 2.86766 47.0968 2.34075 47.3121 1.97047C47.5857 1.49987 48.2085 1.28838 48.886 1.10278C49.8956 0.826167 50.7457 1.16217 51.0854 1.47027C51.8545 2.16792 51.6756 3.99817 51.399 5.21201C50.9587 7.14479 48.5872 8.27445 46.6727 9.14121C43.9977 10.3523 40.1794 9.33238 37.8881 8.34498C36.4602 7.72963 35.7769 6.7952 35.5607 6.42492C35.1312 5.68945 35.157 4.14294 35.557 3.08408C35.9518 2.03878 37.748 1.72269 39.2968 1.71898C39.6327 1.71817 39.7933 2.08647 39.9186 2.30455C40.1393 2.68869 40.1682 3.69193 40.0457 5.08209C39.8846 6.9108 36.5379 8.14453 34.3273 9.01872C32.2827 9.82728 28.4864 9.94858 26.8726 9.45674C24.5399 8.7458 23.7759 6.79706 23.1262 5.99247C22.7367 5.51004 22.6604 4.93918 22.5982 4.50765C22.5187 3.95605 23.0279 3.33186 23.645 2.77598C24.2053 2.27129 24.8226 2.09204 25.2857 2.02986C25.6884 1.97579 26.0606 2.39828 26.4003 2.89199C27.0845 3.88649 26.9905 6.58918 26.314 8.82847C25.743 10.7185 24.2102 10.8729 22.5128 11.7703C21.4947 12.3085 19.5181 12.6064 17.1703 12.9776C15.5574 13.1038 14.0689 12.9201 12.6471 12.611C12.0829 12.4858 11.8379 12.4245 11.2143 12.1758" stroke="black" stroke-width="2" stroke-linecap="round"/>
</svg>
