<svg width="419" height="274" viewBox="0 0 419 274" fill="none" xmlns="http://www.w3.org/2000/svg">
<g clip-path="url(#clip0_891_458)">
<path d="M0 24C0 10.7452 10.7452 0 24 0H395C408.255 0 419 10.7452 419 24V274H0V24Z" fill="white"/>
<rect x="347" y="163" width="48" height="48" rx="24" fill="#E1E3E7"/>
<rect x="24" y="92" width="48" height="48" rx="24" fill="#E1E3E7"/>
<rect x="80" y="89" width="289" height="54" rx="12" fill="#E1E3E7"/>
<rect x="-7" width="453" height="54" rx="12" fill="#F5F5FC"/>
<rect x="24" y="240" width="48" height="48" rx="24" fill="#E1E3E7"/>
<rect x="80" y="237" width="289" height="54" rx="12" fill="#E1E3E7"/>
<rect x="50" y="163" width="289" height="54" rx="12" fill="#E1E3E7"/>
<rect x="29" y="8" width="38" height="38" rx="19" fill="#E1E3E7"/>
<path d="M86.2062 24.3856C86.2062 24.4475 86.2062 26.7458 86.7825 30.233C87.0026 31.5649 88.5113 31.5603 90.5514 31.0612C95.5908 29.8283 103.877 24.0881 112.252 18.558C114.955 16.7736 115.567 18.9931 115.523 20.7208C115.48 22.4485 115.031 24.1102 115.592 25.0153C116.154 25.9204 117.74 26.0186 119.352 25.6478C122.689 24.8802 128.357 19.9881 134.612 15.0519C136.569 13.5077 136.591 14.6632 135.709 17.2221C133.381 23.9738 131.422 29.1484 132.298 31.1385C135.569 38.5668 148.099 34.0463 153.52 31.7961C157.435 30.1713 159.921 27.1587 161.631 26.3514C166.007 24.2855 176.166 27.3385 184.184 22.7995C186.245 21.6326 187.469 19.2237 188.516 19.1488C190.862 18.9808 191.02 23.8177 192.31 25.4982C194.263 26.6499 201.17 27.1269 210.664 26.5868C214.425 26.0193 216.04 24.8562 218.763 23.171" stroke="#E1E3E7" stroke-width="2" stroke-linecap="round"/>
</g>
<defs>
<clipPath id="clip0_891_458">
<path d="M0 24C0 10.7452 10.7452 0 24 0H395C408.255 0 419 10.7452 419 24V274H0V24Z" fill="white"/>
</clipPath>
</defs>
</svg>
