<svg width="1280" height="832" viewBox="0 0 1280 832" fill="none" xmlns="http://www.w3.org/2000/svg">
<g clip-path="url(#clip0_668_773)">
<g clip-path="url(#clip1_668_773)">
<path d="M996.757 239.876V280.447H940.812V208.457H884.869V148.195H803.628V205.04H792.243V142.547H766.62V91.082H751.145V142.547H725.523V205.04H714.137V314.384H657.451V281.431L586.27 243.857V186.478H569.17V154.251L549.685 124.519L535.986 103.613V49H524.416V103.613L510.715 124.519L491.231 154.251V186.478H474.13V205.452H443.317V145.189H362.501V270.573L283.908 270.782L247.578 240.326L200 240.452L200.704 429C201.438 427.749 1078 429.253 1078 428.774V239.876H996.757Z" fill="url(#paint0_linear_668_773)"/>
<path d="M910.532 169.422L909.018 161.687C908.993 161.56 908.895 161.46 908.769 161.433L901.067 159.76C900.723 159.685 900.728 159.193 901.074 159.126L908.809 157.612C908.936 157.587 909.036 157.489 909.063 157.363L910.736 149.661C910.811 149.317 911.303 149.322 911.37 149.668L912.884 157.403C912.909 157.53 913.007 157.63 913.133 157.657L920.835 159.33C921.179 159.405 921.174 159.897 920.828 159.964L913.093 161.478C912.966 161.503 912.866 161.601 912.839 161.727L911.166 169.429C911.092 169.772 910.6 169.767 910.532 169.422ZM1134.84 376.125L1133.33 368.39C1133.3 368.263 1133.21 368.163 1133.08 368.136L1125.38 366.463C1125.03 366.388 1125.04 365.896 1125.38 365.829L1133.12 364.315C1133.25 364.29 1133.35 364.192 1133.37 364.066L1135.05 356.364C1135.12 356.02 1135.61 356.025 1135.68 356.371L1137.19 364.106C1137.22 364.233 1137.32 364.333 1137.44 364.36L1145.14 366.033C1145.49 366.108 1145.48 366.6 1145.14 366.667L1137.4 368.181C1137.28 368.206 1137.18 368.304 1137.15 368.43L1135.48 376.132C1135.4 376.475 1134.91 376.47 1134.84 376.125ZM932.419 -58.0872L930.905 -65.8222C930.88 -65.9492 930.782 -66.0492 930.656 -66.0762L922.954 -67.7492C922.61 -67.8242 922.615 -68.3162 922.961 -68.3832L930.696 -69.8973C930.823 -69.9223 930.923 -70.0203 930.95 -70.1463L932.623 -77.8482C932.698 -78.1922 933.19 -78.1872 933.257 -77.8413L934.771 -70.1063C934.796 -69.9793 934.894 -69.8793 935.02 -69.8523L942.722 -68.1792C943.066 -68.1042 943.061 -67.6122 942.715 -67.5452L934.98 -66.0312C934.853 -66.0062 934.753 -65.9082 934.726 -65.7822L933.053 -58.0802C932.978 -57.7372 932.486 -57.7423 932.419 -58.0872ZM142.72 344.841L141.206 337.106C141.181 336.979 141.083 336.879 140.957 336.852L133.255 335.179C132.911 335.104 132.916 334.612 133.262 334.545L140.997 333.031C141.124 333.006 141.224 332.908 141.251 332.782L142.924 325.08C142.999 324.736 143.491 324.741 143.558 325.087L145.072 332.822C145.097 332.949 145.195 333.049 145.321 333.076L153.023 334.749C153.367 334.824 153.362 335.316 153.016 335.383L145.281 336.897C145.154 336.922 145.054 337.02 145.027 337.146L143.354 344.848C143.28 345.191 142.788 345.186 142.72 344.841ZM377.605 224.523L376.091 216.788C376.066 216.661 375.968 216.561 375.842 216.534L368.14 214.861C367.796 214.786 367.801 214.294 368.147 214.227L375.882 212.713C376.009 212.688 376.109 212.59 376.136 212.464L377.809 204.762C377.884 204.418 378.376 204.423 378.443 204.769L379.957 212.504C379.982 212.631 380.08 212.731 380.206 212.758L387.908 214.431C388.252 214.506 388.247 214.998 387.901 215.065L380.166 216.579C380.039 216.604 379.939 216.702 379.912 216.828L378.239 224.53C378.164 224.873 377.672 224.868 377.605 224.523ZM329.213 16.5488L327.305 6.8047C327.274 6.6447 327.15 6.5188 326.991 6.4848L317.288 4.3768C316.855 4.2828 316.861 3.6628 317.296 3.5778L327.04 1.6698C327.2 1.6388 327.326 1.5148 327.36 1.3558L329.468 -8.3472C329.562 -8.7802 330.182 -8.7742 330.267 -8.3392L332.175 1.4048C332.206 1.5648 332.33 1.6908 332.489 1.7247L342.192 3.8327C342.625 3.9268 342.619 4.5468 342.184 4.6318L332.44 6.5388C332.28 6.5698 332.154 6.6938 332.12 6.8528L330.012 16.5558C329.918 16.9898 329.298 16.9837 329.213 16.5488Z" fill="#F6F6F6"/>
<path d="M1042.67 265.652C1042.67 261.771 1045.81 258.624 1049.7 258.624C1053.58 258.624 1056.72 261.771 1056.72 265.652C1056.72 269.533 1053.58 272.68 1049.7 272.68C1045.81 272.68 1042.67 269.533 1042.67 265.652ZM1099.95 97.4515C1099.95 93.5705 1103.1 90.4235 1106.98 90.4235C1110.86 90.4235 1114.01 93.5695 1114.01 97.4515C1114.01 101.332 1110.86 104.479 1106.98 104.479C1103.1 104.479 1099.95 101.333 1099.95 97.4515ZM863.181 43.9255C863.181 40.0445 866.328 36.8975 870.209 36.8975C874.09 36.8975 877.237 40.0445 877.237 43.9255C877.237 47.8065 874.091 50.9535 870.209 50.9535C866.327 50.9535 863.181 47.8065 863.181 43.9255ZM451.655 111.832C451.655 107.951 454.801 104.804 458.683 104.804C462.564 104.804 465.711 107.95 465.711 111.832C465.711 115.713 462.565 118.86 458.683 118.86C454.802 118.86 451.655 115.713 451.655 111.832ZM183.148 142.086C183.148 138.205 186.295 135.058 190.176 135.058C194.057 135.058 197.204 138.204 197.204 142.086C197.204 145.967 194.058 149.114 190.176 149.114C186.294 149.114 183.148 145.967 183.148 142.086Z" fill="#F6F6F6"/>
</g>
</g>
<defs>
<linearGradient id="paint0_linear_668_773" x1="639" y1="49" x2="639" y2="429" gradientUnits="userSpaceOnUse">
<stop stop-color="#EEEEEE"/>
<stop offset="1" stop-color="#EEEEEE" stop-opacity="0"/>
</linearGradient>
<clipPath id="clip0_668_773">
<rect width="1280" height="832" fill="white"/>
</clipPath>
<clipPath id="clip1_668_773">
<rect width="1013" height="508" fill="white" transform="translate(133 -79)"/>
</clipPath>
</defs>
</svg>
