<svg width="64" height="78" viewBox="0 0 64 78" fill="none" xmlns="http://www.w3.org/2000/svg">
<path d="M49.9296 56.2024H0.962873C0.434845 56.2024 0 55.7562 0 55.2145V46.2751C0 45.7333 0.434845 45.2871 0.962873 45.2871H49.9296C50.4577 45.2871 50.8925 45.7333 50.8925 46.2751V55.2145C50.8925 55.7562 50.4577 56.2024 49.9296 56.2024Z" fill="#FCC62D"/>
<path d="M10.3738 45.2871H7.01929V56.1865H10.3738V45.2871Z" fill="#FFE37A"/>
<path d="M21.3384 45.2871H14.0237V56.1865H21.3384V45.2871Z" fill="#FFE37A"/>
<path d="M50.8459 78.0003H1.87913C1.35111 78.0003 0.91626 77.5541 0.91626 77.0123V68.0729C0.91626 67.5311 1.35111 67.085 1.87913 67.085H50.8459C51.3739 67.085 51.8088 67.5311 51.8088 68.0729V77.0123C51.8088 77.5541 51.3739 78.0003 50.8459 78.0003Z" fill="#FCC62D"/>
<path d="M11.2747 67.1006H7.92017V78H11.2747V67.1006Z" fill="#FFE37A"/>
<path d="M22.2544 67.1006H14.9397V78H22.2544V67.1006Z" fill="#FFE37A"/>
<path d="M63.037 67.1009H14.0703C13.5423 67.1009 13.1074 66.6547 13.1074 66.1129V57.1735C13.1074 56.6317 13.5423 56.1855 14.0703 56.1855H63.037C63.5651 56.1855 63.9999 56.6317 63.9999 57.1735V66.1129C63.9844 66.6547 63.5651 67.1009 63.037 67.1009Z" fill="#FFE37A"/>
<path d="M23.4663 56.2012H20.1118V67.1005H23.4663V56.2012Z" fill="#FCC62D"/>
<path d="M34.4302 56.2012H27.1155V67.1005H34.4302V56.2012Z" fill="#FCC62D"/>
<path d="M26.215 45.2866C38.5918 45.2866 48.6251 35.1488 48.6251 22.6433C48.6251 10.1377 38.5918 0 26.215 0C13.8383 0 3.80493 10.1377 3.80493 22.6433C3.80493 35.1488 13.8383 45.2866 26.215 45.2866Z" fill="#FFE37A"/>
<path d="M26.2151 39.2939C35.3154 39.2939 42.6927 31.8386 42.6927 22.6421C42.6927 13.4455 35.3154 5.99023 26.2151 5.99023C17.1148 5.99023 9.73755 13.4455 9.73755 22.6421C9.73755 31.8386 17.1148 39.2939 26.2151 39.2939Z" fill="#FCC62D"/>
<path d="M24.849 32.2352C23.8085 32.0918 22.8456 31.805 21.9449 31.3748C21.0441 30.9445 20.2676 30.4187 19.6309 29.7813L20.6403 28.2675C20.7335 28.14 20.8422 28.0285 20.9975 27.9329C21.1373 27.8532 21.2926 27.8054 21.4479 27.8054C21.6343 27.8054 21.8517 27.8691 22.0691 28.0125C22.2865 28.1559 22.535 28.3153 22.8301 28.5065C23.1096 28.6977 23.4358 28.8889 23.793 29.0642C24.1501 29.2554 24.585 29.3829 25.082 29.4785L25.5789 23.4871C24.9577 23.3118 24.3365 23.1046 23.7153 22.8497C23.0941 22.6107 22.5505 22.292 22.0536 21.8936C21.5566 21.4952 21.1684 20.9853 20.8733 20.3798C20.5782 19.7743 20.4229 19.0094 20.4229 18.1011C20.4229 17.4159 20.5627 16.7626 20.8267 16.1093C21.0907 15.456 21.479 14.8823 21.9914 14.3724C22.5039 13.8625 23.1407 13.4482 23.8861 13.1135C24.6316 12.7789 25.5013 12.6196 26.4642 12.6196L26.6039 10.9145C26.6195 10.6915 26.7126 10.5002 26.8679 10.3409C27.0232 10.1656 27.2407 10.0859 27.4891 10.0859H28.7005L28.4831 12.7152C29.4149 12.8745 30.2225 13.1295 30.9058 13.5119C31.5891 13.8943 32.1793 14.3246 32.6762 14.8026L31.8842 16.0137C31.76 16.189 31.6357 16.3324 31.5115 16.412C31.3872 16.5076 31.2319 16.5395 31.0611 16.5395C30.9213 16.5395 30.766 16.4917 30.5952 16.412C30.4088 16.3324 30.2069 16.2208 29.974 16.1093C29.741 15.9818 29.477 15.8703 29.1975 15.7428C28.9179 15.6153 28.6073 15.5197 28.2501 15.44L27.7842 20.9853C28.421 21.1765 29.0422 21.3996 29.6789 21.6386C30.3001 21.8777 30.8592 22.1804 31.3562 22.5629C31.8531 22.9453 32.2569 23.4074 32.5675 23.9651C32.8781 24.5228 33.0334 25.224 33.0334 26.0526C33.0334 26.8812 32.8937 27.662 32.6296 28.395C32.3501 29.128 31.9618 29.7654 31.4338 30.3231C30.9058 30.8808 30.2691 31.327 29.4925 31.6775C28.7316 32.0281 27.8463 32.2352 26.8524 32.299L26.6971 34.259C26.6816 34.4661 26.5884 34.6573 26.4331 34.8326C26.2778 35.0079 26.0604 35.0876 25.8119 35.0876H24.6005L24.849 32.2352ZM23.5134 17.7984C23.5134 18.133 23.5755 18.4357 23.6842 18.6907C23.793 18.9457 23.9638 19.1847 24.1657 19.3759C24.3676 19.5831 24.6161 19.7583 24.8956 19.9177C25.1751 20.077 25.4857 20.2204 25.8274 20.332L26.2312 15.3763C25.7498 15.44 25.3304 15.5516 24.9888 15.695C24.6471 15.8384 24.3676 16.0296 24.1346 16.2368C23.9172 16.4439 23.7464 16.6829 23.6532 16.9538C23.56 17.2247 23.5134 17.5115 23.5134 17.7984ZM29.9429 26.5625C29.9429 26.2278 29.8808 25.9251 29.7566 25.6701C29.6323 25.4152 29.477 25.1921 29.2596 25.0009C29.0422 24.8097 28.7937 24.6344 28.4986 24.491C28.2035 24.3475 27.8929 24.2201 27.5513 24.1085L27.1009 29.5423C28.0327 29.4148 28.7471 29.0961 29.2285 28.5862C29.71 28.0603 29.9429 27.3911 29.9429 26.5625Z" fill="white"/>
</svg>
