<svg width="371" height="425" viewBox="0 0 371 425" fill="none" xmlns="http://www.w3.org/2000/svg">
<path d="M124.366 299.73C124.447 299.573 146.209 257.426 186.349 270.523C226.561 283.648 215.979 315.754 215.979 315.754C215.979 315.754 226.518 314.438 238.13 317.674C239.869 316.798 241.824 315.992 244.02 315.275C252.325 312.563 259.379 313.61 265.11 316.242C265.15 316.26 265.19 316.28 265.229 316.299C265.463 316.407 265.695 316.515 265.924 316.629C265.992 316.662 266.058 316.699 266.126 316.733C266.39 316.867 266.652 317.003 266.91 317.142C277.469 322.848 283.028 333.628 283.048 333.667C283.048 333.667 284.38 320.344 295.991 321.295C307.055 322.201 303.601 336.927 299.133 341.277C301.896 338.994 312.695 331.07 319.784 340.138C326.768 349.069 312.842 351.77 308.596 352.371C312.733 351.944 326.592 351.26 331.588 360.472C337.489 371.357 327.398 376.686 327.398 376.686C327.398 376.686 340.915 371.357 344.532 378.399C345.262 379.821 344.944 381.156 343.973 382.384C361.018 386.711 370.909 391.757 371 397.097C371.005 412.654 287.085 424.681 185.499 424.725C83.9111 424.68 -0.00514173 412.655 2.36293e-07 397.097C0.10018 391.219 12.076 385.696 32.3975 381.097C27.6753 378.194 24.6982 374.692 26.7061 370.783C32.4465 359.607 53.881 368.048 53.9199 368.063C53.8834 368.044 37.9031 359.578 47.2666 342.308C55.2027 327.672 77.2245 328.763 83.79 329.441C77.0509 328.488 54.9194 324.2 66.0146 310.011C77.2742 295.607 94.4246 308.19 98.8154 311.817C91.719 304.906 86.2329 281.52 103.807 280.08C122.203 278.573 124.355 299.622 124.366 299.73Z" fill="url(#paint0_linear_246_829)"/>
<path d="M304.433 157.735C226.448 115.194 148.468 70.6358 72.2472 25.0157C150.238 67.5444 228.205 112.127 304.433 157.735ZM33.0116 209.656C122.672 192.369 213.64 176.636 303.904 162.844C214.247 180.145 123.274 195.851 33.0116 209.656ZM67.1945 28.2097C56.3236 88.0144 43.6859 147.495 29.2598 206.544C40.1161 146.737 52.7823 87.2624 67.1945 28.2097Z" fill="#EEEEEE"/>
<path d="M308.598 190.596C298.994 190.596 290.171 185.761 284.998 177.661C282.126 173.175 280.607 167.967 280.607 162.603C280.607 147.167 293.164 134.608 308.598 134.608C324.036 134.608 336.595 147.167 336.595 162.603C336.595 167.967 335.077 173.175 332.203 177.664C327.024 185.761 318.199 190.596 308.598 190.596Z" fill="#BDBDBD"/>
<path d="M334.213 162.602C334.213 167.67 332.743 172.401 330.197 176.379C325.646 183.494 317.676 188.213 308.598 188.213C299.52 188.213 291.551 183.494 287.006 176.379C284.46 172.401 282.99 167.67 282.99 162.602C282.99 148.458 294.453 136.991 308.598 136.991C322.744 136.991 334.213 148.458 334.213 162.602Z" fill="#EEEEEE"/>
<path d="M317.534 156.051C317.534 160.656 313.535 164.389 308.6 164.389C303.666 164.389 299.666 160.656 299.666 156.051C299.666 151.445 303.666 147.712 308.6 147.712C313.535 147.712 317.534 151.445 317.534 156.051Z" fill="#BDBDBD"/>
<path d="M330.638 176.304C325.994 183.465 317.861 188.213 308.597 188.213C299.333 188.213 291.201 183.465 286.562 176.304C290.921 169.569 298.374 164.965 306.939 164.439C307.491 164.408 308.038 164.389 308.597 164.389C309.156 164.389 309.709 164.408 310.262 164.439C318.826 164.971 326.273 169.57 330.638 176.304Z" fill="#BDBDBD"/>
<path d="M29.2213 227.403C23.0851 227.403 17.4482 224.314 14.143 219.138C12.3084 216.272 11.3379 212.944 11.3379 209.516C11.3379 199.653 19.3605 191.629 29.2211 191.629C39.0841 191.629 47.1084 199.653 47.1084 209.516C47.1084 212.944 46.1384 216.272 44.3025 219.14C40.9933 224.314 35.3553 227.403 29.2213 227.403Z" fill="#BDBDBD"/>
<path d="M45.5243 209.516C45.5243 212.742 44.5888 215.753 42.9684 218.285C40.0718 222.814 34.9996 225.818 29.222 225.818C23.4445 225.818 18.3723 222.814 15.4796 218.285C13.8589 215.753 12.9238 212.742 12.9238 209.516C12.9238 200.513 20.219 193.214 29.222 193.214C38.2249 193.214 45.5243 200.513 45.5243 209.516Z" fill="#EEEEEE"/>
<path d="M34.8137 205.286C34.8137 208.374 32.3103 210.877 29.2224 210.877C26.1341 210.877 23.6309 208.374 23.6309 205.286C23.6309 202.198 26.1343 199.694 29.2224 199.694C32.3103 199.694 34.8137 202.198 34.8137 205.286Z" fill="#BDBDBD"/>
<path d="M42.9673 218.285C40.0707 222.815 34.9985 225.818 29.221 225.818C23.4434 225.818 18.3712 222.815 15.4785 218.285C18.1968 214.025 22.8451 211.113 28.1865 210.78C28.5314 210.76 28.8722 210.749 29.221 210.749C29.5697 210.749 29.9144 210.76 30.2591 210.78C35.6007 211.117 40.2452 214.025 42.9673 218.285Z" fill="#BDBDBD"/>
<path d="M68.0901 42.8183C60.7457 42.8183 53.9991 39.1203 50.0431 32.926C47.8471 29.4953 46.6855 25.5122 46.6855 21.4093C46.6855 9.60428 56.2876 0 68.0899 0C79.8949 0 89.4991 9.60428 89.4991 21.4093C89.4991 25.5119 88.3381 29.4952 86.141 32.9277C82.18 39.1206 75.4319 42.8183 68.0901 42.8183Z" fill="#BDBDBD"/>
<path d="M87.6013 21.4092C87.6013 25.27 86.4818 28.8745 84.5422 31.9052C81.0752 37.3259 75.0044 40.9213 68.0892 40.9213C61.174 40.9213 55.1031 37.3259 51.6409 31.9052C49.7013 28.8745 48.582 25.27 48.582 21.4092C48.582 10.6338 57.3135 1.89722 68.0892 1.89722C78.8649 1.89722 87.6013 10.6338 87.6013 21.4092Z" fill="#EEEEEE"/>
<path d="M74.7832 16.3463C74.7832 20.0423 71.7871 23.0386 68.0911 23.0386C64.3947 23.0386 61.3984 20.0423 61.3984 16.3463C61.3984 12.6502 64.3947 9.65369 68.0911 9.65369C71.7871 9.65369 74.7832 12.6502 74.7832 16.3463Z" fill="#BDBDBD"/>
<path d="M84.5419 31.9053C81.0749 37.326 75.0041 40.9213 68.0889 40.9213C61.1737 40.9213 55.1028 37.326 51.6406 31.9053C54.8942 26.8066 60.4578 23.3207 66.8509 22.922C67.2636 22.8985 67.6716 22.8844 68.089 22.8844C68.5065 22.8844 68.9189 22.8985 69.3316 22.922C75.7247 23.3255 81.2837 26.8066 84.5419 31.9053Z" fill="#BDBDBD"/>
<path opacity="0.5" d="M303.52 344.686C304.757 344.686 305.759 343.039 305.759 341.008C305.759 338.976 304.757 337.329 303.52 337.329C302.284 337.329 301.281 338.976 301.281 341.008C301.281 343.039 302.284 344.686 303.52 344.686Z" fill="#BDBDBD"/>
<path opacity="0.5" d="M314.554 360.838C314.554 362.869 313.551 364.516 312.315 364.516C311.079 364.516 310.076 362.869 310.076 360.838C310.076 358.807 311.079 357.16 312.315 357.16C313.552 357.16 314.554 358.806 314.554 360.838ZM324.755 364.002C324.755 365.017 324.254 365.841 323.636 365.841C323.017 365.841 322.516 365.017 322.516 364.002C322.516 362.986 323.017 362.163 323.636 362.163C324.254 362.162 324.755 362.986 324.755 364.002ZM295.363 346.765C295.363 347.294 293.645 347.724 291.525 347.724C289.405 347.724 287.687 347.294 287.687 346.765C287.687 346.235 289.405 345.805 291.525 345.805C293.645 345.805 295.363 346.235 295.363 346.765ZM283.129 355.88C283.129 356.587 282.556 357.16 281.85 357.16C281.143 357.16 280.57 356.587 280.57 355.88C280.57 355.174 281.143 354.601 281.85 354.601C282.556 354.601 283.129 355.174 283.129 355.88ZM292.805 328.483C292.805 329.189 292.232 329.762 291.525 329.762C290.819 329.762 290.246 329.189 290.246 328.483C290.246 327.776 290.818 327.203 291.525 327.203C292.232 327.203 292.805 327.776 292.805 328.483ZM294.082 364.803C293.815 365.714 291.878 365.949 289.757 365.326C287.636 364.704 286.132 363.461 286.4 362.55C286.667 361.639 288.604 361.405 290.725 362.027C292.846 362.649 294.349 363.892 294.082 364.803ZM309.599 372.456C309.332 373.367 307.396 373.601 305.274 372.979C303.153 372.356 301.65 371.113 301.917 370.202C302.185 369.291 304.121 369.057 306.242 369.679C308.364 370.302 309.867 371.545 309.599 372.456Z" fill="#BDBDBD"/>
<path opacity="0.5" d="M170.459 281.523C170.459 283.865 169.303 285.764 167.877 285.764C166.452 285.764 165.296 283.865 165.296 281.523C165.296 279.181 166.452 277.282 167.877 277.282C169.303 277.282 170.459 279.181 170.459 281.523ZM180.599 304.386C180.599 306.728 179.444 308.626 178.018 308.626C176.592 308.626 175.437 306.728 175.437 304.386C175.437 302.043 176.592 300.145 178.018 300.145C179.444 300.145 180.599 302.044 180.599 304.386ZM129.158 302.561C129.158 304.904 128.003 306.802 126.577 306.802C125.152 306.802 123.996 304.904 123.996 302.561C123.996 300.22 125.152 298.321 126.577 298.321C128.003 298.321 129.158 300.22 129.158 302.561Z" fill="#BDBDBD"/>
<path opacity="0.5" d="M129.159 345.985C130.585 345.985 131.741 344.087 131.741 341.745C131.741 339.403 130.585 337.504 129.159 337.504C127.734 337.504 126.578 339.403 126.578 341.745C126.578 344.087 127.734 345.985 129.159 345.985Z" fill="#BDBDBD"/>
<path opacity="0.5" d="M158.475 288.161C158.475 288.772 156.494 289.267 154.051 289.267C151.607 289.267 149.626 288.772 149.626 288.161C149.626 287.55 151.607 287.054 154.051 287.054C156.494 287.054 158.475 287.55 158.475 288.161ZM110.408 335.017C110.408 335.628 108.427 336.124 105.983 336.124C103.54 336.124 101.559 335.628 101.559 335.017C101.559 334.406 103.54 333.911 105.983 333.911C108.427 333.911 110.408 334.406 110.408 335.017ZM144.979 360.669C144.979 361.279 142.998 361.775 140.554 361.775C138.11 361.775 136.129 361.279 136.129 360.669C136.129 360.058 138.11 359.562 140.554 359.562C142.998 359.562 144.979 360.058 144.979 360.669Z" fill="#BDBDBD"/>
<path opacity="0.5" d="M142.895 300.145C143.71 300.145 144.37 299.485 144.37 298.67C144.37 297.856 143.71 297.195 142.895 297.195C142.08 297.195 141.42 297.856 141.42 298.67C141.42 299.485 142.08 300.145 142.895 300.145Z" fill="#BDBDBD"/>
<path opacity="0.5" d="M111.883 290.742C112.698 290.742 113.358 290.082 113.358 289.267C113.358 288.452 112.698 287.792 111.883 287.792C111.069 287.792 110.408 288.452 110.408 289.267C110.408 290.082 111.069 290.742 111.883 290.742Z" fill="#BDBDBD"/>
<path opacity="0.5" d="M151.1 332.436C151.1 333.251 150.44 333.911 149.625 333.911C148.81 333.911 148.15 333.251 148.15 332.436C148.15 331.622 148.81 330.961 149.625 330.961C150.44 330.961 151.1 331.622 151.1 332.436ZM156.998 308.957C156.69 310.008 154.457 310.278 152.012 309.56C149.566 308.843 147.833 307.409 148.141 306.359C148.449 305.309 150.682 305.039 153.127 305.756C155.573 306.474 157.306 307.907 156.998 308.957ZM229.924 342.978C229.924 345.32 228.769 347.219 227.343 347.219C225.917 347.219 224.762 345.32 224.762 342.978C224.762 340.636 225.917 338.738 227.343 338.738C228.768 338.738 229.924 340.636 229.924 342.978ZM240.065 365.841C240.065 368.183 238.909 370.081 237.484 370.081C236.058 370.081 234.902 368.183 234.902 365.841C234.902 363.499 236.058 361.6 237.484 361.6C238.909 361.6 240.065 363.499 240.065 365.841Z" fill="#BDBDBD"/>
<path opacity="0.5" d="M186.499 352.75C187.925 352.75 189.081 350.851 189.081 348.509C189.081 346.167 187.925 344.269 186.499 344.269C185.074 344.269 183.918 346.167 183.918 348.509C183.918 350.851 185.074 352.75 186.499 352.75Z" fill="#BDBDBD"/>
<path opacity="0.5" d="M226.504 352.75C226.504 353.361 224.523 353.856 222.079 353.856C219.635 353.856 217.654 353.361 217.654 352.75C217.654 352.139 219.635 351.644 222.079 351.644C224.523 351.644 226.504 352.139 226.504 352.75Z" fill="#BDBDBD"/>
<path opacity="0.5" d="M224.762 327.203C225.577 327.203 226.237 326.543 226.237 325.728C226.237 324.913 225.577 324.253 224.762 324.253C223.947 324.253 223.287 324.913 223.287 325.728C223.287 326.543 223.947 327.203 224.762 327.203Z" fill="#BDBDBD"/>
<path opacity="0.5" d="M224.726 370.413C224.418 371.463 222.186 371.733 219.74 371.015C217.294 370.298 215.561 368.865 215.869 367.814C216.178 366.764 218.41 366.494 220.856 367.211C223.302 367.929 225.035 369.362 224.726 370.413Z" fill="#BDBDBD"/>
<path opacity="0.5" d="M167.88 369.699C169.306 369.699 170.461 367.801 170.461 365.459C170.461 363.117 169.306 361.218 167.88 361.218C166.455 361.218 165.299 363.117 165.299 365.459C165.299 367.801 166.455 369.699 167.88 369.699Z" fill="#BDBDBD"/>
<path opacity="0.5" d="M111.147 355.88C111.147 358.222 109.991 360.121 108.566 360.121C107.14 360.121 105.984 358.222 105.984 355.88C105.984 353.538 107.14 351.64 108.566 351.64C109.991 351.64 111.147 353.538 111.147 355.88Z" fill="#BDBDBD"/>
<path opacity="0.5" d="M66.841 358.961C69.2849 358.961 71.2661 358.465 71.2661 357.854C71.2661 357.243 69.2849 356.748 66.841 356.748C64.3972 356.748 62.416 357.243 62.416 357.854C62.416 358.465 64.3972 358.961 66.841 358.961Z" fill="#BDBDBD"/>
<path opacity="0.5" d="M83.4438 364.031C84.2584 364.031 84.9188 363.371 84.9188 362.556C84.9188 361.741 84.2584 361.081 83.4438 361.081C82.6291 361.081 81.9688 361.741 81.9688 362.556C81.9688 363.371 82.6291 364.031 83.4438 364.031Z" fill="#BDBDBD"/>
<path opacity="0.5" d="M97.5476 372.843C97.2395 373.894 95.0069 374.163 92.561 373.446C90.1153 372.729 88.3824 371.295 88.6904 370.245C88.9985 369.195 91.2311 368.925 93.677 369.642C96.1229 370.36 97.8558 371.793 97.5476 372.843ZM176.871 340.037C176.563 341.087 174.33 341.357 171.885 340.639C169.439 339.922 167.706 338.489 168.014 337.438C168.322 336.388 170.555 336.118 173.001 336.836C175.446 337.553 177.179 338.986 176.871 340.037ZM81.2226 340.037C80.9145 341.087 78.6819 341.357 76.2362 340.639C73.7904 339.922 72.0574 338.489 72.3656 337.438C72.6737 336.388 74.9062 336.118 77.352 336.836C79.7977 337.553 81.5308 338.986 81.2226 340.037ZM107.644 320.12C107.335 321.17 105.103 321.44 102.657 320.723C100.211 320.005 98.4785 318.572 98.7865 317.521C99.0946 316.471 101.327 316.201 103.773 316.919C106.219 317.636 107.952 319.069 107.644 320.12Z" fill="#BDBDBD"/>
<path d="M311.711 287.39C311.711 287.39 306.33 292.097 304.943 295.154C303.559 298.204 300.867 299.839 300.867 299.839L297.784 299.024L298.589 302.031C293.178 305.548 286.75 303.098 285.214 302.42C283.883 295.347 292.624 290.884 299.106 288.253C305.581 285.627 311.711 287.39 311.711 287.39Z" fill="#EEEEEE"/>
<path d="M304.804 289.642C301.097 291.174 297.52 293.015 294.101 295.118C290.71 297.254 287.431 299.651 284.739 302.666L284.23 303.226C284.058 303.411 283.919 303.623 283.761 303.821L282.844 305.028C282.288 305.864 281.718 306.692 281.184 307.542C280.735 308.248 280.301 308.964 279.869 309.681C279.977 309.786 280.086 309.889 280.197 309.991C280.642 309.248 281.092 308.508 281.556 307.777C282.076 306.923 282.632 306.091 283.173 305.251L284.058 304.053C284.21 303.856 284.344 303.645 284.511 303.461L285.006 302.902C287.629 299.895 290.864 297.471 294.219 295.307C297.595 293.16 301.141 291.268 304.82 289.683L304.804 289.642Z" fill="#BDBDBD"/>
<path d="M147.363 244.361C147.363 244.361 144.466 249.929 144.309 252.871C144.151 255.808 142.472 258.004 142.472 258.004L139.691 258.323L141.31 260.524C138.008 265.129 131.97 265.179 130.497 265.115C127.15 259.756 132.871 253.315 137.332 249.093C141.787 244.878 147.363 244.361 147.363 244.361Z" fill="#EEEEEE"/>
<path d="M142.43 248.409C139.888 250.846 137.551 253.494 135.427 256.306C133.337 259.136 131.422 262.142 130.183 265.468L129.945 266.089C129.864 266.295 129.818 266.513 129.752 266.725L129.388 268.005C129.2 268.866 128.999 269.725 128.834 270.591C128.692 271.312 128.565 272.035 128.441 272.759C128.563 272.811 128.685 272.861 128.808 272.908C128.935 272.159 129.067 271.41 129.213 270.664C129.365 269.799 129.554 268.942 129.728 268.081L130.069 266.819C130.131 266.61 130.172 266.395 130.25 266.19L130.476 265.575C131.661 262.279 133.532 259.264 135.584 256.422C137.659 253.588 139.954 250.909 142.456 248.437L142.43 248.409Z" fill="#BDBDBD"/>
<path d="M110.162 246.068C110.162 246.068 112.347 250.267 112.465 252.485C112.584 254.699 113.85 256.356 113.85 256.356L115.947 256.596L114.726 258.256C117.216 261.727 121.769 261.765 122.88 261.717C125.403 257.676 121.089 252.82 117.726 249.637C114.367 246.458 110.162 246.068 110.162 246.068Z" fill="#EEEEEE"/>
<path d="M113.881 249.121C115.797 250.958 117.56 252.955 119.161 255.075C120.738 257.209 122.182 259.476 123.116 261.984L123.295 262.452C123.356 262.607 123.391 262.772 123.44 262.931L123.715 263.896C123.857 264.546 124.008 265.193 124.133 265.846C124.24 266.39 124.336 266.935 124.429 267.481C124.337 267.52 124.245 267.558 124.152 267.594C124.057 267.029 123.957 266.464 123.847 265.902C123.732 265.249 123.59 264.603 123.459 263.954L123.202 263.002C123.155 262.845 123.124 262.683 123.065 262.528L122.895 262.065C122.001 259.579 120.591 257.306 119.043 255.163C117.479 253.026 115.748 251.005 113.861 249.142L113.881 249.121Z" fill="#BDBDBD"/>
<path d="M26.0052 347.174C27.7106 345.958 29.3059 346.169 30.4091 347.042C31.4771 347.978 32.5581 349.465 32.7711 350.809C33.0577 352.068 30.7312 353.471 27.5167 352.523C24.2874 351.466 24.2356 348.328 26.0052 347.174ZM28.6704 334.76C30.6322 334.026 31.793 334.984 32.9591 335.77C37.4156 338.775 38.1633 345.696 38.0219 347.05C37.9736 348.34 30.9038 343.945 28.0434 342.198C25.1966 340.343 25.4124 335.566 28.6704 334.76Z" fill="#EEEEEE"/>
<path d="M93.3305 232.232C92.072 234.93 131.266 212.287 130.683 210.164C130.1 208.04 96.3622 225.731 93.3305 232.232Z" fill="#EEEEEE"/>
<path fill-rule="evenodd" clip-rule="evenodd" d="M151.535 194.36C127.56 200.444 104.235 212.15 83.448 230.096C60.3352 193.149 41.1793 151.603 27.4609 107.131C57.1446 87.9278 89.5983 76.0677 122.882 70.9955C126.423 113.801 136.392 155.576 151.535 194.36Z" fill="#BDBDBD"/>
<g opacity="0.35">
<path fill-rule="evenodd" clip-rule="evenodd" d="M73.8061 100.973C62.99 105.455 52.4041 110.803 42.1367 117.04C41.4635 114.927 40.8026 112.807 40.1543 110.68C50.5905 104.449 61.3458 99.1137 72.3322 94.6532C72.81 96.7651 73.3013 98.872 73.8061 100.973ZM119.184 117.872C96.0914 123.536 73.6059 133.11 52.6419 146.869C49.294 138.207 46.1579 129.406 43.2457 120.479C65.7356 106.69 89.7695 97.2318 114.427 91.8358C115.759 100.584 117.348 109.269 119.184 117.872ZM86.5953 145.036C76.9436 149.577 67.5153 154.934 58.3971 161.13C57.5529 159.124 56.7203 157.11 55.899 155.088C65.1724 148.878 74.7577 143.513 84.5671 138.972C85.2306 141 85.9066 143.021 86.5953 145.036ZM130.492 160.517C119.208 163.715 108.097 168.009 97.3027 173.451C93.8991 165.207 90.7035 156.823 87.7285 148.315C99.3027 142.823 111.202 138.52 123.282 135.357C125.45 143.842 127.857 152.234 130.492 160.517ZM93.3013 175.529C85.7751 179.552 78.415 184.145 71.2739 189.32C67.249 181.171 63.4145 172.857 59.7836 164.393C67.4622 159.134 75.3647 154.479 83.4374 150.413C86.5113 158.919 89.8035 167.296 93.3013 175.529ZM140.267 188.114C121.214 193.882 102.694 203.165 85.6062 216.256C81.1676 208.495 76.9049 200.554 72.8313 192.447C91.226 179.023 111.089 169.535 131.517 163.698C134.211 171.953 137.131 180.097 140.267 188.114Z" fill="white"/>
</g>
<path d="M59.3591 134.237C57.6064 129.089 55.9277 124.444 54.3145 120.241C54.9423 119.813 55.5722 119.392 56.2041 118.976C58.3006 120.716 60.3891 122.679 62.4665 124.877C61.9582 123.598 61.4541 122.355 60.9536 121.148C60.4369 119.696 59.9262 118.289 59.4215 116.927C60.1566 116.474 60.8954 116.028 61.6379 115.59C63.2152 119.91 64.8546 124.681 66.5637 129.968C65.9863 130.281 65.4114 130.6 64.839 130.924C62.6343 128.241 60.4205 125.844 58.2018 123.716C58.6802 124.887 59.1626 126.09 59.6489 127.328C60.2699 129.105 60.9009 130.95 61.5426 132.866C60.8115 133.313 60.0836 133.77 59.3591 134.237ZM70.8055 127.518C69.116 122.142 67.4942 117.289 65.932 112.895C67.7954 111.891 69.6867 110.931 71.6065 110.016C71.8023 110.584 71.9986 111.16 72.1962 111.743C71.148 112.236 70.1087 112.742 69.078 113.261C69.5257 114.56 69.9778 115.897 70.4349 117.273C71.412 116.796 72.3973 116.33 73.3906 115.877C73.595 116.504 73.8005 117.138 74.0069 117.78C73.0145 118.226 72.0304 118.683 71.0543 119.154C71.579 120.759 72.1108 122.418 72.6492 124.132C73.7114 123.64 74.7837 123.163 75.8661 122.703C76.0918 123.434 76.3186 124.176 76.547 124.929C74.6014 125.739 72.6876 126.603 70.8055 127.518ZM82.2884 123.194C79.9426 117.815 77.6202 113.039 75.3238 108.799C76.1267 108.446 76.9354 108.099 77.7499 107.76C79.2877 110.82 80.8384 114.138 82.4015 117.74C81.8078 113.782 81.2657 110.058 80.771 106.546C81.5232 106.254 82.2805 105.968 83.0434 105.688C84.7312 108.794 86.4282 112.172 88.1326 115.848C87.3938 111.87 86.6975 108.137 86.04 104.628C86.9151 104.33 87.7978 104.039 88.6881 103.756C89.449 108.841 90.2972 114.379 91.2454 120.436C90.2763 120.692 89.3166 120.958 88.3664 121.235C86.7186 117.49 85.0803 114.033 83.4529 110.843C83.9283 114.434 84.4508 118.235 85.0252 122.265C84.105 122.564 83.1927 122.874 82.2884 123.194ZM95.8492 113.105C95.7027 112.589 95.5563 112.077 95.4107 111.57C96.3903 111.336 97.3801 111.111 98.3806 110.896C98.5453 111.475 98.7106 112.062 98.8766 112.654C99.1555 113.65 99.4512 114.34 99.7627 114.715C100.076 115.093 100.507 115.231 101.058 115.131C101.612 115.03 101.935 114.792 102.023 114.412C102.11 114.035 102.049 113.459 101.837 112.691C101.628 111.931 101.285 111.308 100.806 110.82C100.331 110.338 99.6637 109.877 98.8007 109.447C98.1639 109.13 97.5283 108.823 96.8942 108.524C96.0153 108.103 95.2875 107.64 94.7131 107.127C94.1456 106.621 93.7421 105.982 93.5071 105.209C93.131 103.974 93.1705 102.986 93.6428 102.224C94.1102 101.47 95.1505 100.869 96.7777 100.455C98.4217 100.038 99.6635 100.118 100.465 100.679C101.28 101.248 101.893 102.234 102.306 103.645C102.403 103.974 102.5 104.306 102.597 104.639C101.573 104.842 100.561 105.053 99.5597 105.273C99.4484 104.894 99.3372 104.517 99.2259 104.143C99.0024 103.39 98.7535 102.877 98.4792 102.599C98.2072 102.323 97.8192 102.246 97.3197 102.369C96.8216 102.49 96.5008 102.699 96.3563 102.991C96.211 103.285 96.2125 103.671 96.3585 104.155C96.5054 104.642 96.7335 105.007 97.042 105.249C97.3527 105.493 97.8686 105.779 98.5872 106.119C99.3113 106.468 100.037 106.827 100.765 107.197C101.875 107.762 102.77 108.406 103.449 109.118C104.139 109.84 104.616 110.696 104.884 111.68C105.359 113.417 105.357 114.784 104.904 115.749C104.443 116.724 103.371 117.335 101.7 117.619C100.046 117.902 98.7912 117.645 97.893 116.835C97.0128 116.04 96.3293 114.793 95.8492 113.105Z" fill="#BDBDBD"/>
<path d="M299.054 0.931885C297.194 1.71126 327.155 8.2164 327.83 6.88629C328.506 5.55617 303.535 -0.945668 299.054 0.931885Z" fill="#EEEEEE"/>
<path fill-rule="evenodd" clip-rule="evenodd" d="M251.455 95.7763C269.513 95.0766 287.914 98.2615 305.393 106.12C316.643 76.8438 324.397 45.2822 327.832 12.8456C303.796 5.91546 278.831 4.44119 254.248 7.66667C257.866 36.9676 256.73 66.857 251.455 95.7763Z" fill="#F7F7F7"/>
<g opacity="0.35">
<path fill-rule="evenodd" clip-rule="evenodd" d="M263.243 18.0028C271.674 17.6421 280.234 17.0385 288.709 17.9668C288.665 16.4115 288.612 14.8557 288.548 13.2992C279.96 12.425 271.288 13.088 262.745 13.5127C262.922 15.0087 263.087 16.5055 263.243 18.0028ZM263.64 38.2484C281.005 37.4433 298.497 39.371 315.501 44.397C316.655 37.9452 317.637 31.4419 318.44 24.8996C300.338 20.1569 281.753 18.6141 263.304 19.9092C263.608 26.0182 263.718 32.1358 263.64 38.2484ZM290.903 49.9195C298.474 51.035 306.001 52.7403 313.427 55.0677C313.744 53.56 314.051 52.0492 314.349 50.5351C306.809 48.2291 299.168 46.5499 291.485 45.4653C291.301 46.9519 291.107 48.4368 290.903 49.9195ZM261.669 68.9852C270.216 68.8789 278.797 69.5394 287.316 71.0301C288.57 64.8465 289.654 58.6106 290.562 52.335C281.477 50.9659 272.33 50.4565 263.218 50.7435C262.885 56.8428 262.367 62.9278 261.669 68.9852ZM290.483 71.6232C296.455 72.8156 302.391 74.421 308.253 76.4596C309.966 70.2152 311.518 63.8991 312.903 57.5228C306.643 55.5358 300.31 53.9962 293.94 52.8841C292.96 59.1775 291.805 65.4279 290.483 71.6232ZM258.633 89.3643C273.118 89.4315 287.726 91.9525 301.855 97.3022C303.92 91.2354 305.833 85.0832 307.587 78.8576C292.473 73.5452 276.872 71.154 261.392 71.3138C260.649 77.364 259.727 83.3853 258.633 89.3643Z" fill="white"/>
</g>
<path d="M272.868 33.49C272.826 30.1381 272.719 26.9667 272.551 23.9615C273.102 23.9309 273.653 23.9046 274.202 23.8829C275.264 25.6279 276.241 27.4548 277.131 29.3634C277.092 28.4874 277.047 27.6246 276.995 26.7747C276.991 25.7699 276.98 24.782 276.962 23.8115C277.585 23.804 278.206 23.8023 278.826 23.8064C278.835 26.8278 278.776 30.0166 278.643 33.3864C278.192 33.3794 277.741 33.3759 277.289 33.3759C276.451 31.2615 275.514 29.2409 274.484 27.3146C274.541 28.1366 274.593 28.9704 274.64 29.8164C274.653 30.9924 274.657 32.1924 274.652 33.4167C274.059 33.4351 273.464 33.4595 272.868 33.49ZM281.955 33.3601C282.186 29.9751 282.339 26.7714 282.419 23.7355C283.917 23.8007 285.411 23.9006 286.899 24.0346C286.874 24.4254 286.849 24.8191 286.822 25.2154C286.018 25.1416 285.213 25.0781 284.406 25.0248C284.363 25.9114 284.314 26.8117 284.258 27.726C285.008 27.7783 285.757 27.8401 286.505 27.9108C286.472 28.3195 286.439 28.7314 286.403 29.1459C285.664 29.0745 284.922 29.0122 284.18 28.9592C284.111 29.9973 284.035 31.0536 283.949 32.1288C284.738 32.1889 285.526 32.2599 286.312 32.3418C286.268 32.7919 286.222 33.2452 286.174 33.7021C284.773 33.5522 283.366 33.4384 281.955 33.3601ZM290.07 34.4697C290.054 30.9974 289.891 27.7128 289.593 24.605C290.193 24.6757 290.792 24.7521 291.391 24.8342C291.509 27.0344 291.562 29.3208 291.548 31.6971C292.24 29.4309 292.917 27.2537 293.58 25.1602C294.117 25.2467 294.653 25.3376 295.19 25.4332C295.333 27.6704 295.404 29.9945 295.397 32.4092C296.047 30.1288 296.669 27.9365 297.266 25.8275C297.863 25.9478 298.46 26.0738 299.057 26.2058C298.064 29.1628 297.027 32.2889 295.943 35.5987C295.331 35.4579 294.719 35.3242 294.106 35.1978C294.145 32.838 294.113 30.5635 294.014 28.371C293.328 30.4254 292.628 32.5593 291.915 34.7768C291.3 34.6673 290.686 34.565 290.07 34.4697ZM300.468 33.2393C300.53 32.9387 300.591 32.6393 300.651 32.3415C301.253 32.5047 301.854 32.6748 302.456 32.8518C302.383 33.1882 302.309 33.5267 302.234 33.8666C302.108 34.4361 302.076 34.8566 302.139 35.1253C302.203 35.3952 302.394 35.5791 302.714 35.6795C303.034 35.7802 303.269 35.7517 303.42 35.5919C303.57 35.4327 303.698 35.1365 303.799 34.7042C303.9 34.2749 303.893 33.8729 303.776 33.4982C303.658 33.1258 303.431 32.7067 303.089 32.2445C302.834 31.902 302.576 31.5623 302.315 31.2255C301.952 30.7521 301.683 30.2983 301.51 29.8618C301.338 29.4276 301.294 28.9718 301.383 28.4942C301.525 27.7255 301.831 27.2125 302.316 26.9545C302.796 26.6985 303.55 26.7051 304.57 26.9949C305.591 27.2856 306.24 27.7108 306.506 28.2485C306.774 28.7913 306.812 29.4827 306.619 30.326C306.575 30.522 306.53 30.7183 306.484 30.9153C305.884 30.7197 305.284 30.5308 304.684 30.3486C304.733 30.1212 304.782 29.8948 304.83 29.6691C304.927 29.2135 304.941 28.8727 304.873 28.645C304.806 28.4185 304.617 28.2597 304.309 28.171C304.001 28.0823 303.764 28.0931 303.6 28.2024C303.435 28.3118 303.325 28.5149 303.266 28.8123C303.206 29.1109 303.226 29.3694 303.326 29.5872C303.426 29.8061 303.625 30.1075 303.917 30.4946C304.208 30.885 304.495 31.2791 304.778 31.6767C305.207 32.2787 305.495 32.8531 305.649 33.3956C305.805 33.9427 305.811 34.4919 305.674 35.043C305.433 36.0073 305.053 36.6604 304.553 37.0001C304.047 37.3424 303.324 37.3521 302.372 37.0484C301.421 36.7459 300.822 36.287 300.559 35.6507C300.299 35.0206 300.267 34.2157 300.468 33.2393Z" fill="#BDBDBD"/>
<path d="M311.032 224.279C313.473 232.128 315.761 239.488 317.915 246.403C318.024 246.754 317.816 247.185 317.452 247.369C306.251 253.019 294.672 257.722 282.703 261.485C282.316 261.607 281.866 261.442 281.699 261.115C278.418 254.659 274.927 247.786 271.204 240.458C271.096 240.247 271.09 240.011 271.167 239.806C271.167 239.806 271.167 239.806 271.169 239.803C271.237 239.621 271.369 239.464 271.554 239.367C283.844 233.018 296.783 227.761 310.02 223.741C310.211 223.683 310.407 223.702 310.574 223.776C310.611 223.79 310.645 223.808 310.674 223.827C310.681 223.832 310.684 223.833 310.684 223.833C310.844 223.931 310.97 224.088 311.032 224.279Z" fill="#EEEEEE"/>
<path d="M310.017 223.741C310.235 223.665 310.49 223.699 310.689 223.815L310.704 223.824L310.7 223.838C309.391 227.817 307.399 231.575 304.866 234.934C298.802 243.085 289.604 246.818 279.729 243.709C276.708 242.861 273.855 241.403 271.157 239.82L271.145 239.813C271.218 239.62 271.367 239.455 271.551 239.367C271.376 239.464 271.243 239.625 271.181 239.812L271.174 239.791C283.352 246.542 295.526 246.169 304.497 234.647C307.079 231.385 309.155 227.708 310.663 223.826L310.674 223.85C310.673 223.849 310.655 223.838 310.665 223.844C310.473 223.722 310.238 223.679 310.017 223.741Z" fill="#BDBDBD"/>
<path d="M289.645 244.946C289.645 244.946 292.841 239.021 300.886 240.149C300.886 240.149 298.157 246.516 289.645 244.946Z" fill="#EEEEEE"/>
<path d="M282.666 260.626C284.304 253.103 287.986 243.126 294.509 240.297C298.115 238.918 302.217 239.676 306.068 240.978C309.9 242.309 313.634 244.23 317.173 246.608C313.553 244.522 309.803 242.785 305.991 241.578C302.273 240.443 298.249 239.719 294.818 241.057C288.536 243.755 284.737 253.564 282.666 260.626Z" fill="#BDBDBD"/>
<path d="M56.7133 294.731C52.9709 300.087 49.4606 305.11 46.1646 309.83C45.9973 310.069 45.6249 310.149 45.3321 310.01C36.3276 305.723 27.7341 300.738 19.5404 295.051C19.2758 294.867 19.1601 294.504 19.2844 294.239C21.7433 289.034 24.3615 283.494 27.1521 277.586C27.2328 277.415 27.3777 277.296 27.5446 277.245C27.5446 277.245 27.5446 277.245 27.547 277.245C27.6948 277.199 27.8575 277.205 28.0083 277.274C37.9828 281.904 47.5867 287.475 56.5587 293.834C56.6882 293.925 56.7715 294.058 56.8066 294.199C56.816 294.229 56.8211 294.259 56.8233 294.287C56.8239 294.293 56.8244 294.295 56.8244 294.295C56.8408 294.444 56.8039 294.6 56.7133 294.731Z" fill="#EEEEEE"/>
<path d="M56.5599 293.834C56.7136 293.933 56.8166 294.11 56.8405 294.291L56.8423 294.306L56.8309 294.31C53.6939 295.425 50.3627 296.004 47.018 296.048C38.9437 296.207 32.1195 292.246 29.2641 284.527C28.3255 282.216 27.8523 279.713 27.5327 277.247L27.5312 277.236C27.6884 277.188 27.8644 277.202 28.0096 277.274C27.8635 277.212 27.6973 277.207 27.5496 277.258L27.5593 277.244C29.2479 288.183 35.4109 295.65 47.0191 295.676C50.326 295.71 53.6473 295.223 56.8208 294.281L56.8111 294.299C56.8113 294.299 56.8091 294.282 56.8103 294.291C56.7935 294.111 56.706 293.942 56.5599 293.834Z" fill="#BDBDBD"/>
<path d="M33.3145 291.358C33.3145 291.358 38.5938 290.481 41.8026 296.085C41.8026 296.085 36.4727 297.471 33.3145 291.358Z" fill="#EEEEEE"/>
<path d="M20.0645 294.609C25.5886 291.975 33.6505 289.43 38.6042 292.151C41.2271 293.745 42.7484 296.691 43.8055 299.746C44.8352 302.801 45.4463 306.083 45.6766 309.465C45.2234 306.174 44.4888 302.972 43.3912 299.989C42.2936 297.1 40.7892 294.219 38.2773 292.715C33.5228 290.082 25.5098 292.471 20.0645 294.609Z" fill="#BDBDBD"/>
<path d="M251.619 293.303C250.736 302.686 238.238 306.7 231.166 299.914C226.804 295.723 219.671 295.368 214.896 299.145L201.869 309.355C196.623 313.486 188.665 312.6 184.598 307.408L177.819 298.792C173.575 293.421 165.205 292.713 160.018 297.317L141.273 313.899C139.033 315.846 136.085 316.968 133.02 316.968H132.431C126.418 316.968 121.408 312.837 120.642 307.348C116.103 274.242 115.042 232.58 116.81 195.048C117.341 184.426 120.642 174.512 126.124 165.896C126.595 165.129 127.126 164.361 127.656 163.594C134.258 154.152 142.84 145.937 154.005 139.331C158.27 136.807 167.537 130.969 188.463 130.968C203.788 130.968 206.519 134.716 218.898 140.972C239.234 153.896 235.688 152.571 241.288 159.18C246.888 165.789 249.38 173.331 251.737 181.711C252.032 182.714 252.268 183.776 252.564 184.779C253.329 188.261 253.86 191.802 254.036 195.461C255.274 225.734 254.685 260.964 251.619 293.303Z" fill="#9A99EA"/>
<path d="M174.378 181.384C174.378 195.477 165.638 206.869 154.817 206.928C147.444 203.111 142.271 193.48 142.271 182.265C142.271 169.287 149.168 158.541 158.325 156.251C167.481 158.482 174.378 168.876 174.378 181.384Z" fill="#191A20"/>
<path d="M225.455 180.896C225.455 192.24 218.816 201.585 210.346 202.585C203.821 199.47 199.186 190.829 199.186 180.602C199.186 170.962 203.421 162.675 209.373 159.148C218.301 159.5 225.455 169.14 225.455 180.896Z" fill="#191A20"/>
<path d="M146.453 206.999C147.584 204.035 143.688 199.978 137.752 197.939C131.814 195.9 126.085 196.65 124.953 199.615C123.822 202.579 127.718 206.636 133.655 208.675C139.592 210.714 145.322 209.964 146.453 206.999Z" fill="#8C8BE2"/>
<path d="M238.449 210.123C244.385 208.084 248.282 204.028 247.15 201.064C246.021 198.099 240.29 197.348 234.354 199.387C228.416 201.426 224.519 205.482 225.65 208.447C226.781 211.412 232.511 212.162 238.449 210.123Z" fill="#8C8BE2"/>
<path d="M244.663 149.58L144.425 138.025C141.783 137.721 139.389 139.661 139.078 142.359L139.067 142.454C138.756 145.152 140.645 147.586 143.288 147.891L243.525 159.445C246.168 159.75 248.562 157.81 248.873 155.112L248.884 155.016C249.195 152.318 247.305 149.884 244.663 149.58Z" fill="#FBA223"/>
<path d="M194.399 94.6729L205.434 95.9448C216.541 97.2251 226.686 102.853 233.637 111.59C240.588 120.328 243.776 131.459 242.499 142.535L241.726 149.241L146.933 138.315L147.706 131.609C148.982 120.532 154.619 110.418 163.376 103.492C172.133 96.5647 183.292 93.3926 194.399 94.6729Z" fill="#FBB757"/>
<path d="M211.023 90.5045L190.646 88.1556C189.583 88.0372 188.514 88.3256 187.654 88.963C186.795 89.6003 186.21 90.5392 186.015 91.5908L176.527 141.726L212.558 145.879L214.751 94.9032C214.801 93.835 214.444 92.7874 213.753 91.9713C213.061 91.1552 212.086 90.6311 211.023 90.5045Z" fill="#FBA223"/>
<path d="M212.425 145.864L214.006 106.929L218.135 146.522L212.425 145.864Z" fill="#FB8E3B"/>
<path d="M176.377 141.709L183.552 103.419L170.953 141.084L176.377 141.709Z" fill="#FB8E3B"/>
<defs>
<linearGradient id="paint0_linear_246_829" x1="185.5" y1="368.444" x2="185.5" y2="424.725" gradientUnits="userSpaceOnUse">
<stop stop-color="#E5E5E5"/>
<stop offset="1" stop-color="#EEEEEE" stop-opacity="0"/>
</linearGradient>
</defs>
</svg>
