<svg width="720" height="720" viewBox="0 0 720 720" fill="none" xmlns="http://www.w3.org/2000/svg">
<g clip-path="url(#clip0_507_714)">
<rect width="720" height="720" fill="#191A20"/>
<g filter="url(#filter0_f_507_714)">
<circle cx="360" cy="360" r="187" fill="#9A99EA"/>
</g>
<path d="M567.491 713.705C564.697 743.397 525.147 756.098 502.768 734.625C488.963 721.364 466.393 720.24 451.283 732.193L410.059 764.501C393.459 777.572 368.277 774.771 355.405 758.34L333.954 731.075C320.524 714.079 294.036 711.838 277.621 726.407L218.303 778.88C211.216 785.041 201.889 788.591 192.189 788.591H190.324C171.298 788.591 155.443 775.52 153.018 758.15C138.654 653.388 135.297 521.548 140.893 402.779C142.571 369.166 153.018 337.793 170.365 310.528C171.857 308.101 173.536 305.673 175.215 303.246C196.107 273.366 223.264 247.37 258.593 226.465C272.092 218.477 301.415 200.003 367.635 200C416.133 200 424.775 211.861 463.947 231.657C528.299 272.557 517.077 268.362 534.799 289.277C552.52 310.192 560.406 334.057 567.864 360.575C568.799 363.75 569.545 367.111 570.48 370.286C572.901 381.304 574.582 392.508 575.139 404.087C579.057 499.886 577.192 611.369 567.491 713.705Z" fill="#9A99EA"/>
<path d="M323.055 359.54C323.055 404.137 295.398 440.187 261.154 440.372C237.824 428.294 221.455 397.819 221.455 362.328C221.455 321.261 243.28 287.256 272.255 280.009C301.23 287.069 323.055 319.96 323.055 359.54Z" fill="#191A20"/>
<path d="M484.691 357.992C484.691 393.89 463.683 423.464 436.879 426.626C416.233 416.768 401.563 389.425 401.563 357.062C401.563 326.558 414.965 300.332 433.801 289.172C462.052 290.287 484.691 320.792 484.691 357.992Z" fill="#191A20"/>
<path d="M234.693 440.603C238.272 431.222 225.943 418.386 207.156 411.934C188.368 405.482 170.236 407.855 166.656 417.236C163.077 426.618 175.405 439.453 194.193 445.906C212.98 452.359 231.113 449.984 234.693 440.603Z" fill="#8C8BE2"/>
<path d="M525.808 450.489C544.594 444.037 556.924 431.201 553.344 421.82C549.769 412.438 531.634 410.063 512.849 416.515C494.058 422.967 481.728 435.802 485.308 445.184C488.886 454.566 507.018 456.941 525.808 450.489Z" fill="#8C8BE2"/>
<path d="M111.455 360.414L128.013 365.345C127.771 368.186 127.567 371.037 127.567 373.938C127.567 430.78 174.913 477.027 233.109 477.027C291.306 477.027 338.652 430.78 338.652 373.938C338.652 360.134 335.814 346.978 330.753 334.936C339.434 329.576 349.478 326.662 359.999 326.662C370.517 326.662 380.563 329.576 389.245 334.936C384.184 346.978 381.345 360.134 381.345 373.938C381.345 430.78 428.692 477.027 486.888 477.027C545.084 477.027 592.433 430.78 592.433 373.938C592.433 371.037 592.23 368.185 591.983 365.345L608.545 360.414C612.61 359.202 614.903 355.003 613.663 351.031C612.424 347.055 608.112 344.812 604.058 346.031L589.536 350.355C578.575 304.855 536.767 270.845 486.888 270.845C448.313 270.845 414.603 291.229 396.19 321.485C385.364 315.106 372.97 311.626 359.999 311.626C347.029 311.626 334.634 315.105 323.807 321.485C305.395 291.228 271.685 270.845 233.109 270.845C183.232 270.845 141.423 304.855 130.462 350.355L115.943 346.031C111.865 344.809 107.573 347.055 106.337 351.031C105.096 355.003 107.389 359.202 111.455 360.414ZM402.152 344.178C402.855 344.378 403.563 344.584 404.29 344.584C406.259 344.584 408.229 343.85 409.731 342.382C412.738 339.445 412.738 334.687 409.731 331.75C409.331 331.359 408.89 331.023 408.482 330.642C423.988 303.958 453.296 285.881 486.888 285.881C536.597 285.881 577.039 325.385 577.039 373.938C577.039 422.491 536.597 461.99 486.888 461.99C437.182 461.99 396.739 422.491 396.739 373.938C396.739 363.482 398.712 353.49 402.152 344.178ZM233.109 285.881C266.702 285.881 296.01 303.958 311.516 330.642C311.108 331.023 310.667 331.359 310.267 331.75C307.26 334.687 307.26 339.449 310.267 342.382C312.325 344.392 315.237 344.92 317.846 344.178C321.285 353.49 323.259 363.482 323.259 373.938C323.259 422.491 282.816 461.99 233.109 461.99C183.403 461.99 142.961 422.491 142.961 373.938C142.961 325.385 183.403 285.881 233.109 285.881Z" fill="#D4D4D7"/>
</g>
<defs>
<filter id="filter0_f_507_714" x="-227" y="-227" width="1174" height="1174" filterUnits="userSpaceOnUse" color-interpolation-filters="sRGB">
<feFlood flood-opacity="0" result="BackgroundImageFix"/>
<feBlend mode="normal" in="SourceGraphic" in2="BackgroundImageFix" result="shape"/>
<feGaussianBlur stdDeviation="200" result="effect1_foregroundBlur_507_714"/>
</filter>
<clipPath id="clip0_507_714">
<rect width="720" height="720" fill="white"/>
</clipPath>
</defs>
</svg>
