<svg width="140" height="235" viewBox="0 0 140 235" fill="none" xmlns="http://www.w3.org/2000/svg">
<path fill-rule="evenodd" clip-rule="evenodd" d="M120.325 0L1.13449 127.138C0.575122 127.734 0.202377 128.481 0.0621316 129.287C-0.0781137 130.093 0.0202588 130.922 0.345142 131.672C0.670025 132.423 1.20724 133.062 1.89068 133.511C2.57411 133.96 3.37394 134.199 4.19173 134.2H53.225L19.675 234.85L138.866 107.712C139.425 107.116 139.798 106.369 139.938 105.563C140.078 104.757 139.98 103.928 139.655 103.178C139.33 102.427 138.793 101.788 138.109 101.339C137.426 100.89 136.626 100.65 135.808 100.65H95.1625L120.325 0Z" fill="#76D3CB"/>
<path fill-rule="evenodd" clip-rule="evenodd" d="M19.675 234.852L53.225 134.202H4.19173C3.37394 134.201 2.57411 133.962 1.89068 133.513C1.20724 133.064 0.670025 132.425 0.345142 131.674C0.0202588 130.924 -0.0781137 130.094 0.0621316 129.289C0.202377 128.483 0.575122 127.736 1.13449 127.139L10.2391 117.427H95.1625L19.675 234.852Z" fill="#5FAFA8"/>
</svg>
