<svg width="419" height="274" viewBox="0 0 419 274" fill="none" xmlns="http://www.w3.org/2000/svg">
<g clip-path="url(#clip0_891_450)">
<path d="M0 24C0 10.7452 10.7452 0 24 0H395C408.255 0 419 10.7452 419 24V274H0V24Z" fill="white"/>
<rect x="22" y="86" width="374" height="54" rx="27" fill="#E1E3E7"/>
<rect x="22" y="164" width="374" height="54" rx="27" fill="#E1E3E7"/>
<rect x="22" y="242" width="374" height="54" rx="27" fill="#E1E3E7"/>
<path d="M143 51.0301C143 51.092 143 53.3903 143.576 56.8775C143.796 58.2094 145.305 58.2048 147.345 57.7057C152.385 56.4728 160.67 50.7326 169.046 45.2025C171.749 43.4181 172.361 45.6377 172.317 47.3653C172.273 49.093 171.824 50.7547 172.386 51.6598C172.948 52.5649 174.534 52.6631 176.146 52.2923C179.483 51.5248 185.151 46.6326 191.406 41.6964C193.363 40.1522 193.385 41.3077 192.503 43.8666C190.175 50.6184 188.216 55.7929 189.092 57.783C192.363 65.2113 204.893 60.6908 210.314 58.4406C214.229 56.8159 216.715 53.8032 218.425 52.996C222.801 50.93 232.96 53.9831 240.978 49.444C243.039 48.2772 244.263 45.8683 245.31 45.7933C247.656 45.6253 247.814 50.4622 249.103 52.1428C251.057 53.2945 257.964 53.7714 267.458 53.2313C271.219 52.6639 272.833 51.5007 275.557 49.8155" stroke="#E1E3E7" stroke-width="2" stroke-linecap="round"/>
</g>
<defs>
<clipPath id="clip0_891_450">
<path d="M0 24C0 10.7452 10.7452 0 24 0H395C408.255 0 419 10.7452 419 24V274H0V24Z" fill="white"/>
</clipPath>
</defs>
</svg>
