<svg width="161" height="186" viewBox="0 0 161 186" fill="none" xmlns="http://www.w3.org/2000/svg">
<path d="M145.835 162.335C144.952 171.718 132.454 175.732 125.381 168.946C121.019 164.756 113.887 164.401 109.112 168.178L96.0848 178.387C90.8388 182.518 82.881 181.633 78.8136 176.44L72.035 167.824C67.7908 162.454 59.4204 161.745 54.2332 166.349L35.4881 182.931C33.2484 184.878 30.301 186 27.2359 186H26.6464C20.6339 186 15.6236 181.869 14.8573 176.38C10.3183 143.275 9.25737 101.612 11.0257 64.0799C11.5561 53.4579 14.8573 43.5439 20.3391 34.928C20.8108 34.1609 21.3413 33.3936 21.8717 32.6265C28.4738 23.1843 37.0557 14.9693 48.2201 8.36312C52.486 5.83888 61.7523 0.00102919 82.6783 0C98.004 0 100.735 3.74803 113.114 10.004C133.45 22.9288 129.903 21.603 135.504 28.2123C141.104 34.8216 143.596 42.3634 145.953 50.7433C146.248 51.7465 146.484 52.8087 146.779 53.8118C147.544 57.2936 148.075 60.8343 148.251 64.4933C149.49 94.7665 148.9 129.996 145.835 162.335Z" fill="#9A99EA"/>
<path d="M68.5919 50.4157C68.5919 64.5089 59.8518 75.901 49.0307 75.9596C41.6581 72.1427 36.4854 62.5124 36.4854 51.2968C36.4854 38.3192 43.3823 27.5733 52.5385 25.2832C61.6949 27.5144 68.5919 37.9082 68.5919 50.4157Z" fill="#191A20"/>
<path d="M119.67 49.9285C119.67 61.2724 113.031 70.6181 104.561 71.6175C98.0363 68.5023 93.4006 59.8617 93.4006 49.6345C93.4006 39.9951 97.6357 31.7073 103.588 28.1807C112.516 28.5331 119.67 38.1728 119.67 49.9285Z" fill="#191A20"/>
<path d="M40.6686 76.0317C41.7997 73.0673 37.9038 69.011 31.9669 66.972C26.0296 64.933 20.2998 65.683 19.1686 68.6476C18.0373 71.6122 21.9332 75.6683 27.8703 77.7075C33.8072 79.7466 39.5373 78.9963 40.6686 76.0317Z" fill="#8C8BE2"/>
<path d="M132.664 79.155C138.601 77.1162 142.497 73.06 141.366 70.0955C140.236 67.1308 134.505 66.3801 128.569 68.419C122.631 70.4579 118.735 74.5139 119.866 77.4788C120.997 80.4435 126.726 81.1939 132.664 79.155Z" fill="#8C8BE2"/>
<path d="M1.72389 50.6924L6.95626 52.2507C6.87998 53.1484 6.81532 54.0493 6.81532 54.966C6.81532 72.9286 21.7772 87.543 40.1677 87.543C58.5583 87.543 73.5202 72.9286 73.5202 54.966C73.5202 50.604 72.6232 46.4466 71.0239 42.641C73.7672 40.9474 76.9413 40.0266 80.266 40.0266C83.5896 40.0266 86.7642 40.9472 89.508 42.641C87.9086 46.4464 87.0116 50.604 87.0116 54.966C87.0116 72.9286 101.974 87.543 120.364 87.543C138.754 87.543 153.717 72.9286 153.717 54.966C153.717 54.0493 153.653 53.1482 153.575 52.2506L158.809 50.6924C160.093 50.3095 160.818 48.9823 160.426 47.7272C160.034 46.4707 158.672 45.7619 157.391 46.1472L152.802 47.5136C149.338 33.1354 136.126 22.3877 120.364 22.3877C108.174 22.3877 97.5213 28.8293 91.7028 38.3906C88.2815 36.3747 84.3649 35.2749 80.266 35.2749C76.1672 35.2749 72.2505 36.3744 68.829 38.3904C63.0107 28.8291 52.3579 22.3877 40.1677 22.3877C24.4059 22.3877 11.1941 33.1352 7.73032 47.5136L3.14198 46.1472C1.85339 45.7609 0.49719 46.4707 0.106435 47.7272C-0.285533 48.9823 0.438939 50.3095 1.72389 50.6924ZM93.5867 45.5617C93.8089 45.6249 94.0325 45.6901 94.2622 45.6901C94.8844 45.6901 95.507 45.458 95.9818 44.9941C96.932 44.066 96.932 42.5625 95.9818 41.6344C95.8553 41.5107 95.716 41.4047 95.5869 41.2843C100.487 32.8518 109.749 27.1392 120.364 27.1392C136.073 27.1392 148.853 39.623 148.853 54.966C148.853 70.3093 136.073 82.7915 120.364 82.7915C104.656 82.7915 91.8763 70.3093 91.8763 54.966C91.8763 51.6619 92.4997 48.5044 93.5867 45.5617ZM40.1677 27.1392C50.7832 27.1392 60.0448 32.8518 64.9451 41.2843C64.8159 41.4047 64.6767 41.5107 64.5501 41.6344C63.5999 42.5625 63.5999 44.0672 64.5501 44.9941C65.2004 45.6293 66.1206 45.7963 66.9451 45.5617C68.0321 48.5044 68.6557 51.6619 68.6557 54.966C68.6557 70.3093 55.8755 82.7915 40.1677 82.7915C24.46 82.7915 11.68 70.3093 11.68 54.966C11.68 39.623 24.46 27.1392 40.1677 27.1392Z" fill="#D4D4D7"/>
</svg>
