<svg width="31" height="51" viewBox="0 0 31 51" fill="none" xmlns="http://www.w3.org/2000/svg">
<path fill-rule="evenodd" clip-rule="evenodd" d="M25.9623 0L0.244786 27.4322C0.124093 27.561 0.0436665 27.7222 0.013406 27.896C-0.0168544 28.0698 0.0043712 28.2487 0.0744706 28.4106C0.14457 28.5726 0.260484 28.7105 0.407948 28.8074C0.555411 28.9043 0.727989 28.956 0.904441 28.956H11.4843L4.24524 50.6731L29.9627 23.2408C30.0834 23.1121 30.1639 22.9509 30.1941 22.7771C30.2244 22.6033 30.2031 22.4244 30.1331 22.2624C30.063 22.1005 29.947 21.9626 29.7996 21.8657C29.6521 21.7688 29.4795 21.7171 29.3031 21.717H20.533L25.9623 0Z" fill="#F2C94C"/>
<path fill-rule="evenodd" clip-rule="evenodd" d="M4.24524 50.6735L11.4843 28.9564H0.904441C0.727989 28.9563 0.555411 28.9047 0.407948 28.8078C0.260484 28.7109 0.14457 28.573 0.0744706 28.411C0.0043712 28.2491 -0.0168544 28.0702 0.013406 27.8964C0.0436665 27.7225 0.124093 27.5613 0.244786 27.4326L2.20927 25.3369H20.533L4.24524 50.6735Z" fill="#F2994A"/>
</svg>
