<svg width="24" height="24" viewBox="0 0 24 24" fill="none" xmlns="http://www.w3.org/2000/svg">
<path fill-rule="evenodd" clip-rule="evenodd" d="M9.88359 2.48295C9.88584 2.58145 9.86867 2.67943 9.83305 2.77129C9.79743 2.86315 9.74407 2.94709 9.67599 3.01832C9.60792 3.08955 9.52649 3.14666 9.43634 3.18641C9.34618 3.22615 9.24909 3.24775 9.15059 3.24995C6.45659 3.31095 5.20159 3.58295 4.37559 4.40595C3.65959 5.11995 3.35159 6.16595 3.24859 8.23695C3.24519 8.33635 3.22206 8.43407 3.18054 8.52444C3.13903 8.61481 3.07995 8.69602 3.00675 8.76335C2.93356 8.83067 2.8477 8.88277 2.75418 8.9166C2.66066 8.95044 2.56135 8.96533 2.46202 8.96043C2.36269 8.95552 2.26533 8.93091 2.1756 8.88802C2.08587 8.84513 2.00557 8.78483 1.93936 8.71062C1.87316 8.63641 1.82237 8.54977 1.78996 8.45575C1.75756 8.36172 1.74417 8.2622 1.75059 8.16295C1.85559 6.04895 2.17059 4.48595 3.31659 3.34295C4.61959 2.04695 6.47959 1.80995 9.11659 1.74995C9.21508 1.74769 9.31306 1.76487 9.40492 1.80049C9.49678 1.8361 9.58072 1.88947 9.65195 1.95754C9.72318 2.02561 9.7803 2.10705 9.82004 2.1972C9.85979 2.28735 9.88138 2.38445 9.88359 2.48295ZM14.1156 2.48295C14.1178 2.38445 14.1394 2.28735 14.1791 2.1972C14.2189 2.10705 14.276 2.02561 14.3472 1.95754C14.4184 1.88947 14.5024 1.8361 14.5943 1.80049C14.6861 1.76487 14.7841 1.74769 14.8826 1.74995C17.5206 1.80995 19.3806 2.04595 20.6826 3.34395C21.8286 4.48595 22.1436 6.04895 22.2486 8.16295C22.255 8.2622 22.2416 8.36172 22.2092 8.45575C22.1768 8.54977 22.126 8.63641 22.0598 8.71062C21.9936 8.78483 21.9133 8.84513 21.8236 8.88802C21.7338 8.93091 21.6365 8.95552 21.5372 8.96043C21.4378 8.96533 21.3385 8.95044 21.245 8.9166C21.1515 8.88277 21.0656 8.83067 20.9924 8.76335C20.9192 8.69602 20.8601 8.61481 20.8186 8.52444C20.7771 8.43407 20.754 8.33635 20.7506 8.23695C20.6476 6.16595 20.3406 5.11995 19.6236 4.40695C18.7976 3.58295 17.5426 3.31095 14.8486 3.24995C14.7501 3.24775 14.653 3.22615 14.5628 3.18641C14.4727 3.14666 14.3912 3.08955 14.3232 3.01832C14.2551 2.94709 14.2017 2.86315 14.1661 2.77129C14.1305 2.67943 14.1133 2.58145 14.1156 2.48295ZM2.46259 15.05C2.66123 15.0402 2.85562 15.1097 3.00302 15.2432C3.15042 15.3767 3.23875 15.5633 3.24859 15.762C3.35159 17.833 3.65859 18.879 4.37559 19.592C5.20159 20.416 6.45659 20.688 9.15059 20.749C9.24908 20.7512 9.34617 20.7728 9.43631 20.8125C9.52644 20.8523 9.60787 20.9094 9.67594 20.9806C9.744 21.0519 9.79737 21.1358 9.833 21.2276C9.86863 21.3195 9.88582 21.4175 9.88359 21.516C9.88135 21.6144 9.85974 21.7115 9.81999 21.8017C9.78024 21.8918 9.72312 21.9732 9.6519 22.0413C9.58067 22.1094 9.49674 22.1627 9.40489 22.1984C9.31304 22.234 9.21508 22.2512 9.11659 22.249C6.47859 22.189 4.61859 21.953 3.31659 20.655C2.17059 19.513 1.85659 17.95 1.75059 15.836C1.7408 15.6373 1.81031 15.4429 1.94383 15.2955C2.07735 15.1481 2.26395 15.0598 2.46259 15.05ZM21.5366 15.05C21.7352 15.0598 21.9218 15.1481 22.0553 15.2955C22.1889 15.4429 22.2584 15.6373 22.2486 15.836C22.1436 17.95 21.8286 19.513 20.6826 20.656C19.3806 21.953 17.5206 22.189 14.8826 22.249C14.6837 22.2535 14.4911 22.1788 14.3473 22.0413C14.2034 21.9038 14.1201 21.7149 14.1156 21.516C14.1111 21.317 14.1858 21.1245 14.3232 20.9806C14.4607 20.8368 14.6497 20.7535 14.8486 20.749C17.5426 20.688 18.7976 20.416 19.6236 19.593C20.3396 18.879 20.6476 17.833 20.7506 15.762C20.7604 15.5633 20.8488 15.3767 20.9962 15.2432C21.1435 15.1097 21.3379 15.0402 21.5366 15.05ZM11.9916 7.74995C11.0216 7.74995 10.2376 8.53495 10.2376 9.49995C10.2376 10.466 11.0216 11.25 11.9916 11.25C12.9606 11.25 13.7446 10.466 13.7446 9.49995C13.7446 8.53495 12.9606 7.74995 11.9916 7.74995ZM8.73759 9.49995C8.73759 9.07282 8.82178 8.64988 8.98536 8.25531C9.14894 7.86074 9.38869 7.50228 9.6909 7.20044C9.99312 6.8986 10.3519 6.65929 10.7466 6.4962C11.1414 6.3331 11.5645 6.24943 11.9916 6.24995C12.4186 6.24956 12.8416 6.33333 13.2362 6.49648C13.6309 6.65963 13.9895 6.89896 14.2916 7.20079C14.5937 7.50262 14.8334 7.86103 14.9969 8.25554C15.1604 8.65004 15.2446 9.0729 15.2446 9.49995C15.2446 9.927 15.1604 10.3499 14.9969 10.7444C14.8334 11.1389 14.5937 11.4973 14.2916 11.7991C13.9895 12.1009 13.6309 12.3403 13.2362 12.5034C12.8416 12.6666 12.4186 12.7503 11.9916 12.75C11.5645 12.7505 11.1414 12.6668 10.7466 12.5037C10.3519 12.3406 9.99312 12.1013 9.6909 11.7995C9.38869 11.4976 9.14894 11.1392 8.98536 10.7446C8.82178 10.35 8.73759 9.92709 8.73759 9.49995ZM15.9476 17.508C13.9016 15.288 10.0926 15.37 8.04159 17.518C7.97434 17.5922 7.89289 17.6523 7.80205 17.6946C7.71121 17.7369 7.61282 17.7605 7.51268 17.7641C7.41255 17.7678 7.31271 17.7513 7.21905 17.7157C7.12539 17.6801 7.03981 17.6261 6.96737 17.5568C6.89493 17.4876 6.8371 17.4046 6.79729 17.3126C6.75749 17.2206 6.73651 17.1217 6.73559 17.0215C6.73468 16.9213 6.75385 16.8219 6.79198 16.7292C6.83011 16.6366 6.88642 16.5525 6.95759 16.482C9.57059 13.745 14.3836 13.598 17.0506 16.492C17.1764 16.6395 17.2403 16.83 17.2287 17.0236C17.2171 17.2171 17.1309 17.3987 16.9884 17.5301C16.8458 17.6616 16.6579 17.7327 16.464 17.7285C16.2702 17.7244 16.0854 17.6453 15.9486 17.508" fill="#4B5563"/>
</svg>
