<svg width="24" height="24" viewBox="0 0 24 24" fill="none" xmlns="http://www.w3.org/2000/svg">
<path fill-rule="evenodd" clip-rule="evenodd" d="M9.25437 14.5807C9.30415 14.5886 9.35187 14.596 9.3974 14.6028C9.40424 14.6483 9.4116 14.6961 9.41951 14.7458C9.49067 15.1935 9.60695 15.812 9.78807 16.4966C10.1418 17.8339 10.7753 19.5532 11.9079 20.6858C12.7061 21.4841 13.7899 21.883 14.8829 21.7107C15.9851 21.5369 16.9814 20.802 17.6482 19.5601C18.1945 18.5426 18.7202 16.8602 19.4782 14.4343L20.3084 11.7779C20.9055 9.86709 21.3734 8.3698 21.598 7.19706C21.823 6.02218 21.8428 4.99741 21.3503 4.13758C20.9955 3.51823 20.4821 3.0047 19.8627 2.64989C19.0028 2.15738 17.9781 2.17714 16.8032 2.40215C15.6302 2.62677 14.1327 3.09477 12.2216 3.692L9.57094 4.5203C7.14223 5.27922 5.45842 5.80537 4.44022 6.35204C3.19837 7.0188 2.46342 8.01513 2.28961 9.11728C2.11725 10.2103 2.5162 11.294 3.31444 12.0923C4.44705 13.2249 6.16638 13.8584 7.50359 14.2121C8.18824 14.3932 8.80676 14.5095 9.25437 14.5807ZM17.0853 3.87538C16.0068 4.08193 14.5912 4.52303 12.6208 5.13876L10.1342 5.91581C7.56271 6.71941 6.024 7.20423 5.14977 7.67361C4.24675 8.15845 3.85978 8.78985 3.77129 9.35095C3.68135 9.92125 3.87972 10.5362 4.3751 11.0316C5.2145 11.871 6.6063 12.4232 7.88721 12.762C8.51163 12.9272 9.07892 13.034 9.48986 13.0993C9.69488 13.1319 9.85982 13.154 9.9721 13.1678C10.0268 13.1745 10.0816 13.181 10.1365 13.1864C10.495 13.2202 10.7798 13.5043 10.8137 13.8628C10.8191 13.918 10.8256 13.9731 10.8324 14.0281C10.8462 14.1404 10.8683 14.3053 10.9009 14.5104C10.9662 14.9213 11.073 15.4886 11.2381 16.113C11.577 17.394 12.1291 18.7858 12.9685 19.6252C13.4639 20.1205 14.0789 20.3189 14.6492 20.229C15.2104 20.1405 15.8418 19.7536 16.3266 18.8505C16.796 17.9763 17.2807 16.4376 18.0843 13.866L18.8614 11.3794C19.4771 9.40898 19.9182 7.99342 20.1248 6.9149C20.3328 5.82855 20.2641 5.25923 20.0487 4.88314C19.8265 4.49521 19.505 4.17365 19.1171 3.95148C18.741 3.73605 18.1717 3.66733 17.0853 3.87538Z" fill="white"/>
<path fill-rule="evenodd" clip-rule="evenodd" d="M13.3308 10.6689C13.6237 10.9618 13.6237 11.4367 13.3308 11.7296L10.5967 14.4635C10.3038 14.7564 9.82895 14.7564 9.53607 14.4635C9.24318 14.1706 9.24318 13.6958 9.53608 13.4029L12.2701 10.6689C12.563 10.376 13.0379 10.376 13.3308 10.6689Z" fill="white"/>
</svg>
