<svg width="220" height="188" viewBox="0 0 220 188" fill="none" xmlns="http://www.w3.org/2000/svg">
<path d="M62.9037 182.771C62.6819 182.771 62.4996 182.506 62.4948 182.171C62.4888 181.83 62.6675 181.547 62.8941 181.538C63.9731 181.497 65.0618 181.387 66.1313 181.212C66.3543 181.181 66.5593 181.419 66.5833 181.758C66.6073 182.097 66.4454 182.402 66.22 182.438C65.1278 182.616 64.0163 182.728 62.9157 182.771C62.9109 182.771 62.9073 182.771 62.9037 182.771ZM59.6269 182.696C59.6197 182.696 59.6113 182.696 59.6041 182.696C58.5047 182.604 57.3956 182.442 56.3082 182.216C56.084 182.169 55.9269 181.857 55.9581 181.522C55.9892 181.185 56.1967 180.95 56.4197 180.995C57.4856 181.217 58.5718 181.376 59.6485 181.464C59.8751 181.484 60.0477 181.774 60.0345 182.115C60.0238 182.441 59.8427 182.696 59.6269 182.696ZM69.4153 181.704C69.2234 181.704 69.052 181.499 69.0136 181.206C68.9704 180.871 69.1155 180.548 69.3373 180.483C70.3972 180.173 71.4583 179.791 72.4906 179.347C72.7076 179.248 72.9354 179.443 72.9978 179.771C73.0601 180.099 72.9342 180.44 72.716 180.532C71.6621 180.985 70.577 181.376 69.4944 181.693C69.4668 181.7 69.4404 181.704 69.4153 181.704ZM53.1381 181.349C53.1093 181.349 53.0794 181.343 53.0482 181.334C51.9727 180.974 50.896 180.543 49.8481 180.052C49.6323 179.951 49.5112 179.607 49.5784 179.281C49.6455 178.956 49.8757 178.774 50.0915 178.875C51.1178 179.355 52.1717 179.777 53.2268 180.13C53.4474 180.204 53.5865 180.534 53.5374 180.866C53.4954 181.154 53.3251 181.349 53.1381 181.349ZM75.711 178.994C75.5468 178.994 75.3909 178.844 75.3285 178.599C75.247 178.282 75.3525 177.925 75.5647 177.802C76.5743 177.218 77.5742 176.562 78.5334 175.849C78.736 175.698 78.9818 175.824 79.0825 176.129C79.182 176.435 79.0993 176.803 78.8955 176.955C77.9135 177.683 76.8908 178.356 75.8585 178.952C75.8105 178.981 75.7602 178.994 75.711 178.994ZM46.8831 178.419C46.8316 178.419 46.78 178.404 46.7284 178.374C45.7057 177.748 44.6926 177.05 43.7166 176.298C43.5152 176.143 43.4349 175.772 43.5392 175.469C43.6423 175.166 43.8893 175.047 44.0907 175.2C45.0451 175.936 46.0366 176.617 47.0378 177.232C47.2476 177.36 47.3483 177.721 47.2632 178.035C47.1984 178.275 47.0462 178.419 46.8831 178.419ZM41.0561 173.925C40.9806 173.925 40.9051 173.895 40.8379 173.83C40.1917 173.217 39.555 172.57 38.9424 171.902C38.6654 171.601 38.3896 171.293 38.1175 170.976C37.9388 170.766 37.9053 170.381 38.0443 170.11C38.1834 169.841 38.44 169.791 38.6198 170C38.8848 170.308 39.1534 170.61 39.4232 170.903C40.0214 171.554 40.6449 172.187 41.2756 172.786C41.4674 172.968 41.5249 173.348 41.4038 173.637C41.3247 173.824 41.1916 173.925 41.0561 173.925ZM35.9438 167.795C35.8322 167.795 35.7207 167.726 35.6404 167.593C34.9258 166.41 34.3611 165.222 33.9211 163.976C33.8384 164.1 33.7197 164.171 33.595 164.154C32.9344 164.066 32.2366 163.918 31.4596 163.702C31.0736 163.595 30.6899 163.478 30.3074 163.35C30.0868 163.276 29.9477 162.948 29.9969 162.615C30.0461 162.283 30.2655 162.074 30.4861 162.148C30.8589 162.272 31.233 162.386 31.6095 162.492C32.3613 162.701 33.0351 162.844 33.6693 162.928C33.6825 162.93 33.6957 162.934 33.7089 162.935C33.7425 162.782 33.8168 162.647 33.9211 162.571C34.1237 162.423 34.3695 162.555 34.4678 162.862C34.8971 164.212 35.4798 165.489 36.2495 166.765C36.4018 167.018 36.3886 167.407 36.2219 167.636C36.1404 167.741 36.0421 167.795 35.9438 167.795ZM36.8981 164.017C36.7027 164.017 36.5301 163.806 36.4953 163.507C36.4569 163.172 36.6056 162.853 36.8286 162.793C37.7146 162.559 38.5191 162.131 39.2193 161.524C39.374 161.388 39.5239 161.239 39.6689 161.078C39.8512 160.876 40.1078 160.932 40.242 161.206C40.3775 161.48 40.3392 161.866 40.1569 162.068C39.9867 162.258 39.8104 162.432 39.6282 162.591C38.8441 163.271 37.9484 163.747 36.9677 164.007C36.9449 164.016 36.9209 164.017 36.8981 164.017ZM27.2321 162.074C27.1901 162.074 27.1482 162.065 27.1062 162.045C26.0643 161.54 25.02 160.952 24.0021 160.298C23.7935 160.164 23.6975 159.802 23.7863 159.49C23.875 159.176 24.1148 159.03 24.3246 159.165C25.3197 159.803 26.3412 160.379 27.3592 160.871C27.575 160.976 27.6925 161.324 27.6241 161.646C27.5666 161.908 27.4059 162.074 27.2321 162.074ZM33.3084 158.99C33.089 158.99 32.9068 158.729 32.8996 158.397C32.896 158.247 32.8936 158.096 32.8936 157.946C32.8936 156.273 33.1334 154.672 33.5878 153.316C33.6897 153.011 33.9367 152.889 34.1381 153.042C34.3407 153.195 34.4211 153.567 34.3204 153.869C33.9235 155.054 33.7137 156.464 33.7137 157.946C33.7137 158.082 33.7161 158.217 33.7185 158.352C33.7269 158.693 33.5506 158.978 33.324 158.99C33.3192 158.99 33.3132 158.99 33.3084 158.99ZM41.8475 158.292C41.7995 158.292 41.7515 158.28 41.7036 158.253C41.4914 158.134 41.3835 157.779 41.4626 157.459C41.6604 156.664 41.7599 155.869 41.7599 155.097C41.7599 154.383 41.6724 153.711 41.5022 153.101C41.4146 152.788 41.5117 152.427 41.7204 152.294C41.929 152.162 42.17 152.308 42.2575 152.622C42.4709 153.384 42.58 154.216 42.58 155.097C42.58 156.019 42.4625 156.958 42.2311 157.892C42.17 158.139 42.0141 158.292 41.8475 158.292ZM21.2085 158.213C21.1425 158.213 21.0766 158.19 21.0154 158.139C20.0515 157.362 19.0923 156.509 18.1655 155.602C17.9761 155.417 17.9221 155.034 18.0456 154.749C18.1691 154.464 18.4233 154.383 18.6127 154.569C19.5203 155.458 20.4591 156.295 21.4027 157.054C21.6017 157.214 21.6773 157.587 21.5706 157.889C21.4962 158.096 21.3548 158.213 21.2085 158.213ZM15.7196 152.84C15.6321 152.84 15.5434 152.797 15.4678 152.71C14.6034 151.7 13.7521 150.618 12.938 149.497C12.7714 149.268 12.7594 148.877 12.9128 148.626C13.0651 148.375 13.3253 148.359 13.4919 148.588C14.2893 149.686 15.1225 150.746 15.9702 151.736C16.1489 151.946 16.1812 152.331 16.0421 152.6C15.9618 152.759 15.8419 152.84 15.7196 152.84ZM36.2591 150.847C36.102 150.847 35.9521 150.71 35.8838 150.481C35.7915 150.171 35.885 149.807 36.0924 149.668C36.7854 149.207 37.5504 148.961 38.3045 148.961H38.3081C38.7433 148.961 39.1666 149.043 39.5682 149.199C39.7864 149.286 39.9183 149.623 39.8608 149.951C39.8032 150.281 39.5802 150.478 39.3608 150.391C39.0275 150.26 38.6738 150.193 38.3081 150.193H38.3045C37.6631 150.193 37.0132 150.4 36.4245 150.793C36.3706 150.829 36.3142 150.847 36.2591 150.847ZM10.8902 146.185C10.7799 146.185 10.6708 146.12 10.5893 145.988C9.8435 144.78 9.11932 143.509 8.43591 142.207C8.29563 141.94 8.32561 141.552 8.50306 141.341C8.6805 141.129 8.93828 141.176 9.07856 141.442C9.74878 142.717 10.4586 143.963 11.1899 145.148C11.3434 145.397 11.3338 145.788 11.1684 146.019C11.0904 146.129 10.9897 146.185 10.8902 146.185ZM6.8317 138.451C6.69981 138.451 6.56913 138.355 6.49 138.177C5.87732 136.796 5.29703 135.364 4.76708 133.923C4.65678 133.626 4.72872 133.251 4.92654 133.085C5.12437 132.921 5.37376 133.027 5.48406 133.327C6.00321 134.737 6.57153 136.138 7.17221 137.492C7.2981 137.775 7.24654 138.157 7.0583 138.346C6.98876 138.417 6.90963 138.451 6.8317 138.451ZM3.65684 129.834C3.50098 129.834 3.35111 129.699 3.28277 129.47C2.82836 127.952 2.41472 126.395 2.05383 124.843C1.97949 124.522 2.09219 124.17 2.30561 124.057C2.51903 123.947 2.75282 124.115 2.82836 124.435C3.18205 125.954 3.5861 127.477 4.03092 128.963C4.12324 129.273 4.03212 129.637 3.8247 129.778C3.76954 129.816 3.71319 129.834 3.65684 129.834ZM1.49271 120.539C1.30927 120.539 1.14261 120.353 1.09586 120.074C0.82369 118.46 0.599483 116.817 0.428031 115.191C0.392062 114.856 0.545529 114.54 0.768537 114.486C0.993942 114.439 1.20256 114.663 1.23733 114.998C1.40399 116.587 1.6234 118.191 1.88957 119.769C1.94592 120.099 1.81284 120.434 1.59342 120.517C1.55985 120.532 1.52628 120.539 1.49271 120.539ZM0.474791 110.813C0.260176 110.813 0.079132 110.562 0.0659434 110.234C0.0479589 109.796 0.0335713 109.356 0.0227806 108.914C0.00719408 108.289 0 107.661 0 107.035C0 106.437 0.00719357 105.84 0.0203822 105.245C0.0287749 104.904 0.21941 104.673 0.443616 104.65C0.670221 104.663 0.846469 104.947 0.839275 105.288C0.826087 105.871 0.818891 106.453 0.818891 107.035C0.818891 107.647 0.826088 108.258 0.840475 108.869C0.851266 109.298 0.864452 109.729 0.882436 110.158C0.896824 110.497 0.724175 110.79 0.49877 110.811C0.491576 110.813 0.483184 110.813 0.474791 110.813ZM0.696598 100.972C0.679813 100.972 0.661828 100.97 0.643843 100.966C0.419637 100.923 0.260175 100.615 0.290149 100.276C0.429229 98.6438 0.621063 96.9922 0.860856 95.3658C0.910013 95.0322 1.13062 94.8248 1.35004 94.897C1.57064 94.9709 1.71092 95.299 1.66176 95.6326C1.42796 97.223 1.23973 98.8367 1.10305 100.433C1.07547 100.744 0.899223 100.972 0.696598 100.972ZM2.10898 91.3557C2.06821 91.3557 2.02625 91.3466 1.98548 91.3268C1.76967 91.224 1.64977 90.8778 1.71811 90.5533C2.04783 88.981 2.4279 87.405 2.84634 85.8706C2.93267 85.5568 3.17246 85.4036 3.38108 85.5352C3.5909 85.665 3.69041 86.0257 3.60409 86.3394C3.19284 87.8414 2.82116 89.3849 2.49864 90.9247C2.44469 91.188 2.28283 91.3557 2.10898 91.3557ZM4.59563 82.2427C4.53328 82.2427 4.46974 82.2211 4.40979 82.176C4.20837 82.021 4.12804 81.6495 4.23115 81.3466C4.72992 79.8771 5.27664 78.4165 5.85574 77.0065C5.97444 76.7162 6.22862 76.6279 6.41926 76.8064C6.61229 76.9849 6.67224 77.3653 6.55234 77.6538C5.98403 79.035 5.44929 80.4667 4.96012 81.9056C4.88818 82.1201 4.7443 82.2427 4.59563 82.2427ZM8.03666 73.8601C7.95273 73.8601 7.86761 73.8222 7.79447 73.7411C7.61223 73.5391 7.57266 73.1533 7.70694 72.8792C8.35918 71.5449 9.05338 70.234 9.77156 68.9863C9.91903 68.7302 10.178 68.7014 10.3495 68.9232C10.5209 69.1468 10.5389 69.5362 10.3914 69.7923C9.68763 71.0148 9.00662 72.2986 8.36757 73.6076C8.28724 73.7735 8.16255 73.8601 8.03666 73.8601ZM115.601 73.7988H115.597C114.512 73.7861 113.405 73.7501 112.308 73.6906C112.082 73.678 111.905 73.3931 111.914 73.0523C111.922 72.7115 112.104 72.4645 112.338 72.4573C113.428 72.515 114.526 72.5528 115.604 72.5654C115.831 72.5673 116.013 72.8467 116.011 73.1875C116.008 73.5265 115.825 73.7988 115.601 73.7988ZM118.879 73.7699C118.656 73.7699 118.473 73.5013 118.468 73.1659C118.464 72.8251 118.644 72.5438 118.87 72.5366C119.961 72.5041 121.059 72.4482 122.135 72.3707C122.363 72.3491 122.553 72.6159 122.564 72.9567C122.575 73.2975 122.401 73.586 122.174 73.6022C121.091 73.6798 119.984 73.7375 118.887 73.7699C118.885 73.7699 118.882 73.7699 118.879 73.7699ZM109.048 73.4454C109.04 73.4454 109.031 73.4454 109.022 73.4436C107.938 73.3408 106.834 73.2092 105.741 73.0577C105.516 73.027 105.351 72.7259 105.371 72.3869C105.391 72.048 105.594 71.8009 105.817 71.8298C106.902 71.9812 107.997 72.1093 109.073 72.2138C109.3 72.2355 109.471 72.5276 109.457 72.8684C109.443 73.1947 109.263 73.4454 109.048 73.4454ZM125.427 73.2993C125.215 73.2993 125.035 73.0523 125.018 72.7295C125.002 72.3905 125.171 72.093 125.396 72.0678C126.472 71.9452 127.566 71.7991 128.65 71.6314C128.877 71.599 129.077 71.8424 129.1 72.1814C129.122 72.5204 128.959 72.8233 128.734 72.8576C127.643 73.0252 126.54 73.1731 125.457 73.2957C125.449 73.2993 125.438 73.2993 125.427 73.2993ZM102.52 72.5366C102.503 72.5366 102.486 72.5348 102.47 72.5312C101.378 72.3328 100.281 72.1075 99.2083 71.864C98.9853 71.8135 98.8306 71.4998 98.8642 71.1626C98.8978 70.8272 99.1064 70.5928 99.3306 70.6451C100.395 70.8867 101.485 71.1103 102.568 71.3087C102.792 71.3501 102.953 71.6567 102.925 71.9957C102.901 72.3076 102.724 72.5366 102.52 72.5366ZM131.95 72.2914C131.747 72.2914 131.571 72.0642 131.544 71.754C131.516 71.4169 131.673 71.1067 131.898 71.0635C132.968 70.8543 134.055 70.6181 135.132 70.362C135.354 70.3098 135.565 70.5388 135.6 70.8741C135.636 71.2095 135.483 71.5251 135.26 71.5791C134.176 71.837 133.08 72.075 132.004 72.286C131.986 72.2896 131.968 72.2914 131.95 72.2914ZM96.0371 71.0653C96.0131 71.0653 95.9879 71.0617 95.9639 71.0562C94.8944 70.7659 93.8082 70.445 92.7351 70.1042C92.5133 70.0339 92.3718 69.7075 92.4186 69.3739C92.4653 69.0404 92.6848 68.8258 92.9042 68.8979C93.97 69.2351 95.0479 69.5543 96.1102 69.841C96.3332 69.9023 96.4807 70.2214 96.4411 70.5568C96.4039 70.8561 96.2313 71.0653 96.0371 71.0653ZM138.425 70.7479C138.232 70.7479 138.06 70.5406 138.022 70.2448C137.982 69.9095 138.128 69.5885 138.351 69.5254C139.411 69.2279 140.489 68.9033 141.555 68.5589C141.778 68.4868 141.995 68.6996 142.041 69.0332C142.089 69.3649 141.948 69.6931 141.727 69.7652C140.654 70.1114 139.569 70.4378 138.502 70.7371C138.476 70.7443 138.45 70.7479 138.425 70.7479ZM89.6214 69.0259C89.5902 69.0259 89.5567 69.0205 89.5243 69.0079C88.462 68.6221 87.3901 68.2055 86.3386 67.771C86.1204 67.6808 85.9921 67.3418 86.0521 67.0137C86.112 66.6855 86.3374 66.4944 86.5556 66.5827C87.5999 67.0137 88.6646 67.4266 89.7185 67.8106C89.9379 67.89 90.0734 68.2236 90.0207 68.5553C89.9739 68.8366 89.806 69.0259 89.6214 69.0259ZM144.837 68.6779C144.653 68.6779 144.485 68.4886 144.439 68.2073C144.385 67.8774 144.521 67.5438 144.74 67.4627C145.802 67.075 146.866 66.6621 147.904 66.2347C148.122 66.1482 148.348 66.3375 148.408 66.6675C148.468 66.9956 148.338 67.3346 148.12 67.4248C147.076 67.8539 146.004 68.2686 144.934 68.6599C144.901 68.6725 144.868 68.6779 144.837 68.6779ZM83.2969 66.4277C83.2573 66.4277 83.2177 66.4205 83.1782 66.4006C82.1291 65.9246 81.0836 65.4305 80.0417 64.9257C79.8259 64.8211 79.7084 64.4731 79.7767 64.1503C79.8462 63.8258 80.0776 63.6491 80.2923 63.7519C81.3306 64.2549 82.3701 64.7454 83.4144 65.2196C83.6314 65.317 83.7537 65.6613 83.6877 65.9877C83.6362 66.2564 83.4731 66.4277 83.2969 66.4277ZM12.3254 66.4132C12.2186 66.4132 12.1131 66.3519 12.0328 66.2293C11.8745 65.9877 11.8769 65.5964 12.0376 65.3584C12.8253 64.1936 13.6514 63.0703 14.4931 62.0173C14.6669 61.7973 14.9259 61.8351 15.0698 62.0966C15.2149 62.358 15.1909 62.7475 15.017 62.9639C14.1933 63.9953 13.3828 65.0988 12.6107 66.2383C12.5328 66.3537 12.4297 66.4132 12.3254 66.4132ZM151.163 66.0869C150.987 66.0869 150.825 65.9156 150.771 65.6487C150.705 65.3224 150.829 64.978 151.044 64.8806C152.084 64.4082 153.132 63.9087 154.159 63.3948C154.373 63.2848 154.605 63.4616 154.677 63.7861C154.748 64.1089 154.632 64.4587 154.417 64.5651C153.384 65.0825 152.327 65.5856 151.281 66.0598C151.242 66.0779 151.203 66.0869 151.163 66.0869ZM77.0539 63.4129C77.0107 63.4129 76.9663 63.402 76.9232 63.3804C75.8861 62.8557 74.8513 62.3238 73.8166 61.7901C73.6032 61.6801 73.4881 61.3303 73.5625 61.0075C73.6356 60.6848 73.867 60.5117 74.0828 60.6253C75.1163 61.159 76.1498 61.6891 77.1845 62.212C77.3992 62.3202 77.5143 62.67 77.4423 62.9927C77.3848 63.2506 77.2253 63.4129 77.0539 63.4129ZM157.386 62.9765C157.218 62.9765 157.061 62.8214 157.001 62.5708C156.924 62.2499 157.033 61.8983 157.247 61.7811C158.274 61.2203 159.302 60.6343 160.302 60.041C160.511 59.9148 160.75 60.0717 160.834 60.3873C160.917 60.7028 160.814 61.0616 160.602 61.186C159.595 61.7847 158.559 62.3743 157.526 62.9386C157.479 62.9657 157.432 62.9765 157.386 62.9765ZM70.848 60.2196C70.8036 60.2196 70.7593 60.2087 70.7149 60.1853C69.6814 59.6516 68.6479 59.1215 67.6132 58.5986C67.3986 58.4904 67.2835 58.1406 67.3554 57.8178C67.4274 57.4951 67.6612 57.3238 67.8746 57.4302C68.9117 57.9549 69.9464 58.485 70.9811 59.0187C71.1945 59.1287 71.3096 59.4785 71.2353 59.8012C71.1777 60.0591 71.0183 60.2196 70.848 60.2196ZM17.361 60.1132C17.2315 60.1132 17.1044 60.0212 17.0253 59.8499C16.8958 59.5704 16.9414 59.1864 17.126 58.9916C18.0312 58.0396 18.9712 57.1399 19.9208 56.3158C20.1162 56.1445 20.3668 56.2455 20.4807 56.5412C20.5934 56.8369 20.5263 57.2138 20.3308 57.3833C19.4016 58.1893 18.482 59.071 17.596 60.0014C17.5241 60.0771 17.4425 60.1132 17.361 60.1132ZM163.485 59.3559C163.325 59.3559 163.174 59.2152 163.108 58.9826C163.02 58.6689 163.116 58.3065 163.324 58.173C164.323 57.5311 165.328 56.8604 166.311 56.1788C166.516 56.0345 166.759 56.1698 166.855 56.4799C166.95 56.7882 166.86 57.1543 166.655 57.2985C165.665 57.9855 164.653 58.6599 163.648 59.3054C163.594 59.3414 163.539 59.3559 163.485 59.3559ZM64.6302 57.0894C64.5894 57.0894 64.5462 57.0804 64.5043 57.0605C63.466 56.5593 62.4253 56.0688 61.381 55.5964C61.164 55.499 61.0417 55.1546 61.1064 54.8283C61.1724 54.5019 61.4002 54.3162 61.6172 54.4153C62.6663 54.8896 63.7118 55.3818 64.7549 55.8867C64.9707 55.9913 65.0894 56.3375 65.0198 56.662C64.9647 56.9235 64.804 57.0894 64.6302 57.0894ZM169.44 55.2304C169.289 55.2304 169.144 55.1041 169.073 54.8878C168.972 54.583 169.055 54.2134 169.258 54.0619C170.234 53.3353 171.211 52.5798 172.164 51.8189C172.363 51.6602 172.611 51.772 172.718 52.0749C172.825 52.3742 172.748 52.7475 172.549 52.9079C171.589 53.6761 170.604 54.4352 169.621 55.1673C169.564 55.2105 169.501 55.2304 169.44 55.2304ZM23.0345 55.1961C22.8798 55.1961 22.7312 55.0645 22.6628 54.8391C22.5681 54.5308 22.6568 54.1629 22.8631 54.0205C23.8702 53.3191 24.9025 52.6862 25.9324 52.138C26.147 52.0244 26.3796 52.1939 26.4552 52.5131C26.5307 52.834 26.4192 53.1856 26.2058 53.2992C25.1998 53.8348 24.1915 54.4532 23.2072 55.1384C23.1508 55.1781 23.0921 55.1961 23.0345 55.1961ZM58.35 54.2567C58.3152 54.2567 58.2793 54.2495 58.2433 54.235L58.0179 54.1431C57.024 53.7374 56.0348 53.3587 55.0792 53.0161C54.8586 52.9368 54.7231 52.605 54.7759 52.2733C54.8286 51.9415 55.0481 51.7377 55.2699 51.8171C56.235 52.1633 57.2314 52.5455 58.2337 52.9548L58.4579 53.045C58.6761 53.1333 58.8056 53.4723 58.7469 53.8005C58.6965 54.0764 58.531 54.2567 58.35 54.2567ZM51.9715 51.9811C51.9451 51.9811 51.9176 51.9776 51.8912 51.9685C50.8073 51.6458 49.7271 51.3609 48.6792 51.1193C48.4562 51.0688 48.3015 50.7532 48.3363 50.4179C48.3698 50.0807 48.5796 49.8499 48.8038 49.9022C49.8637 50.1456 50.956 50.4359 52.0506 50.7623C52.2725 50.8272 52.4175 51.1517 52.3732 51.4853C52.3336 51.7774 52.1621 51.9811 51.9715 51.9811ZM29.2056 51.9144C29.0221 51.9144 28.8555 51.7287 28.8087 51.4474C28.7536 51.1175 28.8867 50.7821 29.1061 50.6991C30.16 50.3007 31.251 49.9617 32.3493 49.6912C32.5711 49.6335 32.7833 49.8643 32.8204 50.1997C32.8564 50.5351 32.7054 50.8524 32.4823 50.9083C31.4057 51.1734 30.3374 51.5069 29.3063 51.8946C29.2727 51.909 29.2391 51.9144 29.2056 51.9144ZM175.231 50.6054C175.088 50.6054 174.951 50.4936 174.875 50.2934C174.763 49.9977 174.832 49.6209 175.028 49.4532C175.984 48.6364 176.931 47.7997 177.845 46.9649C178.038 46.7882 178.291 46.8802 178.408 47.1705C178.526 47.4608 178.465 47.8412 178.272 48.0179C177.351 48.86 176.396 49.7038 175.435 50.5261C175.369 50.5801 175.299 50.6054 175.231 50.6054ZM45.4899 50.499C45.4755 50.499 45.4611 50.499 45.4479 50.4954C44.3557 50.3259 43.2634 50.2033 42.2012 50.1294C41.9745 50.1131 41.8007 49.8246 41.8103 49.4857C41.8211 49.1467 42.0177 48.8762 42.2383 48.8996C43.3162 48.9754 44.424 49.0998 45.5307 49.2711C45.7561 49.3053 45.9191 49.6083 45.8964 49.9472C45.876 50.2628 45.6973 50.499 45.4899 50.499ZM35.668 50.3043C35.4582 50.3043 35.2783 50.0626 35.2603 49.7417C35.2412 49.4027 35.4078 49.1052 35.6332 49.0745C36.7075 48.9339 37.8189 48.8492 38.9364 48.8203C38.9388 48.8203 38.9412 48.8203 38.9436 48.8203C39.1666 48.8203 39.3488 49.089 39.3536 49.4261C39.3572 49.7669 39.1774 50.0482 38.9508 50.0536C37.8525 50.0807 36.7614 50.1636 35.7052 50.3025C35.692 50.3043 35.68 50.3043 35.668 50.3043ZM180.835 45.4882C180.701 45.4882 180.569 45.389 180.491 45.2069C180.367 44.922 180.423 44.5397 180.612 44.354C181.528 43.4615 182.442 42.5437 183.326 41.6241C183.514 41.4312 183.768 41.5015 183.897 41.781C184.025 42.0605 183.979 42.4445 183.793 42.6374C182.901 43.5642 181.981 44.4892 181.058 45.389C180.988 45.4557 180.912 45.4882 180.835 45.4882ZM186.23 39.8877C186.104 39.8877 185.98 39.8012 185.899 39.6371C185.765 39.363 185.805 38.9771 185.987 38.7752C186.823 37.852 187.655 36.9036 188.458 35.9605C188.637 35.7514 188.893 35.7982 189.034 36.0687C189.173 36.3374 189.141 36.7251 188.963 36.9342C188.152 37.8845 187.314 38.8383 186.473 39.7705C186.399 39.8498 186.314 39.8877 186.23 39.8877Z" fill="#B6B6BA"/>
<path d="M176.685 12.6806L220 0L215.006 28.4101L176.685 12.6806Z" fill="#51B8BF"/>
<path d="M188.235 17.4215L211.171 5.86719L193.07 19.4055L191.452 32.4807L188.235 17.4215Z" fill="#357E83"/>
<path d="M191.452 32.4805L200.857 22.602L193.07 19.4053L191.452 32.4805Z" fill="#204F52"/>
<path d="M155.794 154.923C155.19 161.373 146.633 164.132 141.791 159.467C138.805 156.587 133.922 156.343 130.653 158.939L121.734 165.957C118.142 168.796 112.694 168.188 109.91 164.619L105.269 158.696C102.363 155.004 96.6326 154.517 93.0812 157.682L80.2478 169.081C78.7145 170.419 76.6966 171.19 74.5982 171.19H74.1945C70.0782 171.19 66.648 168.351 66.1234 164.578C63.0159 141.82 62.2895 113.181 63.5002 87.3815C63.8633 80.0799 66.1234 73.265 69.8764 67.3423C70.1994 66.815 70.5625 66.2876 70.9257 65.7603C75.4456 59.2697 81.8219 53.9556 89.2878 50.5075C91.7091 48.845 95.7448 48.0343 95.7448 48.0343C95.7448 48.0343 99.9821 44.7888 114.309 44.7881C124.801 44.7881 124.599 46.2072 133.074 50.5075C146.997 59.3921 146.19 61.947 147.522 62.6367C151.356 67.18 154.261 72.4535 155.875 78.2139C156.077 78.9035 156.238 79.6336 156.441 80.3232C156.965 82.7166 157.328 85.1505 157.449 87.6657C158.296 108.476 157.893 132.693 155.794 154.923Z" fill="#9A99EA"/>
<path d="M102.911 77.9891C102.911 87.6768 96.9275 95.5078 89.5191 95.5481C84.4716 92.9243 80.9302 86.3044 80.9302 78.5948C80.9302 69.6739 85.652 62.2871 91.9206 60.7129C98.1893 62.2466 102.911 69.3914 102.911 77.9891Z" fill="#191A20"/>
<path d="M137.881 77.6527C137.881 85.4506 133.336 91.8748 127.537 92.5619C123.07 90.4204 119.896 84.4808 119.896 77.4506C119.896 70.8244 122.796 65.1274 126.871 62.7031C132.983 62.9454 137.881 69.5718 137.881 77.6527Z" fill="#191A20"/>
<path d="M83.7937 95.5977C84.5681 93.56 81.9009 90.7717 77.8363 89.37C73.7715 87.9684 69.8487 88.484 69.0742 90.5219C68.2997 92.5597 70.967 95.3479 75.0317 96.7497C79.0962 98.1514 83.0192 97.6356 83.7937 95.5977Z" fill="#8C8BE2"/>
<path d="M146.777 97.7449C150.841 96.3435 153.509 93.5552 152.734 91.5174C151.961 89.4794 148.037 88.9634 143.973 90.365C139.908 91.7665 137.24 94.5547 138.015 96.5927C138.789 98.6307 142.712 99.1465 146.777 97.7449Z" fill="#8C8BE2"/>
<path d="M57.1319 78.1794L60.7141 79.2507C60.6619 79.8677 60.6176 80.487 60.6176 81.1172C60.6176 93.4647 70.8609 103.511 83.4516 103.511C96.0423 103.511 106.286 93.4647 106.286 81.1172C106.286 78.1187 105.672 75.2609 104.577 72.6449C106.455 71.4807 108.628 70.8477 110.904 70.8477C113.179 70.8477 115.353 71.4806 117.231 72.6449C116.136 75.2607 115.522 78.1187 115.522 81.1172C115.522 93.4647 125.766 103.511 138.356 103.511C150.947 103.511 161.191 93.4647 161.191 81.1172C161.191 80.487 161.147 79.8676 161.093 79.2506L164.677 78.1794C165.556 77.9162 166.052 77.0039 165.784 76.1412C165.516 75.2775 164.583 74.7902 163.706 75.0551L160.564 75.9944C158.193 66.1107 149.147 58.7227 138.356 58.7227C130.011 58.7227 122.717 63.1506 118.734 69.7231C116.392 68.3374 113.71 67.5814 110.904 67.5814C108.098 67.5814 105.416 68.3372 103.074 69.723C99.0905 63.1505 91.7973 58.7227 83.4516 58.7227C72.6606 58.7227 63.6154 66.1105 61.2441 75.9944L58.1027 75.0551C57.2205 74.7895 56.2921 75.2775 56.0245 76.1412C55.7562 77.0039 56.2522 77.9162 57.1319 78.1794ZM120.024 74.6526C120.176 74.696 120.329 74.7408 120.486 74.7408C120.912 74.7408 121.338 74.5813 121.663 74.2624C122.314 73.6244 122.314 72.5909 121.663 71.9529C121.577 71.8679 121.482 71.7951 121.393 71.7123C124.748 65.9157 131.089 61.9889 138.356 61.9889C149.111 61.9889 157.86 70.5703 157.86 81.1172C157.86 91.6642 149.111 100.245 138.356 100.245C127.602 100.245 118.853 91.6642 118.853 81.1172C118.853 78.8459 119.28 76.6754 120.024 74.6526ZM83.4516 61.9889C90.7193 61.9889 97.06 65.9157 100.415 71.7123C100.326 71.7951 100.231 71.8679 100.144 71.9529C99.494 72.5909 99.494 73.6252 100.144 74.2624C100.59 74.699 101.22 74.8138 101.784 74.6526C102.528 76.6754 102.955 78.8459 102.955 81.1172C102.955 91.6642 94.2056 100.245 83.4516 100.245C72.6976 100.245 63.9481 91.6642 63.9481 81.1172C63.9481 70.5703 72.6976 61.9889 83.4516 61.9889Z" fill="#D4D4D7"/>
<path d="M136.42 121.684C135.62 116.169 129.99 114.62 128.453 114.467C126.917 114.313 121.893 116.205 116.412 121.928C112.035 126.497 110.374 133.457 109.883 136.075C109.756 136.738 109.708 137.122 109.708 137.122L109.883 137.137H109.889L112.597 137.393L118.1 137.906C125.99 137.228 132.393 131.397 135.083 126.518C136.113 124.654 136.6 122.927 136.42 121.684ZM120.319 134.334C116.11 137.609 112.595 137.36 112.595 137.36V137.289C112.595 133.749 117.697 128.269 123.124 125.628C123.124 125.627 123.804 131.62 120.319 134.334Z" fill="#51B8BF"/>
<path d="M135.387 126.298C132.698 131.271 126.301 137.215 118.419 137.906L112.922 137.383C112.918 137.37 112.918 137.361 112.918 137.349C112.918 137.349 116.431 137.603 120.635 134.264C124.118 131.498 123.438 125.389 123.438 125.389C123.835 125.193 124.232 125.012 124.629 124.847C130.504 122.426 135.387 126.298 135.387 126.298Z" fill="#357E83"/>
<path d="M110.069 136.074C109.578 133.456 107.916 126.497 103.54 121.927C98.059 116.205 93.0348 114.313 91.4995 114.467C89.9617 114.62 84.3326 116.169 83.5319 121.684C83.3509 122.927 83.8393 124.654 84.8681 126.518C87.5595 131.397 93.962 137.228 101.851 137.906L107.354 137.393L110.069 137.137H110.075L110.243 137.122C110.243 137.121 110.195 136.737 110.069 136.074ZM107.356 137.359C107.356 137.359 103.84 137.608 99.6324 134.332C96.1468 131.618 96.8269 125.625 96.8269 125.625C102.254 128.268 107.356 133.747 107.356 137.286V137.359Z" fill="#51B8BF"/>
<path d="M107.033 137.349C107.033 137.362 107.033 137.371 107.03 137.383L101.532 137.906C93.6496 137.215 87.2529 131.272 84.5647 126.298C84.5647 126.298 89.449 122.426 95.3223 124.847C95.7194 125.012 96.1165 125.193 96.5137 125.389C96.5137 125.389 95.8342 131.498 99.3166 134.264C103.521 137.603 107.033 137.349 107.033 137.349Z" fill="#357E83"/>
<path d="M109.174 146.966V188L140.737 185.256V146.966H109.174Z" fill="#F9BE2B"/>
<path d="M109.174 135.774L142.877 138.903L142.524 153.361L109.174 152.12V135.774Z" fill="#F9BE2B"/>
<path d="M109.174 152.295L140.737 155.492V153.444L109.174 152.295Z" fill="#F4AA06"/>
<path d="M126.578 137.373L126.292 186.401L131.787 185.938L132.712 137.928L126.578 137.373Z" fill="#51B8BF"/>
<path d="M109.173 146.966V188L77.6101 185.256V146.966H109.173Z" fill="#FFCC3D"/>
<path d="M109.173 135.774L74.9353 138.903L75.294 153.361L109.173 152.12V135.774Z" fill="#FFCC3D"/>
<path d="M109.173 152.295L77.6101 155.492V153.444L109.173 152.295Z" fill="#F9BE2B"/>
<path d="M91.2583 137.373L91.5194 186.401L86.4829 185.938L85.6348 137.928L91.2583 137.373Z" fill="#51B8BF"/>
</svg>
