<svg width="154" height="165" viewBox="0 0 154 165" fill="none" xmlns="http://www.w3.org/2000/svg">
<path d="M108.757 104.102C108.757 104.102 107.299 88.6107 112.978 79.9557C126.615 59.177 119.252 30.6807 100.689 14.1732C100.318 13.8432 99.9448 13.5151 99.566 13.1851C73.6516 -9.35988 33.3111 -2.09617 16.9423 28.1307C6.74606 46.9595 -1.26773 72.392 0.166646 104.983L0.339165 109.418L0.633565 123.296C0.66544 124.813 1.08167 126.298 1.84292 127.613C2.60229 128.925 3.68232 130.024 4.98169 130.806C6.28107 131.588 7.75668 132.026 9.27168 132.081C10.7848 132.137 12.2885 131.807 13.6423 131.121L14.5329 130.671C16.1229 129.864 17.9154 129.553 19.6817 129.773C21.4498 129.992 23.111 130.734 24.4554 131.904L31.9479 138.424C33.5642 139.83 35.6304 140.612 37.7698 140.625C39.9111 140.638 41.9867 139.884 43.6198 138.499L50.2554 132.87C51.7686 131.588 53.6642 130.841 55.6442 130.753C57.626 130.663 59.5798 131.235 61.2017 132.377L69.9129 138.508C71.576 139.68 73.5879 140.25 75.6167 140.124C77.6454 140.001 79.5711 139.189 81.0786 137.824L86.2554 133.136C87.6785 131.848 89.4766 131.049 91.3873 130.862C93.296 130.673 95.216 131.104 96.8622 132.088C98.2779 132.936 99.898 133.374 101.546 133.359C103.192 133.344 104.805 132.874 106.204 132C107.602 131.126 108.733 129.883 109.472 128.408C110.212 126.932 110.531 125.282 110.394 123.636L108.784 104.102" fill="#9A99EA"/>
<path d="M26.6681 79.8718C32.1937 57.1731 43.5412 37.4481 65.9212 39.5256C76.4737 40.4612 86.9719 41.9556 97.3669 44.005C113.421 47.1681 121.448 65.545 112.581 79.3094C112.511 79.4144 112.444 79.5212 112.374 79.6262C106.659 88.3281 108.128 103.904 108.128 103.904H108.152L109.774 123.544C109.911 125.209 109.584 126.88 108.831 128.371C108.077 129.859 106.926 131.112 105.503 131.986C104.081 132.859 102.444 133.322 100.776 133.321C99.1069 133.319 97.4719 132.854 96.0506 131.978C92.7131 129.925 88.3894 130.467 85.4831 133.096L80.2744 137.809C78.7556 139.182 76.8188 139.997 74.7769 140.123C72.735 140.247 70.7119 139.675 69.0375 138.497L60.2719 132.332C58.6387 131.183 56.6719 130.609 54.6787 130.699C52.6856 130.789 50.7787 131.537 49.2562 132.827L42.5794 138.488C40.935 139.881 38.8481 140.639 36.6938 140.626C34.5394 140.612 32.4619 139.827 30.8344 138.413L23.295 131.858C22.6875 131.335 22.0125 130.898 21.2888 130.555C21.2888 130.555 16.875 124.9 16.875 119.101C16.875 119.101 24.2006 123.023 28.29 117.906C32.3794 112.789 32.8893 99.8275 32.8893 99.8275C32.8893 99.8275 23.5106 92.8318 26.6662 79.8699L26.6681 79.8718Z" fill="url(#paint0_linear_669_801)"/>
<path d="M43.125 86.25L82.5 90" stroke="white" stroke-width="2" stroke-miterlimit="10" stroke-linecap="round"/>
<path d="M48.75 88.125V101.25" stroke="white" stroke-width="2" stroke-miterlimit="10" stroke-linecap="round"/>
<path d="M80.9303 60.5869C80.9303 60.5869 76.4791 74.3363 87.1216 74.535C97.7622 74.7338 97.7116 62.7188 97.7116 62.7188M62.8553 56.1C62.8553 56.1 62.4784 70.7925 52.0966 68.4131C41.7147 66.0319 44.5872 54.375 44.5872 54.375" stroke="#373737" stroke-width="2" stroke-linecap="round" stroke-linejoin="round"/>
<path d="M53.4375 165C72.5944 165 88.125 162.902 88.125 160.312C88.125 157.723 72.5944 155.625 53.4375 155.625C34.2806 155.625 18.75 157.723 18.75 160.312C18.75 162.902 34.2806 165 53.4375 165Z" fill="#D3DADC"/>
<path d="M129.416 66.1186L129.423 66.0493C129.566 65.0049 130.068 64.0411 130.848 63.3211L144.772 50.4662L135.084 49.1911C134.685 49.1386 134.296 49.0074 133.948 48.8068C133.597 48.6061 133.289 48.3399 133.044 48.0211C132.798 47.7043 132.618 47.3424 132.515 46.9543C132.41 46.568 132.384 46.1649 132.438 45.7693C132.545 44.9686 132.971 44.243 133.62 43.7518C134.268 43.2605 135.088 43.0449 135.898 43.1518L149.748 44.9761C150.96 45.1355 152.058 45.7637 152.801 46.7237C153.543 47.6837 153.871 48.8968 153.708 50.0949C153.568 51.1487 153.058 52.1199 152.266 52.8418L138.159 65.723L148.316 67.0599C149.126 67.1668 149.859 67.5868 150.356 68.2299C150.853 68.8712 151.07 69.6811 150.963 70.4818C150.855 71.2824 150.429 72.008 149.78 72.4992C149.131 72.9886 148.312 73.2061 147.502 73.0993L133.376 71.2392C132.776 71.1605 132.196 70.9655 131.673 70.6655C131.15 70.3655 130.691 69.9661 130.323 69.4899C129.956 69.0155 129.686 68.4717 129.53 67.8942C129.375 67.3149 129.335 66.713 129.416 66.1186Z" fill="#FDC202"/>
<path d="M134.429 55.3217L150.68 57.4854C150.943 57.521 151.198 57.6073 151.426 57.7404C151.657 57.8736 151.858 58.0498 152.021 58.2617C152.182 58.4717 152.3 58.7135 152.368 58.9704C152.437 59.2273 152.454 59.4935 152.418 59.7579C152.383 60.0204 152.296 60.2754 152.163 60.5042C152.03 60.7348 151.854 60.9354 151.642 61.0966C151.432 61.2579 151.19 61.376 150.933 61.4454C150.678 61.5129 150.41 61.5317 150.146 61.496L133.897 59.3304C133.633 59.2967 133.379 59.2104 133.149 59.0773C132.918 58.9441 132.718 58.7661 132.556 58.5561C132.395 58.3442 132.277 58.1041 132.208 57.8473C132.14 57.5904 132.123 57.3223 132.159 57.0598C132.228 56.5273 132.508 56.0454 132.933 55.7192C133.361 55.3929 133.899 55.2504 134.429 55.3217Z" fill="#FDC202"/>
<path d="M120.109 97.9444L120.122 97.8919C120.326 97.0932 120.804 96.39 121.477 95.8988L133.504 87.1388L126.052 85.3088C125.428 85.155 124.894 84.7651 124.564 84.2251C124.234 83.6832 124.134 83.0363 124.292 82.425C124.447 81.8138 124.843 81.2869 125.394 80.9644C125.945 80.64 126.605 80.5425 127.228 80.6963L137.882 83.3138C138.343 83.4263 138.778 83.6288 139.159 83.9063C139.541 84.1857 139.864 84.5344 140.109 84.9357C140.353 85.3351 140.516 85.7794 140.585 86.2407C140.655 86.7038 140.632 87.1744 140.516 87.6281C140.312 88.4325 139.826 89.1413 139.145 89.6325L126.973 98.3982L134.786 100.316C135.409 100.47 135.943 100.86 136.275 101.4C136.605 101.942 136.702 102.589 136.547 103.2C136.391 103.811 135.994 104.338 135.442 104.661C134.891 104.985 134.233 105.083 133.61 104.929L122.743 102.259C122.282 102.146 121.847 101.944 121.466 101.666C121.084 101.389 120.761 101.038 120.515 100.639C120.272 100.238 120.109 99.7931 120.039 99.3319C119.97 98.8688 119.992 98.3982 120.109 97.9444Z" fill="#FDC202"/>
<path d="M124.114 90.2163L136.056 93.2032C136.446 93.3026 136.782 93.5501 136.99 93.8969C137.196 94.2419 137.258 94.6544 137.16 95.0463C137.061 95.4363 136.814 95.7719 136.467 95.9801C136.122 96.1863 135.709 96.2482 135.317 96.1507L123.377 93.162C122.986 93.0645 122.65 92.815 122.444 92.47C122.235 92.125 122.174 91.7107 122.273 91.3207C122.37 90.9288 122.62 90.5932 122.965 90.3869C123.31 90.1788 123.724 90.1169 124.114 90.2163Z" fill="#FDC202"/>
<defs>
<linearGradient id="paint0_linear_669_801" x1="23.7225" y1="68.65" x2="109.714" y2="115.514" gradientUnits="userSpaceOnUse">
<stop offset="0.529" stop-color="#9A99EA" stop-opacity="0.701961"/>
<stop offset="1" stop-color="#9A99EA"/>
</linearGradient>
</defs>
</svg>
