<svg width="140" height="236" viewBox="0 0 140 236" fill="none" xmlns="http://www.w3.org/2000/svg">
<path fill-rule="evenodd" clip-rule="evenodd" d="M120.325 0.574219L1.13449 127.712C0.575122 128.308 0.202377 129.055 0.0621316 129.861C-0.0781137 130.667 0.0202588 131.496 0.345142 132.246C0.670025 132.997 1.20724 133.636 1.89068 134.085C2.57411 134.534 3.37394 134.774 4.19173 134.774H53.225L19.675 235.424L138.866 108.286C139.425 107.69 139.798 106.943 139.938 106.137C140.078 105.331 139.98 104.502 139.655 103.752C139.33 103.001 138.793 102.362 138.109 101.913C137.426 101.464 136.626 101.225 135.808 101.224H95.1625L120.325 0.574219Z" fill="#A9B4DE"/>
<path fill-rule="evenodd" clip-rule="evenodd" d="M19.675 235.426L53.225 134.776H4.19173C3.37394 134.776 2.57411 134.536 1.89068 134.087C1.20724 133.638 0.670025 132.999 0.345142 132.248C0.0202588 131.498 -0.0781137 130.669 0.0621316 129.863C0.202377 129.057 0.575122 128.31 1.13449 127.714L10.2391 118.001H95.1625L19.675 235.426Z" fill="#999BE4"/>
</svg>
