<svg width="25" height="25" viewBox="0 0 25 25" fill="none" xmlns="http://www.w3.org/2000/svg">
<path d="M16.6222 11.415C16.9552 11.7461 16.9567 12.2832 16.6257 12.6161L14.6315 14.6219C14.3003 14.9549 13.7633 14.9565 13.4303 14.6254C13.2638 14.4598 13.1802 14.2432 13.1796 14.0255C13.1789 13.8079 13.2613 13.5908 13.4268 13.4242L13.4268 13.4233L14.716 12.1275L14.8212 12.0208L14.7154 11.9146L13.4187 10.6254C13.0857 10.2944 13.0841 9.75724 13.4152 9.42426C13.7464 9.09126 14.2834 9.08973 14.6164 9.42077L16.6222 11.415Z" fill="#4B5563" stroke="white" stroke-width="0.3"/>
<path d="M21.8612 8.00042L21.8844 16.0004C21.8906 18.1236 20.1692 19.855 18.046 19.8611L6.04602 19.8959C3.92277 19.9021 2.19142 18.1807 2.18527 16.0575L2.16207 8.05753C2.15592 5.93429 3.87725 4.20294 6.0005 4.19678L18.0005 4.16199C20.1237 4.15583 21.8551 5.87717 21.8612 8.00042ZM9.16204 8.03724C9.15861 6.8519 8.19076 5.88966 7.00543 5.89309L6.00543 5.89599C4.82009 5.89943 3.85785 6.86727 3.86128 8.05261L3.88448 16.0526C3.88792 17.2379 4.85576 18.2002 6.04109 18.1967L7.04109 18.1938C8.22643 18.1904 9.18867 17.2225 9.18524 16.0372L9.16204 8.03724ZM20.162 8.00535C20.1586 6.82001 19.1907 5.85776 18.0054 5.8612L10.188 5.88386L10.3205 6.10907C10.6549 6.6787 10.8592 7.33006 10.8613 8.03231L10.8844 16.0323C10.8865 16.7345 10.6859 17.3871 10.3549 17.9586L10.2237 18.1846L18.041 18.1619C19.2264 18.1585 20.1886 17.1906 20.1852 16.0053L20.162 8.00535Z" fill="#4B5563" stroke="white" stroke-width="0.3"/>
</svg>
