<svg width="21" height="21" viewBox="0 0 21 21" fill="none" xmlns="http://www.w3.org/2000/svg">
<g clip-path="url(#clip0_1187_556)">
<path fill-rule="evenodd" clip-rule="evenodd" d="M6.081 10.7359C5.743 10.1219 5.569 9.54695 5.569 9.01095C5.569 8.40395 5.732 7.89295 6.049 7.44695C6.14834 7.30742 6.25977 7.17692 6.382 7.05695L6.43 7.00695L6.437 6.99795L6.428 7.00795L6.442 6.99395C6.53362 6.89367 6.64472 6.81314 6.76852 6.75726C6.89231 6.70138 7.0262 6.67133 7.162 6.66895C7.367 6.66895 7.507 6.67195 7.629 6.67695C7.655 6.67795 7.655 6.67795 7.676 6.67695C7.941 6.67695 8.081 6.76595 8.229 7.06495L8.24601 7.10195L8.266 7.14595L8.59301 7.91395C8.85101 8.52095 8.97501 8.80895 9.00301 8.86395C9.10301 9.05495 9.109 9.20695 9.023 9.37295L8.988 9.44095L8.95 9.51595C8.93 9.55395 8.911 9.58595 8.892 9.61795C8.856 9.67495 8.816 9.72795 8.767 9.78295L8.646 9.92395C8.546 10.0419 8.49701 10.0969 8.45601 10.1409L8.21801 10.3909L8.40401 10.6819C8.74701 11.2219 9.163 11.7189 9.629 12.1209C10.015 12.4539 10.409 12.7209 10.83 12.9379C10.982 13.0159 11.284 13.1519 11.52 13.2519L11.805 13.3739L12.012 13.1409C12.292 12.8259 12.582 12.4799 12.688 12.3259C12.858 12.0779 13.002 12.0439 13.354 12.1689C13.514 12.2249 14.338 12.6049 15.01 12.9299L15.206 13.0229C15.279 13.0569 15.322 13.0789 15.361 13.1029C15.441 13.1499 15.484 13.1899 15.516 13.2429C15.614 13.3999 15.579 13.9209 15.386 14.4459C15.206 14.9359 14.333 15.5279 13.676 15.6229C13.096 15.7059 12.607 15.6789 12.112 15.5269C11.6429 15.3868 11.1816 15.2219 10.73 15.0329C9.91 14.6909 9.114 14.1689 8.347 13.4799C7.73644 12.9302 7.18419 12.319 6.699 11.6559C6.65627 11.5996 6.61394 11.5429 6.572 11.4859C6.38943 11.2491 6.2246 10.9983 6.081 10.7359ZM3.011 18.2249L6.093 17.2999C7.74163 18.4128 9.7457 18.8716 11.7143 18.5868C13.6828 18.302 15.4747 17.294 16.7404 15.7596C18.006 14.2251 18.6546 12.2742 18.5597 10.2874C18.4648 8.30064 17.6332 6.42045 16.227 5.01365C14.8208 3.60684 12.941 2.77432 10.9543 2.67848C8.96753 2.58264 7.01632 3.23037 5.48129 4.4953C3.94626 5.76023 2.9375 7.55165 2.65179 9.52009C2.36609 11.4885 2.82393 13.4928 3.936 15.1419L3.012 18.2249H3.011ZM1.766 15.4169C0.977964 13.9586 0.566521 12.3266 0.569005 10.6689C0.569005 5.14595 5.04601 0.668945 10.569 0.668945C16.092 0.668945 20.569 5.14595 20.569 10.6689C20.569 16.1919 16.092 20.6689 10.569 20.6689C8.9106 20.6715 7.27782 20.2597 5.819 19.4709L1.985 20.6209C1.79471 20.6781 1.59247 20.6827 1.39979 20.6341C1.20711 20.5856 1.03117 20.4858 0.890664 20.3453C0.75016 20.2048 0.650338 20.0288 0.601802 19.8362C0.553266 19.6435 0.557829 19.4412 0.615005 19.2509L1.765 15.4169H1.766Z" fill="#4B5563"/>
<g clip-path="url(#clip1_1187_556)">
<rect x="14" y="14" width="7" height="7" rx="3.5" fill="white"/>
<path d="M20.7307 18.5684V18.8457C20.7307 18.9453 20.6567 19.0301 20.5584 19.0449L20.3377 19.0759C20.3121 19.1634 20.2757 19.2482 20.2327 19.329L20.3659 19.508C20.4252 19.5874 20.4184 19.6992 20.3484 19.7692L20.1505 19.9671C20.1129 20.0048 20.063 20.0263 20.0092 20.0263C19.9661 20.0263 19.9244 20.0115 19.8894 19.9859L19.7104 19.8513C19.6296 19.8957 19.5448 19.9307 19.4573 19.9563L19.425 20.1771C19.4115 20.2753 19.3267 20.3494 19.2271 20.3494H18.9484C18.8502 20.3494 18.764 20.2753 18.7505 20.1771L18.7196 19.9563C18.6316 19.9309 18.5467 19.8957 18.4665 19.8513L18.2861 19.9859C18.2094 20.0438 18.0936 20.0357 18.025 19.9671L17.8284 19.7705C17.7584 19.7005 17.7504 19.5874 17.8096 19.508L17.9132 19.3707L18.064 19.4851C18.1515 19.5498 18.2605 19.5861 18.3709 19.5861C18.5055 19.5861 18.6375 19.5336 18.733 19.438L18.8407 19.3317C18.9188 19.3626 19.0023 19.3801 19.0884 19.3801C19.4586 19.3801 19.7615 19.0786 19.7615 18.7071C19.7615 18.3355 19.4586 18.034 19.0884 18.034C19.0723 18.034 19.0561 18.0367 19.04 18.038L19.048 18.0178L19.2944 17.9828C19.5205 17.9519 19.6955 17.7715 19.7279 17.5494L19.8894 17.4282C19.9661 17.3703 20.0819 17.3784 20.1505 17.4471L20.3484 17.6436C20.4184 17.7136 20.4265 17.8267 20.3673 17.9061L20.2327 18.0851C20.2757 18.1659 20.3121 18.2507 20.3377 18.3382L20.5584 18.3692C20.6567 18.384 20.7307 18.4688 20.7307 18.5684Z" fill="#4B5563"/>
<path d="M18.227 19.269C18.3212 19.3404 18.4599 19.3296 18.5433 19.2475L18.8651 18.9258C18.9499 18.841 18.9593 18.705 18.8879 18.6094L18.6349 18.2715C18.7264 18.1154 18.7951 17.9485 18.8408 17.7748L19.2581 17.7156C19.3766 17.6994 19.4654 17.5958 19.4654 17.476V17.021C19.4654 16.9012 19.3766 16.7989 19.2581 16.7814L18.8408 16.7221C18.7949 16.548 18.7256 16.3809 18.6349 16.2254L18.8879 15.8889C18.9593 15.7933 18.9499 15.6573 18.8651 15.5725L18.5433 15.2508C18.4612 15.1687 18.3212 15.1579 18.227 15.2279L17.8904 15.481C17.7329 15.3908 17.5674 15.3208 17.3937 15.275L17.3345 14.859C17.317 14.7406 17.2147 14.6504 17.0949 14.6504H16.6399C16.5201 14.6504 16.4177 14.7392 16.4002 14.8577L16.341 15.275C16.1674 15.3208 16.0004 15.3908 15.8443 15.481L15.5064 15.2279C15.4122 15.1579 15.2735 15.1687 15.1914 15.2508L14.8697 15.5725C14.7849 15.6573 14.7754 15.7933 14.8468 15.8889L15.0999 16.2254C15.0091 16.3809 14.9399 16.548 14.8939 16.7221L14.4766 16.7827C14.3581 16.7989 14.2693 16.9025 14.2693 17.021V17.476C14.2693 17.5958 14.3581 17.6994 14.4766 17.7156L14.8939 17.7748C14.9397 17.9485 15.0083 18.1154 15.0999 18.2715L14.8468 18.6094C14.7754 18.705 14.7849 18.841 14.8697 18.9258L15.1914 19.2475C15.2735 19.3296 15.4135 19.3404 15.5064 19.269L15.8443 19.016C16.0004 19.1075 16.1674 19.1762 16.341 19.2233L16.4002 19.6392C16.4177 19.7577 16.5201 19.8465 16.6399 19.8465H17.0949C17.2147 19.8465 17.317 19.7577 17.3345 19.6392L17.3937 19.2233C17.5674 19.1762 17.7329 19.1075 17.8904 19.016L18.227 19.269ZM16.8674 18.5327C16.1593 18.5327 15.5831 17.9565 15.5831 17.2485C15.5831 16.5404 16.1593 15.9642 16.8674 15.9642C17.5754 15.9642 18.1516 16.5404 18.1516 17.2485C18.1516 17.9565 17.5754 18.5327 16.8674 18.5327Z" fill="#4B5563"/>
</g>
</g>
<defs>
<clipPath id="clip0_1187_556">
<rect width="21" height="21" fill="white"/>
</clipPath>
<clipPath id="clip1_1187_556">
<rect x="14" y="14" width="7" height="7" rx="3.5" fill="white"/>
</clipPath>
</defs>
</svg>
